<svg id="Grupo_169366" data-name="Grupo 169366" xmlns="http://www.w3.org/2000/svg" width="171" height="143.161" viewBox="0 0 171 143.161">
  <rect id="Rectángulo_49533" data-name="Rectángulo 49533" width="140.373" height="107.832" transform="translate(30.627 35.329)" fill="#ffde96"/>
  <g id="Grupo_165754" data-name="Grupo 165754" transform="translate(1.984 1.985)">
    <g id="Grupo_165749" data-name="Grupo 165749" transform="translate(83.553 11.746)">
      <circle id="Elipse_5194" data-name="Elipse 5194" cx="3.96" cy="3.96" r="3.96" transform="translate(0 0)" fill="#b4dd7f"/>
    </g>
    <g id="Grupo_165750" data-name="Grupo 165750" transform="translate(28.112 98.868)">
      <circle id="Elipse_5195" data-name="Elipse 5195" cx="3.96" cy="3.96" r="3.96" transform="translate(0 0)" fill="#ef7385"/>
    </g>
    <g id="Grupo_165751" data-name="Grupo 165751" transform="translate(75.404 63.499)">
      <path id="Trazado_177958" data-name="Trazado 177958" d="M39,72.687V51.831A27.826,27.826,0,0,0,50.628,33H80.671a1.99,1.99,0,0,1,1.984,1.984V86.577a1.99,1.99,0,0,1-1.984,1.984H40.984A1.99,1.99,0,0,1,39,86.577Z" transform="translate(-39 -33)" fill="#ef7385"/>
    </g>
    <g id="Grupo_165752" data-name="Grupo 165752" transform="translate(0 0)">
      <path id="Trazado_177959" data-name="Trazado 177959" d="M44.655,16.875V37.73A27.826,27.826,0,0,0,33.027,56.561H2.984A1.99,1.99,0,0,1,1,54.577V2.984A1.99,1.99,0,0,1,2.984,1H42.671a1.99,1.99,0,0,1,1.984,1.984Z" transform="translate(-1 -1)" fill="#b4dd7f"/>
    </g>
    <g id="Grupo_165753" data-name="Grupo 165753" transform="translate(31.749 31.749)">
      <path id="Trazado_177960" data-name="Trazado 177960" d="M69.882,32.875a27.79,27.79,0,0,0-52.6,7.937A28.97,28.97,0,0,0,17,44.781a27.783,27.783,0,0,0,43.655,22.8A27.826,27.826,0,0,0,72.283,48.749a28.97,28.97,0,0,0,.278-3.969A27.558,27.558,0,0,0,69.882,32.875Z" transform="translate(-17 -17)" fill="#4fc1e9"/>
    </g>
  </g>
  <g id="Grupo_165755" data-name="Grupo 165755">
    <path id="Trazado_177961" data-name="Trazado 177961" d="M47.953,17.906A5.953,5.953,0,1,0,42,11.953,5.96,5.96,0,0,0,47.953,17.906Zm0-7.937a1.984,1.984,0,1,1-1.984,1.984A1.988,1.988,0,0,1,47.953,9.969Z" transform="translate(41.342 5.906)"/>
    <path id="Trazado_177962" data-name="Trazado 177962" d="M38,8h3.969v3.969H38Z" transform="translate(37.404 7.875)"/>
    <path id="Trazado_177963" data-name="Trazado 177963" d="M50,8h3.969v3.969H50Z" transform="translate(49.216 7.875)"/>
    <path id="Trazado_177964" data-name="Trazado 177964" d="M5,16h7.937v3.969H5Z" transform="translate(4.922 15.749)"/>
    <path id="Trazado_177965" data-name="Trazado 177965" d="M11,16H22.906v3.969H11Z" transform="translate(10.828 15.749)"/>
    <path id="Trazado_177966" data-name="Trazado 177966" d="M5,20H24.843v3.969H5Z" transform="translate(4.922 19.687)"/>
    <path id="Trazado_177967" data-name="Trazado 177967" d="M5,24H20.875v3.969H5Z" transform="translate(4.922 23.624)"/>
    <path id="Trazado_177968" data-name="Trazado 177968" d="M119.06,63.5H91.178c.044-.659.1-1.314.1-1.984a29.733,29.733,0,0,0-43.655-26.3V19.843H71.436V15.875H47.624V3.969A3.973,3.973,0,0,0,43.655,0H3.969A3.973,3.973,0,0,0,0,3.969V55.561A3.973,3.973,0,0,0,3.969,59.53H31.85c-.044.659-.1,1.314-.1,1.984A29.733,29.733,0,0,0,75.4,87.818v15.367H51.593v3.969H75.4V119.06a3.973,3.973,0,0,0,3.969,3.969H119.06a3.973,3.973,0,0,0,3.969-3.969V67.467A3.973,3.973,0,0,0,119.06,63.5ZM51.593,61.514a33.738,33.738,0,0,1,1.526-9.922H69.908a33,33,0,0,1,0,19.843H53.12a33.675,33.675,0,0,1-1.528-9.922Zm6.747-20.24,3.175-4.235,3.175,4.235a33.506,33.506,0,0,1,3.721,6.35H54.621A33.453,33.453,0,0,1,58.339,41.274Zm-8.023,6.35H39.812A25.818,25.818,0,0,1,57.26,36.1l-2.1,2.794A37.606,37.606,0,0,0,50.317,47.624ZM68.41,75.4a33.568,33.568,0,0,1-3.721,6.35l-3.175,4.233-3.175-4.233a33.506,33.506,0,0,1-3.721-6.35Zm-.546,8.731A37.565,37.565,0,0,0,72.712,75.4H83.217A25.818,25.818,0,0,1,65.769,86.929Zm17.456-12.7H74.035a36.633,36.633,0,0,0,0-19.843H85.32a25.725,25.725,0,0,1,0,19.843Zm-2.1-23.812H72.712a37.606,37.606,0,0,0-4.848-8.731l-2.1-2.794A25.818,25.818,0,0,1,83.217,47.624ZM3.969,55.561V3.969H43.655V15.875H23.516l5.5-4.4-2.478-3.1-11.86,9.487L26.54,27.346l2.478-3.1-5.5-4.4H43.655V37.76a29.791,29.791,0,0,0-11.307,17.8Zm33.74-3.969H48.993a36.633,36.633,0,0,0,0,19.843H37.708a25.725,25.725,0,0,1,0-19.843Zm2.1,23.812H50.317a37.606,37.606,0,0,0,4.848,8.731l2.1,2.794A25.818,25.818,0,0,1,39.812,75.4ZM119.06,119.06H79.373V107.154H99.512l-5.5,4.4,2.478,3.1,11.86-9.487L96.488,95.682l-2.478,3.1,5.5,4.4H79.373V85.269a29.791,29.791,0,0,0,11.307-17.8h28.38Z"/>
    <path id="Trazado_177969" data-name="Trazado 177969" d="M19.953,50a5.953,5.953,0,1,0,5.953,5.953A5.96,5.96,0,0,0,19.953,50Zm0,7.937a1.984,1.984,0,1,1,1.984-1.984A1.988,1.988,0,0,1,19.953,57.937Z" transform="translate(13.781 49.216)"/>
    <path id="Trazado_177970" data-name="Trazado 177970" d="M22,52h3.969v3.969H22Z" transform="translate(21.655 51.185)"/>
    <path id="Trazado_177971" data-name="Trazado 177971" d="M10,52h3.969v3.969H10Z" transform="translate(9.843 51.185)"/>
    <path id="Trazado_177972" data-name="Trazado 177972" d="M53,36h7.937v3.969H53Z" transform="translate(52.169 35.436)"/>
    <path id="Trazado_177973" data-name="Trazado 177973" d="M47,36h7.937v3.969H47Z" transform="translate(46.263 35.436)"/>
    <path id="Trazado_177974" data-name="Trazado 177974" d="M47,40H66.843v3.969H47Z" transform="translate(46.263 39.373)"/>
    <path id="Trazado_177975" data-name="Trazado 177975" d="M49,44H64.875v3.969H49Z" transform="translate(48.232 43.31)"/>
  </g>
</svg>
