<svg id="Grupo_169369" data-name="Grupo 169369" xmlns="http://www.w3.org/2000/svg" width="193.146" height="181.938" viewBox="0 0 193.146 181.938">
  <rect id="Rectángulo_49533" data-name="Rectángulo 49533" width="162.487" height="124.82" transform="translate(30.659 57.118)" fill="#ffde96"/>
  <g id="computer" transform="translate(0 0)">
    <g id="Grupo_165772" data-name="Grupo 165772" transform="translate(2.145 2.145)">
      <g id="Grupo_165758" data-name="Grupo 165758" transform="translate(105.126 120.144)">
        <path id="Trazado_177998" data-name="Trazado 177998" d="M51,58H63.873v8.582H51Z" transform="translate(-51 -58)" fill="#aab2bd"/>
      </g>
      <g id="Grupo_165759" data-name="Grupo 165759" transform="translate(57.927 120.144)">
        <path id="Trazado_177999" data-name="Trazado 177999" d="M29,58H41.873v8.582H29Z" transform="translate(-29 -58)" fill="#aab2bd"/>
      </g>
      <g id="Grupo_165760" data-name="Grupo 165760" transform="translate(10.727 120.144)">
        <path id="Trazado_178000" data-name="Trazado 178000" d="M7,58H19.873v8.582H7Z" transform="translate(-7 -58)" fill="#aab2bd"/>
      </g>
      <g id="Grupo_165761" data-name="Grupo 165761" transform="translate(94.399 111.563)">
        <path id="Trazado_178001" data-name="Trazado 178001" d="M80.327,54v4.291a4.3,4.3,0,0,1-4.291,4.291H50.291A4.3,4.3,0,0,1,46,58.291V54Z" transform="translate(-46 -54)" fill="#ccd1d9"/>
      </g>
      <g id="Grupo_165762" data-name="Grupo 165762" transform="translate(47.2 111.563)">
        <path id="Trazado_178002" data-name="Trazado 178002" d="M58.327,54v4.291a4.3,4.3,0,0,1-4.291,4.291H28.291A4.3,4.3,0,0,1,24,58.291V54Z" transform="translate(-24 -54)" fill="#ccd1d9"/>
      </g>
      <g id="Grupo_165763" data-name="Grupo 165763" transform="translate(0 111.563)">
        <path id="Trazado_178003" data-name="Trazado 178003" d="M36.327,54v4.291a4.3,4.3,0,0,1-4.291,4.291H6.291A4.3,4.3,0,0,1,2,58.291V54Z" transform="translate(-2 -54)" fill="#ccd1d9"/>
      </g>
      <g id="Grupo_165764" data-name="Grupo 165764" transform="translate(94.399 94.399)">
        <path id="Trazado_178004" data-name="Trazado 178004" d="M80.327,50.291V63.163H46V50.291A4.3,4.3,0,0,1,50.291,46H76.036A4.3,4.3,0,0,1,80.327,50.291Z" transform="translate(-46 -46)" fill="#acfcff"/>
      </g>
      <g id="Grupo_165765" data-name="Grupo 165765" transform="translate(47.2 94.399)">
        <path id="Trazado_178005" data-name="Trazado 178005" d="M58.327,54.582v8.582H24V50.291A4.3,4.3,0,0,1,28.291,46H54.036a4.3,4.3,0,0,1,4.291,4.291Z" transform="translate(-24 -46)" fill="#acfcff"/>
      </g>
      <g id="Grupo_165766" data-name="Grupo 165766" transform="translate(0 94.399)">
        <path id="Trazado_178006" data-name="Trazado 178006" d="M36.327,54.582v8.582H2V50.291A4.3,4.3,0,0,1,6.291,46H32.036a4.3,4.3,0,0,1,4.291,4.291Z" transform="translate(-2 -46)" fill="#acfcff"/>
      </g>
      <g id="Grupo_165767" data-name="Grupo 165767" transform="translate(60.759)">
        <path id="Trazado_178007" data-name="Trazado 178007" d="M50.466,67.908a12.879,12.879,0,0,0-7.96-23,12.737,12.737,0,0,0-4.355.772,23.63,23.63,0,0,0-7.831-16.22A34.331,34.331,0,1,1,68.208,70.4a34.678,34.678,0,0,1-17.743-2.489Z" transform="translate(-30.32 -2)" fill="#a4a3ff"/>
      </g>
      <g id="Grupo_165768" data-name="Grupo 165768" transform="translate(8.582 21.454)">
        <path id="Trazado_178008" data-name="Trazado 178008" d="M83.236,46.327A12.854,12.854,0,0,1,70.363,59.2H18.873a12.873,12.873,0,1,1,0-25.745h.107A23.607,23.607,0,0,1,42.472,12a23.356,23.356,0,0,1,15.7,6.007,23.63,23.63,0,0,1,7.831,16.219,12.737,12.737,0,0,1,4.355-.772A12.883,12.883,0,0,1,83.236,46.327Z" transform="translate(-6 -12)" fill="#ff8578"/>
      </g>
      <g id="Grupo_165769" data-name="Grupo 165769" transform="translate(60.461 51.113)">
        <circle id="Elipse_5197" data-name="Elipse 5197" cx="4.288" cy="4.288" r="4.288" transform="translate(0 0)" fill="#ff826e"/>
      </g>
      <g id="Grupo_165770" data-name="Grupo 165770" transform="translate(43.309 51.113)">
        <circle id="Elipse_5198" data-name="Elipse 5198" cx="4.288" cy="4.288" r="4.288" transform="translate(0 0)" fill="#ff826e"/>
      </g>
      <g id="Grupo_165771" data-name="Grupo 165771" transform="translate(26.156 51.113)">
        <circle id="Elipse_5199" data-name="Elipse 5199" cx="4.288" cy="4.288" r="4.288" transform="translate(0 0)" fill="#ff826e"/>
      </g>
    </g>
    <g id="Grupo_165773" data-name="Grupo 165773">
      <path id="Trazado_178009" data-name="Trazado 178009" d="M127.581,95.4H116.854V82.527H103.981V73.342A36.458,36.458,0,1,0,62.63,26.919,25.687,25.687,0,0,0,22.8,44.016a15.018,15.018,0,0,0,1.8,29.929h6.436v8.582H18.163V95.4H7.436A6.444,6.444,0,0,0,1,101.836V119a6.444,6.444,0,0,0,6.436,6.436h4.291v4.291H7.436v4.291H33.179v-4.291H28.891v-4.291h4.291A6.444,6.444,0,0,0,39.618,119V108.272H48.2V119a6.444,6.444,0,0,0,6.436,6.436h4.291v4.291H54.636v4.291H80.379v-4.291H76.09v-4.291h4.291A6.444,6.444,0,0,0,86.817,119V108.272H95.4V119a6.444,6.444,0,0,0,6.436,6.436h4.291v4.291h-4.291v4.291h25.743v-4.291H123.29v-4.291h4.291A6.444,6.444,0,0,0,134.017,119V101.836A6.444,6.444,0,0,0,127.581,95.4Zm2.145,6.436v10.727H99.69V101.836a2.148,2.148,0,0,1,2.145-2.145h25.745A2.148,2.148,0,0,1,129.726,101.836ZM97.545,69.654a32.01,32.01,0,0,1-9.65-1.474,14.66,14.66,0,0,0,3.042-11.4h18.507C106.671,64.533,102.333,69.654,97.545,69.654Zm14.967-30.036a60.851,60.851,0,0,1-1.751,12.873H89.639a15.105,15.105,0,0,0-6.576-6.853c-.249-1.967-.4-3.98-.461-6.02ZM82.578,35.327a60.851,60.851,0,0,1,1.751-12.873h26.43a60.85,60.85,0,0,1,1.751,12.873Zm25.9,32.372a35.731,35.731,0,0,0,5.505-10.918h9.243A32.283,32.283,0,0,1,108.482,67.7Zm17.5-15.209h-10.8A65.256,65.256,0,0,0,116.8,39.618h12.819a31.92,31.92,0,0,1-3.632,12.873Zm0-30.036a31.92,31.92,0,0,1,3.632,12.873H116.8a65.255,65.255,0,0,0-1.613-12.873Zm-2.755-4.291h-9.243a35.731,35.731,0,0,0-5.505-10.918A32.283,32.283,0,0,1,123.23,18.163ZM97.545,5.291c4.789,0,9.127,5.121,11.9,12.873h-23.8c2.772-7.751,7.11-12.873,11.9-12.873ZM86.633,7.209A35.707,35.707,0,0,0,81.1,18.163H71.825A32.45,32.45,0,0,1,86.633,7.209ZM69.1,22.454H79.9a65.255,65.255,0,0,0-1.613,12.873H70.463a25.768,25.768,0,0,0-4.177-5.4A31.667,31.667,0,0,1,69.1,22.454Zm9.485,21.68a15,15,0,0,0-2.5-.225,14.593,14.593,0,0,0-2.5.215,25.582,25.582,0,0,0-1.146-4.505h5.861c.047,1.523.137,3.027.281,4.516ZM24.6,69.654A10.726,10.726,0,0,1,24.581,48.2h0l2.072.12.187-2.068a21.433,21.433,0,0,1,42.744.7l.165,2.868,2.7-.972A10.722,10.722,0,1,1,76.09,69.654ZM7.436,99.69H33.182a2.148,2.148,0,0,1,2.145,2.145v10.727H5.291V101.836A2.148,2.148,0,0,1,7.436,99.69ZM24.6,129.726H16.018v-4.291H24.6Zm8.582-8.582H7.436A2.148,2.148,0,0,1,5.291,119v-2.145H35.327V119A2.148,2.148,0,0,1,33.182,121.144Zm6.436-17.163v-2.145A6.444,6.444,0,0,0,33.182,95.4H22.454V86.817H35.327V73.945H65.363V95.4H54.636a6.444,6.444,0,0,0-6.436,6.436v2.145Zm42.909,8.582H52.49V101.836a2.148,2.148,0,0,1,2.145-2.145H80.381a2.148,2.148,0,0,1,2.145,2.145ZM71.8,129.726H63.218v-4.291H71.8Zm8.582-8.582H54.636A2.148,2.148,0,0,1,52.49,119v-2.145H82.527V119A2.148,2.148,0,0,1,80.381,121.144Zm6.436-17.163v-2.145A6.444,6.444,0,0,0,80.381,95.4H69.654V73.945H76.09a14.916,14.916,0,0,0,8.277-2.5,36.209,36.209,0,0,0,13.177,2.5c.725,0,1.431-.067,2.145-.109V86.817h12.873V95.4H101.836a6.444,6.444,0,0,0-6.436,6.436v2.145ZM119,129.726h-8.582v-4.291H119Zm8.582-8.582H101.836A2.148,2.148,0,0,1,99.69,119v-2.145h30.036V119A2.148,2.148,0,0,1,127.581,121.144Z" transform="translate(-1 -1)"/>
      <path id="Trazado_178010" data-name="Trazado 178010" d="M19.436,25a6.436,6.436,0,1,0,6.436,6.436A6.444,6.444,0,0,0,19.436,25Zm0,8.582a2.145,2.145,0,1,1,2.145-2.145A2.148,2.148,0,0,1,19.436,33.582Z" transform="translate(12.745 26.49)"/>
      <path id="Trazado_178011" data-name="Trazado 178011" d="M27.436,25a6.436,6.436,0,1,0,6.436,6.436A6.444,6.444,0,0,0,27.436,25Zm0,8.582a2.145,2.145,0,1,1,2.145-2.145A2.148,2.148,0,0,1,27.436,33.582Z" transform="translate(21.909 26.49)"/>
      <path id="Trazado_178012" data-name="Trazado 178012" d="M35.436,25a6.436,6.436,0,1,0,6.436,6.436A6.444,6.444,0,0,0,35.436,25Zm0,8.582a2.145,2.145,0,1,1,2.145-2.145A2.148,2.148,0,0,1,35.436,33.582Z" transform="translate(31.072 26.49)"/>
      <path id="Trazado_178013" data-name="Trazado 178013" d="M23,15v4.291a12.944,12.944,0,0,1,12.338,9.193l4.113-1.223A17.263,17.263,0,0,0,23,15Z" transform="translate(24.2 15.036)"/>
    </g>
  </g>
</svg>
