<svg xmlns="http://www.w3.org/2000/svg" width="252" height="121" viewBox="0 0 252 121">
  <g id="Grupo_172827" data-name="Grupo 172827" transform="translate(8877 8532)">
    <g id="Grupo_172825" data-name="Grupo 172825" transform="translate(484 -89.816)">
      <path id="Trazado_213439" data-name="Trazado 213439" d="M3.946,17H1.31V4.2H3.946ZM8.561,7.49l.079,1.1a3.32,3.32,0,0,1,2.733-1.274,2.759,2.759,0,0,1,2.25.888,4.142,4.142,0,0,1,.756,2.654V17h-2.54V10.9a1.654,1.654,0,0,0-.352-1.176,1.572,1.572,0,0,0-1.169-.366,1.747,1.747,0,0,0-1.608.916V17H6.17V7.49ZM17,17V9.354H15.583V7.49H17V6.682A3.283,3.283,0,0,1,17.917,4.2a3.557,3.557,0,0,1,2.571-.883,5.987,5.987,0,0,1,1.292.174l-.026,1.953a3.238,3.238,0,0,0-.773-.079q-1.433,0-1.433,1.356V7.49h1.89V9.354h-1.89V17Zm5.361-4.843A5.64,5.64,0,0,1,22.9,9.635a3.989,3.989,0,0,1,1.569-1.714,4.577,4.577,0,0,1,2.377-.606,4.33,4.33,0,0,1,3.142,1.178,4.727,4.727,0,0,1,1.358,3.2l.018.65a4.97,4.97,0,0,1-1.222,3.511,4.247,4.247,0,0,1-3.278,1.323,4.268,4.268,0,0,1-3.283-1.318,5.058,5.058,0,0,1-1.226-3.586Zm2.54.18a3.555,3.555,0,0,0,.51,2.073,1.831,1.831,0,0,0,2.9.009,3.89,3.89,0,0,0,.519-2.267,3.519,3.519,0,0,0-.519-2.06,1.686,1.686,0,0,0-1.459-.731,1.658,1.658,0,0,0-1.441.726A3.955,3.955,0,0,0,24.9,12.338ZM38.276,9.872a6.9,6.9,0,0,0-.914-.07,1.86,1.86,0,0,0-1.89.976V17h-2.54V7.49h2.4l.07,1.134a2.354,2.354,0,0,1,2.118-1.31,2.662,2.662,0,0,1,.791.114Zm3.6-2.382.079,1.063a3.342,3.342,0,0,1,2.733-1.239,2.536,2.536,0,0,1,2.522,1.45,3.265,3.265,0,0,1,2.856-1.45,2.836,2.836,0,0,1,2.3.9,4.141,4.141,0,0,1,.756,2.711V17H50.581V10.922a1.818,1.818,0,0,0-.316-1.185,1.4,1.4,0,0,0-1.116-.374,1.585,1.585,0,0,0-1.582,1.092L47.575,17h-2.54V10.93a1.8,1.8,0,0,0-.325-1.2,1.414,1.414,0,0,0-1.107-.37,1.645,1.645,0,0,0-1.564.9V17H39.5V7.49ZM60.592,17a2.821,2.821,0,0,1-.255-.853,3.073,3.073,0,0,1-2.4,1.028,3.376,3.376,0,0,1-2.316-.809,2.6,2.6,0,0,1-.918-2.039,2.687,2.687,0,0,1,1.121-2.32,5.529,5.529,0,0,1,3.239-.817h1.169v-.545a1.567,1.567,0,0,0-.338-1.055,1.331,1.331,0,0,0-1.068-.4,1.513,1.513,0,0,0-1.006.308,1.045,1.045,0,0,0-.365.844h-2.54a2.551,2.551,0,0,1,.51-1.529,3.37,3.37,0,0,1,1.441-1.1,5.253,5.253,0,0,1,2.092-.4,4.15,4.15,0,0,1,2.791.883,3.09,3.09,0,0,1,1.033,2.483V14.8a4.546,4.546,0,0,0,.378,2.048V17Zm-2.1-1.767a2.188,2.188,0,0,0,1.037-.25,1.645,1.645,0,0,0,.7-.672V12.676h-.949q-1.907,0-2.03,1.318l-.009.149a1.017,1.017,0,0,0,.334.782A1.3,1.3,0,0,0,58.491,15.233Zm10.2-.105a1.666,1.666,0,0,0,1.143-.387,1.355,1.355,0,0,0,.457-1.028h2.382a3.258,3.258,0,0,1-.527,1.771,3.48,3.48,0,0,1-1.419,1.248,4.442,4.442,0,0,1-1.991.444,4.129,4.129,0,0,1-3.217-1.3A5.13,5.13,0,0,1,64.336,12.3v-.167A5.071,5.071,0,0,1,65.5,8.624a4.08,4.08,0,0,1,3.208-1.31A4,4,0,0,1,71.574,8.33a3.594,3.594,0,0,1,1.094,2.7H70.286a1.745,1.745,0,0,0-.457-1.206,1.7,1.7,0,0,0-2.5.183,3.749,3.749,0,0,0-.453,2.1v.264a3.8,3.8,0,0,0,.448,2.113A1.549,1.549,0,0,0,68.687,15.128ZM76.8,17H74.25V7.49H76.8ZM74.1,5.029a1.251,1.251,0,0,1,.382-.94,1.648,1.648,0,0,1,2.079,0,1.244,1.244,0,0,1,.387.94,1.247,1.247,0,0,1-.391.949,1.629,1.629,0,0,1-2.065,0A1.247,1.247,0,0,1,74.1,5.029ZM78.5,12.157a5.64,5.64,0,0,1,.545-2.522,3.989,3.989,0,0,1,1.569-1.714,4.577,4.577,0,0,1,2.377-.606,4.33,4.33,0,0,1,3.142,1.178,4.727,4.727,0,0,1,1.358,3.2l.018.65a4.97,4.97,0,0,1-1.222,3.511,4.735,4.735,0,0,1-6.561,0A5.058,5.058,0,0,1,78.5,12.271Zm2.54.18a3.555,3.555,0,0,0,.51,2.073,1.831,1.831,0,0,0,2.9.009,3.89,3.89,0,0,0,.519-2.267,3.519,3.519,0,0,0-.519-2.06,1.686,1.686,0,0,0-1.459-.731,1.658,1.658,0,0,0-1.441.726A3.955,3.955,0,0,0,81.035,12.338ZM83.487,3.5h2.769L83.821,6.225H81.756Zm7.919,3.99.079,1.1a3.32,3.32,0,0,1,2.733-1.274,2.759,2.759,0,0,1,2.25.888,4.142,4.142,0,0,1,.756,2.654V17h-2.54V10.9a1.654,1.654,0,0,0-.352-1.176,1.572,1.572,0,0,0-1.169-.366,1.747,1.747,0,0,0-1.608.916V17h-2.54V7.49Z" transform="translate(-9222 -8368.912)" fill="#fff"/>
      <path id="Polígono_54" data-name="Polígono 54" d="M12.5,0,25,19H0Z" transform="translate(-9327 -8392.102) rotate(90)" fill="#eeac3a"/>
      <g id="x1DzAV.tif" transform="translate(-12565.912 -2928.184)">
        <g id="Grupo_166686" data-name="Grupo 166686" transform="translate(3242 -5496)">
          <path id="Trazado_210976" data-name="Trazado 210976" d="M3308.587-5496c1.542.359,3.11.633,4.619,1.1a18.349,18.349,0,0,1,6.171,3.372l-1.73,2.164c-.263-.178-.479-.317-.688-.468a17.072,17.072,0,0,0-10.165-3.328q-22.264-.017-44.527.005a17.425,17.425,0,0,0-17.423,17.4q-.056,22.263,0,44.526a17.414,17.414,0,0,0,17.337,17.39q22.307.076,44.615,0a17.4,17.4,0,0,0,17.361-17.365q.07-22.307,0-44.615a17.11,17.11,0,0,0-3.353-10.16c-.138-.191-.281-.379-.417-.571a1.521,1.521,0,0,1-.1-.213l2.115-1.724c.225.269.437.5.619.744a20.173,20.173,0,0,1,3.823,9.674,2.711,2.711,0,0,0,.153.491v48.169a4.8,4.8,0,0,0-.164.579q-1.935,12.421-13.731,16.758a38.38,38.38,0,0,1-4.522,1.081h-48.169a4.93,4.93,0,0,0-.58-.164q-12.8-2.035-16.95-14.315a37.745,37.745,0,0,1-.888-3.938v-48.169a4.884,4.884,0,0,0,.163-.584c1.187-7.842,5.433-13.346,12.743-16.38a40.434,40.434,0,0,1,5.512-1.453Z" transform="translate(-3242 5496)" fill="#fff"/>
          <path id="Trazado_210977" data-name="Trazado 210977" d="M3311.889-5436.118c4.627,1.057,7.051,3.826,7.51,8.319,4.205-2.63,7.745-10.237,4.1-17.519a14.281,14.281,0,0,0-20.825-5.268l-1.566-2.2a16.839,16.839,0,0,1,17.855-1.082,17.107,17.107,0,0,1,8.826,16.427,17.068,17.068,0,0,1-4.929,10.518,17,17,0,0,1-10.593,4.945c0,1.188-.012,2.329.012,3.469a.88.88,0,0,0,.278.516c1.642,1.652,3.294,3.294,5.017,5.013a16.98,16.98,0,0,1,14.708-6.035,16.312,16.312,0,0,1,9.205,3.812l-1.769,2.143a14.126,14.126,0,0,0-13.341-2.522,13.6,13.6,0,0,0-8.209,6.846c-3.817,7.2-.494,14.871,3.957,17.8.454-4.5,2.875-7.268,7.541-8.34a7.432,7.432,0,0,1-5.026-3.386,6.871,6.871,0,0,1-.711-5.784,7.1,7.1,0,0,1,7.5-4.949,7.133,7.133,0,0,1,6.314,6.407c.332,3.6-1.882,6.516-5.984,7.706,4.55,1.047,7.024,3.807,7.473,8.331,4.822-3.067,8.517-12.231,2.413-20.15l2.121-1.8a15.512,15.512,0,0,1,2.99,5.277,17.029,17.029,0,0,1-17.1,22.506,17.007,17.007,0,0,1-14.135-24.614,1.088,1.088,0,0,0-.266-1.55c-1.467-1.408-2.884-2.869-4.427-4.415-.917.93-1.8,1.827-2.682,2.72-.623.629-1.227,1.28-1.886,1.869a.828.828,0,0,0-.184,1.2,16.673,16.673,0,0,1,1.74,10.375,4.262,4.262,0,0,1-.144.5l-2.685-.475a14.229,14.229,0,0,0-4.038-12.663,13.881,13.881,0,0,0-8.73-4.045,14.183,14.183,0,0,0-14.761,10.01c-2.042,6.64,1.318,12.908,5,15.262.455-4.5,2.877-7.265,7.558-8.34a7.388,7.388,0,0,1-5.005-3.312,6.862,6.862,0,0,1-.8-5.693,7.087,7.087,0,0,1,7.383-5.122,7.131,7.131,0,0,1,6.474,6.342c.392,3.588-1.782,6.491-5.957,7.794,4.538,1.04,7.006,3.8,7.463,8.427a14.321,14.321,0,0,0,4.332-5.326l2.487,1.141a16.8,16.8,0,0,1-16.3,9.924,17.052,17.052,0,0,1-15.657-13.271,17.007,17.007,0,0,1,8.295-18.537,17.117,17.117,0,0,1,21.387,3.94c.288-.281.574-.557.855-.838,1.336-1.335,2.688-2.655,3.993-4.021a1.8,1.8,0,0,0,.442-1.062c.06-1,.021-2,.021-3-7.979-1.263-13.31-5.559-15.166-13.485-1.333-5.694.3-10.767,4.205-15.229.4.382.732.708,1.078,1.013.328.29.676.557,1,.825-6.955,7.99-3.308,17.732,1.712,20.987a8.878,8.878,0,0,1,7.558-8.327,7.433,7.433,0,0,1-5.06-3.457,6.9,6.9,0,0,1-.622-5.879,7.116,7.116,0,0,1,7.448-4.784,7.13,7.13,0,0,1,6.325,6.492C3318.185-5440.149,3315.988-5437.291,3311.889-5436.118Zm-1.279,11.525c1.529-.267,2.818-.421,4.07-.727,1.909-.466,1.926-.512,1.823-2.464a5.433,5.433,0,0,0-3.22-4.915,5.375,5.375,0,0,0-5.84.588,5.97,5.97,0,0,0-2.279,5.466c.022.522.143.839.662.957C3307.483-5425.31,3309.139-5424.93,3310.61-5424.592Zm-19.83,36.831a37.955,37.955,0,0,0,3.97-.711c2.447-.714,1.969-.269,1.891-2.649a5.243,5.243,0,0,0-3.188-4.741,5.37,5.37,0,0,0-5.7.481,5.914,5.914,0,0,0-2.428,5.479c.021.591.142.945.743,1.078C3287.7-5388.465,3289.328-5388.09,3290.78-5387.762Zm39.784.049.056-.174c.732-.072,1.468-.121,2.2-.224a13.855,13.855,0,0,0,1.64-.348c1.965-.528,1.992-.537,1.88-2.515a5.434,5.434,0,0,0-3.242-4.9,5.378,5.378,0,0,0-5.768.56c-2.015,1.455-2.477,3.561-2.283,5.882.017.2.339.478.566.536C3327.254-5388.475,3328.911-5388.1,3330.564-5387.713Zm-19.735-51.227a4.266,4.266,0,0,0,4.266-4.18,4.264,4.264,0,0,0-4.225-4.31,4.263,4.263,0,0,0-4.266,4.179A4.264,4.264,0,0,0,3310.83-5438.939Zm-19.824,36.835a4.266,4.266,0,0,0,4.256-4.19,4.264,4.264,0,0,0-4.236-4.3,4.262,4.262,0,0,0-4.255,4.189A4.265,4.265,0,0,0,3291.005-5402.1Zm39.721,0a4.265,4.265,0,0,0,4.2-4.243,4.263,4.263,0,0,0-4.288-4.248,4.261,4.261,0,0,0-4.2,4.241A4.264,4.264,0,0,0,3330.726-5402.1Z" transform="translate(-3268.347 5463.02)" fill="#fff"/>
        </g>
      </g>
    </g>
    <rect id="Rectángulo_53194" data-name="Rectángulo 53194" width="252" height="121" transform="translate(-8877 -8532)" fill="none"/>
  </g>
</svg>
