<svg xmlns="http://www.w3.org/2000/svg" xmlns:xlink="http://www.w3.org/1999/xlink" width="325" height="99" viewBox="0 0 325 99">
  <defs>
    <clipPath id="clip-path">
      <rect id="Rect치ngulo_52491" data-name="Rect치ngulo 52491" width="75.143" height="83.974" fill="#fff"/>
    </clipPath>
  </defs>
  <g id="Grupo_172843" data-name="Grupo 172843" transform="translate(10245 3837)">
    <g id="Grupo_172841" data-name="Grupo 172841" transform="translate(-370 13.651)">
      <path id="Trazado_213478" data-name="Trazado 213478" d="M1.143,17V4.2H5.08a5.98,5.98,0,0,1,3.019.76,5.3,5.3,0,0,1,2.079,2.162,6.669,6.669,0,0,1,.747,3.186V10.9a6.688,6.688,0,0,1-.734,3.173,5.256,5.256,0,0,1-2.07,2.153A6.025,6.025,0,0,1,5.106,17ZM3.779,6.339v8.543H5.054a2.863,2.863,0,0,0,2.364-1.011,4.567,4.567,0,0,0,.835-2.892V10.3a4.64,4.64,0,0,0-.809-2.958A2.854,2.854,0,0,0,5.08,6.339ZM18.185,17a2.821,2.821,0,0,1-.255-.853,3.073,3.073,0,0,1-2.4,1.028,3.376,3.376,0,0,1-2.316-.809,2.6,2.6,0,0,1-.918-2.039,2.687,2.687,0,0,1,1.121-2.32,5.529,5.529,0,0,1,3.239-.817h1.169v-.545a1.567,1.567,0,0,0-.338-1.055,1.331,1.331,0,0,0-1.068-.4,1.513,1.513,0,0,0-1.006.308,1.045,1.045,0,0,0-.365.844h-2.54a2.551,2.551,0,0,1,.51-1.529,3.37,3.37,0,0,1,1.441-1.1,5.253,5.253,0,0,1,2.092-.4A4.15,4.15,0,0,1,19.34,8.2a3.09,3.09,0,0,1,1.033,2.483V14.8a4.546,4.546,0,0,0,.378,2.048V17Zm-2.1-1.767a2.188,2.188,0,0,0,1.037-.25,1.645,1.645,0,0,0,.7-.672V12.676h-.949q-1.907,0-2.03,1.318l-.009.149a1.017,1.017,0,0,0,.334.782A1.3,1.3,0,0,0,16.084,15.233ZM25.365,5.152V7.49h1.626V9.354H25.365V14.1a1.133,1.133,0,0,0,.2.756,1.015,1.015,0,0,0,.773.229,4.051,4.051,0,0,0,.747-.062v1.925a5.229,5.229,0,0,1-1.538.229,2.425,2.425,0,0,1-2.725-2.7V9.354H21.437V7.49h1.389V5.152Zm2.382,7a5.64,5.64,0,0,1,.545-2.522,3.989,3.989,0,0,1,1.569-1.714,4.577,4.577,0,0,1,2.377-.606A4.33,4.33,0,0,1,35.38,8.492a4.727,4.727,0,0,1,1.358,3.2l.018.65a4.97,4.97,0,0,1-1.222,3.511,4.247,4.247,0,0,1-3.278,1.323,4.268,4.268,0,0,1-3.283-1.318,5.058,5.058,0,0,1-1.226-3.586Zm2.54.18a3.555,3.555,0,0,0,.51,2.073,1.831,1.831,0,0,0,2.9.009,3.89,3.89,0,0,0,.519-2.267,3.519,3.519,0,0,0-.519-2.06,1.686,1.686,0,0,0-1.459-.731,1.658,1.658,0,0,0-1.441.726A3.955,3.955,0,0,0,30.287,12.338Zm13.184,2.035a.818.818,0,0,0-.461-.734,5.241,5.241,0,0,0-1.481-.479q-3.393-.712-3.393-2.883a2.613,2.613,0,0,1,1.05-2.114,4.237,4.237,0,0,1,2.747-.848,4.56,4.56,0,0,1,2.9.853,2.687,2.687,0,0,1,1.085,2.215h-2.54a1.229,1.229,0,0,0-.352-.9,1.488,1.488,0,0,0-1.1-.356,1.52,1.52,0,0,0-.993.29.916.916,0,0,0-.352.738.783.783,0,0,0,.4.681,4.114,4.114,0,0,0,1.349.448,11.019,11.019,0,0,1,1.6.426,2.628,2.628,0,0,1,2.013,2.558,2.481,2.481,0,0,1-1.116,2.1,4.815,4.815,0,0,1-2.883.8,5.029,5.029,0,0,1-2.123-.426,3.561,3.561,0,0,1-1.455-1.169,2.716,2.716,0,0,1-.527-1.6h2.408a1.326,1.326,0,0,0,.5,1.037,1.987,1.987,0,0,0,1.248.36,1.839,1.839,0,0,0,1.1-.277A.861.861,0,0,0,43.471,14.372Zm8.191-2.2a5.731,5.731,0,0,1,1-3.542,3.237,3.237,0,0,1,2.729-1.318,2.913,2.913,0,0,1,2.294,1.037V3.5h2.549V17H57.938l-.123-1.011a2.989,2.989,0,0,1-2.443,1.187,3.228,3.228,0,0,1-2.694-1.323A5.916,5.916,0,0,1,51.662,12.175Zm2.54.181a3.775,3.775,0,0,0,.466,2.057,1.516,1.516,0,0,0,1.354.715,1.7,1.7,0,0,0,1.661-1V10.36a1.675,1.675,0,0,0-1.644-1Q54.2,9.362,54.2,12.356Zm12.375,4.82a4.668,4.668,0,0,1-3.406-1.283,4.561,4.561,0,0,1-1.314-3.419v-.246a5.745,5.745,0,0,1,.554-2.562,4.064,4.064,0,0,1,1.569-1.74A4.4,4.4,0,0,1,66.3,7.314a3.947,3.947,0,0,1,3.072,1.23,5,5,0,0,1,1.121,3.489v1.037H64.433a2.36,2.36,0,0,0,.743,1.494,2.245,2.245,0,0,0,1.569.563,2.742,2.742,0,0,0,2.294-1.063l1.248,1.4a3.813,3.813,0,0,1-1.547,1.261A5.075,5.075,0,0,1,66.577,17.176Zm-.29-7.813a1.587,1.587,0,0,0-1.226.512,2.651,2.651,0,0,0-.6,1.466h3.533v-.2a1.891,1.891,0,0,0-.457-1.311A1.638,1.638,0,0,0,66.287,9.362Zm18.694,2.971a5.758,5.758,0,0,1-.976,3.564,3.231,3.231,0,0,1-2.725,1.279,2.969,2.969,0,0,1-2.47-1.187L78.7,17H76.412V3.5h2.54V8.343a2.893,2.893,0,0,1,2.312-1.028,3.258,3.258,0,0,1,2.729,1.279,5.767,5.767,0,0,1,.989,3.6Zm-2.54-.194a3.8,3.8,0,0,0-.457-2.111,1.544,1.544,0,0,0-1.362-.666,1.675,1.675,0,0,0-1.67,1v3.764a1.7,1.7,0,0,0,1.688,1,1.569,1.569,0,0,0,1.617-1.217A6.294,6.294,0,0,0,82.441,12.139ZM92.057,17a2.821,2.821,0,0,1-.255-.853,3.073,3.073,0,0,1-2.4,1.028,3.376,3.376,0,0,1-2.316-.809,2.6,2.6,0,0,1-.918-2.039,2.687,2.687,0,0,1,1.121-2.32,5.529,5.529,0,0,1,3.239-.817H91.7v-.545a1.567,1.567,0,0,0-.338-1.055,1.331,1.331,0,0,0-1.068-.4,1.513,1.513,0,0,0-1.006.308,1.045,1.045,0,0,0-.365.844h-2.54a2.551,2.551,0,0,1,.51-1.529,3.37,3.37,0,0,1,1.441-1.1,5.253,5.253,0,0,1,2.092-.4,4.15,4.15,0,0,1,2.791.883,3.09,3.09,0,0,1,1.033,2.483V14.8a4.546,4.546,0,0,0,.378,2.048V17Zm-2.1-1.767a2.188,2.188,0,0,0,1.037-.25,1.645,1.645,0,0,0,.7-.672V12.676h-.949q-1.907,0-2.03,1.318l-.009.149a1.017,1.017,0,0,0,.334.782A1.3,1.3,0,0,0,89.956,15.233Zm8.93-7.743V17.519a3.4,3.4,0,0,1-.835,2.448,3.174,3.174,0,0,1-2.408.875,5.165,5.165,0,0,1-1.257-.149V18.679a4.768,4.768,0,0,0,.8.079q1.151,0,1.151-1.222V7.49ZM96.135,5.029a1.251,1.251,0,0,1,.382-.94,1.654,1.654,0,0,1,2.083,0,1.251,1.251,0,0,1,.382.94,1.247,1.247,0,0,1-.391.949,1.629,1.629,0,0,1-2.065,0A1.247,1.247,0,0,1,96.135,5.029ZM106.383,17a2.821,2.821,0,0,1-.255-.853,3.073,3.073,0,0,1-2.4,1.028,3.376,3.376,0,0,1-2.316-.809,2.6,2.6,0,0,1-.918-2.039,2.687,2.687,0,0,1,1.121-2.32,5.529,5.529,0,0,1,3.239-.817h1.169v-.545a1.567,1.567,0,0,0-.338-1.055,1.331,1.331,0,0,0-1.068-.4,1.513,1.513,0,0,0-1.006.308,1.045,1.045,0,0,0-.365.844h-2.54a2.551,2.551,0,0,1,.51-1.529,3.37,3.37,0,0,1,1.441-1.1,5.253,5.253,0,0,1,2.092-.4,4.15,4.15,0,0,1,2.791.883,3.09,3.09,0,0,1,1.033,2.483V14.8a4.546,4.546,0,0,0,.378,2.048V17Zm-2.1-1.767a2.188,2.188,0,0,0,1.037-.25,1.645,1.645,0,0,0,.7-.672V12.676h-.949q-1.907,0-2.03,1.318l-.009.149a1.017,1.017,0,0,0,.334.782A1.3,1.3,0,0,0,104.282,15.233Zm14.678-.105a1.666,1.666,0,0,0,1.143-.387,1.355,1.355,0,0,0,.457-1.028h2.382a3.258,3.258,0,0,1-.527,1.771,3.48,3.48,0,0,1-1.419,1.248,4.442,4.442,0,0,1-1.991.444,4.129,4.129,0,0,1-3.217-1.3,5.13,5.13,0,0,1-1.178-3.582v-.167a5.071,5.071,0,0,1,1.169-3.507,4.08,4.08,0,0,1,3.208-1.31,4,4,0,0,1,2.861,1.015,3.594,3.594,0,0,1,1.094,2.7H120.56a1.745,1.745,0,0,0-.457-1.206,1.7,1.7,0,0,0-2.5.183,3.749,3.749,0,0,0-.453,2.1v.264a3.8,3.8,0,0,0,.448,2.113A1.549,1.549,0,0,0,118.96,15.128ZM129.9,17a2.821,2.821,0,0,1-.255-.853,3.073,3.073,0,0,1-2.4,1.028,3.376,3.376,0,0,1-2.316-.809,2.6,2.6,0,0,1-.918-2.039,2.687,2.687,0,0,1,1.121-2.32,5.529,5.529,0,0,1,3.239-.817h1.169v-.545a1.567,1.567,0,0,0-.338-1.055,1.331,1.331,0,0,0-1.068-.4,1.513,1.513,0,0,0-1.006.308,1.045,1.045,0,0,0-.365.844h-2.54a2.551,2.551,0,0,1,.51-1.529,3.37,3.37,0,0,1,1.441-1.1,5.253,5.253,0,0,1,2.092-.4,4.15,4.15,0,0,1,2.791.883,3.09,3.09,0,0,1,1.033,2.483V14.8a4.546,4.546,0,0,0,.378,2.048V17Zm-2.1-1.767a2.188,2.188,0,0,0,1.037-.25,1.645,1.645,0,0,0,.7-.672V12.676h-.949q-1.907,0-2.03,1.318l-.009.149a1.017,1.017,0,0,0,.334.782A1.3,1.3,0,0,0,127.8,15.233ZM136.723,17h-2.549V3.5h2.549Zm4.772,0h-2.549V7.49H141.5ZM138.8,5.029a1.251,1.251,0,0,1,.382-.94,1.648,1.648,0,0,1,2.079,0,1.244,1.244,0,0,1,.387.94,1.247,1.247,0,0,1-.391.949,1.629,1.629,0,0,1-2.065,0A1.247,1.247,0,0,1,138.8,5.029Zm4.395,7.146a5.731,5.731,0,0,1,1-3.542,3.237,3.237,0,0,1,2.729-1.318,2.913,2.913,0,0,1,2.294,1.037V3.5h2.549V17h-2.294l-.123-1.011a2.989,2.989,0,0,1-2.443,1.187,3.228,3.228,0,0,1-2.694-1.323A5.916,5.916,0,0,1,143.191,12.175Zm2.54.181a3.775,3.775,0,0,0,.466,2.057,1.516,1.516,0,0,0,1.354.715,1.7,1.7,0,0,0,1.661-1V10.36a1.675,1.675,0,0,0-1.644-1Q145.731,9.362,145.731,12.356ZM159.24,17a2.821,2.821,0,0,1-.255-.853,3.073,3.073,0,0,1-2.4,1.028,3.376,3.376,0,0,1-2.316-.809,2.6,2.6,0,0,1-.918-2.039,2.687,2.687,0,0,1,1.121-2.32,5.529,5.529,0,0,1,3.239-.817h1.169v-.545a1.567,1.567,0,0,0-.338-1.055,1.331,1.331,0,0,0-1.068-.4,1.513,1.513,0,0,0-1.006.308,1.045,1.045,0,0,0-.365.844h-2.54a2.551,2.551,0,0,1,.51-1.529,3.37,3.37,0,0,1,1.441-1.1,5.253,5.253,0,0,1,2.092-.4A4.15,4.15,0,0,1,160.4,8.2a3.09,3.09,0,0,1,1.033,2.483V14.8a4.546,4.546,0,0,0,.378,2.048V17Zm-2.1-1.767a2.188,2.188,0,0,0,1.037-.25,1.645,1.645,0,0,0,.7-.672V12.676h-.949q-1.907,0-2.03,1.318l-.009.149a1.017,1.017,0,0,0,.334.782A1.3,1.3,0,0,0,157.14,15.233Zm5.845-3.059a5.731,5.731,0,0,1,1-3.542,3.237,3.237,0,0,1,2.729-1.318A2.913,2.913,0,0,1,169,8.352V3.5h2.549V17H169.26l-.123-1.011a2.989,2.989,0,0,1-2.443,1.187A3.228,3.228,0,0,1,164,15.853,5.916,5.916,0,0,1,162.984,12.175Zm2.54.181a3.775,3.775,0,0,0,.466,2.057,1.516,1.516,0,0,0,1.354.715,1.7,1.7,0,0,0,1.661-1V10.36a1.675,1.675,0,0,0-1.644-1Q165.524,9.362,165.524,12.356Z" transform="translate(-9752 -3804.164)" fill="#fff"/>
      <path id="Trazado_213477" data-name="Trazado 213477" d="M12.5,0,25,19H0Z" transform="translate(-9845 -3836.599) rotate(90)" fill="#eeac3a"/>
      <g id="Grupo_172838" data-name="Grupo 172838" transform="translate(-9836.054 -3842.651)">
        <g id="Grupo_171254" data-name="Grupo 171254" clip-path="url(#clip-path)">
          <path id="Trazado_212244" data-name="Trazado 212244" d="M0,3.934c.111-.272.225-.544.333-.817A4.852,4.852,0,0,1,4.834,0Q33.12,0,61.406.005a4.842,4.842,0,0,1,4.834,4.863q.015,16.278,0,32.556a1.647,1.647,0,1,1-3.269,0q0-15.909,0-31.818c0-1.829-.506-2.333-2.344-2.333H5.613c-1.833,0-2.336.5-2.336,2.34q0,36.37,0,72.739c0,1.835.505,2.342,2.335,2.342q18.037,0,36.075,0c1.315,0,2.2.856,1.873,1.943-.155.508-.714.892-1.089,1.333H3.936c-.536-.243-1.1-.446-1.6-.737A5.5,5.5,0,0,1,0,80.037V3.934" transform="translate(0 0)" fill="#fff"/>
          <path id="Trazado_212245" data-name="Trazado 212245" d="M254.952,327.959c-1.291-.319-2.613-.548-3.868-.972a17.337,17.337,0,0,1-8.325-26.732c.129-.176.259-.351.386-.528a1.185,1.185,0,0,0,.035-.238c-.675,0-1.333,0-1.99,0-.437,0-.876.014-1.311-.012a1.645,1.645,0,0,1-.444-3.24c.127-.045.257-.083.642-.207-.533-.456-1-.791-1.385-1.2a1.645,1.645,0,1,1,2.311-2.34,12.837,12.837,0,0,1,1.02,1.2,6.945,6.945,0,0,1,1.3-1.509,1.548,1.548,0,0,1,2.309,1.328c.074,1.136.016,2.281.016,3.56.283-.162.444-.234.582-.337A17.392,17.392,0,1,1,259.1,327.8a3.511,3.511,0,0,0-.543.158Zm-9.165-26.138a14.025,14.025,0,1,0,2.178-2.2c.6.539,1.231,1.023,1.759,1.6.449.49.759.536,1.354.163a10.823,10.823,0,1,1-3.785,14.435,10.572,10.572,0,0,1,.327-11.058c.176-.3.477-.526.087-.909-.661-.649-1.276-1.344-1.919-2.029m4.729,4.678a7.485,7.485,0,1,0,11.815-.964c-2.511-2.737-6.944-3.343-9.619-1.19A14.436,14.436,0,0,1,254,305.5a1.14,1.14,0,0,0,1.4.361,4.836,4.836,0,0,1,5.539,2.12,4.929,4.929,0,0,1-6.174,7.107,4.633,4.633,0,0,1-2.838-5.181,2.48,2.48,0,0,0-1.043-2.865,2.815,2.815,0,0,1-.373-.539m4.655,4.264c.288,1.009.942,1.531,1.741,1.434a1.708,1.708,0,0,0,1.477-1.6,1.578,1.578,0,0,0-1.466-1.563,1.9,1.9,0,0,1-1.751,1.732" transform="translate(-199.036 -243.986)" fill="#fff"/>
          <path id="Trazado_212246" data-name="Trazado 212246" d="M91.95,85.814h5.868V84.9q0-9.1,0-18.2a1.632,1.632,0,0,1,1.474-1.829,1.6,1.6,0,0,1,1.79,1.591c.028.874.007,1.749.007,2.624q0,8.979,0,17.958c0,1.573-.526,2.09-2.124,2.09H54.04c-1.635,0-2.136-.506-2.136-2.159q0-11.931,0-23.863a3.612,3.612,0,0,1,.1-1.049,1.628,1.628,0,0,1,3.167.622c.009,3.963,0,7.927,0,11.89v1.184c.307-.287.513-.467.705-.66q6.2-6.2,12.407-12.408c1.277-1.277,1.975-1.286,3.236-.027q4.468,4.46,8.931,8.926c.191.191.392.374.64.609.232-.215.45-.406.655-.611q8.117-8.117,16.235-16.232a3.628,3.628,0,0,1,1.031-.783,1.6,1.6,0,0,1,1.887.592,1.557,1.557,0,0,1-.124,2.034c-.526.591-1.106,1.135-1.666,1.7-2.24,2.243-4.489,4.478-6.713,6.738a1.567,1.567,0,0,0-.472.955c-.027,6.286-.02,12.573-.018,18.859,0,.105.021.21.038.373m-21.757,0a1.057,1.057,0,0,0,.065-.216q.008-9.551,0-19.1a3.361,3.361,0,0,0-.255-.82c-1.8,1.8-3.5,3.454-5.141,5.161a1.9,1.9,0,0,0-.483,1.193c-.034,4.318-.021,8.635-.021,12.953v.83Zm3.4-16.388V85.8h5.856c0-3.437.005-6.817-.013-10.2a1.007,1.007,0,0,0-.3-.621c-1.8-1.821-3.621-3.628-5.547-5.55m15-.018c-1.893,1.894-3.663,3.637-5.39,5.422a1.8,1.8,0,0,0-.46,1.122c-.037,3.032-.021,6.064-.021,9.1v.759H88.6ZM61.04,74.639c-1.965,1.963-3.831,3.825-5.69,5.694a.568.568,0,0,0-.162.354c-.01,1.708-.007,3.416-.007,5.1H61.04Z" transform="translate(-43.374 -45.505)" fill="#fff"/>
          <path id="Trazado_212247" data-name="Trazado 212247" d="M61.065,293.423c2.4,0,4.8,0,7.2,0a1.646,1.646,0,1,1,.014,3.27q-7.285.007-14.569,0a1.641,1.641,0,1,1-.014-3.269c2.456-.008,4.911,0,7.367,0" transform="translate(-43.384 -245.201)" fill="#fff"/>
          <path id="Trazado_212248" data-name="Trazado 212248" d="M60.977,344.607c-2.4,0-4.8,0-7.2,0-1.144,0-1.844-.618-1.858-1.609-.014-1.029.693-1.661,1.886-1.662q7.2,0,14.406,0c1.2,0,1.907.624,1.9,1.649s-.716,1.621-1.928,1.623q-3.6.005-7.2,0" transform="translate(-43.384 -285.239)" fill="#fff"/>
          <path id="Trazado_212249" data-name="Trazado 212249" d="M60.99,392.513c-2.4,0-4.8,0-7.2,0-1.185,0-1.894-.644-1.874-1.675.019-.99.718-1.595,1.87-1.6q7.244-.005,14.488,0a1.646,1.646,0,1,1,0,3.27c-2.428.006-4.856,0-7.285,0" transform="translate(-43.382 -325.272)" fill="#fff"/>
          <path id="Trazado_212250" data-name="Trazado 212250" d="M61.051,437.147q3.561,0,7.121,0c1.217,0,1.924.6,1.935,1.614s-.7,1.657-1.892,1.658q-7.2,0-14.406,0c-1.195,0-1.9-.628-1.894-1.656s.716-1.615,1.932-1.616q3.6,0,7.2,0" transform="translate(-43.385 -365.307)" fill="#fff"/>
          <path id="Trazado_212251" data-name="Trazado 212251" d="M55.182,55.569a1.635,1.635,0,1,1-1.632-1.659,1.616,1.616,0,0,1,1.632,1.659" transform="translate(-43.381 -45.051)" fill="#fff"/>
          <path id="Trazado_212252" data-name="Trazado 212252" d="M383.194,255.14a1.635,1.635,0,1,1,1.642,1.648,1.613,1.613,0,0,1-1.642-1.648" transform="translate(-320.221 -211.855)" fill="#fff"/>
        </g>
      </g>
    </g>
    <rect id="Rect치ngulo_53196" data-name="Rect치ngulo 53196" width="325" height="99" transform="translate(-10245 -3837)" fill="none"/>
  </g>
</svg>
