<svg xmlns="http://www.w3.org/2000/svg" width="252" height="121" viewBox="0 0 252 121">
  <g id="Grupo_172826" data-name="Grupo 172826" transform="translate(8877 8672)">
    <g id="Grupo_172824" data-name="Grupo 172824" transform="translate(0 -2.946)">
      <path id="Trazado_213438" data-name="Trazado 213438" d="M1.143,17V4.2H5.08a5.98,5.98,0,0,1,3.019.76,5.3,5.3,0,0,1,2.079,2.162,6.669,6.669,0,0,1,.747,3.186V10.9a6.688,6.688,0,0,1-.734,3.173,5.256,5.256,0,0,1-2.07,2.153A6.025,6.025,0,0,1,5.106,17ZM3.779,6.339v8.543H5.054a2.863,2.863,0,0,0,2.364-1.011,4.567,4.567,0,0,0,.835-2.892V10.3a4.64,4.64,0,0,0-.809-2.958A2.854,2.854,0,0,0,5.08,6.339ZM18.185,17a2.821,2.821,0,0,1-.255-.853,3.073,3.073,0,0,1-2.4,1.028,3.376,3.376,0,0,1-2.316-.809,2.6,2.6,0,0,1-.918-2.039,2.687,2.687,0,0,1,1.121-2.32,5.529,5.529,0,0,1,3.239-.817h1.169v-.545a1.567,1.567,0,0,0-.338-1.055,1.331,1.331,0,0,0-1.068-.4,1.513,1.513,0,0,0-1.006.308,1.045,1.045,0,0,0-.365.844h-2.54a2.551,2.551,0,0,1,.51-1.529,3.37,3.37,0,0,1,1.441-1.1,5.253,5.253,0,0,1,2.092-.4A4.15,4.15,0,0,1,19.34,8.2a3.09,3.09,0,0,1,1.033,2.483V14.8a4.546,4.546,0,0,0,.378,2.048V17Zm-2.1-1.767a2.188,2.188,0,0,0,1.037-.25,1.645,1.645,0,0,0,.7-.672V12.676h-.949q-1.907,0-2.03,1.318l-.009.149a1.017,1.017,0,0,0,.334.782A1.3,1.3,0,0,0,16.084,15.233ZM25.365,5.152V7.49h1.626V9.354H25.365V14.1a1.133,1.133,0,0,0,.2.756,1.015,1.015,0,0,0,.773.229,4.051,4.051,0,0,0,.747-.062v1.925a5.229,5.229,0,0,1-1.538.229,2.425,2.425,0,0,1-2.725-2.7V9.354H21.437V7.49h1.389V5.152Zm2.382,7a5.64,5.64,0,0,1,.545-2.522,3.989,3.989,0,0,1,1.569-1.714,4.577,4.577,0,0,1,2.377-.606A4.33,4.33,0,0,1,35.38,8.492a4.727,4.727,0,0,1,1.358,3.2l.018.65a4.97,4.97,0,0,1-1.222,3.511,4.247,4.247,0,0,1-3.278,1.323,4.268,4.268,0,0,1-3.283-1.318,5.058,5.058,0,0,1-1.226-3.586Zm2.54.18a3.555,3.555,0,0,0,.51,2.073,1.831,1.831,0,0,0,2.9.009,3.89,3.89,0,0,0,.519-2.267,3.519,3.519,0,0,0-.519-2.06,1.686,1.686,0,0,0-1.459-.731,1.658,1.658,0,0,0-1.441.726A3.955,3.955,0,0,0,30.287,12.338Z" transform="translate(-8752 -8603.581)" fill="#fff"/>
      <path id="Polígono_53" data-name="Polígono 53" d="M12.5,0,25,19H0Z" transform="translate(-8845 -8651.769) rotate(90)" fill="#eeac3a"/>
      <g id="RuyExm.tif" transform="translate(-11768 -3456.054)">
        <g id="Grupo_166685" data-name="Grupo 166685" transform="translate(2916 -5199)">
          <path id="Trazado_210962" data-name="Trazado 210962" d="M2990.408-5067.43a14.663,14.663,0,0,1-.812-3.27c-.086-5.239-.1-10.48,0-15.719.03-1.6-.335-2.754-1.846-3.394-2.422-1.025-3.12-2.868-2.876-5.4a39.061,39.061,0,0,0,.018-6.233c-.3-4.694,1.363-8.113,5.993-9.691-1.93-5.616-1.319-8.848,2.069-11.206a7.7,7.7,0,0,1,9.48.452c2.946,2.487,3.446,5.982,1.4,10.618.538.269,1.094.538,1.642.821a7.6,7.6,0,0,1,4.4,7c.063,2.992-.126,6,.063,8.979a3.968,3.968,0,0,1-2.468,4.373c-1.857.827-2.318,2.211-2.267,4.174.131,5.07.092,10.147,0,15.219a14.763,14.763,0,0,1-.812,3.271Zm11.637-3.394v-2.8c0-4.818-.071-9.638.06-14.452.027-1.01.538-2.558,1.273-2.9,3.186-1.492,3.849-3.917,3.466-7.086-.2-1.638.011-3.32-.05-4.98-.118-3.187-1.8-4.953-4.95-5.06-2.9-.1-5.816-.087-8.721-.007-3.322.091-5.034,1.832-5.113,5.146-.064,2.656-.113,5.322.042,7.971a3.2,3.2,0,0,0,1.236,2.375c3.019,1.438,3.74,3.708,3.535,6.873-.268,4.136-.065,8.3-.065,12.456v2.468Zm-4.763-49.758a4.544,4.544,0,0,0-4.5,4.872,4.538,4.538,0,0,0,4.729,4.384,4.542,4.542,0,0,0,4.5-4.863A4.537,4.537,0,0,0,2997.283-5120.583Z" transform="translate(-2950.446 5161.342)" fill="#fff"/>
          <path id="Trazado_210963" data-name="Trazado 210963" d="M3075.754-5183.015c-.223.7-.458,1.393-.667,2.1a14.036,14.036,0,0,1-15.074,10.006,13.872,13.872,0,0,1-12.407-12.848,14.071,14.071,0,0,1,10.3-14.65c.627-.175,1.244-.392,1.865-.589h3.5c2.8,1.476,6.1,2.446,8.264,4.574,2.033,2,2.864,5.227,4.224,7.914Zm-5.2,4.242a10.769,10.769,0,0,0-2.323-14.7,10.944,10.944,0,0,0-14.7,1.283c-3.523,3.832-3.848,9.843-1.244,12.694l3.977-3.391c-1.429-3.673-1.024-6.346,1.393-8.327a6.143,6.143,0,0,1,7.217-.434c3.539,2.408,3.513,5.672,1.943,8.964Zm-8.95,5.059c1.529-.421,3.118-.824,4.686-1.3,1.713-.516,1.6-1.593.821-2.866-1.913-3.137-8.888-3.252-10.949-.186-1,1.485-.938,2.618.975,3.167C3058.553-5174.489,3059.988-5174.139,3061.6-5173.714Zm.241-9.617a2.976,2.976,0,0,0,2.842-3.044,3.072,3.072,0,0,0-3.2-3.106,2.986,2.986,0,0,0-2.994,3.063A3.059,3.059,0,0,0,3061.843-5183.331Z" transform="translate(-2981.842 5199)" fill="#fff"/>
          <path id="Trazado_210964" data-name="Trazado 210964" d="M2916-5127.161c.228-.694.47-1.383.68-2.082a14.122,14.122,0,0,1,15.872-9.886,14.026,14.026,0,0,1,11.632,13.618,14.033,14.033,0,0,1-11.929,14.115,14.054,14.054,0,0,1-15.4-9.5c-.259-.765-.566-1.513-.851-2.27Zm8.955,3.979c-1.593-3.866-1.162-6.555,1.368-8.56a6.113,6.113,0,0,1,7.629-.057c2.518,1.911,2.957,4.621,1.608,8.242l3.708,4.156c3.008-4.94,2.142-10.774-2.163-14.317a10.9,10.9,0,0,0-14.368.457,10.542,10.542,0,0,0-1.485,13.955Zm-.971,6.866a11.348,11.348,0,0,0,10.612,1.017c2.054-.752,1.951-1.949.854-3.388-2.013-2.646-4.919-2.074-7.579-1.8C2925.7-5120.271,2924.384-5118.752,2923.984-5116.316Zm6.14-13.656a3.124,3.124,0,0,0-3.059,3.03,3.192,3.192,0,0,0,3.132,3.222,3.167,3.167,0,0,0,3.065-3.281A3.1,3.1,0,0,0,2930.124-5129.972Z" transform="translate(-2916 5169.121)" fill="#fff"/>
          <path id="Trazado_210965" data-name="Trazado 210965" d="M2948.176-5199a4.384,4.384,0,0,1,.882,1.172c.966,3.15,2.761,4.984,6.349,4.967,1.587-.007,1.942,1.334.988,2.71a2.955,2.955,0,0,1-.682.721c-2.218,1.585-2.8,3.615-2.033,6.238.233.8-.249,1.806-.4,2.718-.911-.165-2.021-.056-2.7-.546a4.581,4.581,0,0,0-6.043.042c-.657.477-1.779.31-2.688.438a7.974,7.974,0,0,1-.315-2.759c.634-2.489.249-4.455-1.9-6.093-.66-.5-.854-1.617-1.261-2.451a8.118,8.118,0,0,1,2.528-1.171c2.392-.186,3.976-1.122,4.692-3.533a10.284,10.284,0,0,1,1.586-2.453Zm3.073,9.025-3.59-2.579-3.7,2.537,1.513,4.5h4.33Z" transform="translate(-2927.196 5199)" fill="#fff"/>
          <path id="Trazado_210966" data-name="Trazado 210966" d="M2997.052-5199c3.534.843,7.079,1.642,10.594,2.555a31.111,31.111,0,0,1,3.634,1.449l-1.152,2.818a40.453,40.453,0,0,0-31.54-.682l-1.446-3.094,12.917-3.047Z" transform="translate(-2946.599 5199)" fill="#fff"/>
          <path id="Trazado_210967" data-name="Trazado 210967" d="M2994.334-5173.844c2.325,0,4.651.038,6.975-.013,1.686-.037,2.433.716,2.411,2.388q-.052,3.861,0,7.723c.024,1.637-.615,2.642-2.344,2.362-2.243-.364-3.151.7-3.387,2.737a3.8,3.8,0,0,1-.382,1.434c-.425.736-.908,1.88-1.493,1.962-.63.088-1.477-.769-2.095-1.355a9.608,9.608,0,0,1-1.5-1.977c-1.2-1.956-2.624-3.3-5.209-2.812-1.673.314-2.388-.642-2.343-2.336.068-2.572.062-5.149,0-7.722-.04-1.708.734-2.422,2.392-2.4C2989.683-5173.821,2992.008-5173.844,2994.334-5173.844Zm-6.128,3.311v6.248c3.647-1.278,5.079,1.482,7.27,4.383-.271-4.466,2.118-4.933,4.931-4.552v-6.078Z" transform="translate(-2950.514 5186.417)" fill="#fff"/>
          <path id="Trazado_210968" data-name="Trazado 210968" d="M3027.763-5157.772l1.13-2.752c8.232,3.657,13.651,9.572,15.7,18.18,2.535,10.669-.694,19.638-8.909,27.056a14.582,14.582,0,0,1-1.1-1.041,14.256,14.256,0,0,1-.84-1.194C3047.407-5129.4,3044.2-5150.247,3027.763-5157.772Z" transform="translate(-2971.934 5179.745)" fill="#fff"/>
          <path id="Trazado_210969" data-name="Trazado 210969" d="M3072.2-5080.765c.665-.568,1.137-1.038,1.673-1.42a4.629,4.629,0,0,1,6.111.541,4.46,4.46,0,0,1,.362,5.924,82.672,82.672,0,0,1-7.034,7.03c-.457.406-2.074.154-2.666-.359-2.126-1.844-4.086-3.888-6.025-5.937-2.016-2.131-2.051-4.8-.211-6.682,1.8-1.839,4.462-1.847,6.713-.016C3071.443-5081.425,3071.749-5081.153,3072.2-5080.765Zm-.085,9.459c1.717-1.892,3.023-3.286,4.274-4.728.855-.985,2.714-1.928,1.192-3.429-1.562-1.54-2.523.382-3.376,1.3-1.526,1.634-2.786,1.5-4.12-.129-.315-.383-.644-.884-1.068-1.021a10.916,10.916,0,0,0-2.206-.271c.008.808-.313,1.872.082,2.379C3068.414-5075.253,3070.161-5073.478,3072.119-5071.305Z" transform="translate(-2989.604 5140.99)" fill="#fff"/>
          <path id="Trazado_210970" data-name="Trazado 210970" d="M2935.191-5076.676c.563-.369.827-.57,1.116-.723.437-.231.892-.428,1.573-.75a40.057,40.057,0,0,0,23.821,19.435l-.777,3A42.742,42.742,0,0,1,2935.191-5076.676Z" transform="translate(-2925.604 5138.518)" fill="#fff"/>
          <path id="Trazado_210971" data-name="Trazado 210971" d="M3087.426-5112.857l-2.907-.913a40.939,40.939,0,0,0,.412-22.411l2.925-.927A42.689,42.689,0,0,1,3087.426-5112.857Z" transform="translate(-3000.338 5168.025)" fill="#fff"/>
          <path id="Trazado_210972" data-name="Trazado 210972" d="M3031.5-5046.8l16.212-9.119,1.833,1.532a41.961,41.961,0,0,1-17.239,9.8c-.227-.533-.432-.955-.586-1.4A6.928,6.928,0,0,1,3031.5-5046.8Z" transform="translate(-2973.803 5127.394)" fill="#fff"/>
          <path id="Trazado_210973" data-name="Trazado 210973" d="M2969.888-5153.145l2.036,2.4-5.672,6.648-2.689-1.544Z" transform="translate(-2939.804 5176.051)" fill="#fff"/>
          <path id="Trazado_210974" data-name="Trazado 210974" d="M2963.4-5085.9l2.779-1.5,5.654,6.545-1.947,2.444Z" transform="translate(-2939.721 5143.148)" fill="#fff"/>
          <path id="Trazado_210975" data-name="Trazado 210975" d="M2931.916-5153.182l3.229-6.209,2.652,1.616-2.982,5.715Z" transform="translate(-2923.965 5179.177)" fill="#fff"/>
        </g>
      </g>
    </g>
    <rect id="Rectángulo_53193" data-name="Rectángulo 53193" width="252" height="121" transform="translate(-8877 -8672)" fill="none"/>
  </g>
</svg>
