<svg xmlns="http://www.w3.org/2000/svg" xmlns:xlink="http://www.w3.org/1999/xlink" width="385.125" height="221.846" viewBox="0 0 385.125 221.846">
  <defs>
    <linearGradient id="linear-gradient" x1="0.5" x2="0.5" y2="1" gradientUnits="objectBoundingBox">
      <stop offset="0" stop-color="#fff"/>
      <stop offset="1" stop-color="#d3d3d3"/>
    </linearGradient>
    <linearGradient id="linear-gradient-2" x1="0.5" x2="0.5" y2="1" gradientUnits="objectBoundingBox">
      <stop offset="0" stop-color="#fff"/>
      <stop offset="1" stop-color="#d2e6ee"/>
    </linearGradient>
  </defs>
  <g id="Grupo_172829" data-name="Grupo 172829" transform="translate(-1029.438 -5293.905)">
    <g id="Grupo_169309" data-name="Grupo 169309" transform="translate(818.438 3812.333)">
      <g id="Grupo_169270" data-name="Grupo 169270" transform="translate(211 1488.666)">
        <path id="Trazado_204587" data-name="Trazado 204587" d="M1.595,109.42C6.338,87.074,21.239,64.844,40.628,46.666,65.852,23.019,106.151,4.047,153.963.531c33.84-2.489,72.426,3.851,98.6,17.448C265.572,24.74,275.6,33.153,281.52,42.8c6.4,10.433,9.134,22.39,22.935,30.58,16.586,9.843,39.492,14.553,56.626,23.948,37.992,20.832,26.9,58.462-5.1,79.247-28.809,18.709-71.551,15.248-109.983,18.775-29.175,2.677-54.424,12.438-84.241,14.285-43.138,2.673-87.673-5.9-119.315-23.593-36.84-20.6-46.769-48.7-40.843-76.621" transform="translate(0 0)" fill="#e8e8e8"/>
      </g>
    </g>
    <g id="Grupo_64226" data-name="Grupo 64226" transform="translate(-908.14 5531.757)">
      <g id="Grupo_12572" data-name="Grupo 12572" transform="translate(2203.684 -237.396)">
        <path id="Trazado_17367" data-name="Trazado 17367" d="M2211.436-200.2a19.4,19.4,0,0,1-19.378-19.378,19.4,19.4,0,0,1,19.378-19.378,19.4,19.4,0,0,1,19.377,19.378A19.4,19.4,0,0,1,2211.436-200.2Zm0-37.782a18.424,18.424,0,0,0-18.4,18.4,18.424,18.424,0,0,0,18.4,18.4,18.424,18.424,0,0,0,18.4-18.4A18.424,18.424,0,0,0,2211.436-237.982Z" transform="translate(-2192.058 238.956)" fill="#282233"/>
        <path id="Trazado_17368" data-name="Trazado 17368" d="M2215.856-214.788a.364.364,0,0,1-.247-.1l-6.724-6.19a.365.365,0,0,1-.093-.4.366.366,0,0,1,.341-.233h12.914a.365.365,0,0,1,.365.366.365.365,0,0,1-.365.365h-11.979l6.036,5.556a.365.365,0,0,1,.021.516A.362.362,0,0,1,2215.856-214.788Z" transform="translate(-2191.15 239.893)" fill="#c7d8e5"/>
      </g>
      <path id="Trazado_17369" data-name="Trazado 17369" d="M2101.49-194.4v-11.09h-9.453a20.859,20.859,0,0,0-2-4.078l6.26-7.55-8.537-7.078-5.944,7.17a20.676,20.676,0,0,0-3.842-1.482v-8.969h-11.09v8.969a20.65,20.65,0,0,0-3.842,1.482l-5.944-7.17-8.537,7.078,6.26,7.55a20.83,20.83,0,0,0-2,4.078h-9.453v11.09h8.609a20.7,20.7,0,0,0,2.443,6.475l-5.858,7.065,8.537,7.078,5.283-6.371a20.659,20.659,0,0,0,4.5,1.831v7.822h11.09v-7.822a20.654,20.654,0,0,0,4.5-1.831l5.283,6.371,8.537-7.078-5.858-7.065a20.716,20.716,0,0,0,2.443-6.475Zm-29.062,6.883a10.9,10.9,0,0,1-10.9-10.9,10.9,10.9,0,0,1,10.9-10.9,10.9,10.9,0,0,1,10.9,10.9A10.9,10.9,0,0,1,2072.427-187.52Z" transform="translate(3.543 2.184)" fill="#12263f"/>
      <g id="Grupo_12573" data-name="Grupo 12573" transform="translate(2124.647 -201.44)">
        <path id="Trazado_17370" data-name="Trazado 17370" d="M2170.813-192.909a42.161,42.161,0,0,0-42.162,42.161,42.161,42.161,0,0,0,42.162,42.162,42.161,42.161,0,0,0,42.161-42.162A42.161,42.161,0,0,0,2170.813-192.909Zm.958,73.371a31.21,31.21,0,0,1-31.211-31.21,31.21,31.21,0,0,1,31.211-31.21,31.21,31.21,0,0,1,31.21,31.21A31.209,31.209,0,0,1,2171.771-119.538Z" transform="translate(-2116.469 205.503)" fill="#1a76b7"/>
        <rect id="Rectángulo_3015" data-name="Rectángulo 3015" width="11.498" height="16.426" transform="translate(48.595)" fill="#1a76b7"/>
        <rect id="Rectángulo_3016" data-name="Rectángulo 3016" width="11.498" height="16.426" transform="translate(71.362 1.077) rotate(25.024)" fill="#1a76b7"/>
        <rect id="Rectángulo_3017" data-name="Rectángulo 3017" width="11.499" height="16.426" transform="matrix(0.665, 0.747, -0.747, 0.665, 90.745, 11.6)" fill="#1a76b7"/>
        <rect id="Rectángulo_3018" data-name="Rectángulo 3018" width="11.498" height="16.426" transform="translate(102.961 27.581) rotate(66.395)" fill="#1a76b7"/>
        <rect id="Rectángulo_3019" data-name="Rectángulo 3019" width="11.498" height="16.426" transform="translate(16.426 49.279) rotate(90)" fill="#1a76b7"/>
        <rect id="Rectángulo_3020" data-name="Rectángulo 3020" width="11.498" height="16.426" transform="translate(108.414 49.279) rotate(90)" fill="#1a76b7"/>
        <rect id="Rectángulo_3021" data-name="Rectángulo 3021" width="11.498" height="16.426" transform="translate(44 15.961) rotate(154.976)" fill="#1a76b7"/>
        <rect id="Rectángulo_3022" data-name="Rectángulo 3022" width="11.498" height="16.426" transform="matrix(-0.665, 0.747, -0.747, -0.665, 29.943, 22.516)" fill="#1a76b7"/>
        <rect id="Rectángulo_3023" data-name="Rectángulo 3023" width="11.498" height="16.426" transform="translate(20.505 34.159) rotate(113.605)" fill="#1a76b7"/>
        <rect id="Rectángulo_3024" data-name="Rectángulo 3024" width="11.499" height="16.426" transform="translate(48.731 93.631)" fill="#1a76b7"/>
        <rect id="Rectángulo_3025" data-name="Rectángulo 3025" width="11.499" height="16.426" transform="translate(64.55 94.096) rotate(-25.025)" fill="#1a76b7"/>
        <rect id="Rectángulo_3026" data-name="Rectángulo 3026" width="11.498" height="16.426" transform="matrix(0.665, -0.747, 0.747, 0.665, 78.608, 87.54)" fill="#1a76b7"/>
        <rect id="Rectángulo_3027" data-name="Rectángulo 3027" width="11.498" height="16.426" transform="translate(88.046 75.898) rotate(-66.395)" fill="#1a76b7"/>
        <rect id="Rectángulo_3028" data-name="Rectángulo 3028" width="11.499" height="16.426" transform="translate(37.189 108.98) rotate(-154.975)" fill="#1a76b7"/>
        <rect id="Rectángulo_3029" data-name="Rectángulo 3029" width="11.498" height="16.426" transform="matrix(-0.665, -0.747, 0.747, -0.665, 17.805, 98.457)" fill="#1a76b7"/>
        <rect id="Rectángulo_3030" data-name="Rectángulo 3030" width="11.498" height="16.426" transform="matrix(-0.4, -0.916, 0.916, -0.4, 5.59, 82.476)" fill="#1a76b7"/>
      </g>
      <g id="Grupo_12574" data-name="Grupo 12574" transform="translate(2015.418 -160.541)">
        <path id="Trazado_17371" data-name="Trazado 17371" d="M2049.172-158.131a28,28,0,0,0-28,28,28,28,0,0,0,28,28,28,28,0,0,0,28-28A28,28,0,0,0,2049.172-158.131Zm.637,48.728a20.728,20.728,0,0,1-20.728-20.728,20.728,20.728,0,0,1,20.728-20.728,20.728,20.728,0,0,1,20.728,20.728A20.728,20.728,0,0,1,2049.809-109.4Z" transform="translate(-2013.081 166.495)" fill="#7f4fc7"/>
        <rect id="Rectángulo_3031" data-name="Rectángulo 3031" width="7.637" height="10.909" transform="translate(32.273)" fill="#7f4fc7"/>
        <rect id="Rectángulo_3032" data-name="Rectángulo 3032" width="7.637" height="10.909" transform="translate(47.394 0.715) rotate(25.024)" fill="#7f4fc7"/>
        <rect id="Rectángulo_3033" data-name="Rectángulo 3033" width="7.636" height="10.909" transform="matrix(0.665, 0.747, -0.747, 0.665, 60.267, 7.704)" fill="#7f4fc7"/>
        <rect id="Rectángulo_3034" data-name="Rectángulo 3034" width="7.637" height="10.909" transform="matrix(0.4, 0.916, -0.916, 0.4, 68.38, 18.318)" fill="#7f4fc7"/>
        <rect id="Rectángulo_3035" data-name="Rectángulo 3035" width="7.636" height="10.909" transform="translate(10.909 32.728) rotate(90)" fill="#7f4fc7"/>
        <rect id="Rectángulo_3036" data-name="Rectángulo 3036" width="7.636" height="10.909" transform="translate(72.002 32.728) rotate(90)" fill="#7f4fc7"/>
        <rect id="Rectángulo_3037" data-name="Rectángulo 3037" width="7.637" height="10.909" transform="matrix(-0.906, 0.423, -0.423, -0.906, 29.222, 10.6)" fill="#7f4fc7"/>
        <rect id="Rectángulo_3038" data-name="Rectángulo 3038" width="7.637" height="10.909" transform="matrix(-0.665, 0.747, -0.747, -0.665, 19.886, 14.954)" fill="#7f4fc7"/>
        <rect id="Rectángulo_3039" data-name="Rectángulo 3039" width="7.637" height="10.909" transform="translate(13.618 22.686) rotate(113.605)" fill="#7f4fc7"/>
        <rect id="Rectángulo_3040" data-name="Rectángulo 3040" width="7.637" height="10.909" transform="translate(32.364 62.183)" fill="#7f4fc7"/>
        <rect id="Rectángulo_3041" data-name="Rectángulo 3041" width="7.637" height="10.909" transform="translate(42.87 62.492) rotate(-25.023)" fill="#7f4fc7"/>
        <rect id="Rectángulo_3042" data-name="Rectángulo 3042" width="7.637" height="10.909" transform="translate(52.206 58.139) rotate(-48.353)" fill="#7f4fc7"/>
        <rect id="Rectángulo_3043" data-name="Rectángulo 3043" width="7.636" height="10.909" transform="translate(58.474 50.407) rotate(-66.395)" fill="#7f4fc7"/>
        <rect id="Rectángulo_3044" data-name="Rectángulo 3044" width="7.637" height="10.909" transform="translate(24.699 72.377) rotate(-154.976)" fill="#7f4fc7"/>
        <rect id="Rectángulo_3045" data-name="Rectángulo 3045" width="7.637" height="10.909" transform="matrix(-0.665, -0.747, 0.747, -0.665, 11.825, 65.389)" fill="#7f4fc7"/>
        <rect id="Rectángulo_3046" data-name="Rectángulo 3046" width="7.636" height="10.909" transform="translate(3.713 54.775) rotate(-113.605)" fill="#7f4fc7"/>
      </g>
      <g id="Grupo_12575" data-name="Grupo 12575" transform="translate(2267.044 -126.755)">
        <path id="Trazado_17372" data-name="Trazado 17372" d="M2131.508-249.79c0-9.867-8.662-17.866-19.347-17.866s-19.347,8-19.347,17.866a17.112,17.112,0,0,0,5.356,12.339,15.4,15.4,0,0,1,4.734,11.067h0a6.125,6.125,0,0,0,6.124,6.125h6.265a6.125,6.125,0,0,0,6.125-6.125h0a15.4,15.4,0,0,1,4.734-11.067A17.112,17.112,0,0,0,2131.508-249.79Z" transform="translate(-2092.813 267.656)" fill="#ffd947"/>
        <path id="Trazado_17373" data-name="Trazado 17373" d="M2114.394-218.78a.245.245,0,0,1-.243-.231c-.106-1.992,2.912-33.11,3.041-34.433a.242.242,0,0,1,.267-.218.244.244,0,0,1,.218.266c-.032.324-3.146,32.4-3.04,34.359a.243.243,0,0,1-.23.256Z" transform="translate(-2091.653 268.417)" fill="#12263f"/>
        <path id="Trazado_17374" data-name="Trazado 17374" d="M2107.95-218.78h-.013a.243.243,0,0,1-.229-.256c.1-1.956-3.008-34.036-3.04-34.359a.244.244,0,0,1,.218-.266.242.242,0,0,1,.267.218c.129,1.323,3.147,32.441,3.041,34.433A.244.244,0,0,1,2107.95-218.78Z" transform="translate(-2092.169 268.417)" fill="#12263f"/>
        <path id="Trazado_17375" data-name="Trazado 17375" d="M2110.82-245.512a2.831,2.831,0,0,1-1.707-.6,1.917,1.917,0,0,1-1.284.381,2.257,2.257,0,0,1-1.673-1.188,18.165,18.165,0,0,1-1.031-3.289.122.122,0,0,1,.093-.144.125.125,0,0,1,.145.094,18.1,18.1,0,0,0,1,3.216,2.012,2.012,0,0,0,1.485,1.069,1.658,1.658,0,0,0,1.07-.3,4.391,4.391,0,0,1-1.256-2.6,3.48,3.48,0,0,1,.362-2.37,1.385,1.385,0,0,1,.627-.577,1.34,1.34,0,0,1,1.6.745,3.377,3.377,0,0,1,.2,1.791,5.617,5.617,0,0,1-.581,2.332,2.664,2.664,0,0,1-.558.679,2.383,2.383,0,0,0,2.3.358,2.16,2.16,0,0,0,.791-.593,1.688,1.688,0,0,1-.656-.707,2.765,2.765,0,0,1-.219-1.064,9.69,9.69,0,0,1,.34-3.123.124.124,0,0,1,.08-.083.865.865,0,0,1,.913.35,2.1,2.1,0,0,1,.325.881,6.267,6.267,0,0,1,.066,2.549,3.259,3.259,0,0,1-.481,1.116,1.886,1.886,0,0,0,1.268.065,2.2,2.2,0,0,0,.647-.33,3.4,3.4,0,0,1-.335-.689,6.935,6.935,0,0,1,.138-5.009.12.12,0,0,1,.072-.067,1.135,1.135,0,0,1,1.264.524,2.745,2.745,0,0,1,.35,1.315,6.313,6.313,0,0,1-.25,2.613,3.286,3.286,0,0,1-.9,1.356,1.141,1.141,0,0,0,.781.466,1.179,1.179,0,0,0,.673-.174,1.647,1.647,0,0,0,.769-1.63.122.122,0,0,1,.1-.14.122.122,0,0,1,.139.1,1.875,1.875,0,0,1-.887,1.88,1.393,1.393,0,0,1-.817.206,1.374,1.374,0,0,1-.952-.554,2.449,2.449,0,0,1-.719.365,2.129,2.129,0,0,1-1.489-.1,2.409,2.409,0,0,1-.915.7A2.25,2.25,0,0,1,2110.82-245.512Zm-1.784-6.136a.761.761,0,0,0-.288.056,1.151,1.151,0,0,0-.515.482,3.246,3.246,0,0,0-.327,2.2,4.133,4.133,0,0,0,1.183,2.456l.029.026a2.431,2.431,0,0,0,.539-.645,5.42,5.42,0,0,0,.55-2.232,3.178,3.178,0,0,0-.172-1.663A1.206,1.206,0,0,0,2109.036-251.649Zm3.045.385a9.436,9.436,0,0,0-.314,2.976,2.553,2.553,0,0,0,.2.971,1.467,1.467,0,0,0,.585.621,3,3,0,0,0,.463-1.059,6.023,6.023,0,0,0-.068-2.449,1.9,1.9,0,0,0-.281-.782A.657.657,0,0,0,2112.081-251.264Zm2.608-1.136a6.693,6.693,0,0,0-.111,4.779,3.257,3.257,0,0,0,.3.615,3.05,3.05,0,0,0,.818-1.24,6.1,6.1,0,0,0,.236-2.513,2.556,2.556,0,0,0-.311-1.2A.924.924,0,0,0,2114.688-252.4Z" transform="translate(-2092.144 268.471)" fill="#12263f"/>
        <path id="Rectángulo_3047" data-name="Rectángulo 3047" d="M0,0H15.552a0,0,0,0,1,0,0V1.959a2.485,2.485,0,0,1-2.485,2.485H2.485A2.485,2.485,0,0,1,0,1.959V0A0,0,0,0,1,0,0Z" transform="translate(11.571 52.765)" fill="#afaeae"/>
        <path id="Trazado_17376" data-name="Trazado 17376" d="M2112.583-215.351a31.882,31.882,0,0,1-8.916-1.39,1.481,1.481,0,0,1-.948-1.867,1.482,1.482,0,0,1,1.867-.949c.137.044,8.59,2.726,13.874.083a1.482,1.482,0,0,1,1.987.662,1.482,1.482,0,0,1-.662,1.987A16.2,16.2,0,0,1,2112.583-215.351Z" transform="translate(-2092.279 270.266)" fill="#8c8888"/>
        <path id="Trazado_17377" data-name="Trazado 17377" d="M2112.583-217.634a31.881,31.881,0,0,1-8.916-1.39,1.481,1.481,0,0,1-.948-1.867,1.479,1.479,0,0,1,1.867-.948c.137.043,8.59,2.726,13.874.082a1.482,1.482,0,0,1,1.987.662,1.481,1.481,0,0,1-.662,1.987A16.2,16.2,0,0,1,2112.583-217.634Z" transform="translate(-2092.279 270.142)" fill="#afaeae"/>
        <path id="Trazado_17378" data-name="Trazado 17378" d="M2112.583-219.917a31.884,31.884,0,0,1-8.916-1.39,1.48,1.48,0,0,1-.948-1.867,1.48,1.48,0,0,1,1.867-.948c.137.043,8.59,2.726,13.874.083a1.481,1.481,0,0,1,1.987.662,1.482,1.482,0,0,1-.662,1.987A16.216,16.216,0,0,1,2112.583-219.917Z" transform="translate(-2092.279 270.018)" fill="#8c8888"/>
      </g>
      <g id="Grupo_12583" data-name="Grupo 12583" transform="translate(2041.281 -194.274)">
        <path id="Trazado_17379" data-name="Trazado 17379" d="M2078.895-50.5s-3.409,5.355-4.139,9.493.73,8.034,2.191,9.007,5.6-1.46,10.224-3.408a24.022,24.022,0,0,0,8.034-6.086Z" transform="translate(-2036.042 206.078)" fill="#167377"/>
        <path id="Trazado_17380" data-name="Trazado 17380" d="M2078.725-32.527c-.019-.167-.133-.609-.291-1.222-.573-2.223-1.64-6.361-1.258-8.838a42.689,42.689,0,0,1,1.465-6.106l.232.077a42.3,42.3,0,0,0-1.456,6.067c-.374,2.427.725,6.69,1.254,8.739.167.645.276,1.072.3,1.255Z" transform="translate(-2035.904 206.176)"/>
        <path id="Trazado_17381" data-name="Trazado 17381" d="M2140.161-99.817s-.244,7.06.487,8.52a14.717,14.717,0,0,1,1.217,7.06c-.244,2.678.244,3.651,0,4.625s-1.217,1.46,0,3.651-.729,4.869-.729,4.869l-21.18,2.678-21.422-1.218h-16.067l-1.583-3.529a6.019,6.019,0,0,1,1.46-3.165c1.461-1.947.974-4.625,1.461-5.6s1.217-8.521.73-10.712c0,0-.365,1.826-.852,3.774s-1.217,3.165-.973,4.382-.974,2.922-1.218,4.625-.973,2.191-1.46,4.382-.487,1.947-1.948,4.138-19.476-8.277-19.476-8.277l-.486-8.033s4.138.486,4.625.486.242-2.677.973-4.382-.244-4.869.487-6.816,2.191-18.5,2.922-22.883.729-9.251,3.164-11.929,17.771-13.876,27.752-16.311l2.678-1.46h20.692a26.471,26.471,0,0,0,3.409,1.217c.487,0,21.666,9.982,26.048,13.633s5.112,12.173,5.356,12.66a5.364,5.364,0,0,1,1.217,2.677,31.8,31.8,0,0,0,.731,3.165c.244,1.217,2.678,14.12,2.678,16.067s-.487,4.382,0,4.869,1.217,3.895,1.217,3.895a1.766,1.766,0,0,1,1.949,1.217,2.618,2.618,0,0,1,0,2.191l.242.974,9.738.244-.973,8.033s-15.338,8.764-18.746,9.007-6.816-1.7-7.06-2.191a14.473,14.473,0,0,1-1.46-3.895c0-.974-1.217-1.7-1.461-3.165a8.682,8.682,0,0,0-.486-2.435c-.487-1.46-3.165-14.119-3.409-15.58s0-3.408-.244-1.46Z" transform="translate(-2036.935 200.618)" fill="#d2e1f1"/>
        <path id="Trazado_17382" data-name="Trazado 17382" d="M2136.05-101.9a.124.124,0,0,1-.092-.042c-.454-.512.4-6.944,1.822-9.308a17.886,17.886,0,0,1,2.652-3.046c1.541-1.54,3.134-3.134,3.419-4.7.481-2.644.968-6.287.973-6.324a.122.122,0,0,1,.137-.1.123.123,0,0,1,.1.137c-.005.036-.493,3.685-.975,6.336-.3,1.644-1.919,3.264-3.487,4.831a17.671,17.671,0,0,0-2.615,3c-1.472,2.453-2.129,8.626-1.848,9.022a.121.121,0,0,1-.01.172A.123.123,0,0,1,2136.05-101.9Z" transform="translate(-2032.711 202.005)" fill="#3b3348"/>
        <path id="Trazado_17383" data-name="Trazado 17383" d="M2138.709-114.259a.1.1,0,0,1-.039-.006.122.122,0,0,1-.077-.154c1.916-5.746.5-14.7.483-14.792a.12.12,0,0,1,.1-.139.122.122,0,0,1,.14.1c.014.091,1.443,9.1-.492,14.909A.121.121,0,0,1,2138.709-114.259Z" transform="translate(-2032.561 201.792)" fill="#3b3348"/>
        <path id="Trazado_17384" data-name="Trazado 17384" d="M2136.955-107.572a.122.122,0,0,1-.121-.114,12.452,12.452,0,0,0-1.656-5.186,75.053,75.053,0,0,1-5.128-11.476.122.122,0,0,1,.083-.151.121.121,0,0,1,.151.083,74.737,74.737,0,0,0,5.1,11.408,12.684,12.684,0,0,1,1.7,5.3.12.12,0,0,1-.113.13Z" transform="translate(-2033.026 202.055)" fill="#3b3348"/>
        <path id="Trazado_17385" data-name="Trazado 17385" d="M2154.46-94.736a.12.12,0,0,1-.064-.018,13.966,13.966,0,0,1-4.917-6.143c-1.113-2.7-.388-9.712.142-14.828a29.492,29.492,0,0,0,.342-5.386.122.122,0,0,1,.077-.154.122.122,0,0,1,.154.077,26.9,26.9,0,0,1-.331,5.488c-.527,5.09-1.249,12.064-.159,14.71a13.7,13.7,0,0,0,4.82,6.029.121.121,0,0,1,.04.167A.12.12,0,0,1,2154.46-94.736Z" transform="translate(-2032.001 202.231)" fill="#3b3348"/>
        <path id="Trazado_17386" data-name="Trazado 17386" d="M2143.327-80.019a.146.146,0,0,1-.037-.005.121.121,0,0,1-.079-.153,24.461,24.461,0,0,1,5.629-8.813c4.137-4.137,10.756-2.726,10.823-2.711a.122.122,0,0,1,.093.145.123.123,0,0,1-.146.093c-.064-.015-6.557-1.4-10.6,2.644a24.213,24.213,0,0,0-5.569,8.714A.121.121,0,0,1,2143.327-80.019Z" transform="translate(-2032.31 203.825)" fill="#3b3348"/>
        <path id="Trazado_17387" data-name="Trazado 17387" d="M2141.249-87.329a.121.121,0,0,1-.1-.055.121.121,0,0,1,.036-.169c.071-.045,7.165-4.591,13.706-4.253a.122.122,0,0,1,.115.128.112.112,0,0,1-.128.115c-6.466-.332-13.49,4.17-13.561,4.215A.124.124,0,0,1,2141.249-87.329Z" transform="translate(-2032.423 203.832)" fill="#3b3348"/>
        <path id="Trazado_17388" data-name="Trazado 17388" d="M2140.787-84.273a.119.119,0,0,1-.083-.033.122.122,0,0,1-.005-.173c.211-.225,5.223-5.51,9.116-5.329a.121.121,0,0,1,.116.128.116.116,0,0,1-.127.116c-3.778-.166-8.876,5.2-8.927,5.253A.121.121,0,0,1,2140.787-84.273Z" transform="translate(-2032.449 203.941)" fill="#3b3348"/>
        <path id="Trazado_17389" data-name="Trazado 17389" d="M2152.1-83.053a.1.1,0,0,1-.035-.006.121.121,0,0,1-.082-.152c.977-3.175,6.867-6.5,7.117-6.643a.122.122,0,0,1,.166.047.122.122,0,0,1-.047.166c-.06.034-6.055,3.42-7,6.5A.122.122,0,0,1,2152.1-83.053Z" transform="translate(-2031.834 203.938)" fill="#3b3348"/>
        <path id="Trazado_17390" data-name="Trazado 17390" d="M2145.174-92.8a.119.119,0,0,1-.108-.067.121.121,0,0,1,.054-.163,1.777,1.777,0,0,1,1.52-.271,18.652,18.652,0,0,0,3.648.258,21.4,21.4,0,0,0,7.5-1.208.124.124,0,0,1,.159.066.122.122,0,0,1-.066.159,21.708,21.708,0,0,1-7.592,1.226,18.806,18.806,0,0,1-3.691-.263,1.558,1.558,0,0,0-1.367.25A.123.123,0,0,1,2145.174-92.8Z" transform="translate(-2032.21 203.7)" fill="#3b3348"/>
        <path id="Trazado_17391" data-name="Trazado 17391" d="M2137.415-93.742h-.011a.122.122,0,0,1-.11-.132,32.853,32.853,0,0,1,1.86-7.89c1.443-3.61,5.557-14.014,5.6-14.119a.122.122,0,0,1,.158-.069.121.121,0,0,1,.067.158c-.041.1-4.155,10.51-5.6,14.12a32.548,32.548,0,0,0-1.843,7.821A.122.122,0,0,1,2137.415-93.742Z" transform="translate(-2032.632 202.52)" fill="#3b3348"/>
        <path id="Trazado_17392" data-name="Trazado 17392" d="M2134.063-82.223a.13.13,0,0,1-.027,0c-.433-.1-4.232-1.026-4.232-2.065,0-.478,1.059-.754,2.934-1.2,1.626-.389,3.65-.872,3.935-1.529a.4.4,0,0,0-.037-.375c-.455-.795-3.062-1.225-6.082-1.724-3.213-.53-6.854-1.131-9.446-2.365a.121.121,0,0,1-.056-.162.121.121,0,0,1,.162-.057c2.56,1.219,6.183,1.817,9.381,2.344s5.741.948,6.252,1.844a.631.631,0,0,1,.048.593c-.332.769-2.248,1.226-4.1,1.668-1.224.293-2.747.657-2.747.965,0,.639,2.481,1.46,4.045,1.828a.123.123,0,0,1,.091.147A.123.123,0,0,1,2134.063-82.223Z" transform="translate(-2033.515 203.838)" fill="#3b3348"/>
        <path id="Trazado_17393" data-name="Trazado 17393" d="M2136.6-79.387h-.014c-.043-.005-4.426-.5-7.8-1.219-3.321-.712-5.022-.015-5.039-.007a.121.121,0,0,1-.159-.064.123.123,0,0,1,.063-.16c.072-.03,1.78-.736,5.187-.006,3.363.72,7.734,1.21,7.778,1.216a.121.121,0,0,1,.108.134A.123.123,0,0,1,2136.6-79.387Z" transform="translate(-2033.377 204.411)" fill="#3b3348"/>
        <path id="Trazado_17394" data-name="Trazado 17394" d="M2082.6-76.565a.122.122,0,0,1-.113-.077.122.122,0,0,1,.067-.158,8.3,8.3,0,0,1,1.79-.272c2.336-.226,6.246-.6,8.389-3.1,2.879-3.359,9.9-16.882,9.965-17.017a.121.121,0,0,1,.164-.053.121.121,0,0,1,.053.163c-.071.137-7.1,13.684-10,17.065-2.206,2.574-6.177,2.957-8.55,3.186a8.547,8.547,0,0,0-1.722.255A.119.119,0,0,1,2082.6-76.565Z" transform="translate(-2035.611 203.536)" fill="#3b3348"/>
        <path id="Trazado_17395" data-name="Trazado 17395" d="M2082.6-77.356a.122.122,0,0,1-.111-.07.123.123,0,0,1,.059-.162,40.923,40.923,0,0,0,7.522-4.853c3.738-3.037,10.824-21.65,10.91-22.55a.138.138,0,0,1,.126-.114.119.119,0,0,1,.116.118c0,.29-1.828,5.285-4.027,10.364-2.041,4.717-4.908,10.693-6.972,12.371a41.177,41.177,0,0,1-7.572,4.884A.113.113,0,0,1,2082.6-77.356Z" transform="translate(-2035.611 203.11)" fill="#3b3348"/>
        <path id="Trazado_17396" data-name="Trazado 17396" d="M2083.7-94.146a.121.121,0,0,1-.121-.115c0-.043-.249-4.422-.73-8.268-.519-4.147-1.012-7.248-1.7-10.7a37.166,37.166,0,0,0-1.745-5.618,48.405,48.405,0,0,1-1.663-5.088c-.963-3.852-1.937-7.993-1.947-8.035a.12.12,0,0,1,.091-.146.12.12,0,0,1,.146.09c.01.042.985,4.183,1.946,8.032a48.179,48.179,0,0,0,1.656,5.063,37.338,37.338,0,0,1,1.754,5.655c.693,3.461,1.186,6.567,1.706,10.72.482,3.855.729,8.242.731,8.286a.121.121,0,0,1-.115.128Z" transform="translate(-2035.975 201.641)" fill="#3b3348"/>
        <path id="Trazado_17397" data-name="Trazado 17397" d="M2081.076-112.441a.123.123,0,0,1-.12-.1c-.326-1.958-2.475-4.293-4.552-6.552-.959-1.044-1.951-2.122-2.727-3.131-2.4-3.121-3.434-8.45-3.434-9.082a.122.122,0,0,1,.122-.121.121.121,0,0,1,.121.121c0,.352.906,5.713,3.384,8.934.77,1,1.759,2.076,2.714,3.115,2.1,2.285,4.274,4.648,4.613,6.677a.121.121,0,0,1-.1.14Z" transform="translate(-2036.276 201.679)" fill="#3b3348"/>
        <path id="Trazado_17398" data-name="Trazado 17398" d="M2068.749-96.41a.123.123,0,0,1-.11-.067.123.123,0,0,1,.055-.163c1.843-.922,3.4-2.7,5.04-4.592a28.605,28.605,0,0,1,4.437-4.4c2.9-2.126,4.027-2.5,4.4-2.56-.176-1.466-1.807-3.079-3.689-4.94a34.781,34.781,0,0,1-3.659-4.016.121.121,0,0,1,.026-.17.121.121,0,0,1,.17.026,34.7,34.7,0,0,0,3.635,3.987c1.969,1.946,3.668,3.628,3.771,5.218a.123.123,0,0,1-.04.1.118.118,0,0,1-.1.03c-.033,0-.881-.035-4.369,2.523a28.384,28.384,0,0,0-4.4,4.367c-1.659,1.906-3.229,3.708-5.115,4.651A.122.122,0,0,1,2068.749-96.41Z" transform="translate(-2036.364 202.444)" fill="#3b3348"/>
        <path id="Trazado_17399" data-name="Trazado 17399" d="M2065.285-100.034a.12.12,0,0,1-.046-.009.12.12,0,0,1-.065-.158c.051-.122,1.321-3,8.124-4.212a.123.123,0,0,1,.141.1.12.12,0,0,1-.1.14c-6.654,1.188-7.931,4.038-7.942,4.067A.123.123,0,0,1,2065.285-100.034Z" transform="translate(-2036.553 203.147)" fill="#3b3348"/>
        <path id="Trazado_17400" data-name="Trazado 17400" d="M2078.825-82.285a.122.122,0,0,1-.1-.056,17.036,17.036,0,0,0-5.311-5.07c-3.11-1.675-10.839-2.9-10.916-2.909a.122.122,0,0,1-.1-.139.121.121,0,0,1,.138-.1c.079.013,7.847,1.24,10.993,2.934a17.317,17.317,0,0,1,5.4,5.154.123.123,0,0,1-.037.169A.127.127,0,0,1,2078.825-82.285Z" transform="translate(-2036.703 203.9)" fill="#3b3348"/>
        <path id="Trazado_17401" data-name="Trazado 17401" d="M2079.585-85.49a.123.123,0,0,1-.076-.027,21.939,21.939,0,0,0-13.057-4.051.125.125,0,0,1-.125-.119.123.123,0,0,1,.119-.124,22.2,22.2,0,0,1,13.214,4.1.121.121,0,0,1,.019.171A.12.12,0,0,1,2079.585-85.49Z" transform="translate(-2036.489 203.941)" fill="#3b3348"/>
        <path id="Trazado_17402" data-name="Trazado 17402" d="M2079.272-88.552a.12.12,0,0,1-.086-.036,1.335,1.335,0,0,1-.123-.164c-1.256-1.805-3.561-2.721-6.85-2.721a.121.121,0,0,1-.122-.121.122.122,0,0,1,.122-.122c3.374,0,5.746.951,7.049,2.827.04.058.079.113.1.131a.12.12,0,0,1,0,.172A.117.117,0,0,1,2079.272-88.552Z" transform="translate(-2036.176 203.838)" fill="#3b3348"/>
        <path id="Trazado_17403" data-name="Trazado 17403" d="M2066.834-93.407a26.025,26.025,0,0,1-2.718-.12.122.122,0,0,1-.107-.135.12.12,0,0,1,.135-.106,33.931,33.931,0,0,0,9.214-.485.12.12,0,0,1,.142.1.121.121,0,0,1-.1.142A35.535,35.535,0,0,1,2066.834-93.407Z" transform="translate(-2036.615 203.7)" fill="#3b3348"/>
        <path id="Trazado_17404" data-name="Trazado 17404" d="M2134-128.079a.121.121,0,0,1-.119-.1c-.959-5.266-11.557-19.766-11.663-19.911a.123.123,0,0,1,.01-.158.124.124,0,0,1,.158-.014c.143.1,14.37,10.229,15.09,10.71a.122.122,0,0,1,.034.169.123.123,0,0,1-.169.034c-.637-.425-11.75-8.332-14.49-10.282,2.049,2.84,10.4,14.643,11.269,19.41a.121.121,0,0,1-.1.141Z" transform="translate(-2033.453 200.763)" fill="#3b3348"/>
        <path id="Trazado_17405" data-name="Trazado 17405" d="M2161.561-81.568s-.243-6.573,1.948-7.3a24.115,24.115,0,0,1,4.138-.974s3.653-6.086,4.869-7.79,5.6-4.625,5.6-4.625-.243-2.435.73-2.191c0,0-.486-1.947,1.461-1.46s5.112,1.217,5.842,1.947,2.922,2.921,2.922,4.382.243,9.494-2.191,8.764c0,0-.73,3.164-1.7,3.651a9.722,9.722,0,0,1-3.165.487s-.487.244-1.7.974-1.948.243-2.922.486-5.356.731-5.356.731Z" transform="translate(-2031.313 203.062)" fill="#ffa08b"/>
        <g id="Grupo_12576" data-name="Grupo 12576" transform="translate(138.647 98.731)">
          <path id="Trazado_17406" data-name="Trazado 17406" d="M2185.982-93.7a.122.122,0,0,1-.121-.112,13.567,13.567,0,0,0-.71-3.594c-2.123-3.184-3.743-5.262-4.335-5.557-.959-.48-2.654-1.207-2.671-1.215a.122.122,0,0,1-.064-.16.121.121,0,0,1,.16-.063c.017.007,1.719.737,2.684,1.22.872.437,3.149,3.721,4.428,5.641a13.274,13.274,0,0,1,.75,3.708.122.122,0,0,1-.11.132Z" transform="translate(-2169.062 104.416)" fill="#c77968"/>
          <path id="Trazado_17407" data-name="Trazado 17407" d="M2183.111-89.422a.109.109,0,0,1-.054-.014A.119.119,0,0,1,2183-89.6a14.909,14.909,0,0,0,.261-4.247c-.091-.091-.447-.7-1.12-1.864a42.935,42.935,0,0,0-2.771-4.46l-2.191-2.191a.123.123,0,0,1,0-.173.122.122,0,0,1,.172,0l2.191,2.191a42.255,42.255,0,0,1,2.81,4.511c.516.892,1,1.735,1.086,1.82.336.335,0,4.085-.221,4.522A.122.122,0,0,1,2183.111-89.422Z" transform="translate(-2169.112 104.516)" fill="#c77968"/>
          <path id="Trazado_17408" data-name="Trazado 17408" d="M2179.5-90.921a.121.121,0,0,1-.122-.121V-92.5a15.048,15.048,0,0,0-1.031-3.02c-.187-.461-.349-.858-.423-1.08a21.842,21.842,0,0,0-1.448-2.652.133.133,0,0,1-.017-.045c-.254-1.526,1.442-2.522,1.515-2.564a.122.122,0,0,1,.167.044.121.121,0,0,1-.046.167c-.016.009-1.6.944-1.4,2.29a20.932,20.932,0,0,1,1.46,2.683c.072.214.232.608.418,1.065a14.123,14.123,0,0,1,1.049,3.111v1.461A.121.121,0,0,1,2179.5-90.921Z" transform="translate(-2169.151 104.554)" fill="#c77968"/>
          <path id="Trazado_17409" data-name="Trazado 17409" d="M2169.648-90.363a.121.121,0,0,1-.118-.094.121.121,0,0,1,.091-.147,50.94,50.94,0,0,1,5.064-.975,11.152,11.152,0,0,0,.928-2.314,6.5,6.5,0,0,0-.167-.809c-.42-1.779-.768-3.547-.01-3.925.465-.233,1.049.128,1.736,1.072a11.377,11.377,0,0,1,.862,1.416.122.122,0,0,1-.055.163.123.123,0,0,1-.163-.054c-.391-.782-1.561-2.735-2.271-2.381-.648.325-.117,2.573.138,3.652a5.631,5.631,0,0,1,.173.865,11.684,11.684,0,0,1-.987,2.489.12.12,0,0,1-.109.066,48.931,48.931,0,0,0-5.084.971A.131.131,0,0,1,2169.648-90.363Z" transform="translate(-2169.527 104.727)" fill="#c77968"/>
        </g>
        <path id="Trazado_17410" data-name="Trazado 17410" d="M2065.543-81.453s.243-6.573-1.948-7.3a24.115,24.115,0,0,0-4.138-.974s-3.652-6.086-4.869-7.791-5.6-4.625-5.6-4.625.244-2.433-.731-2.191c0,0,.487-1.947-1.46-1.46s-5.112,1.218-5.842,1.947-2.921,2.922-2.921,4.382-.244,9.494,2.191,8.764c0,0,.73,3.165,1.7,3.652a9.721,9.721,0,0,0,3.165.487s.487.244,1.7.973,1.948.244,2.922.487,5.355.731,5.355.731Z" transform="translate(-2038.028 203.068)" fill="#ffa08b"/>
        <g id="Grupo_12577" data-name="Grupo 12577" transform="translate(2.076 98.853)">
          <path id="Trazado_17411" data-name="Trazado 17411" d="M2040.118-93.589h-.01a.123.123,0,0,1-.111-.132,13.289,13.289,0,0,1,.751-3.709c1.279-1.919,3.556-5.2,4.428-5.641.966-.483,2.667-1.213,2.684-1.22a.123.123,0,0,1,.16.064.121.121,0,0,1-.064.159c-.017.007-1.712.735-2.672,1.215-.592.3-2.212,2.373-4.335,5.557a13.565,13.565,0,0,0-.71,3.594A.121.121,0,0,1,2040.118-93.589Z" transform="translate(-2039.996 104.3)" fill="#c77968"/>
          <path id="Trazado_17412" data-name="Trazado 17412" d="M2042.907-89.307a.121.121,0,0,1-.109-.067c-.219-.437-.557-4.186-.221-4.522.082-.084.57-.927,1.086-1.82a42.368,42.368,0,0,1,2.809-4.509l2.192-2.191a.122.122,0,0,1,.172,0,.122.122,0,0,1,0,.172l-2.191,2.191a42.7,42.7,0,0,0-2.771,4.46c-.673,1.163-1.028,1.773-1.124,1.869a15.061,15.061,0,0,0,.266,4.242.121.121,0,0,1-.055.163A.122.122,0,0,1,2042.907-89.307Z" transform="translate(-2039.864 104.401)" fill="#c77968"/>
          <path id="Trazado_17413" data-name="Trazado 17413" d="M2046.352-90.8a.121.121,0,0,1-.121-.122v-1.46a14.124,14.124,0,0,1,1.049-3.112c.186-.457.346-.85.417-1.065a20.964,20.964,0,0,1,1.46-2.682c.2-1.35-1.385-2.282-1.4-2.29a.122.122,0,0,1-.044-.167.123.123,0,0,1,.167-.045c.072.042,1.769,1.039,1.515,2.565a.131.131,0,0,1-.017.044,22.109,22.109,0,0,0-1.449,2.652c-.074.222-.236.62-.423,1.08a15.065,15.065,0,0,0-1.031,3.021v1.46A.123.123,0,0,1,2046.352-90.8Zm2.922-8.4h0Z" transform="translate(-2039.658 104.438)" fill="#c77968"/>
          <path id="Trazado_17414" data-name="Trazado 17414" d="M2056.477-90.248a.126.126,0,0,1-.028,0,49.008,49.008,0,0,0-5.084-.97.121.121,0,0,1-.109-.067,11.7,11.7,0,0,1-.987-2.488,5.612,5.612,0,0,1,.173-.865c.255-1.081.787-3.329.138-3.652-.334-.167-.841.188-1.43,1a11.175,11.175,0,0,0-.841,1.382.122.122,0,0,1-.164.055.122.122,0,0,1-.055-.163,11.184,11.184,0,0,1,.862-1.417c.686-.944,1.271-1.3,1.735-1.072.759.38.411,2.148-.01,3.926a6.625,6.625,0,0,0-.166.809,11.2,11.2,0,0,0,.928,2.314,50.909,50.909,0,0,1,5.064.975.121.121,0,0,1,.091.146A.121.121,0,0,1,2056.477-90.248Z" transform="translate(-2039.557 104.611)" fill="#c77968"/>
        </g>
        <path id="Trazado_17415" data-name="Trazado 17415" d="M2074.41-78.463a19.626,19.626,0,0,0,6.329,3.165c3.164.73,20.935-.244,23.37,0s6.574.243,11.929.243,17.284-2.433,19.719-2.191a54.391,54.391,0,0,1,8.034,2.191s26.779-12.171,34.812-11.928,11.2,9.981,10.712,10.955,1.7,7.06,0,9.007-5.356,4.869-6.816,7.3a10.886,10.886,0,0,1-7.791,5.6,10.005,10.005,0,0,0-3.651,1.947c-1.7,1.461-10.225,6.816-13.633,6.816l-6.817,4.869-44.793,3.895-4.14,6.816S2088.772-37.808,2083.9-40s-16.31-8.278-21.423-11.442-6.329-3.408-9.981-7.06-6.573-5.113-7.06-9.007-1.948-19.231,9.494-18.745,8.764,5.113,13.146,5.6S2074.41-78.463,2074.41-78.463Z" transform="translate(-2037.643 204.095)" fill="#12263f"/>
        <path id="Trazado_17416" data-name="Trazado 17416" d="M2102.684-38.423l13.146,3.409s6.329,3.651,9.98,4.382,15.347,2.049,19.72,2.435c8.277.73,15.815,2.1,16.31-6.816.244-4.382-3.651-8.278-10.224-9.007s-24.588-.244-26.779-.974l-6.086-8.277-6.087,3.408Z" transform="translate(-2034.513 205.927)" fill="#167377"/>
        <path id="Trazado_17417" data-name="Trazado 17417" d="M2124.284-45.052c-.073-.027-7.308-2.678-8.5-2.916a15.064,15.064,0,0,1-3.7-1.967l.14-.2a15.227,15.227,0,0,0,3.6,1.927c1.212.243,8.241,2.817,8.539,2.927Z" transform="translate(-2034.002 206.098)"/>
        <path id="Trazado_17418" data-name="Trazado 17418" d="M2115.179-35.286l-.051-.238c.034-.007,3.364-.734,4.059-1.892l.192-.315c.973-1.588,3.555-5.807,2.809-8.295l.233-.07c.778,2.591-1.846,6.878-2.834,8.492l-.191.313C2118.647-36.042,2115.32-35.316,2115.179-35.286Z" transform="translate(-2033.837 206.317)"/>
        <path id="Trazado_17419" data-name="Trazado 17419" d="M2145.238-28.49c-1.084,0-1.817-.044-1.925-.051l.016-.243c.1.006,10.087.6,13.293-2.855a3.617,3.617,0,0,0,.941-3.093c-.952-6.9-9.665-9.748-9.754-9.776l.074-.232c.089.028,8.948,2.921,9.921,9.975a3.85,3.85,0,0,1-1,3.292C2154.364-28.85,2148.352-28.49,2145.238-28.49Z" transform="translate(-2032.305 206.391)"/>
        <path id="Trazado_17420" data-name="Trazado 17420" d="M2142.624-32.631l-1.612-4.544c-1.844,4.1-2.063,4.053-2.159,4.034-.046-.009-.124-.047-.124-.2a33.232,33.232,0,0,0-.607-3.453l-1.5,3.341-.833-3.45c-1.2,3.719-1.387,3.722-1.525,3.725a.158.158,0,0,1-.156-.125c-.1-.3-.364-1.776-.638-3.415l-1.5,3.872-.061-.48c-.1-.762-.408-3.306-.6-5.392-1.4,2.72-2.863,5.457-3.135,5.5l-.062.011-.061-.05a31.3,31.3,0,0,1-.132-5.117c-1.551,1.478-3.357,3.221-4.809,4.632l-.566.55,5.727-10.638-.012.509c-.033,1.32-.064,2.881-.085,4.368,3.046-2.9,3.1-2.864,3.2-2.786l.082.061-.048.112a9.468,9.468,0,0,0,.066,1.975c.419-.821.825-1.623,1.177-2.327l.169-.341.059.376c.006.04.334,2.137.681,4.244l1.416-3.659.844,3.491c.435-1.372.879-2.834,1.228-4.017l.133-.45.1.458c.036.159.491,2.188.919,4.233l1.629-3.634,1.2,3.374c.481-1.075.963-2.177,1.354-3.095l.234-.545Zm-8.979-4.53c.266,1.6.53,3.12.658,3.644a33.267,33.267,0,0,0,1.38-3.838l-.754-3.123Zm4.648-.011c.321,1.548.609,3.033.669,3.647.332-.515,1.118-2.186,1.929-3.992l-1.08-3.042Zm-10.122-1.436c-.029,2.347-.029,4.449.04,5.05.428-.579,1.784-3.136,3.058-5.619a21.362,21.362,0,0,1-.117-2.2C2130.7-40.994,2129.553-39.922,2128.171-38.607Zm3.349-.516c.144,1.584.375,3.646.576,5.29l1.3-3.353c-.285-1.716-.569-3.51-.689-4.278C2132.344-40.747,2131.938-39.942,2131.52-39.123Zm9.636,1.627,1.225,3.451v-6.248C2141.912-39.2,2141.506-38.279,2141.155-37.5Zm-5.22.151.759,3.145,1.344-3c-.338-1.628-.71-3.314-.885-4.1-.22.737-.683,2.273-1.167,3.795Zm-7.93-5.468-4.5,8.354c.749-.726,2.139-2.07,3.524-3.4l.894-.854C2127.944-40.112,2127.975-41.572,2128.005-42.813Z" transform="translate(-2033.433 206.441)"/>
        <g id="Grupo_12578" data-name="Grupo 12578" transform="translate(11.57 120.642)">
          <path id="Trazado_17421" data-name="Trazado 17421" d="M2106.093-41.284a.123.123,0,0,1-.076-.027c-.151-.121-15.159-12.221-20.932-16.551-5.9-4.423-15.612-8.515-17.967-8.985-2.443-.489-13.237-11.495-13.7-11.963a.123.123,0,0,1,0-.173.122.122,0,0,1,.172,0c.112.114,11.2,11.421,13.57,11.894s12.141,4.588,18.065,9.03c5.778,4.333,20.788,16.435,20.939,16.557a.122.122,0,0,1,.018.172A.123.123,0,0,1,2106.093-41.284Z" transform="translate(-2048.763 83.886)" fill="#a18bbc"/>
          <path id="Trazado_17422" data-name="Trazado 17422" d="M2071.006-48.482a.2.2,0,0,1-.052-.008c-.739-.247-11.05-11.638-12.223-12.937a.121.121,0,0,1,.009-.172.122.122,0,0,1,.172.009c4.223,4.672,10.511,11.506,11.883,12.693-.659-1.318-4.173-6.739-6.8-10.8-3.664-5.652-4.8-7.446-4.8-7.657a.121.121,0,0,1,.121-.121.122.122,0,0,1,.122.11c.09.322,2.466,3.989,4.765,7.535,6.2,9.568,7.089,11.076,6.921,11.293A.141.141,0,0,1,2071.006-48.482Zm-11.576-18.87h0Z" transform="translate(-2048.474 84.514)" fill="#a18bbc"/>
          <path id="Trazado_17423" data-name="Trazado 17423" d="M2059.347-54.944a.124.124,0,0,1-.075-.026c-2.867-2.264-4.74-5.506-6.552-8.642a48.026,48.026,0,0,0-3.693-5.742.122.122,0,0,1,.02-.171.123.123,0,0,1,.172.02,48.167,48.167,0,0,1,3.711,5.772c1.8,3.116,3.663,6.337,6.493,8.571a.124.124,0,0,1,.02.172A.127.127,0,0,1,2059.347-54.944Z" transform="translate(-2049.001 84.401)" fill="#a18bbc"/>
          <path id="Trazado_17424" data-name="Trazado 17424" d="M2115.511-48.893a.119.119,0,0,1-.063-.018.121.121,0,0,1-.04-.168l1.083-1.772c-1.383-.777-15.333-8.606-21.3-11.13A35.078,35.078,0,0,1,2089.2-65.5c-3.9-2.652-8.33-5.656-16.382-6.944l-12.173-1.947a.122.122,0,0,1-.1-.139.122.122,0,0,1,.141-.1l12.171,1.947c8.108,1.3,12.556,4.318,16.481,6.982a34.86,34.86,0,0,0,5.943,3.494c6.264,2.65,21.284,11.119,21.435,11.2a.117.117,0,0,1,.058.075.124.124,0,0,1-.014.095l-1.148,1.88A.123.123,0,0,1,2115.511-48.893Z" transform="translate(-2048.374 84.125)" fill="#a18bbc"/>
          <path id="Trazado_17425" data-name="Trazado 17425" d="M2081.766-69.613a.123.123,0,0,1-.1-.048c-1.455-1.951-9.128-4.745-14.731-6.785a45.09,45.09,0,0,1-5.878-2.35.122.122,0,0,1-.029-.17.122.122,0,0,1,.17-.028,47.236,47.236,0,0,0,5.82,2.32c5.631,2.051,13.345,4.86,14.843,6.868a.121.121,0,0,1-.024.17A.118.118,0,0,1,2081.766-69.613Z" transform="translate(-2048.349 83.886)" fill="#a18bbc"/>
          <path id="Trazado_17426" data-name="Trazado 17426" d="M2079.675-70.953a.123.123,0,0,1-.07-.022l-13.235-9.207a.12.12,0,0,1-.03-.169.121.121,0,0,1,.169-.031l13.235,9.207a.123.123,0,0,1,.031.17A.122.122,0,0,1,2079.675-70.953Z" transform="translate(-2048.06 83.811)" fill="#a18bbc"/>
          <path id="Trazado_17427" data-name="Trazado 17427" d="M2097.216-61.69a.114.114,0,0,1-.042-.007c-3.287-1.211-11.12-7.236-15.8-10.837-1.734-1.335-3.234-2.487-3.428-2.552a.122.122,0,0,1-.077-.154.121.121,0,0,1,.154-.077,40.6,40.6,0,0,1,3.5,2.59c4.669,3.592,12.484,9.6,15.736,10.8a.121.121,0,0,1,.071.156A.12.12,0,0,1,2097.216-61.69Z" transform="translate(-2047.432 84.087)" fill="#a18bbc"/>
          <path id="Trazado_17428" data-name="Trazado 17428" d="M2117.929-51.815a.122.122,0,0,1-.123-.121v-1.7a.125.125,0,0,1,.052-.1c.074-.051,7.345-5.135,10.24-6.582.458-.229.99-.488,1.592-.783,3.21-1.568,8.582-4.193,16.172-8.706,9.047-5.38,12.743-6.356,20.241-8.048a.12.12,0,0,1,.146.092.122.122,0,0,1-.092.146c-7.472,1.687-11.155,2.659-20.171,8.019-7.6,4.518-12.976,7.146-16.189,8.716-.6.294-1.132.554-1.59.782-2.752,1.375-9.5,6.066-10.158,6.528v1.641A.121.121,0,0,1,2117.929-51.815Z" transform="translate(-2045.261 83.949)" fill="#a18bbc"/>
          <path id="Trazado_17429" data-name="Trazado 17429" d="M2152.1-73.57a.121.121,0,0,1-.069-.022.122.122,0,0,1-.032-.169c1.945-2.834,17.41-9.579,18.067-9.865a.124.124,0,0,1,.161.063.123.123,0,0,1-.063.16c-.161.07-16.058,7-17.963,9.779A.124.124,0,0,1,2152.1-73.57Z" transform="translate(-2043.404 83.635)" fill="#a18bbc"/>
          <path id="Trazado_17430" data-name="Trazado 17430" d="M2147.426-71.063a.117.117,0,0,1-.049-.012.121.121,0,0,1-.061-.16c2.122-4.692,13.5-12.069,13.981-12.381a.124.124,0,0,1,.169.036.123.123,0,0,1-.037.169c-.118.076-11.8,7.65-13.891,12.277A.12.12,0,0,1,2147.426-71.063Z" transform="translate(-2043.658 83.635)" fill="#a18bbc"/>
          <path id="Trazado_17431" data-name="Trazado 17431" d="M2122.547-59.323a.122.122,0,0,1-.112-.073.121.121,0,0,1,.061-.16c.022-.009,2.244-1.046,7.507-6.788,5.312-5.794,19.615-12.138,19.76-12.2a.122.122,0,0,1,.16.062.122.122,0,0,1-.062.16c-.143.063-14.4,6.386-19.679,12.143-5.312,5.795-7.5,6.806-7.587,6.846A.117.117,0,0,1,2122.547-59.323Z" transform="translate(-2045.01 83.911)" fill="#a18bbc"/>
          <path id="Trazado_17432" data-name="Trazado 17432" d="M2118.39-58.257a.117.117,0,0,1-.076-.027.12.12,0,0,1-.018-.171c5.305-6.512,21.288-17.2,21.45-17.309a.123.123,0,0,1,.169.034.122.122,0,0,1-.034.169c-.16.108-16.114,10.777-21.4,17.261A.122.122,0,0,1,2118.39-58.257Z" transform="translate(-2045.236 84.062)" fill="#a18bbc"/>
          <path id="Trazado_17433" data-name="Trazado 17433" d="M2105.31-59.2a.121.121,0,0,1-.113-.076c-1.427-3.567-19.236-12.264-19.416-12.352a.121.121,0,0,1-.056-.162.122.122,0,0,1,.162-.056c.737.358,18.074,8.826,19.535,12.479a.122.122,0,0,1-.067.158A.115.115,0,0,1,2105.31-59.2Z" transform="translate(-2047.006 84.275)" fill="#a18bbc"/>
          <path id="Trazado_17434" data-name="Trazado 17434" d="M2111.38-65.919c-8.761,0-22.458-7.023-22.6-7.1a.122.122,0,0,1-.052-.164.121.121,0,0,1,.164-.052c.147.075,14.677,7.529,23.309,7.046s20.767-6.5,20.888-6.56a.122.122,0,0,1,.164.054.122.122,0,0,1-.055.163c-.122.061-12.295,6.1-20.984,6.586C2111.941-65.927,2111.664-65.919,2111.38-65.919Z" transform="translate(-2046.842 84.2)" fill="#a18bbc"/>
          <path id="Trazado_17435" data-name="Trazado 17435" d="M2118.39-64.4a.122.122,0,0,1-.085-.036.122.122,0,0,1,0-.172c2.425-2.425,10.415-5.5,10.753-5.627a.121.121,0,0,1,.157.071.122.122,0,0,1-.069.157c-.082.032-8.281,3.183-10.669,5.571A.124.124,0,0,1,2118.39-64.4Z" transform="translate(-2045.236 84.363)" fill="#a18bbc"/>
          <path id="Trazado_17436" data-name="Trazado 17436" d="M2111.281-52.274h-.012a.122.122,0,0,1-.11-.133c.025-.274.638-6.732,1.122-8.427.471-1.647-1.438-6.931-1.458-6.985a.118.118,0,0,1,0-.094l3.1-6.443-4.85-1.385a65.281,65.281,0,0,0-1.186,6.433,4.014,4.014,0,0,0,.158,2.254,7.7,7.7,0,0,1,.436,1.732c.349,2.3-.566,10.651-.6,11.005a.123.123,0,0,1-.134.108.121.121,0,0,1-.107-.134c.009-.086.95-8.672.606-10.942a7.5,7.5,0,0,0-.424-1.685,4.208,4.208,0,0,1-.171-2.363c.241-2.414,1.21-6.548,1.219-6.589a.127.127,0,0,1,.057-.077.126.126,0,0,1,.1-.013l5.112,1.461a.123.123,0,0,1,.078.067.119.119,0,0,1,0,.1l-3.142,6.526c.206.575,1.918,5.432,1.445,7.087-.477,1.673-1.108,8.316-1.114,8.383A.121.121,0,0,1,2111.281-52.274Z" transform="translate(-2045.817 84.049)" fill="#a18bbc"/>
          <path id="Trazado_17437" data-name="Trazado 17437" d="M2143.764-44.56a.112.112,0,0,1-.084-.041c-.141-.138-.3-.293,7.81-9.2,12.311-13.517,16.24-13.673,16.4-13.673a.121.121,0,0,1,.122.121.122.122,0,0,1-.122.122c-.038,0-4.038.215-16.221,13.593-5.164,5.67-6.973,7.8-7.548,8.57.284-.238.683-.6,1.045-.949a.121.121,0,0,1,.172,0,.122.122,0,0,1,0,.172C2144.218-44.767,2143.894-44.56,2143.764-44.56Z" transform="translate(-2043.857 84.514)" fill="#a18bbc"/>
          <path id="Trazado_17438" data-name="Trazado 17438" d="M2126.241-46.148a.122.122,0,0,1-.116-.084.122.122,0,0,1,.078-.154c.148-.047,14.9-4.891,19.952-7.056,4.889-2.1,17.046-9.292,20.92-11.677,3.121-1.92,12.068-9.408,12.158-9.484a.122.122,0,0,1,.172.016.122.122,0,0,1-.016.171c-.09.076-9.051,7.576-12.187,9.505-3.879,2.387-16.05,9.593-20.952,11.694-5.059,2.168-19.824,7.015-19.972,7.063A.118.118,0,0,1,2126.241-46.148Z" transform="translate(-2044.81 84.125)" fill="#a18bbc"/>
          <path id="Trazado_17439" data-name="Trazado 17439" d="M2171.424-56.166l-.021,0a.12.12,0,0,1-.1-.12l.075-7.018a.122.122,0,0,1,.121-.121h0a.122.122,0,0,1,.12.123l-.067,6.293c.917-2.52,4.188-11.1,6.931-13.208a.123.123,0,0,1,.171.022.122.122,0,0,1-.022.171c-3.1,2.385-7.055,13.664-7.094,13.778A.121.121,0,0,1,2171.424-56.166Z" transform="translate(-2042.354 84.363)" fill="#a18bbc"/>
          <path id="Trazado_17440" data-name="Trazado 17440" d="M2154.179-48.823a.129.129,0,0,1-.058-.015.121.121,0,0,1-.049-.164c2.212-4.181,12.819-12.034,13.2-12.224a.123.123,0,0,1,.164.055.122.122,0,0,1-.055.163c-.375.189-10.9,7.977-13.092,12.12A.122.122,0,0,1,2154.179-48.823Z" transform="translate(-2043.291 84.853)" fill="#a18bbc"/>
        </g>
        <path id="Trazado_17441" data-name="Trazado 17441" d="M2097.821-149.677c-2.516.871,9.285,10.886,12.692,10.886s9.251-8.764,9.251-8.764a51.9,51.9,0,0,1-1.7-11.928l-18.5.73S2099.733-150.341,2097.821-149.677Z" transform="translate(-2034.796 200.154)" fill="#ffa08b"/>
        <path id="Trazado_17442" data-name="Trazado 17442" d="M2115.427-137.12a37.647,37.647,0,0,0-2.84,4.887,5.913,5.913,0,0,0,0,2.191s3.408,11.2,4.382,15.337,1.217,19.231,1.7,22.153-2.434,13.389-2.434,14.607,2.434,10.955,2.434,10.955l-6.086,6.816-9.494-4.138s-.974-8.521-1.217-14.364,3.164-9.982,3.407-16.8.244-17.771.244-22.883,3.895-10.712,3.651-11.442a7.756,7.756,0,0,1,0-2.435l-3.234-5.528a12.316,12.316,0,0,1,4.695-1.288C2112.831-139.049,2115.427-137.12,2115.427-137.12Z" transform="translate(-2034.558 201.265)" fill="#167377"/>
        <path id="Trazado_17443" data-name="Trazado 17443" d="M2105.889-78.909a.234.234,0,0,1-.153-.044c-.174-.142-.111-.443.211-1.007,1.932-3.379,10.878-14.03,10.967-14.138a.123.123,0,0,1,.172-.015.122.122,0,0,1,.014.172c-.089.106-9.022,10.742-10.942,14.1-.334.583-.269.7-.268.7.361.235,3.739-2.407,6.654-4.988a.12.12,0,0,1,.172.011.121.121,0,0,1-.01.171C2111.32-82.719,2106.932-78.909,2105.889-78.909Z" transform="translate(-2034.353 203.706)" fill="#3b3348"/>
        <path id="Trazado_17444" data-name="Trazado 17444" d="M2113.508-117.332a.849.849,0,0,1-.37-.1c-1.48-.74-2.182-10.657-2.257-11.787a.122.122,0,0,1,.113-.13.12.12,0,0,1,.129.114c.2,3.027.977,11.011,2.124,11.584.121.061.284.117.367.042.315-.284-.123-1.957-.534-3.056a.12.12,0,0,1,.071-.156.122.122,0,0,1,.157.071c.175.468,1.021,2.825.47,3.321A.387.387,0,0,1,2113.508-117.332Z" transform="translate(-2034.067 201.792)" fill="#3b3348"/>
        <path id="Trazado_17445" data-name="Trazado 17445" d="M2098.405-130.851a.145.145,0,0,1-.034,0c-.428-.081-1.13-2.666-2.685-9.879-.108-.5-.2-.918-.262-1.207-.485-2.185-.047-7.238-.028-7.452a.124.124,0,0,1,.132-.111.121.121,0,0,1,.111.132c0,.052-.455,5.231.023,7.378.064.289.154.705.263,1.208.54,2.508,1.955,9.073,2.468,9.663a5.8,5.8,0,0,1,1.365-1,18.7,18.7,0,0,0,4.215-3.35,9.509,9.509,0,0,1,6.419-2.961,2.452,2.452,0,0,0,.4-.056,3.676,3.676,0,0,1,2.581.312c.466.233,1.481.9,2.767,1.757,2.492,1.651,6.208,4.112,7.5,4.3-.3-1.684-1.419-8.2-1.178-8.685.191-.421-.233-7.335-.906-8.984-.1-.239-.164-.271-.171-.274a.122.122,0,0,1-.071-.157.122.122,0,0,1,.158-.07c.121.046.225.19.326.449a35.515,35.515,0,0,1,.881,9.146c-.155.38.671,5.53,1.228,8.688a.121.121,0,0,1-.026.1.12.12,0,0,1-.094.044c-1.2,0-5-2.518-7.78-4.357-1.229-.814-2.289-1.516-2.741-1.743a3.469,3.469,0,0,0-2.427-.29,2.6,2.6,0,0,1-.44.06,9.422,9.422,0,0,0-6.239,2.881,19.25,19.25,0,0,1-4.266,3.393,5.314,5.314,0,0,0-1.322.975A.191.191,0,0,1,2098.405-130.851Zm.024-.238h0Z" transform="translate(-2034.92 200.653)" fill="#3b3348"/>
        <g id="Grupo_12582" data-name="Grupo 12582" transform="translate(54.825)">
          <g id="Grupo_12580" data-name="Grupo 12580" transform="translate(31.228 26.265)">
            <g id="Grupo_12579" data-name="Grupo 12579">
              <path id="Trazado_17446" data-name="Trazado 17446" d="M2123.175-173.135a2.8,2.8,0,0,1,2.819,1.526,2.859,2.859,0,0,1-.233,2.468,5.69,5.69,0,0,1-1.787,1.815,3.274,3.274,0,0,1-2.886.7,2.553,2.553,0,0,1-1.443-2.427A3.834,3.834,0,0,1,2123.175-173.135Z" transform="translate(-2119.645 173.146)" fill="#c77968"/>
            </g>
          </g>
          <path id="Trazado_17447" data-name="Trazado 17447" d="M2126.071-181.626c-.185-4.92-2.877-10.209-7.38-12.507a21.467,21.467,0,0,0-11.516-2.03c-7.892.683-14.734,5.683-14.972,14.1-.2,7.018,2.445,13.729,4.884,20.181a18.936,18.936,0,0,0,1.922,3.877,12.114,12.114,0,0,0,3.5,3.146c2.693,1.841,5.5,3.729,8.716,4.269a7.386,7.386,0,0,0,3.686-.215,10.928,10.928,0,0,0,3.418-2.328c2.019-1.791,4.113-3.686,5.062-6.213a15.308,15.308,0,0,0,.738-3.42q.243-1.865.414-3.737a18.747,18.747,0,0,0,.356-3.421q.472-3.581.889-7.169A29.828,29.828,0,0,0,2126.071-181.626Z" transform="translate(-2089.909 198.155)" fill="#ffa08b"/>
          <path id="Trazado_17448" data-name="Trazado 17448" d="M2109.286-175.912a.737.737,0,0,1-.391-.112,5.787,5.787,0,0,0-5.711-.021.749.749,0,0,1-1.03-.249.75.75,0,0,1,.249-1.031,7.247,7.247,0,0,1,7.282.026.749.749,0,0,1,.241,1.032A.746.746,0,0,1,2109.286-175.912Z" transform="translate(-2089.374 199.13)" fill="#4e3933"/>
          <path id="Trazado_17449" data-name="Trazado 17449" d="M2122.594-175.858a.752.752,0,0,1-.392-.113,5.789,5.789,0,0,0-5.711-.021.748.748,0,0,1-1.03-.249.748.748,0,0,1,.249-1.03,7.24,7.24,0,0,1,7.282.026.75.75,0,0,1,.241,1.032A.747.747,0,0,1,2122.594-175.858Z" transform="translate(-2088.65 199.133)" fill="#4e3933"/>
          <path id="Trazado_17450" data-name="Trazado 17450" d="M2105.621-162.521a.126.126,0,0,1-.12-.093,1.244,1.244,0,0,1,.645-1.414.125.125,0,0,1,.167.059.126.126,0,0,1-.059.167,1,1,0,0,0-.513,1.123.123.123,0,0,1-.088.153A.117.117,0,0,1,2105.621-162.521Z" transform="translate(-2089.188 199.906)" fill="#c77968"/>
          <path id="Trazado_17451" data-name="Trazado 17451" d="M2115.736-173.217a.225.225,0,0,1,.123.039,7.585,7.585,0,0,0,2.919,1.222,6.1,6.1,0,0,0,2.68-1.194.225.225,0,0,1,.326.06.26.26,0,0,1-.056.348,6.409,6.409,0,0,1-2.953,1.285,7.818,7.818,0,0,1-3.167-1.3.261.261,0,0,1-.073-.345A.233.233,0,0,1,2115.736-173.217Z" transform="translate(-2088.642 199.408)" fill="#333"/>
          <path id="Trazado_17452" data-name="Trazado 17452" d="M2103.268-173.219a.218.218,0,0,1,.123.039,7.574,7.574,0,0,0,2.92,1.221,6.111,6.111,0,0,0,2.68-1.192.225.225,0,0,1,.327.059.259.259,0,0,1-.056.348,6.4,6.4,0,0,1-2.953,1.285,7.8,7.8,0,0,1-3.167-1.3.258.258,0,0,1-.073-.344A.231.231,0,0,1,2103.268-173.219Z" transform="translate(-2089.32 199.407)" fill="#333"/>
          <path id="Trazado_17453" data-name="Trazado 17453" d="M2111.951-159.034c-.3,0-.62-.014-.97-.04a.125.125,0,0,1-.115-.134.124.124,0,0,1,.134-.115,7.442,7.442,0,0,0,3.553-.362.127.127,0,0,1,.169.056.125.125,0,0,1-.056.168A6.429,6.429,0,0,1,2111.951-159.034Z" transform="translate(-2088.894 200.142)" fill="#6b4640"/>
          <path id="Trazado_17454" data-name="Trazado 17454" d="M2124.661-165.651a19.2,19.2,0,0,1-.992,6.181c-1.094,2.75-3.377,4.823-5.587,6.791a8.762,8.762,0,0,1-1.9,1.407,7.885,7.885,0,0,1-2.567.635,10.666,10.666,0,0,1-3.679-.046,12.341,12.341,0,0,1-4.2-2.237c-.171.569-1.036.3-1.487-.089a30.56,30.56,0,0,1-8.223-11.231,3.389,3.389,0,0,1-.273-2.774c.2-.391.545-.835.312-1.206a1.218,1.218,0,0,0-.469-.347,2.151,2.151,0,0,1-.808-2.749c1.105-.064,2.116-.228,3.221-.291.2,2.927.528,6.091,2.1,8.571a13.709,13.709,0,0,0,5.628,4.621,9.859,9.859,0,0,0,4.416,1.277c1.767-.014,3.588-.812,5.245-.2a5.287,5.287,0,0,0,.963.345,4.7,4.7,0,0,0,2.576-.753c2.238-1.69,3.577-2.065,4.519-5.73.492-1.916.484-4.885,1.3-6.674C2124.66-168.648,2124.736-167.152,2124.661-165.651Z" transform="translate(-2089.779 199.495)" fill="#4e3933"/>
          <path id="Trazado_17455" data-name="Trazado 17455" d="M2110.911-162.593a4.691,4.691,0,0,0-1.837.275c-1.267.268-2.138-.139-3.19.618-.947.682-1.054,2.829-1.014,3.995-.169.078-1.095-.753-1.252-.853l-1.787-1.138a3.779,3.779,0,0,1-1.348-1.206,3.053,3.053,0,0,0,2.656-1.557,9.573,9.573,0,0,1,1.026-.934,2.626,2.626,0,0,1,.955-.543,7.716,7.716,0,0,1,1.657-.407,15.425,15.425,0,0,1,2.408-.062l8.9.235a3.841,3.841,0,0,1,1.266.177,3.84,3.84,0,0,1,1.275.962l1.939,1.946a.577.577,0,0,1,.17.242.571.571,0,0,1-.165.464c-.314.415-2.1,2.107-2.461,2.479a4.2,4.2,0,0,0-.989-3.862c.095.221.123.573-.114.609a.419.419,0,0,1-.318-.16,6.23,6.23,0,0,0-2.781-1.513c.157.17-.2.343-.425.3-.707-.134-1.549-.686-2.267-.566C2112.285-162.936,2111.949-162.388,2110.911-162.593Z" transform="translate(-2089.458 199.886)" fill="#4e3933"/>
          <path id="Trazado_17456" data-name="Trazado 17456" d="M2113.445-164.423a.25.25,0,0,1-.239-.186.249.249,0,0,1,.176-.306c.72-.193,1.914-.64,1.814-1.47a2.507,2.507,0,0,0-.24-.7l-.035-.077a13.647,13.647,0,0,1-.942-8.731.248.248,0,0,1,.3-.178.249.249,0,0,1,.178.3,13.138,13.138,0,0,0,.914,8.4l.035.075a2.878,2.878,0,0,1,.279.848c.11.9-.645,1.6-2.18,2.011A.243.243,0,0,1,2113.445-164.423Z" transform="translate(-2088.767 199.252)" fill="#c77968"/>
          <path id="Trazado_17457" data-name="Trazado 17457" d="M2110.963-164.775h-.016a.985.985,0,0,1-.7-.336,1.073,1.073,0,0,1-.281-.8,1.058,1.058,0,0,1,.4-.74.975.975,0,0,1,.747-.212.25.25,0,0,1,.208.286.251.251,0,0,1-.285.209.47.47,0,0,0-.359.11.563.563,0,0,0-.217.387.579.579,0,0,0,.155.424.484.484,0,0,0,.339.172,1.47,1.47,0,0,0,.365-.074l1.092-.331a.249.249,0,0,1,.311.167.25.25,0,0,1-.167.312l-1.092.33A1.672,1.672,0,0,1,2110.963-164.775Z" transform="translate(-2088.943 199.752)" fill="#c77968"/>
          <path id="Trazado_17458" data-name="Trazado 17458" d="M2093.521-170.716a2.118,2.118,0,0,0,.5.837,1.972,1.972,0,0,0,.857.378,9.91,9.91,0,0,0,2.528.28.9.9,0,0,0,.55-.137.952.952,0,0,0,.222-.846c-.239-3.488-.688-7.062.26-10.426s3.754-6.512,7.249-6.565c1.813-.028,3.531.757,5.319,1.049a9.929,9.929,0,0,0,5.253-.575,9.692,9.692,0,0,1,2.919-.987,4.358,4.358,0,0,1,3.208,1.374,12.4,12.4,0,0,1,2.031,2.948,10.26,10.26,0,0,1,1.575,4.894,22.655,22.655,0,0,0,.678-4.4,9.443,9.443,0,0,0-.424-3.441,11.907,11.907,0,0,0-2.01-3.215c-2.2-2.8-4.548-5.72-7.827-7.118a19.169,19.169,0,0,0-5.725-1.208c-4-.382-8.445-.367-11.516,2.227-1.521,1.286-2.529,3.078-3.953,4.47a16.4,16.4,0,0,0-2.726,2.749c-1.41,2.25-1.195,5.979-1.033,8.522A29.978,29.978,0,0,0,2093.521-170.716Z" transform="translate(-2089.955 198.057)" fill="#4e3933"/>
          <g id="Grupo_12581" data-name="Grupo 12581" transform="translate(0 26.397)">
            <path id="Trazado_17459" data-name="Trazado 17459" d="M2093.048-173.008a2.806,2.806,0,0,0-2.831,1.506,2.858,2.858,0,0,0,.216,2.47,5.674,5.674,0,0,0,1.773,1.827,3.274,3.274,0,0,0,2.88.724,2.553,2.553,0,0,0,1.461-2.417A3.834,3.834,0,0,0,2093.048-173.008Z" transform="translate(-2090.026 173.021)" fill="#ffa08b"/>
            <path id="Trazado_17460" data-name="Trazado 17460" d="M2094.586-167.832a.125.125,0,0,1-.077-.027,1.054,1.054,0,0,1-.371-1.008,1.052,1.052,0,0,1,.73-.789.29.29,0,0,0,.09-.032.128.128,0,0,0,0-.059,1.554,1.554,0,0,0-.38-.8,3.462,3.462,0,0,0-1.333-1.146,1.677,1.677,0,0,0-1.629.1.665.665,0,0,0-.311.551.125.125,0,0,1-.111.137.125.125,0,0,1-.138-.112.889.889,0,0,1,.411-.777,1.927,1.927,0,0,1,1.878-.131,3.7,3.7,0,0,1,1.432,1.223,1.8,1.8,0,0,1,.432.931.337.337,0,0,1-.05.225.36.36,0,0,1-.211.121.8.8,0,0,0-.566.6.8.8,0,0,0,.281.763.126.126,0,0,1,.021.175A.127.127,0,0,1,2094.586-167.832Z" transform="translate(-2089.97 173.071)" fill="#c77968"/>
          </g>
          <path id="Trazado_17461" data-name="Trazado 17461" d="M2111.825-160.781a20.442,20.442,0,0,1-4.893-.541.121.121,0,0,1-.089-.148.121.121,0,0,1,.147-.089,26.694,26.694,0,0,0,10.413,0,.122.122,0,0,1,.145.094.122.122,0,0,1-.093.144A29.821,29.821,0,0,1,2111.825-160.781Z" transform="translate(-2089.113 200.041)" fill="#6b4640"/>
        </g>
      </g>
      <g id="Grupo_12584" data-name="Grupo 12584" transform="translate(2162.974 -207.53)">
        <path id="Trazado_17462" data-name="Trazado 17462" d="M2208.2-210.63l-54.754,10.873,9.341,4.827,1.941,13.057,10.657-6.548,3.351,1.732Z" transform="translate(-2153.447 210.63)" fill="url(#linear-gradient)"/>
        <path id="Trazado_17463" data-name="Trazado 17463" d="M2164.4-181.895l-.458-.166,3.583-9.908-5.9-3.014,43.209-15.33.188.448-36.655,17.783,6.73,3.441-.222.433-6.918-3.537Zm-1.543-13.007,4.973,2.542,33.034-16.026Z" transform="translate(-2153.003 210.647)" fill="#12263f"/>
      </g>
      <g id="Grupo_12586" data-name="Grupo 12586" transform="translate(2177.006 -169.792)">
        <rect id="Rectángulo_3048" data-name="Rectángulo 3048" width="79.133" height="41.169" rx="2.477" transform="translate(0)" fill="#12263f"/>
        <path id="Trazado_17464" data-name="Trazado 17464" d="M2196-136.98s-7.658,19.5-6.426,18.51,25.886-18.489,25.886-18.489Z" transform="translate(-2165.523 176.895)" fill="#12263f"/>
        <g id="Grupo_12585" data-name="Grupo 12585" transform="translate(23.838 4.858)">
          <path id="Trazado_17465" data-name="Trazado 17465" d="M2190.215-160.362l.4-2.975h-1.245v-.9h1.381l.289-2.2h-1.305v-.9h1.442l.394-2.9h.881l-.38,2.9h1.58l.394-2.9h.9l-.38,2.9h1.245v.9h-1.381l-.273,2.2h1.305v.9h-1.442l-.395,2.975h-.911l.395-2.975h-1.579l-.4,2.975Zm3.022-3.872.288-2.2h-1.579l-.289,2.2Z" transform="translate(-2189.365 170.23)" fill="#fff"/>
        </g>
        <path id="Trazado_17466" data-name="Trazado 17466" d="M2186.1-165.635a6.163,6.163,0,0,0-6.163-6.163,6.163,6.163,0,0,0-6.163,6.163,6.163,6.163,0,0,0,6.163,6.164A6.163,6.163,0,0,0,2186.1-165.635Z" transform="translate(-2166.375 175.003)" fill="#fff"/>
        <path id="Trazado_17467" data-name="Trazado 17467" d="M2235.495-166.142h-35.745a.487.487,0,0,1-.487-.487.487.487,0,0,1,.487-.487h35.745a.487.487,0,0,1,.486.487A.487.487,0,0,1,2235.495-166.142Z" transform="translate(-2164.989 175.257)" fill="#fff"/>
        <path id="Trazado_17468" data-name="Trazado 17468" d="M2235.495-161.232h-35.745a.487.487,0,0,1-.487-.487.487.487,0,0,1,.487-.487h35.745a.487.487,0,0,1,.486.487A.487.487,0,0,1,2235.495-161.232Z" transform="translate(-2164.989 175.524)" fill="#fff"/>
        <path id="Trazado_17469" data-name="Trazado 17469" d="M2238.46-153.517h-66.067a.487.487,0,0,1-.487-.486.488.488,0,0,1,.487-.487h66.067a.488.488,0,0,1,.487.487A.487.487,0,0,1,2238.46-153.517Z" transform="translate(-2166.476 175.944)" fill="#fff"/>
        <path id="Trazado_17470" data-name="Trazado 17470" d="M2238.46-147.437h-66.067a.488.488,0,0,1-.487-.487.488.488,0,0,1,.487-.487h66.067a.488.488,0,0,1,.487.487A.488.488,0,0,1,2238.46-147.437Z" transform="translate(-2166.476 176.274)" fill="#fff"/>
      </g>
      <g id="Grupo_12588" data-name="Grupo 12588" transform="translate(2011.168 -237.852)">
        <path id="Trazado_17471" data-name="Trazado 17471" d="M2084.175-217.068l-44.712-22.262a.559.559,0,0,0-.75.251l-29.187,58.621a.558.558,0,0,0,.251.75l44.543,22.178a.56.56,0,0,0,.75-.252l29.271-58.789A.37.37,0,0,0,2084.175-217.068Z" transform="translate(-2009.468 239.389)" fill="#333"/>
        <rect id="Rectángulo_3049" data-name="Rectángulo 3049" width="47.517" height="62.895" transform="translate(30.029 2.012) rotate(26.068)" fill="#fff"/>
        <path id="Trazado_17472" data-name="Trazado 17472" d="M2069.863-224.605l-6.782-3.377c.054-.087.105-.176.152-.269a3.394,3.394,0,0,0-1.525-4.548,3.391,3.391,0,0,0-4.548,1.525c-.047.093-.086.188-.124.283l-6.782-3.376a2.614,2.614,0,0,0-3.506,1.175L2045.158-230a.6.6,0,0,0,.272.81l23.208,11.556a.6.6,0,0,0,.81-.272l1.589-3.19A2.613,2.613,0,0,0,2069.863-224.605Zm-10.63-3.226a2.158,2.158,0,0,1-.97-2.894,2.158,2.158,0,0,1,2.894-.97,2.159,2.159,0,0,1,.97,2.894A2.158,2.158,0,0,1,2059.233-227.832Z" transform="translate(-2007.531 239.647)" fill="#b3b3b3"/>
        <g id="Grupo_12587" data-name="Grupo 12587" transform="translate(5.486 9.208)">
          <path id="Trazado_17473" data-name="Trazado 17473" d="M2055.249-221.332l-18.079-8.844a.133.133,0,0,1-.06-.176l.112-.23a.133.133,0,0,1,.176-.06l18.079,8.844a.132.132,0,0,1,.06.176l-.112.23A.133.133,0,0,1,2055.249-221.332Z" transform="translate(-2013.452 230.656)" fill="#a2acc2"/>
          <path id="Trazado_17474" data-name="Trazado 17474" d="M2053.665-218.094l-18.079-8.844a.131.131,0,0,1-.06-.176l.112-.229a.131.131,0,0,1,.176-.06l18.079,8.844a.132.132,0,0,1,.06.176l-.112.229A.131.131,0,0,1,2053.665-218.094Z" transform="translate(-2013.538 230.832)" fill="#a2acc2"/>
          <path id="Trazado_17475" data-name="Trazado 17475" d="M2054.246-201.754l-18.078-8.844a.133.133,0,0,1-.061-.176l.113-.23a.132.132,0,0,1,.176-.06l18.078,8.844a.131.131,0,0,1,.06.176l-.112.229A.132.132,0,0,1,2054.246-201.754Z" transform="translate(-2013.507 231.72)" fill="#a2acc2"/>
          <path id="Trazado_17476" data-name="Trazado 17476" d="M2052.518-198.221l-18.079-8.844a.132.132,0,0,1-.06-.176l.112-.23a.133.133,0,0,1,.176-.06l18.079,8.844a.133.133,0,0,1,.06.176l-.112.23A.133.133,0,0,1,2052.518-198.221Z" transform="translate(-2013.601 231.912)" fill="#a2acc2"/>
          <path id="Trazado_17477" data-name="Trazado 17477" d="M2060.367-196.571,2035.3-208.832a.133.133,0,0,1-.06-.176l.112-.229a.131.131,0,0,1,.176-.06l25.063,12.26a.132.132,0,0,1,.061.176l-.112.23A.132.132,0,0,1,2060.367-196.571Z" transform="translate(-2013.554 231.816)" fill="#a2acc2"/>
          <path id="Trazado_17478" data-name="Trazado 17478" d="M2063.653-197.152l-9.231-4.517a.132.132,0,0,1-.061-.176l.112-.229a.132.132,0,0,1,.176-.06l9.231,4.516a.132.132,0,0,1,.062.176l-.113.229A.132.132,0,0,1,2063.653-197.152Z" transform="translate(-2012.515 232.205)" fill="#a2acc2"/>
          <path id="Trazado_17479" data-name="Trazado 17479" d="M2049.344-209.261l-18.079-8.844a.132.132,0,0,1-.06-.176l.112-.229a.132.132,0,0,1,.176-.061l18.079,8.844a.133.133,0,0,1,.06.176l-.112.23A.133.133,0,0,1,2049.344-209.261Z" transform="translate(-2013.773 231.312)" fill="#a2acc2"/>
          <path id="Trazado_17480" data-name="Trazado 17480" d="M2071.771-209.236l-18.078-8.844a.131.131,0,0,1-.06-.176l.112-.229a.13.13,0,0,1,.176-.06L2072-209.7a.132.132,0,0,1,.061.176l-.112.229A.133.133,0,0,1,2071.771-209.236Z" transform="translate(-2012.554 231.313)" fill="#a2acc2"/>
          <path id="Trazado_17481" data-name="Trazado 17481" d="M2071.675-206.547l-37.169-18.183a.131.131,0,0,1-.061-.175l.113-.23a.132.132,0,0,1,.176-.06l37.169,18.183a.132.132,0,0,1,.062.176l-.113.229A.131.131,0,0,1,2071.675-206.547Z" transform="translate(-2013.597 230.952)" fill="#a2acc2"/>
          <path id="Trazado_17482" data-name="Trazado 17482" d="M2070.451-204.044l-37.17-18.183a.133.133,0,0,1-.06-.176l.112-.229a.133.133,0,0,1,.176-.061l37.17,18.183a.131.131,0,0,1,.06.176l-.112.23A.133.133,0,0,1,2070.451-204.044Z" transform="translate(-2013.663 231.088)" fill="#a2acc2"/>
          <path id="Trazado_17483" data-name="Trazado 17483" d="M2069.443-201.983l-37.17-18.183a.131.131,0,0,1-.06-.176l.112-.229a.133.133,0,0,1,.176-.061l37.17,18.183a.133.133,0,0,1,.06.176l-.112.23A.133.133,0,0,1,2069.443-201.983Z" transform="translate(-2013.718 231.2)" fill="#a2acc2"/>
          <path id="Trazado_17484" data-name="Trazado 17484" d="M2032.556-207a.358.358,0,0,1-.16-.037l-5.277-2.581a.368.368,0,0,1-.186-.21.363.363,0,0,1,.018-.279l2.582-5.277a.365.365,0,0,1,.488-.168l5.277,2.582a.364.364,0,0,1,.167.488l-2.582,5.277a.364.364,0,0,1-.21.186A.372.372,0,0,1,2032.556-207Zm-4.789-3.114,4.621,2.261,2.261-4.621-4.62-2.261Z" transform="translate(-2014.005 231.475)" fill="#a2acc2"/>
          <path id="Trazado_17485" data-name="Trazado 17485" d="M2029.867-209.327a.489.489,0,0,1-.24-.063.488.488,0,0,1-.243-.483,10.013,10.013,0,0,0-.149-3.313.488.488,0,0,1,.375-.578.487.487,0,0,1,.578.375,11.1,11.1,0,0,1,.24,2.564,16.525,16.525,0,0,1,5.875-2.481.485.485,0,0,1,.576.377.486.486,0,0,1-.377.576,15.468,15.468,0,0,0-6.334,2.922A.487.487,0,0,1,2029.867-209.327Z" transform="translate(-2013.88 231.573)" fill="#167377"/>
          <path id="Trazado_17486" data-name="Trazado 17486" d="M2048.773-190.566l-18.079-8.844a.133.133,0,0,1-.06-.176l.112-.23a.133.133,0,0,1,.176-.06L2049-191.032a.132.132,0,0,1,.06.176l-.112.229A.132.132,0,0,1,2048.773-190.566Z" transform="translate(-2013.804 232.328)" fill="#a2acc2"/>
          <path id="Trazado_17487" data-name="Trazado 17487" d="M2056.622-188.916l-25.063-12.261a.132.132,0,0,1-.061-.176l.113-.229a.132.132,0,0,1,.176-.061l25.063,12.261a.133.133,0,0,1,.06.176l-.112.23A.133.133,0,0,1,2056.622-188.916Z" transform="translate(-2013.757 232.232)" fill="#a2acc2"/>
          <path id="Trazado_17488" data-name="Trazado 17488" d="M2028.235-198.165a.362.362,0,0,1-.16-.037l-5.277-2.582a.365.365,0,0,1-.168-.488l2.581-5.277a.366.366,0,0,1,.489-.168l5.277,2.581a.366.366,0,0,1,.167.489l-2.582,5.277A.364.364,0,0,1,2028.235-198.165Zm-4.789-3.115,4.621,2.261,2.26-4.62-4.621-2.262Z" transform="translate(-2014.241 231.955)" fill="#a2acc2"/>
          <path id="Trazado_17489" data-name="Trazado 17489" d="M2025.546-200.494a.487.487,0,0,1-.24-.063.489.489,0,0,1-.244-.484,10.04,10.04,0,0,0-.148-3.312.487.487,0,0,1,.375-.578.487.487,0,0,1,.577.375,11.091,11.091,0,0,1,.24,2.563,16.524,16.524,0,0,1,5.875-2.48.486.486,0,0,1,.576.376.488.488,0,0,1-.376.577,15.464,15.464,0,0,0-6.336,2.922A.491.491,0,0,1,2025.546-200.494Z" transform="translate(-2014.115 232.053)" fill="#167377"/>
          <path id="Trazado_17490" data-name="Trazado 17490" d="M2045.892-184.678l-18.078-8.844a.131.131,0,0,1-.06-.176l.112-.229a.132.132,0,0,1,.176-.061l18.078,8.845a.131.131,0,0,1,.061.175l-.113.23A.132.132,0,0,1,2045.892-184.678Z" transform="translate(-2013.961 232.648)" fill="#a2acc2"/>
          <path id="Trazado_17491" data-name="Trazado 17491" d="M2052.013-179.5l-25.064-12.26a.133.133,0,0,1-.06-.176l.113-.23a.132.132,0,0,1,.175-.06l25.064,12.261a.133.133,0,0,1,.06.176l-.112.229A.131.131,0,0,1,2052.013-179.5Z" transform="translate(-2014.008 232.744)" fill="#a2acc2"/>
          <path id="Trazado_17492" data-name="Trazado 17492" d="M2024.2-189.921a.363.363,0,0,1-.16-.037l-5.277-2.582a.365.365,0,0,1-.168-.488l2.582-5.277a.364.364,0,0,1,.488-.168l5.277,2.581a.365.365,0,0,1,.168.488l-2.581,5.278A.367.367,0,0,1,2024.2-189.921Zm-4.788-3.115,4.621,2.261,2.26-4.621-4.621-2.261Z" transform="translate(-2014.46 232.403)" fill="#a2acc2"/>
          <path id="Trazado_17493" data-name="Trazado 17493" d="M2021.513-192.25a.483.483,0,0,1-.239-.063.487.487,0,0,1-.244-.484,10.068,10.068,0,0,0-.149-3.313.486.486,0,0,1,.375-.577.486.486,0,0,1,.577.375,11.112,11.112,0,0,1,.24,2.563,16.543,16.543,0,0,1,5.875-2.481.487.487,0,0,1,.576.377.487.487,0,0,1-.376.577,15.447,15.447,0,0,0-6.335,2.922A.491.491,0,0,1,2021.513-192.25Z" transform="translate(-2014.334 232.501)" fill="#167377"/>
          <path id="Trazado_17494" data-name="Trazado 17494" d="M2042-176.728l-18.079-8.845a.13.13,0,0,1-.06-.175l.112-.23a.132.132,0,0,1,.176-.06l18.079,8.844a.133.133,0,0,1,.06.176l-.112.229A.133.133,0,0,1,2042-176.728Z" transform="translate(-2014.172 233.08)" fill="#a2acc2"/>
          <path id="Trazado_17495" data-name="Trazado 17495" d="M2040.275-173.2,2022.2-182.04a.131.131,0,0,1-.061-.175l.113-.23a.132.132,0,0,1,.175-.06l18.079,8.844a.132.132,0,0,1,.061.176l-.113.229A.132.132,0,0,1,2040.275-173.2Z" transform="translate(-2014.266 233.272)" fill="#a2acc2"/>
          <path id="Trazado_17496" data-name="Trazado 17496" d="M2048.124-171.545l-25.063-12.261a.132.132,0,0,1-.061-.176l.113-.229a.132.132,0,0,1,.176-.061l25.063,12.261a.132.132,0,0,1,.06.176l-.112.23A.133.133,0,0,1,2048.124-171.545Z" transform="translate(-2014.219 233.176)" fill="#a2acc2"/>
          <path id="Trazado_17497" data-name="Trazado 17497" d="M2020.313-181.972a.355.355,0,0,1-.159-.037l-5.278-2.582a.365.365,0,0,1-.185-.209.366.366,0,0,1,.017-.279l2.582-5.277a.365.365,0,0,1,.488-.168l5.277,2.582a.36.36,0,0,1,.185.209.362.362,0,0,1-.018.279l-2.581,5.277A.364.364,0,0,1,2020.313-181.972Zm-4.788-3.115,4.621,2.261,2.261-4.62-4.621-2.261Z" transform="translate(-2014.671 232.835)" fill="#a2acc2"/>
          <path id="Trazado_17498" data-name="Trazado 17498" d="M2017.624-184.3a.487.487,0,0,1-.239-.063.486.486,0,0,1-.244-.483,10.045,10.045,0,0,0-.149-3.313.487.487,0,0,1,.375-.578.489.489,0,0,1,.578.375,11.149,11.149,0,0,1,.24,2.564,16.491,16.491,0,0,1,5.874-2.481.487.487,0,0,1,.577.377.487.487,0,0,1-.377.576,15.463,15.463,0,0,0-6.336,2.922A.483.483,0,0,1,2017.624-184.3Z" transform="translate(-2014.545 232.933)" fill="#167377"/>
        </g>
        <path id="Trazado_17499" data-name="Trazado 17499" d="M2067.8-219.583a.365.365,0,0,1-.16-.038l-11.486-5.619a.366.366,0,0,1-.168-.488.366.366,0,0,1,.489-.168l11.485,5.619a.365.365,0,0,1,.167.488A.365.365,0,0,1,2067.8-219.583Z" transform="translate(-2006.941 240.12)" fill="#fff"/>
      </g>
      <g id="Grupo_12590" data-name="Grupo 12590" transform="translate(1978.182 -156.078)">
        <g id="Grupo_12589" data-name="Grupo 12589">
          <path id="Trazado_17500" data-name="Trazado 17500" d="M1979.06-143.139c2.224-11.705,6.485-18.97,11.592-18.647.13.007,13.372,12.451,47.624,20.826l1.839.421.025,0c2.693.511,4.218,4.386,3.407,8.654s-3.651,7.313-6.344,6.8c-.213-.04-28.421-2.627-49.314,5.05a6.135,6.135,0,0,1-1.717.652h0a4.492,4.492,0,0,1-1.758.031C1979.15-120.349,1976.753-131,1979.06-143.139Z" transform="translate(-1978.182 161.832)" fill="url(#linear-gradient-2)"/>
          <path id="Trazado_17501" data-name="Trazado 17501" d="M1985.754-119.182a.061.061,0,0,1-.06-.05.061.061,0,0,1,.048-.072c.013,0,1.324-.285,2.98-2.671,1.53-2.206,3.672-6.708,5.191-15.632s.483-15.02-.656-18.549a15.678,15.678,0,0,0-2.862-5.571.061.061,0,0,1,0-.086.062.062,0,0,1,.087,0,15.8,15.8,0,0,1,2.885,5.608c1.144,3.544,2.188,9.649.662,18.618s-3.683,13.487-5.225,15.7c-1.682,2.413-2.987,2.69-3.042,2.7Z" transform="translate(-1977.774 161.83)" fill="#282233"/>
          <path id="Trazado_17502" data-name="Trazado 17502" d="M1992.184-130.442a.06.06,0,0,1-.033-.008c-.065-.041-6.555-4.152-5.4-10.925s7.748-8.5,7.814-8.521a.06.06,0,0,1,.074.044.061.061,0,0,1-.044.074c-.065.017-6.584,1.731-7.723,8.423s5.283,10.761,5.348,10.8a.062.062,0,0,1,.02.084A.06.06,0,0,1,1992.184-130.442Z" transform="translate(-1977.724 162.478)" fill="#282233"/>
          <path id="Trazado_17503" data-name="Trazado 17503" d="M2030.5-143.269c1.625.442,3.288.877,5.019,1.3l1.84.421.024,0c2.693.511,4.219,4.386,3.408,8.654s-3.651,7.313-6.344,6.8c-.058-.011-2.173-.209-5.639-.338A27.544,27.544,0,0,0,2030.5-143.269Z" transform="translate(-1975.43 162.839)" fill="#12263f"/>
        </g>
        <path id="Trazado_17504" data-name="Trazado 17504" d="M2013.115-127.335a45.194,45.194,0,0,1-6.065,19.3,3.2,3.2,0,0,0,1.518,4.653l3.584,1.458a5.145,5.145,0,0,0,6.455-2.315c2.329-4.262,5.384-12.086,5.355-23.77Z" transform="translate(-1976.639 163.668)" fill="url(#linear-gradient-2)"/>
      </g>
      <g id="Grupo_12593" data-name="Grupo 12593" transform="translate(2227.852 -112.745)">
        <path id="Trazado_17505" data-name="Trazado 17505" d="M2234.232-106.574a10.06,10.06,0,0,0-5.094-13.284,10.061,10.061,0,0,0-13.285,5.094,10.06,10.06,0,0,0,5.095,13.285A10.06,10.06,0,0,0,2234.232-106.574Z" transform="translate(-2214.98 120.732)" fill="#167377"/>
        <path id="Trazado_17506" data-name="Trazado 17506" d="M2224.968-101.87a8.822,8.822,0,0,1-3.593-.767,8.8,8.8,0,0,1-4.667-4.922,8.808,8.808,0,0,1,.179-6.78,8.872,8.872,0,0,1,11.7-4.486,8.8,8.8,0,0,1,4.668,4.921,8.807,8.807,0,0,1-.18,6.779A8.874,8.874,0,0,1,2224.968-101.87Zm.025-17.478a8.63,8.63,0,0,0-7.883,5.109,8.567,8.567,0,0,0-.175,6.593,8.56,8.56,0,0,0,4.539,4.786,8.557,8.557,0,0,0,6.593.175,8.56,8.56,0,0,0,4.786-4.538,8.559,8.559,0,0,0,.175-6.593,8.558,8.558,0,0,0-4.538-4.786A8.581,8.581,0,0,0,2224.993-119.348Z" transform="translate(-2214.918 120.794)" fill="#282233"/>
        <g id="Grupo_12592" data-name="Grupo 12592" transform="translate(4.955 2.64)">
          <g id="Grupo_12591" data-name="Grupo 12591">
            <path id="Trazado_17507" data-name="Trazado 17507" d="M2222.266-104.21a.138.138,0,0,1-.05-.009l-1.026-.458a.121.121,0,0,1-.062-.16l.685-1.537a5.245,5.245,0,0,1-2.117-1.824.121.121,0,0,1,.017-.145l.877-.916a.114.114,0,0,1,.1-.037.121.121,0,0,1,.092.056,4.609,4.609,0,0,0,1.979,1.7,1.76,1.76,0,0,0,2.488-.671c.354-.793.077-1.553-.953-2.623-1.181-1.2-2.175-2.533-1.455-4.149a3.026,3.026,0,0,1,3.669-1.618l.691-1.551a.126.126,0,0,1,.067-.064.121.121,0,0,1,.094,0l1.009.45a.119.119,0,0,1,.064.067.122.122,0,0,1,0,.093l-.657,1.473a4.844,4.844,0,0,1,1.8,1.5.123.123,0,0,1-.011.157l-.887.893a.119.119,0,0,1-.095.036.125.125,0,0,1-.09-.05,4.165,4.165,0,0,0-1.756-1.429c-1.191-.532-1.924-.025-2.189.569-.324.725-.051,1.338,1.169,2.623,1.487,1.55,1.851,2.818,1.218,4.237a3.217,3.217,0,0,1-3.847,1.715l-.713,1.6A.122.122,0,0,1,2222.266-104.21Zm-.865-.64.8.358.706-1.583a.121.121,0,0,1,.141-.069,2.992,2.992,0,0,0,3.664-1.553c.594-1.333.255-2.483-1.173-3.971-1.153-1.217-1.63-1.959-1.215-2.89a1.748,1.748,0,0,1,2.51-.693,4.383,4.383,0,0,1,1.769,1.393l.713-.719a4.7,4.7,0,0,0-1.757-1.392.123.123,0,0,1-.058-.159l.655-1.468-.788-.351-.683,1.533a.12.12,0,0,1-.141.069,2.813,2.813,0,0,0-3.486,1.457c-.624,1.4.111,2.564,1.407,3.88,1.1,1.14,1.4,2,1,2.892a1.991,1.991,0,0,1-2.81.794,4.883,4.883,0,0,1-2-1.662l-.707.739a5.147,5.147,0,0,0,2.071,1.7.122.122,0,0,1,.06.16Z" transform="translate(-2219.68 118.228)" fill="#282233"/>
          </g>
        </g>
        <path id="Trazado_17508" data-name="Trazado 17508" d="M2228.154-118.463a.116.116,0,0,1-.049-.011.122.122,0,0,1-.062-.161l.487-1.089a.122.122,0,0,1,.161-.061.121.121,0,0,1,.062.16l-.488,1.09A.122.122,0,0,1,2228.154-118.463Z" transform="translate(-2214.271 120.782)" fill="#282233"/>
        <path id="Trazado_17509" data-name="Trazado 17509" d="M2228.749-118.139a.126.126,0,0,1-.061-.016.124.124,0,0,1-.045-.167l.623-1.091a.124.124,0,0,1,.167-.045.124.124,0,0,1,.045.167l-.624,1.091A.121.121,0,0,1,2228.749-118.139Z" transform="translate(-2214.239 120.8)" fill="#282233"/>
        <path id="Trazado_17510" data-name="Trazado 17510" d="M2230.919-116.3a.119.119,0,0,1-.095-.046.122.122,0,0,1,.02-.172l1.041-.816a.122.122,0,0,1,.171.021.121.121,0,0,1-.021.171l-1.039.816A.123.123,0,0,1,2230.919-116.3Z" transform="translate(-2214.121 120.915)" fill="#282233"/>
        <path id="Trazado_17511" data-name="Trazado 17511" d="M2231.479-115.545a.124.124,0,0,1-.1-.06.122.122,0,0,1,.042-.167l1.138-.674a.122.122,0,0,1,.168.042.122.122,0,0,1-.043.167l-1.138.675A.122.122,0,0,1,2231.479-115.545Z" transform="translate(-2214.09 120.964)" fill="#282233"/>
        <path id="Trazado_17512" data-name="Trazado 17512" d="M2231.927-114.788a.122.122,0,0,1-.116-.084.121.121,0,0,1,.077-.153l.79-.26a.121.121,0,0,1,.153.077.12.12,0,0,1-.077.154l-.789.26A.12.12,0,0,1,2231.927-114.788Z" transform="translate(-2214.065 121.027)" fill="#282233"/>
        <path id="Trazado_17513" data-name="Trazado 17513" d="M2222.975-119.151a.121.121,0,0,1-.116-.085l-.287-.927a.121.121,0,0,1,.08-.152.12.12,0,0,1,.152.08l.287.927a.121.121,0,0,1-.08.152A.106.106,0,0,1,2222.975-119.151Z" transform="translate(-2214.568 120.754)" fill="#282233"/>
        <path id="Trazado_17514" data-name="Trazado 17514" d="M2222.241-118.956a.121.121,0,0,1-.113-.076l-.48-1.2a.124.124,0,0,1,.068-.159.123.123,0,0,1,.158.069l.479,1.2a.121.121,0,0,1-.067.158A.137.137,0,0,1,2222.241-118.956Z" transform="translate(-2214.618 120.75)" fill="#282233"/>
        <path id="Trazado_17515" data-name="Trazado 17515" d="M2218.94-117.089a.125.125,0,0,1-.09-.039l-.894-.973a.121.121,0,0,1,.007-.172.122.122,0,0,1,.172.007l.894.972a.122.122,0,0,1-.007.173A.121.121,0,0,1,2218.94-117.089Z" transform="translate(-2214.82 120.864)" fill="#282233"/>
        <path id="Trazado_17516" data-name="Trazado 17516" d="M2218.438-116.582a.121.121,0,0,1-.076-.026l-1.033-.828a.121.121,0,0,1-.019-.171.122.122,0,0,1,.171-.019l1.033.828a.121.121,0,0,1,.019.171A.121.121,0,0,1,2218.438-116.582Z" transform="translate(-2214.855 120.899)" fill="#282233"/>
        <path id="Trazado_17517" data-name="Trazado 17517" d="M2232.815-110.749a.121.121,0,0,1-.12-.106.121.121,0,0,1,.105-.136l1.326-.171a.122.122,0,0,1,.136.105.122.122,0,0,1-.106.136l-1.326.171Z" transform="translate(-2214.018 121.252)" fill="#282233"/>
        <path id="Trazado_17518" data-name="Trazado 17518" d="M2233.6-109.447a.143.143,0,0,1-.03,0l-.9-.228a.12.12,0,0,1-.087-.148.12.12,0,0,1,.148-.088l.894.227a.123.123,0,0,1,.089.149A.121.121,0,0,1,2233.6-109.447Z" transform="translate(-2214.023 121.319)" fill="#282233"/>
        <path id="Trazado_17519" data-name="Trazado 17519" d="M2233.789-108.487a.132.132,0,0,1-.034-.005l-1.233-.354a.121.121,0,0,1-.083-.151.121.121,0,0,1,.15-.083l1.235.354a.122.122,0,0,1,.083.151A.121.121,0,0,1,2233.789-108.487Z" transform="translate(-2214.032 121.365)" fill="#282233"/>
        <path id="Trazado_17520" data-name="Trazado 17520" d="M2229-102.549a.121.121,0,0,1-.105-.061l-.662-1.146a.121.121,0,0,1,.044-.166.122.122,0,0,1,.167.044l.662,1.145a.121.121,0,0,1-.045.167A.122.122,0,0,1,2229-102.549Z" transform="translate(-2214.261 121.644)" fill="#282233"/>
        <path id="Trazado_17521" data-name="Trazado 17521" d="M2227.8-102.024a.12.12,0,0,1-.117-.089l-.363-1.274a.122.122,0,0,1,.083-.151.121.121,0,0,1,.151.084l.363,1.274a.123.123,0,0,1-.084.151A.112.112,0,0,1,2227.8-102.024Z" transform="translate(-2214.31 121.666)" fill="#282233"/>
        <path id="Trazado_17522" data-name="Trazado 17522" d="M2218.921-103.816a.12.12,0,0,1-.089-.04.122.122,0,0,1,.008-.172l.674-.608a.121.121,0,0,1,.172.008.122.122,0,0,1-.008.172l-.674.608A.122.122,0,0,1,2218.921-103.816Z" transform="translate(-2214.773 121.605)" fill="#282233"/>
        <path id="Trazado_17523" data-name="Trazado 17523" d="M2217.083-105.3a.12.12,0,0,1-.1-.047.122.122,0,0,1,.022-.171l.919-.706a.121.121,0,0,1,.171.022.123.123,0,0,1-.022.171l-.919.706A.123.123,0,0,1,2217.083-105.3Z" transform="translate(-2214.873 121.519)" fill="#282233"/>
      </g>
      <g id="Grupo_12596" data-name="Grupo 12596" transform="translate(1987.036 -83.584)">
        <circle id="Elipse_655" data-name="Elipse 655" cx="10.06" cy="10.06" r="10.06" transform="translate(0 1.636) rotate(-4.663)" fill="#167377"/>
        <path id="Trazado_17524" data-name="Trazado 17524" d="M1997.315-73.475a8.827,8.827,0,0,1-5.729-2.1,8.872,8.872,0,0,1-1.019-12.49,8.8,8.8,0,0,1,6.034-3.1,8.8,8.8,0,0,1,6.456,2.077,8.8,8.8,0,0,1,3.1,6.034,8.807,8.807,0,0,1-2.078,6.456A8.843,8.843,0,0,1,1997.315-73.475Zm.021-17.475q-.356,0-.715.03a8.563,8.563,0,0,0-5.869,3.01,8.567,8.567,0,0,0-2.02,6.279,8.565,8.565,0,0,0,3.011,5.869,8.626,8.626,0,0,0,12.146-.991,8.563,8.563,0,0,0,2.021-6.279A8.565,8.565,0,0,0,2002.9-88.9h0A8.553,8.553,0,0,0,1997.336-90.949Z" transform="translate(-1986.477 93.176)" fill="#282233"/>
        <g id="Grupo_12595" data-name="Grupo 12595" transform="translate(4.425 5.163)">
          <g id="Grupo_12594" data-name="Grupo 12594">
            <path id="Trazado_17525" data-name="Trazado 17525" d="M1998.238-76.873a.123.123,0,0,1-.105-.06l-.634-1.1a.125.125,0,0,1-.007-.106.126.126,0,0,1,.08-.072,4.62,4.62,0,0,0,2.187-1.422,2.245,2.245,0,0,0,.589-1.411,1.466,1.466,0,0,0-.535-1.165c-.662-.562-1.469-.511-2.786.177-1.482.8-3.041,1.376-4.39.231a3.027,3.027,0,0,1-.523-3.976l-1.295-1.1a.122.122,0,0,1-.042-.082.119.119,0,0,1,.029-.089l.716-.842a.12.12,0,0,1,.171-.014l1.229,1.043a4.847,4.847,0,0,1,1.945-1.308.12.12,0,0,1,.146.056l.609,1.1a.129.129,0,0,1,.008.1.122.122,0,0,1-.073.071,4.189,4.189,0,0,0-1.865,1.285c-.845.994-.564,1.84-.069,2.261.605.515,1.271.424,2.846-.385,1.906-.991,3.225-.985,4.41.021a3.214,3.214,0,0,1,.564,4.174l1.336,1.134a.122.122,0,0,1,.014.171l-.727.857a.121.121,0,0,1-.171.014l-1.282-1.089a5.255,5.255,0,0,1-2.346,1.52A.132.132,0,0,1,1998.238-76.873Zm-.451-1.149.51.886a5.137,5.137,0,0,0,2.213-1.51.121.121,0,0,1,.17-.012l1.28,1.086.569-.671-1.32-1.122a.122.122,0,0,1-.025-.155,2.994,2.994,0,0,0-.462-3.953c-1.112-.945-2.311-.942-4.14.009-1.491.765-2.338,1.014-3.115.354a1.748,1.748,0,0,1,.04-2.6,4.4,4.4,0,0,1,1.833-1.306l-.489-.886a4.706,4.706,0,0,0-1.829,1.295.122.122,0,0,1-.169.011l-1.225-1.041-.558.657,1.279,1.087a.12.12,0,0,1,.027.155,2.813,2.813,0,0,0,.42,3.755c1.168.992,2.491.614,4.118-.26,1.4-.733,2.316-.777,3.058-.148a1.725,1.725,0,0,1,.62,1.353,2.479,2.479,0,0,1-.647,1.566A4.878,4.878,0,0,1,1997.786-78.022Z" transform="translate(-1990.776 88.177)" fill="#282233"/>
          </g>
        </g>
        <path id="Trazado_17526" data-name="Trazado 17526" d="M1990.777-88.194a.126.126,0,0,1-.079-.028l-.909-.774a.123.123,0,0,1-.013-.172.121.121,0,0,1,.172-.014l.908.774a.122.122,0,0,1,.014.172A.124.124,0,0,1,1990.777-88.194Z" transform="translate(-1986.407 93.284)" fill="#282233"/>
        <path id="Trazado_17527" data-name="Trazado 17527" d="M1991.253-88.667a.119.119,0,0,1-.087-.037l-.873-.9a.123.123,0,0,1,0-.173.124.124,0,0,1,.173,0l.872.9a.122.122,0,0,1,0,.172A.118.118,0,0,1,1991.253-88.667Z" transform="translate(-1986.38 93.251)" fill="#282233"/>
        <path id="Trazado_17528" data-name="Trazado 17528" d="M1993.622-90.212a.121.121,0,0,1-.113-.077l-.492-1.227a.123.123,0,0,1,.069-.158.122.122,0,0,1,.158.067l.49,1.227a.121.121,0,0,1-.068.158A.116.116,0,0,1,1993.622-90.212Z" transform="translate(-1986.229 93.15)" fill="#282233"/>
        <path id="Trazado_17529" data-name="Trazado 17529" d="M1994.5-90.532a.122.122,0,0,1-.118-.092l-.328-1.282a.123.123,0,0,1,.089-.148.122.122,0,0,1,.147.088l.327,1.282a.121.121,0,0,1-.087.148A.1.1,0,0,1,1994.5-90.532Z" transform="translate(-1986.173 93.129)" fill="#282233"/>
        <path id="Trazado_17530" data-name="Trazado 17530" d="M1995.36-90.767a.121.121,0,0,1-.121-.118l-.028-.83a.122.122,0,0,1,.117-.125.123.123,0,0,1,.126.118l.027.83a.12.12,0,0,1-.117.125Z" transform="translate(-1986.11 93.141)" fill="#282233"/>
        <path id="Trazado_17531" data-name="Trazado 17531" d="M1987.7-83.424a.122.122,0,0,1-.122-.12.122.122,0,0,1,.12-.123l.969-.016a.126.126,0,0,1,.125.12.122.122,0,0,1-.12.123l-.969.016Z" transform="translate(-1986.525 93.584)" fill="#282233"/>
        <path id="Trazado_17532" data-name="Trazado 17532" d="M1987.361-82.552a.123.123,0,0,1-.121-.111.123.123,0,0,1,.11-.133l1.288-.122a.121.121,0,0,1,.133.11.121.121,0,0,1-.11.133l-1.288.122Z" transform="translate(-1986.543 93.626)" fill="#282233"/>
        <path id="Trazado_17533" data-name="Trazado 17533" d="M1988.329-78.373a.122.122,0,0,1-.109-.069.12.12,0,0,1,.055-.162l1.185-.585a.121.121,0,0,1,.162.055.122.122,0,0,1-.055.163l-1.185.585A.122.122,0,0,1,1988.329-78.373Z" transform="translate(-1986.491 93.828)" fill="#282233"/>
        <path id="Trazado_17534" data-name="Trazado 17534" d="M1988.776-77.566a.123.123,0,0,1-.1-.052.123.123,0,0,1,.03-.17l1.084-.759a.121.121,0,0,1,.169.03.121.121,0,0,1-.029.17l-1.085.759A.114.114,0,0,1,1988.776-77.566Z" transform="translate(-1986.466 93.862)" fill="#282233"/>
        <path id="Trazado_17535" data-name="Trazado 17535" d="M1999.489-90.458h-.019a.122.122,0,0,1-.1-.14l.209-1.32a.122.122,0,0,1,.139-.1.122.122,0,0,1,.1.139l-.209,1.321A.121.121,0,0,1,1999.489-90.458Z" transform="translate(-1985.884 93.131)" fill="#282233"/>
        <path id="Trazado_17536" data-name="Trazado 17536" d="M2000.5-90.074a.122.122,0,0,1-.062-.017.12.12,0,0,1-.042-.167l.469-.795a.122.122,0,0,1,.167-.043.122.122,0,0,1,.043.167l-.469.795A.122.122,0,0,1,2000.5-90.074Z" transform="translate(-1985.829 93.181)" fill="#282233"/>
        <path id="Trazado_17537" data-name="Trazado 17537" d="M2001.254-89.682a.123.123,0,0,1-.065-.019.121.121,0,0,1-.038-.168l.688-1.086a.122.122,0,0,1,.169-.037.122.122,0,0,1,.037.168l-.686,1.085A.123.123,0,0,1,2001.254-89.682Z" transform="translate(-1985.788 93.186)" fill="#282233"/>
        <path id="Trazado_17538" data-name="Trazado 17538" d="M2005.007-84.224a.123.123,0,0,1-.118-.093.122.122,0,0,1,.09-.148l1.285-.314a.122.122,0,0,1,.147.09.122.122,0,0,1-.089.148l-1.285.313A.142.142,0,0,1,2005.007-84.224Z" transform="translate(-1985.584 93.525)" fill="#282233"/>
        <path id="Trazado_17539" data-name="Trazado 17539" d="M2006.462-83.26h0l-1.324-.009a.123.123,0,0,1-.121-.123.122.122,0,0,1,.122-.12h0l1.325.011a.121.121,0,0,1,.12.122A.121.121,0,0,1,2006.462-83.26Z" transform="translate(-1985.577 93.594)" fill="#282233"/>
        <path id="Trazado_17540" data-name="Trazado 17540" d="M2002.238-75.208a.121.121,0,0,1-.11-.069l-.394-.818a.121.121,0,0,1,.057-.162.121.121,0,0,1,.162.057l.394.817a.122.122,0,0,1-.056.163A.14.14,0,0,1,2002.238-75.208Z" transform="translate(-1985.756 93.987)" fill="#282233"/>
        <path id="Trazado_17541" data-name="Trazado 17541" d="M2000.29-73.85a.121.121,0,0,1-.113-.078l-.421-1.081a.122.122,0,0,1,.07-.158.122.122,0,0,1,.157.07l.421,1.081a.122.122,0,0,1-.07.158A.127.127,0,0,1,2000.29-73.85Z" transform="translate(-1985.863 94.047)" fill="#282233"/>
      </g>
      <g id="Grupo_12599" data-name="Grupo 12599" transform="translate(2001.472 -224.943)">
        <path id="Trazado_17542" data-name="Trazado 17542" d="M2013.179-219.1a6.542,6.542,0,0,0-4.86-7.872,6.541,6.541,0,0,0-7.872,4.86,6.541,6.541,0,0,0,4.859,7.872A6.541,6.541,0,0,0,2013.179-219.1Z" transform="translate(-2000.271 227.145)" fill="#167377"/>
        <path id="Trazado_17543" data-name="Trazado 17543" d="M2006.787-214.833a5.88,5.88,0,0,1-1.348-.158,5.813,5.813,0,0,1-4.312-6.985,5.812,5.812,0,0,1,6.985-4.312,5.812,5.812,0,0,1,4.312,6.985h0a5.77,5.77,0,0,1-2.6,3.6A5.776,5.776,0,0,1,2006.787-214.833Zm-.012-11.368a5.57,5.57,0,0,0-5.411,4.282,5.567,5.567,0,0,0,4.132,6.691,5.519,5.519,0,0,0,4.2-.68,5.524,5.524,0,0,0,2.49-3.451h0a5.568,5.568,0,0,0-4.132-6.692A5.558,5.558,0,0,0,2006.775-226.2Zm5.53,6.869h0Z" transform="translate(-2000.233 227.183)" fill="#282233"/>
        <g id="Grupo_12598" data-name="Grupo 12598" transform="translate(3.543 1.451)">
          <g id="Grupo_12597" data-name="Grupo 12597">
            <path id="Trazado_17544" data-name="Trazado 17544" d="M2005.8-216.114a.132.132,0,0,1-.029,0l-.711-.169a.121.121,0,0,1-.09-.147l.241-1.024a3.45,3.45,0,0,1-1.554-.912.122.122,0,0,1-.01-.147l.449-.692a.125.125,0,0,1,.092-.055.122.122,0,0,1,.1.039,2.964,2.964,0,0,0,1.449.833,1.106,1.106,0,0,0,1.458-.7c.125-.53-.138-.969-.91-1.517-.911-.632-1.718-1.374-1.448-2.519a2.006,2.006,0,0,1,2.157-1.512l.246-1.041a.116.116,0,0,1,.055-.075.113.113,0,0,1,.092-.015l.7.164a.123.123,0,0,1,.091.147l-.232.982a3.16,3.16,0,0,1,1.312.739.12.12,0,0,1,.017.156l-.458.677a.122.122,0,0,1-.087.054.125.125,0,0,1-.1-.033,2.685,2.685,0,0,0-1.276-.691,1.209,1.209,0,0,0-.907.083.813.813,0,0,0-.372.515c-.115.487.12.821,1.048,1.49,1.154.822,1.545,1.6,1.307,2.6a2.123,2.123,0,0,1-2.26,1.6l-.254,1.074a.119.119,0,0,1-.055.076A.121.121,0,0,1,2005.8-216.114Zm-.564-.381.474.112.25-1.054a.119.119,0,0,1,.126-.094,1.888,1.888,0,0,0,2.109-1.4c.214-.9-.137-1.585-1.213-2.35-.88-.636-1.3-1.08-1.142-1.744a1.049,1.049,0,0,1,.483-.666,1.438,1.438,0,0,1,1.088-.112,2.882,2.882,0,0,1,1.281.654l.321-.474a3.027,3.027,0,0,0-1.245-.643.122.122,0,0,1-.087-.145l.231-.975-.463-.11-.241,1.021a.119.119,0,0,1-.126.093,1.787,1.787,0,0,0-2.006,1.32c-.194.821.185,1.456,1.351,2.264.856.608,1.157,1.138,1.006,1.772a1.334,1.334,0,0,1-1.75.878,3.217,3.217,0,0,1-1.461-.795l-.315.486a3.394,3.394,0,0,0,1.484.8.122.122,0,0,1,.089.146Z" transform="translate(-2003.631 225.769)" fill="#282233"/>
          </g>
        </g>
        <path id="Trazado_17545" data-name="Trazado 17545" d="M2007.9-225.977a.128.128,0,0,1-.028,0,.121.121,0,0,1-.09-.147l.179-.755a.122.122,0,0,1,.147-.091.122.122,0,0,1,.091.147l-.18.755A.121.121,0,0,1,2007.9-225.977Z" transform="translate(-1999.863 227.154)" fill="#282233"/>
        <path id="Trazado_17546" data-name="Trazado 17546" d="M2008.315-225.841a.14.14,0,0,1-.04-.006.122.122,0,0,1-.075-.155l.266-.773a.122.122,0,0,1,.155-.075.121.121,0,0,1,.075.154l-.266.773A.12.12,0,0,1,2008.315-225.841Z" transform="translate(-1999.84 227.161)" fill="#282233"/>
        <path id="Trazado_17547" data-name="Trazado 17547" d="M2009.926-224.926a.122.122,0,0,1-.08-.03.122.122,0,0,1-.011-.172l.566-.647a.123.123,0,0,1,.172-.012.122.122,0,0,1,.012.172l-.566.647A.122.122,0,0,1,2009.926-224.926Z" transform="translate(-1999.753 227.217)" fill="#282233"/>
        <path id="Trazado_17548" data-name="Trazado 17548" d="M2010.376-224.51a.121.121,0,0,1-.092-.041.121.121,0,0,1,.01-.172l.646-.568a.12.12,0,0,1,.171.012.12.12,0,0,1-.01.172l-.645.568A.122.122,0,0,1,2010.376-224.51Z" transform="translate(-1999.728 227.244)" fill="#282233"/>
        <path id="Trazado_17549" data-name="Trazado 17549" d="M2010.756-224.083a.12.12,0,0,1-.106-.062.121.121,0,0,1,.047-.166l.472-.261a.121.121,0,0,1,.166.047.122.122,0,0,1-.049.166l-.472.261A.113.113,0,0,1,2010.756-224.083Z" transform="translate(-1999.708 227.284)" fill="#282233"/>
        <path id="Trazado_17550" data-name="Trazado 17550" d="M2004.51-225.793a.122.122,0,0,1-.108-.064l-.295-.558a.122.122,0,0,1,.051-.164.123.123,0,0,1,.165.051l.295.557a.122.122,0,0,1-.05.165A.126.126,0,0,1,2004.51-225.793Z" transform="translate(-2000.063 227.175)" fill="#282233"/>
        <path id="Trazado_17551" data-name="Trazado 17551" d="M2004.065-225.58a.122.122,0,0,1-.1-.056l-.452-.711a.121.121,0,0,1,.037-.168.123.123,0,0,1,.168.037l.451.711a.12.12,0,0,1-.037.168A.123.123,0,0,1,2004.065-225.58Z" transform="translate(-2000.096 227.178)" fill="#282233"/>
        <path id="Trazado_17552" data-name="Trazado 17552" d="M2002.182-223.988a.121.121,0,0,1-.072-.024l-.689-.513a.121.121,0,0,1-.025-.17.122.122,0,0,1,.171-.025l.689.513a.121.121,0,0,1,.024.17A.121.121,0,0,1,2002.182-223.988Z" transform="translate(-2000.211 227.276)" fill="#282233"/>
        <path id="Trazado_17553" data-name="Trazado 17553" d="M2001.923-223.6a.127.127,0,0,1-.058-.015l-.76-.4a.121.121,0,0,1-.05-.164.122.122,0,0,1,.164-.051l.76.4a.122.122,0,0,1,.051.165A.121.121,0,0,1,2001.923-223.6Z" transform="translate(-2000.229 227.302)" fill="#282233"/>
        <path id="Trazado_17554" data-name="Trazado 17554" d="M2011.812-221.606a.123.123,0,0,1-.116-.084.123.123,0,0,1,.078-.154l.828-.269a.122.122,0,0,1,.153.078.122.122,0,0,1-.078.154l-.826.269A.12.12,0,0,1,2011.812-221.606Z" transform="translate(-1999.65 227.418)" fill="#282233"/>
        <path id="Trazado_17555" data-name="Trazado 17555" d="M2012.472-220.877h-.009l-.6-.037a.123.123,0,0,1-.114-.13.12.12,0,0,1,.13-.114l.6.037a.122.122,0,0,1,.114.13A.122.122,0,0,1,2012.472-220.877Z" transform="translate(-1999.647 227.471)" fill="#282233"/>
        <path id="Trazado_17556" data-name="Trazado 17556" d="M2012.709-220.287h-.011l-.831-.077a.122.122,0,0,1-.111-.133.123.123,0,0,1,.133-.11l.831.077a.122.122,0,0,1,.111.133A.121.121,0,0,1,2012.709-220.287Z" transform="translate(-1999.646 227.5)" fill="#282233"/>
        <path id="Trazado_17557" data-name="Trazado 17557" d="M2010.364-215.914a.124.124,0,0,1-.093-.042l-.561-.653a.12.12,0,0,1,.013-.171.122.122,0,0,1,.172.013l.561.652a.122.122,0,0,1-.012.172A.126.126,0,0,1,2010.364-215.914Z" transform="translate(-1999.759 227.707)" fill="#282233"/>
        <path id="Trazado_17558" data-name="Trazado 17558" d="M2009.664-215.434a.12.12,0,0,1-.108-.067l-.386-.77a.122.122,0,0,1,.055-.163.123.123,0,0,1,.163.055l.385.77a.121.121,0,0,1-.054.163A.13.13,0,0,1,2009.664-215.434Z" transform="translate(-1999.788 227.727)" fill="#282233"/>
        <path id="Trazado_17559" data-name="Trazado 17559" d="M2003.77-215.5a.131.131,0,0,1-.074-.024.123.123,0,0,1-.023-.171l.357-.47a.121.121,0,0,1,.171-.023.12.12,0,0,1,.023.17l-.357.47A.12.12,0,0,1,2003.77-215.5Z" transform="translate(-2000.087 227.739)" fill="#282233"/>
        <path id="Trazado_17560" data-name="Trazado 17560" d="M2002.416-216.228a.118.118,0,0,1-.081-.031.121.121,0,0,1-.01-.172l.5-.563A.122.122,0,0,1,2003-217a.123.123,0,0,1,.01.172l-.5.563A.122.122,0,0,1,2002.416-216.228Z" transform="translate(-2000.161 227.695)" fill="#282233"/>
      </g>
      <g id="Grupo_12602" data-name="Grupo 12602" transform="translate(2164.091 -225.674)">
        <path id="Trazado_17561" data-name="Trazado 17561" d="M2167.416-219.789a6.541,6.541,0,0,0-4.861-7.872,6.541,6.541,0,0,0-7.872,4.861,6.542,6.542,0,0,0,4.86,7.872A6.542,6.542,0,0,0,2167.416-219.789Z" transform="translate(-2154.506 227.838)" fill="#167377"/>
        <path id="Trazado_17562" data-name="Trazado 17562" d="M2161.023-215.526a5.863,5.863,0,0,1-1.347-.158,5.811,5.811,0,0,1-4.312-6.984,5.811,5.811,0,0,1,6.984-4.312,5.809,5.809,0,0,1,4.313,6.984h0a5.767,5.767,0,0,1-2.6,3.6A5.758,5.758,0,0,1,2161.023-215.526Zm-.012-11.368a5.57,5.57,0,0,0-5.411,4.282,5.566,5.566,0,0,0,4.131,6.691,5.521,5.521,0,0,0,4.2-.679,5.53,5.53,0,0,0,2.49-3.452h0a5.569,5.569,0,0,0-4.132-6.692A5.556,5.556,0,0,0,2161.011-226.894Zm5.53,6.869h0Z" transform="translate(-2154.468 227.876)" fill="#282233"/>
        <g id="Grupo_12601" data-name="Grupo 12601" transform="translate(3.543 1.451)">
          <g id="Grupo_12600" data-name="Grupo 12600">
            <path id="Trazado_17563" data-name="Trazado 17563" d="M2160.038-216.807a.128.128,0,0,1-.027,0l-.71-.168a.123.123,0,0,1-.091-.147l.243-1.025a3.45,3.45,0,0,1-1.555-.911.12.12,0,0,1-.01-.147l.449-.692a.12.12,0,0,1,.091-.055.119.119,0,0,1,.1.038,2.955,2.955,0,0,0,1.448.834,1.107,1.107,0,0,0,1.458-.7c.124-.529-.139-.969-.91-1.516-.911-.632-1.718-1.375-1.448-2.519a2.005,2.005,0,0,1,2.156-1.513l.247-1.04a.118.118,0,0,1,.054-.076.118.118,0,0,1,.093-.015l.7.166a.123.123,0,0,1,.091.147l-.232.981a3.176,3.176,0,0,1,1.312.739.123.123,0,0,1,.017.156l-.459.678a.12.12,0,0,1-.086.053.119.119,0,0,1-.1-.033,2.687,2.687,0,0,0-1.276-.69,1.208,1.208,0,0,0-.908.083.811.811,0,0,0-.371.513c-.115.487.12.821,1.047,1.49,1.155.822,1.545,1.6,1.308,2.605a2.124,2.124,0,0,1-2.258,1.594l-.254,1.074a.123.123,0,0,1-.055.076A.123.123,0,0,1,2160.038-216.807Zm-.564-.381.474.113.249-1.055a.12.12,0,0,1,.128-.093,1.891,1.891,0,0,0,2.109-1.4c.214-.9-.138-1.585-1.212-2.351-.882-.635-1.3-1.079-1.143-1.744a1.054,1.054,0,0,1,.483-.666,1.44,1.44,0,0,1,1.089-.112,2.911,2.911,0,0,1,1.281.654l.321-.474a3.05,3.05,0,0,0-1.246-.643.121.121,0,0,1-.086-.145l.23-.975-.462-.11-.241,1.021a.123.123,0,0,1-.127.094,1.784,1.784,0,0,0-2.005,1.32c-.194.82.185,1.455,1.351,2.264.855.607,1.155,1.137,1.006,1.771a1.333,1.333,0,0,1-1.75.878,3.228,3.228,0,0,1-1.462-.794l-.315.485a3.391,3.391,0,0,0,1.484.8.121.121,0,0,1,.089.146Z" transform="translate(-2157.866 226.462)" fill="#282233"/>
          </g>
        </g>
        <path id="Trazado_17564" data-name="Trazado 17564" d="M2162.132-226.669a.13.13,0,0,1-.028,0,.122.122,0,0,1-.091-.147l.18-.755a.122.122,0,0,1,.147-.091.123.123,0,0,1,.091.147l-.18.756A.122.122,0,0,1,2162.132-226.669Z" transform="translate(-2154.098 227.847)" fill="#282233"/>
        <path id="Trazado_17565" data-name="Trazado 17565" d="M2162.551-226.534a.136.136,0,0,1-.04-.006.122.122,0,0,1-.075-.155l.266-.772a.122.122,0,0,1,.155-.076.122.122,0,0,1,.075.155l-.266.773A.123.123,0,0,1,2162.551-226.534Z" transform="translate(-2154.075 227.854)" fill="#282233"/>
        <path id="Trazado_17566" data-name="Trazado 17566" d="M2164.162-225.618a.116.116,0,0,1-.08-.031.121.121,0,0,1-.011-.172l.566-.646a.12.12,0,0,1,.171-.012.122.122,0,0,1,.011.172l-.566.646A.119.119,0,0,1,2164.162-225.618Z" transform="translate(-2153.988 227.91)" fill="#282233"/>
        <path id="Trazado_17567" data-name="Trazado 17567" d="M2164.611-225.2a.119.119,0,0,1-.091-.041.122.122,0,0,1,.01-.172l.646-.568a.121.121,0,0,1,.172.011.122.122,0,0,1-.011.172l-.646.568A.121.121,0,0,1,2164.611-225.2Z" transform="translate(-2153.964 227.937)" fill="#282233"/>
        <path id="Trazado_17568" data-name="Trazado 17568" d="M2164.991-224.775a.124.124,0,0,1-.107-.063.123.123,0,0,1,.048-.166l.472-.261a.121.121,0,0,1,.166.047.122.122,0,0,1-.047.166l-.473.262A.12.12,0,0,1,2164.991-224.775Z" transform="translate(-2153.943 227.977)" fill="#282233"/>
        <path id="Trazado_17569" data-name="Trazado 17569" d="M2158.747-226.486a.123.123,0,0,1-.108-.064l-.295-.557a.12.12,0,0,1,.051-.164.122.122,0,0,1,.165.05l.294.558a.121.121,0,0,1-.05.164A.123.123,0,0,1,2158.747-226.486Z" transform="translate(-2154.299 227.868)" fill="#282233"/>
        <path id="Trazado_17570" data-name="Trazado 17570" d="M2158.3-226.273a.123.123,0,0,1-.1-.056l-.451-.71a.121.121,0,0,1,.037-.169.123.123,0,0,1,.169.037l.451.711a.122.122,0,0,1-.037.168A.127.127,0,0,1,2158.3-226.273Z" transform="translate(-2154.331 227.871)" fill="#282233"/>
        <path id="Trazado_17571" data-name="Trazado 17571" d="M2156.418-224.681a.118.118,0,0,1-.073-.024l-.688-.513a.122.122,0,0,1-.026-.17.123.123,0,0,1,.171-.025l.689.513a.123.123,0,0,1,.025.171A.125.125,0,0,1,2156.418-224.681Z" transform="translate(-2154.446 227.969)" fill="#282233"/>
        <path id="Trazado_17572" data-name="Trazado 17572" d="M2156.158-224.3a.12.12,0,0,1-.057-.014l-.761-.4a.123.123,0,0,1-.05-.164.121.121,0,0,1,.165-.051l.76.4a.12.12,0,0,1,.051.164A.12.12,0,0,1,2156.158-224.3Z" transform="translate(-2154.464 227.995)" fill="#282233"/>
        <path id="Trazado_17573" data-name="Trazado 17573" d="M2166.048-222.3a.122.122,0,0,1-.116-.084.121.121,0,0,1,.078-.153l.827-.27a.123.123,0,0,1,.154.078.123.123,0,0,1-.078.154l-.827.269A.125.125,0,0,1,2166.048-222.3Z" transform="translate(-2153.885 228.111)" fill="#282233"/>
        <path id="Trazado_17574" data-name="Trazado 17574" d="M2166.707-221.57h-.007l-.6-.037a.121.121,0,0,1-.114-.129.119.119,0,0,1,.129-.115l.6.038a.121.121,0,0,1,.115.129A.122.122,0,0,1,2166.707-221.57Z" transform="translate(-2153.882 228.164)" fill="#282233"/>
        <path id="Trazado_17575" data-name="Trazado 17575" d="M2166.945-220.979h-.012l-.832-.077a.122.122,0,0,1-.11-.133.125.125,0,0,1,.132-.11l.832.077a.121.121,0,0,1,.11.133A.121.121,0,0,1,2166.945-220.979Z" transform="translate(-2153.882 228.193)" fill="#282233"/>
        <path id="Trazado_17576" data-name="Trazado 17576" d="M2164.6-216.607a.123.123,0,0,1-.093-.042l-.561-.652a.121.121,0,0,1,.013-.172.123.123,0,0,1,.172.013l.561.652a.123.123,0,0,1-.013.172A.121.121,0,0,1,2164.6-216.607Z" transform="translate(-2153.995 228.4)" fill="#282233"/>
        <path id="Trazado_17577" data-name="Trazado 17577" d="M2163.9-216.126a.122.122,0,0,1-.109-.067l-.386-.771a.121.121,0,0,1,.054-.163.123.123,0,0,1,.164.055l.386.771a.121.121,0,0,1-.055.162A.111.111,0,0,1,2163.9-216.126Z" transform="translate(-2154.023 228.42)" fill="#282233"/>
        <path id="Trazado_17578" data-name="Trazado 17578" d="M2158.006-216.194a.122.122,0,0,1-.074-.024.122.122,0,0,1-.023-.171l.357-.47a.122.122,0,0,1,.171-.023.123.123,0,0,1,.023.171l-.357.47A.121.121,0,0,1,2158.006-216.194Z" transform="translate(-2154.323 228.432)" fill="#282233"/>
        <path id="Trazado_17579" data-name="Trazado 17579" d="M2156.651-216.92a.115.115,0,0,1-.08-.032.122.122,0,0,1-.011-.172l.5-.562a.122.122,0,0,1,.172-.011.122.122,0,0,1,.01.172l-.5.563A.122.122,0,0,1,2156.651-216.92Z" transform="translate(-2154.396 228.388)" fill="#282233"/>
      </g>
      <g id="Grupo_12604" data-name="Grupo 12604" transform="translate(1962.816 -61.895)">
        <g id="Grupo_12603" data-name="Grupo 12603">
          <path id="Trazado_17580" data-name="Trazado 17580" d="M2046.97-67.838H1993.2a1.216,1.216,0,0,0-1.172,1.537l10.008,36.48A4.111,4.111,0,0,0,2006-26.8h53.158l-11.012-40.146A1.216,1.216,0,0,0,2046.97-67.838Z" transform="translate(-1991.98 67.838)" fill="#12263f"/>
          <rect id="Rectángulo_3050" data-name="Rectángulo 3050" width="67.553" height="2.179" transform="translate(21.05 38.861)" fill="#12263f"/>
          <path id="Trazado_17581" data-name="Trazado 17581" d="M2022.385-47.873c0-1.7-1.952-3.087-4.359-3.087s-4.358,1.382-4.358,3.087,1.95,3.087,4.358,3.087S2022.385-46.168,2022.385-47.873Z" transform="translate(-1990.801 68.755)" fill="#dfe8f4"/>
        </g>
      </g>
      <g id="Grupo_12605" data-name="Grupo 12605" transform="translate(2214.075 -91.06)">
        <path id="Trazado_17582" data-name="Trazado 17582" d="M2203.109-99.6l-1.195-.563.976.864Z" transform="translate(-2201.914 100.164)" fill="#b3b3b3"/>
        <rect id="Rectángulo_3051" data-name="Rectángulo 3051" width="3.099" height="27.931" transform="matrix(0.588, -0.809, 0.809, 0.588, 3.565, 4.433)" fill="#7d6eb2"/>
        <path id="Trazado_17583" data-name="Trazado 17583" d="M2202.9-99.894l-.365.5.942,1.689a4.513,4.513,0,0,0,1.283,1.463l1.31.953,1.824-2.506-1.312-.954a4.517,4.517,0,0,0-1.787-.771Z" transform="translate(-2201.88 100.178)" fill="#b3b3b3"/>
        <rect id="Rectángulo_3052" data-name="Rectángulo 3052" width="3.348" height="0.692" transform="translate(25.661 20.658) rotate(-53.971)" fill="#b3b3b3"/>
        <path id="Rectángulo_3053" data-name="Rectángulo 3053" d="M0,0H1.736a0,0,0,0,1,0,0V1.3a.516.516,0,0,1-.516.516h-.7A.516.516,0,0,1,0,1.3V0A0,0,0,0,1,0,0Z" transform="translate(26.381 20.109) rotate(-53.963)" fill="#b3b3b3"/>
        <path id="Trazado_17584" data-name="Trazado 17584" d="M2226.342-79.475a5.3,5.3,0,0,1-3.118-1.04,6.246,6.246,0,0,1-1.94-2.374,2.483,2.483,0,0,0-.55-.817l-.04-.027a.183.183,0,0,0-.013.032.609.609,0,0,1-.74.44.609.609,0,0,1-.439-.74,1.354,1.354,0,0,1,.777-.926,1.223,1.223,0,0,1,1.171.237,3.342,3.342,0,0,1,.912,1.235,5.041,5.041,0,0,0,1.578,1.957,3.873,3.873,0,0,0,2.834.776.609.609,0,0,1,.72.472.607.607,0,0,1-.472.719A3.494,3.494,0,0,1,2226.342-79.475Z" transform="translate(-2200.959 100.989)" fill="#b3b3b3"/>
        <path id="Trazado_17585" data-name="Trazado 17585" d="M2227.269-80.714a.06.06,0,0,1-.036-.012.062.062,0,0,1-.012-.085l1.021-1.4a.062.062,0,0,1,.085-.013.059.059,0,0,1,.012.084l-1.021,1.4A.061.061,0,0,1,2227.269-80.714Z" transform="translate(-2200.539 101.138)"/>
        <path id="Trazado_17586" data-name="Trazado 17586" d="M2205.045-95.951a.057.057,0,0,1-.047-.023.06.06,0,0,1,.01-.085,6.724,6.724,0,0,0,1.8-2.482.062.062,0,0,1,.08-.033.061.061,0,0,1,.033.079,6.847,6.847,0,0,1-1.842,2.532A.063.063,0,0,1,2205.045-95.951Z" transform="translate(-2201.748 100.25)"/>
      </g>
    </g>
  </g>
</svg>
