<svg xmlns="http://www.w3.org/2000/svg" xmlns:xlink="http://www.w3.org/1999/xlink" width="116" height="116" viewBox="0 0 116 116">
  <defs>
    <filter id="Elipse_6173" x="0" y="0" width="116" height="116" filterUnits="userSpaceOnUse">
      <feOffset dy="3" input="SourceAlpha"/>
      <feGaussianBlur stdDeviation="3" result="blur"/>
      <feFlood flood-opacity="0.161"/>
      <feComposite operator="in" in2="blur"/>
      <feComposite in="SourceGraphic"/>
    </filter>
    <clipPath id="clip-path">
      <rect id="Rectángulo_52499" data-name="Rectángulo 52499" width="64.791" height="64.712" fill="#178dea"/>
    </clipPath>
  </defs>
  <g id="Grupo_172826" data-name="Grupo 172826" transform="translate(10591 7714)">
    <g transform="matrix(1, 0, 0, 1, -10591, -7714)" filter="url(#Elipse_6173)">
      <circle id="Elipse_6173-2" data-name="Elipse 6173" cx="49" cy="49" r="49" transform="translate(9 6)" fill="#fff"/>
    </g>
    <g id="Grupo_172824" data-name="Grupo 172824" transform="translate(-10565.896 -7690.908)">
      <g id="Grupo_171255" data-name="Grupo 171255" clip-path="url(#clip-path)">
        <path id="Trazado_212253" data-name="Trazado 212253" d="M0,145.023a6.152,6.152,0,0,1,1.7-2.995c.266-.232.553-.44.881-.7l1.146,1.87c-1.393.9-1.587,2.244-1.581,3.731.027,7.667.013,15.334.013,23v.829H49.643V156.812h2.139c.01.225.028.443.028.661q0,8.162,0,16.324a5.37,5.37,0,0,1-5.632,5.631c-1.325,0-2.65,0-4.026,0v-2.154H45.9c2.641,0,4.039-1.61,3.691-4.286H2.225c-.375,2.619,1.038,4.286,3.609,4.286q16.593,0,33.187,0h.862v2.132H31.665l1.552,5.434h3.443v2.092h-21.5v-2.1c1.005,0,1.989.012,2.971-.011.179,0,.477-.116.515-.241.516-1.688,1-3.387,1.5-5.151H5.772a5.371,5.371,0,0,1-5.661-4.289A.612.612,0,0,0,0,174.978V145.023M30.931,184.8,29.4,179.449H22.411L20.888,184.8Z" transform="translate(0 -122.22)" fill="#178dea"/>
        <path id="Trazado_212254" data-name="Trazado 212254" d="M255.934,0c.815.863,1.663,1.7,2.432,2.6a1.1,1.1,0,0,0,1.467.413,28.58,28.58,0,0,1,2.752-.885,1.086,1.086,0,0,1,1.589.915c.234.981.486,1.962.642,2.957a.951.951,0,0,0,.929.9c.992.175,1.975.41,2.954.65.894.219,1.161.715.888,1.606-.321,1.05-.678,2.091-.969,3.149a.874.874,0,0,0,.191.721c.77.755,1.592,1.457,2.383,2.191a1.134,1.134,0,0,1,.007,1.943c-.773.72-1.554,1.433-2.351,2.126a.676.676,0,0,0-.246.858c.347.97.642,1.959.95,2.944.337,1.076.075,1.537-1.039,1.8-.916.215-1.833.438-2.76.595a.943.943,0,0,0-.934.9c-.138.93-.371,1.846-.582,2.764-.263,1.145-.735,1.416-1.841,1.068-.962-.3-1.928-.6-2.878-.936a.718.718,0,0,0-.917.26c-.685.8-1.4,1.58-2.125,2.352a1.117,1.117,0,0,1-1.9,0c-.736-.79-1.466-1.585-2.17-2.4a.634.634,0,0,0-.805-.216c-.953.33-1.918.624-2.88.928-1.185.375-1.649.108-1.922-1.118-.2-.9-.421-1.792-.566-2.7a.924.924,0,0,0-.865-.887c-1.014-.182-2.02-.418-3.022-.657a1.076,1.076,0,0,1-.9-1.549c.313-1.03.63-2.059.988-3.073a.764.764,0,0,0-.28-.97c-.788-.669-1.543-1.378-2.3-2.081-.734-.681-.732-1.249.009-1.937.791-.735,1.611-1.438,2.381-2.193a.876.876,0,0,0,.19-.722c-.283-1.037-.632-2.056-.95-3.084-.3-.976-.04-1.455.936-1.681,1-.233,2.011-.461,3.023-.658a.832.832,0,0,0,.764-.751c.2-1.057.435-2.108.683-3.155a1.07,1.07,0,0,1,1.514-.872c1.052.317,2.1.647,3.137,1.007a.735.735,0,0,0,.916-.262c.865-.969,1.77-1.9,2.66-2.848Zm11.276,22.927c-.306-.953-.536-1.823-.866-2.652a1.665,1.665,0,0,1,.569-2.182c.732-.574,1.386-1.247,2.1-1.9-.824-.754-1.553-1.454-2.319-2.112a1.366,1.366,0,0,1-.429-1.677c.338-.945.612-1.913.936-2.945-1.053-.237-2.048-.489-3.055-.677a1.36,1.36,0,0,1-1.21-1.235c-.184-1-.441-1.992-.676-3.025-.923.292-1.776.5-2.58.832a1.723,1.723,0,0,1-2.3-.591c-.552-.719-1.217-1.351-1.858-2.05-.766.836-1.477,1.586-2.156,2.363a1.315,1.315,0,0,1-1.569.4c-.972-.33-1.955-.629-3.007-.965-.238,1.06-.49,2.055-.679,3.062a1.362,1.362,0,0,1-1.235,1.21c-1,.185-1.991.441-3.028.676.294.924.506,1.777.837,2.581a1.725,1.725,0,0,1-.593,2.3c-.718.553-1.351,1.217-2.049,1.856.792.725,1.483,1.4,2.222,2.02a1.461,1.461,0,0,1,.5,1.838c-.345.917-.6,1.868-.909,2.872,1.034.235,2.006.493,2.993.668a1.384,1.384,0,0,1,1.271,1.253c.181,1,.441,1.988.677,3.023.929-.3,1.782-.508,2.585-.84a1.723,1.723,0,0,1,2.292.6c.554.717,1.216,1.351,1.854,2.048.71-.777,1.377-1.447,1.974-2.176a1.519,1.519,0,0,1,1.949-.532c.891.348,1.825.587,2.808.894.235-1.032.493-2,.668-2.99a1.381,1.381,0,0,1,1.249-1.273c.988-.176,1.962-.43,3.03-.671" transform="translate(-206.954)" fill="#178dea"/>
        <path id="Trazado_212255" data-name="Trazado 212255" d="M102.676,171.479c-1.508.861-2.977,1.68-4.416,2.548a.985.985,0,0,0-.275.725,3.273,3.273,0,0,1-2.786,3.229,3.253,3.253,0,0,1-2.484-5.761,3.149,3.149,0,0,1,3.653-.246.875.875,0,0,0,1.08-.014c1.353-.8,2.724-1.565,4.162-2.387a8.343,8.343,0,0,0-3.378-2.689,8.611,8.611,0,0,0-10.918,12.258c.565.966.457,1.385-.5,2-1.038.67-2.073,1.343-3.118,2a1.136,1.136,0,0,1-1.813-.419c-5.65-8.8-.319-20.946,10.006-22.818a15.15,15.15,0,0,1,9.143,1.1c.143.064.283.135.422.208.059.031.11.075.235.164l-.958,1.876a12.832,12.832,0,0,0-4.875-1.356v2.089a11.072,11.072,0,0,1,7.68,4.477l1.874-1.067-1.679-2.023,1.448-1.527a13.6,13.6,0,0,1,3.281,4.574,14.9,14.9,0,0,1-.778,14.137c-.581,1.006-1.1,1.109-2.089.474s-1.967-1.26-2.946-1.9c-.957-.622-1.046-1.017-.488-2a8.52,8.52,0,0,0,.671-7.329c-.029-.082-.075-.158-.156-.326m-19.616-2.135c-1.843,3.33-1.586,8.561.323,11.414l1.7-1.1a11.761,11.761,0,0,1-1.149-4.645,11.913,11.913,0,0,1,.9-4.656l-1.778-1.016m21.58,1.013c.1.29.179.522.261.753a10.688,10.688,0,0,1,.105,6.99c-.175.547-.576,1.249-.382,1.629.244.475.994.691,1.525,1.018,2.026-3.367,1.954-8.558.236-11.384l-1.745.994m-11.012-8.5a13.079,13.079,0,0,0-9.554,5.547l1.869,1.055a11.081,11.081,0,0,1,7.685-4.483Zm1.126,11.819a1.075,1.075,0,1,0,1.056,1.093,1.129,1.129,0,0,0-1.056-1.093" transform="translate(-68.83 -138.056)" fill="#178dea"/>
        <path id="Trazado_212256" data-name="Trazado 212256" d="M66.885,63.883v2.154H44.761c-1.864,0-2.672.8-2.673,2.661q0,16.049,0,32.1v.827H39.934v-.706q0-16.251,0-32.5a4.282,4.282,0,0,1,4.508-4.531q10.856,0,21.713,0Z" transform="translate(-34.534 -55.245)" fill="#178dea"/>
        <rect id="Rectángulo_52492" data-name="Rectángulo 52492" width="20.441" height="2.068" transform="translate(9.752 17.322)" fill="#178dea"/>
        <rect id="Rectángulo_52493" data-name="Rectángulo 52493" width="2.069" height="13.964" transform="translate(44.296 32.42)" fill="#178dea"/>
        <rect id="Rectángulo_52494" data-name="Rectángulo 52494" width="4.203" height="2.095" transform="translate(9.77 21.637)" fill="#178dea"/>
        <rect id="Rectángulo_52495" data-name="Rectángulo 52495" width="2.071" height="2.083" transform="translate(9.765 12.997)" fill="#178dea"/>
        <rect id="Rectángulo_52496" data-name="Rectángulo 52496" width="2.055" height="2.091" transform="translate(14.091 13.005)" fill="#178dea"/>
        <rect id="Rectángulo_52497" data-name="Rectángulo 52497" width="2.078" height="2.066" transform="translate(18.385 13.006)" fill="#178dea"/>
        <rect id="Rectángulo_52498" data-name="Rectángulo 52498" width="2.081" height="2.07" transform="translate(9.748 25.957)" fill="#178dea"/>
        <path id="Trazado_212257" data-name="Trazado 212257" d="M314.147,61.274c.779,0,1.472-.009,2.165,0a2.111,2.111,0,0,1,2.148,2.126q.021,3.271,0,6.543a2.092,2.092,0,0,1-2.091,2.112q-5.936.02-11.872,0a1.026,1.026,0,0,1-1.135-1.128c-.011-2.473,0-4.947-.009-7.42a1.192,1.192,0,0,1,.77-1.15c1.007-.5,2-1.017,3.018-1.491a.789.789,0,0,0,.547-.863c-.042-.965-.019-1.933-.011-2.9.007-.85.384-1.221,1.24-1.23q1.012-.01,2.024,0a3.2,3.2,0,0,1,3.2,3.218c.008.694,0,1.389,0,2.178m-4.318-3.244c0,1.045-.022,2.028.008,3.011a1.285,1.285,0,0,1-.822,1.324c-1.033.492-2.053,1.01-3.068,1.539-.173.09-.412.288-.414.439-.029,1.836-.019,3.672-.019,5.523h10.747v-6.4a1.2,1.2,0,0,0-.18-.036q-1.315,0-2.63-.006c-1.15,0-1.456-.314-1.457-1.489,0-.854.007-1.709,0-2.563-.01-.942-.416-1.333-1.372-1.345-.241,0-.482,0-.79,0" transform="translate(-262.337 -48.318)" fill="#178dea"/>
      </g>
    </g>
  </g>
</svg>
