<svg xmlns="http://www.w3.org/2000/svg" xmlns:xlink="http://www.w3.org/1999/xlink" width="325" height="99" viewBox="0 0 325 99">
  <defs>
    <clipPath id="clip-path">
      <rect id="Rectángulo_52499" data-name="Rectángulo 52499" width="85" height="84.896" fill="#fff"/>
    </clipPath>
  </defs>
  <g id="Grupo_172842" data-name="Grupo 172842" transform="translate(9872 3837)">
    <g id="Grupo_172840" data-name="Grupo 172840" transform="translate(-619 0.859)">
      <path id="Trazado_213479" data-name="Trazado 213479" d="M1.143,17V4.2H5.08a5.98,5.98,0,0,1,3.019.76,5.3,5.3,0,0,1,2.079,2.162,6.669,6.669,0,0,1,.747,3.186V10.9a6.688,6.688,0,0,1-.734,3.173,5.256,5.256,0,0,1-2.07,2.153A6.025,6.025,0,0,1,5.106,17ZM3.779,6.339v8.543H5.054a2.863,2.863,0,0,0,2.364-1.011,4.567,4.567,0,0,0,.835-2.892V10.3a4.64,4.64,0,0,0-.809-2.958A2.854,2.854,0,0,0,5.08,6.339ZM18.185,17a2.821,2.821,0,0,1-.255-.853,3.073,3.073,0,0,1-2.4,1.028,3.376,3.376,0,0,1-2.316-.809,2.6,2.6,0,0,1-.918-2.039,2.687,2.687,0,0,1,1.121-2.32,5.529,5.529,0,0,1,3.239-.817h1.169v-.545a1.567,1.567,0,0,0-.338-1.055,1.331,1.331,0,0,0-1.068-.4,1.513,1.513,0,0,0-1.006.308,1.045,1.045,0,0,0-.365.844h-2.54a2.551,2.551,0,0,1,.51-1.529,3.37,3.37,0,0,1,1.441-1.1,5.253,5.253,0,0,1,2.092-.4A4.15,4.15,0,0,1,19.34,8.2a3.09,3.09,0,0,1,1.033,2.483V14.8a4.546,4.546,0,0,0,.378,2.048V17Zm-2.1-1.767a2.188,2.188,0,0,0,1.037-.25,1.645,1.645,0,0,0,.7-.672V12.676h-.949q-1.907,0-2.03,1.318l-.009.149a1.017,1.017,0,0,0,.334.782A1.3,1.3,0,0,0,16.084,15.233ZM25.365,5.152V7.49h1.626V9.354H25.365V14.1a1.133,1.133,0,0,0,.2.756,1.015,1.015,0,0,0,.773.229,4.051,4.051,0,0,0,.747-.062v1.925a5.229,5.229,0,0,1-1.538.229,2.425,2.425,0,0,1-2.725-2.7V9.354H21.437V7.49h1.389V5.152Zm2.382,7a5.64,5.64,0,0,1,.545-2.522,3.989,3.989,0,0,1,1.569-1.714,4.577,4.577,0,0,1,2.377-.606A4.33,4.33,0,0,1,35.38,8.492a4.727,4.727,0,0,1,1.358,3.2l.018.65a4.97,4.97,0,0,1-1.222,3.511,4.247,4.247,0,0,1-3.278,1.323,4.268,4.268,0,0,1-3.283-1.318,5.058,5.058,0,0,1-1.226-3.586Zm2.54.18a3.555,3.555,0,0,0,.51,2.073,1.831,1.831,0,0,0,2.9.009,3.89,3.89,0,0,0,.519-2.267,3.519,3.519,0,0,0-.519-2.06,1.686,1.686,0,0,0-1.459-.731,1.658,1.658,0,0,0-1.441.726A3.955,3.955,0,0,0,30.287,12.338Zm13.184,2.035a.818.818,0,0,0-.461-.734,5.241,5.241,0,0,0-1.481-.479q-3.393-.712-3.393-2.883a2.613,2.613,0,0,1,1.05-2.114,4.237,4.237,0,0,1,2.747-.848,4.56,4.56,0,0,1,2.9.853,2.687,2.687,0,0,1,1.085,2.215h-2.54a1.229,1.229,0,0,0-.352-.9,1.488,1.488,0,0,0-1.1-.356,1.52,1.52,0,0,0-.993.29.916.916,0,0,0-.352.738.783.783,0,0,0,.4.681,4.114,4.114,0,0,0,1.349.448,11.019,11.019,0,0,1,1.6.426,2.628,2.628,0,0,1,2.013,2.558,2.481,2.481,0,0,1-1.116,2.1,4.815,4.815,0,0,1-2.883.8,5.029,5.029,0,0,1-2.123-.426,3.561,3.561,0,0,1-1.455-1.169,2.716,2.716,0,0,1-.527-1.6h2.408a1.326,1.326,0,0,0,.5,1.037,1.987,1.987,0,0,0,1.248.36,1.839,1.839,0,0,0,1.1-.277A.861.861,0,0,0,43.471,14.372Zm8.191-2.2a5.731,5.731,0,0,1,1-3.542,3.237,3.237,0,0,1,2.729-1.318,2.913,2.913,0,0,1,2.294,1.037V3.5h2.549V17H57.938l-.123-1.011a2.989,2.989,0,0,1-2.443,1.187,3.228,3.228,0,0,1-2.694-1.323A5.916,5.916,0,0,1,51.662,12.175Zm2.54.181a3.775,3.775,0,0,0,.466,2.057,1.516,1.516,0,0,0,1.354.715,1.7,1.7,0,0,0,1.661-1V10.36a1.675,1.675,0,0,0-1.644-1Q54.2,9.362,54.2,12.356Zm12.375,4.82a4.668,4.668,0,0,1-3.406-1.283,4.561,4.561,0,0,1-1.314-3.419v-.246a5.745,5.745,0,0,1,.554-2.562,4.064,4.064,0,0,1,1.569-1.74A4.4,4.4,0,0,1,66.3,7.314a3.947,3.947,0,0,1,3.072,1.23,5,5,0,0,1,1.121,3.489v1.037H64.433a2.36,2.36,0,0,0,.743,1.494,2.245,2.245,0,0,0,1.569.563,2.742,2.742,0,0,0,2.294-1.063l1.248,1.4a3.813,3.813,0,0,1-1.547,1.261A5.075,5.075,0,0,1,66.577,17.176Zm-.29-7.813a1.587,1.587,0,0,0-1.226.512,2.651,2.651,0,0,0-.6,1.466h3.533v-.2a1.891,1.891,0,0,0-.457-1.311A1.638,1.638,0,0,0,66.287,9.362ZM81.923,17a2.821,2.821,0,0,1-.255-.853,3.073,3.073,0,0,1-2.4,1.028,3.376,3.376,0,0,1-2.316-.809,2.6,2.6,0,0,1-.918-2.039,2.687,2.687,0,0,1,1.121-2.32,5.529,5.529,0,0,1,3.239-.817h1.169v-.545a1.567,1.567,0,0,0-.338-1.055,1.331,1.331,0,0,0-1.068-.4A1.513,1.513,0,0,0,79.15,9.5a1.045,1.045,0,0,0-.365.844h-2.54a2.551,2.551,0,0,1,.51-1.529,3.37,3.37,0,0,1,1.441-1.1,5.253,5.253,0,0,1,2.092-.4,4.15,4.15,0,0,1,2.791.883,3.09,3.09,0,0,1,1.033,2.483V14.8a4.546,4.546,0,0,0,.378,2.048V17Zm-2.1-1.767a2.188,2.188,0,0,0,1.037-.25,1.645,1.645,0,0,0,.7-.672V12.676h-.949q-1.907,0-2.03,1.318l-.009.149a1.017,1.017,0,0,0,.334.782A1.3,1.3,0,0,0,79.822,15.233ZM88.743,17H86.194V3.5h2.549ZM93.876,5.152V7.49H95.5V9.354H93.876V14.1a1.133,1.133,0,0,0,.2.756,1.015,1.015,0,0,0,.773.229,4.051,4.051,0,0,0,.747-.062v1.925a5.229,5.229,0,0,1-1.538.229,2.425,2.425,0,0,1-2.725-2.7V9.354H89.947V7.49h1.389V5.152ZM102.428,17a2.821,2.821,0,0,1-.255-.853,3.073,3.073,0,0,1-2.4,1.028,3.376,3.376,0,0,1-2.316-.809,2.6,2.6,0,0,1-.918-2.039,2.687,2.687,0,0,1,1.121-2.32,5.529,5.529,0,0,1,3.239-.817h1.169v-.545a1.567,1.567,0,0,0-.338-1.055,1.331,1.331,0,0,0-1.068-.4,1.513,1.513,0,0,0-1.006.308,1.045,1.045,0,0,0-.365.844H96.75a2.551,2.551,0,0,1,.51-1.529,3.37,3.37,0,0,1,1.441-1.1,5.253,5.253,0,0,1,2.092-.4,4.15,4.15,0,0,1,2.791.883,3.09,3.09,0,0,1,1.033,2.483V14.8a4.546,4.546,0,0,0,.378,2.048V17Zm-2.1-1.767a2.188,2.188,0,0,0,1.037-.25,1.645,1.645,0,0,0,.7-.672V12.676h-.949q-1.907,0-2.03,1.318l-.009.149a1.017,1.017,0,0,0,.334.782A1.3,1.3,0,0,0,100.327,15.233ZM115,15.128a1.666,1.666,0,0,0,1.143-.387,1.355,1.355,0,0,0,.457-1.028h2.382a3.258,3.258,0,0,1-.527,1.771,3.48,3.48,0,0,1-1.419,1.248,4.442,4.442,0,0,1-1.991.444,4.129,4.129,0,0,1-3.217-1.3,5.13,5.13,0,0,1-1.178-3.582v-.167a5.071,5.071,0,0,1,1.169-3.507,4.08,4.08,0,0,1,3.208-1.31,4,4,0,0,1,2.861,1.015,3.594,3.594,0,0,1,1.094,2.7H116.6a1.745,1.745,0,0,0-.457-1.206,1.7,1.7,0,0,0-2.5.183,3.749,3.749,0,0,0-.453,2.1v.264a3.8,3.8,0,0,0,.448,2.113A1.549,1.549,0,0,0,115,15.128ZM125.947,17a2.821,2.821,0,0,1-.255-.853,3.073,3.073,0,0,1-2.4,1.028,3.376,3.376,0,0,1-2.316-.809,2.6,2.6,0,0,1-.918-2.039,2.687,2.687,0,0,1,1.121-2.32,5.529,5.529,0,0,1,3.239-.817h1.169v-.545a1.567,1.567,0,0,0-.338-1.055,1.331,1.331,0,0,0-1.068-.4,1.513,1.513,0,0,0-1.006.308,1.045,1.045,0,0,0-.365.844h-2.54a2.551,2.551,0,0,1,.51-1.529,3.37,3.37,0,0,1,1.441-1.1,5.253,5.253,0,0,1,2.092-.4A4.15,4.15,0,0,1,127.1,8.2a3.09,3.09,0,0,1,1.033,2.483V14.8a4.546,4.546,0,0,0,.378,2.048V17Zm-2.1-1.767a2.188,2.188,0,0,0,1.037-.25,1.645,1.645,0,0,0,.7-.672V12.676h-.949q-1.907,0-2.03,1.318l-.009.149a1.017,1.017,0,0,0,.334.782A1.3,1.3,0,0,0,123.847,15.233ZM132.768,17h-2.549V3.5h2.549Zm4.772,0h-2.549V7.49h2.549Zm-2.7-11.971a1.251,1.251,0,0,1,.382-.94,1.648,1.648,0,0,1,2.079,0,1.244,1.244,0,0,1,.387.94,1.247,1.247,0,0,1-.391.949,1.629,1.629,0,0,1-2.065,0A1.247,1.247,0,0,1,134.842,5.029Zm4.395,7.146a5.731,5.731,0,0,1,1-3.542,3.237,3.237,0,0,1,2.729-1.318,2.913,2.913,0,0,1,2.294,1.037V3.5h2.549V17h-2.294l-.123-1.011a2.989,2.989,0,0,1-2.443,1.187,3.228,3.228,0,0,1-2.694-1.323A5.916,5.916,0,0,1,139.236,12.175Zm2.54.181a3.775,3.775,0,0,0,.466,2.057,1.516,1.516,0,0,0,1.354.715,1.7,1.7,0,0,0,1.661-1V10.36a1.675,1.675,0,0,0-1.644-1Q141.776,9.362,141.776,12.356ZM155.285,17a2.821,2.821,0,0,1-.255-.853,3.073,3.073,0,0,1-2.4,1.028,3.376,3.376,0,0,1-2.316-.809,2.6,2.6,0,0,1-.918-2.039,2.687,2.687,0,0,1,1.121-2.32,5.529,5.529,0,0,1,3.239-.817h1.169v-.545a1.567,1.567,0,0,0-.338-1.055,1.331,1.331,0,0,0-1.068-.4,1.513,1.513,0,0,0-1.006.308,1.045,1.045,0,0,0-.365.844h-2.54a2.551,2.551,0,0,1,.51-1.529,3.37,3.37,0,0,1,1.441-1.1,5.253,5.253,0,0,1,2.092-.4,4.15,4.15,0,0,1,2.791.883,3.09,3.09,0,0,1,1.033,2.483V14.8a4.546,4.546,0,0,0,.378,2.048V17Zm-2.1-1.767a2.188,2.188,0,0,0,1.037-.25,1.645,1.645,0,0,0,.7-.672V12.676h-.949q-1.907,0-2.03,1.318l-.009.149a1.017,1.017,0,0,0,.334.782A1.3,1.3,0,0,0,153.185,15.233Zm5.845-3.059a5.731,5.731,0,0,1,1-3.542,3.237,3.237,0,0,1,2.729-1.318,2.913,2.913,0,0,1,2.294,1.037V3.5H167.6V17H165.3l-.123-1.011a2.989,2.989,0,0,1-2.443,1.187,3.228,3.228,0,0,1-2.694-1.323A5.916,5.916,0,0,1,159.029,12.175Zm2.54.181a3.775,3.775,0,0,0,.466,2.057,1.516,1.516,0,0,0,1.354.715,1.7,1.7,0,0,0,1.661-1V10.36a1.675,1.675,0,0,0-1.644-1Q161.569,9.362,161.569,12.356Z" transform="translate(-9118 -3788.411)" fill="#fff"/>
      <path id="Trazado_213480" data-name="Trazado 213480" d="M12.5,0,25,19H0Z" transform="translate(-9223 -3824.599) rotate(90)" fill="#eeac3a"/>
      <g id="Grupo_172839" data-name="Grupo 172839" transform="translate(-9211 -3830.859)">
        <g id="Grupo_171255" data-name="Grupo 171255" clip-path="url(#clip-path)">
          <path id="Trazado_212253" data-name="Trazado 212253" d="M0,146.175a8.071,8.071,0,0,1,2.228-3.929c.349-.3.725-.577,1.156-.917l1.5,2.453c-1.828,1.181-2.081,2.944-2.075,4.895.036,10.059.017,20.117.017,30.176v1.088h62.3v-18.3h2.806c.013.295.037.581.037.867q0,10.708,0,21.415a7.045,7.045,0,0,1-7.389,7.387c-1.738,0-3.477,0-5.282,0v-2.826h4.921c3.464,0,5.3-2.112,4.842-5.623H2.919c-.492,3.435,1.361,5.622,4.735,5.623q21.769,0,43.538,0h1.13v2.8H41.541l2.036,7.129h4.517v2.744H19.886V198.4c1.319,0,2.609.016,3.9-.015.235-.006.625-.152.675-.316.677-2.215,1.306-4.444,1.972-6.757H7.572c-3.888,0-6.382-1.893-7.426-5.627A.8.8,0,0,0,0,185.473v-39.3m40.578,52.181-2.011-7.017H29.4l-2,7.017Z" transform="translate(0 -116.259)" fill="#fff"/>
          <path id="Trazado_212254" data-name="Trazado 212254" d="M261.118,0c1.069,1.132,2.182,2.226,3.19,3.41a1.439,1.439,0,0,0,1.925.542,37.494,37.494,0,0,1,3.61-1.16,1.425,1.425,0,0,1,2.085,1.2c.308,1.287.638,2.574.842,3.879a1.247,1.247,0,0,0,1.219,1.182c1.3.23,2.591.538,3.875.852,1.173.287,1.523.938,1.165,2.106-.421,1.378-.89,2.743-1.271,4.131a1.147,1.147,0,0,0,.251.946c1.01.99,2.088,1.912,3.126,2.875a1.487,1.487,0,0,1,.009,2.549c-1.015.945-2.039,1.88-3.085,2.789a.887.887,0,0,0-.323,1.126c.456,1.273.843,2.571,1.247,3.862.442,1.412.1,2.016-1.364,2.359-1.2.282-2.4.574-3.621.78a1.237,1.237,0,0,0-1.225,1.174c-.181,1.22-.487,2.421-.763,3.626-.345,1.5-.964,1.858-2.415,1.4-1.262-.4-2.529-.785-3.775-1.228a.942.942,0,0,0-1.2.341c-.9,1.055-1.841,2.073-2.788,3.086a1.465,1.465,0,0,1-2.487,0c-.965-1.036-1.924-2.079-2.847-3.152a.832.832,0,0,0-1.057-.284c-1.25.433-2.517.818-3.778,1.218-1.554.492-2.164.141-2.522-1.466-.263-1.177-.553-2.351-.743-3.54a1.213,1.213,0,0,0-1.134-1.164c-1.331-.239-2.649-.549-3.965-.862a1.412,1.412,0,0,1-1.177-2.032c.411-1.351.827-2.7,1.3-4.032a1,1,0,0,0-.367-1.273c-1.034-.878-2.024-1.808-3.018-2.73-.962-.893-.961-1.639.011-2.542,1.037-.964,2.114-1.886,3.123-2.877a1.149,1.149,0,0,0,.25-.947c-.372-1.361-.829-2.7-1.246-4.047-.4-1.281-.052-1.908,1.228-2.206,1.318-.306,2.638-.6,3.966-.863a1.091,1.091,0,0,0,1-.985c.26-1.387.57-2.766.9-4.139a1.4,1.4,0,0,1,1.987-1.143c1.38.416,2.755.848,4.116,1.32a.964.964,0,0,0,1.2-.344c1.134-1.271,2.322-2.495,3.49-3.737Zm14.793,30.078c-.4-1.25-.7-2.391-1.136-3.479a2.184,2.184,0,0,1,.747-2.863c.96-.753,1.818-1.637,2.756-2.495-1.081-.989-2.038-1.907-3.043-2.77a1.791,1.791,0,0,1-.562-2.2c.444-1.24.8-2.51,1.228-3.864-1.381-.31-2.686-.642-4.008-.889A1.784,1.784,0,0,1,270.3,9.9c-.242-1.315-.579-2.613-.887-3.968-1.211.383-2.329.66-3.385,1.091a2.26,2.26,0,0,1-3.011-.775c-.724-.943-1.6-1.773-2.438-2.689-1,1.1-1.938,2.08-2.828,3.1a1.725,1.725,0,0,1-2.058.528c-1.275-.434-2.565-.825-3.945-1.265-.313,1.391-.643,2.7-.891,4.018a1.787,1.787,0,0,1-1.621,1.588c-1.315.242-2.613.579-3.972.887.386,1.212.664,2.331,1.1,3.386a2.262,2.262,0,0,1-.778,3.011c-.942.726-1.772,1.6-2.688,2.435,1.039.951,1.945,1.838,2.915,2.651a1.917,1.917,0,0,1,.654,2.412c-.453,1.2-.782,2.451-1.193,3.768,1.356.308,2.631.647,3.926.876a1.816,1.816,0,0,1,1.667,1.643c.238,1.314.579,2.609.888,3.966,1.218-.389,2.338-.667,3.392-1.1a2.26,2.26,0,0,1,3.007.785c.727.94,1.595,1.772,2.432,2.687.931-1.019,1.807-1.9,2.589-2.854a1.992,1.992,0,0,1,2.556-.7c1.169.457,2.394.77,3.684,1.173.308-1.354.647-2.629.877-3.923a1.812,1.812,0,0,1,1.639-1.67c1.3-.231,2.574-.565,3.975-.88" transform="translate(-196.861)" fill="#fff"/>
          <path id="Trazado_212255" data-name="Trazado 212255" d="M109.876,175.172c-1.979,1.13-3.906,2.2-5.794,3.343a1.293,1.293,0,0,0-.361.951,4.293,4.293,0,0,1-3.655,4.236,4.267,4.267,0,0,1-3.259-7.558,4.131,4.131,0,0,1,4.793-.323,1.148,1.148,0,0,0,1.416-.018c1.774-1.048,3.573-2.054,5.46-3.131a10.945,10.945,0,0,0-4.431-3.528,11.3,11.3,0,0,0-14.323,16.082c.741,1.267.6,1.817-.651,2.624-1.361.879-2.72,1.762-4.09,2.626a1.49,1.49,0,0,1-2.378-.55c-7.412-11.546-.418-27.479,13.127-29.935a19.875,19.875,0,0,1,11.995,1.443c.188.084.371.177.553.273.077.04.144.1.308.215l-1.257,2.461a16.834,16.834,0,0,0-6.4-1.779v2.741a14.525,14.525,0,0,1,10.075,5.873l2.459-1.4-2.2-2.654,1.9-2a17.844,17.844,0,0,1,4.3,6,19.553,19.553,0,0,1-1.021,18.547c-.762,1.32-1.442,1.455-2.741.621s-2.58-1.653-3.865-2.488c-1.256-.816-1.372-1.334-.641-2.627a11.177,11.177,0,0,0,.88-9.616c-.038-.108-.1-.208-.205-.427m-25.735-2.8c-2.418,4.368-2.08,11.231.424,14.975l2.235-1.439a15.43,15.43,0,0,1-1.507-6.094,15.628,15.628,0,0,1,1.182-6.109l-2.333-1.333m28.311,1.329c.132.381.235.685.342.988a14.022,14.022,0,0,1,.138,9.171c-.229.718-.756,1.639-.5,2.137.319.623,1.3.906,2,1.336,2.658-4.417,2.563-11.227.309-14.935l-2.289,1.3M98.006,162.554a17.158,17.158,0,0,0-12.534,7.278l2.452,1.384a14.538,14.538,0,0,1,10.082-5.882Zm1.477,15.506a1.411,1.411,0,1,0,1.386,1.434,1.481,1.481,0,0,0-1.386-1.434" transform="translate(-65.473 -131.324)" fill="#fff"/>
          <path id="Trazado_212256" data-name="Trazado 212256" d="M75.292,63.883v2.826H46.266c-2.446,0-3.506,1.056-3.506,3.491q0,21.055,0,42.109v1.086H39.934v-.927q0-21.32,0-42.64a5.618,5.618,0,0,1,5.915-5.944q14.243,0,28.485,0Z" transform="translate(-32.85 -52.55)" fill="#fff"/>
          <rect id="Rectángulo_52492" data-name="Rectángulo 52492" width="26.816" height="2.714" transform="translate(12.794 22.725)" fill="#fff"/>
          <rect id="Rectángulo_52493" data-name="Rectángulo 52493" width="2.715" height="18.32" transform="translate(58.113 42.532)" fill="#fff"/>
          <rect id="Rectángulo_52494" data-name="Rectángulo 52494" width="5.514" height="2.749" transform="translate(12.818 28.385)" fill="#fff"/>
          <rect id="Rectángulo_52495" data-name="Rectángulo 52495" width="2.716" height="2.732" transform="translate(12.811 17.051)" fill="#fff"/>
          <rect id="Rectángulo_52496" data-name="Rectángulo 52496" width="2.696" height="2.743" transform="translate(18.486 17.062)" fill="#fff"/>
          <rect id="Rectángulo_52497" data-name="Rectángulo 52497" width="2.727" height="2.711" transform="translate(24.119 17.062)" fill="#fff"/>
          <rect id="Rectángulo_52498" data-name="Rectángulo 52498" width="2.731" height="2.715" transform="translate(12.788 34.054)" fill="#fff"/>
          <path id="Trazado_212257" data-name="Trazado 212257" d="M317.514,62.959c1.022,0,1.932-.011,2.841,0a2.77,2.77,0,0,1,2.818,2.789q.028,4.292,0,8.584a2.744,2.744,0,0,1-2.743,2.771q-7.787.027-15.575,0a1.346,1.346,0,0,1-1.489-1.48c-.014-3.245,0-6.489-.012-9.734a1.564,1.564,0,0,1,1.011-1.509c1.32-.65,2.625-1.334,3.959-1.956a1.035,1.035,0,0,0,.718-1.132c-.056-1.266-.025-2.536-.014-3.8.009-1.115.5-1.6,1.626-1.613q1.327-.013,2.655,0a4.2,4.2,0,0,1,4.2,4.222c.01.911,0,1.822,0,2.857M311.85,58.7c0,1.37-.028,2.661.01,3.95a1.686,1.686,0,0,1-1.079,1.736c-1.355.645-2.694,1.325-4.025,2.019-.227.119-.54.378-.543.576-.037,2.408-.024,4.817-.024,7.245h14.1V65.84a1.568,1.568,0,0,0-.236-.047q-1.726-.006-3.451-.008c-1.509,0-1.911-.412-1.912-1.953,0-1.121.009-2.242,0-3.362-.013-1.235-.546-1.749-1.8-1.765-.316,0-.633,0-1.036,0" transform="translate(-249.543 -45.962)" fill="#fff"/>
        </g>
      </g>
    </g>
    <rect id="Rectángulo_53195" data-name="Rectángulo 53195" width="325" height="99" transform="translate(-9872 -3837)" fill="none"/>
  </g>
</svg>
