<svg xmlns="http://www.w3.org/2000/svg" xmlns:xlink="http://www.w3.org/1999/xlink" width="178.305" height="178.304" viewBox="0 0 178.305 178.304">
  <defs>
    <filter id="Trazado_150709" x="0" y="0" width="178.305" height="178.304" filterUnits="userSpaceOnUse">
      <feOffset dx="5" dy="5" input="SourceAlpha"/>
      <feGaussianBlur stdDeviation="12.5" result="blur"/>
      <feFlood flood-opacity="0.161"/>
      <feComposite operator="in" in2="blur"/>
      <feComposite in="SourceGraphic"/>
    </filter>
  </defs>
  <g id="Grupo_172819" data-name="Grupo 172819" transform="translate(-246.479 -5117.215)">
    <path id="Trazado_150708" data-name="Trazado 150708" d="M266.781,60.19A65.629,65.629,0,1,1,195.934.23a65.63,65.63,0,0,1,70.847,59.96" transform="translate(265 5402.744) rotate(-90)" fill="#fed981"/>
    <g transform="matrix(1, 0, 0, 1, 246.48, 5117.21)" filter="url(#Trazado_150709)">
      <path id="Trazado_150709-2" data-name="Trazado 150709" d="M252.248,60.747A51.649,51.649,0,1,1,196.492,13.56a51.649,51.649,0,0,1,55.755,47.188" transform="translate(19.12 284.93) rotate(-90)" fill="#fff"/>
    </g>
    <g id="Grupo_166879" data-name="Grupo 166879" transform="translate(35.405 5083.47)">
      <path id="Trazado_197334" data-name="Trazado 197334" d="M265.585,88.205a3.12,3.12,0,1,1-3.121,3.12A3.12,3.12,0,0,1,265.585,88.205Z" fill="#d7deed"/>
      <path id="Trazado_197335" data-name="Trazado 197335" d="M310.83,136.57v9.361h-4.681V136.57Z" fill="#ffe678"/>
      <path id="Trazado_197336" data-name="Trazado 197336" d="M315.51,136.57a4.68,4.68,0,0,1,0,9.361h-4.68V136.57Z" fill="#e64c42"/>
      <path id="Trazado_197337" data-name="Trazado 197337" d="M306.149,141.25v4.681H276.506l-7.8-4.681,7.8-4.68h29.643Z" fill="#3c3b3d"/>
      <path id="Trazado_197338" data-name="Trazado 197338" d="M323.311,131.889H260.9v-10.92h4.681v-1.561a29.644,29.644,0,0,1,59.287,0v1.561h4.68v10.92Zm-9.361-10.92v-1.561a18.722,18.722,0,1,0-37.444,0v1.561Z" fill="#febe76"/>
      <path id="Trazado_197339" data-name="Trazado 197339" d="M326.431,99.127a1.56,1.56,0,1,1-1.559,1.559A1.561,1.561,0,0,1,326.431,99.127Z"/>
      <path id="Trazado_197340" data-name="Trazado 197340" d="M326.431,142.81a1.561,1.561,0,1,1-1.559,1.561A1.562,1.562,0,0,1,326.431,142.81Z"/>
      <path id="Trazado_197341" data-name="Trazado 197341" d="M313.95,86.645a1.56,1.56,0,1,1-1.559,1.56A1.561,1.561,0,0,1,313.95,86.645Z"/>
      <path id="Trazado_197342" data-name="Trazado 197342" d="M276.506,85.084a1.561,1.561,0,1,1-1.561,1.561A1.562,1.562,0,0,1,276.506,85.084Z"/>
      <path id="Trazado_197343" data-name="Trazado 197343" d="M264.024,145.931a1.56,1.56,0,1,1-1.56,1.56A1.56,1.56,0,0,1,264.024,145.931Z"/>
      <path id="Trazado_197344" data-name="Trazado 197344" d="M262.464,102.247a1.559,1.559,0,1,1-1.56,1.56A1.559,1.559,0,0,1,262.464,102.247Z"/>
      <path id="Trazado_197345" data-name="Trazado 197345" d="M329.552,132.669H260.9a.78.78,0,0,1-.78-.78v-10.92a.78.78,0,0,1,.78-.78h3.9v-.781a30.423,30.423,0,0,1,60.846,0v.781h3.9a.78.78,0,0,1,.78.78v10.92A.78.78,0,0,1,329.552,132.669Zm-67.867-1.56h67.086v-9.361h-3.9a.781.781,0,0,1-.782-.779v-1.561a28.863,28.863,0,1,0-57.725,0v1.561a.779.779,0,0,1-.78.779h-3.9Z"/>
      <path id="Trazado_197346" data-name="Trazado 197346" d="M313.95,121.748H276.506a.779.779,0,0,1-.78-.779v-1.561a19.5,19.5,0,0,1,39,0v1.561A.778.778,0,0,1,313.95,121.748Zm-36.664-1.559H313.17v-.781a17.942,17.942,0,0,0-35.884,0Z"/>
      <path id="Trazado_197347" data-name="Trazado 197347" d="M267.144,132.669a.779.779,0,0,1-.779-.78v-4.681a.781.781,0,0,1,1.561,0v4.681A.781.781,0,0,1,267.144,132.669Z"/>
      <path id="Trazado_197348" data-name="Trazado 197348" d="M273.386,132.669a.781.781,0,0,1-.782-.78V128.77a.781.781,0,1,1,1.562,0v3.119A.779.779,0,0,1,273.386,132.669Z"/>
      <path id="Trazado_197349" data-name="Trazado 197349" d="M279.627,132.669a.779.779,0,0,1-.78-.78v-4.681a.78.78,0,0,1,1.559,0v4.681A.779.779,0,0,1,279.627,132.669Z"/>
      <path id="Trazado_197350" data-name="Trazado 197350" d="M285.867,132.669a.78.78,0,0,1-.781-.78V128.77a.781.781,0,1,1,1.561,0v3.119A.78.78,0,0,1,285.867,132.669Z"/>
      <path id="Trazado_197351" data-name="Trazado 197351" d="M292.108,132.669a.78.78,0,0,1-.78-.78v-4.681a.779.779,0,0,1,1.559,0v4.681A.78.78,0,0,1,292.108,132.669Z"/>
      <path id="Trazado_197352" data-name="Trazado 197352" d="M298.349,132.669a.78.78,0,0,1-.781-.78V128.77a.781.781,0,1,1,1.561,0v3.119A.781.781,0,0,1,298.349,132.669Z"/>
      <path id="Trazado_197353" data-name="Trazado 197353" d="M304.59,132.669a.78.78,0,0,1-.781-.78v-4.681a.78.78,0,0,1,1.559,0v4.681A.779.779,0,0,1,304.59,132.669Z"/>
      <path id="Trazado_197354" data-name="Trazado 197354" d="M310.83,132.669a.78.78,0,0,1-.78-.78V128.77a.78.78,0,1,1,1.559,0v3.119A.78.78,0,0,1,310.83,132.669Z"/>
      <path id="Trazado_197355" data-name="Trazado 197355" d="M317.072,132.669a.782.782,0,0,1-.783-.78v-4.681a.781.781,0,0,1,1.562,0v4.681A.78.78,0,0,1,317.072,132.669Z"/>
      <path id="Trazado_197356" data-name="Trazado 197356" d="M323.311,132.669a.78.78,0,0,1-.78-.78V128.77a.779.779,0,1,1,1.559,0v3.119A.779.779,0,0,1,323.311,132.669Z"/>
      <path id="Trazado_197357" data-name="Trazado 197357" d="M315.51,146.711h-39a.777.777,0,0,1-.4-.111l-7.8-4.681a.779.779,0,0,1,0-1.337l7.8-4.681a.786.786,0,0,1,.4-.111h39a5.461,5.461,0,0,1,0,10.921Zm-38.788-1.56H315.51a3.9,3.9,0,0,0,3.9-3.9,3.9,3.9,0,0,0-3.9-3.9H276.722l-6.5,3.9Z"/>
      <path id="Trazado_197358" data-name="Trazado 197358" d="M310.83,146.711a.78.78,0,0,1-.78-.78V136.57a.78.78,0,1,1,1.559,0v9.361A.78.78,0,0,1,310.83,146.711Z"/>
      <path id="Trazado_197359" data-name="Trazado 197359" d="M306.149,146.711a.781.781,0,0,1-.781-.78V136.57a.781.781,0,0,1,1.563,0v9.361A.781.781,0,0,1,306.149,146.711Z"/>
      <path id="Trazado_197360" data-name="Trazado 197360" d="M306.149,142.03H285.867a.78.78,0,1,1,0-1.559h20.282a.78.78,0,1,1,0,1.559Z"/>
      <path id="Trazado_197361" data-name="Trazado 197361" d="M265.585,95.226a3.9,3.9,0,1,1,3.9-3.9A3.9,3.9,0,0,1,265.585,95.226Zm0-6.241a2.34,2.34,0,1,0,2.341,2.34A2.342,2.342,0,0,0,265.585,88.985Z"/>
      <path id="Trazado_197362" data-name="Trazado 197362" d="M324.872,93.666a5.461,5.461,0,1,1,5.46-5.461A5.469,5.469,0,0,1,324.872,93.666Zm0-9.361a3.9,3.9,0,1,0,3.9,3.9A3.9,3.9,0,0,0,324.872,84.305Z"/>
    </g>
  </g>
</svg>
