<svg xmlns="http://www.w3.org/2000/svg" xmlns:xlink="http://www.w3.org/1999/xlink" width="178.305" height="178.305" viewBox="0 0 178.305 178.305">
  <defs>
    <filter id="Trazado_150707" x="0" y="0" width="178.305" height="178.305" filterUnits="userSpaceOnUse">
      <feOffset dx="5" dy="5" input="SourceAlpha"/>
      <feGaussianBlur stdDeviation="12.5" result="blur"/>
      <feFlood flood-opacity="0.161"/>
      <feComposite operator="in" in2="blur"/>
      <feComposite in="SourceGraphic"/>
    </filter>
  </defs>
  <g id="Grupo_172821" data-name="Grupo 172821" transform="translate(-819.86 -5749.382)">
    <path id="Trazado_150705" data-name="Trazado 150705" d="M266.781,460.7a65.629,65.629,0,1,1-70.847-59.96,65.63,65.63,0,0,1,70.847,59.96" transform="translate(437.873 6034.912) rotate(-90)" fill="#60a2d8"/>
    <path id="Trazado_150706" data-name="Trazado 150706" d="M266.781,460.7a65.629,65.629,0,1,1-70.847-59.96,65.63,65.63,0,0,1,70.847,59.96" transform="translate(437.873 6034.912) rotate(-90)" fill="#f5d17c"/>
    <g transform="matrix(1, 0, 0, 1, 819.86, 5749.38)" filter="url(#Trazado_150707)">
      <path id="Trazado_150707-2" data-name="Trazado 150707" d="M252.231,461.058A51.649,51.649,0,1,1,196.3,414.084a51.649,51.649,0,0,1,55.935,46.975" transform="translate(-381.39 284.93) rotate(-90)" fill="#fff"/>
    </g>
    <g id="Grupo_166880" data-name="Grupo 166880" transform="translate(804.516 5720.067)">
      <path id="Trazado_197363" data-name="Trazado 197363" d="M133.317,80.793a3.31,3.31,0,1,1-3.31,3.31A3.311,3.311,0,0,1,133.317,80.793Z" transform="translate(-9.325 -0.118)" fill="#d7deed"/>
      <path id="Trazado_197364" data-name="Trazado 197364" d="M78.947,85.474a1.986,1.986,0,1,1-1.987,1.987A1.986,1.986,0,0,1,78.947,85.474Z" transform="translate(-1.298 -0.826)" fill="#d7deed"/>
      <path id="Trazado_197365" data-name="Trazado 197365" d="M73.368,105.756A2.648,2.648,0,1,1,70.72,108.4,2.649,2.649,0,0,1,73.368,105.756Z" transform="translate(-0.354 -3.895)" fill="#d7deed"/>
      <path id="Trazado_197366" data-name="Trazado 197366" d="M123.54,135.4v3.972H78.521V135.4H123.54Z" transform="translate(-1.534 -8.381)" fill="#414a56"/>
      <path id="Trazado_197367" data-name="Trazado 197367" d="M121.736,140.08h-43.3a6.157,6.157,0,0,0-6.157,6.156v3.113h55.613v-3.113A6.156,6.156,0,0,0,121.736,140.08Z" transform="translate(-0.59 -9.089)" fill="#57606f"/>
      <path id="Trazado_197368" data-name="Trazado 197368" d="M93.179,122.446A2.648,2.648,0,1,1,90.53,119.8,2.647,2.647,0,0,1,93.179,122.446Z" transform="translate(-2.951 -6.02)" fill="#e64c42"/>
      <path id="Trazado_197369" data-name="Trazado 197369" d="M105.66,122.446a2.648,2.648,0,1,1-2.648-2.648A2.648,2.648,0,0,1,105.66,122.446Z" transform="translate(-4.84 -6.02)" fill="#e64c42"/>
      <path id="Trazado_197370" data-name="Trazado 197370" d="M99.42,122.446a2.648,2.648,0,1,1-2.649-2.648A2.647,2.647,0,0,1,99.42,122.446Z" transform="translate(-3.895 -6.02)" fill="#c1392b"/>
      <path id="Trazado_197371" data-name="Trazado 197371" d="M109.253,119.8a2.648,2.648,0,1,1-2.649,2.648A2.649,2.649,0,0,1,109.253,119.8Z" transform="translate(-5.784 -6.02)" fill="#c1392b"/>
      <path id="Trazado_197372" data-name="Trazado 197372" d="M120.173,119.8a2.648,2.648,0,1,1-2.648,2.648A2.648,2.648,0,0,1,120.173,119.8Z" transform="translate(-7.436 -6.02)" fill="#e64c42"/>
      <path id="Trazado_197373" data-name="Trazado 197373" d="M134.45,115.118a1.324,1.324,0,1,1-1.323,1.323A1.324,1.324,0,0,1,134.45,115.118Z" transform="translate(-9.797 -5.312)"/>
      <path id="Trazado_197374" data-name="Trazado 197374" d="M121.97,88.594a1.324,1.324,0,1,1-1.325,1.325A1.324,1.324,0,0,1,121.97,88.594Z" transform="translate(-7.908 -1.298)"/>
      <path id="Trazado_197375" data-name="Trazado 197375" d="M103.248,144.761a1.324,1.324,0,1,1-1.324,1.323A1.323,1.323,0,0,1,103.248,144.761Z" transform="translate(-5.076 -9.797)"/>
      <path id="Trazado_197376" data-name="Trazado 197376" d="M95.447,85.474A1.324,1.324,0,1,1,94.123,86.8,1.324,1.324,0,0,1,95.447,85.474Z" transform="translate(-3.895 -0.826)"/>
      <path id="Trazado_197377" data-name="Trazado 197377" d="M75.164,119.8a1.324,1.324,0,1,1-1.324,1.324A1.323,1.323,0,0,1,75.164,119.8Z" transform="translate(-0.826 -6.02)"/>
      <path id="Trazado_197378" data-name="Trazado 197378" d="M136.592,149.893a.662.662,0,0,1-.663-.662v-3.113a5.5,5.5,0,0,0-5.494-5.494.662.662,0,0,1,0-1.324,6.826,6.826,0,0,1,6.818,6.818v3.113A.661.661,0,0,1,136.592,149.893Z" transform="translate(-9.29 -8.971)"/>
      <path id="Trazado_197379" data-name="Trazado 197379" d="M72.162,149.893a.662.662,0,0,1-.662-.662v-3.113a6.827,6.827,0,0,1,6.819-6.818.662.662,0,0,1,0,1.324,5.5,5.5,0,0,0-5.5,5.494v3.113A.662.662,0,0,1,72.162,149.893Z" transform="translate(-0.472 -8.971)"/>
      <path id="Trazado_197380" data-name="Trazado 197380" d="M123.422,139.916H78.4a.662.662,0,0,1-.662-.662v-3.972a.662.662,0,0,1,.662-.662h45.019a.662.662,0,0,1,.662.662v3.972A.662.662,0,0,1,123.422,139.916Zm-44.358-1.324h43.7v-2.649h-43.7Z" transform="translate(-1.416 -8.263)"/>
      <path id="Trazado_197381" data-name="Trazado 197381" d="M128.328,130.277a.662.662,0,0,1-.662-.661V97.838a.662.662,0,1,1,1.325,0v31.778A.662.662,0,0,1,128.328,130.277Z" transform="translate(-8.971 -2.597)"/>
      <path id="Trazado_197382" data-name="Trazado 197382" d="M81.523,130.277a.661.661,0,0,1-.662-.661V97.838a.662.662,0,1,1,1.324,0v31.778A.661.661,0,0,1,81.523,130.277Z" transform="translate(-1.889 -2.597)"/>
      <path id="Trazado_197383" data-name="Trazado 197383" d="M124.51,98.5H76.842a.662.662,0,0,1,0-1.324H124.51a.662.662,0,0,1,0,1.324Z" transform="translate(-1.18 -2.597)"/>
      <path id="Trazado_197384" data-name="Trazado 197384" d="M129.951,151.546H69.042a.662.662,0,0,1,0-1.325h60.909a.662.662,0,0,1,0,1.325Z" transform="translate(0 -10.623)"/>
      <path id="Trazado_197385" data-name="Trazado 197385" d="M90.412,125.638a3.31,3.31,0,1,1,3.31-3.31A3.314,3.314,0,0,1,90.412,125.638Zm0-5.3a1.986,1.986,0,1,0,1.986,1.986A1.989,1.989,0,0,0,90.412,120.342Z" transform="translate(-2.833 -5.902)"/>
      <path id="Trazado_197386" data-name="Trazado 197386" d="M96.653,125.638a3.31,3.31,0,1,1,3.311-3.31A3.314,3.314,0,0,1,96.653,125.638Zm0-5.3a1.986,1.986,0,1,0,1.986,1.986A1.989,1.989,0,0,0,96.653,120.342Z" transform="translate(-3.777 -5.902)"/>
      <path id="Trazado_197387" data-name="Trazado 197387" d="M102.894,125.638a3.31,3.31,0,1,1,3.31-3.31A3.314,3.314,0,0,1,102.894,125.638Zm0-5.3a1.986,1.986,0,1,0,1.986,1.986A1.988,1.988,0,0,0,102.894,120.342Z" transform="translate(-4.721 -5.902)"/>
      <path id="Trazado_197388" data-name="Trazado 197388" d="M109.135,125.638a3.31,3.31,0,1,1,3.31-3.31A3.313,3.313,0,0,1,109.135,125.638Zm0-5.3a1.986,1.986,0,1,0,1.986,1.986A1.989,1.989,0,0,0,109.135,120.342Z" transform="translate(-5.666 -5.902)"/>
      <path id="Trazado_197389" data-name="Trazado 197389" d="M120.055,125.638a3.31,3.31,0,1,1,3.31-3.31A3.314,3.314,0,0,1,120.055,125.638Zm0-5.3a1.986,1.986,0,1,0,1.987,1.986A1.988,1.988,0,0,0,120.055,120.342Z" transform="translate(-7.318 -5.902)"/>
      <path id="Trazado_197390" data-name="Trazado 197390" d="M90.884,117.037a.661.661,0,0,1-.661-.662V97.838a.662.662,0,1,1,1.323,0v18.537A.662.662,0,0,1,90.884,117.037Z" transform="translate(-3.305 -2.597)"/>
      <path id="Trazado_197391" data-name="Trazado 197391" d="M97.125,117.037a.662.662,0,0,1-.662-.662V97.838a.662.662,0,1,1,1.324,0v18.537A.662.662,0,0,1,97.125,117.037Z" transform="translate(-4.249 -2.597)"/>
      <path id="Trazado_197392" data-name="Trazado 197392" d="M103.366,117.037a.662.662,0,0,1-.663-.662V97.838a.662.662,0,1,1,1.325,0v18.537A.662.662,0,0,1,103.366,117.037Z" transform="translate(-5.193 -2.597)"/>
      <path id="Trazado_197393" data-name="Trazado 197393" d="M109.607,117.037a.662.662,0,0,1-.663-.662V97.838a.662.662,0,1,1,1.324,0v18.537A.662.662,0,0,1,109.607,117.037Z" transform="translate(-6.138 -2.597)"/>
      <path id="Trazado_197394" data-name="Trazado 197394" d="M119.818,117.037a.661.661,0,0,1-.646-.523L115.2,97.976a.662.662,0,1,1,1.294-.278l3.973,18.538a.661.661,0,0,1-.508.786A.654.654,0,0,1,119.818,117.037Z" transform="translate(-7.082 -2.597)"/>
      <path id="Trazado_197395" data-name="Trazado 197395" d="M95.616,146.865H78.4a.662.662,0,1,1,0-1.324H95.616a.662.662,0,1,1,0,1.324Z" transform="translate(-1.416 -9.915)"/>
      <path id="Trazado_197396" data-name="Trazado 197396" d="M73.25,111.6a3.31,3.31,0,1,1,3.311-3.31A3.314,3.314,0,0,1,73.25,111.6Zm0-5.3a1.986,1.986,0,1,0,1.987,1.987A1.989,1.989,0,0,0,73.25,106.3Z" transform="translate(-0.236 -3.777)"/>
      <path id="Trazado_197397" data-name="Trazado 197397" d="M78.829,89.99a2.648,2.648,0,1,1,2.648-2.647A2.651,2.651,0,0,1,78.829,89.99Zm0-3.972a1.324,1.324,0,1,0,1.324,1.325A1.326,1.326,0,0,0,78.829,86.018Z" transform="translate(-1.18 -0.708)"/>
      <path id="Trazado_197398" data-name="Trazado 197398" d="M133.2,87.958a3.972,3.972,0,1,1,3.972-3.973A3.976,3.976,0,0,1,133.2,87.958Zm0-6.621a2.649,2.649,0,1,0,2.648,2.648A2.651,2.651,0,0,0,133.2,81.337Z" transform="translate(-9.207)"/>
    </g>
  </g>
</svg>
