<svg xmlns="http://www.w3.org/2000/svg" width="112" height="112" viewBox="0 0 112 112">
  <g id="Grupo_172826" data-name="Grupo 172826" transform="translate(4602.538 -1273.564)">
    <circle id="Elipse_6115" data-name="Elipse 6115" cx="56" cy="56" r="56" transform="translate(-4602.538 1273.564)" fill="#12263f"/>
    <g id="VnmhX7.tif" transform="translate(-2972.957 6537.092)">
      <g id="Grupo_155567" data-name="Grupo 155567" transform="translate(-1603.63 -5241.499)">
        <path id="Trazado_197627" data-name="Trazado 197627" d="M-1603.63-4926.462a1.765,1.765,0,0,1,1.7-.851c3.45.026,6.9.006,10.352.02a1.006,1.006,0,0,0,.917-.441,9.476,9.476,0,0,1,6.056-4.015,9.627,9.627,0,0,1,8.823,3.025,2.508,2.508,0,0,0,.94.626c2.708.94,5.42,1.869,8.146,2.757a6.153,6.153,0,0,1,4.227,3.689c1.871-.517,3.718-1.04,5.572-1.534,1.6-.426,3.194-.914,4.82-1.206a4.612,4.612,0,0,1,4.922,2.514,4.676,4.676,0,0,1-.662,5.486,6.718,6.718,0,0,1-2.824,1.9c-6.1,2.168-12.183,4.364-18.28,6.531-1.036.368-2.105.645-3.159.964h-2.465a22.576,22.576,0,0,1-6.351-2.5c-1.639-.84-3.236-1.762-4.848-2.653a7.151,7.151,0,0,0-3.356-.968c-.241,1.323-.519,1.551-1.849,1.552h-2.827c-.015.212-.031.352-.034.493-.028,1.451-.395,1.816-1.832,1.817-2.071,0-4.143-.018-6.214.011a1.838,1.838,0,0,1-1.773-.833Zm14.472,10.839a12.024,12.024,0,0,1,5.424,1.734c2.3,1.265,4.635,2.454,6.981,3.623a7.053,7.053,0,0,0,4.541.7,17.287,17.287,0,0,0,2.522-.744q9.142-3.254,18.275-6.537a3.766,3.766,0,0,0,1.977-1.493,2.319,2.319,0,0,0-1.8-3.584,4.663,4.663,0,0,0-1.458.155c-3.042.826-6.074,1.689-9.115,2.515a.881.881,0,0,0-.684.662,4.84,4.84,0,0,1-5.778,3.185c-.734-.181-1.444-.458-2.166-.686q-4.393-1.384-8.786-2.766c-.117-.037-.235-.074-.348-.121a1.243,1.243,0,0,1-.744-1.607,1.218,1.218,0,0,1,1.555-.728c2.326.723,4.646,1.465,6.971,2.194,1.425.446,2.834.965,4.286,1.3a2.308,2.308,0,0,0,2.71-2.829,3.171,3.171,0,0,0-2.409-2.226c-3.024-1.026-6.053-2.039-9.068-3.092a2.624,2.624,0,0,1-1.069-.749,7.122,7.122,0,0,0-6.8-2.582,7.077,7.077,0,0,0-4.627,3.211,2.05,2.05,0,0,0-.366,1.12c-.03,2.9-.016,5.791-.016,8.686Zm-7.224,3.827v-12.965h-4.736v12.965Zm2.614-12.958v10.679h2.071v-10.679Z" transform="translate(1603.63 4970.116)" fill="#fff"/>
        <path id="Trazado_197628" data-name="Trazado 197628" d="M-1529.285-5233.5c.341-1.368.546-1.526,1.983-1.526h2.747c0-.316-.009-.594,0-.869a1.269,1.269,0,0,1,1.422-1.4q3.512-.013,7.023,0a1.21,1.21,0,0,1,1.366,1.365q.005,7.64,0,15.278a1.224,1.224,0,0,1-1.381,1.354c-3.532,0-7.064.009-10.6-.008a1.11,1.11,0,0,0-1.014.492,9.9,9.9,0,0,1-6,4,6.761,6.761,0,0,1-1.712.116,1.246,1.246,0,0,0-1.076.407q-5.82,5.854-11.667,11.684c-1.007,1.006-1.581,1.006-2.583,0l-22.655-22.651c-1.025-1.024-1.029-1.51-.021-2.52l13.026-13.024c.951-.951,1.471-.946,2.434.017,1.147,1.147,2.3,2.284,3.433,3.45a.724.724,0,0,0,.9.206c2.018-.738,4.026-1.516,6.082-2.135a9.168,9.168,0,0,1,6.719.575c2.735,1.305,5.4,2.755,8.082,4.171A6.834,6.834,0,0,0-1529.285-5233.5Zm-22.952-1.516c1.565,1.563,3.026,3.03,4.5,4.485a1.364,1.364,0,0,0,.538.27c1.462.468,2.927.924,4.39,1.386,1.308.414,2.618.818,3.919,1.25a1.209,1.209,0,0,1,.877,1.481,1.206,1.206,0,0,1-1.445.925,4.14,4.14,0,0,1-.591-.162q-5.24-1.656-10.48-3.311a2.263,2.263,0,0,0-2.432.593,2.218,2.218,0,0,0-.582,2.326,3.216,3.216,0,0,0,2.292,2.044c3.024,1.024,6.052,2.036,9.063,3.1a3.072,3.072,0,0,1,1.215.85,7.071,7.071,0,0,0,7.077,2.44,7.352,7.352,0,0,0,4.563-3.514,1.006,1.006,0,0,0,.115-.528c.007-3.018,0-6.036.012-9.053,0-.391-.124-.546-.518-.57a10.051,10.051,0,0,1-4.136-1.263c-2.623-1.391-5.247-2.784-7.9-4.107a6.822,6.822,0,0,0-4.915-.531C-1548.526-5236.392-1550.315-5235.676-1552.236-5235.012Zm-1.793,25.55a7.892,7.892,0,0,1,9.045-.025l2.8-2.81a7.891,7.891,0,0,1-1.292-5.795.5.5,0,0,0-.2-.428c-1.266-.451-2.543-.871-3.842-1.308-.083.211-.145.358-.2.508a6.991,6.991,0,0,1-7.738,4.6,7,7,0,0,1-5.859-5.978,6.968,6.968,0,0,1,4.617-7.56,3.021,3.021,0,0,0,1.621-1.136,6.107,6.107,0,0,1,1.633-1.358,6.818,6.818,0,0,1,1.309-.532l-2.55-2.539a7.929,7.929,0,0,1-9.047.019l-2.785,2.779a8.023,8.023,0,0,1-.008,9.067Zm36.786-12.309v-13.01h-4.751v13.01Zm-38.879-4.042a4.536,4.536,0,0,0-2.726,4.9,4.563,4.563,0,0,0,4.171,3.8,4.61,4.61,0,0,0,4.572-2.88c.2-.494.128-.754-.415-.872-.338-.073-.66-.22-.993-.318C-1553.868-5221.886-1555.607-5223.211-1556.122-5225.813Zm29.457-6.659v10.686h2.071v-10.686Zm-41.717,3.258-2.7,2.684,2.7,2.71A5.054,5.054,0,0,0-1568.383-5229.213Zm21.6,21.607c-1.418-1.085-4.3-.989-5.289-.063l2.678,2.676Zm-9.788-28.044-2.667-2.672-2.632,2.645A4.987,4.987,0,0,0-1556.573-5235.651Zm16.125,21.63,1.365-1.35-2.117-1.142C-1540.926-5215.6-1540.7-5214.844-1540.448-5214.021Z" transform="translate(1577.837 5241.499)" fill="#fff"/>
        <path id="Trazado_197629" data-name="Trazado 197629" d="M-1449.872-4858.081a1.231,1.231,0,0,1,1.25,1.231,1.276,1.276,0,0,1-1.268,1.23,1.224,1.224,0,0,1-1.2-1.217A1.189,1.189,0,0,1-1449.872-4858.081Z" transform="translate(1469.925 4905.424)" fill="#fff"/>
        <path id="Trazado_197630" data-name="Trazado 197630" d="M-1262.688-5116.891a1.242,1.242,0,0,1-1.229,1.257,1.284,1.284,0,0,1-1.241-1.263,1.284,1.284,0,0,1,1.216-1.226A1.242,1.242,0,0,1-1262.688-5116.891Z" transform="translate(1306.952 5133.357)" fill="#fff"/>
      </g>
    </g>
  </g>
</svg>
