<svg xmlns="http://www.w3.org/2000/svg" width="112" height="112" viewBox="0 0 112 112">
  <g id="Grupo_172829" data-name="Grupo 172829" transform="translate(5542.554 -1273.564)">
    <circle id="Elipse_6113" data-name="Elipse 6113" cx="56" cy="56" r="56" transform="translate(-5542.554 1273.564)" fill="#12263f"/>
    <g id="hHEMdN.tif" transform="translate(-3913.918 4415.398)">
      <g id="Grupo_155564" data-name="Grupo 155564" transform="translate(-1603.63 -3119.355)">
        <path id="Trazado_197591" data-name="Trazado 197591" d="M-1603.63-3119.355h53.359v22.183h-2.187v-19.892h-48.83v44.327h6.583v-8.8h23.344v19.952h-14.329v4.377h22.62c-.748-.872-1.544-1.689-2.211-2.6a13.659,13.659,0,0,1-2.719-8.1c-.047-5.865-.017-11.731-.017-17.6,0-.153.016-.306.029-.535,1.4,0,2.76,0,4.123,0a13.067,13.067,0,0,0,8.6-2.982,31.768,31.768,0,0,0,3.172-3.457,11.282,11.282,0,0,0,.761-1.11c.293.431.542.8.79,1.164a13.756,13.756,0,0,0,11.933,6.384c1.28.011,2.559,0,3.914,0,.016.266.043.5.043.737,0,5.574.03,11.147-.006,16.72a14.386,14.386,0,0,1-7.686,13.148c-2.76,1.589-5.531,3.161-8.294,4.746-.188.108-.356.251-.534.378h-.27c-2.444-1.413-4.881-2.84-7.341-4.226a2.815,2.815,0,0,0-1.318-.354q-13.276-.031-26.553-.006a1.5,1.5,0,0,1-1.176-.477c-2.876-2.906-5.775-5.789-8.664-8.682q-3.57-3.575-7.135-7.157Zm37.877,35.548v.727c0,4.9-.025,9.8.007,14.7a11.953,11.953,0,0,0,6.253,10.82c2.549,1.507,5.142,2.94,7.7,4.431a.839.839,0,0,0,.973-.03c2.487-1.438,4.987-2.852,7.474-4.289a12.173,12.173,0,0,0,6.448-11.131c.034-4.809.008-9.618.008-14.427v-.8c-5.8.34-10.673-1.445-14.449-5.868C-1555.155-3085.231-1560-3083.474-1565.753-3083.807Zm-19.99,19.943h12.134V-3079.3h-18.775v6.633h6.641Zm-2.286,4.884v-11.414h-11.413Z" transform="translate(1603.63 3119.355)" fill="#fff"/>
        <path id="Trazado_197592" data-name="Trazado 197592" d="M-1513.481-3086.074v6.576h-39.968v-6.576Zm-37.708,4.345h35.421v-2.111h-35.421Z" transform="translate(1560.229 3090.571)" fill="#fff"/>
        <path id="Trazado_197593" data-name="Trazado 197593" d="M-1553.445-3001.98v-2.176h35.49v2.176Z" transform="translate(1560.226 3019.721)" fill="#fff"/>
        <path id="Trazado_197594" data-name="Trazado 197594" d="M-1553.5-2969.042v-2.165h35.493v2.165Z" transform="translate(1560.277 2991.224)" fill="#fff"/>
        <path id="Trazado_197595" data-name="Trazado 197595" d="M-1553.278-2938.362h35.471v2.18h-35.471Z" transform="translate(1560.081 2962.816)" fill="#fff"/>
        <path id="Trazado_197596" data-name="Trazado 197596" d="M-1553.506-2903.168v-2.156h21.057v2.156Z" transform="translate(1560.278 2934.243)" fill="#fff"/>
        <path id="Trazado_197597" data-name="Trazado 197597" d="M-1532.256-2872.4v2.153h-21.051v-2.153Z" transform="translate(1560.106 2905.771)" fill="#fff"/>
        <path id="Trazado_197598" data-name="Trazado 197598" d="M-1271.718-3004.1v2.174h-2.187v-2.174Z" transform="translate(1318.455 3019.674)" fill="#fff"/>
        <path id="Trazado_197599" data-name="Trazado 197599" d="M-1271.654-2969.072h-2.142v-2.193h2.142Z" transform="translate(1318.361 2991.273)" fill="#fff"/>
        <path id="Trazado_197600" data-name="Trazado 197600" d="M-1273.821-2938.388h2.151v2.176h-2.151Z" transform="translate(1318.382 2962.839)" fill="#fff"/>
        <path id="Trazado_197601" data-name="Trazado 197601" d="M-1380.887-2903.187v-2.163h2.183v2.163Z" transform="translate(1410.982 2934.265)" fill="#fff"/>
        <path id="Trazado_197602" data-name="Trazado 197602" d="M-1380.7-2872.611h2.158v2.184h-2.158Z" transform="translate(1410.825 2905.949)" fill="#fff"/>
        <path id="Trazado_197603" data-name="Trazado 197603" d="M-1295.966-2824.678l1.46-1.445,3.622,3.641,14.82-14.821,1.5,1.5-16.279,16.28Z" transform="translate(1337.535 2875.412)" fill="#fff"/>
        <path id="Trazado_197604" data-name="Trazado 197604" d="M-1167.595-2790.819a1.42,1.42,0,0,1,.221-.076c2.023-.138,2.035-.137,2.02,1.867s.079,4.011-.116,5.993a9.737,9.737,0,0,1-4.937,7.56l-1.1-1.909c.133-.1.245-.206.369-.291a7.749,7.749,0,0,0,3.535-6.6C-1167.566-2786.455-1167.595-2788.633-1167.595-2790.819Z" transform="translate(1229.892 2835.318)" fill="#fff"/>
        <path id="Trazado_197605" data-name="Trazado 197605" d="M-1490.212-2806.629v2.165c-.208.015-.422.044-.635.045-4.374,0-8.748-.008-13.122.014-.56,0-.763-.154-.713-.716.044-.485.009-.977.009-1.507Z" transform="translate(1518.057 2848.882)" fill="#fff"/>
        <path id="Trazado_197606" data-name="Trazado 197606" d="M-1454.7-2771.417v-2.187h7.759c0,.62.016,1.242-.015,1.861a.455.455,0,0,1-.317.312C-1449.734-2771.413-1452.2-2771.417-1454.7-2771.417Z" transform="translate(1474.821 2820.32)" fill="#fff"/>
        <path id="Trazado_197607" data-name="Trazado 197607" d="M-1447.043-2740.787v2.144h-7.74v-2.144Z" transform="translate(1474.894 2791.937)" fill="#fff"/>
      </g>
    </g>
  </g>
</svg>
