<svg xmlns="http://www.w3.org/2000/svg" width="112" height="112" viewBox="0 0 112 112">
  <g id="Grupo_172832" data-name="Grupo 172832" transform="translate(6460.554 -1273.564)">
    <circle id="Elipse_6109" data-name="Elipse 6109" cx="56" cy="56" r="56" transform="translate(-6460.554 1273.564)" fill="#12263f"/>
    <g id="V8GC4p" transform="translate(-4838.501 1162.791)">
      <g id="Grupo_155561" data-name="Grupo 155561" transform="translate(-1600.006 134.779)">
        <path id="Trazado_197572" data-name="Trazado 197572" d="M-1372.836,295.814h2.265v-.635q0-4.66,0-9.319c0-.995.406-1.414,1.378-1.417q2.071-.007,4.141,0c.967,0,1.347.378,1.347,1.368q0,4.614-.015,9.227c0,.239,0,.477,0,.759h2.285v-.738q0-7.979,0-15.958c0-1.125.411-1.544,1.53-1.548,1.278,0,2.556-.006,3.833,0,1.142.008,1.487.357,1.488,1.491q.009,8.257.014,16.514c0,.059.009.118.018.228h2.254v-.654q0-6.883,0-13.766c0-1.115.423-1.536,1.536-1.537q1.949,0,3.9,0c.979,0,1.412.413,1.413,1.393q.011,6.89,0,13.779v.778h2.285v-.691q0-10.294,0-20.588c0-1.1.394-1.5,1.49-1.5,1.381,0,2.761,0,4.142,0a1.092,1.092,0,0,1,1.216,1.2q.016,5.464.01,10.929c0,3.539,0,7.079,0,10.71.374,0,.712-.011,1.048,0,.825.033,1.254.443,1.239,1.169-.014.7-.441,1.087-1.242,1.088q-7.674.012-15.348.01c-7.512,0-15.023-.023-22.535.016-1.968.01-1.989-.547-1.97-2.045.039-3.044,0-6.088,0-9.133s.012-6.089.011-9.134c0-3.43-.012-6.86-.014-10.29,0-.9.366-1.345,1.1-1.361a1.026,1.026,0,0,1,1.142,1.055c.031.87.026,1.741.026,2.611q.005,10.989.007,21.978C-1372.836,293.12-1372.836,294.433-1372.836,295.814Zm32.029-20.472v20.416h2.228V275.342Zm-16.061,20.422v-15.9h-2.22v15.9Zm6.913-13.615v13.589h2.23V282.15Zm-18.268,4.59v9.017H-1366V286.74Z" transform="translate(1402.51 -250.156)" fill="#fff"/>
        <path id="Trazado_197573" data-name="Trazado 197573" d="M-1586.461,283.344c3.082-.356,4.625,1.427,4.727,4.181.073,1.967.014,3.938.014,5.907a6.358,6.358,0,0,1-.947,3.4c-.471.765-.166,1.617-.222,2.428-.006.089.216.214.35.291,1.608.927,3.216,1.856,4.832,2.77a5.139,5.139,0,0,1,2.818,4.806c-.012,1.985,0,3.971,0,5.993H-1600c0-1.345-.016-2.679.005-4.012a22.527,22.527,0,0,1,.149-3.33,4.739,4.739,0,0,1,2.471-3.355c1.608-.933,3.216-1.865,4.838-2.773.341-.191.544-.386.48-.8a2.413,2.413,0,0,1,0-.547,3.033,3.033,0,0,0-.435-1.954,4.815,4.815,0,0,1-.674-2.666c.018-1.786,0-3.573.005-5.36a3.742,3.742,0,0,1,3.8-3.809c.67-.006,1.342-.03,2.01.008.545.031.864-.1.8-.719A1.66,1.66,0,0,1-1586.461,283.344Zm.13,27.538h9.12c0-1.506.091-2.992-.045-4.457a2.519,2.519,0,0,0-.954-1.668c-1.672-1.112-3.448-2.066-5.109-3.036a14.291,14.291,0,0,1-1.767,2.158,3.192,3.192,0,0,0-1.269,2.979C-1586.247,308.18-1586.332,309.519-1586.332,310.882Zm-5.312-9.125c-1.505.866-3.14,1.782-4.747,2.744a2.558,2.558,0,0,0-1.3,2.081c-.069,1.049-.058,2.1-.077,3.157-.007.377,0,.754,0,1.13h9.15c0-1.884,0-3.725-.009-5.566a.715.715,0,0,0-.2-.417C-1589.74,303.853-1590.673,302.829-1591.643,301.757Zm2.208-10.548a2.24,2.24,0,0,1-.254.233,2.321,2.321,0,0,0-1.2,2.425,3.635,3.635,0,0,0,2.107,3.066,3.323,3.323,0,0,0,3.657-.663c1.127-1.022,1.176-2.377,1.077-3.754-.009-.12-.265-.307-.415-.317-.623-.043-1.249-.043-1.874-.034C-1587.476,292.182-1588.623,292.248-1589.435,291.209Zm5.394-1.44c0-.842.034-1.749-.017-2.652a2.191,2.191,0,0,0-.376-1.008c-.188-.289-.421-.484-.78-.035a1.864,1.864,0,0,1-1.127.613,16.163,16.163,0,0,1-2.9.12c-1.3-.075-1.937.984-1.513,2.325.748-.873,1.422-.83,2.113.074a1.327,1.327,0,0,0,.817.538C-1586.581,289.8-1585.335,289.769-1584.041,289.769Zm-5.728,9.214c-.031,1.865,1.166,2.906,2.264,4.01,1.6-1.149,2.545-2.806,2.247-3.951A5.539,5.539,0,0,1-1589.769,298.983Z" transform="translate(1600.006 -265.205)" fill="#fff"/>
        <path id="Trazado_197574" data-name="Trazado 197574" d="M-1463.228,146.183h-3.459c-1.482,0-2.964.006-4.446-.006a1.046,1.046,0,0,1-1.181-1.152c-.023-1.481-.006-2.963-.006-4.444,0-1.152,0-2.3,0-3.5h-32.016v.714q0,5.786,0,11.572c0,.895-.416,1.42-1.12,1.423s-1.156-.517-1.16-1.419c-.013-2.741-.005-5.482-.005-8.223,0-1.644,0-3.289,0-4.934,0-1,.412-1.436,1.39-1.436q16.9,0,33.8.007a1.689,1.689,0,0,1,1.28.555c2.892,2.908,5.8,5.8,8.682,8.717a1.794,1.794,0,0,1,.514,1.1c.044,2.327.038,4.656.008,6.984a1.077,1.077,0,0,1-1.7.955,1.4,1.4,0,0,1-.506-.991c-.055-1.866-.036-3.734-.044-5.6C-1463.191,146.424-1463.209,146.346-1463.228,146.183Zm-6.822-2.279h4.974l-4.974-4.963Z" transform="translate(1518 -134.779)" fill="#fff"/>
        <path id="Trazado_197575" data-name="Trazado 197575" d="M-1504.334,558.671h41.161c0-.34,0-.674,0-1.009,0-1.583-.026-3.166,0-4.748a1.086,1.086,0,0,1,1.516-1.042.993.993,0,0,1,.719,1.01c0,2.306.015,4.612,0,6.918-.006.778-.435,1.147-1.319,1.162-1.3.023-2.595.012-3.892.011q-8.269-.008-16.539-.018-8.452,0-16.9.014-2.767,0-5.534-.017c-1.077-.006-1.486-.405-1.487-1.46q-.006-5.359.008-10.718a2.1,2.1,0,0,1,.222-.979.989.989,0,0,1,1.19-.511,1.108,1.108,0,0,1,.869,1.16c-.012,3.187,0,6.374,0,9.561Z" transform="translate(1517.998 -496.988)" fill="#fff"/>
        <path id="Trazado_197576" data-name="Trazado 197576" d="M-1316.636,265.146l7.777-8.013c-.322-.014-.531-.02-.739-.034a1.114,1.114,0,0,1-1.05-.986,1.029,1.029,0,0,1,.9-1.225c1.294-.059,2.594-.056,3.889-.008a1,1,0,0,1,.926,1.085c.01,1.116.006,2.232,0,3.348a1.108,1.108,0,0,1-1.07,1.215,1.108,1.108,0,0,1-1.2-1.1c-.02-.179,0-.363,0-.711-.52.531-.946.961-1.367,1.395q-3.411,3.516-6.816,7.038a1.307,1.307,0,0,1-1.588.311c-2.568-1-5.15-1.974-7.711-3a1.1,1.1,0,0,0-1.2.137q-5.1,3.658-10.217,7.283a1.186,1.186,0,0,1-1.767-.143,1.168,1.168,0,0,1,.444-1.707q5.551-3.961,11.1-7.923a1.6,1.6,0,0,1,1.661-.1C-1322.006,263.054-1319.343,264.091-1316.636,265.146Z" transform="translate(1370 -240.216)" fill="#fff"/>
        <path id="Trazado_197577" data-name="Trazado 197577" d="M-1305.633,547.288q6.24,0,12.481,0c.512,0,.984.155,1.115.652a1.487,1.487,0,0,1-.125,1.161,1.689,1.689,0,0,1-1.154.475c-2.008.046-4.017.022-6.026.022q-9.313,0-18.626,0c-.841,0-1.407-.49-1.387-1.185s.5-1.119,1.3-1.12Q-1311.842,547.287-1305.633,547.288Z" transform="translate(1353.548 -497.03)" fill="#fff"/>
        <path id="Trazado_197578" data-name="Trazado 197578" d="M-1388.178,230.616c-1.5,0-3,0-4.5,0a1.1,1.1,0,0,1-1.238-1.1,1.1,1.1,0,0,1,1.159-1.2q4.5-.029,8.995,0a1.224,1.224,0,0,1,1.284,1.181,1.2,1.2,0,0,1-1.327,1.116Q-1385.99,230.619-1388.178,230.616Z" transform="translate(1419.022 -216.911)" fill="#fff"/>
        <path id="Trazado_197579" data-name="Trazado 197579" d="M-1388.381,191.188c1.462,0,2.923,0,4.385,0,.851,0,1.354.418,1.375,1.122.019.648-.545,1.139-1.376,1.143-2.412.011-4.825,0-7.237.005-.568,0-1.137.031-1.7,0a1.071,1.071,0,0,1-1.091-.8,1.059,1.059,0,0,1,.457-1.276,1.6,1.6,0,0,1,.746-.178c1.482-.016,2.964-.008,4.446-.008Z" transform="translate(1419.167 -184.315)" fill="#fff"/>
        <path id="Trazado_197580" data-name="Trazado 197580" d="M-1448.506,230.523c-.365,0-.73,0-1.094,0a1.159,1.159,0,0,1-1.234-1.082,1.211,1.211,0,0,1,1.123-1.211,23.622,23.622,0,0,1,2.431,0,1.091,1.091,0,0,1,1.08,1.213,1.11,1.11,0,0,1-1.211,1.076C-1447.776,230.528-1448.141,230.523-1448.506,230.523Z" transform="translate(1469.01 -216.818)" fill="#fff"/>
        <path id="Trazado_197581" data-name="Trazado 197581" d="M-1448.525,191.244c.426,0,.852-.014,1.277,0a1.058,1.058,0,0,1,1.012.943c.071.632-.212,1.182-.791,1.231a18.627,18.627,0,0,1-2.9.02,1.085,1.085,0,0,1-.939-1.21,1.154,1.154,0,0,1,1.183-.988C-1449.295,191.236-1448.91,191.243-1448.525,191.244Z" transform="translate(1469.04 -184.36)" fill="#fff"/>
      </g>
    </g>
  </g>
</svg>
