<svg xmlns="http://www.w3.org/2000/svg" width="112" height="112" viewBox="0 0 112 112">
  <g id="Grupo_172827" data-name="Grupo 172827" transform="translate(4916.554 -1273.564)">
    <circle id="Elipse_6114" data-name="Elipse 6114" cx="56" cy="56" r="56" transform="translate(-4916.554 1273.564)" fill="#12263f"/>
    <g id="_5lj7Yp" data-name="5lj7Yp" transform="translate(-3434.786 5660.453)">
      <g id="Grupo_155566" data-name="Grupo 155566" transform="translate(-1455.739 -4364.859)">
        <path id="Trazado_197620" data-name="Trazado 197620" d="M-1433.719-4281.223v15.292h10.126v-11.448c-.761,0-1.508.038-2.248-.011-.847-.056-1.516-.423-1.452-1.4.057-.874.647-1.173,1.484-1.172q13.9.013,27.8,0c.863,0,1.577.226,1.6,1.208.02,1.047-.734,1.349-1.638,1.37-.663.016-1.327,0-2.109,0v11.542c1.092,0,2.17,0,3.246,0,.954,0,1.783.222,1.747,1.381-.034,1.1-.854,1.2-1.741,1.2q-19.057-.013-38.113-.006c-6.257,0-12.513.014-18.77-.024a2.5,2.5,0,0,1-1.646-.561c-.717-.742-.064-1.885,1.122-1.963s2.378-.018,3.671-.018v-15.3c-.122-.062-.2-.136-.286-.142-3.92-.271-4.77-1.181-4.77-5.116q0-9.027,0-18.054c0-3.929,2.489-6.441,6.431-6.462,4.681-.025,9.361-.014,14.042-.008,4.108,0,6.569,2.432,6.611,6.581.037,3.629.009,7.259.008,10.889,0,2.245,0,4.49-.005,6.735C-1428.629-4282.422-1429.381-4281.589-1433.719-4281.223Zm-2.635-2.713c0-1.94,0-3.747,0-5.554q0-4.156,0-8.312c0-.89.44-1.633,1.325-1.463.484.093.879.9,1.2,1.448.147.248.031.654.031.988q0,5.661.007,11.321c0,.506.048,1.011.072,1.491,2.313.251,2.5.094,2.5-2,0-6.114.015-12.229-.005-18.343-.009-2.654-1.314-3.95-3.965-3.961-4.586-.02-9.172-.013-13.758-.007-2.887,0-4.188,1.3-4.19,4.177q-.007,9.1,0,18.2c0,2.023.433,2.342,2.59,1.83,0-4.414.009-8.85-.007-13.287,0-.937.12-1.864,1.242-1.887,1.217-.025,1.344.939,1.34,1.929-.016,3.965-.007,7.929-.007,11.895v1.538Zm15.558,6.64v11.373h17.865V-4277.3Zm-15.646-3.906h-11.443v15.277h4.464v-1.622q0-5.228,0-10.456c0-.928-.055-1.954,1.294-1.911,1.292.042,1.28,1.055,1.283,1.983.008,2.865,0,5.729,0,8.594v3.388h4.4Z" transform="translate(1455.739 4326.378)" fill="#fff"/>
        <path id="Trazado_197621" data-name="Trazado 197621" d="M-1341.176-4320.716c0-.928,0-1.678,0-2.427a1.356,1.356,0,0,1,1.519-1.5c2.864-.021,5.728-.027,8.592,0a1.336,1.336,0,0,1,1.473,1.526c-.019.713,0,1.427,0,2.4,1.575,0,3.082.06,4.582-.018,1.386-.07,1.865.544,1.855,1.862q-.051,7.232-.007,14.463c.008,1.238-.553,1.74-1.717,1.74q-10.525,0-21.05,0c-1.159,0-1.726-.531-1.718-1.758q.045-7.3,0-14.606c-.006-1.221.533-1.727,1.738-1.693C-1344.4-4320.685-1342.884-4320.716-1341.176-4320.716Zm-3.82,15.392h19.106v-6.405c-1.153.021-2.165-.35-2.877.9-.4.7-1.21.438-1.86-.11a2.957,2.957,0,0,0-1.586-.776c-2.144-.091-4.3-.087-6.441-.014a2.515,2.515,0,0,0-1.461.7c-.666.62-1.429.941-1.939.135-.8-1.265-1.839-.787-2.941-.808Zm19.176-12.705h-19.151v3.572h2.464c.021-1.112-.122-2.378,1.292-2.388,1.5-.009,1.255,1.374,1.369,2.432h8.293c.785-1.042,1.248-2.28,1.877-2.371,1.636-.235,1.19,1.42,1.5,2.376h2.361Zm-6.584-2.7.393-.494c-.344-.285-.675-.793-1.034-.814-1.558-.091-3.127-.072-4.688-.009-.3.012-.588.4-.882.613.275.234.543.663.826.672C-1335.995-4320.7-1334.2-4320.731-1332.4-4320.731Z" transform="translate(1378.634 4336.185)" fill="#fff"/>
        <path id="Trazado_197622" data-name="Trazado 197622" d="M-1343.336-4239.216a40.893,40.893,0,0,0,4.3-.026,20.856,20.856,0,0,1,11.844,2.469c.529.267,1.275.92,1.228,1.311a2.316,2.316,0,0,1-1.247,1.456c-1.767.827-3.6,1.51-5.428,2.208a4.427,4.427,0,0,1-1.526.305q-9.24.028-18.48.005a3.931,3.931,0,0,1-3.757-2.174,3.282,3.282,0,0,1,.434-4,5.315,5.315,0,0,1,3.043-1.481C-1349.742-4239.336-1346.535-4239.214-1343.336-4239.216ZM-1331-4235q0-.331.01-.663a16.753,16.753,0,0,0-3.747-.937c-5.869-.1-11.74-.045-17.61-.044-.239,0-.558-.085-.7.035-.43.362-1.029.769-1.1,1.231-.056.351.518.94.947,1.188a3.029,3.029,0,0,0,1.4.118c5.393.007,10.787.075,16.178-.034A26.764,26.764,0,0,0-1331-4235Z" transform="translate(1385.218 4275.324)" fill="#fff"/>
        <path id="Trazado_197623" data-name="Trazado 197623" d="M-1334.944-4344.413h-1.88q-15.259,0-30.519,0c-.382,0-.86.126-1.124-.055-.486-.332-1.155-.843-1.164-1.292-.008-.4.742-.857,1.222-1.2.192-.137.557-.032.844-.032q16.477,0,32.955,0c2.07,0,2.234.166,2.235,2.187q0,9.385,0,18.77c0,.382.131.871-.055,1.121-.329.444-.832.982-1.3,1.026-.361.032-.914-.571-1.144-1.015a3.343,3.343,0,0,1-.064-1.411C-1334.945-4332.275-1334.944-4338.239-1334.944-4344.413Z" transform="translate(1394.313 4352.141)" fill="#fff"/>
        <path id="Trazado_197624" data-name="Trazado 197624" d="M-1426.1-4364.859a7.029,7.029,0,0,1,7.169,6.968,7.028,7.028,0,0,1-7.01,7.133,7.024,7.024,0,0,1-7.164-6.975A7,7,0,0,1-1426.1-4364.859Zm.132,2.576a4.43,4.43,0,0,0-4.545,4.5,4.416,4.416,0,0,0,4.449,4.447,4.481,4.481,0,0,0,4.563-4.355A4.456,4.456,0,0,0-1425.968-4362.283Z" transform="translate(1439.593 4364.859)" fill="#fff"/>
        <path id="Trazado_197625" data-name="Trazado 197625" d="M-1413.035-4295.077c-.926.077-1.837-.031-1.877-1.186-.042-1.223.883-1.394,1.875-1.382s1.921.164,1.886,1.392C-1411.185-4295.075-1412.133-4295.038-1413.035-4295.077Z" transform="translate(1426.615 4316.911)" fill="#fff"/>
        <path id="Trazado_197626" data-name="Trazado 197626" d="M-1412.856-4283.925c.845-.043,1.749.114,1.711,1.272-.04,1.192-.993,1.331-1.967,1.316-.935-.014-1.792-.2-1.789-1.341C-1414.9-4284-1413.864-4283.919-1412.856-4283.925Z" transform="translate(1426.607 4307.128)" fill="#fff"/>
      </g>
    </g>
  </g>
</svg>
