<svg xmlns="http://www.w3.org/2000/svg" width="112" height="112" viewBox="0 0 112 112">
  <g id="Grupo_172830" data-name="Grupo 172830" transform="translate(5848.554 -1273.564)">
    <circle id="Elipse_6110" data-name="Elipse 6110" cx="56" cy="56" r="56" transform="translate(-5848.554 1273.564)" fill="#12263f"/>
    <g id="dcoR54.tif" transform="translate(-4264.916 3358.025)">
      <g id="Grupo_155563" data-name="Grupo 155563" transform="translate(-1557.084 -2071.408)">
        <path id="Trazado_197584" data-name="Trazado 197584" d="M-1555.352-1801.44a2.682,2.682,0,0,1-1.732-2.906c.045-6.758.019-13.516.021-20.274,0-2.086.719-2.795,2.83-2.8q4.915,0,9.83,0c2.029,0,2.786.76,2.787,2.786,0,.374,0,.748,0,1.171h9.66c-.13-.216-.229-.4-.349-.573a13.049,13.049,0,0,1,8.8-20.348,13.044,13.044,0,0,1,14.587,10.152c.187.938-.085,1.5-.81,1.664-.7.163-1.229-.26-1.438-1.182a10.438,10.438,0,0,0-5.219-7.07,10.688,10.688,0,0,0-15.857,7.927,10.338,10.338,0,0,0,3.088,9.011,1.746,1.746,0,0,0,1.11.448c2.243.041,4.486.039,6.729.014a4.458,4.458,0,0,1,3.577,1.475c.342.386.612.207.921.047a10.721,10.721,0,0,0,5.333-6.1c.025-.071.04-.146.063-.217.365-1.113.861-1.488,1.615-1.226s.935.871.562,1.974a12.9,12.9,0,0,1-6.718,7.7.856.856,0,0,0-.585.884,4.587,4.587,0,0,1-4.789,4.512c-1.965.031-3.932-.006-5.9.018a6.415,6.415,0,0,0-1.162.226l.025.265c.253.013.507.038.76.038,2.747,0,5.5-.037,8.241.023a2.93,2.93,0,0,0,2.323-.984c2.9-2.946,5.853-5.842,8.754-8.788a4.652,4.652,0,0,1,5.754-1.168.9.9,0,0,0,.668-.077,4.525,4.525,0,0,1,6.632,3.324,2.932,2.932,0,0,0,.538,1.19,4.521,4.521,0,0,1-.125,5.719c-1.063,1.178-2.215,2.276-3.352,3.385a1.089,1.089,0,0,1-1.619.03,1.122,1.122,0,0,1,.056-1.676c1-1.031,2.037-2.028,3.034-3.062a2.152,2.152,0,0,0,.541-2.3,2.1,2.1,0,0,0-1.747-1.482,2.288,2.288,0,0,0-2.1.787c-2.99,3-6.011,5.969-8.968,9a5.542,5.542,0,0,1-4.25,1.75c-4.562-.033-9.124-.01-13.686-.012-2.756,0-4.058-1.305-4.069-4.083a8.558,8.558,0,0,1,.063-1.657,3.423,3.423,0,0,1,3.542-2.786c2.092-.016,4.184.014,6.276-.016a2.182,2.182,0,0,0,2.223-2.477,2.189,2.189,0,0,0-2.307-1.935c-3.428-.009-6.856,0-10.284,0h-10.092c-.019.273-.048.49-.049.708,0,4.337.006,8.674-.013,13.011,0,.493.1.781.608.947,2.335.769,4.631,1.674,7,2.318a16.241,16.241,0,0,0,4.119.412c6.1.041,12.2.008,18.3.023a6.1,6.1,0,0,0,4.606-1.9c1.071-1.1,2.165-2.184,3.258-3.266.64-.633,1.278-.69,1.79-.185a1.2,1.2,0,0,1-.17,1.795q-1.729,1.748-3.475,3.477a7.786,7.786,0,0,1-4.058,2.189,1.562,1.562,0,0,0-.328.148h-22.233c-.166-.049-.329-.107-.5-.146-1.705-.387-3.432-.7-5.111-1.18-1.265-.361-2.471-.931-3.811-1.45a2.445,2.445,0,0,1-1.773,2.775Zm11.365-2.4v-21.184h-10.722v21.184Zm15.37-7.672c.151.93.729,1.027,1.4,1.026,4.739,0,9.478-.018,14.216.011a3.06,3.06,0,0,0,2.339-1c2.64-2.673,5.318-5.307,7.956-7.982,1.333-1.353,2.619-2.744,4.83-2.553a2.19,2.19,0,0,0-3.63-.183c-3,2.989-6.011,5.969-8.975,8.995a5.375,5.375,0,0,1-4.115,1.694c-4.36-.036-8.721-.012-13.082-.012Zm13.928-2.368a2.559,2.559,0,0,0,2.442-.8q3.857-3.886,7.737-7.75c.118-.118.222-.25.381-.43a2.291,2.291,0,0,0-2.358.735q-3.753,3.777-7.525,7.535C-1514.219-1814.385-1514.417-1814.168-1514.689-1813.882Z" transform="translate(1557.084 1878.908)" fill="#fff"/>
        <path id="Trazado_197585" data-name="Trazado 197585" d="M-1544.035-2029.073a1.2,1.2,0,0,0,.215.013c1.359-.492,1.359-.492,1.359-1.935,0-.378-.006-.757,0-1.135a1.963,1.963,0,0,1,2.061-2.111q1.889-.052,3.78,0a1.96,1.96,0,0,1,2.049,2.124,10.1,10.1,0,0,1-.01,1.511,1.1,1.1,0,0,0,.887,1.374.793.793,0,0,0,1.021-.233c.438-.486.91-.944,1.388-1.393a1.919,1.919,0,0,1,2.785-.05q1.489,1.4,2.883,2.891a1.879,1.879,0,0,1-.044,2.719c-.478.519-.97,1.028-1.5,1.5a.629.629,0,0,0-.155.915c.224.37.178.964.9.892a15.557,15.557,0,0,1,1.965-.01,1.987,1.987,0,0,1,2.119,2.135c.012,1.261.015,2.522,0,3.782a1.952,1.952,0,0,1-1.985,2.032,12.7,12.7,0,0,1-1.813-.006c-.632-.062-.905.19-1.144.761a.856.856,0,0,0,.239,1.162,18.8,18.8,0,0,1,1.339,1.334,1.9,1.9,0,0,1,.076,2.779q-1.387,1.5-2.885,2.889a1.943,1.943,0,0,1-2.785-.071c-.514-.483-1.029-.971-1.492-1.5-.317-.364-.6-.265-.919-.078-.352.206-.927.135-.875.826a20.863,20.863,0,0,1,.005,2.117,1.941,1.941,0,0,1-1.986,2.031c-1.309.04-2.622.042-3.931,0a1.948,1.948,0,0,1-1.968-2.05c-.015-.529,0-1.059,0-1.589,0-1-.254-1.334-1.229-1.478a.815.815,0,0,0-.551.25c-.5.462-.96.965-1.454,1.433a1.967,1.967,0,0,1-2.9.048q-1.4-1.325-2.727-2.727a1.945,1.945,0,0,1,.056-2.948c.349-.364.711-.715,1.068-1.072.757-.758.787-.918.2-1.844a.748.748,0,0,0-.538-.25c-.7-.03-1.412,0-2.117-.017a1.975,1.975,0,0,1-2.047-2.126q-.018-1.853,0-3.707a1.976,1.976,0,0,1,2.06-2.116,15.5,15.5,0,0,1,2.04.007c.733.07.653-.547.885-.907a.621.621,0,0,0-.169-.91c-.507-.453-.98-.945-1.446-1.44a1.909,1.909,0,0,1-.028-2.833q1.349-1.429,2.779-2.781a1.926,1.926,0,0,1,2.84.02C-1545.121-2030.252-1544.551-2029.612-1544.035-2029.073Zm-8.361,12.715c.684,0,1.334,0,1.983,0,1.574.006,2.042.328,2.6,1.776.108.281.232.556.356.831a2.1,2.1,0,0,1-.536,2.846c-.5.494-1.017.965-1.492,1.413l2.449,2.436c.363-.385.766-.831,1.189-1.258,1.273-1.284,1.7-1.36,3.327-.636.3.133.606.244.909.365a2,2,0,0,1,1.428,2.072c.007.774,0,1.548,0,2.328h3.443c-.5-2.459-.012-4.229,2.693-5.033,2.269-.674,2.857,1.309,4.036,2.031l2.352-2.334c.031.043.007,0-.028-.038a4.879,4.879,0,0,0-.535-.533,3.128,3.128,0,0,1-.994-4.568c.7-1.267,1.042-1.69,2.515-1.7.691,0,1.382,0,2.053,0v-3.315c-.659,0-1.262,0-1.866,0-1.652,0-2.137-.334-2.717-1.843-.117-.3-.244-.606-.376-.9a1.977,1.977,0,0,1,.459-2.595c.544-.544,1.123-1.053,1.589-1.487l-2.4-2.546c-.56.594-1.1,1.195-1.667,1.762a1.95,1.95,0,0,1-2.353.421c-.458-.206-.923-.4-1.389-.584a2.011,2.011,0,0,1-1.47-2.122c-.006-.771,0-1.542,0-2.3h-3.332c-.092,1.873.439,3.733-2.126,4.794-2.607,1.078-3.468-.78-4.79-1.867l-2.411,2.422c.3.257.655.537.976.855,1.684,1.672,1.692,1.73.806,3.926-.056.14-.106.282-.159.424a2.126,2.126,0,0,1-2.316,1.646c-.722.012-1.445,0-2.2,0Z" transform="translate(1555.068 2039.898)" fill="#fff"/>
        <path id="Trazado_197586" data-name="Trazado 197586" d="M-1296.688-1953.113c.107-.636.208-1.489.4-2.319a1.3,1.3,0,0,0-.462-1.453c-.593-.506-1.137-1.071-1.679-1.634a1.936,1.936,0,0,1-.539-2.073,1.931,1.931,0,0,1,1.612-1.406c.893-.146,1.8-.244,2.678-.435a1.3,1.3,0,0,0,.761-.552c.43-.737.78-1.52,1.157-2.287a1.993,1.993,0,0,1,1.841-1.227,2.009,2.009,0,0,1,1.918,1.232c.385.764.723,1.554,1.152,2.292a1.3,1.3,0,0,0,.773.539c.883.192,1.792.263,2.677.448a2.014,2.014,0,0,1,1.1,3.434,23.623,23.623,0,0,1-1.844,1.79,1.024,1.024,0,0,0-.365,1.119c.167.761.271,1.535.413,2.3a2.065,2.065,0,0,1-.731,2.167,2.044,2.044,0,0,1-2.34.146c-.914-.467-1.831-1.276-2.752-1.283-.891-.006-1.782.829-2.682,1.278A2.055,2.055,0,0,1-1296.688-1953.113Zm9.268-.134c-.159-.917-.282-1.681-.427-2.441a2.318,2.318,0,0,1,.717-2.328c.606-.553,1.158-1.164,1.8-1.815-.88-.125-1.668-.246-2.458-.347a2.278,2.278,0,0,1-1.933-1.368c-.345-.752-.732-1.486-1.153-2.332-.4.8-.781,1.5-1.106,2.23a2.378,2.378,0,0,1-2.1,1.483c-.755.078-1.5.224-2.32.35.655.664,1.229,1.259,1.817,1.84a2.209,2.209,0,0,1,.68,2.191c-.173.785-.259,1.589-.407,2.534.835-.439,1.509-.771,2.161-1.142a2.344,2.344,0,0,1,2.5-.019C-1288.976-1954.027-1288.275-1953.691-1287.421-1953.247Z" transform="translate(1338.19 1982.405)" fill="#fff"/>
        <path id="Trazado_197587" data-name="Trazado 197587" d="M-1348.048-2071.408a1.725,1.725,0,0,1,1.549.906,6.314,6.314,0,0,1,.6,1.214,1.432,1.432,0,0,0,1.5,1.069,7.57,7.57,0,0,1,1.194.164,1.782,1.782,0,0,1,1.44,1.191,1.743,1.743,0,0,1-.415,1.882,2.033,2.033,0,0,1-.376.37,2.4,2.4,0,0,0-.949,3.114,1.8,1.8,0,0,1-.627,2.1,1.678,1.678,0,0,1-2.173.037,2.68,2.68,0,0,0-3.589.03,1.67,1.67,0,0,1-2.112-.057,1.706,1.706,0,0,1-.647-2.013,2.634,2.634,0,0,0-1.076-3.348,1.742,1.742,0,0,1-.664-2.085,1.74,1.74,0,0,1,1.792-1.244,2.594,2.594,0,0,0,2.752-1.984A1.71,1.71,0,0,1-1348.048-2071.408Zm3.491,5.5a3.244,3.244,0,0,1-3.511-2.556,3.293,3.293,0,0,1-3.546,2.56,3.344,3.344,0,0,1,1.4,4.149,3.2,3.2,0,0,1,4.289-.034A3.312,3.312,0,0,1-1344.558-2065.9Z" transform="translate(1385.212 2071.408)" fill="#fff"/>
        <path id="Trazado_197588" data-name="Trazado 197588" d="M-1362.355-1779.609c1.77-1.771,3.494-3.5,5.218-5.22a6.26,6.26,0,0,1,.6-.572,1.073,1.073,0,0,1,1.5.062,1.125,1.125,0,0,1,.063,1.569c-.342.4-.735.758-1.109,1.132q-2.561,2.565-5.125,5.127c-.866.865-1.381.873-2.226.031-1.5-1.492-3-2.983-4.482-4.488a1.157,1.157,0,0,1,.158-1.958,1.178,1.178,0,0,1,1.485.356C-1364.978-1782.259-1363.685-1780.955-1362.355-1779.609Z" transform="translate(1396.979 1828.995)" fill="#fff"/>
        <path id="Trazado_197589" data-name="Trazado 197589" d="M-1490.993-1962.483a7.777,7.777,0,0,1-7.639-7.259,7.744,7.744,0,0,1,6.561-8.069,7.691,7.691,0,0,1,7.932,4.086c.453.887.332,1.555-.344,1.885-.646.316-1.213.043-1.673-.806a5.439,5.439,0,0,0-5.3-2.933,5.428,5.428,0,0,0-4.66,3.858,5.379,5.379,0,0,0,3.01,6.45,5.369,5.369,0,0,0,6.731-2.118c.118-.192.213-.4.325-.6a1.147,1.147,0,0,1,1.574-.6,1.137,1.137,0,0,1,.472,1.617,7.52,7.52,0,0,1-5.129,4.217A16.305,16.305,0,0,1-1490.993-1962.483Z" transform="translate(1507.51 1992.074)" fill="#fff"/>
        <path id="Trazado_197590" data-name="Trazado 197590" d="M-1463.208-1946.013a3.362,3.362,0,0,1-3.326,3.393,3.362,3.362,0,0,1-3.339-3.38,3.367,3.367,0,0,1,3.363-3.356A3.365,3.365,0,0,1-1463.208-1946.013Zm-3.347-1a1.028,1.028,0,0,0-1.045,1.042,1.032,1.032,0,0,0,1.073,1.018,1.038,1.038,0,0,0,1.045-1.046A1.028,1.028,0,0,0-1466.555-1947.016Z" transform="translate(1483.094 1967.86)" fill="#fff"/>
      </g>
    </g>
  </g>
</svg>
