<svg xmlns="http://www.w3.org/2000/svg" xmlns:xlink="http://www.w3.org/1999/xlink" width="457" height="110" viewBox="0 0 457 110">
  <defs>
    <clipPath id="clip-path">
      <rect id="Rectángulo_53000" data-name="Rectángulo 53000" width="85.127" height="85.02" fill="#fff"/>
    </clipPath>
  </defs>
  <g id="Grupo_172868" data-name="Grupo 172868" transform="translate(-2524 7578)">
    <g id="Grupo_172866" data-name="Grupo 172866" transform="translate(231 -6.668)">
      <path id="Trazado_213452" data-name="Trazado 213452" d="M10.775,6.339H6.855V17H4.219V6.339H.352V4.2H10.775ZM14.792,17H12.243V7.49h2.549Zm-2.7-11.971a1.251,1.251,0,0,1,.382-.94,1.436,1.436,0,0,1,1.042-.369,1.44,1.44,0,0,1,1.037.369,1.244,1.244,0,0,1,.387.94,1.247,1.247,0,0,1-.391.949,1.629,1.629,0,0,1-2.065,0A1.247,1.247,0,0,1,12.094,5.029Zm13.351,7.3a5.7,5.7,0,0,1-1,3.52,3.2,3.2,0,0,1-2.694,1.323,2.963,2.963,0,0,1-2.329-1v4.482h-2.54V7.49h2.355l.088.932a2.985,2.985,0,0,1,2.408-1.107,3.22,3.22,0,0,1,2.733,1.3,5.858,5.858,0,0,1,.976,3.586Zm-2.54-.194a3.763,3.763,0,0,0-.47-2.054,1.53,1.53,0,0,0-1.367-.723,1.662,1.662,0,0,0-1.644.917v3.906a1.691,1.691,0,0,0,1.661.943Q22.9,15.128,22.9,12.139Zm3.718.018a5.64,5.64,0,0,1,.545-2.522,3.989,3.989,0,0,1,1.569-1.714,4.577,4.577,0,0,1,2.377-.606,4.33,4.33,0,0,1,3.142,1.178,4.727,4.727,0,0,1,1.358,3.2l.018.65a4.97,4.97,0,0,1-1.222,3.511,4.247,4.247,0,0,1-3.278,1.323,4.268,4.268,0,0,1-3.283-1.318,5.058,5.058,0,0,1-1.226-3.586Zm2.54.18a3.555,3.555,0,0,0,.51,2.073,1.831,1.831,0,0,0,2.9.009,3.89,3.89,0,0,0,.519-2.267,3.519,3.519,0,0,0-.519-2.06,1.686,1.686,0,0,0-1.459-.731,1.658,1.658,0,0,0-1.441.726A3.955,3.955,0,0,0,29.162,12.338Zm13.184,2.035a.818.818,0,0,0-.461-.734,5.241,5.241,0,0,0-1.481-.479q-3.393-.712-3.393-2.883a2.613,2.613,0,0,1,1.05-2.114,4.237,4.237,0,0,1,2.747-.848,4.56,4.56,0,0,1,2.9.853,2.687,2.687,0,0,1,1.085,2.215h-2.54a1.229,1.229,0,0,0-.352-.9,1.488,1.488,0,0,0-1.1-.356,1.52,1.52,0,0,0-.993.29.916.916,0,0,0-.352.738.783.783,0,0,0,.4.681,4.114,4.114,0,0,0,1.349.448,11.019,11.019,0,0,1,1.6.426,2.628,2.628,0,0,1,2.013,2.558,2.481,2.481,0,0,1-1.116,2.1,4.815,4.815,0,0,1-2.883.8,5.029,5.029,0,0,1-2.123-.426,3.561,3.561,0,0,1-1.455-1.169,2.716,2.716,0,0,1-.527-1.6H39.12a1.326,1.326,0,0,0,.5,1.037,1.987,1.987,0,0,0,1.248.36,1.839,1.839,0,0,0,1.1-.277A.861.861,0,0,0,42.346,14.372Zm8.191-2.2a5.731,5.731,0,0,1,1-3.542,3.237,3.237,0,0,1,2.729-1.318,2.913,2.913,0,0,1,2.294,1.037V3.5h2.549V17H56.813l-.123-1.011a2.989,2.989,0,0,1-2.443,1.187,3.228,3.228,0,0,1-2.694-1.323A5.916,5.916,0,0,1,50.537,12.175Zm2.54.181a3.775,3.775,0,0,0,.466,2.057,1.516,1.516,0,0,0,1.354.715,1.7,1.7,0,0,0,1.661-1V10.36a1.675,1.675,0,0,0-1.644-1Q53.077,9.362,53.077,12.356Zm12.375,4.82a4.668,4.668,0,0,1-3.406-1.283,4.561,4.561,0,0,1-1.314-3.419v-.246a5.745,5.745,0,0,1,.554-2.562,4.064,4.064,0,0,1,1.569-1.74,4.4,4.4,0,0,1,2.316-.611,3.947,3.947,0,0,1,3.072,1.23,5,5,0,0,1,1.121,3.489v1.037H63.308a2.36,2.36,0,0,0,.743,1.494,2.245,2.245,0,0,0,1.569.563,2.742,2.742,0,0,0,2.294-1.063l1.248,1.4a3.813,3.813,0,0,1-1.547,1.261A5.075,5.075,0,0,1,65.452,17.176Zm-.29-7.813a1.587,1.587,0,0,0-1.226.512,2.651,2.651,0,0,0-.6,1.466h3.533v-.2a1.891,1.891,0,0,0-.457-1.311A1.638,1.638,0,0,0,65.162,9.362ZM75.981,17V9.354H74.566V7.49h1.415V6.682A3.283,3.283,0,0,1,76.9,4.2a3.557,3.557,0,0,1,2.571-.883,5.987,5.987,0,0,1,1.292.174l-.026,1.953a3.238,3.238,0,0,0-.773-.079q-1.433,0-1.433,1.356V7.49h1.89V9.354H78.53V17Zm5.361-4.843a5.64,5.64,0,0,1,.545-2.522,3.989,3.989,0,0,1,1.569-1.714,4.577,4.577,0,0,1,2.377-.606,4.33,4.33,0,0,1,3.142,1.178,4.727,4.727,0,0,1,1.358,3.2l.018.65a4.97,4.97,0,0,1-1.222,3.511,4.735,4.735,0,0,1-6.561,0,5.058,5.058,0,0,1-1.226-3.586Zm2.54.18a3.555,3.555,0,0,0,.51,2.073,1.831,1.831,0,0,0,2.9.009,3.89,3.89,0,0,0,.519-2.267,3.519,3.519,0,0,0-.519-2.06,1.686,1.686,0,0,0-1.459-.731,1.658,1.658,0,0,0-1.441.726A3.955,3.955,0,0,0,83.883,12.338ZM97.26,9.872a6.9,6.9,0,0,0-.914-.07,1.86,1.86,0,0,0-1.89.976V17h-2.54V7.49h2.4l.07,1.134A2.354,2.354,0,0,1,96.5,7.314a2.662,2.662,0,0,1,.791.114Zm3.6-2.382.079,1.063a3.342,3.342,0,0,1,2.733-1.239,2.536,2.536,0,0,1,2.522,1.45,3.265,3.265,0,0,1,2.856-1.45,2.836,2.836,0,0,1,2.3.9,4.141,4.141,0,0,1,.756,2.711V17h-2.549V10.922a1.818,1.818,0,0,0-.316-1.185,1.4,1.4,0,0,0-1.116-.374,1.585,1.585,0,0,0-1.582,1.092L106.559,17h-2.54V10.93a1.8,1.8,0,0,0-.325-1.2,1.414,1.414,0,0,0-1.107-.37,1.645,1.645,0,0,0-1.564.9V17h-2.54V7.49ZM119.575,17a2.821,2.821,0,0,1-.255-.853,3.073,3.073,0,0,1-2.4,1.028,3.376,3.376,0,0,1-2.316-.809,2.6,2.6,0,0,1-.918-2.039,2.687,2.687,0,0,1,1.121-2.32,5.529,5.529,0,0,1,3.239-.817h1.169v-.545a1.567,1.567,0,0,0-.338-1.055,1.331,1.331,0,0,0-1.068-.4A1.513,1.513,0,0,0,116.8,9.5a1.045,1.045,0,0,0-.365.844H113.9a2.551,2.551,0,0,1,.51-1.529,3.37,3.37,0,0,1,1.441-1.1,5.253,5.253,0,0,1,2.092-.4,4.15,4.15,0,0,1,2.791.883,3.09,3.09,0,0,1,1.033,2.483V14.8a4.546,4.546,0,0,0,.378,2.048V17Zm-2.1-1.767a2.188,2.188,0,0,0,1.037-.25,1.645,1.645,0,0,0,.7-.672V12.676h-.949q-1.907,0-2.03,1.318l-.009.149a1.017,1.017,0,0,0,.334.782A1.3,1.3,0,0,0,117.475,15.233Zm9.281-10.081V7.49h1.626V9.354h-1.626V14.1a1.133,1.133,0,0,0,.2.756,1.015,1.015,0,0,0,.773.229,4.051,4.051,0,0,0,.747-.062v1.925a5.229,5.229,0,0,1-1.538.229,2.425,2.425,0,0,1-2.725-2.7V9.354h-1.389V7.49h1.389V5.152Zm2.382,7a5.64,5.64,0,0,1,.545-2.522,3.989,3.989,0,0,1,1.569-1.714,4.577,4.577,0,0,1,2.377-.606,4.33,4.33,0,0,1,3.142,1.178,4.727,4.727,0,0,1,1.358,3.2l.018.65a4.97,4.97,0,0,1-1.222,3.511,4.735,4.735,0,0,1-6.561,0,5.058,5.058,0,0,1-1.226-3.586Zm2.54.18a3.555,3.555,0,0,0,.51,2.073,1.831,1.831,0,0,0,2.9.009,3.89,3.89,0,0,0,.519-2.267,3.519,3.519,0,0,0-.519-2.06,1.686,1.686,0,0,0-1.459-.731,1.658,1.658,0,0,0-1.441.726A3.955,3.955,0,0,0,131.678,12.338Zm13.184,2.035a.818.818,0,0,0-.461-.734,5.241,5.241,0,0,0-1.481-.479q-3.393-.712-3.393-2.883a2.613,2.613,0,0,1,1.05-2.114,4.237,4.237,0,0,1,2.747-.848,4.56,4.56,0,0,1,2.9.853,2.687,2.687,0,0,1,1.085,2.215h-2.54a1.229,1.229,0,0,0-.352-.9,1.488,1.488,0,0,0-1.1-.356,1.52,1.52,0,0,0-.993.29.916.916,0,0,0-.352.738.783.783,0,0,0,.4.681,4.114,4.114,0,0,0,1.349.448,11.019,11.019,0,0,1,1.6.426,2.628,2.628,0,0,1,2.013,2.558,2.481,2.481,0,0,1-1.116,2.1,4.815,4.815,0,0,1-2.883.8,5.029,5.029,0,0,1-2.123-.426,3.561,3.561,0,0,1-1.455-1.169,2.716,2.716,0,0,1-.527-1.6h2.408a1.326,1.326,0,0,0,.5,1.037,1.987,1.987,0,0,0,1.248.36,1.839,1.839,0,0,0,1.1-.277A.861.861,0,0,0,144.861,14.372ZM158.959,17a2.821,2.821,0,0,1-.255-.853,3.073,3.073,0,0,1-2.4,1.028,3.376,3.376,0,0,1-2.316-.809,2.6,2.6,0,0,1-.918-2.039,2.687,2.687,0,0,1,1.121-2.32,5.529,5.529,0,0,1,3.239-.817H158.6v-.545a1.567,1.567,0,0,0-.338-1.055,1.331,1.331,0,0,0-1.068-.4,1.513,1.513,0,0,0-1.006.308,1.045,1.045,0,0,0-.365.844h-2.54a2.551,2.551,0,0,1,.51-1.529,3.37,3.37,0,0,1,1.441-1.1,5.253,5.253,0,0,1,2.092-.4,4.15,4.15,0,0,1,2.791.883,3.09,3.09,0,0,1,1.033,2.483V14.8a4.546,4.546,0,0,0,.378,2.048V17Zm-2.1-1.767a2.188,2.188,0,0,0,1.037-.25,1.645,1.645,0,0,0,.7-.672V12.676h-.949q-1.907,0-2.03,1.318l-.009.149a1.017,1.017,0,0,0,.334.782A1.3,1.3,0,0,0,156.858,15.233Zm14.81-2.9a5.758,5.758,0,0,1-.976,3.564,3.231,3.231,0,0,1-2.725,1.279,2.969,2.969,0,0,1-2.47-1.187L165.384,17H163.1V3.5h2.54V8.343a2.893,2.893,0,0,1,2.312-1.028,3.258,3.258,0,0,1,2.729,1.279,5.767,5.767,0,0,1,.989,3.6Zm-2.54-.194a3.8,3.8,0,0,0-.457-2.111,1.544,1.544,0,0,0-1.362-.666,1.675,1.675,0,0,0-1.67,1v3.764a1.7,1.7,0,0,0,1.688,1,1.569,1.569,0,0,0,1.617-1.217A6.294,6.294,0,0,0,169.128,12.139ZM175.913,17h-2.549V7.49h2.549Zm-2.7-11.971a1.251,1.251,0,0,1,.382-.94,1.648,1.648,0,0,1,2.079,0,1.244,1.244,0,0,1,.387.94,1.247,1.247,0,0,1-.391.949,1.629,1.629,0,0,1-2.065,0A1.247,1.247,0,0,1,173.215,5.029Zm9.167,12.146a4.668,4.668,0,0,1-3.406-1.283,4.561,4.561,0,0,1-1.314-3.419v-.246a5.745,5.745,0,0,1,.554-2.562,4.064,4.064,0,0,1,1.569-1.74,4.4,4.4,0,0,1,2.316-.611,3.947,3.947,0,0,1,3.072,1.23,5,5,0,0,1,1.121,3.489v1.037h-6.056a2.36,2.36,0,0,0,.743,1.494,2.245,2.245,0,0,0,1.569.563,2.742,2.742,0,0,0,2.294-1.063l1.248,1.4a3.813,3.813,0,0,1-1.547,1.261A5.075,5.075,0,0,1,182.382,17.176Zm-.29-7.813a1.587,1.587,0,0,0-1.226.512,2.651,2.651,0,0,0-.6,1.466H183.8v-.2a1.891,1.891,0,0,0-.457-1.311A1.638,1.638,0,0,0,182.092,9.362Zm10.986.51a6.9,6.9,0,0,0-.914-.07,1.86,1.86,0,0,0-1.89.976V17h-2.54V7.49h2.4l.07,1.134a2.354,2.354,0,0,1,2.118-1.31,2.662,2.662,0,0,1,.791.114Zm4.7-4.72V7.49h1.626V9.354H197.78V14.1a1.133,1.133,0,0,0,.2.756,1.015,1.015,0,0,0,.773.229,4.051,4.051,0,0,0,.747-.062v1.925a5.229,5.229,0,0,1-1.538.229,2.425,2.425,0,0,1-2.725-2.7V9.354h-1.389V7.49h1.389V5.152Zm2.382,7a5.64,5.64,0,0,1,.545-2.522,3.989,3.989,0,0,1,1.569-1.714,4.577,4.577,0,0,1,2.377-.606A4.33,4.33,0,0,1,207.8,8.492a4.727,4.727,0,0,1,1.358,3.2l.018.65a4.97,4.97,0,0,1-1.222,3.511,4.735,4.735,0,0,1-6.561,0,5.058,5.058,0,0,1-1.226-3.586Zm2.54.18a3.555,3.555,0,0,0,.51,2.073,1.831,1.831,0,0,0,2.9.009,3.89,3.89,0,0,0,.519-2.267,3.519,3.519,0,0,0-.519-2.06,1.686,1.686,0,0,0-1.459-.731,1.658,1.658,0,0,0-1.441.726A3.955,3.955,0,0,0,202.7,12.338Zm13.184,2.035a.818.818,0,0,0-.461-.734,5.241,5.241,0,0,0-1.481-.479q-3.393-.712-3.393-2.883a2.613,2.613,0,0,1,1.05-2.114,4.237,4.237,0,0,1,2.747-.848,4.56,4.56,0,0,1,2.9.853,2.687,2.687,0,0,1,1.085,2.215h-2.54a1.229,1.229,0,0,0-.352-.9,1.488,1.488,0,0,0-1.1-.356,1.52,1.52,0,0,0-.993.29.916.916,0,0,0-.352.738.783.783,0,0,0,.4.681,4.114,4.114,0,0,0,1.349.448,11.019,11.019,0,0,1,1.6.426,2.628,2.628,0,0,1,2.013,2.558,2.481,2.481,0,0,1-1.116,2.1,4.815,4.815,0,0,1-2.883.8,5.029,5.029,0,0,1-2.123-.426,3.561,3.561,0,0,1-1.455-1.169,2.716,2.716,0,0,1-.527-1.6h2.408a1.326,1.326,0,0,0,.5,1.037,1.987,1.987,0,0,0,1.248.36,1.839,1.839,0,0,0,1.1-.277A.861.861,0,0,0,215.886,14.372Zm12.138-.967,1.758-5.915h2.725l-3.823,10.986-.211.5a2.9,2.9,0,0,1-2.812,1.863,4,4,0,0,1-1.125-.167V18.749l.387.009a2.09,2.09,0,0,0,1.077-.22,1.443,1.443,0,0,0,.558-.729l.3-.782L223.523,7.49h2.733Zm13.922,1.723a1.666,1.666,0,0,0,1.143-.387,1.355,1.355,0,0,0,.457-1.028h2.382a3.258,3.258,0,0,1-.527,1.771,3.48,3.48,0,0,1-1.419,1.248,4.442,4.442,0,0,1-1.991.444,4.129,4.129,0,0,1-3.217-1.3,5.13,5.13,0,0,1-1.178-3.582v-.167a5.071,5.071,0,0,1,1.169-3.507,4.08,4.08,0,0,1,3.208-1.31,4,4,0,0,1,2.861,1.015,3.594,3.594,0,0,1,1.094,2.7h-2.382a1.745,1.745,0,0,0-.457-1.206,1.7,1.7,0,0,0-2.5.183,3.749,3.749,0,0,0-.453,2.1v.264a3.8,3.8,0,0,0,.448,2.113A1.549,1.549,0,0,0,241.945,15.128Zm9.809,2.048a4.668,4.668,0,0,1-3.406-1.283,4.561,4.561,0,0,1-1.314-3.419v-.246a5.745,5.745,0,0,1,.554-2.562,4.064,4.064,0,0,1,1.569-1.74,4.4,4.4,0,0,1,2.316-.611,3.947,3.947,0,0,1,3.072,1.23,5,5,0,0,1,1.121,3.489v1.037h-6.056a2.36,2.36,0,0,0,.743,1.494,2.245,2.245,0,0,0,1.569.563,2.742,2.742,0,0,0,2.294-1.063l1.248,1.4a3.813,3.813,0,0,1-1.547,1.261A5.075,5.075,0,0,1,251.754,17.176Zm-.29-7.813a1.587,1.587,0,0,0-1.226.512,2.651,2.651,0,0,0-.6,1.466h3.533v-.2a1.891,1.891,0,0,0-.457-1.311A1.638,1.638,0,0,0,251.464,9.362Zm10.986.51a6.9,6.9,0,0,0-.914-.07,1.86,1.86,0,0,0-1.89.976V17h-2.54V7.49h2.4l.07,1.134a2.354,2.354,0,0,1,2.118-1.31,2.662,2.662,0,0,1,.791.114Zm6.565,0a6.9,6.9,0,0,0-.914-.07,1.86,1.86,0,0,0-1.89.976V17h-2.54V7.49h2.4l.07,1.134a2.354,2.354,0,0,1,2.118-1.31,2.662,2.662,0,0,1,.791.114ZM275.484,17a2.821,2.821,0,0,1-.255-.853,3.073,3.073,0,0,1-2.4,1.028,3.376,3.376,0,0,1-2.316-.809,2.6,2.6,0,0,1-.918-2.039,2.687,2.687,0,0,1,1.121-2.32,5.529,5.529,0,0,1,3.239-.817h1.169v-.545a1.567,1.567,0,0,0-.338-1.055,1.331,1.331,0,0,0-1.068-.4,1.513,1.513,0,0,0-1.006.308,1.045,1.045,0,0,0-.365.844h-2.54a2.551,2.551,0,0,1,.51-1.529,3.37,3.37,0,0,1,1.441-1.1,5.253,5.253,0,0,1,2.092-.4,4.15,4.15,0,0,1,2.791.883,3.09,3.09,0,0,1,1.033,2.483V14.8a4.546,4.546,0,0,0,.378,2.048V17Zm-2.1-1.767a2.188,2.188,0,0,0,1.037-.25,1.645,1.645,0,0,0,.7-.672V12.676h-.949q-1.907,0-2.03,1.318l-.009.149a1.017,1.017,0,0,0,.334.782A1.3,1.3,0,0,0,273.384,15.233Zm5.845-3.059a5.731,5.731,0,0,1,1-3.542,3.237,3.237,0,0,1,2.729-1.318,2.913,2.913,0,0,1,2.294,1.037V3.5H287.8V17H285.5l-.123-1.011a2.989,2.989,0,0,1-2.443,1.187,3.228,3.228,0,0,1-2.694-1.323A5.916,5.916,0,0,1,279.229,12.175Zm2.54.181a3.775,3.775,0,0,0,.466,2.057,1.516,1.516,0,0,0,1.354.715,1.7,1.7,0,0,0,1.661-1V10.36a1.675,1.675,0,0,0-1.644-1Q281.769,9.362,281.769,12.356Zm7.6-.2a5.64,5.64,0,0,1,.545-2.522,3.989,3.989,0,0,1,1.569-1.714,4.577,4.577,0,0,1,2.377-.606A4.33,4.33,0,0,1,297,8.492a4.727,4.727,0,0,1,1.358,3.2l.018.65a4.97,4.97,0,0,1-1.222,3.511,4.735,4.735,0,0,1-6.561,0,5.058,5.058,0,0,1-1.226-3.586Zm2.54.18a3.555,3.555,0,0,0,.51,2.073,1.831,1.831,0,0,0,2.9.009,3.89,3.89,0,0,0,.519-2.267,3.519,3.519,0,0,0-.519-2.06,1.686,1.686,0,0,0-1.459-.731,1.658,1.658,0,0,0-1.441.726A3.955,3.955,0,0,0,291.911,12.338Zm13.184,2.035a.818.818,0,0,0-.461-.734,5.241,5.241,0,0,0-1.481-.479q-3.393-.712-3.393-2.883a2.613,2.613,0,0,1,1.05-2.114,4.237,4.237,0,0,1,2.747-.848,4.56,4.56,0,0,1,2.9.853,2.687,2.687,0,0,1,1.085,2.215H305a1.229,1.229,0,0,0-.352-.9,1.488,1.488,0,0,0-1.1-.356,1.52,1.52,0,0,0-.993.29.916.916,0,0,0-.352.738.783.783,0,0,0,.4.681,4.114,4.114,0,0,0,1.349.448,11.019,11.019,0,0,1,1.6.426,2.628,2.628,0,0,1,2.013,2.558,2.481,2.481,0,0,1-1.116,2.1,4.815,4.815,0,0,1-2.883.8,5.029,5.029,0,0,1-2.123-.426,3.561,3.561,0,0,1-1.455-1.169,2.716,2.716,0,0,1-.527-1.6h2.408a1.326,1.326,0,0,0,.5,1.037,1.987,1.987,0,0,0,1.248.36,1.839,1.839,0,0,0,1.1-.277A.861.861,0,0,0,305.095,14.372Z" transform="translate(2427 -7519.278)" fill="#fff"/>
      <path id="Polígono_53" data-name="Polígono 53" d="M12.5,0,25,19H0Z" transform="translate(2322 -7542.466) rotate(90)" fill="#eeac3a"/>
      <g id="Grupo_172864" data-name="Grupo 172864" transform="translate(2330 -7557.333)">
        <g id="Grupo_172377" data-name="Grupo 172377" clip-path="url(#clip-path)">
          <path id="Trazado_212878" data-name="Trazado 212878" d="M21.377,49.611c-3.256,0-6.211-.072-9.157.062-.573.026-1.27.751-1.635,1.328a5.552,5.552,0,0,1-6.007,2.7,5.681,5.681,0,0,1-4.53-4.8,5.9,5.9,0,0,1,2.888-5.588,5.527,5.527,0,0,1,7.626,2.232,2.01,2.01,0,0,0,2.133,1.281c2.619-.079,5.243-.029,7.864-.039a4.377,4.377,0,0,0,.694-.133V35.169c-3.075-.685-6.237-1.448-9.431-2.028-.413-.075-1.1.718-1.486,1.24A5.611,5.611,0,0,1,2.5,35.83a5.6,5.6,0,0,1,6.243-9.31,4.233,4.233,0,0,1,1.738,1.868c.536,1.629,1.726,1.986,3.15,2.264,2.489.486,4.962,1.059,7.6,1.63.258-3.339.625-6.3-2.456-8.9-4-3.366-7.465-7.352-11.213-11.018a3.816,3.816,0,0,0-2.022-1.028,5.917,5.917,0,0,1-5.489-5A5.828,5.828,0,0,1,3.492.5a5.651,5.651,0,0,1,6.8,1.916c1.529,2.1,1.35,4.752-.474,7.038-.16.2-.311.407-.356.466L22,22.467c1.888-3.712,5.322-4.312,9.207-3.862l.285-.582c-2.931-2.308-5.669-4.945-8.855-6.822C20,9.647,18.378,8.067,18.554,5.2A5.751,5.751,0,0,1,23.226.086a5.75,5.75,0,0,1,5.876,3c1.276,2.421.814,4.763-1.366,6.916-.186.184-.379.362-.678.647a100.526,100.526,0,0,0,8.581,7.319c1.289.891,3.431.549,5.5.807,0-2.579.046-4.836-.049-7.088-.015-.338-.645-.718-1.06-.961a5.68,5.68,0,0,1-2.858-6.676,5.614,5.614,0,0,1,10.8.1A5.817,5.817,0,0,1,45.2,10.7a2.894,2.894,0,0,0-1.17,1.9,48.627,48.627,0,0,0-.044,5.036,7.052,7.052,0,0,0,.089.723c2.654.344,5.137.579,7.311-1.742,2.01-2.147,4.39-3.947,6.679-5.962C55.9,8.782,54.666,6.613,55.722,3.72A5.813,5.813,0,0,1,61.4.02a5.946,5.946,0,0,1,5.121,4.467,5.3,5.3,0,0,1-2.894,6.073c-4.052,1.578-6.465,5.113-9.885,7.8,3.881-.095,7.512.21,9.28,4L75.551,9.83c-.024-.033-.288-.4-.556-.755A5.47,5.47,0,0,1,75.037,2.2,5.5,5.5,0,0,1,81.726.538a5.815,5.815,0,0,1,3.368,5.7,6.059,6.059,0,0,1-4.987,5.1,5.844,5.844,0,0,0-2.875,1.4c-3.92,3.778-7.68,7.722-11.612,11.486a4.993,4.993,0,0,0-1.893,4.546,29.081,29.081,0,0,1,.026,3.568c3.28-.727,6.351-1.368,9.393-2.129.445-.111.849-.745,1.1-1.228a5.576,5.576,0,0,1,6.283-3.239,5.639,5.639,0,0,1,4.581,5.181A5.857,5.857,0,0,1,81.3,36.534c-2.5.878-5-.07-6.679-2.4-.349-.483-1.142-1.063-1.613-.974-3.072.578-6.111,1.329-9.162,2.023V46.8c3.159,0,6.232.061,9.3-.061.5-.02,1.088-.768,1.424-1.31a5.625,5.625,0,0,1,7.876-1.939A5.563,5.563,0,0,1,84.069,51.4a5.683,5.683,0,0,1-7.841,1.439c-.436-.3-1.025-.657-1.141-1.1-.672-2.541-2.639-2.166-4.49-2.141-2.083.028-4.167.021-6.25.038a1.75,1.75,0,0,0-.435.137,2.606,2.606,0,0,0,1.063,3.267c5.036,3.529,6.7,8.264,6.065,14.378-.531,5.121-.109,10.34-.109,15.517v2.063H68.167V80.8c0-5.781-.119-11.565.058-17.341a6.139,6.139,0,0,0-2.354-5.566,10.543,10.543,0,0,1-1.518-1.868l-.6.262c0,2.235.065,4.473-.038,6.7-.033.7-.361,1.761-.842,1.96a2.483,2.483,0,0,1-2.009-.74C57.343,60.8,53.9,57.294,50.425,53.833c-1.631-1.623-2.947-1.811-4.18-.651-1.3,1.227-1.135,2.634.52,4.333a3.369,3.369,0,0,0,.424.43c4.328,3.052,6.08,7.114,5.37,12.438-.138,1.033,1.258,2.274,1.959,3.412.667,1.083,1.351,2.155,2.028,3.232a17.881,17.881,0,0,1-3.638.833c-4.761.1-9.525.04-14.541.04v7.12H35.591V77.9c-2.422,0-4.678.01-6.934,0-4.441-.025-7.268-2.856-7.277-7.308q-.018-9.276,0-18.553V49.611M49.484,66.682a5.532,5.532,0,0,0-5.522-5.828,18.3,18.3,0,0,1-4.984-.391c-7.25-1.7-11.867-9.36-10.234-16.783A14.151,14.151,0,1,1,55.374,52.8c-.232.519-.412,1.438-.139,1.745,1.713,1.92,3.563,3.718,5.638,5.833v-30.4h-36.6V66.593c.667.035,1.195.086,1.722.086,7.784.005,15.569,0,23.485,0m3.175-14.823a11.318,11.318,0,1,0-20.464-.476c2.078,4.581,6.763,7.346,11.033,6.511-1.054-3.507-.547-5.7,1.67-7.211,2.437-1.664,4.435-1.383,7.761,1.176M24.285,26.914H60.844c.383-3.8-1.15-5.612-4.77-5.622q-13.508-.038-27.017,0c-3.62.01-5.152,1.817-4.772,5.622m24.8,42.655H24.259c-.3,3.9,1.264,5.653,5.055,5.672,6.973.035,13.947.014,20.92,0a3.4,3.4,0,0,0,.839-.121l-1.991-5.552M2.837,48.3a3.033,3.033,0,0,0,2.818,2.846,2.983,2.983,0,0,0,2.853-2.974,2.907,2.907,0,0,0-2.785-2.825A2.963,2.963,0,0,0,2.837,48.3M79.5,45.343a2.9,2.9,0,0,0-2.878,2.78,2.839,2.839,0,1,0,5.672.118,2.969,2.969,0,0,0-2.794-2.9M42.64,2.83a3.009,3.009,0,0,0-2.989,2.875,2.981,2.981,0,0,0,2.835,2.8,2.943,2.943,0,0,0,2.977-2.844A2.988,2.988,0,0,0,42.64,2.83M2.843,30.948a2.868,2.868,0,0,0,2.537,3.09A2.816,2.816,0,0,0,8.5,31.579a3,3,0,0,0-2.6-3.265,3.04,3.04,0,0,0-3.06,2.635m76.652,3.133a2.92,2.92,0,0,0,2.8-2.872A3.034,3.034,0,0,0,79.286,28.3a2.99,2.99,0,0,0-2.663,3.012,2.846,2.846,0,0,0,2.872,2.765M79.407,8.5A2.855,2.855,0,0,0,82.3,5.762a2.958,2.958,0,0,0-2.73-2.933,2.823,2.823,0,0,0-2.942,2.879A2.713,2.713,0,0,0,79.407,8.5M8.505,5.669a2.849,2.849,0,0,0-2.784-2.84A2.954,2.954,0,0,0,2.835,5.6,2.846,2.846,0,0,0,5.764,8.5,2.714,2.714,0,0,0,8.505,5.669m18.514.087A3.01,3.01,0,0,0,24.254,2.83a2.833,2.833,0,0,0-2.936,2.688,2.735,2.735,0,0,0,2.8,2.983,2.929,2.929,0,0,0,2.9-2.746M60.985,2.829a2.992,2.992,0,0,0-2.874,2.814A2.917,2.917,0,0,0,61.1,8.5a2.726,2.726,0,0,0,2.712-2.876,2.836,2.836,0,0,0-2.831-2.8" transform="translate(0 0)" fill="#fff"/>
          <rect id="Rectángulo_52997" data-name="Rectángulo 52997" width="2.487" height="2.63" transform="translate(27.175 55.413)" fill="#fff"/>
          <rect id="Rectángulo_52998" data-name="Rectángulo 52998" width="2.452" height="2.587" transform="translate(27.193 61.114)" fill="#fff"/>
          <rect id="Rectángulo_52999" data-name="Rectángulo 52999" width="2.601" height="2.506" transform="translate(32.824 61.084)" fill="#fff"/>
          <path id="Trazado_212879" data-name="Trazado 212879" d="M98.486,99.329l2.51,2.044c-3.246,3.184-6.2,6.186-9.312,9.021a2.575,2.575,0,0,1-2.392-.159,44.179,44.179,0,0,1-4.051-3.637l2.133-2.233,2.757,3.527,8.354-8.563" transform="translate(-50.86 -59.265)" fill="#fff"/>
        </g>
      </g>
    </g>
    <rect id="Rectángulo_53238" data-name="Rectángulo 53238" width="457" height="110" transform="translate(2524 -7578)" fill="none"/>
  </g>
</svg>
