<svg xmlns="http://www.w3.org/2000/svg" xmlns:xlink="http://www.w3.org/1999/xlink" width="457" height="110" viewBox="0 0 457 110">
  <defs>
    <clipPath id="clip-path">
      <rect id="Rectángulo_52996" data-name="Rectángulo 52996" width="81.146" height="81.192" fill="#fff"/>
    </clipPath>
  </defs>
  <g id="Grupo_172869" data-name="Grupo 172869" transform="translate(-2005 7578)">
    <g id="Grupo_172867" data-name="Grupo 172867" transform="translate(334 8.563)">
      <path id="Trazado_213451" data-name="Trazado 213451" d="M8.842,11.771H3.779V17H1.143V4.2H9.475V6.339h-5.7v3.3H8.842Zm1.415.387A5.64,5.64,0,0,1,10.8,9.635a3.989,3.989,0,0,1,1.569-1.714,4.577,4.577,0,0,1,2.377-.606A4.33,4.33,0,0,1,17.89,8.492a4.727,4.727,0,0,1,1.358,3.2l.018.65a4.97,4.97,0,0,1-1.222,3.511,4.247,4.247,0,0,1-3.278,1.323,4.268,4.268,0,0,1-3.283-1.318,5.058,5.058,0,0,1-1.226-3.586Zm2.54.18a3.555,3.555,0,0,0,.51,2.073,1.831,1.831,0,0,0,2.9.009,3.89,3.89,0,0,0,.519-2.267,3.519,3.519,0,0,0-.519-2.06,1.686,1.686,0,0,0-1.459-.731,1.658,1.658,0,0,0-1.441.726A3.955,3.955,0,0,0,12.8,12.338ZM26.174,9.872a6.9,6.9,0,0,0-.914-.07,1.86,1.86,0,0,0-1.89.976V17H20.83V7.49h2.4l.07,1.134a2.354,2.354,0,0,1,2.118-1.31,2.662,2.662,0,0,1,.791.114Zm3.6-2.382.079,1.063A3.342,3.342,0,0,1,32.59,7.314a2.536,2.536,0,0,1,2.522,1.45,3.265,3.265,0,0,1,2.856-1.45,2.836,2.836,0,0,1,2.3.9,4.141,4.141,0,0,1,.756,2.711V17H38.479V10.922a1.818,1.818,0,0,0-.316-1.185,1.4,1.4,0,0,0-1.116-.374,1.585,1.585,0,0,0-1.582,1.092L35.473,17h-2.54V10.93a1.8,1.8,0,0,0-.325-1.2,1.414,1.414,0,0,0-1.107-.37,1.645,1.645,0,0,0-1.564.9V17H27.4V7.49ZM48.489,17a2.821,2.821,0,0,1-.255-.853,3.073,3.073,0,0,1-2.4,1.028,3.376,3.376,0,0,1-2.316-.809,2.6,2.6,0,0,1-.918-2.039,2.687,2.687,0,0,1,1.121-2.32,5.529,5.529,0,0,1,3.239-.817h1.169v-.545a1.567,1.567,0,0,0-.338-1.055,1.331,1.331,0,0,0-1.068-.4,1.513,1.513,0,0,0-1.006.308,1.045,1.045,0,0,0-.365.844h-2.54a2.551,2.551,0,0,1,.51-1.529,3.37,3.37,0,0,1,1.441-1.1,5.253,5.253,0,0,1,2.092-.4,4.15,4.15,0,0,1,2.791.883,3.09,3.09,0,0,1,1.033,2.483V14.8a4.546,4.546,0,0,0,.378,2.048V17Zm-2.1-1.767a2.188,2.188,0,0,0,1.037-.25,1.645,1.645,0,0,0,.7-.672V12.676H47.18q-1.907,0-2.03,1.318l-.009.149a1.017,1.017,0,0,0,.334.782A1.3,1.3,0,0,0,46.389,15.233ZM55.67,5.152V7.49H57.3V9.354H55.67V14.1a1.133,1.133,0,0,0,.2.756,1.015,1.015,0,0,0,.773.229,4.051,4.051,0,0,0,.747-.062v1.925a5.229,5.229,0,0,1-1.538.229,2.425,2.425,0,0,1-2.725-2.7V9.354H51.741V7.49H53.13V5.152Zm2.382,7A5.64,5.64,0,0,1,58.6,9.635a3.989,3.989,0,0,1,1.569-1.714,4.577,4.577,0,0,1,2.377-.606,4.33,4.33,0,0,1,3.142,1.178,4.727,4.727,0,0,1,1.358,3.2l.018.65a4.97,4.97,0,0,1-1.222,3.511,4.735,4.735,0,0,1-6.561,0,5.058,5.058,0,0,1-1.226-3.586Zm2.54.18a3.555,3.555,0,0,0,.51,2.073,1.831,1.831,0,0,0,2.9.009,3.89,3.89,0,0,0,.519-2.267A3.519,3.519,0,0,0,64,10.093a1.686,1.686,0,0,0-1.459-.731,1.658,1.658,0,0,0-1.441.726A3.955,3.955,0,0,0,60.592,12.338Zm13.184,2.035a.818.818,0,0,0-.461-.734,5.241,5.241,0,0,0-1.481-.479q-3.393-.712-3.393-2.883a2.613,2.613,0,0,1,1.05-2.114,4.237,4.237,0,0,1,2.747-.848,4.56,4.56,0,0,1,2.9.853,2.687,2.687,0,0,1,1.085,2.215h-2.54a1.229,1.229,0,0,0-.352-.9,1.488,1.488,0,0,0-1.1-.356,1.52,1.52,0,0,0-.993.29.916.916,0,0,0-.352.738.783.783,0,0,0,.4.681,4.114,4.114,0,0,0,1.349.448,11.019,11.019,0,0,1,1.6.426,2.628,2.628,0,0,1,2.013,2.558,2.481,2.481,0,0,1-1.116,2.1,4.815,4.815,0,0,1-2.883.8,5.029,5.029,0,0,1-2.123-.426,3.561,3.561,0,0,1-1.455-1.169,2.716,2.716,0,0,1-.527-1.6H70.55a1.326,1.326,0,0,0,.5,1.037,1.987,1.987,0,0,0,1.248.36,1.839,1.839,0,0,0,1.1-.277A.861.861,0,0,0,73.775,14.372ZM87.873,17a2.821,2.821,0,0,1-.255-.853,3.073,3.073,0,0,1-2.4,1.028,3.376,3.376,0,0,1-2.316-.809,2.6,2.6,0,0,1-.918-2.039,2.687,2.687,0,0,1,1.121-2.32,5.529,5.529,0,0,1,3.239-.817h1.169v-.545a1.567,1.567,0,0,0-.338-1.055,1.331,1.331,0,0,0-1.068-.4A1.513,1.513,0,0,0,85.1,9.5a1.045,1.045,0,0,0-.365.844H82.2a2.551,2.551,0,0,1,.51-1.529,3.37,3.37,0,0,1,1.441-1.1,5.253,5.253,0,0,1,2.092-.4,4.15,4.15,0,0,1,2.791.883,3.09,3.09,0,0,1,1.033,2.483V14.8a4.546,4.546,0,0,0,.378,2.048V17Zm-2.1-1.767a2.188,2.188,0,0,0,1.037-.25,1.645,1.645,0,0,0,.7-.672V12.676h-.949q-1.907,0-2.03,1.318l-.009.149a1.017,1.017,0,0,0,.334.782A1.3,1.3,0,0,0,85.772,15.233Zm14.81-2.9a5.758,5.758,0,0,1-.976,3.564,3.231,3.231,0,0,1-2.725,1.279,2.969,2.969,0,0,1-2.47-1.187L94.3,17H92.013V3.5h2.54V8.343a2.893,2.893,0,0,1,2.312-1.028,3.258,3.258,0,0,1,2.729,1.279,5.767,5.767,0,0,1,.989,3.6Zm-2.54-.194a3.8,3.8,0,0,0-.457-2.111,1.544,1.544,0,0,0-1.362-.666,1.675,1.675,0,0,0-1.67,1v3.764a1.7,1.7,0,0,0,1.688,1,1.569,1.569,0,0,0,1.617-1.217A6.294,6.294,0,0,0,98.042,12.139ZM104.827,17h-2.549V7.49h2.549Zm-2.7-11.971a1.251,1.251,0,0,1,.382-.94,1.648,1.648,0,0,1,2.079,0,1.244,1.244,0,0,1,.387.94,1.247,1.247,0,0,1-.391.949,1.629,1.629,0,0,1-2.065,0A1.247,1.247,0,0,1,102.129,5.029ZM111.3,17.176a4.668,4.668,0,0,1-3.406-1.283,4.561,4.561,0,0,1-1.314-3.419v-.246a5.745,5.745,0,0,1,.554-2.562,4.064,4.064,0,0,1,1.569-1.74,4.4,4.4,0,0,1,2.316-.611,3.947,3.947,0,0,1,3.072,1.23,5,5,0,0,1,1.121,3.489v1.037h-6.056a2.36,2.36,0,0,0,.743,1.494,2.245,2.245,0,0,0,1.569.563,2.742,2.742,0,0,0,2.294-1.063l1.248,1.4a3.813,3.813,0,0,1-1.547,1.261A5.075,5.075,0,0,1,111.3,17.176Zm-.29-7.813a1.587,1.587,0,0,0-1.226.512,2.651,2.651,0,0,0-.6,1.466h3.533v-.2a1.891,1.891,0,0,0-.457-1.311A1.638,1.638,0,0,0,111.006,9.362Zm10.986.51a6.9,6.9,0,0,0-.914-.07,1.86,1.86,0,0,0-1.89.976V17h-2.54V7.49h2.4l.07,1.134a2.354,2.354,0,0,1,2.118-1.31,2.662,2.662,0,0,1,.791.114Zm4.7-4.72V7.49h1.626V9.354h-1.626V14.1a1.133,1.133,0,0,0,.2.756,1.015,1.015,0,0,0,.773.229,4.051,4.051,0,0,0,.747-.062v1.925a5.229,5.229,0,0,1-1.538.229,2.425,2.425,0,0,1-2.725-2.7V9.354h-1.389V7.49h1.389V5.152Zm2.382,7a5.64,5.64,0,0,1,.545-2.522,3.989,3.989,0,0,1,1.569-1.714,4.577,4.577,0,0,1,2.377-.606,4.33,4.33,0,0,1,3.142,1.178,4.727,4.727,0,0,1,1.358,3.2l.018.65a4.97,4.97,0,0,1-1.222,3.511,4.735,4.735,0,0,1-6.561,0,5.058,5.058,0,0,1-1.226-3.586Zm2.54.18a3.555,3.555,0,0,0,.51,2.073,1.831,1.831,0,0,0,2.9.009,3.89,3.89,0,0,0,.519-2.267,3.519,3.519,0,0,0-.519-2.06,1.686,1.686,0,0,0-1.459-.731,1.658,1.658,0,0,0-1.441.726A3.955,3.955,0,0,0,131.616,12.338ZM144.8,14.372a.818.818,0,0,0-.461-.734,5.241,5.241,0,0,0-1.481-.479q-3.393-.712-3.393-2.883a2.613,2.613,0,0,1,1.05-2.114,4.237,4.237,0,0,1,2.747-.848,4.56,4.56,0,0,1,2.9.853,2.687,2.687,0,0,1,1.085,2.215H144.7a1.229,1.229,0,0,0-.352-.9,1.488,1.488,0,0,0-1.1-.356,1.52,1.52,0,0,0-.993.29.916.916,0,0,0-.352.738.783.783,0,0,0,.4.681,4.114,4.114,0,0,0,1.349.448,11.019,11.019,0,0,1,1.6.426,2.628,2.628,0,0,1,2.013,2.558,2.481,2.481,0,0,1-1.116,2.1,4.815,4.815,0,0,1-2.883.8,5.029,5.029,0,0,1-2.123-.426,3.561,3.561,0,0,1-1.455-1.169,2.716,2.716,0,0,1-.527-1.6h2.408a1.326,1.326,0,0,0,.5,1.037,1.987,1.987,0,0,0,1.248.36,1.839,1.839,0,0,0,1.1-.277A.861.861,0,0,0,144.8,14.372Zm12.138-.967L158.7,7.49h2.725L157.6,18.477l-.211.5a2.9,2.9,0,0,1-2.812,1.863,4,4,0,0,1-1.125-.167V18.749l.387.009a2.09,2.09,0,0,0,1.077-.22,1.443,1.443,0,0,0,.558-.729l.3-.782L152.438,7.49h2.733Zm13.922,1.723A1.666,1.666,0,0,0,172,14.741a1.355,1.355,0,0,0,.457-1.028h2.382a3.258,3.258,0,0,1-.527,1.771,3.48,3.48,0,0,1-1.419,1.248,4.442,4.442,0,0,1-1.991.444,4.129,4.129,0,0,1-3.217-1.3,5.13,5.13,0,0,1-1.178-3.582v-.167a5.071,5.071,0,0,1,1.169-3.507,4.08,4.08,0,0,1,3.208-1.31,4,4,0,0,1,2.861,1.015,3.594,3.594,0,0,1,1.094,2.7h-2.382A1.745,1.745,0,0,0,172,9.826a1.7,1.7,0,0,0-2.5.183,3.749,3.749,0,0,0-.453,2.1v.264a3.8,3.8,0,0,0,.448,2.113A1.549,1.549,0,0,0,170.859,15.128Zm9.809,2.048a4.668,4.668,0,0,1-3.406-1.283,4.561,4.561,0,0,1-1.314-3.419v-.246a5.745,5.745,0,0,1,.554-2.562,4.064,4.064,0,0,1,1.569-1.74,4.4,4.4,0,0,1,2.316-.611,3.947,3.947,0,0,1,3.072,1.23,5,5,0,0,1,1.121,3.489v1.037h-6.056a2.36,2.36,0,0,0,.743,1.494,2.245,2.245,0,0,0,1.569.563,2.742,2.742,0,0,0,2.294-1.063l1.248,1.4a3.813,3.813,0,0,1-1.547,1.261A5.075,5.075,0,0,1,180.668,17.176Zm-.29-7.813a1.587,1.587,0,0,0-1.226.512,2.651,2.651,0,0,0-.6,1.466h3.533v-.2a1.891,1.891,0,0,0-.457-1.311A1.638,1.638,0,0,0,180.378,9.362Zm10.986.51a6.9,6.9,0,0,0-.914-.07,1.86,1.86,0,0,0-1.89.976V17h-2.54V7.49h2.4l.07,1.134a2.354,2.354,0,0,1,2.118-1.31,2.662,2.662,0,0,1,.791.114Zm6.565,0a6.9,6.9,0,0,0-.914-.07,1.86,1.86,0,0,0-1.89.976V17h-2.54V7.49h2.4l.07,1.134a2.354,2.354,0,0,1,2.118-1.31,2.662,2.662,0,0,1,.791.114ZM204.4,17a2.821,2.821,0,0,1-.255-.853,3.073,3.073,0,0,1-2.4,1.028,3.376,3.376,0,0,1-2.316-.809,2.6,2.6,0,0,1-.918-2.039,2.687,2.687,0,0,1,1.121-2.32,5.529,5.529,0,0,1,3.239-.817h1.169v-.545a1.567,1.567,0,0,0-.338-1.055,1.331,1.331,0,0,0-1.068-.4,1.513,1.513,0,0,0-1.006.308,1.045,1.045,0,0,0-.365.844h-2.54a2.551,2.551,0,0,1,.51-1.529,3.37,3.37,0,0,1,1.441-1.1,5.253,5.253,0,0,1,2.092-.4,4.15,4.15,0,0,1,2.791.883,3.09,3.09,0,0,1,1.033,2.483V14.8a4.546,4.546,0,0,0,.378,2.048V17Zm-2.1-1.767a2.188,2.188,0,0,0,1.037-.25,1.645,1.645,0,0,0,.7-.672V12.676h-.949q-1.907,0-2.03,1.318l-.009.149a1.017,1.017,0,0,0,.334.782A1.3,1.3,0,0,0,202.3,15.233Zm5.845-3.059a5.731,5.731,0,0,1,1-3.542,3.237,3.237,0,0,1,2.729-1.318,2.913,2.913,0,0,1,2.294,1.037V3.5h2.549V17h-2.294l-.123-1.011a2.989,2.989,0,0,1-2.443,1.187,3.228,3.228,0,0,1-2.694-1.323A5.916,5.916,0,0,1,208.143,12.175Zm2.54.181a3.775,3.775,0,0,0,.466,2.057,1.516,1.516,0,0,0,1.354.715,1.7,1.7,0,0,0,1.661-1V10.36a1.675,1.675,0,0,0-1.644-1Q210.683,9.362,210.683,12.356Zm7.6-.2a5.64,5.64,0,0,1,.545-2.522A3.989,3.989,0,0,1,220.4,7.921a4.577,4.577,0,0,1,2.377-.606,4.33,4.33,0,0,1,3.142,1.178,4.727,4.727,0,0,1,1.358,3.2l.018.65a4.97,4.97,0,0,1-1.222,3.511,4.735,4.735,0,0,1-6.561,0,5.058,5.058,0,0,1-1.226-3.586Zm2.54.18a3.555,3.555,0,0,0,.51,2.073,1.831,1.831,0,0,0,2.9.009,3.89,3.89,0,0,0,.519-2.267,3.519,3.519,0,0,0-.519-2.06,1.686,1.686,0,0,0-1.459-.731,1.658,1.658,0,0,0-1.441.726A3.955,3.955,0,0,0,220.825,12.338Zm13.184,2.035a.818.818,0,0,0-.461-.734,5.241,5.241,0,0,0-1.481-.479q-3.393-.712-3.393-2.883a2.613,2.613,0,0,1,1.05-2.114,4.237,4.237,0,0,1,2.747-.848,4.56,4.56,0,0,1,2.9.853,2.687,2.687,0,0,1,1.085,2.215h-2.54a1.229,1.229,0,0,0-.352-.9,1.488,1.488,0,0,0-1.1-.356,1.52,1.52,0,0,0-.993.29.916.916,0,0,0-.352.738.783.783,0,0,0,.4.681,4.114,4.114,0,0,0,1.349.448,11.019,11.019,0,0,1,1.6.426,2.628,2.628,0,0,1,2.013,2.558,2.481,2.481,0,0,1-1.116,2.1,4.815,4.815,0,0,1-2.883.8,5.029,5.029,0,0,1-2.123-.426,3.561,3.561,0,0,1-1.455-1.169,2.716,2.716,0,0,1-.527-1.6h2.408a1.326,1.326,0,0,0,.5,1.037,1.987,1.987,0,0,0,1.248.36,1.839,1.839,0,0,0,1.1-.277A.861.861,0,0,0,234.009,14.372Z" transform="translate(1793 -7519.279)" fill="#fff"/>
      <path id="Polígono_54" data-name="Polígono 54" d="M12.5,0,25,19H0Z" transform="translate(1700 -7560.466) rotate(90)" fill="#eeac3a"/>
      <g id="Grupo_172865" data-name="Grupo 172865" transform="translate(1700 -7570.563)">
        <g id="Grupo_172375" data-name="Grupo 172375" clip-path="url(#clip-path)">
          <path id="Trazado_212867" data-name="Trazado 212867" d="M126.459,25.708a16.046,16.046,0,0,1-1.216,2.717,6.056,6.056,0,0,1-5.283,2.67H103.306c0,1.547,0,3.042,0,4.537a3.893,3.893,0,0,1-1.583,3.294,4.146,4.146,0,0,1-2.611.737c-10.064-.012-20.127,0-30.191-.021a1.9,1.9,0,0,0-1.517.617c-1.653,1.708-3.355,3.369-5.031,5.056a1.7,1.7,0,0,1-3.1-1.255c.011-1.426,0-2.852,0-4.4-.545,0-1.06.007-1.576,0a3.756,3.756,0,0,1-3.827-3.8q-.02-12.523,0-25.046a3.75,3.75,0,0,1,3.912-3.8Q70.548,7,83.306,7h.715a21.96,21.96,0,0,1,1.095-3.631A5.842,5.842,0,0,1,90.562.045C94.206-.01,97.852.029,101.5.029c6.022,0,12.046.069,18.066-.027a6.565,6.565,0,0,1,6.773,5.126,1.512,1.512,0,0,0,.123.288ZM105.3,27.93q7.131,0,14.263,0c2.461,0,3.728-1.252,3.729-3.688q0-8.678,0-17.357c0-2.412-1.26-3.688-3.648-3.689q-14.263,0-28.525,0c-2.389,0-3.649,1.276-3.65,3.688q0,8.679,0,17.357c0,2.437,1.267,3.689,3.728,3.69q7.052,0,14.1,0m-21-17.761H58.308c-1.147,0-1.272.124-1.272,1.267q0,8.043,0,16.087c0,2.641.012,5.283-.007,7.924-.005.736.277,1.076,1.029,1.049s1.531-.007,2.3-.006c1.608,0,2.128.516,2.141,2.127.005.607,0,1.215,0,2.056,1.2-1.2,2.219-2.192,3.192-3.228a2.9,2.9,0,0,1,2.3-.973q15.33.042,30.66.017c.238,0,.52.079.7-.021.285-.157.7-.428.715-.665.064-1.547.033-3.1.033-4.71h-.949c-2.746,0-5.493.005-8.239,0A6.338,6.338,0,0,1,84.3,24.454q-.009-4.755,0-9.509V10.169" transform="translate(-45.314 -0.001)" fill="#fff"/>
          <path id="Trazado_212868" data-name="Trazado 212868" d="M11.25,297.4a2.146,2.146,0,0,1-1.122-2.164c.045-2.667.016-5.335.016-8v-.8a32.025,32.025,0,0,1-3.415-.47A9.068,9.068,0,0,1,.01,276.514a8.957,8.957,0,0,1,7.566-8.262,26.884,26.884,0,0,1,5.447-.147,20.012,20.012,0,0,0,9.4-1.815c7.4-3.129,14.9-6.009,22.326-9.065a1.772,1.772,0,0,1,2.661,1.784c-.094,3.484-.017,6.972-.04,10.459,0,.523.117.785.65.958a7.11,7.11,0,0,1-.054,13.542c-.173.057-.342.126-.584.216v2.192c0,2.985-.028,5.97.016,8.954a2.026,2.026,0,0,1-1.122,2.069h-.951a3.574,3.574,0,0,0-.342-.181q-9.44-3.8-18.882-7.6l-6.3-2.536v.868c0,2.4-.033,4.8.016,7.2A2.251,2.251,0,0,1,18.7,297.4Zm32.942-36.47c-1.072.432-2.077.888-3.117,1.239a1,1,0,0,0-.775,1.148c.027,5.124.016,10.249.012,15.374a6.7,6.7,0,0,1-.069,1.1,1.521,1.521,0,0,1-1.421,1.266,1.5,1.5,0,0,1-1.572-1.07,4.35,4.35,0,0,1-.138-1.17q-.013-7.053-.006-14.106v-.884c-.2.055-.3.072-.4.11-5.472,2.206-10.939,4.423-16.42,6.606-.513.2-.488.526-.487.925,0,3.8.013,7.608-.011,11.411a.934.934,0,0,0,.688,1.041Q31.962,288.5,43.43,293.13c.237.1.483.17.761.267ZM16.555,283V271.246c-2.443,0-4.819-.005-7.2.005a10.019,10.019,0,0,0-1.1.118,5.93,5.93,0,0,0-5.087,5.778,5.769,5.769,0,0,0,5.089,5.821c2.733.164,5.483.035,8.294.035m.007,3.342H13.368v7.862h3.194Zm30.872-12.685v7.051a3.836,3.836,0,0,0,2.331-3.574,3.8,3.8,0,0,0-2.331-3.477" transform="translate(0 -216.205)" fill="#fff"/>
          <path id="Trazado_212870" data-name="Trazado 212870" d="M368.207,377.473c-1.451,0-2.9.023-4.352-.009a1.6,1.6,0,0,1-1.617-1.254,1.527,1.527,0,0,1,.883-1.759,2.765,2.765,0,0,1,1-.161q4.155-.018,8.309,0c1.184.005,1.88.6,1.892,1.557.013.993-.715,1.62-1.922,1.629-1.4.01-2.8,0-4.194,0Z" transform="translate(-304.687 -314.846)" fill="#fff"/>
          <path id="Trazado_212871" data-name="Trazado 212871" d="M352.248,434.166c-.3.383-.563.979-1.008,1.2a1.7,1.7,0,0,1-1.518-.056,48.224,48.224,0,0,1-3.7-3.657,1.539,1.539,0,0,1,2.2-2.091c1.237,1.139,2.407,2.352,3.574,3.564a3.884,3.884,0,0,1,.452,1.044" transform="translate(-290.831 -361.063)" fill="#fff"/>
          <path id="Trazado_212872" data-name="Trazado 212872" d="M346.957,304.593a6.4,6.4,0,0,1-1.188-.953,1.22,1.22,0,0,1,.046-1.611c1.128-1.215,2.293-2.4,3.511-3.524a1.5,1.5,0,0,1,2.014.176,1.449,1.449,0,0,1,.116,2.015c-1.1,1.2-2.286,2.331-3.465,3.459a3.8,3.8,0,0,1-1.034.438" transform="translate(-290.625 -250.838)" fill="#fff"/>
          <path id="Trazado_212873" data-name="Trazado 212873" d="M335.046,56.451c0-1.953-.011-3.906,0-5.86.013-1.785,1.188-2.453,2.742-1.559q5.07,2.917,10.129,5.854c1.553.9,1.567,2.27.027,3.163q-5.094,2.955-10.2,5.888c-1.508.866-2.682.192-2.7-1.548-.017-1.979,0-3.959,0-5.939m9.235.024-6-3.461v6.923l6-3.461" transform="translate(-281.837 -40.914)" fill="#fff"/>
          <path id="Trazado_212874" data-name="Trazado 212874" d="M113.817,104.993q3.8,0,7.593,0c1.166,0,1.881.59,1.906,1.547.025.979-.72,1.614-1.917,1.615q-7.593,0-15.186,0c-1.164,0-1.883-.593-1.908-1.547-.025-.975.724-1.613,1.919-1.615q3.8-.007,7.593,0" transform="translate(-87.741 -88.319)" fill="#fff"/>
          <path id="Trazado_212875" data-name="Trazado 212875" d="M110.871,160.893c1.554,0,3.109-.006,4.663,0,1.137.006,1.851.645,1.833,1.612a1.6,1.6,0,0,1-1.817,1.548q-4.7.011-9.405,0a1.6,1.6,0,1,1-.016-3.16c1.581-.009,3.162,0,4.742,0" transform="translate(-87.74 -135.341)" fill="#fff"/>
          <path id="Trazado_212876" data-name="Trazado 212876" d="M207.284,162.475a1.58,1.58,0,1,1-1.594-1.544,1.608,1.608,0,0,1,1.594,1.544" transform="translate(-171.709 -135.375)" fill="#fff"/>
          <path id="Trazado_212877" data-name="Trazado 212877" d="M236.93,430.928a1.593,1.593,0,0,1-1.566,1.627,1.662,1.662,0,0,1-1.592-1.55,1.61,1.61,0,0,1,1.592-1.607,1.549,1.549,0,0,1,1.566,1.53" transform="translate(-196.648 -361.21)" fill="#fff"/>
        </g>
      </g>
    </g>
    <rect id="Rectángulo_53239" data-name="Rectángulo 53239" width="457" height="110" transform="translate(2005 -7578)" fill="none"/>
  </g>
</svg>
