<svg xmlns="http://www.w3.org/2000/svg" xmlns:xlink="http://www.w3.org/1999/xlink" width="442" height="264.867" viewBox="0 0 442 264.867">
  <defs>
    <clipPath id="clip-path">
      <rect id="Rectángulo_52472" data-name="Rectángulo 52472" width="346.69" height="264.867" fill="#ffde96"/>
    </clipPath>
    <clipPath id="clip-path-2">
      <rect id="Rectángulo_52471" data-name="Rectángulo 52471" width="346.69" height="264.565" fill="#ffde96"/>
    </clipPath>
    <linearGradient id="linear-gradient" x1="0.5" x2="0.5" y2="1" gradientUnits="objectBoundingBox">
      <stop offset="0" stop-color="#f5f5f5"/>
      <stop offset="0.25" stop-color="#f5f5f5"/>
      <stop offset="1" stop-color="#a7b3cf"/>
    </linearGradient>
    <linearGradient id="linear-gradient-2" x1="0.5" x2="0.5" y2="1" gradientUnits="objectBoundingBox">
      <stop offset="0" stop-color="#fed981"/>
      <stop offset="1" stop-color="#ffd061"/>
    </linearGradient>
  </defs>
  <g id="Grupo_172864" data-name="Grupo 172864" transform="translate(-951 -3508.02)">
    <g id="Grupo_171229" data-name="Grupo 171229" transform="translate(987.388 3508.02)" clip-path="url(#clip-path)">
      <path id="Trazado_212240" data-name="Trazado 212240" d="M1.436,137.776c4.27-28.137,17.684-56.128,35.138-79.017C59.28,28.984,95.557,5.1,138.6.668c30.463-3.134,65.2,4.849,88.756,21.97,11.714,8.513,20.741,19.106,26.071,31.25,5.765,13.137,8.222,28.192,20.646,38.505,14.93,12.393,35.55,18.324,50.975,30.154,34.2,26.231,24.216,73.613-4.595,99.784-25.934,23.558-64.41,19.2-99.007,23.641-26.263,3.371-48.993,15.661-75.834,17.988-38.833,3.366-78.924-7.425-107.407-29.707C5.04,208.31-3.9,172.929,1.436,137.776" transform="translate(0.001 0)" fill="#ffde96"/>
      <g id="Grupo_171228" data-name="Grupo 171228" opacity="0.7">
        <g id="Grupo_171227" data-name="Grupo 171227" style="isolation: isolate">
          <g id="Grupo_171226" data-name="Grupo 171226" clip-path="url(#clip-path-2)">
            <path id="Trazado_212241" data-name="Trazado 212241" d="M1.436,137.776c4.27-28.137,17.684-56.128,35.138-79.017C59.28,28.984,95.557,5.1,138.6.668c30.463-3.134,65.2,4.849,88.756,21.97,11.714,8.513,20.741,19.106,26.071,31.25,5.765,13.137,8.222,28.192,20.646,38.505,14.93,12.393,35.55,18.324,50.975,30.154,34.2,26.231,24.216,73.613-4.595,99.784-25.934,23.558-64.41,19.2-99.007,23.641-26.263,3.371-48.993,15.661-75.834,17.988-38.833,3.366-78.924-7.425-107.407-29.707C5.04,208.31-3.9,172.929,1.436,137.776" transform="translate(0.001 0)" fill="#ffde96"/>
          </g>
        </g>
      </g>
    </g>
    <g id="Grupo_90650" data-name="Grupo 90650" transform="translate(-78.596 1983.353)">
      <g id="Grupo_53286" data-name="Grupo 53286" transform="translate(1055.743 1535.508)">
        <path id="Trazado_99088" data-name="Trazado 99088" d="M1200.631,729.464Zm3.75-14.281a7.216,7.216,0,1,1-2.113,5.1,7.2,7.2,0,0,1,2.113-5.1Zm1.558-7.151a12.726,12.726,0,0,0-5.308,3.074.442.442,0,0,1-.529.064l-3.352-1.935-.018-.011a.838.838,0,0,0-1.117.316l-.014.022-2.359,4.086a.84.84,0,0,0,.3,1.137l.023.014,3.324,1.92a.44.44,0,0,1,.209.489h0a12.6,12.6,0,0,0-.281,1.524,12.777,12.777,0,0,0,.281,4.632.444.444,0,0,1-.234.5l-3.324,1.919h0a.838.838,0,0,0-.3,1.135l2.372,4.109h0a.835.835,0,0,0,1.134.3l.026-.012,3.329-1.923a.447.447,0,0,1,.527.064,12.728,12.728,0,0,0,5.327,3.08.443.443,0,0,1,.322.426v3.868a.835.835,0,0,0,.829.83h4.746a.834.834,0,0,0,.829-.83v-3.868a.445.445,0,0,1,.342-.432,12.727,12.727,0,0,0,5.308-3.074.443.443,0,0,1,.551-.05l3.329,1.922a.836.836,0,0,0,1.135-.3l.014-.022,2.359-4.088h0a.839.839,0,0,0-.3-1.135l-3.35-1.934a.445.445,0,0,1-.21-.49h0a12.56,12.56,0,0,0,.28-1.523,12.989,12.989,0,0,0,0-3.109,12.644,12.644,0,0,0-.28-1.523.443.443,0,0,1,.234-.5l3.326-1.919a.84.84,0,0,0,.3-1.135l-.013-.025-2.36-4.086h0a.836.836,0,0,0-1.134-.306h0l-3.352,1.935a.443.443,0,0,1-.538-.073,12.844,12.844,0,0,0-2.472-1.86,12.7,12.7,0,0,0-2.845-1.21.444.444,0,0,1-.323-.426v-3.868a.833.833,0,0,0-.829-.829h-4.746a.834.834,0,0,0-.829.829V707.6A.444.444,0,0,1,1205.94,708.032Z" transform="translate(-839.539 -589.378)" fill="#12263f" fill-rule="evenodd"/>
        <path id="Trazado_99089" data-name="Trazado 99089" d="M1224.825,654.944a10.729,10.729,0,1,1-2.329,3.488,10.749,10.749,0,0,1,2.329-3.488Zm3.863-1.413a9.8,9.8,0,1,0,3.727-.736,9.725,9.725,0,0,0-3.727.736Zm-1.187-7.9a17.541,17.541,0,0,0-3.877,1.655,17.979,17.979,0,0,0-1.79,1.186,17.774,17.774,0,0,0-1.635,1.4,1.12,1.12,0,0,1-1.341.163c-1.577-.911-3.234-1.811-4.779-2.759a.647.647,0,0,0-.231-.071.721.721,0,0,0-.264.02.7.7,0,0,0-.241.117.681.681,0,0,0-.174.2c-1.15,1.739-2.3,3.985-3.367,5.829a.652.652,0,0,0-.084.248.683.683,0,0,0,.021.272.672.672,0,0,0,.116.241.662.662,0,0,0,.2.174c1.418.937,3.245,1.875,4.747,2.744a1.107,1.107,0,0,1,.473.532,1.089,1.089,0,0,1,.072.234l.1.032-.11.443q-.128.523-.226,1.043t-.159,1.059c-.044.358-.077.716-.1,1.067s-.032.7-.032,1.079.011.735.032,1.078.053.71.1,1.069.1.721.159,1.059.141.7.226,1.044a1.118,1.118,0,0,1-.579,1.268l-4.2,2.428h0l-.5.288a.665.665,0,0,0-.315.416.676.676,0,0,0-.021.271.651.651,0,0,0,.084.248l3.113,5.394h0l.253.436a.654.654,0,0,0,.174.2.7.7,0,0,0,.241.118.722.722,0,0,0,.27.02.68.68,0,0,0,.246-.084c1.506-.947,3.205-1.849,4.759-2.747a1.121,1.121,0,0,1,1.337.161l0,0a17.437,17.437,0,0,0,1.636,1.4,17.434,17.434,0,0,0,5.716,2.853,1.124,1.124,0,0,1,.815,1.082l0,5.486a.673.673,0,0,0,.2.479.641.641,0,0,0,.221.151.68.68,0,0,0,.258.05h6.732a.681.681,0,0,0,.259-.05.671.671,0,0,0,.221-.149.717.717,0,0,0,.15-.223.674.674,0,0,0,.05-.258v-5.486a1.119,1.119,0,0,1,.244-.7,1.133,1.133,0,0,1,.622-.4,16.88,16.88,0,0,0,1.978-.7,17.213,17.213,0,0,0,1.9-.95,17.743,17.743,0,0,0,3.425-2.581,1.125,1.125,0,0,1,1.4-.128l4.7,2.711a.656.656,0,0,0,.249.084.711.711,0,0,0,.272-.02.7.7,0,0,0,.241-.118.676.676,0,0,0,.173-.2c1.116-1.946,2.249-3.884,3.367-5.83a.659.659,0,0,0,.083-.248.7.7,0,0,0-.02-.27.681.681,0,0,0-.116-.243.639.639,0,0,0-.2-.173l-4.751-2.744a1.1,1.1,0,0,1-.473-.532.938.938,0,0,1-.06-.18l-.125-.026.125-.5c.086-.348.162-.7.226-1.043s.115-.69.16-1.058.076-.717.1-1.07.031-.7.031-1.078-.01-.735-.031-1.078-.053-.708-.1-1.067-.1-.728-.16-1.062-.14-.693-.226-1.041a1.121,1.121,0,0,1,.576-1.268l4.706-2.717a.657.657,0,0,0,.2-.173.684.684,0,0,0,.116-.242.707.707,0,0,0,.02-.271.667.667,0,0,0-.083-.249c-1.149-1.708-2.3-3.992-3.367-5.829a.7.7,0,0,0-.686-.335.657.657,0,0,0-.248.085l-4.755,2.744a1.115,1.115,0,0,1-.713.142,1.136,1.136,0,0,1-.644-.317,17.542,17.542,0,0,0-3.411-2.568,17.308,17.308,0,0,0-3.925-1.666,1.128,1.128,0,0,1-.817-1.083l0-5.487a.676.676,0,0,0-.05-.257.688.688,0,0,0-.15-.222.674.674,0,0,0-.221-.15.682.682,0,0,0-.259-.052h-6.732a.683.683,0,0,0-.68.68v5.487a1.126,1.126,0,0,1-.867,1.095Zm-2.367-.207a18.575,18.575,0,0,0-5.622,3.729.131.131,0,0,1-.076.034.133.133,0,0,1-.082-.015q-2.4-1.384-4.8-2.77a1.631,1.631,0,0,0-.6-.187,1.673,1.673,0,0,0-1.646.825c-1.159,1.877-2.258,3.909-3.368,5.828a1.688,1.688,0,0,0,.125,1.859,1.637,1.637,0,0,0,.49.43c1.529.945,3.187,1.841,4.752,2.745a.137.137,0,0,1,.054.062.129.129,0,0,1,.006.083l-.108.444.007,0c-.049.215-.093.434-.134.657-.068.379-.127.753-.172,1.12s-.078.74-.1,1.126-.035.768-.035,1.137.011.749.035,1.137.057.763.1,1.127.1.741.173,1.121.148.745.236,1.1a.134.134,0,0,1-.007.087.14.14,0,0,1-.059.063c-1.747.933-3.519,2.03-5.245,3.027l.061.077-.052.066a1.663,1.663,0,0,0-.288.587,1.684,1.684,0,0,0-.044.653,1.657,1.657,0,0,0,.209.619l3.618,6.266.067-.04c.036.032.073.064.111.093a1.689,1.689,0,0,0,1.842.133c1.582-.84,3.211-1.854,4.772-2.757a.14.14,0,0,1,.081-.013.135.135,0,0,1,.077.035,18.494,18.494,0,0,0,7.765,4.487.134.134,0,0,1,.068.048.123.123,0,0,1,.026.08v5.486a1.686,1.686,0,0,0,1.036,1.546,1.649,1.649,0,0,0,.638.128h6.732a1.66,1.66,0,0,0,.639-.128,1.742,1.742,0,0,0,.544-.363,1.706,1.706,0,0,0,.363-.544,1.666,1.666,0,0,0,.129-.639v-5.486a.136.136,0,0,1,.026-.083.132.132,0,0,1,.074-.046l.022-.008a18.63,18.63,0,0,0,2.115-.751,18.589,18.589,0,0,0,3.9-2.256,18.419,18.419,0,0,0,1.725-1.473.135.135,0,0,1,.077-.037.142.142,0,0,1,.087.022l4.752,2.743a1.659,1.659,0,0,0,.617.209,1.726,1.726,0,0,0,.652-.044,1.672,1.672,0,0,0,.586-.289,1.654,1.654,0,0,0,.423-.475c1.248-2.007,2.428-4.207,3.619-6.268l-.064-.037c.011-.053.021-.106.027-.159a1.666,1.666,0,0,0-.332-1.237,1.653,1.653,0,0,0-.489-.431l-4.752-2.744a.135.135,0,0,1-.054-.061.147.147,0,0,1-.007-.087l.124-.5-.007,0c.042-.2.081-.394.118-.6.069-.38.128-.755.172-1.122s.079-.74.1-1.127.035-.766.035-1.137-.012-.749-.035-1.136-.058-.764-.1-1.131-.1-.737-.172-1.12-.149-.744-.236-1.1a.139.139,0,0,1,.008-.088.142.142,0,0,1,.061-.062l4.747-2.741a1.641,1.641,0,0,0,.488-.431,1.669,1.669,0,0,0,.331-1.237,1.621,1.621,0,0,0-.2-.6c-1.131-2.1-2.427-4.208-3.624-6.281l-.068.04c-.036-.032-.074-.064-.112-.093a1.669,1.669,0,0,0-.586-.289,1.719,1.719,0,0,0-.652-.044,1.643,1.643,0,0,0-.616.206l-.352.2v0l-4.407,2.543a.133.133,0,0,1-.085.016.119.119,0,0,1-.074-.037l-.012-.011a18.71,18.71,0,0,0-3.6-2.712,18.4,18.4,0,0,0-4.151-1.763.14.14,0,0,1-.069-.047.126.126,0,0,1-.026-.081v-5.487a1.678,1.678,0,0,0-.494-1.182,1.714,1.714,0,0,0-.542-.363,1.659,1.659,0,0,0-.639-.129h-6.732a1.649,1.649,0,0,0-.638.129,1.729,1.729,0,0,0-.545.363,1.67,1.67,0,0,0-.492,1.182v5.487a.144.144,0,0,1-.026.084.132.132,0,0,1-.074.045l-.021.008A18.606,18.606,0,0,0,1225.134,645.426Z" transform="translate(-840.277 -586.275)" fill="#12263f" fill-rule="evenodd"/>
        <g id="Grupo_53268" data-name="Grupo 53268" transform="translate(125.188 74.193)">
          <path id="Rectángulo_5027" data-name="Rectángulo 5027" d="M1.013,0h2.8A1.013,1.013,0,0,1,4.83,1.013v2.8A1.014,1.014,0,0,1,3.816,4.83h-2.8A1.014,1.014,0,0,1,0,3.816v-2.8A1.013,1.013,0,0,1,1.013,0Z" fill="#80bbe7"/>
          <path id="Rectángulo_5028" data-name="Rectángulo 5028" d="M1.013,0h2.8A1.013,1.013,0,0,1,4.829,1.013v2.8A1.014,1.014,0,0,1,3.815,4.83h-2.8A1.013,1.013,0,0,1,0,3.817v-2.8A1.013,1.013,0,0,1,1.013,0Z" transform="translate(9.901)" fill="#12263f"/>
          <path id="Rectángulo_5029" data-name="Rectángulo 5029" d="M1.013,0h2.8A1.013,1.013,0,0,1,4.83,1.013v2.8A1.014,1.014,0,0,1,3.816,4.83h-2.8A1.014,1.014,0,0,1,0,3.816v-2.8A1.013,1.013,0,0,1,1.013,0Z" transform="translate(19.801)" fill="#80bbe7"/>
          <path id="Rectángulo_5030" data-name="Rectángulo 5030" d="M1.013,0h2.8A1.013,1.013,0,0,1,4.83,1.013v2.8A1.014,1.014,0,0,1,3.816,4.83h-2.8A1.014,1.014,0,0,1,0,3.816v-2.8A1.013,1.013,0,0,1,1.013,0Z" transform="translate(29.701)" fill="#80bbe7"/>
        </g>
        <path id="Trazado_99108" data-name="Trazado 99108" d="M873.526,616.786c-.366,0-.663-.424-.663-.946s.3-.946.663-.946h31.022c.366,0,.662.424.662.946s-.3.946-.662.946Zm-4.206-1.892c.366,0,.662.424.662.946s-.3.946-.662.946h-2.583c-.366,0-.662-.424-.662-.946s.3-.946.662-.946Z" transform="translate(-824.044 -585.21)" fill="#12263f" fill-rule="evenodd"/>
        <path id="Trazado_99109" data-name="Trazado 99109" d="M912.62,654.231a.4.4,0,0,1,.8,0v1.8a.4.4,0,1,1-.8,0v-1.8Zm-2.728,1.461a.4.4,0,0,1,.566-.566l1.272,1.273a.4.4,0,1,1-.567.566l-1.272-1.273Zm-.9,2.962a.4.4,0,0,1,0-.8h1.8a.4.4,0,0,1,0,.8Zm1.461,2.727a.4.4,0,0,1-.566-.566l1.272-1.273a.4.4,0,0,1,.567.566l-1.272,1.273Zm2.962.894a.4.4,0,1,1-.8,0v-1.8a.4.4,0,0,1,.8,0v1.8Zm2.727-1.46a.4.4,0,0,1-.566.566l-1.271-1.273a.4.4,0,0,1,.565-.566l1.273,1.273Zm.9-2.962a.4.4,0,0,1,0,.8h-1.8a.4.4,0,1,1,0-.8Zm-1.462-2.728a.4.4,0,0,1,.566.566l-1.273,1.273a.4.4,0,0,1-.565-.566Z" transform="translate(-826.058 -587.054)" fill="#80bbe7" fill-rule="evenodd"/>
        <path id="Trazado_99110" data-name="Trazado 99110" d="M1159.943,603.805a.4.4,0,1,1,.8,0v1.8a.4.4,0,0,1-.8,0v-1.8Zm-2.727,1.461a.4.4,0,0,1,.566-.566l1.273,1.273a.4.4,0,0,1-.567.566l-1.272-1.273Zm-.895,2.961a.4.4,0,1,1,0-.8h1.8a.4.4,0,1,1,0,.8Zm1.46,2.727a.4.4,0,0,1-.566-.565l1.272-1.274a.4.4,0,0,1,.567.567l-1.273,1.272Zm2.962.9a.4.4,0,0,1-.8,0v-1.8a.4.4,0,0,1,.8,0v1.8Zm2.728-1.461a.4.4,0,0,1-.567.565l-1.273-1.272a.4.4,0,0,1,.567-.567l1.273,1.274Zm.895-2.962a.4.4,0,1,1,0,.8h-1.8a.4.4,0,1,1,0-.8ZM1162.9,604.7a.4.4,0,1,1,.567.566l-1.273,1.273a.4.4,0,0,1-.567-.566Z" transform="translate(-837.775 -584.665)" fill="#80bbe7" fill-rule="evenodd"/>
        <path id="Trazado_99111" data-name="Trazado 99111" d="M1192.072,795.663a.4.4,0,1,1,.8,0v1.8a.4.4,0,1,1-.8,0v-1.8Zm-2.728,1.461a.4.4,0,0,1,.566-.567l1.273,1.273a.4.4,0,0,1-.565.566l-1.274-1.272Zm-.895,2.961a.4.4,0,1,1,0-.8h1.8a.4.4,0,0,1,0,.8Zm1.461,2.727a.4.4,0,0,1-.566-.567l1.274-1.272a.4.4,0,0,1,.565.566l-1.273,1.273Zm2.962.895a.4.4,0,1,1-.8,0v-1.8a.4.4,0,1,1,.8,0v1.8Zm2.726-1.461a.4.4,0,1,1-.566.567l-1.272-1.273a.4.4,0,0,1,.566-.566l1.272,1.272Zm.9-2.961a.4.4,0,1,1,0,.8h-1.8a.4.4,0,0,1,0-.8Zm-1.461-2.727a.4.4,0,0,1,.566.567l-1.272,1.272a.4.4,0,0,1-.566-.566Z" transform="translate(-839.298 -593.754)" fill="#80bbe7" fill-rule="evenodd"/>
        <path id="Trazado_99112" data-name="Trazado 99112" d="M831.292,728.961a.4.4,0,1,1,.8,0v1.8a.4.4,0,1,1-.8,0v-1.8Zm-2.727,1.461a.4.4,0,0,1,.566-.567l1.273,1.273a.4.4,0,0,1-.566.566l-1.273-1.272Zm-.9,2.962a.4.4,0,0,1,0-.8h1.8a.4.4,0,1,1,0,.8Zm1.461,2.727a.4.4,0,0,1-.566-.566l1.273-1.272a.4.4,0,0,1,.566.565l-1.273,1.273Zm2.962.9a.4.4,0,0,1-.8,0v-1.8a.4.4,0,0,1,.8,0v1.8Zm2.726-1.461a.4.4,0,0,1-.565.566l-1.274-1.273a.4.4,0,0,1,.566-.565l1.272,1.272Zm.9-2.962a.4.4,0,0,1,0,.8h-1.8a.4.4,0,0,1,0-.8Zm-1.46-2.727a.4.4,0,0,1,.565.567l-1.272,1.272a.4.4,0,0,1-.566-.566Z" transform="translate(-822.205 -590.594)" fill="#80bbe7" fill-rule="evenodd"/>
        <path id="Trazado_99113" data-name="Trazado 99113" d="M1245.683,768.544a.4.4,0,1,1,.8,0v1.8a.4.4,0,1,1-.8,0v-1.8Zm-2.727,1.461a.4.4,0,0,1,.565-.566l1.274,1.272a.4.4,0,1,1-.566.567l-1.273-1.273Zm-.9,2.961a.4.4,0,1,1,0-.8h1.8a.4.4,0,0,1,0,.8Zm1.46,2.728a.4.4,0,0,1-.565-.566l1.273-1.273a.4.4,0,0,1,.566.566l-1.274,1.273Zm2.962.894a.4.4,0,1,1-.8,0v-1.8a.4.4,0,1,1,.8,0v1.8Zm2.727-1.46a.4.4,0,0,1-.565.566l-1.273-1.273a.4.4,0,1,1,.566-.566l1.273,1.273Zm.9-2.962a.4.4,0,0,1,0,.8h-1.8a.4.4,0,0,1,0-.8Zm-1.461-2.727a.4.4,0,0,1,.565.566l-1.273,1.273a.4.4,0,0,1-.566-.567Z" transform="translate(-841.837 -592.469)" fill="#80bbe7" fill-rule="evenodd"/>
        <g id="Grupo_53269" data-name="Grupo 53269" transform="translate(376.448 19.974)">
          <rect id="Rectángulo_5031" data-name="Rectángulo 5031" width="4.829" height="4.829" rx="1.013" fill="#12263f"/>
          <rect id="Rectángulo_5032" data-name="Rectángulo 5032" width="4.829" height="4.829" rx="1.013" transform="translate(9.9)" fill="#12263f"/>
          <rect id="Rectángulo_5033" data-name="Rectángulo 5033" width="4.829" height="4.829" rx="1.013" transform="translate(19.801)" fill="#12263f"/>
          <rect id="Rectángulo_5034" data-name="Rectángulo 5034" width="4.829" height="4.829" rx="1.013" transform="translate(29.701)" fill="#12263f"/>
        </g>
        <path id="Trazado_99114" data-name="Trazado 99114" d="M829.451,649.058Zm3.751-14.282a7.214,7.214,0,1,1-2.114,5.1,7.194,7.194,0,0,1,2.114-5.1Zm1.559-7.151a12.678,12.678,0,0,0-2.828,1.2,12.812,12.812,0,0,0-2.481,1.87.444.444,0,0,1-.529.065l-3.352-1.937-.018-.011a.838.838,0,0,0-1.117.316l-.014.023-2.359,4.085a.838.838,0,0,0,.3,1.137l.023.014,3.326,1.919a.442.442,0,0,1,.209.489h0a12.519,12.519,0,0,0-.28,1.524,12.871,12.871,0,0,0,0,3.109,12.538,12.538,0,0,0,.28,1.523.443.443,0,0,1-.233.5l-3.326,1.919h0a.836.836,0,0,0-.3,1.136l2.372,4.109h0a.835.835,0,0,0,1.135.3l.025-.013,3.329-1.922a.444.444,0,0,1,.527.064,12.839,12.839,0,0,0,2.481,1.87,12.7,12.7,0,0,0,2.846,1.209.444.444,0,0,1,.322.427v3.868a.834.834,0,0,0,.829.83h4.745a.836.836,0,0,0,.831-.83v-3.868a.443.443,0,0,1,.34-.431,12.718,12.718,0,0,0,5.309-3.074.444.444,0,0,1,.551-.05l3.33,1.922a.835.835,0,0,0,1.135-.3l.014-.023,2.36-4.087h0a.836.836,0,0,0-.3-1.135l-3.349-1.935a.441.441,0,0,1-.21-.488h0a12.577,12.577,0,0,0,.28-1.524,12.846,12.846,0,0,0,0-3.109,12.507,12.507,0,0,0-.28-1.524.445.445,0,0,1,.234-.5l3.326-1.919a.837.837,0,0,0,.3-1.135l-.013-.025-2.359-4.085h0a.836.836,0,0,0-1.135-.306h0l-3.353,1.937a.443.443,0,0,1-.538-.074,12.845,12.845,0,0,0-2.471-1.86,12.662,12.662,0,0,0-2.847-1.209.443.443,0,0,1-.322-.427v-3.867a.835.835,0,0,0-.831-.83h-4.745a.832.832,0,0,0-.829.83v3.867A.443.443,0,0,1,834.761,627.625Z" transform="translate(-821.954 -585.57)" fill="#12263f" fill-rule="evenodd"/>
        <g id="Grupo_53270" data-name="Grupo 53270" transform="translate(206.757 0)">
          <path id="Trazado_99115" data-name="Trazado 99115" d="M1068.964,703.974c-4.214,3.838-4.872,4.294-4.872,4.294s-2.783,5.283-1.712,5.279a2.986,2.986,0,0,0,1.924-.971s1.043,1.331,1.982.776a13.257,13.257,0,0,1,1.43-.763s1.075,1.067,1.962.371,5.123-5.267,5.123-5.267l5.6-3.67-2.232-2.01Z" transform="translate(-1040.09 -589.336)" fill="#e98daf" fill-rule="evenodd"/>
          <path id="Trazado_99116" data-name="Trazado 99116" d="M1140.333,822.366c-.086.59-.775,3.564-.764,3.638.122.876.336,2.631.336,2.631s-1.713,1.97-3.3,2.257-8.807.609-8.9.214,1.8-3.51,1.8-3.51,2.049-1.72,2.325-5.695S1140.333,822.366,1140.333,822.366Z" transform="translate(-1043.196 -594.937)" fill="#f3c6d4" fill-rule="evenodd"/>
          <path id="Trazado_99117" data-name="Trazado 99117" d="M1130.932,828.673l.884-.316a6.124,6.124,0,0,0,4.523.194,5.406,5.406,0,0,0,3.2-2.276.477.477,0,0,1,.395-.287h.593a1.274,1.274,0,0,1,1.164.748c.27.646.839,4.584.065,6.766s-1.858,1.895-1.858,1.895-4.306-1.27-7.21-.246-5.564,2.091-5.564,2.091S1127.266,831.462,1130.932,828.673Z" transform="translate(-1043.169 -595.209)" fill="#0e0226" fill-rule="evenodd"/>
          <path id="Trazado_99118" data-name="Trazado 99118" d="M1110.524,836.646l-.319-.941v-1.141c0-.428.178-1.714,1.42-1.714h4.759c1.1,0,7.07-3.033,11.655-6.764a.631.631,0,0,1,.8-.1c.48.277,1.943,1.446,2.091,1.568a.941.941,0,0,1,.079.8c-.089.173-4.332,8.578-4.332,8.578S1114.189,838.57,1110.524,836.646Z" transform="translate(-1042.367 -595.204)" fill="#1a0f44" fill-rule="evenodd"/>
          <path id="Trazado_99119" data-name="Trazado 99119" d="M1110.191,836.084a.786.786,0,0,0-.281.492v.916a1.793,1.793,0,0,0,1.783,1.166h13.21a11.288,11.288,0,0,0,4.716-1.028,27.263,27.263,0,0,1,3.4-1.245s.315-.107.315.434v1.05c0,.262-.161.975.917.975h6.426c.488,0,1.05-.279,1.05-1.279v-2.574c0-.623-.379-1.116-.785-1.116H1136a13.777,13.777,0,0,0-6.3,1.721,16.854,16.854,0,0,1-7.615,1.575H1114.7C1113.393,837.172,1111.071,836.877,1110.191,836.084Z" transform="translate(-1042.353 -595.583)" fill="#0e0226" fill-rule="evenodd"/>
          <path id="Trazado_99120" data-name="Trazado 99120" d="M1169.742,822.366c-.086.59-.775,3.564-.764,3.638.122.876.336,2.631.336,2.631s-1.713,1.97-3.3,2.257-8.806.609-8.9.214,1.8-3.51,1.8-3.51,2.049-1.72,2.325-5.695S1169.742,822.366,1169.742,822.366Z" transform="translate(-1044.589 -594.937)" fill="#f3c6d4" fill-rule="evenodd"/>
          <path id="Trazado_99121" data-name="Trazado 99121" d="M1160.342,828.673l.884-.316a6.124,6.124,0,0,0,4.523.194,5.4,5.4,0,0,0,3.2-2.276.479.479,0,0,1,.395-.287h.594a1.273,1.273,0,0,1,1.164.748,14.19,14.19,0,0,1,.065,6.766c-.774,2.182-1.859,1.895-1.859,1.895s-4.3-1.27-7.208-.246-5.565,2.091-5.565,2.091S1156.676,831.462,1160.342,828.673Z" transform="translate(-1044.562 -595.209)" fill="#0e0226" fill-rule="evenodd"/>
          <path id="Trazado_99122" data-name="Trazado 99122" d="M1139.933,836.646l-.32-.941v-1.141c0-.428.179-1.714,1.421-1.714h4.76c1.1,0,7.069-3.033,11.654-6.764a.63.63,0,0,1,.8-.1c.482.277,1.943,1.446,2.092,1.568a.947.947,0,0,1,.079.8l-4.33,8.578S1143.6,838.57,1139.933,836.646Z" transform="translate(-1043.76 -595.204)" fill="#1a0f44" fill-rule="evenodd"/>
          <path id="Trazado_99123" data-name="Trazado 99123" d="M1139.6,836.084a.786.786,0,0,0-.279.492v.916a1.792,1.792,0,0,0,1.783,1.166h13.208a11.289,11.289,0,0,0,4.716-1.028,27.323,27.323,0,0,1,3.4-1.245s.316-.107.316.434v1.05c0,.262-.161.975.917.975h6.426c.489,0,1.049-.279,1.049-1.279v-2.574c0-.623-.377-1.116-.784-1.116h-4.941a13.783,13.783,0,0,0-6.3,1.721,16.854,16.854,0,0,1-7.614,1.575h-7.392C1142.8,837.172,1140.479,836.877,1139.6,836.084Z" transform="translate(-1043.746 -595.583)" fill="#0e0226" fill-rule="evenodd"/>
          <path id="Trazado_99124" data-name="Trazado 99124" d="M1088,634.052s-2.978,5-1.109,16.356,14.761,55.573,6,78.644a2.085,2.085,0,0,0,.964,2.453c1.5.872,22.77,4.562,38.317-2.061S1120.416,637.421,1088,634.052Z" transform="translate(-1041.233 -586.117)" fill="#4c708f" fill-rule="evenodd"/>
          <path id="Trazado_99125" data-name="Trazado 99125" d="M1130.869,816.97s3.483,2.115,9.374.836a3.11,3.11,0,0,0,1.835-2.111c.333-1.557,11.342-94.215,12.674-110.665s-8.716-26.493-24.113-37.052-2.51-1.644-3.7-2.321a140.468,140.468,0,0,1-8.3,23.222l-.035,6.967a5.7,5.7,0,0,0,.351,1.379c4.692,18.649,5.245,33.53,5.95,52.289.029.548-.276-14.082.063,1.638s3.9,60.926,4.124,62.7S1130.089,816.8,1130.869,816.97Z" transform="translate(-1042.765 -587.478)" fill="#344154" fill-rule="evenodd"/>
          <path id="Trazado_99126" data-name="Trazado 99126" d="M1091.01,651.526l4.449,7.222s18.856,32.392,21.47,37.006,13.789,3.958,13.789,3.958l-23.871-69.384s-8.338-1.319-11.571-1.251-5.311,5.018-5.311,5.018Z" transform="translate(-1041.408 -585.881)" fill="#344154" fill-rule="evenodd"/>
          <path id="Trazado_99127" data-name="Trazado 99127" d="M1088,634.052s-2.978,5-1.109,16.356c1.445,8.78,9.47,37.182,9,60.284l0,0c4.106-42.048-3.461-68.649-6.1-76.363C1089.194,634.214,1088.6,634.114,1088,634.052Z" transform="translate(-1041.233 -586.117)" fill="#428fcd" fill-rule="evenodd"/>
          <path id="Trazado_99128" data-name="Trazado 99128" d="M1158.831,816.977s3.235,1.809,9.125.532a3.11,3.11,0,0,0,1.834-2.111c.333-1.558,4.739-32.624,6.072-49.073s12.514-78.161-17-98.4-35.874,14.682-35.874,14.682,27.533,11.589,28.2,42.486,5.641,87,5.863,88.775S1158.052,816.811,1158.831,816.977Z" transform="translate(-1042.972 -587.423)" fill="#5d6776" fill-rule="evenodd"/>
          <path id="Trazado_99129" data-name="Trazado 99129" d="M1162.586,819.078a17.072,17.072,0,0,0,6.7-.227,3.109,3.109,0,0,0,1.834-2.111c.333-1.557,4.739-32.624,6.072-49.073,1.013-12.479,7.687-51.013-2.039-77.724-.133.094-15.325,10.74-24.068,25.674a48.33,48.33,0,0,1,1.433,10.816c.113,5.215.35,11.147.663,17.414,3.751-4.025,8.735-9.442,11.265-12.48,4.372-5.246,9.292-3.388,11.041-.874s-4.92,65.8-5.794,73.894C1169.078,810.081,1164.969,816.045,1162.586,819.078Z" transform="translate(-1044.304 -588.765)" fill="#858d98" fill-rule="evenodd"/>
          <path id="Trazado_99130" data-name="Trazado 99130" d="M1081.541,615.048c.046-.006.175.541.718,1.456l-2.68,2.82a23.752,23.752,0,0,0,1.665,1.852,5.79,5.79,0,0,0-2.929,2.124s-2.875,8.86-2.04,9.719c-.03.036-.059.072-.09.109-5.18,6.115-8.359,4.091-9.005,3.542s-3.829-3.466-4.173-3.533-1.571,1.383-2.4.681a86.7,86.7,0,0,1-9.231-12.534c-4.379-6.914-1.907-14.877-1.907-14.877,10.676-8.667,19.547,7.655,20.621,4.916s4.136-2.992,5.835.047C1076.16,611.793,1081.479,614.593,1081.541,615.048Z" transform="translate(-1039.456 -584.686)" fill="#f3c6d4" fill-rule="evenodd"/>
          <path id="Trazado_99131" data-name="Trazado 99131" d="M1081.541,615.059c.046-.006.175.541.718,1.456l-2.68,2.82a23.812,23.812,0,0,0,1.665,1.852,6.664,6.664,0,0,0-.867.367,2.176,2.176,0,0,0-.271-1.05c-.728-.839-2.178-2.641-2.178-2.641a1.613,1.613,0,0,1-2.412-1.3c-.383-2.24-2.1-4.427-3.909-4.072s-.768,2.7-.768,2.7l4.266,6.152-.71,7.324s-6.669,1.2-5.3-1.639-2.133-5.03-6.178-9.621-6.286-4.1-7.324-3.389c-.648.443-3.656,2.461-5.827,3.915a19.7,19.7,0,0,1-.87-8.455,52.792,52.792,0,0,1,9.139-5.4c6.541,1.438,11.287,9.207,12.054,7.25,1.073-2.739,4.136-2.992,5.835.048C1076.16,611.8,1081.48,614.6,1081.541,615.059Z" transform="translate(-1039.456 -584.698)" fill="#e98daf" fill-rule="evenodd"/>
          <path id="Trazado_99132" data-name="Trazado 99132" d="M1084.321,615.595s2.079.138,3.662.207,2.885,9.306,2.885,9.306l-2.7,4.1-.628.957-2.043,3.106-.193-.958s-2.138-1.657-3.484.208-4.716-3.13-4.716-3.13S1076.492,618.441,1084.321,615.595Z" transform="translate(-1040.798 -585.243)" fill="#f3c6d4" fill-rule="evenodd"/>
          <path id="Trazado_99133" data-name="Trazado 99133" d="M1084.455,615.595s2.079.138,3.662.207,2.884,9.306,2.884,9.306l-2.7,4.1-.629.957-2.042,3.106-.193-.958s-2.138-1.657-3.484.208a.989.989,0,0,1-1.3.3l.925-3.847s.727-7.085,0-7.925c-.443-.512-1.153-1.378-1.642-1.979A9.389,9.389,0,0,1,1084.455,615.595Z" transform="translate(-1040.933 -585.243)" fill="#e98daf" fill-rule="evenodd"/>
          <path id="Trazado_99134" data-name="Trazado 99134" d="M1065.913,614.062c-.006,0-4.879,2.381-8.736-4.939,0,0-5,5.295-8.251,6.619a2.1,2.1,0,0,1-.2.069l.2-.069a7.357,7.357,0,0,1-2.917-.623,10.413,10.413,0,0,1-5.947-5.227c-2.842-5.684.547-8.581,3.608-8.2,0,0,4.591-10,7.159-12.954s8.581-1.694,8.581-1.694-.874-2.569.164-3.17,6.666.512,8.853,7.033c0,0,4.373-.714,6.671,1.513s7.39,21.562,7.417,21.664c.111,1.234-.378,2.477-1.621,2.522a6.351,6.351,0,0,1-5.377-2.512s-1.616-5.771-4.46-4.9c0,0-2.418.023-1.286,4.085a12.614,12.614,0,0,0,2.321,2.933,23.125,23.125,0,0,1,7.571,9.581c2.554,5.968-2.843,9.741-4.325,11.49s-3.97,3.112-5.756,1.6-5.822-4.931-6.435-5.447-.753-1.087-.6-1.254c0,0,2.6-2.761,4.577-4.658s3.518-3.13,3.519-5.3-.05-3.88-2.042-6.1A9.475,9.475,0,0,0,1065.913,614.062Z" transform="translate(-1038.993 -583.734)" fill="#344154" fill-rule="evenodd"/>
          <path id="Trazado_99135" data-name="Trazado 99135" d="M1057.177,609.123s-5,5.295-8.251,6.619a2.1,2.1,0,0,1-.2.069l.2-.069a7.357,7.357,0,0,1-2.917-.623,10.413,10.413,0,0,1-5.947-5.227c-2.842-5.684.547-8.581,3.608-8.2,0,0,4.591-10,7.159-12.954s8.581-1.694,8.581-1.694-.874-2.569.164-3.17,6.666.512,8.853,7.033C1068.427,590.909,1068.444,597.424,1057.177,609.123Z" transform="translate(-1038.993 -583.734)" fill="#27313f" fill-rule="evenodd"/>
          <path id="Trazado_99136" data-name="Trazado 99136" d="M1039.459,608.527c-1.65-4.742,1.416-7.128,4.21-6.778,0,0,17.709,4.171,20.115-16.848a9.794,9.794,0,0,1,.816.547C1064.833,594.143,1062.24,610.233,1039.459,608.527Z" transform="translate(-1038.993 -583.789)" fill="#344154" fill-rule="evenodd"/>
          <path id="Trazado_99137" data-name="Trazado 99137" d="M1060.188,625.726h0a1.135,1.135,0,0,1,1.6.132l.953,1.127a1.135,1.135,0,0,1-.133,1.6h0a1.134,1.134,0,0,1-1.594-.133l-.954-1.128A1.134,1.134,0,0,1,1060.188,625.726Z" transform="translate(-1039.978 -585.71)" fill="#344154" fill-rule="evenodd"/>
          <path id="Trazado_99138" data-name="Trazado 99138" d="M1063.8,628.8a1.673,1.673,0,1,1-.2,2.358A1.673,1.673,0,0,1,1063.8,628.8Z" transform="translate(-1040.14 -585.849)" fill="#ed7792" fill-rule="evenodd"/>
          <path id="Trazado_99139" data-name="Trazado 99139" d="M1060.288,623.378a.342.342,0,1,0-.148-.669,4.255,4.255,0,0,0-2.992,2.45.344.344,0,0,0,.646.234A3.551,3.551,0,0,1,1060.288,623.378Z" transform="translate(-1039.852 -585.579)" fill="#344154" fill-rule="evenodd"/>
          <path id="Trazado_99140" data-name="Trazado 99140" d="M1094.98,700.31s-14.427,5.382-15.937,6.11-3.165-5.283-3.305-6.262.893-2.126,2.85-3.247,12.83-7.423,12.83-7.423Z" transform="translate(-1040.733 -588.743)" fill="#fff" fill-rule="evenodd"/>
          <path id="Trazado_99141" data-name="Trazado 99141" d="M1097.33,697.931c-5.278,1.982-14.424,5.436-15.724,6.064-1.844.889-3.865-6.451-4.037-7.647s1.091-2.6,3.481-3.964c1.351-.774,6.182-3.57,10.127-5.855a11.118,11.118,0,0,0,4.051-7.846c.529-5.4,2.386-30.163,2.386-30.163l14.454,6.429,2.564,3.78s-5.419,23.447-7.545,28.9S1102.009,696.169,1097.33,697.931Z" transform="translate(-1040.82 -586.802)" fill="#344154" fill-rule="evenodd"/>
          <path id="Trazado_99142" data-name="Trazado 99142" d="M1171.76,664.392s10.274,17.775,12.213,44.394a1.256,1.256,0,0,1-.861,1.339c-1.029.438-9.633.025-19.743,12.436s-26.268,23.562-35.532,22.108c0,0-1-.005-1.125-1.628s-2.065-74.445-31.826-100.762a8.5,8.5,0,0,1-2.782-6.406C1092.209,631.839,1138.73,615.334,1171.76,664.392Z" transform="translate(-1041.509 -585.923)" fill="#6595bf" fill-rule="evenodd"/>
          <path id="Trazado_99143" data-name="Trazado 99143" d="M1165.079,683.358l-2.155,7.216s-4.591.224-16.5-23.663c0,0-4.738-9.2-18.414-12.014l6.091-8.669s26,4.592,25.863,6.81S1165.079,683.358,1165.079,683.358Z" transform="translate(-1043.21 -586.694)" fill="#4c708f" fill-rule="evenodd"/>
          <path id="Trazado_99144" data-name="Trazado 99144" d="M1103.049,664.955l8.58-5.762a2.268,2.268,0,0,1,2.849.363l15,16.571a1.6,1.6,0,0,1-.287,2.469l-8.581,5.761a2.267,2.267,0,0,1-2.849-.362l-15-16.572A1.6,1.6,0,0,1,1103.049,664.955Z" transform="translate(-1041.993 -587.292)" fill="#344154" fill-rule="evenodd"/>
          <path id="Trazado_99145" data-name="Trazado 99145" d="M1101.741,665.833l8.582-5.763a2.266,2.266,0,0,1,2.848.363l15,16.571a1.6,1.6,0,0,1-.288,2.469l-8.581,5.762a2.27,2.27,0,0,1-2.85-.362l-15-16.571A1.6,1.6,0,0,1,1101.741,665.833Z" transform="translate(-1041.931 -587.333)" fill="#1a212a" fill-rule="evenodd"/>
          <path id="Trazado_99146" data-name="Trazado 99146" d="M1103.054,668.216l1.382-.928a.365.365,0,0,1,.458.059l3.712,4.1a.258.258,0,0,1-.046.4l-1.381.927a.365.365,0,0,1-.459-.058l-3.713-4.1A.258.258,0,0,1,1103.054,668.216Z" transform="translate(-1042.022 -587.689)" fill="#674f9b" fill-rule="evenodd"/>
          <path id="Trazado_99147" data-name="Trazado 99147" d="M1104.265,668.261a.91.91,0,0,1,1.174.165.692.692,0,0,1-.14,1.048.909.909,0,0,1-1.173-.166A.69.69,0,0,1,1104.265,668.261Z" transform="translate(-1042.07 -587.731)" fill="#d3ebfa" fill-rule="evenodd"/>
          <path id="Trazado_99148" data-name="Trazado 99148" d="M1105.756,669.93a.91.91,0,0,1,1.173.165.691.691,0,0,1-.141,1.048.91.91,0,0,1-1.174-.165A.691.691,0,0,1,1105.756,669.93Z" transform="translate(-1042.141 -587.81)" fill="#d3ebfa" fill-rule="evenodd"/>
          <path id="Trazado_99149" data-name="Trazado 99149" d="M1106,670.209a.518.518,0,0,1,.666.093.392.392,0,0,1-.08.594.517.517,0,0,1-.665-.094A.393.393,0,0,1,1106,670.209Z" transform="translate(-1042.159 -587.826)" fill="#fff" fill-rule="evenodd"/>
          <path id="Trazado_99150" data-name="Trazado 99150" d="M1104.487,668.517a.551.551,0,0,1,.708.1.417.417,0,0,1-.085.632.549.549,0,0,1-.707-.1A.417.417,0,0,1,1104.487,668.517Z" transform="translate(-1042.087 -587.746)" fill="#fff" fill-rule="evenodd"/>
          <path id="Trazado_99151" data-name="Trazado 99151" d="M1107.184,671.524a.547.547,0,0,1,.706.1.415.415,0,0,1-.083.631.549.549,0,0,1-.707-.1A.417.417,0,0,1,1107.184,671.524Z" transform="translate(-1042.215 -587.888)" fill="#d3ebfa" fill-rule="evenodd"/>
          <path id="Trazado_99152" data-name="Trazado 99152" d="M1092.661,609.16c-.174.1-3.738,1.025-4.338,1.294s-.79,1.539-.922,3.7-1.889,18.2-1.973,19.114a1.458,1.458,0,0,0,1.034,1.734c.792.271,9.917,3.555,9.917,3.555Z" transform="translate(-1041.193 -584.938)" fill="#344154" fill-rule="evenodd"/>
          <path id="Trazado_99153" data-name="Trazado 99153" d="M1144.086,656.591s-13.789,9.137-15.375,9.989,2.592,6.087,3.354,6.828,2.412.567,4.622-.426,14.552-6.462,14.552-6.462Z" transform="translate(-1043.227 -587.185)" fill="#fff" fill-rule="evenodd"/>
          <path id="Trazado_99154" data-name="Trazado 99154" d="M1150.307,650.978s-18.032,11.952-20.108,13.065,3.39,7.961,4.386,8.93,3.154.74,6.044-.558,19.035-8.452,19.035-8.452Z" transform="translate(-1043.292 -586.919)" fill="#1a212a" fill-rule="evenodd"/>
          <path id="Trazado_99155" data-name="Trazado 99155" d="M1110.439,650.555a120.3,120.3,0,0,0,18.6,2.666c10.095.615,31.056,2,32.353,35.488,0,0,.157.177.7-.013s15.137-13.135,17.186-19.356-9.8-29.1-16.305-32.061-18.6-5.365-31.823-18.642-31.409-11.687-31.409-11.687l-3.957,14.652S1097.592,646.765,1110.439,650.555Z" transform="translate(-1041.683 -584.831)" fill="#84aacc" fill-rule="evenodd"/>
          <path id="Trazado_99156" data-name="Trazado 99156" d="M1158.758,670.784c2.026,4.7,3.38,10.725,3.68,18.47,0,0,.157.177.7-.013s15.137-13.135,17.186-19.357c.821-2.491-.588-7.652-2.989-13.136-.01,4.012-.537,8.455-2.542,10.668-2.812,3.1-11.013,3.463-16.034,3.368Zm6.339-32.321a6.752,6.752,0,0,0-1.08-.64c-6.5-2.957-18.6-5.365-31.824-18.642-.273-.275-.55-.542-.828-.8.1.221,8.536,19.335-12.549,23.573,0,0-1.366.273-.983,1.421S1156.6,633.048,1165.1,638.463Z" transform="translate(-1042.725 -585.375)" fill="#6595bf" fill-rule="evenodd"/>
          <path id="Trazado_99157" data-name="Trazado 99157" d="M1100.578,606.911c-.491.017-.759.04-.759.04l-2.417,8.95,3.507,24.467,3.08,1.268s-.511-3.427-.238-3.673,6.724-3.416,7.543-3.853a1.167,1.167,0,0,0,.656-1.229C1111.32,631.568,1102.518,611.366,1100.578,606.911Z" transform="translate(-1041.76 -584.831)" fill="#1b7fc2" fill-rule="evenodd"/>
          <path id="Trazado_99158" data-name="Trazado 99158" d="M1093.084,606.179a2.016,2.016,0,0,0-1.082,1.3c-.252.959.111,21,.2,23.228s9.078,13.638,11.31,16.279a11.562,11.562,0,0,0,6.745,3.529.13.13,0,0,0,.118-.112c.013-.1-3.5-1.556-4.574-3.181s-2.928-8.585-3.145-9.6c0,0,6.181-2.977,7.247-3.581s1.235-1.094.833-1.785-10.45-24.466-11.175-25.346S1096.2,605.813,1093.084,606.179Z" transform="translate(-1041.5 -584.789)" fill="#d3ebfa" fill-rule="evenodd"/>
          <path id="Trazado_99159" data-name="Trazado 99159" d="M1062.2,587.458a.309.309,0,1,1-.357.506A12.068,12.068,0,0,0,1053,586.54a.309.309,0,0,1-.11-.608A12.728,12.728,0,0,1,1062.2,587.458Z" transform="translate(-1039.64 -583.826)" fill="#201049" fill-rule="evenodd"/>
          <path id="Trazado_99160" data-name="Trazado 99160" d="M1048.595,615.915a.309.309,0,0,1,.274.554c-.018.009-5.806,2.972-9.446-3.8a.31.31,0,0,1,.546-.293C1043.323,618.617,1048.58,615.923,1048.595,615.915Z" transform="translate(-1039.011 -585.083)" fill="#201049" fill-rule="evenodd"/>
          <path id="Trazado_99161" data-name="Trazado 99161" d="M1127.566,667.4c-.911-.326-2.809-1.358-3.312-1.609-.565-.283-5.3-1.343-5.3-1.343l2.543,2.827s-7.771,3.391-9.467,4.733-.636,1.978.849,1.978h1.483s-.283,2.544,1.625,2.614a10.2,10.2,0,0,0,2.047,0s.707,2.12,2.262,1.908a20.9,20.9,0,0,0,7.347-2.614c2.513-1.428,3.179-2.163,3.342-2.392C1129.964,672.344,1127.247,668.786,1127.566,667.4Z" transform="translate(-1042.412 -587.557)" fill="#f2bbc9" fill-rule="evenodd"/>
          <path id="Trazado_99162" data-name="Trazado 99162" d="M1127.566,667.525c-.258-.091-.593-.24-.953-.411-.162,2.8,2.008,5.024-1.447,6.87-3.8,2.033-6.3,1.509-10.625-2.624-.2-.137-.4-.266-.587-.39a14.631,14.631,0,0,0-1.922,1.162c-1.7,1.342-.636,1.978.849,1.978h1.483s-.283,2.544,1.625,2.614a10.19,10.19,0,0,0,2.047,0s.707,2.12,2.262,1.908a20.908,20.908,0,0,0,7.347-2.614c2.513-1.428,3.179-2.163,3.342-2.392C1129.964,672.471,1127.247,668.913,1127.566,667.525Z" transform="translate(-1042.412 -587.683)" fill="#e98daf" fill-rule="evenodd"/>
        </g>
        <g id="Grupo_53279" data-name="Grupo 53279" transform="translate(71.873 89.698)">
          <path id="Trazado_99163" data-name="Trazado 99163" d="M1004.482,677.892H906.295c-4.892,0-8.894,3.347-8.894,7.437V831.274h115.974V685.329C1013.375,681.239,1009.373,677.892,1004.482,677.892Z" transform="translate(-897.401 -677.892)" fill="#12263f" fill-rule="evenodd"/>
          <path id="Trazado_99164" data-name="Trazado 99164" d="M1022.268,677.892H940.012c-4.1,0-7.452,2.8-7.452,6.23V831.274h97.159V684.122C1029.719,680.7,1026.367,677.892,1022.268,677.892Z" transform="translate(-899.067 -677.892)" fill="#b0c0d2" fill-rule="evenodd"/>
          <path id="Trazado_99165" data-name="Trazado 99165" d="M1022.557,681.921H940.3a1.522,1.522,0,0,0-1.634,1.366V831.465h85.523V683.287A1.522,1.522,0,0,0,1022.557,681.921Z" transform="translate(-899.356 -678.083)" fill="#fff" fill-rule="evenodd"/>
          <path id="Trazado_99166" data-name="Trazado 99166" d="M971.69,681.921h22.427a1.772,1.772,0,0,1,1.9,1.59v0a1.772,1.772,0,0,1-1.9,1.591H971.69a1.773,1.773,0,0,1-1.9-1.591v0A1.773,1.773,0,0,1,971.69,681.921Z" transform="translate(-900.83 -678.083)" fill="#1a212a" fill-rule="evenodd"/>
          <path id="Trazado_99167" data-name="Trazado 99167" d="M940.3,681.921h82.255a1.522,1.522,0,0,1,1.633,1.366v.225H938.668v-.225A1.522,1.522,0,0,1,940.3,681.921Z" transform="translate(-899.356 -678.083)" fill="#1a212a" fill-rule="evenodd"/>
          <path id="Trazado_99168" data-name="Trazado 99168" d="M971.69,800.846h22.427a1.772,1.772,0,0,1,1.9,1.59v0a1.773,1.773,0,0,1-1.9,1.591H971.69a1.773,1.773,0,0,1-1.9-1.591v0A1.773,1.773,0,0,1,971.69,800.846Z" transform="translate(-900.83 -683.716)" fill="#1a212a" fill-rule="evenodd"/>
          <path id="Trazado_99169" data-name="Trazado 99169" d="M940.3,800.846h82.255a1.522,1.522,0,0,1,1.633,1.364v.227H938.668v-.227A1.522,1.522,0,0,1,940.3,800.846Z" transform="translate(-899.356 -683.716)" fill="#1a212a" fill-rule="evenodd"/>
          <g id="Grupo_53271" data-name="Grupo 53271" transform="translate(39.312 27.764)">
            <rect id="Rectángulo_5035" data-name="Rectángulo 5035" width="19.496" height="30.634" transform="translate(0)" fill="#f9b532"/>
            <rect id="Rectángulo_5036" data-name="Rectángulo 5036" width="19.496" height="26.1" transform="translate(0 4.534)" fill="#f59f3a"/>
            <rect id="Rectángulo_5037" data-name="Rectángulo 5037" width="19.496" height="23.338" transform="translate(0 7.296)" fill="#fff"/>
            <rect id="Rectángulo_5038" data-name="Rectángulo 5038" width="19.496" height="23.338" transform="translate(0 7.296)" fill="#fff2d1"/>
            <path id="Trazado_99170" data-name="Trazado 99170" d="M958.164,712.63H943.736a5.745,5.745,0,0,0-5.068,3.69v21.616h19.5Z" transform="translate(-938.668 -707.302)" fill="#fcc749" fill-rule="evenodd"/>
          </g>
          <g id="Grupo_53272" data-name="Grupo 53272" transform="translate(45.474 27.764)">
            <rect id="Rectángulo_5039" data-name="Rectángulo 5039" width="13.334" height="27.081" fill="#f18d3d"/>
            <rect id="Rectángulo_5040" data-name="Rectángulo 5040" width="13.334" height="22.547" transform="translate(0 4.534)" fill="#ee7e40"/>
            <rect id="Rectángulo_5041" data-name="Rectángulo 5041" width="13.334" height="19.785" transform="translate(0 7.296)" fill="#f2bcc2"/>
            <rect id="Rectángulo_5042" data-name="Rectángulo 5042" width="13.334" height="19.785" transform="translate(0 7.296)" fill="#f2b2a5"/>
            <rect id="Rectángulo_5043" data-name="Rectángulo 5043" width="13.334" height="21.753" transform="translate(0 5.328)" fill="#f39a4c"/>
          </g>
          <g id="Grupo_53273" data-name="Grupo 53273" transform="translate(50.528 27.764)">
            <path id="Trazado_99171" data-name="Trazado 99171" d="M984.409,707.037h-29.8a4.182,4.182,0,0,0-4.169,4.17V737.67h33.966Z" transform="translate(-950.442 -707.037)" fill="#f9b532" fill-rule="evenodd"/>
            <path id="Trazado_99172" data-name="Trazado 99172" d="M984.524,711.8h-27.48a4.182,4.182,0,0,0-4.17,4.171V737.9h31.65Z" transform="translate(-950.557 -707.262)" fill="#f59f3a" fill-rule="evenodd"/>
            <path id="Trazado_99173" data-name="Trazado 99173" d="M954.738,738.034v-19.94a3.408,3.408,0,0,1,3.4-3.4h26.477v23.338Z" transform="translate(-950.646 -707.4)" fill="#fff" fill-rule="evenodd"/>
            <path id="Trazado_99174" data-name="Trazado 99174" d="M956.914,738.034l5.3-21.136a5.36,5.36,0,0,1,1.186-2.2h21.311v23.338Z" transform="translate(-950.748 -707.4)" fill="#fff2d1" fill-rule="evenodd"/>
            <path id="Trazado_99175" data-name="Trazado 99175" d="M984.857,712.63H970.43a5.727,5.727,0,0,0-5.217,4.17l-5.305,21.136h24.949Z" transform="translate(-950.89 -707.302)" fill="#fcc749" fill-rule="evenodd"/>
          </g>
          <g id="Grupo_53274" data-name="Grupo 53274" transform="translate(71.16 27.764)">
            <rect id="Rectángulo_5044" data-name="Rectángulo 5044" width="13.335" height="27.081" fill="#f18d3d"/>
            <rect id="Rectángulo_5045" data-name="Rectángulo 5045" width="13.335" height="22.547" transform="translate(0 4.534)" fill="#ee7e40"/>
            <rect id="Rectángulo_5046" data-name="Rectángulo 5046" width="13.335" height="19.785" transform="translate(0 7.296)" fill="#f2bcc2"/>
            <rect id="Rectángulo_5047" data-name="Rectángulo 5047" width="13.335" height="19.785" transform="translate(0 7.296)" fill="#f2b2a5"/>
            <rect id="Rectángulo_5048" data-name="Rectángulo 5048" width="13.335" height="21.753" transform="translate(0 5.328)" fill="#f39a4c"/>
          </g>
          <g id="Grupo_53275" data-name="Grupo 53275" transform="translate(76.215 27.764)">
            <path id="Trazado_99176" data-name="Trazado 99176" d="M1011.373,707.037h-29.8a4.182,4.182,0,0,0-4.17,4.17V737.67h33.968Z" transform="translate(-977.406 -707.037)" fill="#f9b532" fill-rule="evenodd"/>
            <path id="Trazado_99177" data-name="Trazado 99177" d="M1011.489,711.8H984.008a4.183,4.183,0,0,0-4.17,4.171V737.9h31.651Z" transform="translate(-977.521 -707.262)" fill="#f59f3a" fill-rule="evenodd"/>
            <path id="Trazado_99178" data-name="Trazado 99178" d="M981.7,738.034v-19.94a3.408,3.408,0,0,1,3.4-3.4h26.477v23.338Z" transform="translate(-977.609 -707.4)" fill="#fff" fill-rule="evenodd"/>
            <path id="Trazado_99179" data-name="Trazado 99179" d="M983.878,738.034l5.305-21.136a5.34,5.34,0,0,1,1.185-2.2h21.312v23.338Z" transform="translate(-977.712 -707.4)" fill="#fff2d1" fill-rule="evenodd"/>
            <path id="Trazado_99180" data-name="Trazado 99180" d="M1011.822,712.63H997.394a5.727,5.727,0,0,0-5.216,4.17l-5.3,21.136h24.949Z" transform="translate(-977.854 -707.302)" fill="#fcc749" fill-rule="evenodd"/>
          </g>
          <g id="Grupo_53276" data-name="Grupo 53276" transform="translate(96.847 27.764)">
            <rect id="Rectángulo_5049" data-name="Rectángulo 5049" width="13.335" height="27.081" fill="#f18d3d"/>
            <rect id="Rectángulo_5050" data-name="Rectángulo 5050" width="13.335" height="22.547" transform="translate(0 4.534)" fill="#ee7e40"/>
            <rect id="Rectángulo_5051" data-name="Rectángulo 5051" width="13.335" height="19.785" transform="translate(0 7.296)" fill="#f2bcc2"/>
            <rect id="Rectángulo_5052" data-name="Rectángulo 5052" width="13.335" height="19.785" transform="translate(0 7.296)" fill="#f2b2a5"/>
            <rect id="Rectángulo_5053" data-name="Rectángulo 5053" width="13.335" height="21.753" transform="translate(0 5.328)" fill="#f39a4c"/>
          </g>
          <g id="Grupo_53277" data-name="Grupo 53277" transform="translate(101.138 24.675)">
            <path id="Trazado_99181" data-name="Trazado 99181" d="M1007.739,753.45h50.351a4.182,4.182,0,0,0,4.17-4.171V711.053a4.181,4.181,0,0,0-4.17-4.17h-2.047v-1.942a1.151,1.151,0,0,0-1.148-1.148h-15.212a1.151,1.151,0,0,0-1.147,1.148v1.942h-30.8a4.182,4.182,0,0,0-4.17,4.17v38.226A4.183,4.183,0,0,0,1007.739,753.45Z" transform="translate(-1003.569 -703.794)" fill="#f9b532" fill-rule="evenodd"/>
            <path id="Trazado_99182" data-name="Trazado 99182" d="M1007.855,753.675h50.351a4.183,4.183,0,0,0,4.17-4.171V712.08a4.134,4.134,0,0,0-1.853-.437h-2.047V709.7a1.151,1.151,0,0,0-1.147-1.148h-15.213a1.151,1.151,0,0,0-1.147,1.148v1.941h-30.8a4.183,4.183,0,0,0-4.171,4.171v37.425A4.132,4.132,0,0,0,1007.855,753.675Z" transform="translate(-1003.684 -704.019)" fill="#f59f3a" fill-rule="evenodd"/>
            <rect id="Rectángulo_5054" data-name="Rectángulo 5054" width="38.613" height="39.27" rx="3.567" transform="translate(4.093 10.385)" fill="#fff"/>
            <path id="Trazado_99183" data-name="Trazado 99183" d="M1043.081,753.966h-31.817a3.408,3.408,0,0,1-3.4-3.4v-4.275l7.377-29.4a5.338,5.338,0,0,1,1.186-2.2h26.652a3.409,3.409,0,0,1,3.4,3.4v32.474A3.409,3.409,0,0,1,1043.081,753.966Z" transform="translate(-1003.773 -704.31)" fill="#fff2d1" fill-rule="evenodd"/>
            <path id="Trazado_99184" data-name="Trazado 99184" d="M1013.054,753.69h46.49a5.728,5.728,0,0,0,5.217-4.171l8.257-32.9a3.153,3.153,0,0,0-3.125-4.169h-2.444l.519-2.065a1.151,1.151,0,0,0-1.141-1.522H1049.86a2.093,2.093,0,0,0-1.905,1.522l-.518,2.065H1023.4a5.729,5.729,0,0,0-5.218,4.169l-8.256,32.9A3.154,3.154,0,0,0,1013.054,753.69Z" transform="translate(-1003.864 -704.034)" fill="#fcc749" fill-rule="evenodd"/>
            <path id="Trazado_99185" data-name="Trazado 99185" d="M1062.555,718.439l-6.6,26.293a5.73,5.73,0,0,1-5.218,4.171h-40.654l-.155.617a3.154,3.154,0,0,0,3.124,4.171h46.49a5.728,5.728,0,0,0,5.217-4.171l8.256-32.9a3.152,3.152,0,0,0-3.124-4.169h-2.444l.519-2.065a1.151,1.151,0,0,0-1.141-1.522h-3.119a3.431,3.431,0,0,1,.5,2.969Z" transform="translate(-1003.864 -704.034)" fill="#f9b532" fill-rule="evenodd"/>
          </g>
          <rect id="Rectángulo_5055" data-name="Rectángulo 5055" width="85.521" height="36.173" transform="translate(96.638 43.192)" fill="#e6e6e6"/>
          <g id="Grupo_53278" data-name="Grupo 53278" transform="translate(39.312 79.365)">
            <path id="Trazado_99186" data-name="Trazado 99186" d="M971.69,761.2h22.427a1.773,1.773,0,0,1,1.9,1.591v0a1.772,1.772,0,0,1-1.9,1.59H971.69a1.772,1.772,0,0,1-1.9-1.59v0A1.773,1.773,0,0,1,971.69,761.2Z" transform="translate(-940.142 -761.203)" fill="#1a212a" fill-rule="evenodd"/>
            <path id="Trazado_99187" data-name="Trazado 99187" d="M940.3,761.2h82.255a1.522,1.522,0,0,1,1.633,1.365v.227H938.668v-.227A1.522,1.522,0,0,1,940.3,761.2Z" transform="translate(-938.668 -761.203)" fill="#1a212a" fill-rule="evenodd"/>
          </g>
          <path id="Trazado_99188" data-name="Trazado 99188" d="M1000.478,721.562h82.255a1.522,1.522,0,0,1,1.633,1.365v.226h-29.645a1.774,1.774,0,0,1-1.9,1.591h-22.425a1.773,1.773,0,0,1-1.9-1.591H998.844v-.226A1.523,1.523,0,0,1,1000.478,721.562Z" transform="translate(-902.207 -679.96)" fill="#1a212a" fill-rule="evenodd"/>
          <path id="Trazado_99189" data-name="Trazado 99189" d="M995.993,759.405V723.232H938.668V760.77a1.522,1.522,0,0,1,1.634-1.365h55.691Z" transform="translate(-899.356 -680.04)" fill="#afafaf" fill-rule="evenodd"/>
        </g>
        <path id="Trazado_99199" data-name="Trazado 99199" d="M1075.082,700.378c-.524.386-.808.639-.808.639s-4.593-.417-5.984,1.183-4.454,5.5-5.775,6.124.138,1.741,2.922.766a26.606,26.606,0,0,0,5.915-3.341,7.7,7.7,0,0,0,5.148-.673,22.016,22.016,0,0,1-1.41-4.4A1.23,1.23,0,0,1,1075.082,700.378Z" transform="translate(-833.327 -589.259)" fill="#f2bbc9" fill-rule="evenodd"/>
      </g>
      <g id="Grupo_84670" data-name="Grupo 84670" transform="translate(1029.596 1605.284)">
        <g id="Grupo_79085" data-name="Grupo 79085" transform="translate(0 0)">
          <rect id="Rectángulo_30234" data-name="Rectángulo 30234" width="140.059" height="134.851" rx="8.41" fill="#e6e6e6"/>
        </g>
        <g id="Grupo_79114" data-name="Grupo 79114" transform="translate(9.788 14.245)">
          <g id="Grupo_79108" data-name="Grupo 79108">
            <g id="Grupo_79086" data-name="Grupo 79086" transform="translate(0 78.136)">
              <rect id="Rectángulo_30235" data-name="Rectángulo 30235" width="4.597" height="1.325" fill="#263238"/>
            </g>
            <g id="Grupo_79087" data-name="Grupo 79087" transform="translate(10.399 85.217)">
              <rect id="Rectángulo_30236" data-name="Rectángulo 30236" width="5.878" height="1.325" fill="#263238"/>
            </g>
            <g id="Grupo_79088" data-name="Grupo 79088" transform="translate(30.863 85.217)">
              <rect id="Rectángulo_30237" data-name="Rectángulo 30237" width="5.878" height="1.325" fill="#263238"/>
            </g>
            <g id="Grupo_79089" data-name="Grupo 79089" transform="translate(51.326 85.217)">
              <rect id="Rectángulo_30238" data-name="Rectángulo 30238" width="5.878" height="1.325" fill="#263238"/>
            </g>
            <g id="Grupo_79090" data-name="Grupo 79090" transform="translate(71.79 85.217)">
              <rect id="Rectángulo_30239" data-name="Rectángulo 30239" width="5.878" height="1.325" fill="#263238"/>
            </g>
            <g id="Grupo_79091" data-name="Grupo 79091" transform="translate(92.254 85.217)">
              <rect id="Rectángulo_30240" data-name="Rectángulo 30240" width="5.878" height="1.325" fill="#263238"/>
            </g>
            <g id="Grupo_79092" data-name="Grupo 79092" transform="translate(112.717 85.217)">
              <rect id="Rectángulo_30241" data-name="Rectángulo 30241" width="5.878" height="1.325" fill="#263238"/>
            </g>
            <g id="Grupo_79093" data-name="Grupo 79093" transform="translate(0 60.444)">
              <rect id="Rectángulo_30242" data-name="Rectángulo 30242" width="4.597" height="1.325" fill="#263238"/>
            </g>
            <g id="Grupo_79094" data-name="Grupo 79094" transform="translate(0 27.147)">
              <rect id="Rectángulo_30243" data-name="Rectángulo 30243" width="4.597" height="1.325" fill="#263238"/>
            </g>
            <g id="Grupo_79095" data-name="Grupo 79095" transform="translate(0 10.414)">
              <rect id="Rectángulo_30244" data-name="Rectángulo 30244" width="4.597" height="1.325" fill="#263238"/>
            </g>
            <g id="Grupo_79096" data-name="Grupo 79096" transform="translate(0.233 43.796)">
              <rect id="Rectángulo_30245" data-name="Rectángulo 30245" width="4.597" height="1.325" fill="#263238"/>
            </g>
            <g id="Grupo_79098" data-name="Grupo 79098" transform="translate(6.779)">
              <g id="Grupo_79097" data-name="Grupo 79097">
                <path id="Trazado_138854" data-name="Trazado 138854" d="M480.736,346.189s-.167.015-.493.023l-1.447.022-5.562.04-20.455.069-67.487.064-15.993,0h-.215v-.215c.029-22.567.055-42.425.074-56.661.028-7.1.049-12.794.064-16.732.016-1.948.029-3.461.038-4.5.008-.5.014-.888.019-1.166.007-.262.02-.4.02-.4s.013.134.02.4c0,.279.011.665.019,1.166.008,1.043.021,2.556.037,4.5.016,3.938.038,9.634.065,16.732.018,14.236.044,34.094.074,56.661l-.215-.215,15.993,0,67.487.064,20.455.069,5.562.041,1.447.021C480.569,346.174,480.736,346.189,480.736,346.189Z" transform="translate(-369.084 -266.729)" fill="#263238"/>
              </g>
            </g>
            <g id="Grupo_79100" data-name="Grupo 79100" transform="translate(11.441 44.24)">
              <g id="Grupo_79099" data-name="Grupo 79099">
                <path id="Trazado_138855" data-name="Trazado 138855" d="M482.94,319.821c0,.12-24.242.218-54.14.218s-54.145-.1-54.145-.218,24.237-.218,54.145-.218S482.94,319.7,482.94,319.821Z" transform="translate(-374.655 -319.603)" fill="#263238"/>
              </g>
            </g>
            <g id="Grupo_79102" data-name="Grupo 79102" transform="translate(11.441 27.591)">
              <g id="Grupo_79101" data-name="Grupo 79101">
                <path id="Trazado_138856" data-name="Trazado 138856" d="M482.94,299.923c0,.121-24.242.218-54.14.218s-54.145-.1-54.145-.218,24.237-.218,54.145-.218S482.94,299.8,482.94,299.923Z" transform="translate(-374.655 -299.705)" fill="#263238"/>
              </g>
            </g>
            <g id="Grupo_79104" data-name="Grupo 79104" transform="translate(11.441 10.859)">
              <g id="Grupo_79103" data-name="Grupo 79103">
                <path id="Trazado_138857" data-name="Trazado 138857" d="M482.94,279.924c0,.12-24.242.218-54.14.218s-54.145-.1-54.145-.218,24.237-.217,54.145-.217S482.94,279.8,482.94,279.924Z" transform="translate(-374.655 -279.707)" fill="#263238"/>
              </g>
            </g>
            <g id="Grupo_79106" data-name="Grupo 79106" transform="translate(11.441 60.888)">
              <g id="Grupo_79105" data-name="Grupo 79105">
                <path id="Trazado_138858" data-name="Trazado 138858" d="M482.94,339.718c0,.12-24.242.218-54.14.218s-54.145-.1-54.145-.218,24.237-.218,54.145-.218S482.94,339.6,482.94,339.718Z" transform="translate(-374.655 -339.5)" fill="#263238"/>
              </g>
            </g>
            <g id="Grupo_79107" data-name="Grupo 79107" transform="translate(12.557 1.227)">
              <path id="Trazado_138859" data-name="Trazado 138859" d="M375.989,342.846V328.075l9.206-14.293,6.248,4.794,12.823-19.919,7.563,5.326,10.522-18.375,8.549,6.964L443.722,268.2l13.81,27.244,11.179-13.632,13.152-3.764v64.8Z" transform="translate(-375.989 -268.196)" fill="#653f9f"/>
            </g>
          </g>
          <g id="Grupo_79110" data-name="Grupo 79110" transform="translate(12.557 5.711)">
            <g id="Grupo_79109" data-name="Grupo 79109">
              <path id="Trazado_138860" data-name="Trazado 138860" d="M483.158,273.675a1.141,1.141,0,0,1-.232.017l-.685.017-2.669.031-10.092.057.1-.047-10.814,14.135-.052.067h-.085l-27.077.038.18-.1L420.344,306.84c-3.877,6.446-7.632,12.685-11.177,18.577l-.163.272-.186-.257-14.667-20.168.293-.009L381.064,326.1c-1.6,2.477-2.862,4.421-3.732,5.762l-.99,1.5c-.226.338-.354.5-.354.5s.1-.186.308-.534.54-.873.946-1.532l3.65-5.814,13.252-20.928.14-.22.154.211,14.718,20.13-.35.015c3.541-5.894,7.29-12.136,11.163-18.584l11.4-18.943.062-.1h.118l27.077.038-.136.067L469.383,273.6l.038-.048h.059l10.092.057,2.669.031.685.016A1.331,1.331,0,0,1,483.158,273.675Z" transform="translate(-375.989 -273.554)" fill="#263238"/>
            </g>
          </g>
          <g id="Grupo_79111" data-name="Grupo 79111" transform="translate(33.223 41.05)">
            <path id="Trazado_138861" data-name="Trazado 138861" d="M402.767,316.79a1.04,1.04,0,1,1-1.039-1A1.021,1.021,0,0,1,402.767,316.79Z" transform="translate(-400.689 -315.79)" fill="#263238"/>
          </g>
          <g id="Grupo_79112" data-name="Grupo 79112" transform="translate(64.455 23.298)">
            <path id="Trazado_138862" data-name="Trazado 138862" d="M440.094,295.574a1.04,1.04,0,1,1-1.039-1A1.02,1.02,0,0,1,440.094,295.574Z" transform="translate(-438.016 -294.574)" fill="#263238"/>
          </g>
          <g id="Grupo_79113" data-name="Grupo 79113" transform="translate(88.735 18.936)">
            <path id="Trazado_138863" data-name="Trazado 138863" d="M469.111,290.362a1.039,1.039,0,1,1-1.039-1A1.02,1.02,0,0,1,469.111,290.362Z" transform="translate(-467.034 -289.361)" fill="#263238"/>
          </g>
        </g>
        <g id="Grupo_79115" data-name="Grupo 79115" transform="translate(20.187 110.694)">
          <ellipse id="Elipse_4180" data-name="Elipse 4180" cx="6.718" cy="6.468" rx="6.718" ry="6.468" fill="#fff"/>
        </g>
        <g id="Grupo_79116" data-name="Grupo 79116" transform="translate(43.59 112.83)">
          <rect id="Rectángulo_30246" data-name="Rectángulo 30246" width="78.915" height="2.421" fill="#fff"/>
        </g>
        <g id="Grupo_79117" data-name="Grupo 79117" transform="translate(43.59 118.876)">
          <rect id="Rectángulo_30247" data-name="Rectángulo 30247" width="32.766" height="2.421" fill="#fff"/>
        </g>
      </g>
      <path id="Trazado_142639" data-name="Trazado 142639" d="M940.256,587.326h68.694a9.1,9.1,0,0,1,9.072,9.072v63.995a1.013,1.013,0,0,1-1.728.716l-15.459-15.459H940.256a9.1,9.1,0,0,1-9.073-9.072V596.4A9.1,9.1,0,0,1,940.256,587.326Z" transform="translate(228.614 951.604)" fill="#12263f" fill-rule="evenodd"/>
      <g id="Grupo_89125" data-name="Grupo 89125" transform="translate(1164.39 1535.431)">
        <path id="Trazado_99090" data-name="Trazado 99090" d="M945.076,583.653h68.695a9.1,9.1,0,0,1,9.071,9.073v63.995a1.013,1.013,0,0,1-1.729.716l-15.458-15.459H945.076A9.1,9.1,0,0,1,936,632.906v-40.18A9.1,9.1,0,0,1,945.076,583.653Z" transform="translate(-936.004 -583.653)" fill-rule="evenodd" fill="url(#linear-gradient)"/>
        <g id="Grupo_53266" data-name="Grupo 53266" transform="translate(13.356 7.429)">
          <path id="Trazado_99091" data-name="Trazado 99091" d="M952.976,631.1h35.635a2.961,2.961,0,0,0,2.952-2.951V601.092a2.961,2.961,0,0,0-2.952-2.951h-1.448v-1.374a.815.815,0,0,0-.813-.813H975.584a.815.815,0,0,0-.813.813v1.374h-21.8a2.961,2.961,0,0,0-2.952,2.951v27.055A2.96,2.96,0,0,0,952.976,631.1Z" transform="translate(-950.024 -591.664)" fill="#e3b956" fill-rule="evenodd"/>
          <path id="Rectángulo_5025" data-name="Rectángulo 5025" d="M2.525,0H24.8a2.525,2.525,0,0,1,2.525,2.525V25.269A2.524,2.524,0,0,1,24.8,27.793H2.524A2.524,2.524,0,0,1,0,25.269V2.525A2.525,2.525,0,0,1,2.525,0Z" transform="translate(2.897 11.641)" fill="#fff"/>
          <path id="Trazado_99092" data-name="Trazado 99092" d="M956.757,631.268h32.9a5.2,5.2,0,0,0,4.266-2.951l10.372-23.283c.723-1.623-.015-2.951-1.638-2.951h-1.729l.651-1.461c.265-.593,0-1.078-.6-1.078h-12.01a1.9,1.9,0,0,0-1.557,1.078l-.651,1.461H969.758a5.2,5.2,0,0,0-4.267,2.951L955.12,628.317C954.4,629.94,955.134,631.268,956.757,631.268Z" transform="translate(-950.252 -591.834)" fill-rule="evenodd" fill="url(#linear-gradient-2)"/>
          <g id="Grupo_53265" data-name="Grupo 53265" transform="translate(19.838 13.817)">
            <g id="Grupo_53264" data-name="Grupo 53264">
              <path id="Trazado_99093" data-name="Trazado 99093" d="M974.206,609.312a11.463,11.463,0,1,1-3.357,8.105,11.428,11.428,0,0,1,3.357-8.105Zm8.1-1.716a9.819,9.819,0,1,0,6.945,2.876A9.79,9.79,0,0,0,982.311,607.6Z" transform="translate(-970.849 -605.955)" fill="#344154" fill-rule="evenodd"/>
              <path id="Trazado_99094" data-name="Trazado 99094" d="M990.159,626.425a.82.82,0,0,1,1.16-1.16l2.713,2.712a.821.821,0,0,1-1.161,1.161Z" transform="translate(-971.753 -606.858)" fill="#344154" fill-rule="evenodd"/>
              <path id="Trazado_99095" data-name="Trazado 99095" d="M993.111,630.539a1.642,1.642,0,0,1,2.322-2.322l8.743,8.744a1.642,1.642,0,0,1-2.321,2.322Z" transform="translate(-971.881 -606.987)" fill="#344154" fill-rule="evenodd"/>
            </g>
            <path id="Trazado_99096" data-name="Trazado 99096" d="M988.093,611.995a.542.542,0,0,1,.767-.767,9.071,9.071,0,0,1,2.661,6.431h0a9.126,9.126,0,0,1-.354,2.519.542.542,0,0,1-1.043-.3,7.99,7.99,0,0,0,.313-2.221h0a7.978,7.978,0,0,0-2.348-5.664Zm1.079,9.993a.541.541,0,1,1,.91.585,8.846,8.846,0,0,1-.57.789,9.074,9.074,0,0,1-.652.728.542.542,0,0,1-.767-.766,8.013,8.013,0,0,0,.576-.639,7.819,7.819,0,0,0,.5-.7Zm-12.408,1.336a.542.542,0,0,1-.767.766,9.084,9.084,0,0,1-2.663-6.43,9.129,9.129,0,0,1,.609-3.27.54.54,0,0,1,1.008.386,8,8,0,0,0,1.814,8.549Zm-.84-10.346a.54.54,0,1,1-.876-.631c.145-.2.3-.394.452-.578l.026-.029c.164-.191.321-.362.471-.513a.542.542,0,1,1,.767.767q-.24.24-.418.447l-.025.03C976.178,612.64,976.046,612.809,975.924,612.978Z" transform="translate(-970.966 -606.197)" fill="#fff" fill-rule="evenodd"/>
          </g>
          <path id="Trazado_99097" data-name="Trazado 99097" d="M989.2,591.451H1015.1a.6.6,0,0,1,.6.6h0a.6.6,0,0,1-.6.6H989.2a.6.6,0,0,1-.6-.6h0A.6.6,0,0,1,989.2,591.451Z" transform="translate(-951.851 -591.451)" fill="#efeef8" fill-rule="evenodd"/>
          <path id="Trazado_99098" data-name="Trazado 99098" d="M989.2,595.41H1015.1a.6.6,0,0,1,.6.6h0a.6.6,0,0,1-.6.6H989.2a.6.6,0,0,1-.6-.6h0A.6.6,0,0,1,989.2,595.41Z" transform="translate(-951.851 -591.638)" fill="#efeef8" fill-rule="evenodd"/>
          <path id="Trazado_99099" data-name="Trazado 99099" d="M1011.257,599.77h4.892a.6.6,0,0,1,.6.6h0a.6.6,0,0,1-.6.6h-4.892a.6.6,0,0,1-.6-.6h0A.6.6,0,0,1,1011.257,599.77Z" transform="translate(-952.897 -591.845)" fill="#efeef8" fill-rule="evenodd"/>
          <path id="Trazado_99100" data-name="Trazado 99100" d="M1011.257,604.245h4.892a.6.6,0,0,1,.6.6h0a.6.6,0,0,1-.6.6h-4.892a.6.6,0,0,1-.6-.6h0A.6.6,0,0,1,1011.257,604.245Z" transform="translate(-952.897 -592.057)" fill="#efeef8" fill-rule="evenodd"/>
          <path id="Trazado_99101" data-name="Trazado 99101" d="M1011.257,608.72h4.892a.6.6,0,0,1,.6.6h0a.6.6,0,0,1-.6.6h-4.892a.6.6,0,0,1-.6-.6h0A.6.6,0,0,1,1011.257,608.72Z" transform="translate(-952.897 -592.269)" fill="#efeef8" fill-rule="evenodd"/>
          <path id="Trazado_99102" data-name="Trazado 99102" d="M1011.257,613.2h4.892a.6.6,0,0,1,.6.6h0a.6.6,0,0,1-.6.6h-4.892a.6.6,0,0,1-.6-.6h0A.6.6,0,0,1,1011.257,613.2Z" transform="translate(-952.897 -592.481)" fill="#efeef8" fill-rule="evenodd"/>
          <path id="Trazado_99103" data-name="Trazado 99103" d="M1011.257,617.671h4.892a.6.6,0,0,1,.6.6h0a.6.6,0,0,1-.6.6h-4.892a.6.6,0,0,1-.6-.6h0A.6.6,0,0,1,1011.257,617.671Z" transform="translate(-952.897 -592.693)" fill="#efeef8" fill-rule="evenodd"/>
          <path id="Trazado_99104" data-name="Trazado 99104" d="M1011.257,622.146h4.892a.6.6,0,0,1,.6.6h0a.6.6,0,0,1-.6.6h-4.892a.6.6,0,0,1-.6-.6h0A.6.6,0,0,1,1011.257,622.146Z" transform="translate(-952.897 -592.905)" fill="#efeef8" fill-rule="evenodd"/>
          <rect id="Rectángulo_5026" data-name="Rectángulo 5026" width="13.61" height="1.202" rx="0.601" transform="translate(50.243 33.504)" fill="#efeef8"/>
          <path id="Trazado_99105" data-name="Trazado 99105" d="M1004.658,622.146h3.662a.6.6,0,0,1,.6.6h0a.6.6,0,0,1-.6.6h-3.662a.6.6,0,0,1-.6-.6h0A.6.6,0,0,1,1004.658,622.146Z" transform="translate(-952.584 -592.905)" fill="#efeef8" fill-rule="evenodd"/>
          <path id="Trazado_99106" data-name="Trazado 99106" d="M1006.38,617.671h1.845a.6.6,0,0,1,.6.6h0a.6.6,0,0,1-.6.6h-1.845a.6.6,0,0,1-.6-.6h0A.6.6,0,0,1,1006.38,617.671Z" transform="translate(-952.665 -592.693)" fill="#efeef8" fill-rule="evenodd"/>
          <path id="Trazado_99107" data-name="Trazado 99107" d="M1007.73,613.2h1.35a.6.6,0,0,1,.6.6h0a.6.6,0,0,1-.6.6h-1.35a.6.6,0,0,1-.6-.6h0A.6.6,0,0,1,1007.73,613.2Z" transform="translate(-952.729 -592.481)" fill="#efeef8" fill-rule="evenodd"/>
        </g>
      </g>
    </g>
    <g id="Grupo_171555" data-name="Grupo 171555" transform="translate(1188.161 3705.356)">
      <g id="Grupo_74667" data-name="Grupo 74667">
        <g id="Grupo_74660" data-name="Grupo 74660" transform="translate(0.035 2.184)">
          <g id="Grupo_74659" data-name="Grupo 74659">
            <g id="Grupo_74658" data-name="Grupo 74658">
              <g id="Grupo_74657" data-name="Grupo 74657">
                <g id="Grupo_74656" data-name="Grupo 74656">
                  <g id="Grupo_74655" data-name="Grupo 74655">
                    <g id="Grupo_74654" data-name="Grupo 74654">
                      <g id="Grupo_74653" data-name="Grupo 74653">
                        <g id="Grupo_74652" data-name="Grupo 74652">
                          <path id="Trazado_110735" data-name="Trazado 110735" d="M147.645,191.867a4.026,4.026,0,0,1-3.02-4.828l7.855-34.11a3.34,3.34,0,0,1,4.08-2.37l3.208.738a3.465,3.465,0,0,0,3.467-1.123l1.012-1.24a3.467,3.467,0,0,1,3.468-1.124l15.225,3.507a3.492,3.492,0,0,1,2.533,2.209l.475,1.357a3.5,3.5,0,0,0,2.533,2.21l19.41,4.47a3.341,3.341,0,0,1,2.632,3.916l-8.035,34.887a4.027,4.027,0,0,1-4.828,3.021Z" transform="translate(-144.521 -147.716)" fill="#e0e0e0"/>
                        </g>
                      </g>
                    </g>
                  </g>
                </g>
              </g>
            </g>
          </g>
        </g>
        <g id="Grupo_74666" data-name="Grupo 74666">
          <g id="Grupo_74665" data-name="Grupo 74665">
            <g id="Grupo_74664" data-name="Grupo 74664">
              <g id="Grupo_74663" data-name="Grupo 74663">
                <g id="Grupo_74662" data-name="Grupo 74662">
                  <g id="Grupo_74661" data-name="Grupo 74661">
                    <path id="Trazado_110736" data-name="Trazado 110736" d="M186.476,156.361l-12.341-2.871-.628-2.317a4.373,4.373,0,0,0-3.271-3.052l-12.069-2.779a3.871,3.871,0,0,0-4.729,2.746l-.324,1.407-8.53,37.039a4.4,4.4,0,0,0,3.466,5.157l49.025,11.291a4.4,4.4,0,0,0,5.372-3.122l8.058-34.989a2.9,2.9,0,0,0-2.175-3.477Z" transform="translate(-144.481 -145.232)" fill="#ebebeb"/>
                  </g>
                </g>
              </g>
            </g>
          </g>
        </g>
      </g>
      <g id="Grupo_74669" data-name="Grupo 74669" transform="translate(17.966 20.746)">
        <g id="Grupo_74668" data-name="Grupo 74668" transform="translate(0 0)">
          <rect id="Rectángulo_8319" data-name="Rectángulo 8319" width="29.941" height="12.597" transform="translate(2.827 0) rotate(12.969)" fill="#fff"/>
        </g>
      </g>
      <g id="Grupo_74672" data-name="Grupo 74672" transform="translate(24.183 27.216)">
        <g id="Grupo_74671" data-name="Grupo 74671">
          <g id="Grupo_74670" data-name="Grupo 74670">
            <path id="Trazado_110737" data-name="Trazado 110737" d="M192.02,180.8c-.025.109-4.533-.837-10.069-2.112s-10-2.4-9.979-2.505,4.533.837,10.069,2.113S192.046,180.689,192.02,180.8Z" transform="translate(-171.973 -176.171)" fill="#e0e0e0"/>
          </g>
        </g>
      </g>
      <g id="Grupo_74675" data-name="Grupo 74675" transform="translate(23.581 29.831)">
        <g id="Grupo_74674" data-name="Grupo 74674">
          <g id="Grupo_74673" data-name="Grupo 74673">
            <path id="Trazado_110738" data-name="Trazado 110738" d="M191.336,183.77c-.026.108-4.534-.837-10.069-2.112s-10-2.4-9.979-2.505,4.533.837,10.069,2.112S191.361,183.661,191.336,183.77Z" transform="translate(-171.288 -179.144)" fill="#e0e0e0"/>
          </g>
        </g>
      </g>
    </g>
    <g id="Document" transform="translate(987.388 3670.651)">
      <g id="Artwork_6" data-name="Artwork 6">
        <g id="Grupo_39656" data-name="Grupo 39656">
          <g id="Grupo_39652" data-name="Grupo 39652" transform="translate(16.496)">
            <path id="Trazado_92892" data-name="Trazado 92892" d="M459.576,220.679H408.359v-87.15h38.078l13.139,13.138Z" transform="translate(-408.359 -133.529)" fill="#d8dbf7"/>
            <g id="Grupo_39650" data-name="Grupo 39650" transform="translate(7.321 11.292)">
              <rect id="Rectángulo_27994" data-name="Rectángulo 27994" width="36.632" height="2.507" fill="#555866"/>
              <rect id="Rectángulo_27995" data-name="Rectángulo 27995" width="36.632" height="2.507" transform="translate(0 6.23)" fill="#555866"/>
              <rect id="Rectángulo_27996" data-name="Rectángulo 27996" width="36.632" height="2.507" transform="translate(0 12.461)" fill="#555866"/>
              <rect id="Rectángulo_27997" data-name="Rectángulo 27997" width="36.632" height="2.507" transform="translate(0 18.691)" fill="#555866"/>
              <rect id="Rectángulo_27998" data-name="Rectángulo 27998" width="36.632" height="2.507" transform="translate(0 24.921)" fill="#555866"/>
              <rect id="Rectángulo_27999" data-name="Rectángulo 27999" width="21.562" height="2.507" transform="translate(0 31.152)" fill="#42444f"/>
            </g>
            <g id="Grupo_39651" data-name="Grupo 39651" transform="translate(7.321 54.978)">
              <rect id="Rectángulo_28000" data-name="Rectángulo 28000" width="36.632" height="2.507" fill="#555866"/>
              <rect id="Rectángulo_28001" data-name="Rectángulo 28001" width="36.632" height="2.507" transform="translate(0 6.23)" fill="#555866"/>
              <rect id="Rectángulo_28002" data-name="Rectángulo 28002" width="36.632" height="2.507" transform="translate(0 12.461)" fill="#555866"/>
              <rect id="Rectángulo_28003" data-name="Rectángulo 28003" width="21.562" height="2.507" transform="translate(0 18.691)" fill="#42444f"/>
            </g>
            <path id="Trazado_92893" data-name="Trazado 92893" d="M455.745,146.667H442.606V133.529h0l13.139,13.138Z" transform="translate(-404.528 -133.529)" fill="#27282b"/>
          </g>
          <g id="Grupo_39655" data-name="Grupo 39655" transform="translate(0 15.085)">
            <path id="Trazado_92894" data-name="Trazado 92894" d="M444.74,234.246H393.523V147.1H431.6l13.139,13.139Z" transform="translate(-393.523 -147.096)" fill="#e6eaf0"/>
            <g id="Grupo_39653" data-name="Grupo 39653" transform="translate(7.321 11.292)">
              <rect id="Rectángulo_28004" data-name="Rectángulo 28004" width="36.632" height="2.507" fill="#42444f"/>
              <rect id="Rectángulo_28005" data-name="Rectángulo 28005" width="36.632" height="2.507" transform="translate(0 6.23)" fill="#42444f"/>
              <rect id="Rectángulo_28006" data-name="Rectángulo 28006" width="36.632" height="2.507" transform="translate(0 12.461)" fill="#42444f"/>
              <rect id="Rectángulo_28007" data-name="Rectángulo 28007" width="36.632" height="2.507" transform="translate(0 18.691)" fill="#42444f"/>
              <rect id="Rectángulo_28008" data-name="Rectángulo 28008" width="36.632" height="2.507" transform="translate(0 24.921)" fill="#42444f"/>
              <rect id="Rectángulo_28009" data-name="Rectángulo 28009" width="21.562" height="2.507" transform="translate(0 31.152)" fill="#42444f"/>
            </g>
            <g id="Grupo_39654" data-name="Grupo 39654" transform="translate(7.321 54.979)">
              <rect id="Rectángulo_28010" data-name="Rectángulo 28010" width="36.632" height="2.507" fill="#42444f"/>
              <rect id="Rectángulo_28011" data-name="Rectángulo 28011" width="36.632" height="2.507" transform="translate(0 6.23)" fill="#42444f"/>
              <rect id="Rectángulo_28012" data-name="Rectángulo 28012" width="36.632" height="2.507" transform="translate(0 12.461)" fill="#42444f"/>
              <rect id="Rectángulo_28013" data-name="Rectángulo 28013" width="21.562" height="2.507" transform="translate(0 18.691)" fill="#42444f"/>
            </g>
            <path id="Trazado_92895" data-name="Trazado 92895" d="M440.909,160.235H427.77V147.1h0l13.139,13.139Z" transform="translate(-389.692 -147.096)" fill="#c5cbd6"/>
          </g>
        </g>
      </g>
    </g>
  </g>
</svg>
