<svg xmlns="http://www.w3.org/2000/svg" xmlns:xlink="http://www.w3.org/1999/xlink" width="76" height="76" viewBox="0 0 76 76">
  <defs>
    <clipPath id="clip-path">
      <rect id="Rectángulo_52688" data-name="Rectángulo 52688" width="64.408" height="64.354" fill="#12263f"/>
    </clipPath>
  </defs>
  <g id="Grupo_172833" data-name="Grupo 172833" transform="translate(4937 -3518)">
    <g id="Grupo_172828" data-name="Grupo 172828" transform="translate(0.204 7.677)">
      <g id="Grupo_172823" data-name="Grupo 172823" transform="translate(-4931.204 3516.323)">
        <g id="Grupo_171315" data-name="Grupo 171315" clip-path="url(#clip-path)">
          <path id="Trazado_212456" data-name="Trazado 212456" d="M64.408,109.523c-.1.295-.188.594-.3.883a4.363,4.363,0,0,1-4.331,2.732q-9.969.005-19.938,0h-.816l1.1,3.689c.438,1.464.89,2.923,1.3,4.394a.581.581,0,0,0,.7.508c.6-.036,1.208-.009,1.851-.009v2.09H20.425v-2.09c.654,0,1.316.022,1.975-.015a.646.646,0,0,0,.491-.309c.824-2.68,1.62-5.369,2.421-8.056a.888.888,0,0,0-.01-.2h-.729q-10,0-20,0A4.307,4.307,0,0,1,.059,109.5,5.463,5.463,0,0,1,0,108.563Q0,90.575,0,72.586a4.306,4.306,0,0,1,4.53-4.551q6.541-.013,13.082,0h.591V70.18H17.5q-6.384,0-12.768,0c-1.772,0-2.584.807-2.585,2.564q0,15.5,0,31.007v.731H62.265v-.7q0-15.535,0-31.07a2.229,2.229,0,0,0-2.554-2.533q-6.353,0-12.7,0h-.8V68.033H59.154c3.086,0,4.2.77,5.254,3.625Zm-2.151-2.787H2.15c0,.784,0,1.516,0,2.249a1.527,1.527,0,0,0,.067.369c.3,1.115,1.111,1.636,2.564,1.636q27.418,0,54.836,0a5.28,5.28,0,0,0,.814-.047,2.085,2.085,0,0,0,1.816-1.954c.042-.73.008-1.464.008-2.251M25.074,121.68h14.19c.012-.062.024-.085.019-.1-.8-2.707-1.6-5.416-2.432-8.116a.637.637,0,0,0-.5-.308c-2.767-.019-5.533-.008-8.3-.02a.49.49,0,0,0-.557.44c-.194.727-.43,1.443-.646,2.165-.588,1.962-1.174,3.924-1.778,5.941" transform="translate(0 -59.456)" fill="#12263f"/>
          <path id="Trazado_212457" data-name="Trazado 212457" d="M181.477,0q3,1.694,6,3.386c1.186.667,2.372,1.334,3.571,1.976a1.338,1.338,0,0,1,.783,1.305q-.015,17.48-.009,34.959c0,.936-.36,1.3-1.291,1.3q-9.431.007-18.863,0c-.933,0-1.289-.36-1.289-1.3q0-17.48-.009-34.959a1.341,1.341,0,0,1,.785-1.3c3.063-1.685,6.115-3.391,9.168-5.092.141-.078.267-.182.4-.274Zm8.174,40.754c.011-.194.024-.318.024-.441q0-16.378.011-32.756a.771.771,0,0,0-.484-.769q-3.8-2.086-7.576-4.208A.918.918,0,0,0,180.6,2.57Q176.822,4.7,173.02,6.778a.855.855,0,0,0-.506.881q.016,16.22.009,32.441v.654Z" transform="translate(-148.895)" fill="#12263f"/>
          <path id="Trazado_212458" data-name="Trazado 212458" d="M34.006,102.213a9.831,9.831,0,0,1,1.189.009,1,1,0,0,1,.946,1.062c.014.713-.019,1.427.023,2.137a.736.736,0,0,0,.346.529c.7.328,1.425.6,2.326.965.462-.5.98-1.1,1.533-1.662a1.1,1.1,0,0,1,1.837-.007q1.388,1.369,2.755,2.759a1.092,1.092,0,0,1,0,1.75c-.466.482-.966.933-1.407,1.437a.748.748,0,0,0-.1.625,15.2,15.2,0,0,0,.748,1.792.755.755,0,0,0,.52.369c.668.044,1.341.006,2.011.021a1.1,1.1,0,0,1,1.235,1.248q.014,1.981,0,3.962c-.006.836-.386,1.21-1.242,1.23-.649.015-1.3.021-1.949,0-.354-.013-.5.115-.619.455-.2.593-.5,1.151-.707,1.742a.746.746,0,0,0,.1.625c.442.5.946.95,1.411,1.433a1.1,1.1,0,0,1,.01,1.755q-1.386,1.415-2.8,2.8a1.087,1.087,0,0,1-1.751,0c-.565-.56-1.106-1.143-1.626-1.684-.837.334-1.6.62-2.339.949a.612.612,0,0,0-.287.449c-.033.648-.01,1.3-.015,1.949-.007.972-.354,1.319-1.324,1.331-.247,0-.495,0-.806,0,0-1.58-.024-3.1.014-4.627.013-.506.4-.765.881-.946,1.109-.421,2.207-.873,3.287-1.362a1.172,1.172,0,0,1,1.487.187c.509.525,1.011,1.057,1.518,1.588l1.564-1.663c-.424-.391-.944-.845-1.435-1.327-.632-.62-.615-.957-.242-1.725a28.76,28.76,0,0,0,1.247-3c.285-.811.525-1.067,1.381-1.079.629-.009,1.258-.006,1.886-.011a1.058,1.058,0,0,0,.168-.036v-2.1c-.714,0-1.421.007-2.127,0-.791-.01-1.02-.259-1.293-1.01-.384-1.055-.823-2.094-1.3-3.11-.32-.679-.332-1.046.193-1.582.5-.508,1.013-1,1.542-1.52l-1.674-1.556c-.392.443-.828.973-1.3,1.465-.606.628-.97.609-1.728.245a31.469,31.469,0,0,0-3.059-1.26c-.573-.2-1-.476-1.009-1.114-.021-1.466-.007-2.932-.007-4.485" transform="translate(-29.716 -89.317)" fill="#12263f"/>
          <path id="Trazado_212459" data-name="Trazado 212459" d="M371.454,108.935c.455.44.96.913,1.447,1.4a1.167,1.167,0,0,1,.224,1.63c-.48,1.016-.916,2.056-1.3,3.111-.271.744-.5.988-1.3,1-.688.008-1.377,0-2.11,0v2.15c.7,0,1.385-.007,2.07,0,.831.011,1.073.267,1.351,1.034.382,1.056.825,2.093,1.3,3.11a1.152,1.152,0,0,1-.2,1.584c-.5.506-1.026.984-1.522,1.456l1.6,1.542c.406-.417.877-.914,1.362-1.4.607-.607.974-.595,1.729-.236,1.014.482,2.065.9,3.122,1.277.532.192.924.471.936,1.037.031,1.484.01,2.969.01,4.521a8.88,8.88,0,0,1-1.27-.012.973.973,0,0,1-.864-1.062c-.008-.692-.027-1.385,0-2.075.018-.39-.127-.544-.489-.65a5.406,5.406,0,0,1-1.391-.564.813.813,0,0,0-1.251.238,13.077,13.077,0,0,1-1.194,1.2,1.045,1.045,0,0,1-1.613.026q-1.513-1.466-2.978-2.98a1.035,1.035,0,0,1,.021-1.567c.473-.5.958-1,1.468-1.466a.533.533,0,0,0,.114-.756,12,12,0,0,1-.7-1.677.539.539,0,0,0-.627-.445c-.649.021-1.3.018-1.949,0-.851-.021-1.226-.4-1.232-1.24q-.013-1.981,0-3.962c.006-.831.4-1.221,1.245-1.238.67-.014,1.343.024,2.011-.021a.756.756,0,0,0,.512-.378,15.249,15.249,0,0,0,.749-1.792.745.745,0,0,0-.112-.622c-.457-.518-.972-.983-1.45-1.483a1.062,1.062,0,0,1,.006-1.658q1.43-1.46,2.892-2.889a1.045,1.045,0,0,1,1.655.013c.585.568,1.142,1.166,1.673,1.713.837-.333,1.6-.618,2.344-.949a.62.62,0,0,0,.274-.462c.031-.648.009-1.3.014-1.949.007-.959.367-1.314,1.339-1.331.246,0,.493,0,.789,0,0,1.6.024,3.123-.013,4.646-.012.51-.41.766-.882.948-1.107.425-2.209.868-3.287,1.36a1.18,1.18,0,0,1-1.487-.186c-.515-.517-1.025-1.04-1.512-1.535l-1.53,1.577" transform="translate(-320.061 -89.252)" fill="#12263f"/>
          <path id="Trazado_212460" data-name="Trazado 212460" d="M434.3,177.461a1.96,1.96,0,0,1,0,.322c-.1.554-.2,1.106-.3,1.65-2.619.126-5.719-3.161-5.968-6.287-.308-3.867,2.392-7.445,5.925-7.813a1.733,1.733,0,0,1,.1.276c.1.573.193,1.147.29,1.732-2.567.743-4.142,2.332-4.157,5.032-.015,2.732,1.562,4.342,4.119,5.088" transform="translate(-374.058 -144.494)" fill="#12263f"/>
          <path id="Trazado_212461" data-name="Trazado 212461" d="M33.075,179.631l-.335-1.975c3-1.16,4.25-2.772,4.175-5.317-.066-2.271-1.513-3.963-4.179-4.82l.336-1.986c2.969,0,5.923,3.4,6,6.858.077,3.594-2.8,7.111-6,7.24" transform="translate(-28.611 -144.669)" fill="#12263f"/>
          <rect id="Rectángulo_52682" data-name="Rectángulo 52682" width="2.075" height="2.064" transform="translate(47.267 12.924)" fill="#12263f"/>
          <rect id="Rectángulo_52683" data-name="Rectángulo 52683" width="2.082" height="2.055" transform="translate(16.136 40.832)" fill="#12263f"/>
          <path id="Trazado_212462" data-name="Trazado 212462" d="M204.413,100.733c0-.838.013-1.677,0-2.514a1.205,1.205,0,0,1,.626-1.145q2.586-1.549,5.17-3.1a1.165,1.165,0,0,1,1.3.013q2.554,1.541,5.117,3.067a1.258,1.258,0,0,1,.658,1.191q-.021,2.514,0,5.029a1.262,1.262,0,0,1-.677,1.182c-1.672,1-3.344,1.994-5.007,3.007a1.322,1.322,0,0,1-1.523-.016q-2.434-1.5-4.9-2.941a1.39,1.39,0,0,1-.768-1.384c.032-.795.008-1.592.008-2.388m2.144.032c0,.523.022,1.048-.007,1.569a.715.715,0,0,0,.418.745c1.159.669,2.305,1.36,3.445,2.062a.685.685,0,0,0,.844.022c1.15-.724,2.336-1.392,3.482-2.121a.965.965,0,0,0,.374-.68c.039-1.087.037-2.177,0-3.264a.9.9,0,0,0-.348-.635c-1.166-.738-2.349-1.451-3.551-2.128a.944.944,0,0,0-.772.023c-.721.378-1.375.893-2.113,1.227-1.408.636-2.269,1.513-1.773,3.18" transform="translate(-178.64 -81.96)" fill="#12263f"/>
          <rect id="Rectángulo_52684" data-name="Rectángulo 52684" width="12.785" height="2.061" transform="translate(25.823 27.958)" fill="#12263f"/>
          <rect id="Rectángulo_52685" data-name="Rectángulo 52685" width="12.814" height="2.046" transform="translate(25.807 32.252)" fill="#12263f"/>
          <rect id="Rectángulo_52686" data-name="Rectángulo 52686" width="8.511" height="2.063" transform="translate(25.804 36.526)" fill="#12263f"/>
          <path id="Trazado_212463" data-name="Trazado 212463" d="M242.8,44.834a2.141,2.141,0,1,1-4.281-.031,2.141,2.141,0,0,1,4.281.031" transform="translate(-208.456 -37.32)" fill="#12263f"/>
          <rect id="Rectángulo_52687" data-name="Rectángulo 52687" width="2.081" height="2.048" transform="translate(36.539 36.534)" fill="#12263f"/>
        </g>
      </g>
    </g>
    <rect id="Rectángulo_53197" data-name="Rectángulo 53197" width="76" height="76" transform="translate(-4937 3518)" fill="none"/>
  </g>
</svg>
