<svg xmlns="http://www.w3.org/2000/svg" xmlns:xlink="http://www.w3.org/1999/xlink" width="124.767" height="124.767" viewBox="0 0 124.767 124.767">
  <defs>
    <radialGradient id="radial-gradient" cx="0.076" cy="0.019" r="1.465" gradientTransform="translate(0.001)" gradientUnits="objectBoundingBox">
      <stop offset="0" stop-color="#f6f6f7"/>
      <stop offset="0.477" stop-color="#f9f9fa"/>
      <stop offset="0.715" stop-color="#fff"/>
    </radialGradient>
    <clipPath id="clip-path">
      <rect id="Rectángulo_52466" data-name="Rectángulo 52466" width="66.537" height="54.41" fill="#12263f"/>
    </clipPath>
  </defs>
  <g id="Grupo_172851" data-name="Grupo 172851" transform="translate(5403.348 4963.047)">
    <g id="Grupo_18531" data-name="Grupo 18531" transform="translate(-5403.348 -4963.047)">
      <g id="Grupo_18423" data-name="Grupo 18423" transform="translate(0 0)">
        <g id="Grupo_18421" data-name="Grupo 18421">
          <g id="Grupo_18420" data-name="Grupo 18420">
            <g id="Grupo_18419" data-name="Grupo 18419">
              <path id="Trazado_40936" data-name="Trazado 40936" d="M319.39,2208.1a62.384,62.384,0,1,1-62.383-62.382A62.383,62.383,0,0,1,319.39,2208.1Z" transform="translate(-194.623 -2145.721)" fill="#fff"/>
            </g>
          </g>
        </g>
        <path id="Trazado_40937" data-name="Trazado 40937" d="M318.65,2207.3a62.382,62.382,0,1,0-62.383,62.385A62.136,62.136,0,0,0,318.65,2207.3Z" transform="translate(-193.883 -2144.915)" fill="url(#radial-gradient)"/>
        <path id="Trazado_40938" data-name="Trazado 40938" d="M297.307,2200.746a47.617,47.617,0,1,0-47.617,47.617A47.44,47.44,0,0,0,297.307,2200.746Z" transform="translate(-187.117 -2138.156)" fill="none" stroke="#0b67d1" stroke-miterlimit="10" stroke-width="5"/>
        <g id="Grupo_18422" data-name="Grupo 18422" transform="translate(11.052 35.024)">
          <path id="Trazado_40939" data-name="Trazado 40939" d="M307.953,2164.488a62.391,62.391,0,0,1-107.408,62.125,62.193,62.193,0,0,0,107.408-62.125Z" transform="translate(-200.545 -2164.488)" fill="#eceef0"/>
        </g>
      </g>
    </g>
    <g id="Grupo_169555" data-name="Grupo 169555" transform="translate(-5373.99 -4927.869)">
      <g id="Grupo_169554" data-name="Grupo 169554" clip-path="url(#clip-path)">
        <path id="Trazado_212198" data-name="Trazado 212198" d="M0,22.392a25.288,25.288,0,0,1,2.077-4.381A9.549,9.549,0,0,1,10.1,14.056c4.6-.036,9.2.008,13.8-.027a4.482,4.482,0,0,0,1.884-.425Q39.583,6.83,53.355,0H54.61a3.108,3.108,0,0,1,2.067,3.457c-.064,1.005-.012,2.018-.012,3.028v6.461c.368.091.635.162.9.224a11.062,11.062,0,0,1,8.475,7.654c.2.581.329,1.186.491,1.779v2.721a30.845,30.845,0,0,1-1.891,4.684c-1.751,2.915-4.532,4.428-7.977,5.011v1.113c0,2.789-.125,5.586.034,8.366.171,2.99-2.164,4.154-4.6,2.917C43.7,43.148,35.19,39.09,26.788,34.823a10.343,10.343,0,0,0-5.475-.856v1.14q0,8.839,0,17.678c0,1.465-.159,1.622-1.608,1.623q-3.869,0-7.739,0c-1.209,0-1.448-.237-1.449-1.475q-.008-8.891,0-17.782V34.055a26.2,26.2,0,0,1-3.076-.489A9.879,9.879,0,0,1,.223,26.3,5.317,5.317,0,0,0,0,25.741V22.392m54.884,1.675h.005q0-10.411,0-20.822c0-1.535-.467-1.817-1.849-1.134q-13.1,6.471-26.21,12.928a1.337,1.337,0,0,0-.89,1.415c.032,4.987.044,9.975-.008,14.962a1.557,1.557,0,0,0,1.052,1.634q13.028,6.385,26.032,12.82c1.44.71,1.867.443,1.868-1.19q0-10.307,0-20.613M24.19,32.2V15.905a7.388,7.388,0,0,0-.763-.083c-4.426-.01-8.851-.022-13.276-.009a8.574,8.574,0,0,0-1.966.214,8.154,8.154,0,0,0,1.36,16.135c4.837.159,9.683.037,14.645.037M12.358,52.582h7.1V33.974h-7.1Zm44.349-19.4a9.3,9.3,0,0,0,7.948-10.648c-.5-3.892-4.7-7.908-7.948-7.575Z" transform="translate(0 0.001)" fill="#12263f"/>
        <path id="Trazado_212199" data-name="Trazado 212199" d="M148.891,84.667a10.771,10.771,0,1,1,10.752-10.754,10.781,10.781,0,0,1-10.752,10.754M148.9,64.9a9.027,9.027,0,1,0-.015,18.055A9.027,9.027,0,1,0,148.9,64.9" transform="translate(-109.21 -49.916)" fill="#12263f"/>
        <path id="Trazado_212200" data-name="Trazado 212200" d="M173.648,87.726l.825-.739c.308.353.758.66.894,1.07a1.693,1.693,0,0,0,1.906,1.38,1.553,1.553,0,0,0,1.254-1.949,1.8,1.8,0,0,0-.889-.988,14.954,14.954,0,0,0-1.885-.589,2.746,2.746,0,0,1-2.06-2.485,3.051,3.051,0,0,1,1.556-3.363,1.415,1.415,0,0,0,.923-1.4c.02-.356.5-.686.768-1.028.312.34.854.659.888,1.025a1.387,1.387,0,0,0,.912,1.4A2.786,2.786,0,0,1,180.3,82.28c.118.656.07,1.274-.648,1.432-.767.169-.974-.427-1.089-1.074a1.534,1.534,0,0,0-1.79-1.332,1.464,1.464,0,0,0-1.342,1.771,1.91,1.91,0,0,0,.844,1.142,7.625,7.625,0,0,0,1.782.553,2.876,2.876,0,0,1,2.286,2.772,3.168,3.168,0,0,1-1.634,3.161,1.376,1.376,0,0,0-.876,1.339,1.4,1.4,0,0,1-.806,1.074c-.694.123-.939-.5-.884-1.111a1.176,1.176,0,0,0-.8-1.269,3.251,3.251,0,0,1-1.687-3.012" transform="translate(-137.315 -61.392)" fill="#12263f"/>
      </g>
    </g>
  </g>
</svg>
