<svg xmlns="http://www.w3.org/2000/svg" xmlns:xlink="http://www.w3.org/1999/xlink" width="360.524" height="291.597" viewBox="0 0 360.524 291.597">
  <defs>
    <filter id="Rectángulo_46669" x="19.122" y="20.189" width="255.091" height="271.408" filterUnits="userSpaceOnUse">
      <feOffset dy="3" input="SourceAlpha"/>
      <feGaussianBlur stdDeviation="3" result="blur"/>
      <feFlood flood-opacity="0.161"/>
      <feComposite operator="in" in2="blur"/>
      <feComposite in="SourceGraphic"/>
    </filter>
  </defs>
  <g id="Grupo_172861" data-name="Grupo 172861" transform="translate(940.407 2258.868)">
    <g id="Grupo_166659" data-name="Grupo 166659" transform="translate(-940.407 -2257.693)">
      <path id="Trazado_210944" data-name="Trazado 210944" d="M170.8,4114.393h-1.927c-1.384,0-2.506-.83-2.506-1.854s1.122-1.854,2.506-1.854H170.8c1.384,0,2.506.83,2.506,1.854S172.179,4114.393,170.8,4114.393Zm-21.2,0h-1.927c-1.384,0-2.506-.83-2.506-1.854s1.122-1.854,2.506-1.854h1.927c1.384,0,2.506.83,2.506,1.854S150.978,4114.393,149.595,4114.393Zm-21.2,0h-1.927c-1.384,0-2.506-.83-2.506-1.854s1.122-1.854,2.506-1.854h1.927c1.384,0,2.506.83,2.506,1.854S129.778,4114.393,128.394,4114.393Zm-21.2,0h-1.927c-1.384,0-2.506-.83-2.506-1.854s1.122-1.854,2.506-1.854h1.927c1.384,0,2.506.83,2.506,1.854S108.577,4114.393,107.194,4114.393Zm-21.2,0H84.066c-1.384,0-2.506-.83-2.506-1.854s1.122-1.854,2.506-1.854h1.927c1.384,0,2.506.83,2.506,1.854S87.377,4114.393,85.993,4114.393Zm-21.2,0H62.865c-1.384,0-2.506-.83-2.506-1.854s1.122-1.854,2.506-1.854h1.927c1.384,0,2.506.83,2.506,1.854S66.176,4114.393,64.792,4114.393Zm-21.2,0H41.665c-1.384,0-2.506-.83-2.506-1.854s1.122-1.854,2.506-1.854h1.927c1.384,0,2.506.83,2.506,1.854S44.976,4114.393,43.592,4114.393Zm-21.2,0H20.464c-1.384,0-2.506-.83-2.506-1.854s1.122-1.854,2.506-1.854h1.927c1.384,0,2.506.83,2.506,1.854S23.775,4114.393,22.391,4114.393Zm-21.2,0H-.736c-1.384,0-2.506-.83-2.506-1.854s1.122-1.854,2.506-1.854H1.191c1.384,0,2.506.83,2.506,1.854S2.575,4114.393,1.191,4114.393Zm-21.2,0h-1.927c-1.384,0-2.506-.83-2.506-1.854s1.122-1.854,2.506-1.854h1.927c1.384,0,2.506.83,2.506,1.854S-18.626,4114.393-20.01,4114.393Zm-21.2-.046c-.058,0-.116,0-.175,0-.7-.036-1.406-.09-2.1-.164-1.37-.145-2.321-1.084-2.125-2.1a2.493,2.493,0,0,1,2.835-1.573c.571.061,1.154.106,1.733.136,1.381.07,2.423.956,2.328,1.977A2.317,2.317,0,0,1-41.205,4114.347Zm219.1-.674a2.518,2.518,0,0,1-2.41-1.352c-.375-.985.4-2.009,1.732-2.287.559-.116,1.117-.25,1.658-.4a2.816,2.816,0,0,1,3.21,1.11c.473.962-.2,2.025-1.5,2.375-.656.176-1.332.337-2.009.479A3.34,3.34,0,0,1,177.894,4113.672Zm-237.439-6.3a2.925,2.925,0,0,1-1.931-.671c-.448-.4-.88-.816-1.285-1.238a1.572,1.572,0,0,1,.589-2.585,3.109,3.109,0,0,1,3.494.436c.335.349.692.692,1.062,1.022a1.548,1.548,0,0,1-.332,2.61A3.075,3.075,0,0,1-59.545,4107.374Zm253.474-3.294a3.217,3.217,0,0,1-1.17-.216c-1.223-.479-1.69-1.6-1.042-2.505.271-.379.525-.769.757-1.161a2.9,2.9,0,0,1,3.3-.954c1.268.41,1.845,1.5,1.29,2.441-.281.475-.59.949-.919,1.408A2.729,2.729,0,0,1,193.929,4104.08Zm-259.475-11.346c-1.384,0-2.506-.83-2.506-1.854v-1.426c0-1.024,1.122-1.854,2.506-1.854s2.506.83,2.506,1.854v1.426C-63.041,4091.9-64.163,4092.734-65.546,4092.734Zm262.5-3.972c-1.384,0-2.506-.83-2.506-1.854v-1.426c0-1.024,1.122-1.854,2.506-1.854s2.506.83,2.506,1.854v1.426C199.46,4087.931,198.339,4088.761,196.955,4088.761Zm-262.5-11.713c-1.384,0-2.506-.83-2.506-1.854v-1.426c0-1.024,1.122-1.854,2.506-1.854s2.506.83,2.506,1.854v1.426C-63.041,4076.219-64.163,4077.049-65.546,4077.049Zm262.5-3.972c-1.384,0-2.506-.83-2.506-1.854V4069.8c0-1.024,1.122-1.854,2.506-1.854s2.506.83,2.506,1.854v1.426C199.46,4072.247,198.339,4073.076,196.955,4073.076Zm-262.5-11.713c-1.384,0-2.506-.829-2.506-1.854v-1.426c0-1.024,1.122-1.854,2.506-1.854s2.506.83,2.506,1.854v1.426C-63.041,4060.534-64.163,4061.364-65.546,4061.364Zm262.5-3.972c-1.384,0-2.506-.83-2.506-1.854v-1.426c0-1.024,1.122-1.854,2.506-1.854s2.506.83,2.506,1.854v1.426C199.46,4056.562,198.339,4057.391,196.955,4057.391Zm-262.5-11.712c-1.384,0-2.506-.83-2.506-1.854V4042.4c0-1.024,1.122-1.854,2.506-1.854s2.506.83,2.506,1.854v1.425C-63.041,4044.849-64.163,4045.679-65.546,4045.679Zm262.5-3.972c-1.384,0-2.506-.83-2.506-1.854v-1.426c0-1.024,1.122-1.854,2.506-1.854s2.506.83,2.506,1.854v1.426C199.46,4040.876,198.339,4041.707,196.955,4041.707Zm-262.5-11.713c-1.384,0-2.506-.83-2.506-1.854v-1.426c0-1.024,1.122-1.854,2.506-1.854s2.506.83,2.506,1.854v1.426C-63.041,4029.164-64.163,4029.994-65.546,4029.994Zm262.5-3.972c-1.384,0-2.506-.83-2.506-1.854v-1.426c0-1.024,1.122-1.854,2.506-1.854s2.506.83,2.506,1.854v1.426C199.46,4025.191,198.339,4026.021,196.955,4026.021Zm-262.5-11.713c-1.384,0-2.506-.83-2.506-1.854v-1.426c0-1.024,1.122-1.854,2.506-1.854s2.506.83,2.506,1.854v1.426C-63.041,4013.479-64.163,4014.309-65.546,4014.309Zm262.5-3.972c-1.384,0-2.506-.83-2.506-1.854v-1.426c0-1.024,1.122-1.854,2.506-1.854s2.506.83,2.506,1.854v1.426C199.46,4009.506,198.339,4010.336,196.955,4010.336Zm-262.5-11.713c-1.384,0-2.506-.83-2.506-1.854v-1.426c0-1.023,1.122-1.854,2.506-1.854s2.506.83,2.506,1.854v1.426C-63.041,3997.794-64.163,3998.624-65.546,3998.624Zm262.5-3.973c-1.384,0-2.506-.83-2.506-1.854v-1.426c0-1.024,1.122-1.854,2.506-1.854s2.506.83,2.506,1.854v1.426C199.46,3993.821,198.339,3994.651,196.955,3994.651Zm-262.5-11.712c-1.384,0-2.506-.83-2.506-1.854v-1.426c0-1.024,1.122-1.854,2.506-1.854s2.506.83,2.506,1.854v1.426C-63.041,3982.109-64.163,3982.938-65.546,3982.938Zm262.5-3.972c-1.384,0-2.506-.83-2.506-1.854v-1.426c0-1.024,1.122-1.854,2.506-1.854s2.506.83,2.506,1.854v1.426C199.46,3978.136,198.339,3978.966,196.955,3978.966Zm-262.5-11.713c-1.384,0-2.506-.83-2.506-1.854v-1.426c0-1.024,1.122-1.854,2.506-1.854s2.506.83,2.506,1.854v1.426C-63.041,3966.424-64.163,3967.253-65.546,3967.253Zm262.5-3.972c-1.384,0-2.506-.83-2.506-1.854V3960c0-1.024,1.122-1.854,2.506-1.854s2.506.83,2.506,1.854v1.426C199.46,3962.451,198.339,3963.281,196.955,3963.281Zm-262.5-11.713c-1.384,0-2.506-.83-2.506-1.854v-1.426c0-1.024,1.122-1.854,2.506-1.854s2.506.83,2.506,1.854v1.426C-63.041,3950.739-64.163,3951.569-65.546,3951.569Zm262.5-3.972c-1.384,0-2.506-.83-2.506-1.854v-1.426c0-1.024,1.122-1.854,2.506-1.854s2.506.83,2.506,1.854v1.426C199.46,3946.766,198.339,3947.6,196.955,3947.6Zm-262.5-11.713c-1.384,0-2.506-.83-2.506-1.854V3932.6c0-1.024,1.122-1.854,2.506-1.854s2.506.83,2.506,1.854v1.426C-63.041,3935.053-64.163,3935.883-65.546,3935.883Zm262.5-3.972c-1.384,0-2.506-.83-2.506-1.854v-1.426c0-1.024,1.122-1.854,2.506-1.854s2.506.83,2.506,1.854v1.426C199.46,3931.081,198.339,3931.911,196.955,3931.911Zm-262.5-11.713c-1.384,0-2.506-.83-2.506-1.854v-1.426c0-1.024,1.122-1.854,2.506-1.854s2.506.83,2.506,1.854v1.426C-63.041,3919.368-64.163,3920.2-65.546,3920.2Zm262.5-3.972c-1.384,0-2.506-.83-2.506-1.854v-1.426c0-1.024,1.122-1.854,2.506-1.854s2.506.83,2.506,1.854v1.426C199.46,3915.4,198.339,3916.226,196.955,3916.226Zm-262.5-11.713c-1.384,0-2.506-.83-2.506-1.854v-1.426c0-1.024,1.122-1.854,2.506-1.854s2.506.83,2.506,1.854v1.426C-63.041,3903.683-64.163,3904.513-65.546,3904.513Zm262.5-3.972c-1.384,0-2.506-.83-2.506-1.854v-1.426c0-1.024,1.122-1.854,2.506-1.854s2.506.83,2.506,1.854v1.426C199.46,3899.711,198.339,3900.541,196.955,3900.541Zm-262.5-11.713c-1.384,0-2.506-.83-2.506-1.854v-1.426c0-1.024,1.122-1.854,2.506-1.854s2.506.83,2.506,1.854v1.426C-63.041,3888-64.163,3888.828-65.546,3888.828Zm262.5-3.972c-1.384,0-2.506-.83-2.506-1.854v-.359c0-.321-.012-.646-.035-.966-.075-1.022.984-1.9,2.366-1.951s2.563.728,2.638,1.75c.028.386.043.779.043,1.167V3883C199.46,3884.026,198.339,3884.856,196.955,3884.856Zm-258.136-11.07a3.149,3.149,0,0,1-1.386-.311,1.586,1.586,0,0,1-.7-2.57c.389-.432.8-.858,1.233-1.268a3.132,3.132,0,0,1,3.516-.326,1.557,1.557,0,0,1,.441,2.6c-.355.338-.7.69-1.019,1.047A2.828,2.828,0,0,1-61.181,3873.786Zm250.358-3.059a3.005,3.005,0,0,1-1.761-.535c-.41-.3-.842-.593-1.284-.872a1.545,1.545,0,0,1-.281-2.613,3.15,3.15,0,0,1,3.532-.208c.535.337,1.058.693,1.555,1.056a1.538,1.538,0,0,1,.02,2.622A3,3,0,0,1,189.177,3870.727Zm-233.1-5.294a2.416,2.416,0,0,1-2.465-1.535c-.238-1.008.673-1.969,2.036-2.145.692-.09,1.4-.161,2.092-.212,1.373-.1,2.6.642,2.741,1.661s-.869,1.927-2.246,2.028c-.574.042-1.153.1-1.724.175A3.363,3.363,0,0,1-43.925,3865.434Zm213.911-.291h-1.927c-1.384,0-2.506-.83-2.506-1.854s1.122-1.854,2.506-1.854h1.927c1.384,0,2.506.83,2.506,1.854S171.369,3865.143,169.986,3865.143Zm-21.2,0h-1.927c-1.384,0-2.506-.83-2.506-1.854s1.122-1.854,2.506-1.854h1.927c1.384,0,2.506.83,2.506,1.854S150.169,3865.143,148.785,3865.143Zm-21.2,0h-1.927c-1.384,0-2.506-.83-2.506-1.854s1.122-1.854,2.506-1.854h1.927c1.384,0,2.506.83,2.506,1.854S128.969,3865.143,127.585,3865.143Zm-21.2,0h-1.927c-1.384,0-2.506-.83-2.506-1.854s1.122-1.854,2.506-1.854h1.927c1.384,0,2.506.83,2.506,1.854S107.768,3865.143,106.384,3865.143Zm-21.2,0H83.257c-1.384,0-2.506-.83-2.506-1.854s1.122-1.854,2.506-1.854h1.927c1.384,0,2.506.83,2.506,1.854S86.568,3865.143,85.184,3865.143Zm-21.2,0H62.056c-1.384,0-2.506-.83-2.506-1.854s1.122-1.854,2.506-1.854h1.927c1.384,0,2.506.83,2.506,1.854S65.367,3865.143,63.983,3865.143Zm-21.2,0H40.856c-1.384,0-2.506-.83-2.506-1.854s1.122-1.854,2.506-1.854h1.927c1.384,0,2.506.83,2.506,1.854S44.167,3865.143,42.783,3865.143Zm-21.2,0H19.655c-1.384,0-2.506-.83-2.506-1.854s1.122-1.854,2.506-1.854h1.927c1.384,0,2.506.83,2.506,1.854S22.966,3865.143,21.582,3865.143Zm-21.2,0H-1.546c-1.384,0-2.506-.83-2.506-1.854s1.122-1.854,2.506-1.854H.382c1.384,0,2.506.83,2.506,1.854S1.766,3865.143.382,3865.143Zm-21.2,0h-1.927c-1.384,0-2.506-.83-2.506-1.854s1.122-1.854,2.506-1.854h1.927c1.384,0,2.506.83,2.506,1.854S-19.435,3865.143-20.819,3865.143Z" transform="translate(68.052 -3861.436)" fill="#2194e5"/>
    </g>
    <path id="Trazado_210945" data-name="Trazado 210945" d="M419.852,3858.387h-115.9c-5.565,0-10.077,3.331-10.077,7.439V4105.08c0,4.108,4.512,7.439,10.077,7.439H419.872a11.374,11.374,0,0,0,8.391-3.319,7.125,7.125,0,0,0,.528-.683l86.094-122.612-86.1-123.5a7.079,7.079,0,0,0-.527-.685A11.36,11.36,0,0,0,419.852,3858.387Z" transform="translate(-1094.769 -6117.255)" fill="#2194e5"/>
    <g id="Grupo_166662" data-name="Grupo 166662" transform="translate(-912.665 -2231.919)" opacity="0.2" style="mix-blend-mode: multiply;isolation: isolate">
      <g id="Grupo_166661" data-name="Grupo 166661" transform="translate(0 0)">
        <g id="Grupo_166660" data-name="Grupo 166660">
          <rect id="Rectángulo_46668" data-name="Rectángulo 46668" width="237.091" height="243.133" rx="20"/>
        </g>
      </g>
    </g>
    <g id="Grupo_166672" data-name="Grupo 166672" transform="translate(-872.355 -6117.255)">
      <g id="Grupo_166664" data-name="Grupo 166664" transform="translate(-39.93 3884.576)">
        <g id="Grupo_166663" data-name="Grupo 166663" transform="translate(0)">
          <g transform="matrix(1, 0, 0, 1, -28.12, -26.19)" filter="url(#Rectángulo_46669)">
            <rect id="Rectángulo_46669-2" data-name="Rectángulo 46669" width="237.091" height="253.408" rx="20" transform="translate(28.12 26.19)" fill="#fff"/>
          </g>
        </g>
      </g>
      <g id="Grupo_166665" data-name="Grupo 166665" transform="translate(-39.929 3892.794)">
        <path id="Trazado_210946" data-name="Trazado 210946" d="M233.778,3966.04v208.412c0,10.157-9.523,18.389-21.273,18.389H26.175c-11.746,0-21.269-8.231-21.269-18.389V3966.04c0-10.157,9.523-18.389,21.269-18.389H212.5C224.255,3947.651,233.778,3955.883,233.778,3966.04Z" transform="translate(-4.906 -3947.651)" fill="#f7f7f7"/>
      </g>
    </g>
    <g id="w90B96.tif" transform="translate(-1021.816 3271.083)">
      <g id="Grupo_166683" data-name="Grupo 166683" transform="translate(191 -5481.256)">
        <path id="Trazado_210950" data-name="Trazado 210950" d="M191-5448.339a52.409,52.409,0,0,1,6.321-8.01,46.031,46.031,0,0,1,27.063-13.573c1.632-.225,3.28-.331,5.005-.5v-10.492h2.619v10.511c1.278.107,2.479.189,3.676.313a45.811,45.811,0,0,1,23.581,9.415,45.926,45.926,0,0,1,10.953,12.047,3.069,3.069,0,0,0,.234.289v.931a52.84,52.84,0,0,1-6.214,7.9,46.1,46.1,0,0,1-27.171,13.689q-1.228.171-2.464.279c-.818.072-1.64.1-2.541.16v10.548h-2.618v-10.511c-1.3-.11-2.531-.191-3.753-.322a45.961,45.961,0,0,1-24.235-9.982,46.086,46.086,0,0,1-10.266-11.535,2.045,2.045,0,0,0-.19-.225Zm38.4,12.452h2.668v7.7c9.907-.239,18.283-9.345,18.309-18.364h-7.667v-2.668h7.7c-.268-10.1-9.543-18.307-18.365-18.309v7.668h-2.668v-7.7c-9.887.241-18.285,9.326-18.311,18.363h7.671v2.668h-7.7c.234,9.925,9.366,18.282,18.362,18.311Zm-13.08-29.4c-.144.042-.291.075-.431.126a43.7,43.7,0,0,0-21.679,16.8c-.312.454-.166.717.082,1.08A43.821,43.821,0,0,0,213.2-5431.63c1.019.447,2.074.812,3.112,1.214a.4.4,0,0,0-.162-.335,22.15,22.15,0,0,1-7.788-15.1c-.055-.588-.286-.712-.825-.708-2.973.022-5.945.01-8.918.01H197.7v-2.669h10.569A23.143,23.143,0,0,1,216.324-5465.288Zm36.866,16.095h10.592v2.651h-10.6a22.849,22.849,0,0,1-8.17,16.068,3.679,3.679,0,0,0,.449-.066,43.782,43.782,0,0,0,21.8-16.891.7.7,0,0,0-.048-.948,43.637,43.637,0,0,0-21.463-16.721c-.174-.064-.359-.1-.538-.15A23.328,23.328,0,0,1,253.19-5449.193Z" transform="translate(-191 5480.967)" fill="#12263f"/>
        <path id="Trazado_210951" data-name="Trazado 210951" d="M245.594-5121.881v2.584a4.4,4.4,0,0,1-.536.065q-4.884.006-9.769,0c-1.072,0-1.54-.449-1.544-1.489-.012-3.308,0-6.616,0-9.924,0-.125.021-.25.038-.427h2.6v9.191Z" transform="translate(-227.107 5185.415)" fill="#12263f"/>
        <path id="Trazado_210952" data-name="Trazado 210952" d="M583.849-5119.219v-2.57h9.174v-9.224h2.64c.015.252.041.478.041.7q0,4.69,0,9.381c0,1.354-.4,1.747-1.757,1.749q-4.652.005-9.3,0C584.392-5119.181,584.14-5119.2,583.849-5119.219Z" transform="translate(-522.885 5185.365)" fill="#12263f"/>
        <path id="Trazado_210953" data-name="Trazado 210953" d="M236.38-5478.628v9.218h-2.639v-.74q0-4.69,0-9.381c0-1.314.4-1.72,1.7-1.722q4.73-.007,9.459,0c.2,0,.406.019.672.031v2.594Z" transform="translate(-227.108 5481.256)" fill="#12263f"/>
        <path id="Trazado_210954" data-name="Trazado 210954" d="M593.142-5478.615h-9.219v-2.639h.738q4.691,0,9.381,0c1.312,0,1.722.4,1.724,1.7q.008,4.73,0,9.459c0,.2-.018.407-.031.673h-2.594Z" transform="translate(-522.948 5481.255)" fill="#12263f"/>
        <path id="Trazado_210955" data-name="Trazado 210955" d="M405.759-5318.5a9.341,9.341,0,0,1-9.311,9.25,9.352,9.352,0,0,1-9.249-9.317,9.337,9.337,0,0,1,9.314-9.246A9.336,9.336,0,0,1,405.759-5318.5Zm-15.907-.03a6.667,6.667,0,0,0,6.609,6.626,6.664,6.664,0,0,0,6.645-6.59,6.667,6.667,0,0,0-6.647-6.665A6.673,6.673,0,0,0,389.852-5318.527Z" transform="translate(-356.753 5351.622)" fill="#12263f"/>
      </g>
    </g>
    <path id="Trazado_213443" data-name="Trazado 213443" d="M18.15,9.93a7.053,7.053,0,0,1-2.809-1.363,2.6,2.6,0,0,1-.879-2,2.751,2.751,0,0,1,1.074-2.223,4.269,4.269,0,0,1,2.793-.879,4.66,4.66,0,0,1,2.09.453,3.436,3.436,0,0,1,1.422,1.25,3.2,3.2,0,0,1,.5,1.742H20.838a2.08,2.08,0,0,0-.656-1.627A2.669,2.669,0,0,0,18.33,4.7a2.732,2.732,0,0,0-1.73.489,1.632,1.632,0,0,0-.621,1.358,1.468,1.468,0,0,0,.59,1.178,5.785,5.785,0,0,0,2.008.88,9.316,9.316,0,0,1,2.219.88A3.367,3.367,0,0,1,21.982,10.6a2.861,2.861,0,0,1,.387,1.508,2.658,2.658,0,0,1-1.078,2.215,4.6,4.6,0,0,1-2.883.832,5.347,5.347,0,0,1-2.187-.449,3.681,3.681,0,0,1-1.566-1.23A3,3,0,0,1,14.1,11.7h1.508a1.959,1.959,0,0,0,.762,1.629,3.207,3.207,0,0,0,2.035.6,2.948,2.948,0,0,0,1.82-.484,1.573,1.573,0,0,0,.633-1.32,1.545,1.545,0,0,0-.586-1.293A6.755,6.755,0,0,0,18.15,9.93Zm5.531.766a4.993,4.993,0,0,1,.488-2.234A3.643,3.643,0,0,1,25.529,6.93a3.7,3.7,0,0,1,1.988-.539,3.565,3.565,0,0,1,2.793,1.2,4.6,4.6,0,0,1,1.066,3.18v.1a5.036,5.036,0,0,1-.473,2.215,3.589,3.589,0,0,1-1.352,1.527,3.743,3.743,0,0,1-2.02.547,3.556,3.556,0,0,1-2.785-1.2A4.575,4.575,0,0,1,23.681,10.8Zm1.453.172a3.616,3.616,0,0,0,.652,2.258,2.211,2.211,0,0,0,3.5-.012,3.955,3.955,0,0,0,.648-2.418,3.61,3.61,0,0,0-.66-2.254,2.1,2.1,0,0,0-1.754-.863,2.075,2.075,0,0,0-1.727.852A3.925,3.925,0,0,0,25.135,10.867Zm9.422-4.32L34.6,7.609a3.08,3.08,0,0,1,2.531-1.219q2.68,0,2.7,3.023V15H38.392V9.406a1.946,1.946,0,0,0-.418-1.352A1.675,1.675,0,0,0,36.7,7.617a2.086,2.086,0,0,0-1.234.375,2.546,2.546,0,0,0-.828.984V15H33.189V6.547Zm14.93,8.609a3.693,3.693,0,0,1-2.8-1.129,4.19,4.19,0,0,1-1.078-3.02v-.266a5.073,5.073,0,0,1,.48-2.246,3.748,3.748,0,0,1,1.344-1.547,3.378,3.378,0,0,1,1.871-.559,3.166,3.166,0,0,1,2.563,1.086,4.7,4.7,0,0,1,.914,3.109v.6H47.056a3,3,0,0,0,.73,2.02,2.3,2.3,0,0,0,1.777.77,2.517,2.517,0,0,0,1.3-.312,3.259,3.259,0,0,0,.93-.828l.883.688A3.55,3.55,0,0,1,49.486,15.156Zm-.18-7.578a1.928,1.928,0,0,0-1.469.637A3.1,3.1,0,0,0,47.1,10h4.234V9.891a2.753,2.753,0,0,0-.594-1.707A1.815,1.815,0,0,0,49.306,7.578Zm6.516-1.031.047,1.063A3.08,3.08,0,0,1,58.4,6.391q2.68,0,2.7,3.023V15H59.658V9.406a1.946,1.946,0,0,0-.418-1.352,1.675,1.675,0,0,0-1.277-.437,2.086,2.086,0,0,0-1.234.375,2.546,2.546,0,0,0-.828.984V15H54.455V6.547ZM65.244,4.5V6.547h1.578V7.664H65.244v5.249a1.173,1.173,0,0,0,.211.763.888.888,0,0,0,.719.254,3.5,3.5,0,0,0,.688-.094V15a4.215,4.215,0,0,1-1.109.155,1.8,1.8,0,0,1-1.461-.586,2.517,2.517,0,0,1-.492-1.664V7.664H62.26V6.547H63.8V4.5ZM72.6,7.844a4.331,4.331,0,0,0-.711-.055A1.9,1.9,0,0,0,69.955,9v6H68.51V6.547h1.406l.023.977a2.251,2.251,0,0,1,2.016-1.133A1.477,1.477,0,0,1,72.6,6.5ZM78.83,15a3.036,3.036,0,0,1-.2-.891,3.225,3.225,0,0,1-2.406,1.047,2.984,2.984,0,0,1-2.051-.707,2.288,2.288,0,0,1-.8-1.793,2.39,2.39,0,0,1,1-2.051,4.733,4.733,0,0,1,2.824-.73H78.6V9.211A1.623,1.623,0,0,0,78.15,8a1.821,1.821,0,0,0-1.336-.449,2.108,2.108,0,0,0-1.3.391,1.151,1.151,0,0,0-.523.945H73.541a2,2,0,0,1,.449-1.223,3.066,3.066,0,0,1,1.219-.934A4.1,4.1,0,0,1,76.9,6.391a3.342,3.342,0,0,1,2.289.73,2.635,2.635,0,0,1,.859,2.012v3.891a4.757,4.757,0,0,0,.3,1.852V15Zm-2.4-1.1a2.54,2.54,0,0,0,1.289-.352,2.127,2.127,0,0,0,.883-.914V10.9H77.47q-2.656,0-2.656,1.555a1.316,1.316,0,0,0,.453,1.063A1.742,1.742,0,0,0,76.431,13.9Zm5.531-3.2a4.952,4.952,0,0,1,.922-3.129,3.137,3.137,0,0,1,4.766-.168V3H89.1V15H87.767l-.07-.906a2.943,2.943,0,0,1-2.414,1.063,2.887,2.887,0,0,1-2.395-1.2,5.008,5.008,0,0,1-.926-3.141Zm1.445.164A3.749,3.749,0,0,0,84,13.117a1.92,1.92,0,0,0,1.641.813A2.108,2.108,0,0,0,87.65,12.7V8.813a2.125,2.125,0,0,0-1.992-1.2A1.929,1.929,0,0,0,84,8.438,4.128,4.128,0,0,0,83.408,10.867ZM96.556,15a3.036,3.036,0,0,1-.2-.891,3.225,3.225,0,0,1-2.406,1.047,2.984,2.984,0,0,1-2.051-.707,2.288,2.288,0,0,1-.8-1.793,2.39,2.39,0,0,1,1-2.051,4.733,4.733,0,0,1,2.824-.73H96.33V9.211A1.623,1.623,0,0,0,95.877,8a1.821,1.821,0,0,0-1.336-.449,2.108,2.108,0,0,0-1.3.391,1.151,1.151,0,0,0-.523.945H91.267a2,2,0,0,1,.449-1.223,3.066,3.066,0,0,1,1.219-.934,4.1,4.1,0,0,1,1.691-.344,3.342,3.342,0,0,1,2.289.73,2.635,2.635,0,0,1,.859,2.012v3.891a4.757,4.757,0,0,0,.3,1.852V15Zm-2.4-1.1a2.54,2.54,0,0,0,1.289-.352,2.127,2.127,0,0,0,.883-.914V10.9H95.2q-2.656,0-2.656,1.555a1.316,1.316,0,0,0,.453,1.063A1.742,1.742,0,0,0,94.158,13.9Zm10.8-1.141a1.064,1.064,0,0,0-.441-.91,4.249,4.249,0,0,0-1.539-.559,7.277,7.277,0,0,1-1.742-.562,2.479,2.479,0,0,1-.953-.781,1.869,1.869,0,0,1-.309-1.078,2.193,2.193,0,0,1,.879-1.758,3.432,3.432,0,0,1,2.246-.719,3.532,3.532,0,0,1,2.332.742,2.357,2.357,0,0,1,.895,1.9h-1.453a1.3,1.3,0,0,0-.5-1.023,1.888,1.888,0,0,0-1.27-.43,1.976,1.976,0,0,0-1.234.344,1.082,1.082,0,0,0-.445.9.877.877,0,0,0,.414.789,5.1,5.1,0,0,0,1.5.508,7.8,7.8,0,0,1,1.754.578,2.558,2.558,0,0,1,1,.809,1.988,1.988,0,0,1,.324,1.152,2.163,2.163,0,0,1-.906,1.816,3.8,3.8,0,0,1-2.352.684,4.257,4.257,0,0,1-1.8-.359,2.922,2.922,0,0,1-1.223-1,2.42,2.42,0,0,1-.441-1.395h1.445a1.5,1.5,0,0,0,.582,1.152,2.258,2.258,0,0,0,1.434.426,2.331,2.331,0,0,0,1.316-.332A1.02,1.02,0,0,0,104.963,12.758ZM111.9,10.7a4.961,4.961,0,0,1,.914-3.152,3.226,3.226,0,0,1,4.82-.152l.063-.852h1.328v11.7H117.58V14.219a3.033,3.033,0,0,1-2.328.938,2.915,2.915,0,0,1-2.441-1.191,5.072,5.072,0,0,1-.91-3.16Zm1.445.164a3.761,3.761,0,0,0,.613,2.281,1.951,1.951,0,0,0,1.652.828,2.164,2.164,0,0,0,1.969-1.141V8.7a2.171,2.171,0,0,0-1.953-1.117,1.965,1.965,0,0,0-1.664.832A4.094,4.094,0,0,0,113.345,10.867Zm13.219,3.3a3.07,3.07,0,0,1-2.477.992,2.628,2.628,0,0,1-2.059-.785,3.4,3.4,0,0,1-.715-2.324v-5.5h1.445v5.461q0,1.922,1.563,1.922a2.163,2.163,0,0,0,2.2-1.234V6.547h1.445V15H126.6Zm7.109.992a3.693,3.693,0,0,1-2.8-1.129,4.19,4.19,0,0,1-1.078-3.02v-.266a5.073,5.073,0,0,1,.48-2.246,3.748,3.748,0,0,1,1.344-1.547,3.378,3.378,0,0,1,1.871-.559,3.166,3.166,0,0,1,2.563,1.086,4.7,4.7,0,0,1,.914,3.109v.6h-5.727a3,3,0,0,0,.73,2.02,2.3,2.3,0,0,0,1.777.77,2.517,2.517,0,0,0,1.3-.312,3.258,3.258,0,0,0,.93-.828l.883.688A3.55,3.55,0,0,1,133.674,15.156Zm-.18-7.578a1.928,1.928,0,0,0-1.469.637A3.1,3.1,0,0,0,131.291,10h4.234V9.891a2.753,2.753,0,0,0-.594-1.707A1.815,1.815,0,0,0,133.494,7.578Zm14.031,5.18a1.064,1.064,0,0,0-.441-.91,4.249,4.249,0,0,0-1.539-.559,7.277,7.277,0,0,1-1.742-.562,2.479,2.479,0,0,1-.953-.781,1.869,1.869,0,0,1-.309-1.078,2.193,2.193,0,0,1,.879-1.758,3.432,3.432,0,0,1,2.246-.719A3.532,3.532,0,0,1,148,7.133a2.357,2.357,0,0,1,.895,1.9h-1.453a1.3,1.3,0,0,0-.5-1.023,1.888,1.888,0,0,0-1.27-.43,1.976,1.976,0,0,0-1.234.344,1.082,1.082,0,0,0-.445.9.877.877,0,0,0,.414.789,5.1,5.1,0,0,0,1.5.508,7.8,7.8,0,0,1,1.754.578,2.558,2.558,0,0,1,1,.809,1.988,1.988,0,0,1,.324,1.152,2.163,2.163,0,0,1-.906,1.816,3.8,3.8,0,0,1-2.352.684,4.257,4.257,0,0,1-1.8-.359,2.922,2.922,0,0,1-1.223-1,2.42,2.42,0,0,1-.441-1.395H143.7a1.5,1.5,0,0,0,.582,1.152,2.258,2.258,0,0,0,1.434.426,2.331,2.331,0,0,0,1.316-.332A1.02,1.02,0,0,0,147.525,12.758Zm6.836,2.4a3.693,3.693,0,0,1-2.8-1.129,4.19,4.19,0,0,1-1.078-3.02v-.266a5.073,5.073,0,0,1,.48-2.246,3.748,3.748,0,0,1,1.344-1.547,3.378,3.378,0,0,1,1.871-.559,3.166,3.166,0,0,1,2.563,1.086,4.7,4.7,0,0,1,.914,3.109v.6h-5.727a3,3,0,0,0,.73,2.02,2.3,2.3,0,0,0,1.777.77,2.517,2.517,0,0,0,1.3-.312,3.258,3.258,0,0,0,.93-.828l.883.688A3.55,3.55,0,0,1,154.361,15.156Zm-.18-7.578a1.928,1.928,0,0,0-1.469.637A3.1,3.1,0,0,0,151.978,10h4.234V9.891a2.753,2.753,0,0,0-.594-1.707A1.815,1.815,0,0,0,154.181,7.578Zm-143.27,30.4a2.082,2.082,0,0,0,1.352-.469,1.649,1.649,0,0,0,.641-1.172h1.367a2.621,2.621,0,0,1-.5,1.383,3.293,3.293,0,0,1-1.23,1.047,3.55,3.55,0,0,1-1.629.391A3.482,3.482,0,0,1,8.166,38a4.59,4.59,0,0,1-1.02-3.152v-.242a5.089,5.089,0,0,1,.453-2.2,3.451,3.451,0,0,1,1.3-1.492,3.7,3.7,0,0,1,2-.531,3.39,3.39,0,0,1,2.363.852,3.043,3.043,0,0,1,1,2.211H12.9a1.992,1.992,0,0,0-.621-1.348,1.932,1.932,0,0,0-1.379-.527,2.023,2.023,0,0,0-1.707.793,3.724,3.724,0,0,0-.605,2.293v.273a3.65,3.65,0,0,0,.6,2.25A2.033,2.033,0,0,0,10.912,37.977Zm9.07-6.133a4.331,4.331,0,0,0-.711-.055A1.9,1.9,0,0,0,17.342,33v6H15.9V30.547H17.3l.023.977a2.251,2.251,0,0,1,2.016-1.133,1.477,1.477,0,0,1,.641.109Zm4.688,7.313a3.693,3.693,0,0,1-2.8-1.129,4.19,4.19,0,0,1-1.078-3.02v-.266a5.073,5.073,0,0,1,.48-2.246,3.748,3.748,0,0,1,1.344-1.547,3.378,3.378,0,0,1,1.871-.559,3.166,3.166,0,0,1,2.563,1.086,4.7,4.7,0,0,1,.914,3.109v.6H22.24a3,3,0,0,0,.73,2.02,2.3,2.3,0,0,0,1.777.77,2.517,2.517,0,0,0,1.3-.312,3.259,3.259,0,0,0,.93-.828l.883.688A3.55,3.55,0,0,1,24.67,39.156Zm-.18-7.578a1.928,1.928,0,0,0-1.469.637A3.1,3.1,0,0,0,22.287,34h4.234v-.109a2.753,2.753,0,0,0-.594-1.707A1.815,1.815,0,0,0,24.49,31.578ZM34.857,39a3.036,3.036,0,0,1-.2-.891,3.225,3.225,0,0,1-2.406,1.047,2.984,2.984,0,0,1-2.051-.707,2.287,2.287,0,0,1-.8-1.793,2.39,2.39,0,0,1,1-2.051,4.733,4.733,0,0,1,2.824-.73h1.406v-.664A1.623,1.623,0,0,0,34.177,32a1.821,1.821,0,0,0-1.336-.449,2.108,2.108,0,0,0-1.3.391,1.151,1.151,0,0,0-.523.945H29.568a2,2,0,0,1,.449-1.223,3.066,3.066,0,0,1,1.219-.934,4.1,4.1,0,0,1,1.691-.344,3.342,3.342,0,0,1,2.289.73,2.635,2.635,0,0,1,.859,2.012v3.891a4.757,4.757,0,0,0,.3,1.852V39Zm-2.4-1.1a2.54,2.54,0,0,0,1.289-.352,2.127,2.127,0,0,0,.883-.914V34.9H33.5q-2.656,0-2.656,1.555a1.316,1.316,0,0,0,.453,1.063A1.742,1.742,0,0,0,32.459,37.9Zm7.25-7.352.047,1.063a3.08,3.08,0,0,1,2.531-1.219q2.68,0,2.7,3.023V39H43.545V33.406a1.946,1.946,0,0,0-.418-1.352,1.675,1.675,0,0,0-1.277-.437,2.086,2.086,0,0,0-1.234.375,2.546,2.546,0,0,0-.828.984V39H38.342V30.547ZM50.779,34.7a4.952,4.952,0,0,1,.922-3.129,3.137,3.137,0,0,1,4.766-.168V27h1.445V39H56.584l-.07-.906A2.943,2.943,0,0,1,54.1,39.156a2.887,2.887,0,0,1-2.395-1.2,5.008,5.008,0,0,1-.926-3.141Zm1.445.164a3.749,3.749,0,0,0,.594,2.25,1.919,1.919,0,0,0,1.641.813A2.108,2.108,0,0,0,56.467,36.7V32.813a2.125,2.125,0,0,0-1.992-1.2,1.929,1.929,0,0,0-1.656.82A4.128,4.128,0,0,0,52.224,34.867ZM61.724,39H60.279V30.547h1.445ZM60.162,28.3a.863.863,0,0,1,.215-.594.807.807,0,0,1,.637-.242.819.819,0,0,1,.641.242.854.854,0,0,1,.219.594.826.826,0,0,1-.219.586.834.834,0,0,1-.641.234.821.821,0,0,1-.637-.234A.834.834,0,0,1,60.162,28.3Zm7.961,3.539a4.331,4.331,0,0,0-.711-.055A1.9,1.9,0,0,0,65.482,33v6H64.037V30.547h1.406l.023.977a2.251,2.251,0,0,1,2.016-1.133,1.477,1.477,0,0,1,.641.109Zm4.688,7.313a3.693,3.693,0,0,1-2.8-1.129,4.19,4.19,0,0,1-1.078-3.02v-.266a5.073,5.073,0,0,1,.48-2.246,3.748,3.748,0,0,1,1.344-1.547,3.378,3.378,0,0,1,1.871-.559,3.166,3.166,0,0,1,2.563,1.086,4.7,4.7,0,0,1,.914,3.109v.6H70.381a3,3,0,0,0,.73,2.02,2.3,2.3,0,0,0,1.777.77,2.517,2.517,0,0,0,1.3-.312,3.259,3.259,0,0,0,.93-.828l.883.688A3.55,3.55,0,0,1,72.81,39.156Zm-.18-7.578a1.928,1.928,0,0,0-1.469.637A3.1,3.1,0,0,0,70.427,34h4.234v-.109a2.753,2.753,0,0,0-.594-1.707A1.815,1.815,0,0,0,72.631,31.578Zm8.539,6.4a2.082,2.082,0,0,0,1.352-.469,1.649,1.649,0,0,0,.641-1.172h1.367a2.621,2.621,0,0,1-.5,1.383,3.293,3.293,0,0,1-1.23,1.047,3.55,3.55,0,0,1-1.629.391A3.482,3.482,0,0,1,78.424,38a4.59,4.59,0,0,1-1.02-3.152v-.242a5.089,5.089,0,0,1,.453-2.2,3.451,3.451,0,0,1,1.3-1.492,3.7,3.7,0,0,1,2-.531,3.39,3.39,0,0,1,2.363.852,3.043,3.043,0,0,1,1,2.211H83.162a1.992,1.992,0,0,0-.621-1.348,1.932,1.932,0,0,0-1.379-.527,2.023,2.023,0,0,0-1.707.793,3.724,3.724,0,0,0-.605,2.293v.273a3.65,3.65,0,0,0,.6,2.25A2.033,2.033,0,0,0,81.17,37.977ZM88.115,28.5v2.047h1.578v1.117H88.115v5.249a1.173,1.173,0,0,0,.211.763.888.888,0,0,0,.719.254,3.5,3.5,0,0,0,.688-.094V39a4.215,4.215,0,0,1-1.109.155,1.8,1.8,0,0,1-1.461-.586,2.517,2.517,0,0,1-.492-1.664V31.664H85.131V30.547H86.67V28.5ZM96.6,39a3.036,3.036,0,0,1-.2-.891,3.225,3.225,0,0,1-2.406,1.047,2.984,2.984,0,0,1-2.051-.707,2.288,2.288,0,0,1-.8-1.793,2.39,2.39,0,0,1,1-2.051,4.733,4.733,0,0,1,2.824-.73h1.406v-.664A1.623,1.623,0,0,0,95.92,32a1.821,1.821,0,0,0-1.336-.449,2.108,2.108,0,0,0-1.3.391,1.151,1.151,0,0,0-.523.945H91.31a2,2,0,0,1,.449-1.223,3.066,3.066,0,0,1,1.219-.934,4.1,4.1,0,0,1,1.691-.344,3.342,3.342,0,0,1,2.289.73,2.635,2.635,0,0,1,.859,2.012v3.891a4.757,4.757,0,0,0,.3,1.852V39Zm-2.4-1.1a2.54,2.54,0,0,0,1.289-.352,2.127,2.127,0,0,0,.883-.914V34.9H95.24q-2.656,0-2.656,1.555a1.316,1.316,0,0,0,.453,1.063A1.742,1.742,0,0,0,94.2,37.9Zm7.242-7.352.039.938a3.122,3.122,0,0,1,2.508-1.094A2.417,2.417,0,0,1,106.4,31.75a3.2,3.2,0,0,1,1.1-.984,3.242,3.242,0,0,1,1.6-.375q2.781,0,2.828,2.945V39h-1.445V33.422a1.941,1.941,0,0,0-.414-1.355,1.823,1.823,0,0,0-1.391-.449,1.916,1.916,0,0,0-1.336.48,1.949,1.949,0,0,0-.617,1.293V39h-1.453V33.461a1.613,1.613,0,0,0-1.8-1.844,1.934,1.934,0,0,0-1.945,1.211V39h-1.445V30.547Zm16.172,8.609a3.693,3.693,0,0,1-2.8-1.129,4.19,4.19,0,0,1-1.078-3.02v-.266a5.073,5.073,0,0,1,.48-2.246,3.748,3.748,0,0,1,1.344-1.547,3.378,3.378,0,0,1,1.871-.559A3.166,3.166,0,0,1,120,31.477a4.7,4.7,0,0,1,.914,3.109v.6h-5.727a3,3,0,0,0,.73,2.02,2.3,2.3,0,0,0,1.777.77,2.517,2.517,0,0,0,1.3-.312,3.259,3.259,0,0,0,.93-.828l.883.688A3.55,3.55,0,0,1,117.615,39.156Zm-.18-7.578a1.928,1.928,0,0,0-1.469.637A3.1,3.1,0,0,0,115.232,34h4.234v-.109a2.753,2.753,0,0,0-.594-1.707A1.815,1.815,0,0,0,117.435,31.578Zm6.516-1.031L124,31.609a3.08,3.08,0,0,1,2.531-1.219q2.68,0,2.7,3.023V39h-1.445V33.406a1.946,1.946,0,0,0-.418-1.352,1.675,1.675,0,0,0-1.277-.437,2.086,2.086,0,0,0-1.234.375,2.546,2.546,0,0,0-.828.984V39h-1.445V30.547Zm9.422-2.047v2.047h1.578v1.117h-1.578v5.249a1.173,1.173,0,0,0,.211.763.888.888,0,0,0,.719.254,3.5,3.5,0,0,0,.688-.094V39a4.215,4.215,0,0,1-1.109.155,1.8,1.8,0,0,1-1.461-.586,2.517,2.517,0,0,1-.492-1.664V31.664h-1.539V30.547h1.539V28.5Zm6.773,10.656a3.693,3.693,0,0,1-2.8-1.129,4.19,4.19,0,0,1-1.078-3.02v-.266a5.073,5.073,0,0,1,.48-2.246,3.748,3.748,0,0,1,1.344-1.547,3.378,3.378,0,0,1,1.871-.559,3.166,3.166,0,0,1,2.563,1.086,4.7,4.7,0,0,1,.914,3.109v.6h-5.727a3,3,0,0,0,.73,2.02,2.3,2.3,0,0,0,1.777.77,2.517,2.517,0,0,0,1.3-.312,3.258,3.258,0,0,0,.93-.828l.883.688A3.55,3.55,0,0,1,140.146,39.156Zm-.18-7.578a1.928,1.928,0,0,0-1.469.637A3.1,3.1,0,0,0,137.763,34H142v-.109a2.753,2.753,0,0,0-.594-1.707A1.815,1.815,0,0,0,139.967,31.578Zm12.617,7.578a3.693,3.693,0,0,1-2.8-1.129,4.19,4.19,0,0,1-1.078-3.02v-.266a5.073,5.073,0,0,1,.48-2.246,3.748,3.748,0,0,1,1.344-1.547,3.378,3.378,0,0,1,1.871-.559,3.166,3.166,0,0,1,2.563,1.086,4.7,4.7,0,0,1,.914,3.109v.6h-5.727a3,3,0,0,0,.73,2.02,2.3,2.3,0,0,0,1.777.77,2.517,2.517,0,0,0,1.3-.312,3.258,3.258,0,0,0,.93-.828l.883.688A3.55,3.55,0,0,1,152.584,39.156Zm-.18-7.578a1.928,1.928,0,0,0-1.469.637A3.1,3.1,0,0,0,150.2,34h4.234v-.109a2.753,2.753,0,0,0-.594-1.707A1.815,1.815,0,0,0,152.4,31.578Zm6.516-1.031.047,1.063a3.08,3.08,0,0,1,2.531-1.219q2.68,0,2.7,3.023V39h-1.445V33.406a1.946,1.946,0,0,0-.418-1.352,1.675,1.675,0,0,0-1.277-.437,2.086,2.086,0,0,0-1.234.375,2.546,2.546,0,0,0-.828.984V39h-1.445V30.547ZM63.4,63H61.959V51H63.4Zm7.531,0a3.036,3.036,0,0,1-.2-.891,3.225,3.225,0,0,1-2.406,1.047,2.984,2.984,0,0,1-2.051-.707,2.288,2.288,0,0,1-.8-1.793,2.39,2.39,0,0,1,1-2.051,4.733,4.733,0,0,1,2.824-.73h1.406v-.664A1.623,1.623,0,0,0,70.256,56a1.821,1.821,0,0,0-1.336-.449,2.107,2.107,0,0,0-1.3.391,1.151,1.151,0,0,0-.523.945H65.646a2,2,0,0,1,.449-1.223,3.066,3.066,0,0,1,1.219-.934,4.1,4.1,0,0,1,1.691-.344,3.342,3.342,0,0,1,2.289.73,2.635,2.635,0,0,1,.859,2.012v3.891a4.757,4.757,0,0,0,.3,1.852V63Zm-2.4-1.1a2.54,2.54,0,0,0,1.289-.352,2.127,2.127,0,0,0,.883-.914V58.9H69.576q-2.656,0-2.656,1.555a1.316,1.316,0,0,0,.453,1.063A1.742,1.742,0,0,0,68.537,61.9Zm17.328-.891,1.625-6.461h1.445L86.474,63H85.3l-2.055-6.406-2,6.406H80.076l-2.453-8.453H79.06l1.664,6.328,1.969-6.328h1.164Zm8.047,2.148a3.693,3.693,0,0,1-2.8-1.129,4.19,4.19,0,0,1-1.078-3.02v-.266a5.073,5.073,0,0,1,.48-2.246,3.748,3.748,0,0,1,1.344-1.547,3.378,3.378,0,0,1,1.871-.559,3.166,3.166,0,0,1,2.563,1.086,4.7,4.7,0,0,1,.914,3.109v.6H91.482a3,3,0,0,0,.73,2.02,2.3,2.3,0,0,0,1.777.77,2.517,2.517,0,0,0,1.3-.312,3.259,3.259,0,0,0,.93-.828l.883.688A3.55,3.55,0,0,1,93.912,63.156Zm-.18-7.578a1.928,1.928,0,0,0-1.469.637A3.1,3.1,0,0,0,91.529,58h4.234v-.109a2.753,2.753,0,0,0-.594-1.707A1.815,1.815,0,0,0,93.732,55.578Zm12.3,3.289a5.026,5.026,0,0,1-.891,3.113,2.846,2.846,0,0,1-2.391,1.176,2.947,2.947,0,0,1-2.477-1.133l-.07.977H98.881V51h1.445v4.477a2.93,2.93,0,0,1,2.414-1.086,2.863,2.863,0,0,1,2.418,1.164,5.177,5.177,0,0,1,.879,3.188Zm-1.445-.164a3.906,3.906,0,0,0-.57-2.281,1.888,1.888,0,0,0-1.641-.8,2.122,2.122,0,0,0-2.055,1.328V60.6a2.181,2.181,0,0,0,2.07,1.328,1.878,1.878,0,0,0,1.617-.8A4.153,4.153,0,0,0,104.592,58.7Zm3.3,3.539a.905.905,0,0,1,.223-.625.848.848,0,0,1,.668-.25.874.874,0,0,1,.676.25.887.887,0,0,1,.23.625.839.839,0,0,1-.23.6.89.89,0,0,1-.676.242.8.8,0,0,1-.891-.844Z" transform="translate(-883.503 -2101.572)" fill="#12263f"/>
    <path id="Trazado_213445" data-name="Trazado 213445" d="M26.837,17V4.2h4.6a6.509,6.509,0,0,1,3.757.905,3.012,3.012,0,0,1,1.288,2.628,3.045,3.045,0,0,1-.457,1.7,2.663,2.663,0,0,1-1.345,1.037,2.7,2.7,0,0,1,1.538.984,2.862,2.862,0,0,1,.536,1.758,3.388,3.388,0,0,1-1.191,2.826A5.667,5.667,0,0,1,32.031,17Zm3.085-5.44v3.067h2.021a1.923,1.923,0,0,0,1.283-.382,1.338,1.338,0,0,0,.448-1.077,1.419,1.419,0,0,0-1.591-1.608Zm0-2.021H31.53a2.285,2.285,0,0,0,1.441-.37A1.314,1.314,0,0,0,33.4,8.1a1.379,1.379,0,0,0-.466-1.168,2.493,2.493,0,0,0-1.5-.357H29.922Zm14.054,6.434a3.054,3.054,0,0,1-2.54,1.2,3,3,0,0,1-2.369-.91,3.826,3.826,0,0,1-.8-2.615V7.49h2.962v6.179a1.065,1.065,0,0,0,1.187,1.222,1.548,1.548,0,0,0,1.45-.729V7.49h2.979V17H44.063ZM42.921,3.5H46.05L43.606,6.26l-2.417,0ZM53.441,14.328a.684.684,0,0,0-.4-.606,6.016,6.016,0,0,0-1.5-.475,6.853,6.853,0,0,1-1.828-.646,3.062,3.062,0,0,1-1.1-.971,2.319,2.319,0,0,1-.378-1.31,2.628,2.628,0,0,1,1.081-2.158,4.453,4.453,0,0,1,2.83-.848,4.934,4.934,0,0,1,3.023.853,2.666,2.666,0,0,1,1.143,2.241H53.345q0-1.143-1.2-1.143a1.194,1.194,0,0,0-.782.259.8.8,0,0,0-.316.646.737.737,0,0,0,.387.642,3.654,3.654,0,0,0,1.235.4,10.671,10.671,0,0,1,1.49.378A2.706,2.706,0,0,1,56.3,14.24a2.491,2.491,0,0,1-1.156,2.118,5.068,5.068,0,0,1-2.993.817,5.172,5.172,0,0,1-2.18-.439,3.645,3.645,0,0,1-1.494-1.2,2.707,2.707,0,0,1-.536-1.591h2.769a1.145,1.145,0,0,0,.439.962,1.808,1.808,0,0,0,1.081.3,1.422,1.422,0,0,0,.91-.246A.787.787,0,0,0,53.441,14.328Zm3.867-2.18A5.709,5.709,0,0,1,58.293,8.6a3.233,3.233,0,0,1,2.716-1.283,2.761,2.761,0,0,1,2.338,1.2l.211-1.02h2.566V20.656H63.153V16.209a2.757,2.757,0,0,1-2.162.967,3.2,3.2,0,0,1-2.685-1.305A6.027,6.027,0,0,1,57.309,12.148Zm2.962.185q0,2.558,1.477,2.558a1.43,1.43,0,0,0,1.406-.773V10.355A1.4,1.4,0,0,0,61.765,9.6q-1.38,0-1.485,2.206Zm13.192,3.639a3.054,3.054,0,0,1-2.54,1.2,3,3,0,0,1-2.369-.91,3.826,3.826,0,0,1-.8-2.615V7.49h2.962v6.179A1.065,1.065,0,0,0,71.9,14.891a1.548,1.548,0,0,0,1.45-.729V7.49h2.979V17H73.551Zm9.088,1.2a4.889,4.889,0,0,1-3.542-1.305,4.507,4.507,0,0,1-1.354-3.4v-.246A5.84,5.84,0,0,1,78.2,9.652a3.955,3.955,0,0,1,1.578-1.727,4.763,4.763,0,0,1,2.461-.611A4.117,4.117,0,0,1,85.4,8.558a4.887,4.887,0,0,1,1.16,3.467v1.151H80.67a2.135,2.135,0,0,0,.694,1.257,2.066,2.066,0,0,0,1.389.457,2.662,2.662,0,0,0,2.2-.984l1.354,1.6a3.784,3.784,0,0,1-1.569,1.217A5.3,5.3,0,0,1,82.551,17.176ZM82.217,9.6q-1.3,0-1.547,1.723h2.988v-.229a1.467,1.467,0,0,0-.36-1.1A1.434,1.434,0,0,0,82.217,9.6Zm5.159,2.575a5.809,5.809,0,0,1,.976-3.56,3.211,3.211,0,0,1,2.725-1.3,2.731,2.731,0,0,1,2.145,1V3.5h2.971V17H93.528l-.149-1.02a2.8,2.8,0,0,1-2.32,1.2,3.205,3.205,0,0,1-2.689-1.3A5.993,5.993,0,0,1,87.376,12.175Zm2.962.185q0,2.531,1.477,2.531a1.458,1.458,0,0,0,1.406-.826V10.443A1.419,1.419,0,0,0,91.832,9.6q-1.371,0-1.485,2.215ZM103.231,17a3.344,3.344,0,0,1-.281-.853,2.754,2.754,0,0,1-2.285,1.028,3.374,3.374,0,0,1-2.285-.813,2.588,2.588,0,0,1-.94-2.043,2.66,2.66,0,0,1,1.143-2.338,5.821,5.821,0,0,1,3.322-.791h.914v-.5q0-1.316-1.134-1.316a.927.927,0,0,0-1.055,1.042H97.668a2.655,2.655,0,0,1,1.173-2.239,4.931,4.931,0,0,1,2.993-.86,4.323,4.323,0,0,1,2.874.888,3.086,3.086,0,0,1,1.081,2.435v4.21a4.311,4.311,0,0,0,.4,2V17Zm-1.854-1.934a1.652,1.652,0,0,0,.918-.237,1.487,1.487,0,0,0,.523-.536V12.772h-.861q-1.547,0-1.547,1.389a.848.848,0,0,0,.272.655A.986.986,0,0,0,101.377,15.066Zm11.03-.738a.684.684,0,0,0-.4-.606,6.016,6.016,0,0,0-1.5-.475,6.853,6.853,0,0,1-1.828-.646,3.062,3.062,0,0,1-1.1-.971,2.319,2.319,0,0,1-.378-1.31,2.628,2.628,0,0,1,1.081-2.158,4.453,4.453,0,0,1,2.83-.848,4.934,4.934,0,0,1,3.023.853,2.666,2.666,0,0,1,1.143,2.241h-2.971q0-1.143-1.2-1.143a1.194,1.194,0,0,0-.782.259.8.8,0,0,0-.316.646.737.737,0,0,0,.387.642,3.654,3.654,0,0,0,1.235.4,10.671,10.671,0,0,1,1.49.378,2.706,2.706,0,0,1,2.145,2.646,2.491,2.491,0,0,1-1.156,2.118,5.068,5.068,0,0,1-2.993.817,5.172,5.172,0,0,1-2.18-.439,3.645,3.645,0,0,1-1.494-1.2,2.707,2.707,0,0,1-.536-1.591h2.769a1.145,1.145,0,0,0,.439.962,1.808,1.808,0,0,0,1.081.3,1.422,1.422,0,0,0,.91-.246A.787.787,0,0,0,112.407,14.328Zm8.35-2.153a5.809,5.809,0,0,1,.976-3.56,3.211,3.211,0,0,1,2.725-1.3,2.731,2.731,0,0,1,2.145,1V3.5h2.971V17h-2.663l-.149-1.02a2.8,2.8,0,0,1-2.32,1.2,3.205,3.205,0,0,1-2.689-1.3A5.993,5.993,0,0,1,120.757,12.175Zm2.962.185q0,2.531,1.477,2.531a1.458,1.458,0,0,0,1.406-.826V10.443a1.419,1.419,0,0,0-1.389-.844q-1.371,0-1.485,2.215ZM134.38,17h-2.971V7.49h2.971ZM131.233,5.029a1.334,1.334,0,0,1,.457-1.043,1.934,1.934,0,0,1,2.373,0,1.334,1.334,0,0,1,.457,1.043,1.334,1.334,0,0,1-.457,1.043,1.934,1.934,0,0,1-2.373,0A1.334,1.334,0,0,1,131.233,5.029Zm10.723,5.142-.976-.07a1.752,1.752,0,0,0-1.793.879V17h-2.962V7.49H139l.1,1.222a2.294,2.294,0,0,1,2.083-1.4,2.888,2.888,0,0,1,.826.105Zm5.5,7a4.889,4.889,0,0,1-3.542-1.305,4.507,4.507,0,0,1-1.354-3.4v-.246a5.84,5.84,0,0,1,.541-2.575,3.955,3.955,0,0,1,1.578-1.727,4.763,4.763,0,0,1,2.461-.611,4.117,4.117,0,0,1,3.164,1.244,4.887,4.887,0,0,1,1.16,3.467v1.151h-5.889a2.135,2.135,0,0,0,.694,1.257,2.066,2.066,0,0,0,1.389.457,2.662,2.662,0,0,0,2.2-.984l1.354,1.6a3.784,3.784,0,0,1-1.569,1.217A5.3,5.3,0,0,1,147.458,17.176ZM147.124,9.6q-1.3,0-1.547,1.723h2.988v-.229a1.467,1.467,0,0,0-.36-1.1A1.434,1.434,0,0,0,147.124,9.6Zm9.554,5.291a1.317,1.317,0,0,0,.967-.338,1.241,1.241,0,0,0,.334-.945h2.777a3.288,3.288,0,0,1-1.121,2.566,4.168,4.168,0,0,1-2.887,1,4.22,4.22,0,0,1-3.27-1.3,5.125,5.125,0,0,1-1.2-3.6v-.123a5.792,5.792,0,0,1,.532-2.544,3.872,3.872,0,0,1,1.534-1.7,4.573,4.573,0,0,1,2.373-.593,4.116,4.116,0,0,1,2.944,1.028,3.647,3.647,0,0,1,1.09,2.786h-2.777a1.626,1.626,0,0,0-.36-1.134,1.244,1.244,0,0,0-.967-.4q-1.151,0-1.345,1.468a10.357,10.357,0,0,0-.062,1.283,4.068,4.068,0,0,0,.343,1.986A1.187,1.187,0,0,0,156.678,14.891Zm8.78-9.765V7.49h1.564V9.547h-1.564V13.9a1.111,1.111,0,0,0,.193.747,1.037,1.037,0,0,0,.765.211,4.345,4.345,0,0,0,.738-.053v2.118a5.466,5.466,0,0,1-1.67.255,3.1,3.1,0,0,1-2.259-.721,2.954,2.954,0,0,1-.729-2.188V9.547h-1.213V7.49H162.5V5.126ZM173.544,17a3.344,3.344,0,0,1-.281-.853,2.754,2.754,0,0,1-2.285,1.028,3.374,3.374,0,0,1-2.285-.813,2.588,2.588,0,0,1-.94-2.043,2.66,2.66,0,0,1,1.143-2.338,5.821,5.821,0,0,1,3.322-.791h.914v-.5q0-1.316-1.134-1.316a.927.927,0,0,0-1.055,1.042H167.98a2.655,2.655,0,0,1,1.173-2.239,4.931,4.931,0,0,1,2.993-.86,4.323,4.323,0,0,1,2.874.888,3.086,3.086,0,0,1,1.081,2.435v4.21a4.311,4.311,0,0,0,.4,2V17Zm-1.854-1.934a1.652,1.652,0,0,0,.918-.237,1.487,1.487,0,0,0,.523-.536V12.772h-.861q-1.547,0-1.547,1.389a.848.848,0,0,0,.272.655A.986.986,0,0,0,171.689,15.066Zm11.03-.738a.684.684,0,0,0-.4-.606,6.016,6.016,0,0,0-1.5-.475,6.853,6.853,0,0,1-1.828-.646,3.062,3.062,0,0,1-1.1-.971,2.319,2.319,0,0,1-.378-1.31A2.628,2.628,0,0,1,178.6,8.163a4.453,4.453,0,0,1,2.83-.848,4.934,4.934,0,0,1,3.023.853,2.666,2.666,0,0,1,1.143,2.241h-2.971q0-1.143-1.2-1.143a1.194,1.194,0,0,0-.782.259.8.8,0,0,0-.316.646.737.737,0,0,0,.387.642,3.654,3.654,0,0,0,1.235.4,10.671,10.671,0,0,1,1.49.378,2.706,2.706,0,0,1,2.145,2.646,2.491,2.491,0,0,1-1.156,2.118,5.068,5.068,0,0,1-2.993.817,5.172,5.172,0,0,1-2.18-.439,3.645,3.645,0,0,1-1.494-1.2,2.707,2.707,0,0,1-.536-1.591h2.769a1.145,1.145,0,0,0,.439.962,1.808,1.808,0,0,0,1.081.3,1.422,1.422,0,0,0,.91-.246A.787.787,0,0,0,182.72,14.328Z" transform="translate(-903.146 -2135.406)" fill="#12263f"/>
    <path id="Trazado_213454" data-name="Trazado 213454" d="M31.084-17.343q0,8.7-3.6,13.31T16.939.576q-6.856,0-10.486-4.523T2.737-16.911v-7.721q0-8.787,3.644-13.338t10.5-4.552q6.856,0,10.486,4.509t3.716,12.949Zm-8.326-8.489q0-5.22-1.426-7.6a4.819,4.819,0,0,0-4.451-2.379,4.734,4.734,0,0,0-4.336,2.264q-1.4,2.264-1.484,7.079v10.208q0,5.133,1.4,7.627a4.755,4.755,0,0,0,4.48,2.494A4.676,4.676,0,0,0,21.347-8.53q1.354-2.393,1.412-7.325ZM65.453,0H36.7V-5.7L50.271-20.166a33.474,33.474,0,0,0,4.134-5.33,8.562,8.562,0,0,0,1.34-4.321,6.407,6.407,0,0,0-1.412-4.393,5.1,5.1,0,0,0-4.033-1.6,5.5,5.5,0,0,0-4.451,1.945,7.7,7.7,0,0,0-1.628,5.114H35.867a13.751,13.751,0,0,1,1.829-7,12.893,12.893,0,0,1,5.171-4.969,15.717,15.717,0,0,1,7.577-1.8q6.482,0,10.069,3.111T64.1-30.624a14.1,14.1,0,0,1-1.613,6.338,35.221,35.221,0,0,1-5.531,7.519L47.419-6.712H65.453Z" transform="translate(-664.407 -2106.406)" fill="#12263f" opacity="0.273"/>
  </g>
</svg>
