<svg xmlns="http://www.w3.org/2000/svg" xmlns:xlink="http://www.w3.org/1999/xlink" width="413.332" height="246.227" viewBox="0 0 413.332 246.227">
  <defs>
    <clipPath id="clip-path">
      <path id="Trazado_26183" data-name="Trazado 26183" d="M468.988,180.068l-13.83.048a4.064,4.064,0,0,1-.509,4.911,3.163,3.163,0,0,1-3.316.765c-1.4-.694-2.1-3.182-.772-5.66-.241-.008-.591-.019-1.013-.03a32.581,32.581,0,0,0-5.267.052,5.7,5.7,0,0,0-3.348,1.4,4.742,4.742,0,0,0-1.169,1.947,4.814,4.814,0,0,0-.208,1.412c-.007,1.348.052,14.818.054,15.154a3.37,3.37,0,0,0-3.306,1.158,3.149,3.149,0,0,0,3.328,5.059s.1,28.855.1,29.579l29.253-.1Z" transform="translate(-435.557 -180.037)" fill="none"/>
    </clipPath>
    <clipPath id="clip-path-2">
      <path id="Trazado_26197" data-name="Trazado 26197" d="M428.854,158.723l8.241.547a3.474,3.474,0,0,0,1.243,3.866,3.17,3.17,0,0,0,3.284.226,3.283,3.283,0,0,0,1.494-3.692l5.035.334a21.052,21.052,0,0,0,.857-4.92,23.848,23.848,0,1,0-38.924,16.849l-.643,9.681-.723,10.889a9.359,9.359,0,0,0,.064,1.88,9.242,9.242,0,0,0,.509,2,9.349,9.349,0,0,0,6.95,5.9,6.921,6.921,0,0,0,4.713,3.273c.356-6.443,1.083-20.057,1.09-20.42a2.827,2.827,0,0,1-3.061-1.02,2.791,2.791,0,0,1,.422-3.663,2.844,2.844,0,0,1,3.172-.349c.023-.4.816-11.691,1.19-16.931C425.66,159.89,427.472,158.631,428.854,158.723Z" transform="translate(-401.364 -129.655)" fill="none"/>
    </clipPath>
    <clipPath id="clip-path-3">
      <rect id="Rectángulo_4014" data-name="Rectángulo 4014" width="118.171" height="63.455" rx="1" fill="#26aab7"/>
    </clipPath>
    <linearGradient id="linear-gradient" x1="0.5" x2="0.5" y2="1" gradientUnits="objectBoundingBox">
      <stop offset="0" stop-color="#fff"/>
      <stop offset="1" stop-color="#d2e6ee"/>
    </linearGradient>
    <clipPath id="clip-path-4">
      <path id="Trazado_26215" data-name="Trazado 26215" d="M324.332,199.811c.515.653,2.549,1.793,3.067,3.143s-1.222,1.706-1.222,1.706c.256,2.137.528,4.7-.8,6.551-.983,1.364-2.842,2.529-4.441,1.454.43,1.388.95,2.866,1.579,4.409a54.383,54.383,0,0,0,2.723,5.7,23.4,23.4,0,0,1-2.593.467,23.665,23.665,0,0,1-6.409-.1c-3.116-1.846-3.8-3.413-3.831-4.521-.048-1.841,1.712-2.649,2.206-4.886.513-2.324-.7-4.572-1.8-6.113a1.91,1.91,0,0,1-1.957.018c-.761-.591-1.505-1.971-.8-2.8a2.012,2.012,0,0,1,2.385-.564c.682-1.088,2.171-2.834,1.421-5.781,2.211-.447,7.952-3.128,8.967-5.538C322.918,193.341,323.817,199.157,324.332,199.811Z" transform="translate(-309.766 -192.958)" fill="#d08b73"/>
    </clipPath>
    <clipPath id="clip-path-5">
      <path id="Trazado_26225" data-name="Trazado 26225" d="M319,230.05a27.029,27.029,0,0,1,9.065,11.337q.052-6.723.1-13.447l-3.363-4.887,1.626-5.474,5.109.821,2.593,4.38q-.6,2.693-1.2,5.387c.315,3.11.743,7.487,1.2,12.8.4,4.6.743,9.056-1.358,10.446a6.228,6.228,0,0,1-2.778.915,6.361,6.361,0,0,1-2.265-.374c-1.909-.7-8.173-6.411-16.011-14.809Z" transform="translate(-311.73 -217.579)" fill="#d08b73"/>
    </clipPath>
    <clipPath id="clip-path-6">
      <path id="Trazado_26234" data-name="Trazado 26234" d="M208.96,245.513l-4.824,8.9,7.937,6.463a10,10,0,0,1-.524-4.779,10.334,10.334,0,0,1,3.349-6.182Z" transform="translate(-204.136 -245.513)" fill="#d08b73"/>
    </clipPath>
    <clipPath id="clip-path-7">
      <path id="Trazado_26238" data-name="Trazado 26238" d="M206.76,262.293c-.684-1.012-1.426-2.051-2.231-3.108-1.38-1.813-2.766-3.44-4.109-4.893-5.808.24-8.757,2.284-10.259,3.747-3.168,3.084-3.974,7.451-3.726,25.082.092,6.583.227,12.041.337,15.873a15.022,15.022,0,0,0,22.667-1.182c-.2-5.034-.453-9.117-.645-11.9-.432-6.233-.591-9.8-1.039-14.565C207.4,267.552,207.028,264.424,206.76,262.293Z" transform="translate(-186.392 -254.291)" fill="#00223d"/>
    </clipPath>
    <clipPath id="clip-path-8">
      <path id="Trazado_26257" data-name="Trazado 26257" d="M498.334,294.6s.021,23.741.872,27.97,11.987,25.648,11.987,25.648l2.17,3.139,5.375-3.139a102.223,102.223,0,0,0-3.405-14.915c-2.2-6.577-5.573-9.428-5.022-11.981a85.807,85.807,0,0,0,.882-19.412c-.7-6.589-2.382-14.222-2.382-14.222l-11.319.215Z" transform="translate(-497.492 -287.689)" fill="#12263f"/>
    </clipPath>
    <clipPath id="clip-path-9">
      <path id="Trazado_26265" data-name="Trazado 26265" d="M506.8,218.086c-.235.626-.569,1.594-.707,1.828a27.83,27.83,0,0,0-2.525,2.113c-.332.565.988.993.988.993-.036-.016-.806,2.758-.827,3.035a3.809,3.809,0,0,0,1.839,3.182,3.913,3.913,0,0,0,3.974,0c-.309,1.128-.636,2.25-.961,3.374l5.563,2.021a26.115,26.115,0,0,1,.821-5.352c.568-1.326,1.837-4.783,1.837-4.783a1.437,1.437,0,0,0,1.144-.364c.6-.487.91-2.063-.067-2.438a1.342,1.342,0,0,0-1.791.672c-.724-.1-1.337-1.824-1.568-2.372-.725-1.72-.289-3.394.064-5.136-.038.188-1.1.554-1.281.7a4.5,4.5,0,0,0-1.177,2.136,11.4,11.4,0,0,0-.292,1.2c-.167.855.047,1.323-1.006,1A21.3,21.3,0,0,1,506.8,218.086Z" transform="translate(-503.514 -214.86)" fill="#d08b73"/>
    </clipPath>
  </defs>
  <g id="Grupo_46890" data-name="Grupo 46890" transform="translate(-80.594 -65.234)">
    <g id="BACKGROUND" transform="translate(80.594 65.235)">
      <g id="Grupo_15917" data-name="Grupo 15917" transform="translate(0)" opacity="0.2">
        <circle id="Elipse_1058" data-name="Elipse 1058" cx="10.957" cy="10.957" r="10.957" transform="translate(361.705 136.682) rotate(-72.134)" fill="#00223d"/>
        <circle id="Elipse_1059" data-name="Elipse 1059" cx="10.957" cy="10.957" r="10.957" transform="translate(386.995 82.868) rotate(-13.194)" fill="#00223d"/>
        <circle id="Elipse_1060" data-name="Elipse 1060" cx="4.177" cy="4.177" r="4.177" transform="translate(364.768 103.523)" fill="#00223d"/>
        <circle id="Elipse_1061" data-name="Elipse 1061" cx="9.72" cy="9.72" r="9.72" transform="translate(172.213 12.164)" fill="#eef9f9"/>
        <circle id="Elipse_1062" data-name="Elipse 1062" cx="6.12" cy="6.12" r="6.12" transform="matrix(0.722, -0.692, 0.692, 0.722, 142.961, 11.981)" fill="#eef2f5"/>
        <circle id="Elipse_1063" data-name="Elipse 1063" cx="6.12" cy="6.12" r="6.12" transform="translate(214.445)" fill="#eef2f5"/>
        <circle id="Elipse_1064" data-name="Elipse 1064" cx="18.903" cy="18.903" r="18.903" transform="translate(0 133.371) rotate(-9.217)" fill="#b0c0d2"/>
        <circle id="Elipse_1065" data-name="Elipse 1065" cx="18.903" cy="18.903" r="18.903" transform="translate(8.982 26.744)" fill="#aee6e6"/>
        <circle id="Elipse_1066" data-name="Elipse 1066" cx="5.396" cy="5.396" r="5.396" transform="translate(43.532 110.544)" fill="#fcf3f1"/>
      </g>
      <circle id="Elipse_1067" data-name="Elipse 1067" cx="5.706" cy="5.706" r="5.706" transform="translate(27.885 180.795)" fill="#fcf3f1" opacity="0.2"/>
    </g>
    <g id="OBJECTS" transform="translate(107.853 97.113)">
      <g id="Grupo_15980" data-name="Grupo 15980" transform="translate(0)">
        <g id="Grupo_15935" data-name="Grupo 15935" transform="translate(141.017)">
          <rect id="Rectángulo_4007" data-name="Rectángulo 4007" width="169.675" height="122.044" rx="3" fill="#12263f"/>
          <rect id="Rectángulo_4008" data-name="Rectángulo 4008" width="161.905" height="116.688" rx="3" transform="translate(3.885 2.678)" fill="#fefefe"/>
          <g id="Grupo_15927" data-name="Grupo 15927" transform="translate(83.243 49.468)">
            <g id="Grupo_15926" data-name="Grupo 15926" clip-path="url(#clip-path)">
              <g id="Grupo_15925" data-name="Grupo 15925" transform="translate(-28.962 -38.56)">
                <path id="Trazado_26169" data-name="Trazado 26169" d="M440.331,244.125H439a6.258,6.258,0,0,1-6.283-6.235v-.721h13.88v.645A6.287,6.287,0,0,1,440.331,244.125Z" transform="translate(-405.767 -158.127)" fill="#12263f"/>
                <circle id="Elipse_1068" data-name="Elipse 1068" cx="23.848" cy="23.848" r="23.848" transform="translate(0 33.726) rotate(-45)" fill="#f5ca56"/>
                <path id="Trazado_26170" data-name="Trazado 26170" d="M450.63,213.205H422.88V186.29h27.655Z" transform="translate(-402.901 -143.299)" fill="#f5ca56"/>
                <g id="Grupo_15923" data-name="Grupo 15923" transform="translate(27.753 31.382)">
                  <path id="Trazado_26171" data-name="Trazado 26171" d="M434.8,202.336h-.784V173.243h.681Z" transform="translate(-433.901 -170.879)" fill="#282e5b"/>
                  <path id="Trazado_26172" data-name="Trazado 26172" d="M450.509,202.08h-.784V172.5h.68Z" transform="translate(-438.478 -170.662)" fill="#282e5b"/>
                  <path id="Trazado_26173" data-name="Trazado 26173" d="M437.82,173.567H437.8c-.555-.016-.8-.6-1.03-1.173-.218-.531-.465-1.133-.889-1.229a1.082,1.082,0,0,0-.933.351,1.276,1.276,0,0,0-.3,1.026l-.773.128a2.057,2.057,0,0,1,.5-1.694,1.853,1.853,0,0,1,1.675-.575c.821.187,1.164,1.024,1.44,1.7a2.389,2.389,0,0,0,.358.694,4.391,4.391,0,0,0,.521-.952c.333-.717.679-1.459,1.333-1.462h0c.626,0,.947.676,1.257,1.33.133.281.381.8.521.852a3.318,3.318,0,0,0,.4-.794c.306-.731.687-1.639,1.56-1.825a2.065,2.065,0,0,1,2.068.976,2.119,2.119,0,0,1,.269,1.366l-.776-.1a1.342,1.342,0,0,0-.162-.856,1.305,1.305,0,0,0-1.234-.618c-.471.1-.752.771-1,1.363-.273.65-.53,1.265-1.122,1.274h-.009c-.6,0-.918-.66-1.222-1.3-.13-.275-.4-.847-.548-.882-.153,0-.494.733-.622,1.009C438.762,172.856,438.432,173.565,437.82,173.567Z" transform="translate(-433.852 -169.907)" fill="#282e5b"/>
                </g>
                <g id="Grupo_15924" data-name="Grupo 15924" transform="translate(19.954 62.819)">
                  <path id="Trazado_26174" data-name="Trazado 26174" d="M450.635,228.21l-27.751-3.977v1.94l27.522,3.943A9.371,9.371,0,0,0,450.635,228.21Z" transform="translate(-422.856 -217.176)" fill="#bec6c4"/>
                  <path id="Trazado_26175" data-name="Trazado 26175" d="M450.629,222.836l-27.764-3.978v1.94l27.764,3.978Z" transform="translate(-422.851 -215.609)" fill="#bec6c4"/>
                  <path id="Trazado_26176" data-name="Trazado 26176" d="M450.594,214.273h-27.75v1.38l27.75,3.978Z" transform="translate(-422.844 -214.273)" fill="#bec6c4"/>
                  <path id="Trazado_26177" data-name="Trazado 26177" d="M449.812,233.463,422.9,229.607v.1a9.435,9.435,0,0,0,.195,1.871l25.655,3.676A9.35,9.35,0,0,0,449.812,233.463Z" transform="translate(-422.86 -218.742)" fill="#bec6c4"/>
                  <path id="Trazado_26178" data-name="Trazado 26178" d="M424.088,235.15a9.325,9.325,0,0,0,8.535,5.465h9.03a9.347,9.347,0,0,0,5.863-2.108Z" transform="translate(-423.207 -220.357)" fill="#bec6c4"/>
                  <path id="Trazado_26179" data-name="Trazado 26179" d="M450.594,220.2l-27.75-3.978.015,1.868,27.764,3.978Z" transform="translate(-422.844 -214.841)" fill="#eeeff0"/>
                  <path id="Trazado_26180" data-name="Trazado 26180" d="M450.629,227.241v-1.667L422.865,221.6l.013,1.869,27.751,3.977C450.631,227.374,450.63,227.309,450.629,227.241Z" transform="translate(-422.85 -216.407)" fill="#eeeff0"/>
                  <path id="Trazado_26181" data-name="Trazado 26181" d="M450.406,230.914l-27.522-3.943.01,1.868,26.914,3.856A9.314,9.314,0,0,0,450.406,230.914Z" transform="translate(-422.856 -217.974)" fill="#eeeff0"/>
                  <path id="Trazado_26182" data-name="Trazado 26182" d="M448.828,236.059l-25.655-3.676a9.257,9.257,0,0,0,.648,1.961L447.25,237.7A9.409,9.409,0,0,0,448.828,236.059Z" transform="translate(-422.94 -219.551)" fill="#eeeff0"/>
                </g>
              </g>
            </g>
          </g>
          <g id="Grupo_15930" data-name="Grupo 15930" transform="translate(59.014 13.769)">
            <g id="Grupo_15929" data-name="Grupo 15929" clip-path="url(#clip-path-2)">
              <g id="Grupo_15928" data-name="Grupo 15928" transform="translate(0 0.001)">
                <path id="Trazado_26184" data-name="Trazado 26184" d="M423.542,232.319a9.5,9.5,0,0,1-1.182-.159,6.936,6.936,0,0,0,11.405.751,9.477,9.477,0,0,1-1.213.006Z" transform="translate(-407.483 -159.528)" fill="#12263f"/>
                <path id="Trazado_26185" data-name="Trazado 26185" d="M449.008,155.085a23.848,23.848,0,1,0-38.924,16.849l-.643,9.681,7.9.524,1.9-28.674a2.032,2.032,0,0,1,.619-1.612,1.852,1.852,0,0,1,1.711-.457c.8.243,1.09,1.1,1.318,1.793a2.38,2.38,0,0,0,.309.717,4.438,4.438,0,0,0,.585-.913c.383-.692.779-1.409,1.431-1.365h0c.625.043.9.74,1.162,1.414.113.29.324.828.46.887a3.333,3.333,0,0,0,.455-.765c.356-.707.8-1.587,1.683-1.713a2.066,2.066,0,0,1,1.994,1.118,2.09,2.09,0,0,1,.181,1.332l-1.927,29.027,7.9.524.643-9.681A23.812,23.812,0,0,0,449.008,155.085Z" transform="translate(-401.364 -129.656)" fill="#f5ca56"/>
                <path id="Trazado_26186" data-name="Trazado 26186" d="M437.3,162.631a1.2,1.2,0,0,0-.125-.462,1.307,1.307,0,0,0-1.188-.7c-.478.068-.8.717-1.093,1.29-.318.63-.616,1.224-1.209,1.193h-.009c-.6-.04-.87-.722-1.128-1.381-.111-.284-.342-.874-.486-.919-.152-.009-.544.7-.691.963-.365.663-.743,1.347-1.354,1.307l-.024,0c-.554-.045-.754-.658-.947-1.241-.18-.545-.385-1.163-.8-1.289a1.084,1.084,0,0,0-.954.286,1.173,1.173,0,0,0-.357.73h.014l-1.927,29.029,10.321.685Z" transform="translate(-408.257 -138.895)" fill="#f5ca56"/>
                <path id="Trazado_26187" data-name="Trazado 26187" d="M426.624,162.078h-.014a1.173,1.173,0,0,1,.357-.73,1.084,1.084,0,0,1,.954-.286c.416.126.621.744.8,1.289.193.583.393,1.2.947,1.241l.024,0c.611.04.989-.644,1.354-1.307.147-.266.538-.972.691-.963.145.045.376.635.486.919.258.659.524,1.341,1.128,1.381h.009c.592.032.891-.563,1.209-1.193.288-.573.615-1.222,1.093-1.29a1.307,1.307,0,0,1,1.188.7,1.2,1.2,0,0,1,.125.462l-1.958,29.484.782.052,1.927-29.027a2.089,2.089,0,0,0-.181-1.332,2.065,2.065,0,0,0-1.994-1.118c-.883.125-1.326,1.005-1.683,1.713a3.333,3.333,0,0,1-.455.765c-.136-.059-.347-.6-.46-.887-.264-.675-.537-1.372-1.162-1.414h0c-.652-.043-1.049.673-1.431,1.365a4.44,4.44,0,0,1-.585.913,2.377,2.377,0,0,1-.309-.717c-.228-.69-.513-1.55-1.318-1.793a1.852,1.852,0,0,0-1.711.457,2.033,2.033,0,0,0-.619,1.612l-1.9,28.674.782.052Z" transform="translate(-407.936 -138.572)" fill="#12263f"/>
                <path id="Trazado_26188" data-name="Trazado 26188" d="M412.055,212.854l-.129,1.936,27.176,5.852a9.365,9.365,0,0,0,.362-1.886Z" transform="translate(-404.442 -153.902)" fill="#bec6c4"/>
                <path id="Trazado_26189" data-name="Trazado 26189" d="M412.411,207.491l-.129,1.936,27.419,5.905.129-1.936Z" transform="translate(-404.546 -152.339)" fill="#bec6c4"/>
                <path id="Trazado_26190" data-name="Trazado 26190" d="M431.732,204.247l-19-1.262-.088,1.329,27.419,5.905.358-5.4Z" transform="translate(-404.65 -151.026)" fill="#bec6c4"/>
                <path id="Trazado_26191" data-name="Trazado 26191" d="M411.734,218.313a9.361,9.361,0,0,0,.064,1.88l25.336,5.456a9.376,9.376,0,0,0,1.185-1.708l-26.579-5.724Z" transform="translate(-404.38 -155.465)" fill="#bec6c4"/>
                <path id="Trazado_26192" data-name="Trazado 26192" d="M412.552,223.828a9.348,9.348,0,0,0,6.95,5.9,9.51,9.51,0,0,0,1.182.159l9.01.6a9.486,9.486,0,0,0,1.213-.006,9.33,9.33,0,0,0,4.782-1.672Z" transform="translate(-404.624 -157.1)" fill="#bec6c4"/>
                <path id="Trazado_26193" data-name="Trazado 26193" d="M412.588,204.86l-.124,1.864,27.419,5.9.124-1.864Z" transform="translate(-404.599 -151.572)" fill="#eeeff0"/>
                <path id="Trazado_26194" data-name="Trazado 26194" d="M412.231,210.223l-.123,1.864,27.409,5.9c.006-.067.018-.132.023-.2l.111-1.663Z" transform="translate(-404.495 -153.135)" fill="#eeeff0"/>
                <path id="Trazado_26195" data-name="Trazado 26195" d="M411.752,217.45l26.579,5.724a9.267,9.267,0,0,0,.721-1.736l-27.176-5.852Z" transform="translate(-404.391 -154.698)" fill="#eeeff0"/>
                <path id="Trazado_26196" data-name="Trazado 26196" d="M412.342,223.005l23.137,4.983a9.394,9.394,0,0,0,1.689-1.527l-25.336-5.456A9.241,9.241,0,0,0,412.342,223.005Z" transform="translate(-404.415 -156.277)" fill="#eeeff0"/>
              </g>
            </g>
          </g>
          <path id="Trazado_26198" data-name="Trazado 26198" d="M491.2,142.877a17.616,17.616,0,1,1,0,35.231" transform="translate(-368.531 -119.74)" fill="none" stroke="#12263f" stroke-linecap="round" stroke-linejoin="round" stroke-width="1.772"/>
          <g id="Grupo_15931" data-name="Grupo 15931" transform="translate(15.752 18.482)">
            <line id="Línea_467" data-name="Línea 467" x2="32.068" fill="none" stroke="#baccc6" stroke-linecap="round" stroke-linejoin="round" stroke-width="1"/>
            <line id="Línea_468" data-name="Línea 468" x2="32.068" transform="translate(0 4.655)" fill="none" stroke="#baccc6" stroke-linecap="round" stroke-linejoin="round" stroke-width="1"/>
            <line id="Línea_469" data-name="Línea 469" x2="32.068" transform="translate(0 9.31)" fill="none" stroke="#baccc6" stroke-linecap="round" stroke-linejoin="round" stroke-width="1"/>
            <line id="Línea_470" data-name="Línea 470" x2="32.068" transform="translate(0 13.965)" fill="none" stroke="#baccc6" stroke-linecap="round" stroke-linejoin="round" stroke-width="1"/>
            <line id="Línea_471" data-name="Línea 471" x2="12.437" transform="translate(0 18.62)" fill="none" stroke="#baccc6" stroke-linecap="round" stroke-linejoin="round" stroke-width="1"/>
          </g>
          <g id="Grupo_15932" data-name="Grupo 15932" transform="translate(45.516 81.455)">
            <path id="Trazado_26199" data-name="Trazado 26199" d="M389.087,236h4.283a5.846,5.846,0,0,0,.138-1.254v-9.57H382.315v15.437h5.326a5.86,5.86,0,0,0,1.446-.187Z" transform="translate(-382.315 -225.18)" fill="#c1507f"/>
            <path id="Trazado_26200" data-name="Trazado 26200" d="M391.873,244.882a5.868,5.868,0,0,0,4.283-4.426h-4.283Z" transform="translate(-385.1 -229.632)" fill="#a73464"/>
          </g>
          <g id="Grupo_15933" data-name="Grupo 15933" transform="translate(50.976 62.234)">
            <path id="Trazado_26201" data-name="Trazado 26201" d="M396.792,208.877h4.284a5.9,5.9,0,0,0,.138-1.255v-9.569H390.02v15.436h5.326a5.861,5.861,0,0,0,1.446-.186Z" transform="translate(-390.02 -198.053)" fill="#aee6e6"/>
            <path id="Trazado_26202" data-name="Trazado 26202" d="M399.577,217.755a5.87,5.87,0,0,0,4.284-4.426h-4.284Z" transform="translate(-392.805 -202.505)" fill="#e8e8e8"/>
          </g>
          <g id="Grupo_15934" data-name="Grupo 15934" transform="translate(58.121 92.279)">
            <path id="Trazado_26203" data-name="Trazado 26203" d="M408.231,253.446h5.141a7.076,7.076,0,0,0,.165-1.506V240.456H400.1v18.526H406.5a7.006,7.006,0,0,0,1.735-.225Z" transform="translate(-400.104 -240.456)" fill="#7d6eb2"/>
            <path id="Trazado_26204" data-name="Trazado 26204" d="M411.574,264.1a7.043,7.043,0,0,0,5.141-5.311h-5.141Z" transform="translate(-403.447 -245.799)" fill="#4a3691"/>
          </g>
        </g>
        <g id="Grupo_15940" data-name="Grupo 15940" transform="translate(2.428 0.871)">
          <g id="Grupo_15938" data-name="Grupo 15938">
            <rect id="Rectángulo_4009" data-name="Rectángulo 4009" width="122.057" height="75.199" rx="3" fill="#00223d"/>
            <g id="Grupo_15937" data-name="Grupo 15937" transform="translate(1.943 3.068)">
              <rect id="Rectángulo_4010" data-name="Rectángulo 4010" width="118.171" height="63.455" rx="3" fill="#fff"/>
              <g id="Grupo_15936" data-name="Grupo 15936" clip-path="url(#clip-path-3)">
                <rect id="Rectángulo_4011" data-name="Rectángulo 4011" width="33.581" height="11.499" rx="1" transform="translate(12.327 53.848)" fill="#26aab7"/>
                <path id="Trazado_94713" data-name="Trazado 94713" d="M3.443,0H50.305a3.443,3.443,0,0,1,3.443,3.443V8.056A3.443,3.443,0,0,1,50.305,11.5H3.443A3.443,3.443,0,0,1,0,8.056V3.443A3.443,3.443,0,0,1,3.443,0Z" transform="translate(52.096 53.848)" fill="#26aab7"/>
                <path id="Trazado_94712" data-name="Trazado 94712" d="M0,0H138.575V5.113H0Z" transform="translate(-10.202 -0.024)" fill="#26aab7"/>
              </g>
            </g>
            <path id="Trazado_26205" data-name="Trazado 26205" d="M209.871,113.591c0-.424-.952-.767-2.125-.767s-2.126.343-2.126.767.952.767,2.126.767S209.871,114.014,209.871,113.591Z" transform="translate(-146.717 -111.852)" fill="#282e5b"/>
            <path id="Trazado_26206" data-name="Trazado 26206" d="M209.551,113.671c0-.315-.709-.571-1.582-.571s-1.582.256-1.582.571.708.571,1.582.571S209.551,113.986,209.551,113.671Z" transform="translate(-146.94 -111.933)" fill="#565699"/>
            <path id="Trazado_26207" data-name="Trazado 26207" d="M132.989,176.557V115.628c0-2.306,5.18-4.175,11.569-4.175h-10.5c-6.389,0-11.569,1.869-11.569,4.175v60.929c0,2.306,5.18,4.175,11.569,4.175h10.5C138.169,180.732,132.989,178.863,132.989,176.557Z" transform="translate(-122.491 -111.453)" fill="#034c8a" opacity="0.1"/>
          </g>
          <g id="Grupo_15939" data-name="Grupo 15939" transform="translate(14.27 10.393)">
            <rect id="Rectángulo_4015" data-name="Rectángulo 4015" width="93.517" height="20.798" rx="1" fill="#12263f"/>
            <rect id="Rectángulo_4016" data-name="Rectángulo 4016" width="33.723" height="19.721" rx="1" transform="translate(0 22.756)" fill="#c1507f"/>
            <rect id="Rectángulo_4017" data-name="Rectángulo 4017" width="24.749" height="6.852" rx="1.813" transform="translate(3.59 24.758)" fill="url(#linear-gradient)"/>
            <line id="Línea_472" data-name="Línea 472" x2="22.671" transform="translate(5.101 33.427)" fill="none" stroke="#fefefe" stroke-linecap="round" stroke-linejoin="round" stroke-width="0.5"/>
            <line id="Línea_473" data-name="Línea 473" x2="22.671" transform="translate(38.682 22.756)" fill="none" stroke="#f6c343" stroke-linecap="round" stroke-linejoin="round" stroke-width="0.5"/>
            <line id="Línea_474" data-name="Línea 474" x2="22.671" transform="translate(70.846 32.404)" fill="none" stroke="#baccc6" stroke-linecap="round" stroke-linejoin="round" stroke-width="0.5"/>
            <line id="Línea_475" data-name="Línea 475" x2="22.671" transform="translate(70.846 34.092)" fill="none" stroke="#baccc6" stroke-linecap="round" stroke-linejoin="round" stroke-width="0.5"/>
            <line id="Línea_476" data-name="Línea 476" x2="22.671" transform="translate(70.846 35.78)" fill="none" stroke="#baccc6" stroke-linecap="round" stroke-linejoin="round" stroke-width="0.5"/>
            <line id="Línea_477" data-name="Línea 477" x2="22.671" transform="translate(70.846 37.468)" fill="none" stroke="#baccc6" stroke-linecap="round" stroke-linejoin="round" stroke-width="0.5"/>
            <line id="Línea_478" data-name="Línea 478" x2="22.671" transform="translate(70.846 39.156)" fill="none" stroke="#baccc6" stroke-linecap="round" stroke-linejoin="round" stroke-width="0.5"/>
            <line id="Línea_479" data-name="Línea 479" x2="54.835" transform="translate(38.682 24.715)" fill="none" stroke="#baccc6" stroke-linecap="round" stroke-linejoin="round" stroke-width="0.5"/>
            <line id="Línea_480" data-name="Línea 480" x2="54.835" transform="translate(38.682 26.673)" fill="none" stroke="#baccc6" stroke-linecap="round" stroke-linejoin="round" stroke-width="0.5"/>
            <line id="Línea_481" data-name="Línea 481" x2="54.835" transform="translate(38.682 28.632)" fill="none" stroke="#baccc6" stroke-linecap="round" stroke-linejoin="round" stroke-width="0.5"/>
            <line id="Línea_482" data-name="Línea 482" x2="54.835" transform="translate(38.682 30.591)" fill="none" stroke="#baccc6" stroke-linecap="round" stroke-linejoin="round" stroke-width="0.5"/>
            <line id="Línea_483" data-name="Línea 483" x2="54.835" transform="translate(38.682 40.844)" fill="none" stroke="#baccc6" stroke-linecap="round" stroke-linejoin="round" stroke-width="0.5"/>
            <line id="Línea_484" data-name="Línea 484" x2="54.835" transform="translate(38.682 42.478)" fill="none" stroke="#baccc6" stroke-linecap="round" stroke-linejoin="round" stroke-width="0.5"/>
            <line id="Línea_485" data-name="Línea 485" x2="35.754" transform="translate(38.682 44.111)" fill="none" stroke="#baccc6" stroke-linecap="round" stroke-linejoin="round" stroke-width="0.5"/>
            <line id="Línea_486" data-name="Línea 486" x2="20.829" transform="translate(38.682 33.171)" fill="none" stroke="#c1507f" stroke-linecap="round" stroke-linejoin="round" stroke-width="0.5"/>
            <line id="Línea_487" data-name="Línea 487" x2="20.829" transform="translate(38.682 35.546)" fill="none" stroke="#c1507f" stroke-linecap="round" stroke-linejoin="round" stroke-width="0.5"/>
            <line id="Línea_488" data-name="Línea 488" x2="14.878" transform="translate(38.682 37.921)" fill="none" stroke="#c1507f" stroke-linecap="round" stroke-linejoin="round" stroke-width="0.5"/>
            <line id="Línea_489" data-name="Línea 489" x2="22.671" transform="translate(5.101 35.245)" fill="none" stroke="#fefefe" stroke-linecap="round" stroke-linejoin="round" stroke-width="0.5"/>
            <line id="Línea_490" data-name="Línea 490" x2="22.671" transform="translate(5.101 37.062)" fill="none" stroke="#fefefe" stroke-linecap="round" stroke-linejoin="round" stroke-width="0.5"/>
            <line id="Línea_491" data-name="Línea 491" x2="13.98" transform="translate(5.101 38.88)" fill="none" stroke="#fefefe" stroke-linecap="round" stroke-linejoin="round" stroke-width="0.5"/>
          </g>
        </g>
        <g id="Grupo_15977" data-name="Grupo 15977" transform="translate(35.986 49.809)">
          <g id="Grupo_15949" data-name="Grupo 15949" transform="translate(94.388)">
            <g id="Grupo_15941" data-name="Grupo 15941" transform="translate(10.733 74.051)">
              <path id="Trazado_26208" data-name="Trazado 26208" d="M326.712,386.12l7.671-1.035a15.352,15.352,0,0,0,1.9,6.574c3.9,6.8,12.41,7.8,12.134,9.41-.108.63-1.241,1.4-5.243.966-1.3-.141-5.192-.466-6.325-1.906s-3.409-1.1-3.409-1.1l.2,2.77-6.082-.435C327.434,399.574,326.842,389.349,326.712,386.12Z" transform="translate(-320.685 -314.186)" fill="#aee6e6"/>
              <path id="Trazado_26209" data-name="Trazado 26209" d="M334.66,288.047c.937,17.648.187,28.859-.759,36.016a158.593,158.593,0,0,0-1.481,25.876c.037,1.5.446,6.8.485,7.626-2.674.183-7.735,1.122-10.409,1.305-2.42-7.749-1.1-18.962-1.289-23.474-.174-4.227.193-4.9.011-13.328-.176-8.1-.264-12.146-1.016-14.736a33.927,33.927,0,0,1-1.971-9.381,21.99,21.99,0,0,1,.258-4.751,18.72,18.72,0,0,1,3.685-8.175c1.4.176,2.875.414,4.413.731A57.6,57.6,0,0,1,334.66,288.047Z" transform="translate(-318.206 -285.026)" fill="#12263f"/>
            </g>
            <g id="Grupo_15942" data-name="Grupo 15942" transform="translate(3.62 73.143)">
              <path id="Trazado_26210" data-name="Trazado 26210" d="M317.062,386.12l7.671-1.035a15.341,15.341,0,0,0,1.9,6.574c3.9,6.8,12.411,7.8,12.134,9.41-.108.63-1.241,1.4-5.243.966-1.3-.141-5.192-.466-6.326-1.906s-3.408-1.1-3.408-1.1l.2,2.77-6.082-.435C317.784,399.574,317.192,389.349,317.062,386.12Z" transform="translate(-310.759 -313.278)" fill="#aee6e6"/>
              <path id="Trazado_26211" data-name="Trazado 26211" d="M325.779,287.673c.937,17.648.186,28.859-.759,36.016a158.5,158.5,0,0,0-1.481,25.876c.037,1.5.445,6.8.484,7.626-2.673.183-7.734,1.122-10.408,1.305-2.421-7.749-1.1-18.962-1.289-23.474-.174-4.227.193-4.9.011-13.328-.152-7-.186-10.5-1.017-14.736-.969-4.945-1.82-4.987-2.6-9.58a40.3,40.3,0,0,1-.353-10.709q.292-1.454.586-2.907l3.505-.018a49.575,49.575,0,0,0,5.245,1.638A57.613,57.613,0,0,1,325.779,287.673Z" transform="translate(-308.167 -283.745)" fill="#12263f"/>
            </g>
            <g id="Grupo_15946" data-name="Grupo 15946">
              <path id="Trazado_26212" data-name="Trazado 26212" d="M305.839,191.5s-1.218-2.044-.895-3.173a5.894,5.894,0,0,1,4.372-3.379c2.334-.42,7.524.788,8.562-.959s.632-3.169-.145-2.8c.211-1.056,3.312-1.09,4.32,1.5a8.8,8.8,0,0,1-.51,7.817c-1.362,2.527-6.715,4.107-8.905,4.577-.018.614-.455,6.437-.455,6.437l.181,6.363a3.079,3.079,0,0,1-2.9,2.307c-2.479.195-6.06-8.049-6.369-13.376S304.506,191.4,305.839,191.5Z" transform="translate(-303.058 -180.519)" fill="#12263f"/>
              <g id="Grupo_15945" data-name="Grupo 15945" transform="translate(4.753 8.814)">
                <path id="Trazado_26213" data-name="Trazado 26213" d="M324.332,199.811c.515.653,2.549,1.793,3.067,3.143s-1.222,1.706-1.222,1.706c.256,2.137.528,4.7-.8,6.551-.983,1.364-2.842,2.529-4.441,1.454.43,1.388.95,2.866,1.579,4.409a54.383,54.383,0,0,0,2.723,5.7,23.4,23.4,0,0,1-2.593.467,23.665,23.665,0,0,1-6.409-.1c-3.116-1.846-3.8-3.413-3.831-4.521-.048-1.841,1.712-2.649,2.206-4.886.513-2.324-.7-4.572-1.8-6.113a1.91,1.91,0,0,1-1.957.018c-.761-.591-1.505-1.971-.8-2.8a2.012,2.012,0,0,1,2.385-.564c.682-1.088,2.171-2.834,1.421-5.781,2.211-.447,7.952-3.128,8.967-5.538C322.918,193.341,323.817,199.157,324.332,199.811Z" transform="translate(-309.766 -192.958)" fill="#d08b73"/>
                <g id="Grupo_15944" data-name="Grupo 15944" clip-path="url(#clip-path-4)">
                  <g id="Grupo_15943" data-name="Grupo 15943" transform="translate(4.7 14.27)" opacity="0.5" style="mix-blend-mode: multiply;isolation: isolate">
                    <path id="Trazado_26214" data-name="Trazado 26214" d="M316.411,213.1a3.346,3.346,0,0,0,.68,1.519,12.969,12.969,0,0,0,2.684,2.98,10.644,10.644,0,0,0,3.5,1.971,2.945,2.945,0,0,0,1.658.195,11.776,11.776,0,0,0-1.514-.59,13.827,13.827,0,0,1-3.272-2.035,18.492,18.492,0,0,1-2.718-2.765C316.812,213.6,316.493,213.06,316.411,213.1Z" transform="translate(-316.398 -213.097)" fill="#bc6c56"/>
                  </g>
                </g>
              </g>
              <path id="Trazado_26216" data-name="Trazado 26216" d="M312.749,211.416c-.015-.083-.167-.122-.361-.2a1.94,1.94,0,0,1-.312-.159c-.125-.081-.164-.129-.164-.174a2.4,2.4,0,0,1-.006-.379.205.205,0,0,1,.1-.169c.154-.108.323-.179.311-.264s-.147-.169-.455-.131a.628.628,0,0,0-.48.4,1.145,1.145,0,0,0-.063.317,1.281,1.281,0,0,0,.007.333.672.672,0,0,0,.222.389.986.986,0,0,0,.287.169,1.191,1.191,0,0,0,.5.084C312.62,211.611,312.765,211.492,312.749,211.416Z" transform="translate(-305.464 -189.09)" fill="#bc6c56"/>
            </g>
            <path id="Trazado_26217" data-name="Trazado 26217" d="M313.466,220.258a55.936,55.936,0,0,0-4.029,8.565c-3.1,8.355-3.44,15.464-3.831,25.132-.155,3.845-.236,9.082.069,15.334a10.3,10.3,0,0,0,2.4.719l3.747.916a12.232,12.232,0,0,1,2.554.625l2.7.661a18.475,18.475,0,0,0,4.767.436,31.6,31.6,0,0,0,10.463-1.9c-.333,0-.653-9.151-.663-9.865-.017-1.147,0-1.5-.021-2.455a67.926,67.926,0,0,0-1.19-10.918c-1.162-6.413-1.742-9.619-3.524-13.325A32.955,32.955,0,0,0,322,226.757a6.089,6.089,0,0,1-3.8.229C315.618,226.244,313.708,223.566,313.466,220.258Z" transform="translate(-303.761 -192.1)" fill="#aee6e6"/>
            <path id="Trazado_26218" data-name="Trazado 26218" d="M335.558,268.061v4.008l-10.034-5.3L323,268.027h-4.082v-4.345l3.479,2.08,2.78-1.194Z" transform="translate(-307.682 -204.755)" fill="#344966"/>
            <path id="Trazado_26219" data-name="Trazado 26219" d="M322.972,250.5l-4.049,3.037.759,3.417H323.6l1.518-1.771,9.744,3.8c1.251.3,3.087.388,4.154-1.012,1.19-1.561.5-4.236-.485-5.948-2.659-4.638-1.573-13.6-6.327-23.157-.76,1.519-.974,3.206-1.732,4.724,2.067,5.188-.967,12.739,1.1,17.927Z" transform="translate(-307.682 -194.606)" fill="#d08b73"/>
            <path id="Trazado_26220" data-name="Trazado 26220" d="M336.165,262.953a5.235,5.235,0,0,1-3.145.881,6.336,6.336,0,0,1-2.358-.371,4.266,4.266,0,0,1-1.736-1.394c-.483-.562-1.049-1.081-1.557-1.626l-2.093-2.267c-.6.582-1.316,1.032-1.921,1.612.319-.305,3.118,2.034,3.441,2.272l2.345,1.732A4.97,4.97,0,0,0,331.2,265a7.237,7.237,0,0,0,4.877-.574c.8-.454,1.247-1.825,1.49-2.658a7.869,7.869,0,0,0,.221-3.472,10.161,10.161,0,0,1-.244,2.4,4.165,4.165,0,0,1-1.168,2.076C336.31,262.838,336.239,262.9,336.165,262.953Z" transform="translate(-308.973 -203.15)" fill="#bc6c56"/>
            <path id="Trazado_26221" data-name="Trazado 26221" d="M319.309,254.367s-6.032-3.31-7.822-5.458-2.366-8.537-1.806-9.292,10.376,8.825,10.376,8.825l2.372,3.641Z" transform="translate(-304.928 -197.729)" fill="#344966"/>
            <path id="Trazado_26222" data-name="Trazado 26222" d="M325.689,236.473a50.791,50.791,0,0,1,4.97,4.373,4.852,4.852,0,0,1,.99,3.012c.065,1.154.163,2.294.257,3.447l-7-8.919Z" transform="translate(-309.424 -196.825)" fill="#344966"/>
            <g id="Grupo_15948" data-name="Grupo 15948" transform="translate(6.144 26.26)">
              <path id="Trazado_26223" data-name="Trazado 26223" d="M319,230.05a27.029,27.029,0,0,1,9.065,11.337q.052-6.723.1-13.447l-3.363-4.887,1.626-5.474,5.109.821,2.593,4.38q-.6,2.693-1.2,5.387c.315,3.11.743,7.487,1.2,12.8.4,4.6.743,9.056-1.358,10.446a6.228,6.228,0,0,1-2.778.915,6.361,6.361,0,0,1-2.265-.374c-1.909-.7-8.173-6.411-16.011-14.809Z" transform="translate(-311.73 -217.579)" fill="#d08b73"/>
              <g id="Grupo_15947" data-name="Grupo 15947" clip-path="url(#clip-path-5)">
                <path id="Trazado_26224" data-name="Trazado 26224" d="M330.524,246.208l-7.451,7.517,1.107,1.121,6.85-6.93Z" transform="translate(-315.036 -225.922)" fill="#bc6c56"/>
              </g>
            </g>
            <path id="Trazado_26226" data-name="Trazado 26226" d="M319.111,250.7l7.808-8.14c-1.774-4.078-12.477-17.44-16.654-8.187C306.213,243.343,317.255,249.346,319.111,250.7Z" transform="translate(-304.9 -195.28)" fill="#aee6e6"/>
          </g>
          <g id="Grupo_15960" data-name="Grupo 15960" transform="translate(11.721 29.067)">
            <path id="Trazado_26227" data-name="Trazado 26227" d="M251.118,285.432c-.193-.093-.4-.167-.6-.252a14.053,14.053,0,0,0-2.078-.84c-.829-.209-1.624-.49-2.447-.712.358-.071.727-.115,1.081-.2.307-.075.611-.213.919-.308a2.231,2.231,0,0,0,.835-.412.826.826,0,0,0,.308-.811,7.309,7.309,0,0,0-1.433.427c-.507.155-3.606,1.063-4.651,1.352q-2.673.739-5.241,1.366l-.553.057-.146-.4-8.183.043-11.149-1.742a73.991,73.991,0,0,0-5.386-15.028c-3.879-7.96-6.131-8.859-7.485-9.059a6.414,6.414,0,0,0-6.029,2.7c-2.028,3.174.261,7.741,3.687,14.362,4.221,8.156,6.332,12.235,9.883,14.208,6.717,3.733,14.969,1.7,20.132.421a41.88,41.88,0,0,0,5.956-1.955l-.125-.348,2.671-.078a12.68,12.68,0,0,1,1.976,1.188c.723.531,1.663,1.346,1.663,1.346a1.334,1.334,0,0,0,1.133.076c.128-.056.433-.218.473-.372s-.1-.323-.243-.476a7.37,7.37,0,0,0-1.073-.939,6.733,6.733,0,0,1-1-.89,3.7,3.7,0,0,1,1.709-.067,4.577,4.577,0,0,1,1.426.594c.465.276.827.709,1.312.974a2.457,2.457,0,0,0,1.067.319,1.153,1.153,0,0,0,.915-.421,16.816,16.816,0,0,0-3.262-2.178c-.5-.257-.991-.473-1.457-.657-.172-.193-.187-.278-.163-.32.122-.2,1.337.283,1.4.31.191.077.405.183.836.395.594.292,1.167.6,1.749.917a1.25,1.25,0,0,0,1.638-.251c-.074.053-.913-.585-1-.646a13.659,13.659,0,0,0-1.682-.933,17.439,17.439,0,0,0-2.192-.864c-.068-.125-.083-.218-.046-.281q.171-.29,1.837.3a8.265,8.265,0,0,0,1.942.607,1.773,1.773,0,0,0,1.147-.211C251.4,285.58,251.332,285.535,251.118,285.432Z" transform="translate(-189.811 -232.414)" fill="#718aa7"/>
            <path id="Trazado_26228" data-name="Trazado 26228" d="M226.144,376.134c.845-.3,2-.727,1.849-1.905s-3.015-2.569-3.953-3.354c-.072-2.963-.363-5.768-2.08-8.268-.006-.008-.077.038-.079,0-.015-.374-.191-.382-.111-.884a5.975,5.975,0,0,1,1.424-1.908,15.784,15.784,0,0,1,1.636.118c7-8.083,12.661-16.524,12.806-27.513a5.647,5.647,0,0,0-.58-3.131c-1.106-1.99-3.44-3.512-5.289-4.935a50.692,50.692,0,0,0-7.551-4.787c-.289-.15-.667-.324-.9-.451a29.174,29.174,0,0,0-4.982-2.014c-2.328-.716-3.235-1.365-5.934-1.928s-12.282-1.9-13.945-1.863-.672,4.033-.748,4.3c-.719,2.5,0,4.061.255,6.264.021.175-.042.187.05.456.019.057-.115-.32.183.116,1.255,1.838.873,3.167,3.454,4.954,3.941,2.725,11.007,1.148,16.356,1.924a25.2,25.2,0,0,1,7.784,3.33c-.789,4.065-1.894,5.08-3.721,9.652-.948,2.375-6.408,12.277-6.97,14.47s1.525-.484,1.478.715c-.35.784-.843,1.914-1.322,2.793a16.555,16.555,0,0,0-4.187,5.365c.7.327,2.211,1.032,2.713,1.273s.058.058.337.195c.045.022,0-.035.015-.03.307.14.575.29.879.437.128-.583.773-.4,1.12-.21a7.7,7.7,0,0,1,2.85,2.478c.7,1.047.624,2.345,1.535,3.169a5.53,5.53,0,0,0,3.009,1.451A5.385,5.385,0,0,0,226.144,376.134Z" transform="translate(-189.598 -248.284)" fill="#6550af"/>
            <g id="Grupo_15950" data-name="Grupo 15950" transform="translate(0.679 67.22)">
              <path id="Trazado_26229" data-name="Trazado 26229" d="M188.023,327.9s11.747,4.623,18.393,5.508,11.127-.83,12.4-.51,5.042,10.541,9.1,14.544,15.567,12.619,16.869,13.841,3.31,6.313,3.31,6.313l2.847-1.011-.589-1.454s9.746-4.329,10.688-5.745,1.927-6.429.479-8.069-2.614,4.253-4.374,4.966-8.14.426-9.994-.175-18.862-28.436-21.125-29.879-17.22-6.68-20.676-6.624-16.714-1.973-16.714-1.973Z" transform="translate(-187.547 -316.765)" fill="#b0c0d2"/>
              <path id="Trazado_26230" data-name="Trazado 26230" d="M208.826,334.371c4.007-.011,7.334.191,9.659.383a80.334,80.334,0,0,0,5.569,9.858c1.126,1.549,16.136,15.665,16.472,15.237l5.576-7.14c-6.272-8.8-12.452-17.667-18.907-26.326a10.766,10.766,0,0,0-2.145-2.35c-1.563-1.144-4.524-1.244-6.446-1.732-2.468-.626-4.942-1.228-7.417-1.827-3.278-.793-6.711-1.371-9.915-2.436-1.636-.543-13.346-1.624-13.427-1.631.26.024-.277,4.314-.319,4.635a13.668,13.668,0,0,0,.462,6.518,12.061,12.061,0,0,0,3.379,5.263C194.809,335.716,198.9,334.4,208.826,334.371Z" transform="translate(-187.351 -316.407)" fill="#7d6eb2"/>
              <path id="Trazado_26231" data-name="Trazado 26231" d="M268.122,374.746c1.14-.772,3.454-5,3.454-5l9.087-1.21s2.356-5.009,3.306-4.7c1.17.382,1.421.92,1.662,2.091a9.544,9.544,0,0,1,.124,3.011,9.652,9.652,0,0,1-1.649,4.4c-.925,1.324-2.535,1.53-3.884,2.318-1.477.862-2.954,1.757-4.461,2.59-.444.245-1.052.728-.534,1.24l-3.816,2.092Z" transform="translate(-210.89 -330.225)" fill="#00223d"/>
            </g>
            <g id="Grupo_15953" data-name="Grupo 15953" transform="translate(12.573 16.986)">
              <path id="Trazado_26232" data-name="Trazado 26232" d="M208.96,245.513l-4.824,8.9,7.937,6.463a10,10,0,0,1-.524-4.779,10.334,10.334,0,0,1,3.349-6.182Z" transform="translate(-204.136 -245.513)" fill="#d08b73"/>
              <g id="Grupo_15952" data-name="Grupo 15952" clip-path="url(#clip-path-6)">
                <g id="Grupo_15951" data-name="Grupo 15951" transform="translate(6.526 1.445)" opacity="0.5" style="mix-blend-mode: multiply;isolation: isolate">
                  <path id="Trazado_26233" data-name="Trazado 26233" d="M213.546,247.559c-.423.113-.213,2.164.965,4.357a9.648,9.648,0,0,0,1.9,2.564c.68.6,1.321.654,1.4.449s-.2-.553-.52-1.177-.816-1.594-1.358-2.6C214.844,249.136,213.981,247.434,213.546,247.559Z" transform="translate(-213.345 -247.553)" fill="#ee5f43"/>
                </g>
              </g>
            </g>
            <g id="Grupo_15955" data-name="Grupo 15955" transform="translate(0 23.206)">
              <path id="Trazado_26235" data-name="Trazado 26235" d="M206.76,262.293c-.684-1.012-1.426-2.051-2.231-3.108-1.38-1.813-2.766-3.44-4.109-4.893-5.808.24-8.757,2.284-10.259,3.747-3.168,3.084-3.974,7.451-3.726,25.082.092,6.583.227,12.041.337,15.873a15.022,15.022,0,0,0,22.667-1.182c-.2-5.034-.453-9.117-.645-11.9-.432-6.233-.591-9.8-1.039-14.565C207.4,267.552,207.028,264.424,206.76,262.293Z" transform="translate(-186.392 -254.291)" fill="#b0c0d2"/>
              <g id="Grupo_15954" data-name="Grupo 15954" clip-path="url(#clip-path-7)">
                <path id="Trazado_26236" data-name="Trazado 26236" d="M192.352,265.344a14.012,14.012,0,0,0-.147,1.47c.011,1.343-.027,2.688-.006,4.03a29.126,29.126,0,0,0,1.152,6.4,20.705,20.705,0,0,0,2.183,5.394,48.111,48.111,0,0,0,2.746,4.368,26.661,26.661,0,0,0,2.532,3.068,18.329,18.329,0,0,0,5.282,3.65,21.069,21.069,0,0,0,7.027,1.4,16.313,16.313,0,0,1,3.023.172" transform="translate(-188.083 -257.512)" fill="#00223d" stroke="#031d31" stroke-miterlimit="10" stroke-width="1.464"/>
                <path id="Trazado_26237" data-name="Trazado 26237" d="M199.751,261.6a14.449,14.449,0,0,0,2.5,2.017,8.965,8.965,0,0,1,1.648,1.934,55.636,55.636,0,0,1,7.512,15.959c.191.663.37,1.334.568,1.991a12.978,12.978,0,0,0,.458,1.83,1.035,1.035,0,0,1,.179.706" transform="translate(-190.285 -256.422)" fill="#00223d" stroke="#031d31" stroke-miterlimit="10" stroke-width="1.772"/>
              </g>
            </g>
            <g id="Grupo_15958" data-name="Grupo 15958" transform="translate(15.059)">
              <g id="Grupo_15956" data-name="Grupo 15956">
                <path id="Trazado_26239" data-name="Trazado 26239" d="M211.145,240.347c-.414.089-1.184-1.236-1.459-1.508-.941-.935-1.791-1.488-2-2.935a14.362,14.362,0,0,1,.272-3.436,23.1,23.1,0,0,1,.586-3.67,9.619,9.619,0,0,1,4.529-6.266c4.234-2.317,13.5-.492,13.056,4.62-.221,2.549-.266,5.013-1.548,7.716,0,0-6.084,4.762-7.694,4.674A34.9,34.9,0,0,0,211.145,240.347Z" transform="translate(-207.645 -221.541)" fill="#12263f"/>
                <path id="Trazado_26240" data-name="Trazado 26240" d="M226.219,231.788a43.317,43.317,0,0,1-1.025,7.412,2.743,2.743,0,0,0-.157,1.983,10.792,10.792,0,0,1,1.071,2.771c-.084.415-1.2.774-1.562.5s-1.3-.909-1.3-.909a59.772,59.772,0,0,1-3.067,5.447c-.7.813-2.536.688-3.35-.016s-4.312-3.816-4.861-6.4a9.944,9.944,0,0,1-.256-3.857s-1.508-2.422-.376-3.79a2.31,2.31,0,0,1,2.99-.772c.653.321,1.226,1.633,1.226,1.633s3.377-2.532,3.6-3.777-.079-1.149-.079-1.149,2.068,1.443,3.573,1.376A32.436,32.436,0,0,0,226.219,231.788Z" transform="translate(-208.599 -224.256)" fill="#d08b73"/>
              </g>
              <g id="Grupo_15957" data-name="Grupo 15957" transform="translate(3.274 10.947)" opacity="0.5" style="mix-blend-mode: multiply;isolation: isolate">
                <path id="Trazado_26241" data-name="Trazado 26241" d="M213.032,239.113c.03-.08-.244-.179-.3-.424a1.141,1.141,0,0,1,1.594-1.081c.288.194.579.3.6.215s-.089-.218-.364-.531a1.358,1.358,0,0,0-1.669-.033,1.331,1.331,0,0,0-.527,1.6.636.636,0,0,0,.463.313C212.96,239.172,213.024,239.15,213.032,239.113Z" transform="translate(-212.266 -236.99)" fill="#ee5f43"/>
              </g>
            </g>
            <g id="Grupo_15959" data-name="Grupo 15959" transform="translate(2.447 27.262)">
              <path id="Trazado_26242" data-name="Trazado 26242" d="M242,299.033l5.982-.175a12.616,12.616,0,0,1,1.976,1.188c.723.531,1.664,1.346,1.664,1.346a1.33,1.33,0,0,0,1.132.076c.128-.056.434-.218.473-.372s-.1-.323-.244-.476a7.381,7.381,0,0,0-1.073-.939,6.725,6.725,0,0,1-1-.89,3.7,3.7,0,0,1,1.709-.067,4.578,4.578,0,0,1,1.426.595c.465.276.826.709,1.312.975a2.457,2.457,0,0,0,1.067.318,1.153,1.153,0,0,0,.915-.422,16.837,16.837,0,0,0-3.262-2.178c-.5-.257-.991-.473-1.457-.657-.172-.193-.187-.278-.163-.32.122-.2,1.337.283,1.4.31.191.077.405.183.836.395.594.292,1.167.6,1.749.917a1.25,1.25,0,0,0,1.638-.251c-.074.053-.913-.585-1-.646a13.64,13.64,0,0,0-1.682-.933,17.536,17.536,0,0,0-2.192-.864c-.068-.125-.083-.218-.046-.281q.171-.29,1.837.3a8.268,8.268,0,0,0,1.942.607,1.774,1.774,0,0,0,1.147-.211c.206-.156.14-.2-.074-.3-.193-.093-.4-.166-.6-.252a14.05,14.05,0,0,0-2.078-.841c-.829-.209-1.624-.49-2.447-.712.358-.071.727-.115,1.081-.2.307-.075.612-.213.919-.308a2.221,2.221,0,0,0,.835-.412.826.826,0,0,0,.308-.811,7.306,7.306,0,0,0-1.433.427c-.507.155-3.606,1.063-4.651,1.352q-2.673.74-5.241,1.366l-2.8.286Z" transform="translate(-205.019 -269.492)" fill="#d08b73"/>
              <path id="Trazado_26243" data-name="Trazado 26243" d="M190.608,262.77c-2.028,3.174.261,7.741,3.687,14.362,4.221,8.156,6.331,12.235,9.883,14.208,6.718,3.733,14.969,1.7,20.133.421a41.805,41.805,0,0,0,5.956-1.955l-1.426-3.95-8.183.044-11.149-1.742a73.988,73.988,0,0,0-5.386-15.029c-3.879-7.96-6.131-8.859-7.485-9.059A6.418,6.418,0,0,0,190.608,262.77Z" transform="translate(-189.846 -260.014)" fill="#b0c0d2"/>
            </g>
          </g>
          <g id="Grupo_15961" data-name="Grupo 15961" transform="translate(0 61.43)">
            <rect id="Rectángulo_4018" data-name="Rectángulo 4018" width="32.248" height="6.159" rx="2.085" transform="translate(10.667 52.749)" fill="#f6c343"/>
            <path id="Trazado_26244" data-name="Trazado 26244" d="M173.946,300.451c0-5.241.134-10.415-.066-15.633a56.244,56.244,0,0,1,.4-10.354c.222-1.506,1.23-8.385,4.217-7.089.577.25.835,1.067.932,1.451l-.4,31.624a2.3,2.3,0,0,1-2.056,2.49H176A2.3,2.3,0,0,1,173.946,300.451Z" transform="translate(-171.005 -267.214)" fill="#f6c343"/>
            <path id="Trazado_26245" data-name="Trazado 26245" d="M173.812,289.081v33.091a10.051,10.051,0,0,0,10.05,10.05H208.62" transform="translate(-171.005 -273.586)" fill="none" stroke="#00223d" stroke-linecap="round" stroke-linejoin="round" stroke-width="1.5"/>
            <rect id="Rectángulo_4019" data-name="Rectángulo 4019" width="2.508" height="35.939" transform="translate(23.509 58.908)" fill="#00223d" stroke="#00223d" stroke-linecap="round" stroke-linejoin="round" stroke-width="1"/>
            <rect id="Rectángulo_4020" data-name="Rectángulo 4020" width="6.521" height="12.29" transform="translate(21.502 75.331)" fill="#00223d" stroke="#00223d" stroke-linecap="round" stroke-linejoin="round" stroke-width="1"/>
            <path id="Trazado_26246" data-name="Trazado 26246" d="M217.722,399.3a39.6,39.6,0,0,0-43.91,0v-2.036a40.868,40.868,0,0,1,43.91,0Z" transform="translate(-171.005 -303.25)" fill="#00223d" stroke="#00223d" stroke-linecap="round" stroke-linejoin="round" stroke-width="1"/>
            <path id="Trazado_26247" data-name="Trazado 26247" d="M175.465,401.617a2.808,2.808,0,1,0-2.808,2.808A2.808,2.808,0,0,0,175.465,401.617Z" transform="translate(-169.85 -305.564)" fill="#00223d" stroke="#00223d" stroke-linecap="round" stroke-linejoin="round" stroke-width="1"/>
            <circle id="Elipse_1069" data-name="Elipse 1069" cx="2.808" cy="2.808" r="2.808" transform="translate(43.91 93.245)" fill="#00223d" stroke="#00223d" stroke-linecap="round" stroke-linejoin="round" stroke-width="1"/>
            <circle id="Elipse_1070" data-name="Elipse 1070" cx="2.652" cy="2.652" r="2.652" transform="translate(22.111 93.402)" fill="#00223d" stroke="#00223d" stroke-linecap="round" stroke-linejoin="round" stroke-width="1"/>
          </g>
          <g id="Grupo_15962" data-name="Grupo 15962" transform="translate(54.309 89.945)">
            <line id="Línea_492" data-name="Línea 492" y1="66.662" x2="46.166" transform="translate(15.838 3.684)" fill="none" stroke="#b0c0d2" stroke-linecap="round" stroke-linejoin="round" stroke-width="2.916"/>
            <line id="Línea_493" data-name="Línea 493" x2="44.74" y2="66.662" transform="translate(16.551 3.684)" fill="none" stroke="#b0c0d2" stroke-linecap="round" stroke-linejoin="round" stroke-width="2.916"/>
            <rect id="Rectángulo_4021" data-name="Rectángulo 4021" width="77.841" height="7.368" rx="2.838" transform="translate(0)" fill="#eff4ef"/>
            <path id="Trazado_26248" data-name="Trazado 26248" d="M320.948,314.214H249.885a3.384,3.384,0,0,1-3.33-2.8,3.415,3.415,0,0,0-.06.587v.59a3.389,3.389,0,0,0,3.389,3.389h71.063a3.389,3.389,0,0,0,3.389-3.389V312a3.343,3.343,0,0,0-.06-.587A3.383,3.383,0,0,1,320.948,314.214Z" transform="translate(-246.496 -308.609)" fill="#b0c0d2"/>
          </g>
          <rect id="Rectángulo_4022" data-name="Rectángulo 4022" width="3.655" height="34.201" rx="1.306" transform="translate(88.945 40.896) rotate(8.154)" fill="#12263f"/>
          <rect id="Rectángulo_4023" data-name="Rectángulo 4023" width="2.188" height="29.909" rx="0.916" transform="matrix(0.966, -0.259, 0.259, 0.966, 88.083, 60.072)" fill="#12263f"/>
          <rect id="Rectángulo_4024" data-name="Rectángulo 4024" width="11.878" height="3.527" rx="1.476" transform="translate(89.797 86.262)" fill="#12263f"/>
          <rect id="Rectángulo_4025" data-name="Rectángulo 4025" width="19.822" height="1.763" rx="0.738" transform="translate(59.763 88.025)" fill="#12263f"/>
          <g id="Grupo_15976" data-name="Grupo 15976" transform="translate(192.2 20.11)">
            <path id="Trazado_26249" data-name="Trazado 26249" d="M483.61,287.965s-6.622,30.2-7.7,34.688-5.743,28.221-5.743,28.221L476.6,353s5.656-12.129,6.269-15.065-.32-9.532,1.279-12.2,8.619-17.474,8.619-17.474l-.474-20.577Z" transform="translate(-449.568 -231.861)" fill="#b0c0d2"/>
            <g id="Grupo_15969" data-name="Grupo 15969" transform="translate(39.959 55.828)">
              <path id="Trazado_26250" data-name="Trazado 26250" d="M498.334,294.6s.021,23.741.872,27.97,11.987,25.648,11.987,25.648l2.17,3.139,5.375-3.139a102.223,102.223,0,0,0-3.405-14.915c-2.2-6.577-5.573-9.428-5.022-11.981a85.807,85.807,0,0,0,.882-19.412c-.7-6.589-2.382-14.222-2.382-14.222l-11.319.215Z" transform="translate(-497.492 -287.689)" fill="#b0c0d2"/>
              <g id="Grupo_15968" data-name="Grupo 15968" clip-path="url(#clip-path-8)">
                <path id="Trazado_26251" data-name="Trazado 26251" d="M521.442,346.891s-2.608-9.872-3.539-11.921-5.588-10.059-5.588-11.735,1.49-8.941,1.49-12.666-3.408-16.582-3.408-16.582" transform="translate(-501.253 -289.524)" fill="none" stroke="#12263f" stroke-miterlimit="10" stroke-width="0.516"/>
                <g id="Grupo_15963" data-name="Grupo 15963" transform="translate(5.081 4.723)">
                  <path id="Trazado_26252" data-name="Trazado 26252" d="M504.777,294.354a1.362,1.362,0,0,0-.081.468,3.992,3.992,0,0,0,.043,1.3c.1.527.159,1.172.339,1.882a8.184,8.184,0,0,0,.883,2.2,6.052,6.052,0,0,0,3.276,2.693,5.337,5.337,0,0,0,1.272.269,1.181,1.181,0,0,0,.476-.012,16.105,16.105,0,0,1-1.672-.465,6.2,6.2,0,0,1-3.082-2.645,8.557,8.557,0,0,1-.872-2.109c-.189-.677-.27-1.321-.4-1.852a4.773,4.773,0,0,1-.138-1.251A1.436,1.436,0,0,0,504.777,294.354Z" transform="translate(-504.663 -294.354)" fill="#12263f"/>
                </g>
                <g id="Grupo_15964" data-name="Grupo 15964" transform="translate(-2.241 4.325)">
                  <path id="Trazado_26253" data-name="Trazado 26253" d="M494.333,293.825c-.016-.008.013.235.342.4a3.181,3.181,0,0,0,1.414.151c1.185-.017,2.823-.062,4.631-.13s3.444-.149,4.628-.223a11.587,11.587,0,0,0,1.91-.184,11.69,11.69,0,0,0-1.923-.038c-1.185.016-2.821.061-4.626.13s-3.44.148-4.623.222a3.542,3.542,0,0,1-1.363-.041C494.424,294,494.358,293.807,494.333,293.825Z" transform="translate(-494.329 -293.792)" fill="#12263f"/>
                </g>
                <g id="Grupo_15965" data-name="Grupo 15965" transform="translate(-3.887 2.27)">
                  <path id="Trazado_26254" data-name="Trazado 26254" d="M492.007,291.442a15.65,15.65,0,0,0,2.172-.013l5.233-.166,5.234-.135a15.648,15.648,0,0,0,2.169-.113,2.136,2.136,0,0,0-.582-.062c-.375-.02-.918-.036-1.589-.047-1.341-.021-3.2-.015-5.242.044s-3.9.159-5.236.259c-.669.05-1.209.1-1.583.139A2.084,2.084,0,0,0,492.007,291.442Z" transform="translate(-492.007 -290.893)" fill="#12263f"/>
                </g>
                <g id="Grupo_15966" data-name="Grupo 15966" transform="translate(6.779 2.137)">
                  <path id="Trazado_26255" data-name="Trazado 26255" d="M507.166,290.7a5.394,5.394,0,0,0,.128,2.586,2.757,2.757,0,0,0,.094-1.3C507.351,291.27,507.252,290.694,507.166,290.7Z" transform="translate(-507.06 -290.705)" fill="#12263f"/>
                </g>
                <g id="Grupo_15967" data-name="Grupo 15967" transform="translate(3.057 1.511)">
                  <path id="Trazado_26256" data-name="Trazado 26256" d="M501.9,289.821a9.038,9.038,0,0,0,.169,3.352,9.042,9.042,0,0,0-.169-3.352Z" transform="translate(-501.807 -289.821)" fill="#12263f"/>
                </g>
              </g>
            </g>
            <path id="Trazado_26258" data-name="Trazado 26258" d="M521.095,363.655,510.7,369.587s4.072,10.85,4,14.415c-.111,5.6-9.915,5.707-9.077,10.387.123.688,4.439.085,7.682.373s5.715-1.113,6.01-3.027,2.868-2.934,2.868-2.934l.9,3.632,3.331-1.727Z" transform="translate(-459.889 -253.999)" fill="#12263f"/>
            <path id="Trazado_26259" data-name="Trazado 26259" d="M471.374,372.174l-11.75-3.976s-1.805,14.408-4.593,16.632c-6.053,4.83-14.715,5.855-13.877,9.3.165.679,1.556,1.57,6.287,1.351,1.534-.072,6.143-.181,7.407-1.648s3.987-.969,3.987-.969l-.079,2.943,7.2-.094C465.744,389.366,468.65,381.115,471.374,372.174Z" transform="translate(-441.098 -255.323)" fill="#12263f"/>
            <g id="Grupo_15974" data-name="Grupo 15974" transform="translate(44.226 0.592)">
              <path id="Trazado_26260" data-name="Trazado 26260" d="M512.346,219.233c-1.147-.531-5.024-1.688-5.247-3.012a2.06,2.06,0,0,1,.153-1.015c2.352-6.6,11.721-6.576,16.71-3.371a6.291,6.291,0,0,0,4.9,1.142c1.888-.325,3.673-1.146,5.576-1.371a10.335,10.335,0,0,1,10.291,6.415c1.945,5.049-1.674,9.1-2.078,14.011a9.683,9.683,0,0,0,.474,4.589c.429.993.679,1.237-.59,1.527a8.394,8.394,0,0,1-2.613.035,8.679,8.679,0,0,1-3.892-1.053c-2.14-1.355-2.052-3.558-2.368-5.761-.442-3.084-.763-6.184-1.212-9.267-.226-1.552-1.746-5.666-3.511-5.881-2.076-.21-1.881.32-1.881.32.491,1.312.09,4.052-.183,5.387a11.819,11.819,0,0,1-10.159,9.42c-1.919.22-4.187-1.124-6.009-1.77l2.7-7.035Z" transform="translate(-504.554 -209.734)" fill="#12263f"/>
              <g id="Grupo_15971" data-name="Grupo 15971" transform="translate(0 3.632)">
                <path id="Trazado_26261" data-name="Trazado 26261" d="M506.8,218.086c-.235.626-.569,1.594-.707,1.828a27.83,27.83,0,0,0-2.525,2.113c-.332.565.988.993.988.993-.036-.016-.806,2.758-.827,3.035a3.809,3.809,0,0,0,1.839,3.182,3.913,3.913,0,0,0,3.974,0c-.309,1.128-.636,2.25-.961,3.374l5.563,2.021a26.115,26.115,0,0,1,.821-5.352c.568-1.326,1.837-4.783,1.837-4.783a1.437,1.437,0,0,0,1.144-.364c.6-.487.91-2.063-.067-2.438a1.342,1.342,0,0,0-1.791.672c-.724-.1-1.337-1.824-1.568-2.372-.725-1.72-.289-3.394.064-5.136-.038.188-1.1.554-1.281.7a4.5,4.5,0,0,0-1.177,2.136,11.4,11.4,0,0,0-.292,1.2c-.167.855.047,1.323-1.006,1A21.3,21.3,0,0,1,506.8,218.086Z" transform="translate(-503.514 -214.86)" fill="#d08b73"/>
                <g id="Grupo_15970" data-name="Grupo 15970" clip-path="url(#clip-path-9)">
                  <path id="Trazado_26262" data-name="Trazado 26262" d="M515.932,231.335a142.3,142.3,0,0,1-6.4,3.9,11.519,11.519,0,0,0,6.4-3.9Z" transform="translate(-505.266 -219.658)" fill="#bc6c56"/>
                  <path id="Trazado_26263" data-name="Trazado 26263" d="M522.286,226.424c-.05,0-.03.229.25.325a.582.582,0,0,0,.485-.061.865.865,0,0,0,.3-1.049.418.418,0,0,0-.246-.209.437.437,0,0,0-.248.006c-.23.1-.334.2-.309.245s.17.043.35.019c.1.008.115.026.138.089a.609.609,0,0,1-.014.327.437.437,0,0,1-.408.37C522.424,226.493,522.335,226.4,522.286,226.424Z" transform="translate(-508.979 -217.936)" fill="#bc6c56"/>
                  <path id="Trazado_26264" data-name="Trazado 26264" d="M517.285,212.948a5.614,5.614,0,0,0-1.7,1.092,5.753,5.753,0,0,0-.745.717c-.125.14-.26.281-.389.436a4.087,4.087,0,0,0-.312.541c-.187.381-.337.782-.5,1.206-.079.212-.159.427-.242.644a4.142,4.142,0,0,0-.162.708c-.071.465-.191.876-.536,1a1.6,1.6,0,0,1-1.117-.131,6.766,6.766,0,0,1-1.834-1.069,3.679,3.679,0,0,0-1.3-.749c-.356-.089-.558-.021-.553,0,0,.034.2.021.509.144a4.224,4.224,0,0,1,1.171.816,6.463,6.463,0,0,0,1.874,1.186,1.9,1.9,0,0,0,1.38.152,1.055,1.055,0,0,0,.58-.556,2.9,2.9,0,0,0,.195-.723,3.83,3.83,0,0,1,.148-.658l.231-.633c.15-.414.3-.822.462-1.183a3.873,3.873,0,0,1,.274-.5l.35-.417a6.031,6.031,0,0,1,.684-.721C516.664,213.408,517.318,213,517.285,212.948Z" transform="translate(-504.793 -214.302)" fill="#bc6c56"/>
                </g>
              </g>
              <g id="Grupo_15972" data-name="Grupo 15972" transform="translate(36.834 5.308)">
                <path id="Trazado_26266" data-name="Trazado 26266" d="M563.074,239.143a6,6,0,0,0-.884-.473,6.9,6.9,0,0,1-2.023-1.718,7.628,7.628,0,0,1-1.572-3.558,11.087,11.087,0,0,1,.315-4.8c.232-.832.539-1.65.719-2.5a8.089,8.089,0,0,0,.128-2.484,8.637,8.637,0,0,0-1.411-3.909,7.753,7.753,0,0,0-1.943-2,2.343,2.343,0,0,0-.9-.477,12.743,12.743,0,0,1,2.464,2.724,8.636,8.636,0,0,1,1.205,3.72,7.8,7.8,0,0,1-.152,2.3c-.176.785-.48,1.588-.724,2.459a11.188,11.188,0,0,0-.279,5.073,7.754,7.754,0,0,0,1.808,3.744,6.272,6.272,0,0,0,2.26,1.65A2.133,2.133,0,0,0,563.074,239.143Z" transform="translate(-555.497 -217.225)" fill="#282e5b"/>
              </g>
              <g id="Grupo_15973" data-name="Grupo 15973" transform="translate(8.736 13.514)">
                <path id="Trazado_26267" data-name="Trazado 26267" d="M515.845,233.694c.013.059.428.04,1.054-.188a5.987,5.987,0,0,0,3.5-3.639c.2-.634.206-1.049.146-1.061a8.683,8.683,0,0,1-4.7,4.887Z" transform="translate(-515.843 -228.806)" fill="#282e5b"/>
              </g>
            </g>
            <g id="Grupo_15975" data-name="Grupo 15975" transform="translate(13.189)">
              <path id="Trazado_26268" data-name="Trazado 26268" d="M534.592,291.153s-6.029,16.891-5.753,20.343,3.682,5.477,3.82,6.443c.089.624-1.047,1.314-1.588,1.121a1.478,1.478,0,0,1-.514-.378c-.749-.742-1.466-1.559-2.266-2.244-.471-.4-.668-.439-.618.181.029.35.226,2.328-.076,2.541-.23.161-.745.575-.787-.046s-.594-6.1-.456-7.479a36.927,36.927,0,0,0,0-4.04c-.018-1.788.039-3.564.2-5.35a63.723,63.723,0,0,1,.973-6.82c.41-2.066.736-4.376,1.992-6.128C531.647,286.321,534.592,291.153,534.592,291.153Z" transform="translate(-479.126 -232.047)" fill="#d08b73"/>
              <path id="Trazado_26269" data-name="Trazado 26269" d="M518.534,252.892a81.746,81.746,0,0,1,.582,12.1c-.056,2.153-.195,4.2-.391,6.126a14.541,14.541,0,0,1,4.375,1.78c2.138,1.323,2.821,2.562,5.012,3.549a10.694,10.694,0,0,0,3.4.886,59.214,59.214,0,0,0-2.7-20.265c-2.2-6.851-4.683-9.926-6.024-11.393a25.208,25.208,0,0,0-5.941-4.775q-.09.112-.172.228C514.47,244.258,516.734,249.568,518.534,252.892Z" transform="translate(-476.047 -218.225)" fill="#f5ca56"/>
              <path id="Trazado_26270" data-name="Trazado 26270" d="M469.276,229.91s-5.077-6.556-5.353-8.212a21.7,21.7,0,0,1-.323-3.912c.046-.483.609-1.887.765-2.9a4.5,4.5,0,0,0-.776-2.508c-.1-.162.081-3.084-.265-3.36s-1.035-.368-.874,3.291c-1.817-.322-2.715-.161-2.739,1.151a20.931,20.931,0,0,0,1.243,4.672,24.618,24.618,0,0,0,.529,3.728c.391,1.519,2.01,9.846,5.8,13.1C470.114,234.17,469.276,229.91,469.276,229.91Z" transform="translate(-459.712 -208.899)" fill="#d08b73"/>
              <path id="Trazado_26271" data-name="Trazado 26271" d="M500.664,238.643a17.641,17.641,0,0,0-1.983-.4,30.649,30.649,0,0,0-6.568-.108c-1.835.131-3.513.023-5.345-.018-2.336-.055-4.672-.12-7-.25a20.871,20.871,0,0,1-4.132-.422c-3.081-.816-3.562-1.742-4.879-1.473-1.759.36-2.268,2.489-4.163,5.87a39.116,39.116,0,0,1-4.684,6.615,88.6,88.6,0,0,0,14.383,2.065c3.529.293,5.854.21,7.151-.189h0s.349.966.71,2.3a31.1,31.1,0,0,1,.779,4.51c.218,2.537-.795,9.033-4.47,16.776a16.079,16.079,0,0,1,4.576-.685c3.556-.008,5.227,1.139,9.214,1.432a23.824,23.824,0,0,0,5.12-.186c.069-1.069.751-1.8.7-2.771-.055-1.027-.38-2.2.145-3.1.211-.361-.359-1.473-.035-2.382a39.857,39.857,0,0,1,4.449-8.351,27.752,27.752,0,0,0,3.272-6.031c1.168-2.858,1.455-6.058-.349-8.727A11.742,11.742,0,0,0,500.664,238.643Z" transform="translate(-460.351 -216.774)" fill="#f5ca56"/>
            </g>
            <path id="Trazado_26272" data-name="Trazado 26272" d="M492.3,255.48a27.833,27.833,0,0,0,5.33-1.883c-3.666,3.852-3.5,8.57-3.923,11.225C493.028,257.01,492.3,255.48,492.3,255.48Z" transform="translate(-456.019 -221.925)" fill="#dbb348"/>
          </g>
        </g>
        <line id="Línea_498" data-name="Línea 498" x2="333.774" transform="translate(0 211.838)" fill="none" stroke="#00223d" stroke-linecap="round" stroke-linejoin="round" stroke-width="5.023"/>
      </g>
    </g>
  </g>
</svg>
