<svg xmlns="http://www.w3.org/2000/svg" xmlns:xlink="http://www.w3.org/1999/xlink" width="360.524" height="291.597" viewBox="0 0 360.524 291.597">
  <defs>
    <filter id="Rectángulo_46669" x="19.122" y="20.189" width="255.091" height="271.408" filterUnits="userSpaceOnUse">
      <feOffset dy="3" input="SourceAlpha"/>
      <feGaussianBlur stdDeviation="3" result="blur"/>
      <feFlood flood-opacity="0.161"/>
      <feComposite operator="in" in2="blur"/>
      <feComposite in="SourceGraphic"/>
    </filter>
    <clipPath id="clip-path">
      <rect id="Rectángulo_52534" data-name="Rectángulo 52534" width="67.044" height="66.945" fill="#12263f"/>
    </clipPath>
  </defs>
  <g id="Grupo_172860" data-name="Grupo 172860" transform="translate(1331.262 2258.868)">
    <g id="Grupo_166659" data-name="Grupo 166659" transform="translate(-1331.262 -2257.693)">
      <path id="Trazado_210944" data-name="Trazado 210944" d="M170.8,4114.393h-1.927c-1.384,0-2.506-.83-2.506-1.854s1.122-1.854,2.506-1.854H170.8c1.384,0,2.506.83,2.506,1.854S172.179,4114.393,170.8,4114.393Zm-21.2,0h-1.927c-1.384,0-2.506-.83-2.506-1.854s1.122-1.854,2.506-1.854h1.927c1.384,0,2.506.83,2.506,1.854S150.978,4114.393,149.595,4114.393Zm-21.2,0h-1.927c-1.384,0-2.506-.83-2.506-1.854s1.122-1.854,2.506-1.854h1.927c1.384,0,2.506.83,2.506,1.854S129.778,4114.393,128.394,4114.393Zm-21.2,0h-1.927c-1.384,0-2.506-.83-2.506-1.854s1.122-1.854,2.506-1.854h1.927c1.384,0,2.506.83,2.506,1.854S108.577,4114.393,107.194,4114.393Zm-21.2,0H84.066c-1.384,0-2.506-.83-2.506-1.854s1.122-1.854,2.506-1.854h1.927c1.384,0,2.506.83,2.506,1.854S87.377,4114.393,85.993,4114.393Zm-21.2,0H62.865c-1.384,0-2.506-.83-2.506-1.854s1.122-1.854,2.506-1.854h1.927c1.384,0,2.506.83,2.506,1.854S66.176,4114.393,64.792,4114.393Zm-21.2,0H41.665c-1.384,0-2.506-.83-2.506-1.854s1.122-1.854,2.506-1.854h1.927c1.384,0,2.506.83,2.506,1.854S44.976,4114.393,43.592,4114.393Zm-21.2,0H20.464c-1.384,0-2.506-.83-2.506-1.854s1.122-1.854,2.506-1.854h1.927c1.384,0,2.506.83,2.506,1.854S23.775,4114.393,22.391,4114.393Zm-21.2,0H-.736c-1.384,0-2.506-.83-2.506-1.854s1.122-1.854,2.506-1.854H1.191c1.384,0,2.506.83,2.506,1.854S2.575,4114.393,1.191,4114.393Zm-21.2,0h-1.927c-1.384,0-2.506-.83-2.506-1.854s1.122-1.854,2.506-1.854h1.927c1.384,0,2.506.83,2.506,1.854S-18.626,4114.393-20.01,4114.393Zm-21.2-.046c-.058,0-.116,0-.175,0-.7-.036-1.406-.09-2.1-.164-1.37-.145-2.321-1.084-2.125-2.1a2.493,2.493,0,0,1,2.835-1.573c.571.061,1.154.106,1.733.136,1.381.07,2.423.956,2.328,1.977A2.317,2.317,0,0,1-41.205,4114.347Zm219.1-.674a2.518,2.518,0,0,1-2.41-1.352c-.375-.985.4-2.009,1.732-2.287.559-.116,1.117-.25,1.658-.4a2.816,2.816,0,0,1,3.21,1.11c.473.962-.2,2.025-1.5,2.375-.656.176-1.332.337-2.009.479A3.34,3.34,0,0,1,177.894,4113.672Zm-237.439-6.3a2.925,2.925,0,0,1-1.931-.671c-.448-.4-.88-.816-1.285-1.238a1.572,1.572,0,0,1,.589-2.585,3.109,3.109,0,0,1,3.494.436c.335.349.692.692,1.062,1.022a1.548,1.548,0,0,1-.332,2.61A3.075,3.075,0,0,1-59.545,4107.374Zm253.474-3.294a3.217,3.217,0,0,1-1.17-.216c-1.223-.479-1.69-1.6-1.042-2.505.271-.379.525-.769.757-1.161a2.9,2.9,0,0,1,3.3-.954c1.268.41,1.845,1.5,1.29,2.441-.281.475-.59.949-.919,1.408A2.729,2.729,0,0,1,193.929,4104.08Zm-259.475-11.346c-1.384,0-2.506-.83-2.506-1.854v-1.426c0-1.024,1.122-1.854,2.506-1.854s2.506.83,2.506,1.854v1.426C-63.041,4091.9-64.163,4092.734-65.546,4092.734Zm262.5-3.972c-1.384,0-2.506-.83-2.506-1.854v-1.426c0-1.024,1.122-1.854,2.506-1.854s2.506.83,2.506,1.854v1.426C199.46,4087.931,198.339,4088.761,196.955,4088.761Zm-262.5-11.713c-1.384,0-2.506-.83-2.506-1.854v-1.426c0-1.024,1.122-1.854,2.506-1.854s2.506.83,2.506,1.854v1.426C-63.041,4076.219-64.163,4077.049-65.546,4077.049Zm262.5-3.972c-1.384,0-2.506-.83-2.506-1.854V4069.8c0-1.024,1.122-1.854,2.506-1.854s2.506.83,2.506,1.854v1.426C199.46,4072.247,198.339,4073.076,196.955,4073.076Zm-262.5-11.713c-1.384,0-2.506-.829-2.506-1.854v-1.426c0-1.024,1.122-1.854,2.506-1.854s2.506.83,2.506,1.854v1.426C-63.041,4060.534-64.163,4061.364-65.546,4061.364Zm262.5-3.972c-1.384,0-2.506-.83-2.506-1.854v-1.426c0-1.024,1.122-1.854,2.506-1.854s2.506.83,2.506,1.854v1.426C199.46,4056.562,198.339,4057.391,196.955,4057.391Zm-262.5-11.712c-1.384,0-2.506-.83-2.506-1.854V4042.4c0-1.024,1.122-1.854,2.506-1.854s2.506.83,2.506,1.854v1.425C-63.041,4044.849-64.163,4045.679-65.546,4045.679Zm262.5-3.972c-1.384,0-2.506-.83-2.506-1.854v-1.426c0-1.024,1.122-1.854,2.506-1.854s2.506.83,2.506,1.854v1.426C199.46,4040.876,198.339,4041.707,196.955,4041.707Zm-262.5-11.713c-1.384,0-2.506-.83-2.506-1.854v-1.426c0-1.024,1.122-1.854,2.506-1.854s2.506.83,2.506,1.854v1.426C-63.041,4029.164-64.163,4029.994-65.546,4029.994Zm262.5-3.972c-1.384,0-2.506-.83-2.506-1.854v-1.426c0-1.024,1.122-1.854,2.506-1.854s2.506.83,2.506,1.854v1.426C199.46,4025.191,198.339,4026.021,196.955,4026.021Zm-262.5-11.713c-1.384,0-2.506-.83-2.506-1.854v-1.426c0-1.024,1.122-1.854,2.506-1.854s2.506.83,2.506,1.854v1.426C-63.041,4013.479-64.163,4014.309-65.546,4014.309Zm262.5-3.972c-1.384,0-2.506-.83-2.506-1.854v-1.426c0-1.024,1.122-1.854,2.506-1.854s2.506.83,2.506,1.854v1.426C199.46,4009.506,198.339,4010.336,196.955,4010.336Zm-262.5-11.713c-1.384,0-2.506-.83-2.506-1.854v-1.426c0-1.023,1.122-1.854,2.506-1.854s2.506.83,2.506,1.854v1.426C-63.041,3997.794-64.163,3998.624-65.546,3998.624Zm262.5-3.973c-1.384,0-2.506-.83-2.506-1.854v-1.426c0-1.024,1.122-1.854,2.506-1.854s2.506.83,2.506,1.854v1.426C199.46,3993.821,198.339,3994.651,196.955,3994.651Zm-262.5-11.712c-1.384,0-2.506-.83-2.506-1.854v-1.426c0-1.024,1.122-1.854,2.506-1.854s2.506.83,2.506,1.854v1.426C-63.041,3982.109-64.163,3982.938-65.546,3982.938Zm262.5-3.972c-1.384,0-2.506-.83-2.506-1.854v-1.426c0-1.024,1.122-1.854,2.506-1.854s2.506.83,2.506,1.854v1.426C199.46,3978.136,198.339,3978.966,196.955,3978.966Zm-262.5-11.713c-1.384,0-2.506-.83-2.506-1.854v-1.426c0-1.024,1.122-1.854,2.506-1.854s2.506.83,2.506,1.854v1.426C-63.041,3966.424-64.163,3967.253-65.546,3967.253Zm262.5-3.972c-1.384,0-2.506-.83-2.506-1.854V3960c0-1.024,1.122-1.854,2.506-1.854s2.506.83,2.506,1.854v1.426C199.46,3962.451,198.339,3963.281,196.955,3963.281Zm-262.5-11.713c-1.384,0-2.506-.83-2.506-1.854v-1.426c0-1.024,1.122-1.854,2.506-1.854s2.506.83,2.506,1.854v1.426C-63.041,3950.739-64.163,3951.569-65.546,3951.569Zm262.5-3.972c-1.384,0-2.506-.83-2.506-1.854v-1.426c0-1.024,1.122-1.854,2.506-1.854s2.506.83,2.506,1.854v1.426C199.46,3946.766,198.339,3947.6,196.955,3947.6Zm-262.5-11.713c-1.384,0-2.506-.83-2.506-1.854V3932.6c0-1.024,1.122-1.854,2.506-1.854s2.506.83,2.506,1.854v1.426C-63.041,3935.053-64.163,3935.883-65.546,3935.883Zm262.5-3.972c-1.384,0-2.506-.83-2.506-1.854v-1.426c0-1.024,1.122-1.854,2.506-1.854s2.506.83,2.506,1.854v1.426C199.46,3931.081,198.339,3931.911,196.955,3931.911Zm-262.5-11.713c-1.384,0-2.506-.83-2.506-1.854v-1.426c0-1.024,1.122-1.854,2.506-1.854s2.506.83,2.506,1.854v1.426C-63.041,3919.368-64.163,3920.2-65.546,3920.2Zm262.5-3.972c-1.384,0-2.506-.83-2.506-1.854v-1.426c0-1.024,1.122-1.854,2.506-1.854s2.506.83,2.506,1.854v1.426C199.46,3915.4,198.339,3916.226,196.955,3916.226Zm-262.5-11.713c-1.384,0-2.506-.83-2.506-1.854v-1.426c0-1.024,1.122-1.854,2.506-1.854s2.506.83,2.506,1.854v1.426C-63.041,3903.683-64.163,3904.513-65.546,3904.513Zm262.5-3.972c-1.384,0-2.506-.83-2.506-1.854v-1.426c0-1.024,1.122-1.854,2.506-1.854s2.506.83,2.506,1.854v1.426C199.46,3899.711,198.339,3900.541,196.955,3900.541Zm-262.5-11.713c-1.384,0-2.506-.83-2.506-1.854v-1.426c0-1.024,1.122-1.854,2.506-1.854s2.506.83,2.506,1.854v1.426C-63.041,3888-64.163,3888.828-65.546,3888.828Zm262.5-3.972c-1.384,0-2.506-.83-2.506-1.854v-.359c0-.321-.012-.646-.035-.966-.075-1.022.984-1.9,2.366-1.951s2.563.728,2.638,1.75c.028.386.043.779.043,1.167V3883C199.46,3884.026,198.339,3884.856,196.955,3884.856Zm-258.136-11.07a3.149,3.149,0,0,1-1.386-.311,1.586,1.586,0,0,1-.7-2.57c.389-.432.8-.858,1.233-1.268a3.132,3.132,0,0,1,3.516-.326,1.557,1.557,0,0,1,.441,2.6c-.355.338-.7.69-1.019,1.047A2.828,2.828,0,0,1-61.181,3873.786Zm250.358-3.059a3.005,3.005,0,0,1-1.761-.535c-.41-.3-.842-.593-1.284-.872a1.545,1.545,0,0,1-.281-2.613,3.15,3.15,0,0,1,3.532-.208c.535.337,1.058.693,1.555,1.056a1.538,1.538,0,0,1,.02,2.622A3,3,0,0,1,189.177,3870.727Zm-233.1-5.294a2.416,2.416,0,0,1-2.465-1.535c-.238-1.008.673-1.969,2.036-2.145.692-.09,1.4-.161,2.092-.212,1.373-.1,2.6.642,2.741,1.661s-.869,1.927-2.246,2.028c-.574.042-1.153.1-1.724.175A3.363,3.363,0,0,1-43.925,3865.434Zm213.911-.291h-1.927c-1.384,0-2.506-.83-2.506-1.854s1.122-1.854,2.506-1.854h1.927c1.384,0,2.506.83,2.506,1.854S171.369,3865.143,169.986,3865.143Zm-21.2,0h-1.927c-1.384,0-2.506-.83-2.506-1.854s1.122-1.854,2.506-1.854h1.927c1.384,0,2.506.83,2.506,1.854S150.169,3865.143,148.785,3865.143Zm-21.2,0h-1.927c-1.384,0-2.506-.83-2.506-1.854s1.122-1.854,2.506-1.854h1.927c1.384,0,2.506.83,2.506,1.854S128.969,3865.143,127.585,3865.143Zm-21.2,0h-1.927c-1.384,0-2.506-.83-2.506-1.854s1.122-1.854,2.506-1.854h1.927c1.384,0,2.506.83,2.506,1.854S107.768,3865.143,106.384,3865.143Zm-21.2,0H83.257c-1.384,0-2.506-.83-2.506-1.854s1.122-1.854,2.506-1.854h1.927c1.384,0,2.506.83,2.506,1.854S86.568,3865.143,85.184,3865.143Zm-21.2,0H62.056c-1.384,0-2.506-.83-2.506-1.854s1.122-1.854,2.506-1.854h1.927c1.384,0,2.506.83,2.506,1.854S65.367,3865.143,63.983,3865.143Zm-21.2,0H40.856c-1.384,0-2.506-.83-2.506-1.854s1.122-1.854,2.506-1.854h1.927c1.384,0,2.506.83,2.506,1.854S44.167,3865.143,42.783,3865.143Zm-21.2,0H19.655c-1.384,0-2.506-.83-2.506-1.854s1.122-1.854,2.506-1.854h1.927c1.384,0,2.506.83,2.506,1.854S22.966,3865.143,21.582,3865.143Zm-21.2,0H-1.546c-1.384,0-2.506-.83-2.506-1.854s1.122-1.854,2.506-1.854H.382c1.384,0,2.506.83,2.506,1.854S1.766,3865.143.382,3865.143Zm-21.2,0h-1.927c-1.384,0-2.506-.83-2.506-1.854s1.122-1.854,2.506-1.854h1.927c1.384,0,2.506.83,2.506,1.854S-19.435,3865.143-20.819,3865.143Z" transform="translate(68.052 -3861.436)" fill="#afafaf"/>
    </g>
    <path id="Trazado_210945" data-name="Trazado 210945" d="M419.852,3858.387h-115.9c-5.565,0-10.077,3.331-10.077,7.439V4105.08c0,4.108,4.512,7.439,10.077,7.439H419.872a11.374,11.374,0,0,0,8.391-3.319,7.125,7.125,0,0,0,.528-.683l86.094-122.612-86.1-123.5a7.079,7.079,0,0,0-.527-.685A11.36,11.36,0,0,0,419.852,3858.387Z" transform="translate(-1485.624 -6117.255)" fill="#afafaf"/>
    <g id="Grupo_166662" data-name="Grupo 166662" transform="translate(-1303.52 -2231.919)" opacity="0.2" style="mix-blend-mode: multiply;isolation: isolate">
      <g id="Grupo_166661" data-name="Grupo 166661" transform="translate(0 0)">
        <g id="Grupo_166660" data-name="Grupo 166660">
          <rect id="Rectángulo_46668" data-name="Rectángulo 46668" width="237.091" height="243.133" rx="20"/>
        </g>
      </g>
    </g>
    <g id="Grupo_166672" data-name="Grupo 166672" transform="translate(-1263.21 -6117.255)">
      <g id="Grupo_166664" data-name="Grupo 166664" transform="translate(-39.93 3884.576)">
        <g id="Grupo_166663" data-name="Grupo 166663" transform="translate(0)">
          <g transform="matrix(1, 0, 0, 1, -28.12, -26.19)" filter="url(#Rectángulo_46669)">
            <rect id="Rectángulo_46669-2" data-name="Rectángulo 46669" width="237.091" height="253.408" rx="20" transform="translate(28.12 26.19)" fill="#fff"/>
          </g>
        </g>
      </g>
      <g id="Grupo_166665" data-name="Grupo 166665" transform="translate(-39.929 3892.794)">
        <path id="Trazado_210946" data-name="Trazado 210946" d="M233.778,3966.04v208.412c0,10.157-9.523,18.389-21.273,18.389H26.175c-11.746,0-21.269-8.231-21.269-18.389V3966.04c0-10.157,9.523-18.389,21.269-18.389H212.5C224.255,3947.651,233.778,3955.883,233.778,3966.04Z" transform="translate(-4.906 -3947.651)" fill="#f7f7f7"/>
      </g>
    </g>
    <g id="Grupo_171262" data-name="Grupo 171262" transform="translate(-1218.117 -2212.184)">
      <g id="Grupo_171261" data-name="Grupo 171261" clip-path="url(#clip-path)">
        <path id="Trazado_212278" data-name="Trazado 212278" d="M40.971,60.767a5.937,5.937,0,0,0,1.62,3.36c.944,1.27,2.286.545,3.479.863v1.954H21.017V64.9c1.578.145,3.175.194,4.057-1.493.418-.8.81-1.614,1.321-2.638H24.978c-6.377,0-12.756-.048-19.132.017A5.528,5.528,0,0,1,0,54.946C.081,42.222.032,29.5.033,16.774c0-3.652,1.549-5.227,5.253-5.244,5.541-.027,11.083-.007,16.625-.007H23.1a10.41,10.41,0,0,1,3.777-9.142A10.023,10.023,0,0,1,33.635,0a10.17,10.17,0,0,1,7.707,3.484,10.4,10.4,0,0,1,2.631,8.035h1.105c5.789.012,11.579-.024,17.367.056,3.008.042,4.6,1.775,4.6,4.739q0,19.458,0,38.915A5.27,5.27,0,0,1,61.5,60.764q-9.752.011-19.5,0H40.971M64.911,50.2V17.78H63.879c-7.307,0-14.615-.012-21.922.025a2.661,2.661,0,0,0-1.551.583,10.437,10.437,0,0,1-13.7-.02,2.322,2.322,0,0,0-1.663-.6q-11.008.024-22.015.013c-.272,0-.543.028-.848.045V50.2ZM2.128,52.382c0,.908,0,1.71,0,2.512,0,2.6,1.123,3.721,3.727,3.721H60.749c.4,0,.805.007,1.207-.01a2.943,2.943,0,0,0,2.916-2.5,31.686,31.686,0,0,0,.03-3.719ZM33.582,2.09a8.369,8.369,0,1,0,8.325,8.5,8.362,8.362,0,0,0-8.325-8.5M26.963,64.825h13.21l-1.614-4.066c-3.158,0-6.49-.006-9.822.017a.7.7,0,0,0-.51.379c-.448,1.222-.853,2.459-1.264,3.67m-24.8-49.19h22.22a5.523,5.523,0,0,1-.42-.972c-.191-.892-.726-1.077-1.587-1.071-5.66.039-11.32.007-16.98.038a6.829,6.829,0,0,0-2.157.4,1.535,1.535,0,0,0-1.075,1.608m62.728,0c-.112-1.288-.989-2-2.648-2q-9.046-.044-18.091,0a.973.973,0,0,0-.727.365,13.844,13.844,0,0,0-.718,1.644Z" transform="translate(0 0)" fill="#12263f"/>
        <rect id="Rectángulo_52521" data-name="Rectángulo 52521" width="1.965" height="25.011" transform="translate(41.961 23.086)" fill="#12263f"/>
        <path id="Trazado_212279" data-name="Trazado 212279" d="M161.483,131.315a3.651,3.651,0,1,1,3.716-3.682,3.687,3.687,0,0,1-3.716,3.682m1.614-3.662a1.587,1.587,0,0,0-1.638-1.544,1.541,1.541,0,0,0-1.492,1.571,1.581,1.581,0,0,0,1.613,1.563,1.668,1.668,0,0,0,1.516-1.59" transform="translate(-128.507 -100.973)" fill="#12263f"/>
        <path id="Trazado_212280" data-name="Trazado 212280" d="M37.513,124.074a3.645,3.645,0,1,1-.046,7.29,3.7,3.7,0,0,1-3.695-3.626,3.659,3.659,0,0,1,3.741-3.664m1.514,3.612a1.564,1.564,0,0,0-1.544-1.532,1.526,1.526,0,0,0-1.556,1.595,1.558,1.558,0,0,0,1.618,1.541,1.593,1.593,0,0,0,1.482-1.6" transform="translate(-27.497 -101.021)" fill="#12263f"/>
        <path id="Trazado_212281" data-name="Trazado 212281" d="M99.568,124a3.652,3.652,0,1,1-3.649,3.56A3.66,3.66,0,0,1,99.568,124m1.611,3.656a1.622,1.622,0,0,0-1.634-1.562,1.526,1.526,0,0,0-1.493,1.656,1.557,1.557,0,0,0,1.588,1.479,1.671,1.671,0,0,0,1.54-1.574" transform="translate(-78.096 -100.959)" fill="#12263f"/>
        <path id="Trazado_212282" data-name="Trazado 212282" d="M37.45,204.574a3.653,3.653,0,0,1-3.671-3.642,3.686,3.686,0,0,1,7.372.045,3.634,3.634,0,0,1-3.7,3.6m-.013-5.217a1.554,1.554,0,0,0-1.506,1.657,1.538,1.538,0,0,0,1.577,1.481,1.6,1.6,0,0,0,1.536-1.642,1.639,1.639,0,0,0-1.607-1.5" transform="translate(-27.503 -160.629)" fill="#12263f"/>
        <path id="Trazado_212283" data-name="Trazado 212283" d="M99.56,204.574a3.613,3.613,0,0,1-3.617-3.671,3.671,3.671,0,1,1,3.617,3.671m1.622-3.607a1.651,1.651,0,0,0-1.581-1.617,1.564,1.564,0,0,0-1.531,1.54,1.536,1.536,0,0,0,1.553,1.6,1.6,1.6,0,0,0,1.558-1.522" transform="translate(-78.116 -160.623)" fill="#12263f"/>
        <path id="Trazado_212284" data-name="Trazado 212284" d="M161.488,204.578A3.646,3.646,0,1,1,165.2,201a3.664,3.664,0,0,1-3.715,3.58m.027-5.215A1.544,1.544,0,0,0,159.986,201a1.52,1.52,0,0,0,1.553,1.5,1.591,1.591,0,0,0,1.564-1.612,1.67,1.67,0,0,0-1.589-1.518" transform="translate(-128.511 -160.631)" fill="#12263f"/>
        <rect id="Rectángulo_52522" data-name="Rectángulo 52522" width="13.578" height="1.976" transform="translate(47.167 23.108)" fill="#12263f"/>
        <rect id="Rectángulo_52523" data-name="Rectángulo 52523" width="13.565" height="1.959" transform="translate(47.19 37.769)" fill="#12263f"/>
        <rect id="Rectángulo_52524" data-name="Rectángulo 52524" width="10.431" height="1.992" transform="translate(50.305 31.457)" fill="#12263f"/>
        <rect id="Rectángulo_52525" data-name="Rectángulo 52525" width="10.431" height="1.931" transform="translate(50.298 46.174)" fill="#12263f"/>
        <rect id="Rectángulo_52526" data-name="Rectángulo 52526" width="8.285" height="1.984" transform="translate(47.173 27.249)" fill="#12263f"/>
        <rect id="Rectángulo_52527" data-name="Rectángulo 52527" width="8.293" height="1.947" transform="translate(47.178 41.946)" fill="#12263f"/>
        <rect id="Rectángulo_52528" data-name="Rectángulo 52528" width="7.262" height="2.059" transform="translate(29.379 32.469)" fill="#12263f"/>
        <path id="Trazado_212285" data-name="Trazado 212285" d="M41.076,174.49V176.6H33.763a13.854,13.854,0,0,1,.028-1.707c.019-.155.371-.382.573-.385,2.217-.027,4.435-.017,6.713-.017" transform="translate(-27.479 -142.069)" fill="#12263f"/>
        <path id="Trazado_212286" data-name="Trazado 212286" d="M95.794,176.628c0-.5.029-.954-.007-1.408-.042-.533.172-.7.692-.694,1.544.024,3.089.007,4.634.007h1.979v2.095Z" transform="translate(-77.985 -142.1)" fill="#12263f"/>
        <rect id="Rectángulo_52529" data-name="Rectángulo 52529" width="7.279" height="1.952" transform="translate(6.327 46.146)" fill="#12263f"/>
        <rect id="Rectángulo_52530" data-name="Rectángulo 52530" width="7.277" height="1.936" transform="translate(29.378 46.172)" fill="#12263f"/>
        <rect id="Rectángulo_52531" data-name="Rectángulo 52531" width="7.229" height="1.965" transform="translate(17.875 46.139)" fill="#12263f"/>
        <rect id="Rectángulo_52532" data-name="Rectángulo 52532" width="3.028" height="1.961" transform="translate(57.727 27.266)" fill="#12263f"/>
        <rect id="Rectángulo_52533" data-name="Rectángulo 52533" width="3.024" height="1.987" transform="translate(57.707 41.917)" fill="#12263f"/>
        <path id="Trazado_212287" data-name="Trazado 212287" d="M175.154,293.119h2.013v2.027h-2.013Z" transform="translate(-142.611 -238.659)" fill="#12263f"/>
        <path id="Trazado_212288" data-name="Trazado 212288" d="M163.2,23.731c.028-.3.056-.6.092-.98h2.048l.121,1h2.5v2.077c-1.275,0-2.53-.02-3.784.013a1.568,1.568,0,0,0-1.018.294,1.271,1.271,0,0,0-.287,1.058,1.314,1.314,0,0,0,.857.667c.56.139,1.173.056,1.744.165a3.1,3.1,0,0,1,2.513,2.738,3.181,3.181,0,0,1-1.749,3.122c-.8.4-.8.4-.9,1.325h-2.026l-.13-.971h-2.468V32.132c1.163,0,2.325,0,3.488,0,.307,0,.717.072.9-.091a1.824,1.824,0,0,0,.69-1.118c0-.288-.521-.689-.887-.817a9.034,9.034,0,0,0-1.467-.115,3.141,3.141,0,0,1-2.792-2.892,3.2,3.2,0,0,1,2.2-3.2c.114-.045.223-.1.364-.165" transform="translate(-130.784 -18.524)" fill="#12263f"/>
      </g>
    </g>
    <path id="Trazado_213442" data-name="Trazado 213442" d="M19.07,9.742h-4.93v4.031h5.727V15H12.641V3.625h7.148V4.852H14.141V8.516h4.93Zm7.359,3.016a1.064,1.064,0,0,0-.441-.91,4.249,4.249,0,0,0-1.539-.559,7.277,7.277,0,0,1-1.742-.562,2.479,2.479,0,0,1-.953-.781,1.869,1.869,0,0,1-.309-1.078,2.193,2.193,0,0,1,.879-1.758,3.432,3.432,0,0,1,2.246-.719,3.532,3.532,0,0,1,2.332.742,2.357,2.357,0,0,1,.895,1.9H26.344a1.3,1.3,0,0,0-.5-1.023,1.888,1.888,0,0,0-1.27-.43,1.976,1.976,0,0,0-1.234.344,1.082,1.082,0,0,0-.445.9.877.877,0,0,0,.414.789,5.1,5.1,0,0,0,1.5.508,7.8,7.8,0,0,1,1.754.578,2.558,2.558,0,0,1,1,.809,1.988,1.988,0,0,1,.324,1.152,2.163,2.163,0,0,1-.906,1.816,3.8,3.8,0,0,1-2.352.684,4.257,4.257,0,0,1-1.8-.359,2.922,2.922,0,0,1-1.223-1,2.42,2.42,0,0,1-.441-1.395H22.6a1.5,1.5,0,0,0,.582,1.152,2.258,2.258,0,0,0,1.434.426,2.331,2.331,0,0,0,1.316-.332A1.02,1.02,0,0,0,26.43,12.758ZM31.719,4.5V6.547H33.3V7.664H31.719v5.249a1.173,1.173,0,0,0,.211.763.888.888,0,0,0,.719.254,3.5,3.5,0,0,0,.688-.094V15a4.215,4.215,0,0,1-1.109.155,1.8,1.8,0,0,1-1.461-.586,2.517,2.517,0,0,1-.492-1.664V7.664H28.734V6.547h1.539V4.5Zm6.773,10.656a3.693,3.693,0,0,1-2.8-1.129,4.19,4.19,0,0,1-1.078-3.02v-.266A5.073,5.073,0,0,1,35.1,8.5a3.748,3.748,0,0,1,1.344-1.547,3.378,3.378,0,0,1,1.871-.559,3.166,3.166,0,0,1,2.563,1.086,4.7,4.7,0,0,1,.914,3.109v.6H36.063a3,3,0,0,0,.73,2.02,2.3,2.3,0,0,0,1.777.77,2.517,2.517,0,0,0,1.3-.312,3.259,3.259,0,0,0,.93-.828l.883.688A3.55,3.55,0,0,1,38.492,15.156Zm-.18-7.578a1.928,1.928,0,0,0-1.469.637A3.1,3.1,0,0,0,36.109,10h4.234V9.891a2.753,2.753,0,0,0-.594-1.707A1.815,1.815,0,0,0,38.313,7.578ZM50.93,15.156a3.693,3.693,0,0,1-2.8-1.129,4.19,4.19,0,0,1-1.078-3.02v-.266a5.073,5.073,0,0,1,.48-2.246,3.748,3.748,0,0,1,1.344-1.547,3.378,3.378,0,0,1,1.871-.559,3.166,3.166,0,0,1,2.563,1.086,4.7,4.7,0,0,1,.914,3.109v.6H48.5a3,3,0,0,0,.73,2.02,2.3,2.3,0,0,0,1.777.77,2.517,2.517,0,0,0,1.3-.312,3.259,3.259,0,0,0,.93-.828l.883.688A3.55,3.55,0,0,1,50.93,15.156Zm-.18-7.578a1.928,1.928,0,0,0-1.469.637A3.1,3.1,0,0,0,48.547,10h4.234V9.891a2.753,2.753,0,0,0-.594-1.707A1.815,1.815,0,0,0,50.75,7.578Zm10.07,5.18a1.064,1.064,0,0,0-.441-.91,4.249,4.249,0,0,0-1.539-.559,7.277,7.277,0,0,1-1.742-.562,2.479,2.479,0,0,1-.953-.781,1.869,1.869,0,0,1-.309-1.078,2.193,2.193,0,0,1,.879-1.758,3.432,3.432,0,0,1,2.246-.719,3.532,3.532,0,0,1,2.332.742,2.357,2.357,0,0,1,.895,1.9H60.734a1.3,1.3,0,0,0-.5-1.023,1.888,1.888,0,0,0-1.27-.43,1.976,1.976,0,0,0-1.234.344,1.082,1.082,0,0,0-.445.9.877.877,0,0,0,.414.789,5.1,5.1,0,0,0,1.5.508,7.8,7.8,0,0,1,1.754.578,2.558,2.558,0,0,1,1,.809,1.988,1.988,0,0,1,.324,1.152,2.163,2.163,0,0,1-.906,1.816,3.8,3.8,0,0,1-2.352.684,4.257,4.257,0,0,1-1.8-.359,2.922,2.922,0,0,1-1.223-1,2.42,2.42,0,0,1-.441-1.395h1.445a1.5,1.5,0,0,0,.582,1.152,2.258,2.258,0,0,0,1.434.426,2.331,2.331,0,0,0,1.316-.332A1.02,1.02,0,0,0,60.82,12.758Zm10.8,2.4a3.693,3.693,0,0,1-2.8-1.129,4.19,4.19,0,0,1-1.078-3.02v-.266a5.073,5.073,0,0,1,.48-2.246,3.748,3.748,0,0,1,1.344-1.547,3.378,3.378,0,0,1,1.871-.559A3.166,3.166,0,0,1,74,7.477a4.7,4.7,0,0,1,.914,3.109v.6H69.188a3,3,0,0,0,.73,2.02,2.3,2.3,0,0,0,1.777.77,2.517,2.517,0,0,0,1.3-.312,3.259,3.259,0,0,0,.93-.828l.883.688A3.55,3.55,0,0,1,71.617,15.156Zm-.18-7.578a1.928,1.928,0,0,0-1.469.637A3.1,3.1,0,0,0,69.234,10h4.234V9.891a2.753,2.753,0,0,0-.594-1.707A1.815,1.815,0,0,0,71.438,7.578ZM78.156,15H76.711V3h1.445ZM86.391,4.5V6.547h1.578V7.664H86.391v5.249a1.173,1.173,0,0,0,.211.763.888.888,0,0,0,.719.254,3.5,3.5,0,0,0,.688-.094V15a4.215,4.215,0,0,1-1.109.155,1.8,1.8,0,0,1-1.461-.586,2.517,2.517,0,0,1-.492-1.664V7.664H83.406V6.547h1.539V4.5Zm7.352,3.344a4.331,4.331,0,0,0-.711-.055A1.9,1.9,0,0,0,91.1,9v6H89.656V6.547h1.406l.023.977A2.251,2.251,0,0,1,93.1,6.391a1.477,1.477,0,0,1,.641.109ZM99.977,15a3.036,3.036,0,0,1-.2-.891,3.225,3.225,0,0,1-2.406,1.047,2.984,2.984,0,0,1-2.051-.707,2.288,2.288,0,0,1-.8-1.793,2.39,2.39,0,0,1,1-2.051,4.733,4.733,0,0,1,2.824-.73H99.75V9.211A1.623,1.623,0,0,0,99.3,8a1.821,1.821,0,0,0-1.336-.449,2.108,2.108,0,0,0-1.3.391,1.151,1.151,0,0,0-.523.945H94.688a2,2,0,0,1,.449-1.223,3.066,3.066,0,0,1,1.219-.934,4.1,4.1,0,0,1,1.691-.344,3.342,3.342,0,0,1,2.289.73,2.635,2.635,0,0,1,.859,2.012v3.891a4.757,4.757,0,0,0,.3,1.852V15Zm-2.4-1.1a2.54,2.54,0,0,0,1.289-.352,2.127,2.127,0,0,0,.883-.914V10.9H98.617q-2.656,0-2.656,1.555a1.316,1.316,0,0,0,.453,1.063A1.742,1.742,0,0,0,97.578,13.9ZM98.914,3.016h1.75l-2.094,2.3-1.164,0ZM103.945,15V7.664h-1.336V6.547h1.336V5.828a2.937,2.937,0,0,1,.809-2.2,3.136,3.136,0,0,1,2.285-.789,6.881,6.881,0,0,1,2.211.477l-.242,1.219a5.008,5.008,0,0,0-1.859-.391,1.819,1.819,0,0,0-1.34.418,1.723,1.723,0,0,0-.41,1.254v.734h1.727V7.664H105.4V15Zm6.023,0h-1.453V6.547h1.453Zm5.742-1.023a2.082,2.082,0,0,0,1.352-.469,1.649,1.649,0,0,0,.641-1.172h1.367a2.621,2.621,0,0,1-.5,1.383,3.293,3.293,0,0,1-1.23,1.047,3.55,3.55,0,0,1-1.629.391A3.482,3.482,0,0,1,112.965,14a4.59,4.59,0,0,1-1.02-3.152v-.242a5.089,5.089,0,0,1,.453-2.2,3.451,3.451,0,0,1,1.3-1.492,3.7,3.7,0,0,1,2-.531,3.39,3.39,0,0,1,2.363.852,3.043,3.043,0,0,1,1,2.211H117.7a1.992,1.992,0,0,0-.621-1.348,1.932,1.932,0,0,0-1.379-.527A2.023,2.023,0,0,0,114,8.371a3.724,3.724,0,0,0-.605,2.293v.273a3.65,3.65,0,0,0,.6,2.25A2.033,2.033,0,0,0,115.711,13.977Zm4.6-3.281a4.993,4.993,0,0,1,.488-2.234A3.643,3.643,0,0,1,122.16,6.93a3.7,3.7,0,0,1,1.988-.539,3.565,3.565,0,0,1,2.793,1.2,4.6,4.6,0,0,1,1.066,3.18v.1a5.036,5.036,0,0,1-.473,2.215,3.589,3.589,0,0,1-1.352,1.527,3.743,3.743,0,0,1-2.02.547,3.556,3.556,0,0,1-2.785-1.2,4.575,4.575,0,0,1-1.066-3.164Zm1.453.172a3.616,3.616,0,0,0,.652,2.258,2.211,2.211,0,0,0,3.5-.012,3.955,3.955,0,0,0,.648-2.418,3.61,3.61,0,0,0-.66-2.254,2.1,2.1,0,0,0-1.754-.863,2.075,2.075,0,0,0-1.727.852A3.925,3.925,0,0,0,121.766,10.867Zm11.672-.164a4.968,4.968,0,0,1,.914-3.145,3.151,3.151,0,0,1,4.836-.074l.07-.937h1.32V14.8a3.439,3.439,0,0,1-.973,2.586,3.589,3.589,0,0,1-2.613.945,4.348,4.348,0,0,1-1.789-.391,3.08,3.08,0,0,1-1.336-1.07l.75-.867a2.826,2.826,0,0,0,2.273,1.148,2.214,2.214,0,0,0,1.645-.594,2.269,2.269,0,0,0,.59-1.672v-.727a2.971,2.971,0,0,1-2.367,1,2.887,2.887,0,0,1-2.4-1.2A5.224,5.224,0,0,1,133.438,10.7Zm1.453.164a3.79,3.79,0,0,0,.586,2.246,1.9,1.9,0,0,0,1.641.816,2.117,2.117,0,0,0,2.008-1.242V8.828a2.142,2.142,0,0,0-1.992-1.211,1.921,1.921,0,0,0-1.648.82A4.128,4.128,0,0,0,134.891,10.867Zm11.375,4.289a3.693,3.693,0,0,1-2.8-1.129,4.19,4.19,0,0,1-1.078-3.02v-.266a5.073,5.073,0,0,1,.48-2.246,3.748,3.748,0,0,1,1.344-1.547,3.378,3.378,0,0,1,1.871-.559,3.166,3.166,0,0,1,2.563,1.086,4.7,4.7,0,0,1,.914,3.109v.6h-5.727a3,3,0,0,0,.73,2.02,2.3,2.3,0,0,0,1.777.77,2.517,2.517,0,0,0,1.3-.312,3.258,3.258,0,0,0,.93-.828l.883.688A3.55,3.55,0,0,1,146.266,15.156Zm-.18-7.578a1.928,1.928,0,0,0-1.469.637A3.1,3.1,0,0,0,143.883,10h4.234V9.891a2.753,2.753,0,0,0-.594-1.707A1.815,1.815,0,0,0,146.086,7.578ZM152.6,6.547l.047,1.063a3.08,3.08,0,0,1,2.531-1.219q2.68,0,2.7,3.023V15h-1.445V9.406a1.946,1.946,0,0,0-.418-1.352,1.675,1.675,0,0,0-1.277-.437,2.086,2.086,0,0,0-1.234.375,2.546,2.546,0,0,0-.828.984V15h-1.445V6.547Zm10.969,8.609a3.693,3.693,0,0,1-2.8-1.129,4.19,4.19,0,0,1-1.078-3.02v-.266a5.073,5.073,0,0,1,.48-2.246,3.748,3.748,0,0,1,1.344-1.547,3.378,3.378,0,0,1,1.871-.559,3.166,3.166,0,0,1,2.563,1.086,4.7,4.7,0,0,1,.914,3.109v.6h-5.727a3,3,0,0,0,.73,2.02,2.3,2.3,0,0,0,1.777.77,2.517,2.517,0,0,0,1.3-.312,3.258,3.258,0,0,0,.93-.828l.883.688A3.55,3.55,0,0,1,163.57,15.156Zm-.18-7.578a1.928,1.928,0,0,0-1.469.637A3.1,3.1,0,0,0,161.188,10h4.234V9.891a2.753,2.753,0,0,0-.594-1.707A1.815,1.815,0,0,0,163.391,7.578Zm9.234.266a4.331,4.331,0,0,0-.711-.055A1.9,1.9,0,0,0,169.984,9v6h-1.445V6.547h1.406l.023.977a2.251,2.251,0,0,1,2.016-1.133,1.477,1.477,0,0,1,.641.109ZM178.859,15a3.036,3.036,0,0,1-.2-.891,3.225,3.225,0,0,1-2.406,1.047,2.984,2.984,0,0,1-2.051-.707,2.287,2.287,0,0,1-.8-1.793,2.39,2.39,0,0,1,1-2.051,4.733,4.733,0,0,1,2.824-.73h1.406V9.211A1.623,1.623,0,0,0,178.18,8a1.821,1.821,0,0,0-1.336-.449,2.107,2.107,0,0,0-1.3.391,1.151,1.151,0,0,0-.523.945H173.57a2,2,0,0,1,.449-1.223,3.066,3.066,0,0,1,1.219-.934,4.1,4.1,0,0,1,1.691-.344,3.342,3.342,0,0,1,2.289.73,2.635,2.635,0,0,1,.859,2.012v3.891a4.757,4.757,0,0,0,.3,1.852V15Zm-2.4-1.1a2.54,2.54,0,0,0,1.289-.352,2.127,2.127,0,0,0,.883-.914V10.9H177.5q-2.656,0-2.656,1.555a1.316,1.316,0,0,0,.453,1.063A1.742,1.742,0,0,0,176.461,13.9Zm5.531-3.2a4.952,4.952,0,0,1,.922-3.129,3.137,3.137,0,0,1,4.766-.168V3h1.445V15H187.8l-.07-.906a2.943,2.943,0,0,1-2.414,1.063,2.887,2.887,0,0,1-2.395-1.2,5.008,5.008,0,0,1-.926-3.141Zm1.445.164a3.749,3.749,0,0,0,.594,2.25,1.919,1.919,0,0,0,1.641.813A2.108,2.108,0,0,0,187.68,12.7V8.813a2.125,2.125,0,0,0-1.992-1.2,1.929,1.929,0,0,0-1.656.82A4.128,4.128,0,0,0,183.438,10.867Zm7.547-.172a4.993,4.993,0,0,1,.488-2.234,3.642,3.642,0,0,1,1.359-1.531,3.7,3.7,0,0,1,1.988-.539,3.565,3.565,0,0,1,2.793,1.2,4.6,4.6,0,0,1,1.066,3.18v.1a5.036,5.036,0,0,1-.473,2.215,3.589,3.589,0,0,1-1.352,1.527,3.743,3.743,0,0,1-2.02.547,3.556,3.556,0,0,1-2.785-1.2,4.575,4.575,0,0,1-1.066-3.164Zm1.453.172a3.616,3.616,0,0,0,.652,2.258,2.211,2.211,0,0,0,3.5-.012,3.954,3.954,0,0,0,.648-2.418,3.61,3.61,0,0,0-.66-2.254,2.1,2.1,0,0,0-1.754-.863,2.075,2.075,0,0,0-1.727.852A3.925,3.925,0,0,0,192.438,10.867Zm-167.922,24a5.062,5.062,0,0,1-.883,3.109,2.829,2.829,0,0,1-2.391,1.18,3.1,3.1,0,0,1-2.422-.977v4.07H17.375v-11.7H18.7l.07.938a2.977,2.977,0,0,1,2.453-1.094,2.882,2.882,0,0,1,2.41,1.148,5.117,5.117,0,0,1,.887,3.2ZM23.07,34.7a3.735,3.735,0,0,0-.609-2.258,1.963,1.963,0,0,0-1.672-.828,2.125,2.125,0,0,0-1.969,1.164V36.82A2.129,2.129,0,0,0,20.8,37.977a1.954,1.954,0,0,0,1.652-.824A4.077,4.077,0,0,0,23.07,34.7Zm2.9-.008a4.993,4.993,0,0,1,.488-2.234,3.643,3.643,0,0,1,1.359-1.531,3.7,3.7,0,0,1,1.988-.539,3.565,3.565,0,0,1,2.793,1.2,4.6,4.6,0,0,1,1.066,3.18v.1a5.036,5.036,0,0,1-.473,2.215,3.589,3.589,0,0,1-1.352,1.527,3.743,3.743,0,0,1-2.02.547,3.556,3.556,0,0,1-2.785-1.2A4.575,4.575,0,0,1,25.969,34.8Zm1.453.172a3.616,3.616,0,0,0,.652,2.258,2.211,2.211,0,0,0,3.5-.012,3.955,3.955,0,0,0,.648-2.418,3.61,3.61,0,0,0-.66-2.254,2.1,2.1,0,0,0-1.754-.863,2.075,2.075,0,0,0-1.727.852A3.925,3.925,0,0,0,27.422,34.867Zm12.141-3.023a4.331,4.331,0,0,0-.711-.055A1.9,1.9,0,0,0,36.922,33v6H35.477V30.547h1.406l.023.977a2.251,2.251,0,0,1,2.016-1.133,1.477,1.477,0,0,1,.641.109ZM46.422,39H44.977V27h1.445Zm7.531,0a3.036,3.036,0,0,1-.2-.891,3.225,3.225,0,0,1-2.406,1.047,2.984,2.984,0,0,1-2.051-.707,2.287,2.287,0,0,1-.8-1.793,2.39,2.39,0,0,1,1-2.051,4.733,4.733,0,0,1,2.824-.73h1.406v-.664A1.623,1.623,0,0,0,53.273,32a1.821,1.821,0,0,0-1.336-.449,2.107,2.107,0,0,0-1.3.391,1.151,1.151,0,0,0-.523.945H48.664a2,2,0,0,1,.449-1.223,3.066,3.066,0,0,1,1.219-.934,4.1,4.1,0,0,1,1.691-.344,3.342,3.342,0,0,1,2.289.73,2.635,2.635,0,0,1,.859,2.012v3.891a4.757,4.757,0,0,0,.3,1.852V39Zm-2.4-1.1a2.54,2.54,0,0,0,1.289-.352,2.127,2.127,0,0,0,.883-.914V34.9H52.594q-2.656,0-2.656,1.555a1.316,1.316,0,0,0,.453,1.063A1.742,1.742,0,0,0,51.555,37.9Zm16.984-3.031a5.062,5.062,0,0,1-.883,3.109,2.829,2.829,0,0,1-2.391,1.18,3.1,3.1,0,0,1-2.422-.977v4.07H61.4v-11.7h1.32l.07.938a2.977,2.977,0,0,1,2.453-1.094,2.882,2.882,0,0,1,2.41,1.148,5.117,5.117,0,0,1,.887,3.2ZM67.094,34.7a3.735,3.735,0,0,0-.609-2.258,1.963,1.963,0,0,0-1.672-.828,2.125,2.125,0,0,0-1.969,1.164V36.82a2.129,2.129,0,0,0,1.984,1.156,1.954,1.954,0,0,0,1.652-.824A4.077,4.077,0,0,0,67.094,34.7Zm8.5,3.461a3.07,3.07,0,0,1-2.477.992,2.628,2.628,0,0,1-2.059-.785,3.4,3.4,0,0,1-.715-2.324v-5.5h1.445v5.461q0,1.922,1.563,1.922a2.163,2.163,0,0,0,2.2-1.234V30.547H77V39H75.625Zm10.758-3.3a5.026,5.026,0,0,1-.891,3.113,2.846,2.846,0,0,1-2.391,1.176,2.947,2.947,0,0,1-2.477-1.133l-.07.977H79.2V27h1.445v4.477a2.93,2.93,0,0,1,2.414-1.086,2.863,2.863,0,0,1,2.418,1.164,5.177,5.177,0,0,1,.879,3.188ZM84.906,34.7a3.906,3.906,0,0,0-.57-2.281,1.888,1.888,0,0,0-1.641-.8,2.122,2.122,0,0,0-2.055,1.328V36.6a2.181,2.181,0,0,0,2.07,1.328,1.878,1.878,0,0,0,1.617-.8A4.153,4.153,0,0,0,84.906,34.7ZM89.742,39H88.3V27h1.445Zm3.883,0H92.18V30.547h1.445ZM92.063,28.3a.863.863,0,0,1,.215-.594.807.807,0,0,1,.637-.242.819.819,0,0,1,.641.242.854.854,0,0,1,.219.594.826.826,0,0,1-.219.586.834.834,0,0,1-.641.234.821.821,0,0,1-.637-.234A.834.834,0,0,1,92.063,28.3Zm7.266,9.672a2.082,2.082,0,0,0,1.352-.469,1.649,1.649,0,0,0,.641-1.172h1.367a2.621,2.621,0,0,1-.5,1.383,3.293,3.293,0,0,1-1.23,1.047,3.55,3.55,0,0,1-1.629.391A3.482,3.482,0,0,1,96.582,38a4.59,4.59,0,0,1-1.02-3.152v-.242a5.089,5.089,0,0,1,.453-2.2,3.451,3.451,0,0,1,1.3-1.492,3.7,3.7,0,0,1,2-.531,3.39,3.39,0,0,1,2.363.852,3.043,3.043,0,0,1,1,2.211H101.32a1.992,1.992,0,0,0-.621-1.348,1.932,1.932,0,0,0-1.379-.527,2.023,2.023,0,0,0-1.707.793,3.724,3.724,0,0,0-.605,2.293v.273a3.65,3.65,0,0,0,.6,2.25A2.033,2.033,0,0,0,99.328,37.977ZM105.883,39h-1.445V30.547h1.445ZM104.32,28.3a.863.863,0,0,1,.215-.594.807.807,0,0,1,.637-.242.819.819,0,0,1,.641.242.854.854,0,0,1,.219.594.826.826,0,0,1-.219.586.834.834,0,0,1-.641.234.821.821,0,0,1-.637-.234A.834.834,0,0,1,104.32,28.3Zm3.523,6.4a4.952,4.952,0,0,1,.922-3.129,3.137,3.137,0,0,1,4.766-.168V27h1.445V39h-1.328l-.07-.906a2.943,2.943,0,0,1-2.414,1.063,2.887,2.887,0,0,1-2.395-1.2,5.008,5.008,0,0,1-.926-3.141Zm1.445.164a3.749,3.749,0,0,0,.594,2.25,1.92,1.92,0,0,0,1.641.813,2.108,2.108,0,0,0,2.008-1.234V32.813a2.125,2.125,0,0,0-1.992-1.2,1.929,1.929,0,0,0-1.656.82A4.128,4.128,0,0,0,109.289,34.867ZM122.438,39a3.036,3.036,0,0,1-.2-.891,3.225,3.225,0,0,1-2.406,1.047,2.984,2.984,0,0,1-2.051-.707,2.288,2.288,0,0,1-.8-1.793,2.39,2.39,0,0,1,1-2.051,4.733,4.733,0,0,1,2.824-.73h1.406v-.664A1.623,1.623,0,0,0,121.758,32a1.821,1.821,0,0,0-1.336-.449,2.108,2.108,0,0,0-1.3.391,1.151,1.151,0,0,0-.523.945h-1.453a2,2,0,0,1,.449-1.223,3.066,3.066,0,0,1,1.219-.934,4.1,4.1,0,0,1,1.691-.344,3.342,3.342,0,0,1,2.289.73,2.635,2.635,0,0,1,.859,2.012v3.891a4.757,4.757,0,0,0,.3,1.852V39Zm-2.4-1.1a2.54,2.54,0,0,0,1.289-.352,2.127,2.127,0,0,0,.883-.914V34.9h-1.133q-2.656,0-2.656,1.555a1.316,1.316,0,0,0,.453,1.063A1.742,1.742,0,0,0,120.039,37.9Zm5.531-3.2a4.952,4.952,0,0,1,.922-3.129,3.137,3.137,0,0,1,4.766-.168V27H132.7V39h-1.328l-.07-.906a2.943,2.943,0,0,1-2.414,1.063,2.887,2.887,0,0,1-2.395-1.2,5.008,5.008,0,0,1-.926-3.141Zm1.445.164a3.749,3.749,0,0,0,.594,2.25,1.919,1.919,0,0,0,1.641.813,2.108,2.108,0,0,0,2.008-1.234V32.813a2.125,2.125,0,0,0-1.992-1.2,1.929,1.929,0,0,0-1.656.82A4.128,4.128,0,0,0,127.016,34.867Zm19.031,0a5.062,5.062,0,0,1-.883,3.109,2.829,2.829,0,0,1-2.391,1.18,3.1,3.1,0,0,1-2.422-.977v4.07h-1.445v-11.7h1.32l.07.938a2.977,2.977,0,0,1,2.453-1.094,2.882,2.882,0,0,1,2.41,1.148,5.117,5.117,0,0,1,.887,3.2ZM144.6,34.7a3.735,3.735,0,0,0-.609-2.258,1.963,1.963,0,0,0-1.672-.828,2.125,2.125,0,0,0-1.969,1.164V36.82a2.129,2.129,0,0,0,1.984,1.156,1.954,1.954,0,0,0,1.652-.824A4.077,4.077,0,0,0,144.6,34.7Zm8.5,4.3a3.036,3.036,0,0,1-.2-.891,3.225,3.225,0,0,1-2.406,1.047,2.984,2.984,0,0,1-2.051-.707,2.287,2.287,0,0,1-.8-1.793,2.39,2.39,0,0,1,1-2.051,4.733,4.733,0,0,1,2.824-.73h1.406v-.664A1.623,1.623,0,0,0,152.422,32a1.821,1.821,0,0,0-1.336-.449,2.107,2.107,0,0,0-1.3.391,1.151,1.151,0,0,0-.523.945h-1.453a2,2,0,0,1,.449-1.223,3.066,3.066,0,0,1,1.219-.934,4.1,4.1,0,0,1,1.691-.344,3.342,3.342,0,0,1,2.289.73,2.635,2.635,0,0,1,.859,2.012v3.891a4.757,4.757,0,0,0,.3,1.852V39Zm-2.4-1.1a2.54,2.54,0,0,0,1.289-.352,2.127,2.127,0,0,0,.883-.914V34.9h-1.133q-2.656,0-2.656,1.555a1.316,1.316,0,0,0,.453,1.063A1.742,1.742,0,0,0,150.7,37.9Zm5.539-3.2a4.968,4.968,0,0,1,.914-3.145,3.151,3.151,0,0,1,4.836-.074l.07-.937h1.32V38.8a3.439,3.439,0,0,1-.973,2.586,3.589,3.589,0,0,1-2.613.945,4.348,4.348,0,0,1-1.789-.391,3.08,3.08,0,0,1-1.336-1.07l.75-.867a2.826,2.826,0,0,0,2.273,1.148,2.214,2.214,0,0,0,1.645-.594,2.269,2.269,0,0,0,.59-1.672v-.727a2.971,2.971,0,0,1-2.367,1,2.887,2.887,0,0,1-2.4-1.2A5.224,5.224,0,0,1,156.242,34.7Zm1.453.164a3.79,3.79,0,0,0,.586,2.246,1.9,1.9,0,0,0,1.641.816,2.117,2.117,0,0,0,2.008-1.242V32.828a2.142,2.142,0,0,0-1.992-1.211,1.921,1.921,0,0,0-1.648.82A4.128,4.128,0,0,0,157.7,34.867ZM170.781,39a3.036,3.036,0,0,1-.2-.891,3.225,3.225,0,0,1-2.406,1.047,2.984,2.984,0,0,1-2.051-.707,2.287,2.287,0,0,1-.8-1.793,2.39,2.39,0,0,1,1-2.051,4.733,4.733,0,0,1,2.824-.73h1.406v-.664A1.623,1.623,0,0,0,170.1,32a1.821,1.821,0,0,0-1.336-.449,2.107,2.107,0,0,0-1.3.391,1.151,1.151,0,0,0-.523.945h-1.453a2,2,0,0,1,.449-1.223,3.066,3.066,0,0,1,1.219-.934,4.1,4.1,0,0,1,1.691-.344,3.342,3.342,0,0,1,2.289.73A2.635,2.635,0,0,1,172,33.133v3.891a4.757,4.757,0,0,0,.3,1.852V39Zm-2.4-1.1a2.54,2.54,0,0,0,1.289-.352,2.127,2.127,0,0,0,.883-.914V34.9h-1.133q-2.656,0-2.656,1.555a1.316,1.316,0,0,0,.453,1.063A1.742,1.742,0,0,0,168.383,37.9Zm13.352,1.258a3.693,3.693,0,0,1-2.8-1.129,4.19,4.19,0,0,1-1.078-3.02v-.266a5.073,5.073,0,0,1,.48-2.246,3.748,3.748,0,0,1,1.344-1.547,3.378,3.378,0,0,1,1.871-.559,3.166,3.166,0,0,1,2.563,1.086,4.7,4.7,0,0,1,.914,3.109v.6H179.3a3,3,0,0,0,.73,2.02,2.3,2.3,0,0,0,1.777.77,2.517,2.517,0,0,0,1.3-.312,3.258,3.258,0,0,0,.93-.828l.883.688A3.55,3.55,0,0,1,181.734,39.156Zm-.18-7.578a1.928,1.928,0,0,0-1.469.637A3.1,3.1,0,0,0,179.352,34h4.234v-.109a2.753,2.753,0,0,0-.594-1.707A1.815,1.815,0,0,0,181.555,31.578Zm6.516-1.031.047,1.063a3.08,3.08,0,0,1,2.531-1.219q2.68,0,2.7,3.023V39h-1.445V33.406a1.946,1.946,0,0,0-.418-1.352,1.675,1.675,0,0,0-1.277-.437,2.086,2.086,0,0,0-1.234.375,2.546,2.546,0,0,0-.828.984V39H186.7V30.547ZM78.77,63h-1.5V51.625h1.5Zm3.883-8.453.047,1.063a3.08,3.08,0,0,1,2.531-1.219q2.68,0,2.7,3.023V63H86.488V57.406a1.946,1.946,0,0,0-.418-1.352,1.675,1.675,0,0,0-1.277-.437,2.086,2.086,0,0,0-1.234.375,2.546,2.546,0,0,0-.828.984V63H81.285V54.547ZM92.074,52.5v2.047h1.578v1.117H92.074v5.249a1.173,1.173,0,0,0,.211.763A.888.888,0,0,0,93,61.93a3.5,3.5,0,0,0,.688-.094V63a4.215,4.215,0,0,1-1.109.155,1.8,1.8,0,0,1-1.461-.586,2.517,2.517,0,0,1-.492-1.664V55.664H89.09V54.547h1.539V52.5Zm6.773,10.656a3.693,3.693,0,0,1-2.8-1.129,4.19,4.19,0,0,1-1.078-3.02v-.266a5.073,5.073,0,0,1,.48-2.246A3.748,3.748,0,0,1,96.8,54.949a3.378,3.378,0,0,1,1.871-.559,3.166,3.166,0,0,1,2.563,1.086,4.7,4.7,0,0,1,.914,3.109v.6H96.418a3,3,0,0,0,.73,2.02,2.3,2.3,0,0,0,1.777.77,2.517,2.517,0,0,0,1.3-.312,3.259,3.259,0,0,0,.93-.828l.883.688A3.55,3.55,0,0,1,98.848,63.156Zm-.18-7.578a1.928,1.928,0,0,0-1.469.637A3.1,3.1,0,0,0,96.465,58H100.7v-.109a2.753,2.753,0,0,0-.594-1.707A1.815,1.815,0,0,0,98.668,55.578Zm9.234.266a4.331,4.331,0,0,0-.711-.055A1.9,1.9,0,0,0,105.262,57v6h-1.445V54.547h1.406l.023.977a2.251,2.251,0,0,1,2.016-1.133,1.477,1.477,0,0,1,.641.109Zm2.7-1.3.047,1.063a3.08,3.08,0,0,1,2.531-1.219q2.68,0,2.7,3.023V63h-1.445V57.406a1.946,1.946,0,0,0-.418-1.352,1.675,1.675,0,0,0-1.277-.437,2.086,2.086,0,0,0-1.234.375,2.546,2.546,0,0,0-.828.984V63H109.23V54.547Zm10.969,8.609a3.693,3.693,0,0,1-2.8-1.129,4.19,4.19,0,0,1-1.078-3.02v-.266a5.073,5.073,0,0,1,.48-2.246,3.748,3.748,0,0,1,1.344-1.547,3.378,3.378,0,0,1,1.871-.559,3.166,3.166,0,0,1,2.563,1.086,4.7,4.7,0,0,1,.914,3.109v.6h-5.727a3,3,0,0,0,.73,2.02,2.3,2.3,0,0,0,1.777.77,2.517,2.517,0,0,0,1.3-.312,3.259,3.259,0,0,0,.93-.828l.883.688A3.55,3.55,0,0,1,121.566,63.156Zm-.18-7.578a1.928,1.928,0,0,0-1.469.637A3.1,3.1,0,0,0,119.184,58h4.234v-.109a2.753,2.753,0,0,0-.594-1.707A1.815,1.815,0,0,0,121.387,55.578ZM128.5,52.5v2.047h1.578v1.117H128.5v5.249a1.173,1.173,0,0,0,.211.763.888.888,0,0,0,.719.254,3.5,3.5,0,0,0,.688-.094V63a4.215,4.215,0,0,1-1.109.155,1.8,1.8,0,0,1-1.461-.586,2.517,2.517,0,0,1-.492-1.664V55.664h-1.539V54.547h1.539V52.5Zm3.3,9.742a.905.905,0,0,1,.223-.625.848.848,0,0,1,.668-.25.874.874,0,0,1,.676.25.887.887,0,0,1,.23.625.839.839,0,0,1-.23.6.89.89,0,0,1-.676.242.8.8,0,0,1-.891-.844Z" transform="translate(-1294 -2101.572)" fill="#12263f"/>
    <path id="Trazado_213444" data-name="Trazado 213444" d="M53.6,6.585H49.759V17H46.674V6.585H42.9V4.2H53.6Zm6.346,3.586-.976-.07a1.752,1.752,0,0,0-1.793.879V17H54.215V7.49h2.777l.1,1.222a2.294,2.294,0,0,1,2.083-1.4A2.888,2.888,0,0,1,60,7.42ZM66.106,17a3.344,3.344,0,0,1-.281-.853,2.754,2.754,0,0,1-2.285,1.028,3.374,3.374,0,0,1-2.285-.813,2.588,2.588,0,0,1-.94-2.043,2.66,2.66,0,0,1,1.143-2.338,5.821,5.821,0,0,1,3.322-.791h.914v-.5q0-1.316-1.134-1.316A.927.927,0,0,0,63.5,10.413H60.543a2.655,2.655,0,0,1,1.173-2.239,4.931,4.931,0,0,1,2.993-.86,4.323,4.323,0,0,1,2.874.888,3.086,3.086,0,0,1,1.081,2.435v4.21a4.311,4.311,0,0,0,.4,2V17Zm-1.854-1.934a1.652,1.652,0,0,0,.918-.237,1.487,1.487,0,0,0,.523-.536V12.772h-.861q-1.547,0-1.547,1.389a.848.848,0,0,0,.272.655A.986.986,0,0,0,64.252,15.066ZM64.99,3.5h3.129L65.676,6.26l-2.417,0Zm6,13.5V9.547h-1.38V7.49h1.38V7.174a3.631,3.631,0,0,1,1.248-2.909,4.987,4.987,0,0,1,3.243-.949,11.509,11.509,0,0,1,3.094.51l-.4,2.338-.492-.132a7.832,7.832,0,0,0-2.021-.255q-1.7,0-1.7,1.547V7.49h1.863V9.547H73.964V17Zm8.947,0H76.961V7.49H79.94Zm5.827-2.109a1.317,1.317,0,0,0,.967-.338,1.241,1.241,0,0,0,.334-.945h2.777a3.288,3.288,0,0,1-1.121,2.566,4.168,4.168,0,0,1-2.887,1,4.22,4.22,0,0,1-3.27-1.3,5.125,5.125,0,0,1-1.2-3.6v-.123A5.792,5.792,0,0,1,81.9,9.6a3.872,3.872,0,0,1,1.534-1.7,4.573,4.573,0,0,1,2.373-.593,4.116,4.116,0,0,1,2.944,1.028,3.647,3.647,0,0,1,1.09,2.786H87.068A1.626,1.626,0,0,0,86.708,10a1.244,1.244,0,0,0-.967-.4q-1.151,0-1.345,1.468a10.357,10.357,0,0,0-.062,1.283,4.068,4.068,0,0,0,.343,1.986A1.187,1.187,0,0,0,85.768,14.891Zm4.957-2.733a5.613,5.613,0,0,1,.554-2.536,3.96,3.96,0,0,1,1.591-1.709,4.791,4.791,0,0,1,2.435-.6A4.373,4.373,0,0,1,98.67,8.637a5.076,5.076,0,0,1,1.23,3.6v.105a4.925,4.925,0,0,1-1.235,3.529,4.384,4.384,0,0,1-3.344,1.305,4.434,4.434,0,0,1-3.261-1.217,4.761,4.761,0,0,1-1.327-3.3Zm2.962.185a3.538,3.538,0,0,0,.413,1.934,1.376,1.376,0,0,0,1.222.615q1.582,0,1.617-2.435v-.3Q96.938,9.6,95.3,9.6q-1.485,0-1.608,2.206Zm11.628-.167a5.809,5.809,0,0,1,.976-3.56,3.211,3.211,0,0,1,2.725-1.3,2.731,2.731,0,0,1,2.145,1V3.5h2.971V17h-2.663l-.149-1.02a2.8,2.8,0,0,1-2.32,1.2,3.205,3.205,0,0,1-2.689-1.3A5.993,5.993,0,0,1,105.314,12.175Zm2.962.185q0,2.531,1.477,2.531a1.458,1.458,0,0,0,1.406-.826V10.443a1.419,1.419,0,0,0-1.389-.844q-1.371,0-1.485,2.215Zm12.138,4.816a4.889,4.889,0,0,1-3.542-1.305,4.507,4.507,0,0,1-1.354-3.4v-.246a5.84,5.84,0,0,1,.541-2.575,3.955,3.955,0,0,1,1.578-1.727,4.763,4.763,0,0,1,2.461-.611,4.117,4.117,0,0,1,3.164,1.244,4.887,4.887,0,0,1,1.16,3.467v1.151h-5.889a2.135,2.135,0,0,0,.694,1.257,2.066,2.066,0,0,0,1.389.457,2.662,2.662,0,0,0,2.2-.984l1.354,1.6a3.784,3.784,0,0,1-1.569,1.217A5.3,5.3,0,0,1,120.414,17.176ZM120.08,9.6q-1.3,0-1.547,1.723h2.988v-.229a1.467,1.467,0,0,0-.36-1.1A1.434,1.434,0,0,0,120.08,9.6Zm18.844,2.716a5.735,5.735,0,0,1-1,3.538,3.2,3.2,0,0,1-2.694,1.323,2.742,2.742,0,0,1-2.153-.958v4.438h-2.962V7.49h2.769l.088.879a2.742,2.742,0,0,1,2.241-1.055,3.224,3.224,0,0,1,2.733,1.3,5.805,5.805,0,0,1,.976,3.564Zm-2.962-.185q0-2.531-1.477-2.531a1.394,1.394,0,0,0-1.406.756V14.1a1.439,1.439,0,0,0,1.424.791q1.415,0,1.459-2.443ZM145.586,17a3.344,3.344,0,0,1-.281-.853,2.754,2.754,0,0,1-2.285,1.028,3.374,3.374,0,0,1-2.285-.813,2.588,2.588,0,0,1-.94-2.043,2.66,2.66,0,0,1,1.143-2.338,5.821,5.821,0,0,1,3.322-.791h.914v-.5q0-1.316-1.134-1.316a.927.927,0,0,0-1.055,1.042h-2.962A2.655,2.655,0,0,1,141.2,8.175a4.931,4.931,0,0,1,2.993-.86,4.323,4.323,0,0,1,2.874.888,3.086,3.086,0,0,1,1.081,2.435v4.21a4.311,4.311,0,0,0,.4,2V17Zm-1.854-1.934a1.652,1.652,0,0,0,.918-.237,1.487,1.487,0,0,0,.523-.536V12.772h-.861q-1.547,0-1.547,1.389a.848.848,0,0,0,.272.655A.986.986,0,0,0,143.731,15.066Zm5.7-2.892a6.421,6.421,0,0,1,.475-2.549,3.821,3.821,0,0,1,1.362-1.709,3.591,3.591,0,0,1,2.065-.6,2.855,2.855,0,0,1,2.32,1l.105-.826h2.689V16.64a4.009,4.009,0,0,1-.584,2.184,3.75,3.75,0,0,1-1.692,1.424,6.219,6.219,0,0,1-2.566.5,5.365,5.365,0,0,1-2.026-.4,3.657,3.657,0,0,1-1.5-1.028l1.239-1.74a2.716,2.716,0,0,0,2.18.976,1.764,1.764,0,0,0,1.969-2.021v-.3a2.781,2.781,0,0,1-2.153.94,3.437,3.437,0,0,1-2.812-1.332,5.517,5.517,0,0,1-1.072-3.564Zm2.971.185a3.383,3.383,0,0,0,.439,1.85,1.387,1.387,0,0,0,1.23.681,1.573,1.573,0,0,0,1.4-.642v-4a1.534,1.534,0,0,0-1.38-.65,1.4,1.4,0,0,0-1.239.708A3.858,3.858,0,0,0,152.406,12.359Zm7.356-.2a5.613,5.613,0,0,1,.554-2.536,3.96,3.96,0,0,1,1.591-1.709,4.791,4.791,0,0,1,2.435-.6,4.373,4.373,0,0,1,3.366,1.323,5.076,5.076,0,0,1,1.23,3.6v.105a4.925,4.925,0,0,1-1.235,3.529,4.384,4.384,0,0,1-3.344,1.305,4.434,4.434,0,0,1-3.261-1.217,4.761,4.761,0,0,1-1.327-3.3Zm2.962.185a3.538,3.538,0,0,0,.413,1.934,1.376,1.376,0,0,0,1.222.615q1.582,0,1.617-2.435v-.3q0-2.558-1.635-2.558-1.485,0-1.608,2.206Z" transform="translate(-1294 -2135.406)" fill="#12263f"/>
    <path id="Trazado_213446" data-name="Trazado 213446" d="M31.084-17.343q0,8.7-3.6,13.31T16.939.576q-6.856,0-10.486-4.523T2.737-16.911v-7.721q0-8.787,3.644-13.338t10.5-4.552q6.856,0,10.486,4.509t3.716,12.949Zm-8.326-8.489q0-5.22-1.426-7.6a4.819,4.819,0,0,0-4.451-2.379,4.734,4.734,0,0,0-4.336,2.264q-1.4,2.264-1.484,7.079v10.208q0,5.133,1.4,7.627a4.755,4.755,0,0,0,4.48,2.494A4.676,4.676,0,0,0,21.347-8.53q1.354-2.393,1.412-7.325ZM56.926,0H48.6V-32.137l-9.939,3.069V-35.78L56.033-42h.893Z" transform="translate(-1055.262 -2106.406)" fill="#12263f" opacity="0.273"/>
  </g>
</svg>
