<svg xmlns="http://www.w3.org/2000/svg" xmlns:xlink="http://www.w3.org/1999/xlink" width="360.524" height="291.597" viewBox="0 0 360.524 291.597">
  <defs>
    <filter id="Rectángulo_46669" x="19.122" y="20.189" width="255.091" height="271.408" filterUnits="userSpaceOnUse">
      <feOffset dy="3" input="SourceAlpha"/>
      <feGaussianBlur stdDeviation="3" result="blur"/>
      <feFlood flood-opacity="0.161"/>
      <feComposite operator="in" in2="blur"/>
      <feComposite in="SourceGraphic"/>
    </filter>
    <clipPath id="clip-path">
      <rect id="Rectángulo_52549" data-name="Rectángulo 52549" width="68.827" height="63.431" fill="#12263f"/>
    </clipPath>
  </defs>
  <g id="Grupo_172863" data-name="Grupo 172863" transform="translate(767.405 1927.383)">
    <g id="Grupo_166659" data-name="Grupo 166659" transform="translate(-767.405 -1926.208)">
      <path id="Trazado_210944" data-name="Trazado 210944" d="M170.8,4114.393h-1.927c-1.384,0-2.506-.83-2.506-1.854s1.122-1.854,2.506-1.854H170.8c1.384,0,2.506.83,2.506,1.854S172.179,4114.393,170.8,4114.393Zm-21.2,0h-1.927c-1.384,0-2.506-.83-2.506-1.854s1.122-1.854,2.506-1.854h1.927c1.384,0,2.506.83,2.506,1.854S150.978,4114.393,149.595,4114.393Zm-21.2,0h-1.927c-1.384,0-2.506-.83-2.506-1.854s1.122-1.854,2.506-1.854h1.927c1.384,0,2.506.83,2.506,1.854S129.778,4114.393,128.394,4114.393Zm-21.2,0h-1.927c-1.384,0-2.506-.83-2.506-1.854s1.122-1.854,2.506-1.854h1.927c1.384,0,2.506.83,2.506,1.854S108.577,4114.393,107.194,4114.393Zm-21.2,0H84.066c-1.384,0-2.506-.83-2.506-1.854s1.122-1.854,2.506-1.854h1.927c1.384,0,2.506.83,2.506,1.854S87.377,4114.393,85.993,4114.393Zm-21.2,0H62.865c-1.384,0-2.506-.83-2.506-1.854s1.122-1.854,2.506-1.854h1.927c1.384,0,2.506.83,2.506,1.854S66.176,4114.393,64.792,4114.393Zm-21.2,0H41.665c-1.384,0-2.506-.83-2.506-1.854s1.122-1.854,2.506-1.854h1.927c1.384,0,2.506.83,2.506,1.854S44.976,4114.393,43.592,4114.393Zm-21.2,0H20.464c-1.384,0-2.506-.83-2.506-1.854s1.122-1.854,2.506-1.854h1.927c1.384,0,2.506.83,2.506,1.854S23.775,4114.393,22.391,4114.393Zm-21.2,0H-.736c-1.384,0-2.506-.83-2.506-1.854s1.122-1.854,2.506-1.854H1.191c1.384,0,2.506.83,2.506,1.854S2.575,4114.393,1.191,4114.393Zm-21.2,0h-1.927c-1.384,0-2.506-.83-2.506-1.854s1.122-1.854,2.506-1.854h1.927c1.384,0,2.506.83,2.506,1.854S-18.626,4114.393-20.01,4114.393Zm-21.2-.046c-.058,0-.116,0-.175,0-.7-.036-1.406-.09-2.1-.164-1.37-.145-2.321-1.084-2.125-2.1a2.493,2.493,0,0,1,2.835-1.573c.571.061,1.154.106,1.733.136,1.381.07,2.423.956,2.328,1.977A2.317,2.317,0,0,1-41.205,4114.347Zm219.1-.674a2.518,2.518,0,0,1-2.41-1.352c-.375-.985.4-2.009,1.732-2.287.559-.116,1.117-.25,1.658-.4a2.816,2.816,0,0,1,3.21,1.11c.473.962-.2,2.025-1.5,2.375-.656.176-1.332.337-2.009.479A3.34,3.34,0,0,1,177.894,4113.672Zm-237.439-6.3a2.925,2.925,0,0,1-1.931-.671c-.448-.4-.88-.816-1.285-1.238a1.572,1.572,0,0,1,.589-2.585,3.109,3.109,0,0,1,3.494.436c.335.349.692.692,1.062,1.022a1.548,1.548,0,0,1-.332,2.61A3.075,3.075,0,0,1-59.545,4107.374Zm253.474-3.294a3.217,3.217,0,0,1-1.17-.216c-1.223-.479-1.69-1.6-1.042-2.505.271-.379.525-.769.757-1.161a2.9,2.9,0,0,1,3.3-.954c1.268.41,1.845,1.5,1.29,2.441-.281.475-.59.949-.919,1.408A2.729,2.729,0,0,1,193.929,4104.08Zm-259.475-11.346c-1.384,0-2.506-.83-2.506-1.854v-1.426c0-1.024,1.122-1.854,2.506-1.854s2.506.83,2.506,1.854v1.426C-63.041,4091.9-64.163,4092.734-65.546,4092.734Zm262.5-3.972c-1.384,0-2.506-.83-2.506-1.854v-1.426c0-1.024,1.122-1.854,2.506-1.854s2.506.83,2.506,1.854v1.426C199.46,4087.931,198.339,4088.761,196.955,4088.761Zm-262.5-11.713c-1.384,0-2.506-.83-2.506-1.854v-1.426c0-1.024,1.122-1.854,2.506-1.854s2.506.83,2.506,1.854v1.426C-63.041,4076.219-64.163,4077.049-65.546,4077.049Zm262.5-3.972c-1.384,0-2.506-.83-2.506-1.854V4069.8c0-1.024,1.122-1.854,2.506-1.854s2.506.83,2.506,1.854v1.426C199.46,4072.247,198.339,4073.076,196.955,4073.076Zm-262.5-11.713c-1.384,0-2.506-.829-2.506-1.854v-1.426c0-1.024,1.122-1.854,2.506-1.854s2.506.83,2.506,1.854v1.426C-63.041,4060.534-64.163,4061.364-65.546,4061.364Zm262.5-3.972c-1.384,0-2.506-.83-2.506-1.854v-1.426c0-1.024,1.122-1.854,2.506-1.854s2.506.83,2.506,1.854v1.426C199.46,4056.562,198.339,4057.391,196.955,4057.391Zm-262.5-11.712c-1.384,0-2.506-.83-2.506-1.854V4042.4c0-1.024,1.122-1.854,2.506-1.854s2.506.83,2.506,1.854v1.425C-63.041,4044.849-64.163,4045.679-65.546,4045.679Zm262.5-3.972c-1.384,0-2.506-.83-2.506-1.854v-1.426c0-1.024,1.122-1.854,2.506-1.854s2.506.83,2.506,1.854v1.426C199.46,4040.876,198.339,4041.707,196.955,4041.707Zm-262.5-11.713c-1.384,0-2.506-.83-2.506-1.854v-1.426c0-1.024,1.122-1.854,2.506-1.854s2.506.83,2.506,1.854v1.426C-63.041,4029.164-64.163,4029.994-65.546,4029.994Zm262.5-3.972c-1.384,0-2.506-.83-2.506-1.854v-1.426c0-1.024,1.122-1.854,2.506-1.854s2.506.83,2.506,1.854v1.426C199.46,4025.191,198.339,4026.021,196.955,4026.021Zm-262.5-11.713c-1.384,0-2.506-.83-2.506-1.854v-1.426c0-1.024,1.122-1.854,2.506-1.854s2.506.83,2.506,1.854v1.426C-63.041,4013.479-64.163,4014.309-65.546,4014.309Zm262.5-3.972c-1.384,0-2.506-.83-2.506-1.854v-1.426c0-1.024,1.122-1.854,2.506-1.854s2.506.83,2.506,1.854v1.426C199.46,4009.506,198.339,4010.336,196.955,4010.336Zm-262.5-11.713c-1.384,0-2.506-.83-2.506-1.854v-1.426c0-1.023,1.122-1.854,2.506-1.854s2.506.83,2.506,1.854v1.426C-63.041,3997.794-64.163,3998.624-65.546,3998.624Zm262.5-3.973c-1.384,0-2.506-.83-2.506-1.854v-1.426c0-1.024,1.122-1.854,2.506-1.854s2.506.83,2.506,1.854v1.426C199.46,3993.821,198.339,3994.651,196.955,3994.651Zm-262.5-11.712c-1.384,0-2.506-.83-2.506-1.854v-1.426c0-1.024,1.122-1.854,2.506-1.854s2.506.83,2.506,1.854v1.426C-63.041,3982.109-64.163,3982.938-65.546,3982.938Zm262.5-3.972c-1.384,0-2.506-.83-2.506-1.854v-1.426c0-1.024,1.122-1.854,2.506-1.854s2.506.83,2.506,1.854v1.426C199.46,3978.136,198.339,3978.966,196.955,3978.966Zm-262.5-11.713c-1.384,0-2.506-.83-2.506-1.854v-1.426c0-1.024,1.122-1.854,2.506-1.854s2.506.83,2.506,1.854v1.426C-63.041,3966.424-64.163,3967.253-65.546,3967.253Zm262.5-3.972c-1.384,0-2.506-.83-2.506-1.854V3960c0-1.024,1.122-1.854,2.506-1.854s2.506.83,2.506,1.854v1.426C199.46,3962.451,198.339,3963.281,196.955,3963.281Zm-262.5-11.713c-1.384,0-2.506-.83-2.506-1.854v-1.426c0-1.024,1.122-1.854,2.506-1.854s2.506.83,2.506,1.854v1.426C-63.041,3950.739-64.163,3951.569-65.546,3951.569Zm262.5-3.972c-1.384,0-2.506-.83-2.506-1.854v-1.426c0-1.024,1.122-1.854,2.506-1.854s2.506.83,2.506,1.854v1.426C199.46,3946.766,198.339,3947.6,196.955,3947.6Zm-262.5-11.713c-1.384,0-2.506-.83-2.506-1.854V3932.6c0-1.024,1.122-1.854,2.506-1.854s2.506.83,2.506,1.854v1.426C-63.041,3935.053-64.163,3935.883-65.546,3935.883Zm262.5-3.972c-1.384,0-2.506-.83-2.506-1.854v-1.426c0-1.024,1.122-1.854,2.506-1.854s2.506.83,2.506,1.854v1.426C199.46,3931.081,198.339,3931.911,196.955,3931.911Zm-262.5-11.713c-1.384,0-2.506-.83-2.506-1.854v-1.426c0-1.024,1.122-1.854,2.506-1.854s2.506.83,2.506,1.854v1.426C-63.041,3919.368-64.163,3920.2-65.546,3920.2Zm262.5-3.972c-1.384,0-2.506-.83-2.506-1.854v-1.426c0-1.024,1.122-1.854,2.506-1.854s2.506.83,2.506,1.854v1.426C199.46,3915.4,198.339,3916.226,196.955,3916.226Zm-262.5-11.713c-1.384,0-2.506-.83-2.506-1.854v-1.426c0-1.024,1.122-1.854,2.506-1.854s2.506.83,2.506,1.854v1.426C-63.041,3903.683-64.163,3904.513-65.546,3904.513Zm262.5-3.972c-1.384,0-2.506-.83-2.506-1.854v-1.426c0-1.024,1.122-1.854,2.506-1.854s2.506.83,2.506,1.854v1.426C199.46,3899.711,198.339,3900.541,196.955,3900.541Zm-262.5-11.713c-1.384,0-2.506-.83-2.506-1.854v-1.426c0-1.024,1.122-1.854,2.506-1.854s2.506.83,2.506,1.854v1.426C-63.041,3888-64.163,3888.828-65.546,3888.828Zm262.5-3.972c-1.384,0-2.506-.83-2.506-1.854v-.359c0-.321-.012-.646-.035-.966-.075-1.022.984-1.9,2.366-1.951s2.563.728,2.638,1.75c.028.386.043.779.043,1.167V3883C199.46,3884.026,198.339,3884.856,196.955,3884.856Zm-258.136-11.07a3.149,3.149,0,0,1-1.386-.311,1.586,1.586,0,0,1-.7-2.57c.389-.432.8-.858,1.233-1.268a3.132,3.132,0,0,1,3.516-.326,1.557,1.557,0,0,1,.441,2.6c-.355.338-.7.69-1.019,1.047A2.828,2.828,0,0,1-61.181,3873.786Zm250.358-3.059a3.005,3.005,0,0,1-1.761-.535c-.41-.3-.842-.593-1.284-.872a1.545,1.545,0,0,1-.281-2.613,3.15,3.15,0,0,1,3.532-.208c.535.337,1.058.693,1.555,1.056a1.538,1.538,0,0,1,.02,2.622A3,3,0,0,1,189.177,3870.727Zm-233.1-5.294a2.416,2.416,0,0,1-2.465-1.535c-.238-1.008.673-1.969,2.036-2.145.692-.09,1.4-.161,2.092-.212,1.373-.1,2.6.642,2.741,1.661s-.869,1.927-2.246,2.028c-.574.042-1.153.1-1.724.175A3.363,3.363,0,0,1-43.925,3865.434Zm213.911-.291h-1.927c-1.384,0-2.506-.83-2.506-1.854s1.122-1.854,2.506-1.854h1.927c1.384,0,2.506.83,2.506,1.854S171.369,3865.143,169.986,3865.143Zm-21.2,0h-1.927c-1.384,0-2.506-.83-2.506-1.854s1.122-1.854,2.506-1.854h1.927c1.384,0,2.506.83,2.506,1.854S150.169,3865.143,148.785,3865.143Zm-21.2,0h-1.927c-1.384,0-2.506-.83-2.506-1.854s1.122-1.854,2.506-1.854h1.927c1.384,0,2.506.83,2.506,1.854S128.969,3865.143,127.585,3865.143Zm-21.2,0h-1.927c-1.384,0-2.506-.83-2.506-1.854s1.122-1.854,2.506-1.854h1.927c1.384,0,2.506.83,2.506,1.854S107.768,3865.143,106.384,3865.143Zm-21.2,0H83.257c-1.384,0-2.506-.83-2.506-1.854s1.122-1.854,2.506-1.854h1.927c1.384,0,2.506.83,2.506,1.854S86.568,3865.143,85.184,3865.143Zm-21.2,0H62.056c-1.384,0-2.506-.83-2.506-1.854s1.122-1.854,2.506-1.854h1.927c1.384,0,2.506.83,2.506,1.854S65.367,3865.143,63.983,3865.143Zm-21.2,0H40.856c-1.384,0-2.506-.83-2.506-1.854s1.122-1.854,2.506-1.854h1.927c1.384,0,2.506.83,2.506,1.854S44.167,3865.143,42.783,3865.143Zm-21.2,0H19.655c-1.384,0-2.506-.83-2.506-1.854s1.122-1.854,2.506-1.854h1.927c1.384,0,2.506.83,2.506,1.854S22.966,3865.143,21.582,3865.143Zm-21.2,0H-1.546c-1.384,0-2.506-.83-2.506-1.854s1.122-1.854,2.506-1.854H.382c1.384,0,2.506.83,2.506,1.854S1.766,3865.143.382,3865.143Zm-21.2,0h-1.927c-1.384,0-2.506-.83-2.506-1.854s1.122-1.854,2.506-1.854h1.927c1.384,0,2.506.83,2.506,1.854S-19.435,3865.143-20.819,3865.143Z" transform="translate(68.052 -3861.436)" fill="#43a99b"/>
    </g>
    <path id="Trazado_210945" data-name="Trazado 210945" d="M419.852,3858.387h-115.9c-5.565,0-10.077,3.331-10.077,7.439V4105.08c0,4.108,4.512,7.439,10.077,7.439H419.872a11.374,11.374,0,0,0,8.391-3.319,7.125,7.125,0,0,0,.528-.683l86.094-122.612-86.1-123.5a7.079,7.079,0,0,0-.527-.685A11.36,11.36,0,0,0,419.852,3858.387Z" transform="translate(-921.767 -5785.77)" fill="#43a99b"/>
    <g id="Grupo_166662" data-name="Grupo 166662" transform="translate(-739.662 -1900.434)" opacity="0.2" style="mix-blend-mode: multiply;isolation: isolate">
      <g id="Grupo_166661" data-name="Grupo 166661" transform="translate(0 0)">
        <g id="Grupo_166660" data-name="Grupo 166660">
          <rect id="Rectángulo_46668" data-name="Rectángulo 46668" width="237.091" height="243.133" rx="20"/>
        </g>
      </g>
    </g>
    <g id="Grupo_166672" data-name="Grupo 166672" transform="translate(-699.353 -5785.77)">
      <g id="Grupo_166664" data-name="Grupo 166664" transform="translate(-39.93 3884.576)">
        <g id="Grupo_166663" data-name="Grupo 166663" transform="translate(0)">
          <g transform="matrix(1, 0, 0, 1, -28.12, -26.19)" filter="url(#Rectángulo_46669)">
            <rect id="Rectángulo_46669-2" data-name="Rectángulo 46669" width="237.091" height="253.408" rx="20" transform="translate(28.12 26.19)" fill="#fff"/>
          </g>
        </g>
      </g>
      <g id="Grupo_166665" data-name="Grupo 166665" transform="translate(-39.929 3892.794)">
        <path id="Trazado_210946" data-name="Trazado 210946" d="M233.778,3966.04v208.412c0,10.157-9.523,18.389-21.273,18.389H26.175c-11.746,0-21.269-8.231-21.269-18.389V3966.04c0-10.157,9.523-18.389,21.269-18.389H212.5C224.255,3947.651,233.778,3955.883,233.778,3966.04Z" transform="translate(-4.906 -3947.651)" fill="#f7f7f7"/>
      </g>
    </g>
    <g id="Grupo_171266" data-name="Grupo 171266" transform="translate(-660.253 -1877.853)">
      <g id="Grupo_171265" data-name="Grupo 171265" clip-path="url(#clip-path)">
        <path id="Trazado_212294" data-name="Trazado 212294" d="M35.477,0H61.294V44.053h5.37V43.71q0-18.015.011-36.03a2.219,2.219,0,0,0-2.3-2.316c-.294.011-.59,0-.908,0V3.26a4.354,4.354,0,0,1,5.344,4.129c.031,3.731.008,7.462.008,11.194q0,15.407,0,30.814a5.353,5.353,0,0,1-4.507,5.379,6.431,6.431,0,0,1-1.108.077q-10.382.007-20.764,0h-.5c.143.756.246,1.474.419,2.175a9.971,9.971,0,0,0,2.029,4.052.526.526,0,0,0,.457.213c.8-.012,1.61-.005,2.443-.005v2.139H21.523V61.292h.811c.551,0,1.1.013,1.653-.009a.645.645,0,0,0,.422-.195,10.342,10.342,0,0,0,2.235-4.878c.082-.433.128-.873.2-1.353H5.568a5.37,5.37,0,0,1-4.453-2.107A5.035,5.035,0,0,1,0,49.573Q0,28.505,0,7.438A4.271,4.271,0,0,1,4.212,3.214q14.389-.007,28.777,0h.329V5.366h-.44q-9.285,0-18.57,0-4.929,0-9.857.006A2.139,2.139,0,0,0,2.208,7.044a2.973,2.973,0,0,0-.051.662q0,14.9,0,29.8V44.05H35.477Zm2.18,44.047H59.125V2.163H37.658ZM2.171,46.257c-.006.1-.015.186-.015.268,0,.964,0,1.929,0,2.893a3.2,3.2,0,0,0,3.318,3.268q4.292,0,8.584,0h42.6c2.247,0,4.493.006,6.74,0a3.172,3.172,0,0,0,3.22-2.722,18.219,18.219,0,0,0,.046-2.381c0-.44,0-.88,0-1.326ZM27.018,61.263H41.831a14,14,0,0,1-2.016-6.389H29.024a14.356,14.356,0,0,1-2.006,6.389" transform="translate(0)" fill="#12263f"/>
        <path id="Trazado_212295" data-name="Trazado 212295" d="M219.655,135.219v-.453q0-8.2,0-16.408c0-.266.069-.335.336-.335q8.251.012,16.5.006h.356v17.189Zm2.174-15.019v12.868h12.863V120.2h-2.683v5.341H224.5V120.2Zm4.844,3.19h3.167V120.2h-3.167Z" transform="translate(-205.682 -110.518)" fill="#12263f"/>
        <rect id="Rectángulo_52536" data-name="Rectángulo 52536" width="2.122" height="34.387" transform="translate(8.613 7.529)" fill="#12263f"/>
        <rect id="Rectángulo_52537" data-name="Rectángulo 52537" width="19.316" height="2.126" transform="translate(12.923 26.894)" fill="#12263f"/>
        <path id="Trazado_212296" data-name="Trazado 212296" d="M376.14,564.2a11.792,11.792,0,0,1-1.736-.136,3.179,3.179,0,0,1-2.486-3.488,3.224,3.224,0,0,1,3.161-2.869q1.127-.025,2.256,0a3.224,3.224,0,0,1,.609,6.382,13.026,13.026,0,0,1-1.805.11m.083-4.334c-.36,0-.721,0-1.081,0a1.072,1.072,0,0,0-.018,2.145c.72.012,1.441.014,2.162,0a1.072,1.072,0,0,0-.014-2.145c-.35-.007-.7,0-1.049,0" transform="translate(-348.249 -522.228)" fill="#12263f"/>
        <path id="Trazado_212297" data-name="Trazado 212297" d="M207.3,556.981a10.562,10.562,0,0,1,1.946.255,3.152,3.152,0,0,1,2.15,3.476,3.219,3.219,0,0,1-3.141,2.782c-.752.015-1.5.016-2.256,0a3.235,3.235,0,0,1-3.162-2.8,3.2,3.2,0,0,1,2.444-3.555,15.423,15.423,0,0,1,2.019-.16m-.191,2.216c-.35,0-.7,0-1.049,0a1.072,1.072,0,0,0-.025,2.145c.72.015,1.441.012,2.162,0a1.072,1.072,0,0,0-.007-2.145c-.36-.007-.721,0-1.081,0" transform="translate(-189.918 -521.561)" fill="#12263f"/>
        <rect id="Rectángulo_52538" data-name="Rectángulo 52538" width="11.794" height="2.136" transform="translate(12.931 31.191)" fill="#12263f"/>
        <rect id="Rectángulo_52539" data-name="Rectángulo 52539" width="2.107" height="2.128" transform="translate(4.318 11.833)" fill="#12263f"/>
        <rect id="Rectángulo_52540" data-name="Rectángulo 52540" width="2.101" height="2.096" transform="translate(4.32 16.142)" fill="#12263f"/>
        <path id="Trazado_212298" data-name="Trazado 212298" d="M67.614,323.2c0-.647-.006-1.271.008-1.893,0-.079.107-.222.167-.224.642-.016,1.285-.01,1.947-.01V323.2Z" transform="translate(-63.313 -300.658)" fill="#12263f"/>
        <rect id="Rectángulo_52541" data-name="Rectángulo 52541" width="2.089" height="2.121" transform="translate(4.327 24.738)" fill="#12263f"/>
        <rect id="Rectángulo_52542" data-name="Rectángulo 52542" width="2.102" height="2.114" transform="translate(4.322 7.531)" fill="#12263f"/>
        <path id="Trazado_212299" data-name="Trazado 212299" d="M634.831,89.727c.632-.64,1.16-1.2,1.718-1.734a19.357,19.357,0,0,1,3.628-2.818,6.179,6.179,0,0,1,2.237-.858,4.414,4.414,0,0,1,2.646.605,17.3,17.3,0,0,1,3.8,2.794c.668.615,1.314,1.253,2.019,1.929-.9.865-1.7,1.677-2.546,2.443a14.65,14.65,0,0,1-3.282,2.321,9.069,9.069,0,0,1-1.326.515,3.792,3.792,0,0,1-2.85-.4,17.428,17.428,0,0,1-4.309-3.163l-1.734-1.63M647.8,89.67l-.333-.3a17.679,17.679,0,0,0-3.512-2.6,2.059,2.059,0,0,0-2.173,0c-.8.495-1.583,1.018-2.339,1.575-.533.392-1.009.861-1.543,1.324l1.756,1.531a3.267,3.267,0,0,1,6.394,0l1.75-1.523m-4.957,3.224a1.073,1.073,0,1,0-.01-2.146,1.078,1.078,0,0,0-1.049,1.061,1.09,1.09,0,0,0,1.06,1.085" transform="translate(-594.461 -78.926)" fill="#12263f"/>
        <path id="Trazado_212300" data-name="Trazado 212300" d="M636.943,394.379h-2.136v-1.622l-6.393,6.408-2.306-2.373-5.64,3.385-1.108-1.843c.16-.1.306-.2.455-.287q3.13-1.879,6.258-3.761c.223-.135.358-.15.553.06.548.589,1.125,1.15,1.67,1.7l4.846-4.86h-1.525v-2.155h5.326Z" transform="translate(-579.974 -364.292)" fill="#12263f"/>
        <rect id="Rectángulo_52543" data-name="Rectángulo 52543" width="15.038" height="2.128" transform="translate(40.863 18.285)" fill="#12263f"/>
        <rect id="Rectángulo_52544" data-name="Rectángulo 52544" width="7.506" height="2.119" transform="translate(40.874 22.581)" fill="#12263f"/>
        <rect id="Rectángulo_52545" data-name="Rectángulo 52545" width="2.128" height="2.122" transform="translate(43.017 38.723)" fill="#12263f"/>
        <rect id="Rectángulo_52546" data-name="Rectángulo 52546" width="2.126" height="2.122" transform="translate(47.328 38.725)" fill="#12263f"/>
        <rect id="Rectángulo_52547" data-name="Rectángulo 52547" width="2.099" height="2.133" transform="translate(51.647 38.718)" fill="#12263f"/>
        <rect id="Rectángulo_52548" data-name="Rectángulo 52548" width="2.126" height="2.107" transform="translate(33.344 48.407)" fill="#12263f"/>
      </g>
    </g>
    <path id="Trazado_213451" data-name="Trazado 213451" d="M28.083,9.742h-4.93v4.031H28.88V15H21.654V3.625H28.8V4.852H23.154V8.516h4.93Zm7.359,3.016a1.064,1.064,0,0,0-.441-.91,4.249,4.249,0,0,0-1.539-.559,7.277,7.277,0,0,1-1.742-.562,2.479,2.479,0,0,1-.953-.781,1.869,1.869,0,0,1-.309-1.078,2.193,2.193,0,0,1,.879-1.758,3.432,3.432,0,0,1,2.246-.719,3.532,3.532,0,0,1,2.332.742,2.357,2.357,0,0,1,.895,1.9H35.357a1.3,1.3,0,0,0-.5-1.023,1.888,1.888,0,0,0-1.27-.43,1.976,1.976,0,0,0-1.234.344,1.082,1.082,0,0,0-.445.9.877.877,0,0,0,.414.789,5.1,5.1,0,0,0,1.5.508,7.8,7.8,0,0,1,1.754.578,2.558,2.558,0,0,1,1,.809,1.988,1.988,0,0,1,.324,1.152,2.163,2.163,0,0,1-.906,1.816,3.8,3.8,0,0,1-2.352.684,4.257,4.257,0,0,1-1.8-.359,2.922,2.922,0,0,1-1.223-1,2.42,2.42,0,0,1-.441-1.395h1.445a1.5,1.5,0,0,0,.582,1.152,2.258,2.258,0,0,0,1.434.426,2.331,2.331,0,0,0,1.316-.332A1.02,1.02,0,0,0,35.443,12.758ZM40.732,4.5V6.547H42.31V7.664H40.732v5.249a1.173,1.173,0,0,0,.211.763.888.888,0,0,0,.719.254,3.5,3.5,0,0,0,.688-.094V15a4.215,4.215,0,0,1-1.109.155,1.8,1.8,0,0,1-1.461-.586,2.517,2.517,0,0,1-.492-1.664V7.664H37.747V6.547h1.539V4.5Zm6.773,10.656a3.693,3.693,0,0,1-2.8-1.129,4.19,4.19,0,0,1-1.078-3.02v-.266a5.073,5.073,0,0,1,.48-2.246,3.748,3.748,0,0,1,1.344-1.547,3.378,3.378,0,0,1,1.871-.559,3.166,3.166,0,0,1,2.563,1.086,4.7,4.7,0,0,1,.914,3.109v.6H45.075a3,3,0,0,0,.73,2.02,2.3,2.3,0,0,0,1.777.77,2.517,2.517,0,0,0,1.3-.312,3.259,3.259,0,0,0,.93-.828l.883.688A3.55,3.55,0,0,1,47.505,15.156Zm-.18-7.578a1.928,1.928,0,0,0-1.469.637A3.1,3.1,0,0,0,45.122,10h4.234V9.891a2.753,2.753,0,0,0-.594-1.707A1.815,1.815,0,0,0,47.325,7.578Zm12.617,7.578a3.693,3.693,0,0,1-2.8-1.129,4.19,4.19,0,0,1-1.078-3.02v-.266a5.073,5.073,0,0,1,.48-2.246,3.748,3.748,0,0,1,1.344-1.547,3.378,3.378,0,0,1,1.871-.559,3.166,3.166,0,0,1,2.563,1.086,4.7,4.7,0,0,1,.914,3.109v.6H57.513a3,3,0,0,0,.73,2.02,2.3,2.3,0,0,0,1.777.77,2.517,2.517,0,0,0,1.3-.312,3.259,3.259,0,0,0,.93-.828l.883.688A3.55,3.55,0,0,1,59.943,15.156Zm-.18-7.578a1.928,1.928,0,0,0-1.469.637A3.1,3.1,0,0,0,57.56,10h4.234V9.891A2.753,2.753,0,0,0,61.2,8.184,1.815,1.815,0,0,0,59.763,7.578Zm10.07,5.18a1.064,1.064,0,0,0-.441-.91,4.249,4.249,0,0,0-1.539-.559,7.277,7.277,0,0,1-1.742-.562,2.479,2.479,0,0,1-.953-.781,1.869,1.869,0,0,1-.309-1.078,2.193,2.193,0,0,1,.879-1.758,3.432,3.432,0,0,1,2.246-.719,3.532,3.532,0,0,1,2.332.742,2.357,2.357,0,0,1,.895,1.9H69.747a1.3,1.3,0,0,0-.5-1.023,1.888,1.888,0,0,0-1.27-.43,1.976,1.976,0,0,0-1.234.344,1.082,1.082,0,0,0-.445.9.877.877,0,0,0,.414.789,5.1,5.1,0,0,0,1.5.508,7.8,7.8,0,0,1,1.754.578,2.558,2.558,0,0,1,1,.809,1.988,1.988,0,0,1,.324,1.152,2.163,2.163,0,0,1-.906,1.816,3.8,3.8,0,0,1-2.352.684,4.257,4.257,0,0,1-1.8-.359,2.922,2.922,0,0,1-1.223-1A2.42,2.42,0,0,1,64.56,12.4h1.445a1.5,1.5,0,0,0,.582,1.152,2.258,2.258,0,0,0,1.434.426,2.331,2.331,0,0,0,1.316-.332A1.02,1.02,0,0,0,69.833,12.758Zm10.8,2.4a3.693,3.693,0,0,1-2.8-1.129,4.19,4.19,0,0,1-1.078-3.02v-.266a5.073,5.073,0,0,1,.48-2.246,3.748,3.748,0,0,1,1.344-1.547,3.378,3.378,0,0,1,1.871-.559,3.166,3.166,0,0,1,2.563,1.086,4.7,4.7,0,0,1,.914,3.109v.6H78.2a3,3,0,0,0,.73,2.02,2.3,2.3,0,0,0,1.777.77,2.517,2.517,0,0,0,1.3-.312,3.259,3.259,0,0,0,.93-.828l.883.688A3.55,3.55,0,0,1,80.63,15.156Zm-.18-7.578a1.928,1.928,0,0,0-1.469.637A3.1,3.1,0,0,0,78.247,10h4.234V9.891a2.753,2.753,0,0,0-.594-1.707A1.815,1.815,0,0,0,80.45,7.578ZM87.169,15H85.724V3h1.445ZM95.4,4.5V6.547h1.578V7.664H95.4v5.249a1.173,1.173,0,0,0,.211.763.888.888,0,0,0,.719.254,3.5,3.5,0,0,0,.688-.094V15a4.215,4.215,0,0,1-1.109.155,1.8,1.8,0,0,1-1.461-.586,2.517,2.517,0,0,1-.492-1.664V7.664H92.419V6.547h1.539V4.5Zm7.352,3.344a4.331,4.331,0,0,0-.711-.055A1.9,1.9,0,0,0,100.115,9v6H98.669V6.547h1.406l.023.977a2.251,2.251,0,0,1,2.016-1.133,1.477,1.477,0,0,1,.641.109ZM108.99,15a3.036,3.036,0,0,1-.2-.891,3.225,3.225,0,0,1-2.406,1.047,2.984,2.984,0,0,1-2.051-.707,2.288,2.288,0,0,1-.8-1.793,2.39,2.39,0,0,1,1-2.051,4.733,4.733,0,0,1,2.824-.73h1.406V9.211A1.623,1.623,0,0,0,108.31,8a1.821,1.821,0,0,0-1.336-.449,2.108,2.108,0,0,0-1.3.391,1.151,1.151,0,0,0-.523.945H103.7a2,2,0,0,1,.449-1.223,3.066,3.066,0,0,1,1.219-.934,4.1,4.1,0,0,1,1.691-.344,3.342,3.342,0,0,1,2.289.73,2.635,2.635,0,0,1,.859,2.012v3.891a4.757,4.757,0,0,0,.3,1.852V15Zm-2.4-1.1a2.54,2.54,0,0,0,1.289-.352,2.127,2.127,0,0,0,.883-.914V10.9H107.63q-2.656,0-2.656,1.555a1.316,1.316,0,0,0,.453,1.063A1.742,1.742,0,0,0,106.591,13.9Zm1.336-10.883h1.75l-2.094,2.3-1.164,0ZM112.958,15V7.664h-1.336V6.547h1.336V5.828a2.937,2.937,0,0,1,.809-2.2,3.136,3.136,0,0,1,2.285-.789,6.881,6.881,0,0,1,2.211.477l-.242,1.219a5.008,5.008,0,0,0-1.859-.391,1.819,1.819,0,0,0-1.34.418,1.723,1.723,0,0,0-.41,1.254v.734h1.727V7.664h-1.727V15Zm6.023,0h-1.453V6.547h1.453Zm5.742-1.023a2.082,2.082,0,0,0,1.352-.469,1.649,1.649,0,0,0,.641-1.172h1.367a2.621,2.621,0,0,1-.5,1.383,3.293,3.293,0,0,1-1.23,1.047,3.55,3.55,0,0,1-1.629.391A3.482,3.482,0,0,1,121.978,14a4.59,4.59,0,0,1-1.02-3.152v-.242a5.089,5.089,0,0,1,.453-2.2,3.451,3.451,0,0,1,1.3-1.492,3.7,3.7,0,0,1,2-.531,3.39,3.39,0,0,1,2.363.852,3.043,3.043,0,0,1,1,2.211h-1.367a1.992,1.992,0,0,0-.621-1.348,1.932,1.932,0,0,0-1.379-.527,2.023,2.023,0,0,0-1.707.793,3.724,3.724,0,0,0-.605,2.293v.273a3.65,3.65,0,0,0,.6,2.25A2.033,2.033,0,0,0,124.724,13.977Zm4.6-3.281a4.993,4.993,0,0,1,.488-2.234,3.642,3.642,0,0,1,1.359-1.531,3.7,3.7,0,0,1,1.988-.539,3.565,3.565,0,0,1,2.793,1.2,4.6,4.6,0,0,1,1.066,3.18v.1a5.036,5.036,0,0,1-.473,2.215,3.589,3.589,0,0,1-1.352,1.527,3.743,3.743,0,0,1-2.02.547,3.556,3.556,0,0,1-2.785-1.2,4.575,4.575,0,0,1-1.066-3.164Zm1.453.172a3.616,3.616,0,0,0,.652,2.258,2.211,2.211,0,0,0,3.5-.012,3.954,3.954,0,0,0,.648-2.418,3.61,3.61,0,0,0-.66-2.254,2.1,2.1,0,0,0-1.754-.863,2.075,2.075,0,0,0-1.727.852A3.925,3.925,0,0,0,130.779,10.867Zm11.664-.164a4.961,4.961,0,0,1,.914-3.152,3.226,3.226,0,0,1,4.82-.152l.063-.852h1.328v11.7h-1.445V14.219a3.033,3.033,0,0,1-2.328.938,2.915,2.915,0,0,1-2.441-1.191,5.072,5.072,0,0,1-.91-3.16Zm1.445.164a3.761,3.761,0,0,0,.613,2.281,1.951,1.951,0,0,0,1.652.828,2.164,2.164,0,0,0,1.969-1.141V8.7a2.171,2.171,0,0,0-1.953-1.117,1.965,1.965,0,0,0-1.664.832A4.094,4.094,0,0,0,143.888,10.867Zm13.219,3.3a3.07,3.07,0,0,1-2.477.992,2.628,2.628,0,0,1-2.059-.785,3.4,3.4,0,0,1-.715-2.324v-5.5H153.3v5.461q0,1.922,1.563,1.922a2.163,2.163,0,0,0,2.2-1.234V6.547h1.445V15h-1.375Zm7.109.992a3.693,3.693,0,0,1-2.8-1.129,4.19,4.19,0,0,1-1.078-3.02v-.266a5.073,5.073,0,0,1,.48-2.246,3.748,3.748,0,0,1,1.344-1.547,3.378,3.378,0,0,1,1.871-.559A3.166,3.166,0,0,1,166.6,7.477a4.7,4.7,0,0,1,.914,3.109v.6h-5.727a3,3,0,0,0,.73,2.02,2.3,2.3,0,0,0,1.777.77,2.517,2.517,0,0,0,1.3-.312,3.258,3.258,0,0,0,.93-.828l.883.688A3.55,3.55,0,0,1,164.216,15.156Zm-.18-7.578a1.928,1.928,0,0,0-1.469.637A3.1,3.1,0,0,0,161.833,10h4.234V9.891a2.753,2.753,0,0,0-.594-1.707A1.815,1.815,0,0,0,164.036,7.578ZM30.341,34.867a5.062,5.062,0,0,1-.883,3.109,2.829,2.829,0,0,1-2.391,1.18,3.1,3.1,0,0,1-2.422-.977v4.07H23.2v-11.7h1.32l.07.938a2.977,2.977,0,0,1,2.453-1.094,2.882,2.882,0,0,1,2.41,1.148,5.117,5.117,0,0,1,.887,3.2ZM28.9,34.7a3.735,3.735,0,0,0-.609-2.258,1.963,1.963,0,0,0-1.672-.828,2.125,2.125,0,0,0-1.969,1.164V36.82a2.129,2.129,0,0,0,1.984,1.156,1.954,1.954,0,0,0,1.652-.824A4.077,4.077,0,0,0,28.9,34.7Zm7.367-2.859a4.331,4.331,0,0,0-.711-.055A1.9,1.9,0,0,0,33.622,33v6H32.177V30.547h1.406l.023.977a2.251,2.251,0,0,1,2.016-1.133,1.477,1.477,0,0,1,.641.109Zm.789,2.852a4.993,4.993,0,0,1,.488-2.234A3.643,3.643,0,0,1,38.9,30.93a3.7,3.7,0,0,1,1.988-.539,3.565,3.565,0,0,1,2.793,1.2,4.6,4.6,0,0,1,1.066,3.18v.1a5.036,5.036,0,0,1-.473,2.215,3.589,3.589,0,0,1-1.352,1.527,3.743,3.743,0,0,1-2.02.547,3.556,3.556,0,0,1-2.785-1.2A4.575,4.575,0,0,1,37.052,34.8Zm1.453.172a3.616,3.616,0,0,0,.652,2.258,2.211,2.211,0,0,0,3.5-.012A3.955,3.955,0,0,0,43.3,34.7a3.61,3.61,0,0,0-.66-2.254,2.1,2.1,0,0,0-1.754-.863,2.075,2.075,0,0,0-1.727.852A3.925,3.925,0,0,0,38.505,34.867Zm10.727,2.172,2.094-6.492H52.8L49.771,39h-1.1l-3.062-8.453h1.477ZM55.763,39H54.318V30.547h1.445ZM54.2,28.3a.863.863,0,0,1,.215-.594.807.807,0,0,1,.637-.242.819.819,0,0,1,.641.242.854.854,0,0,1,.219.594.826.826,0,0,1-.219.586.834.834,0,0,1-.641.234.821.821,0,0,1-.637-.234A.834.834,0,0,1,54.2,28.3Zm7.383,10.852a3.693,3.693,0,0,1-2.8-1.129,4.19,4.19,0,0,1-1.078-3.02v-.266a5.073,5.073,0,0,1,.48-2.246,3.748,3.748,0,0,1,1.344-1.547,3.378,3.378,0,0,1,1.871-.559,3.166,3.166,0,0,1,2.563,1.086,4.7,4.7,0,0,1,.914,3.109v.6H59.154a3,3,0,0,0,.73,2.02,2.3,2.3,0,0,0,1.777.77,2.517,2.517,0,0,0,1.3-.312,3.258,3.258,0,0,0,.93-.828l.883.688A3.55,3.55,0,0,1,61.583,39.156Zm-.18-7.578a1.928,1.928,0,0,0-1.469.637A3.1,3.1,0,0,0,59.2,34h4.234v-.109a2.753,2.753,0,0,0-.594-1.707A1.815,1.815,0,0,0,61.4,31.578Zm6.516-1.031.047,1.063A3.08,3.08,0,0,1,70.5,30.391q2.68,0,2.7,3.023V39H71.755V33.406a1.946,1.946,0,0,0-.418-1.352,1.675,1.675,0,0,0-1.277-.437,2.086,2.086,0,0,0-1.234.375,2.546,2.546,0,0,0-.828.984V39H66.552V30.547Zm10.969,8.609a3.693,3.693,0,0,1-2.8-1.129,4.19,4.19,0,0,1-1.078-3.02v-.266a5.073,5.073,0,0,1,.48-2.246,3.748,3.748,0,0,1,1.344-1.547,3.378,3.378,0,0,1,1.871-.559,3.166,3.166,0,0,1,2.563,1.086,4.7,4.7,0,0,1,.914,3.109v.6H76.458a3,3,0,0,0,.73,2.02,2.3,2.3,0,0,0,1.777.77,2.517,2.517,0,0,0,1.3-.312,3.259,3.259,0,0,0,.93-.828l.883.688A3.55,3.55,0,0,1,78.888,39.156Zm-.18-7.578a1.928,1.928,0,0,0-1.469.637A3.1,3.1,0,0,0,76.505,34H80.74v-.109a2.753,2.753,0,0,0-.594-1.707A1.815,1.815,0,0,0,78.708,31.578ZM87.466,34.7a4.952,4.952,0,0,1,.922-3.129,3.137,3.137,0,0,1,4.766-.168V27H94.6V39H93.271l-.07-.906a2.943,2.943,0,0,1-2.414,1.063,2.887,2.887,0,0,1-2.395-1.2,5.008,5.008,0,0,1-.926-3.141Zm1.445.164a3.749,3.749,0,0,0,.594,2.25,1.92,1.92,0,0,0,1.641.813A2.108,2.108,0,0,0,93.154,36.7V32.813a2.125,2.125,0,0,0-1.992-1.2,1.929,1.929,0,0,0-1.656.82A4.128,4.128,0,0,0,88.911,34.867Zm11.438,4.289a3.693,3.693,0,0,1-2.8-1.129,4.19,4.19,0,0,1-1.078-3.02v-.266a5.073,5.073,0,0,1,.48-2.246A3.748,3.748,0,0,1,98.3,30.949a3.378,3.378,0,0,1,1.871-.559,3.166,3.166,0,0,1,2.563,1.086,4.7,4.7,0,0,1,.914,3.109v.6H97.919a3,3,0,0,0,.73,2.02,2.3,2.3,0,0,0,1.777.77,2.517,2.517,0,0,0,1.3-.312,3.259,3.259,0,0,0,.93-.828l.883.688A3.55,3.55,0,0,1,100.349,39.156Zm-.18-7.578a1.928,1.928,0,0,0-1.469.637A3.1,3.1,0,0,0,97.966,34H102.2v-.109a2.753,2.753,0,0,0-.594-1.707A1.815,1.815,0,0,0,100.169,31.578Zm12.617,7.578a3.693,3.693,0,0,1-2.8-1.129,4.19,4.19,0,0,1-1.078-3.02v-.266a5.073,5.073,0,0,1,.48-2.246,3.748,3.748,0,0,1,1.344-1.547,3.378,3.378,0,0,1,1.871-.559,3.166,3.166,0,0,1,2.563,1.086,4.7,4.7,0,0,1,.914,3.109v.6h-5.727a3,3,0,0,0,.73,2.02,2.3,2.3,0,0,0,1.777.77,2.517,2.517,0,0,0,1.3-.312,3.259,3.259,0,0,0,.93-.828l.883.688A3.55,3.55,0,0,1,112.786,39.156Zm-.18-7.578a1.928,1.928,0,0,0-1.469.637A3.1,3.1,0,0,0,110.4,34h4.234v-.109a2.753,2.753,0,0,0-.594-1.707A1.815,1.815,0,0,0,112.607,31.578Zm6.516-1.031.047,1.063a3.08,3.08,0,0,1,2.531-1.219q2.68,0,2.7,3.023V39h-1.445V33.406a1.946,1.946,0,0,0-.418-1.352,1.675,1.675,0,0,0-1.277-.437,2.086,2.086,0,0,0-1.234.375,2.546,2.546,0,0,0-.828.984V39h-1.445V30.547ZM128.154,39h-1.445V27h1.445Zm7.531,0a3.036,3.036,0,0,1-.2-.891,3.225,3.225,0,0,1-2.406,1.047,2.984,2.984,0,0,1-2.051-.707,2.287,2.287,0,0,1-.8-1.793,2.39,2.39,0,0,1,1-2.051,4.733,4.733,0,0,1,2.824-.73h1.406v-.664A1.623,1.623,0,0,0,135.005,32a1.821,1.821,0,0,0-1.336-.449,2.107,2.107,0,0,0-1.3.391,1.151,1.151,0,0,0-.523.945H130.4a2,2,0,0,1,.449-1.223,3.066,3.066,0,0,1,1.219-.934,4.1,4.1,0,0,1,1.691-.344,3.342,3.342,0,0,1,2.289.73,2.635,2.635,0,0,1,.859,2.012v3.891a4.757,4.757,0,0,0,.3,1.852V39Zm-2.4-1.1a2.54,2.54,0,0,0,1.289-.352,2.127,2.127,0,0,0,.883-.914V34.9h-1.133q-2.656,0-2.656,1.555a1.316,1.316,0,0,0,.453,1.063A1.742,1.742,0,0,0,133.286,37.9Zm9.273.078a2.082,2.082,0,0,0,1.352-.469,1.649,1.649,0,0,0,.641-1.172h1.367a2.621,2.621,0,0,1-.5,1.383,3.293,3.293,0,0,1-1.23,1.047,3.55,3.55,0,0,1-1.629.391A3.482,3.482,0,0,1,139.814,38a4.59,4.59,0,0,1-1.02-3.152v-.242a5.089,5.089,0,0,1,.453-2.2,3.451,3.451,0,0,1,1.3-1.492,3.7,3.7,0,0,1,2-.531,3.39,3.39,0,0,1,2.363.852,3.043,3.043,0,0,1,1,2.211h-1.367a1.992,1.992,0,0,0-.621-1.348,1.932,1.932,0,0,0-1.379-.527,2.023,2.023,0,0,0-1.707.793,3.724,3.724,0,0,0-.605,2.293v.273a3.65,3.65,0,0,0,.6,2.25A2.033,2.033,0,0,0,142.56,37.977Zm8.492,1.18a3.693,3.693,0,0,1-2.8-1.129,4.19,4.19,0,0,1-1.078-3.02v-.266a5.073,5.073,0,0,1,.48-2.246A3.748,3.748,0,0,1,149,30.949a3.378,3.378,0,0,1,1.871-.559,3.166,3.166,0,0,1,2.563,1.086,4.7,4.7,0,0,1,.914,3.109v.6h-5.727a3,3,0,0,0,.73,2.02,2.3,2.3,0,0,0,1.777.77,2.517,2.517,0,0,0,1.3-.312,3.258,3.258,0,0,0,.93-.828l.883.688A3.55,3.55,0,0,1,151.052,39.156Zm-.18-7.578a1.928,1.928,0,0,0-1.469.637A3.1,3.1,0,0,0,148.669,34H152.9v-.109a2.753,2.753,0,0,0-.594-1.707A1.815,1.815,0,0,0,150.872,31.578Zm10.07,5.18a1.064,1.064,0,0,0-.441-.91,4.249,4.249,0,0,0-1.539-.559,7.277,7.277,0,0,1-1.742-.562,2.479,2.479,0,0,1-.953-.781,1.869,1.869,0,0,1-.309-1.078,2.193,2.193,0,0,1,.879-1.758,3.432,3.432,0,0,1,2.246-.719,3.532,3.532,0,0,1,2.332.742,2.357,2.357,0,0,1,.895,1.9h-1.453a1.3,1.3,0,0,0-.5-1.023,1.888,1.888,0,0,0-1.27-.43,1.976,1.976,0,0,0-1.234.344,1.082,1.082,0,0,0-.445.9.877.877,0,0,0,.414.789,5.1,5.1,0,0,0,1.5.508,7.8,7.8,0,0,1,1.754.578,2.558,2.558,0,0,1,1,.809,1.988,1.988,0,0,1,.324,1.152,2.163,2.163,0,0,1-.906,1.816,3.8,3.8,0,0,1-2.352.684,4.257,4.257,0,0,1-1.8-.359,2.922,2.922,0,0,1-1.223-1,2.42,2.42,0,0,1-.441-1.395h1.445a1.5,1.5,0,0,0,.582,1.152,2.258,2.258,0,0,0,1.434.426,2.331,2.331,0,0,0,1.316-.332A1.02,1.02,0,0,0,160.943,36.758Zm3.281,4.508-.82-.562a3.77,3.77,0,0,0,.766-2.109v-1.3h1.414v1.133A3.559,3.559,0,0,1,165.2,40,3.7,3.7,0,0,1,164.224,41.266ZM11.615,55.844a4.331,4.331,0,0,0-.711-.055A1.9,1.9,0,0,0,8.974,57v6H7.529V54.547H8.935l.023.977a2.251,2.251,0,0,1,2.016-1.133,1.477,1.477,0,0,1,.641.109ZM16.3,63.156a3.693,3.693,0,0,1-2.8-1.129,4.19,4.19,0,0,1-1.078-3.02v-.266a5.073,5.073,0,0,1,.48-2.246,3.748,3.748,0,0,1,1.344-1.547,3.378,3.378,0,0,1,1.871-.559,3.166,3.166,0,0,1,2.563,1.086,4.7,4.7,0,0,1,.914,3.109v.6H13.872a3,3,0,0,0,.73,2.02,2.3,2.3,0,0,0,1.777.77,2.517,2.517,0,0,0,1.3-.312,3.259,3.259,0,0,0,.93-.828l.883.688A3.55,3.55,0,0,1,16.3,63.156Zm-.18-7.578a1.928,1.928,0,0,0-1.469.637A3.1,3.1,0,0,0,13.919,58h4.234v-.109a2.753,2.753,0,0,0-.594-1.707A1.815,1.815,0,0,0,16.122,55.578ZM21.982,63V55.664H20.646V54.547h1.336V53.68a2.878,2.878,0,0,1,.727-2.1,2.745,2.745,0,0,1,2.055-.742,3.816,3.816,0,0,1,.992.132l-.078,1.165a4.151,4.151,0,0,0-.781-.07,1.41,1.41,0,0,0-1.086.411,1.669,1.669,0,0,0-.383,1.18v.893h1.8v1.117h-1.8V63Zm8.164.156a3.693,3.693,0,0,1-2.8-1.129,4.19,4.19,0,0,1-1.078-3.02v-.266a5.073,5.073,0,0,1,.48-2.246,3.748,3.748,0,0,1,1.344-1.547,3.378,3.378,0,0,1,1.871-.559,3.166,3.166,0,0,1,2.563,1.086,4.7,4.7,0,0,1,.914,3.109v.6H27.716a3,3,0,0,0,.73,2.02,2.3,2.3,0,0,0,1.777.77,2.517,2.517,0,0,0,1.3-.312,3.259,3.259,0,0,0,.93-.828l.883.688A3.55,3.55,0,0,1,30.146,63.156Zm-.18-7.578a1.928,1.928,0,0,0-1.469.637A3.1,3.1,0,0,0,27.763,58H32v-.109a2.753,2.753,0,0,0-.594-1.707A1.815,1.815,0,0,0,29.966,55.578Zm9.234.266a4.331,4.331,0,0,0-.711-.055A1.9,1.9,0,0,0,36.56,57v6H35.115V54.547h1.406l.023.977a2.251,2.251,0,0,1,2.016-1.133,1.477,1.477,0,0,1,.641.109Zm4.688,7.313a3.693,3.693,0,0,1-2.8-1.129,4.19,4.19,0,0,1-1.078-3.02v-.266a5.073,5.073,0,0,1,.48-2.246,3.748,3.748,0,0,1,1.344-1.547,3.378,3.378,0,0,1,1.871-.559,3.166,3.166,0,0,1,2.563,1.086,4.7,4.7,0,0,1,.914,3.109v.6H41.458a3,3,0,0,0,.73,2.02,2.3,2.3,0,0,0,1.777.77,2.517,2.517,0,0,0,1.3-.312,3.258,3.258,0,0,0,.93-.828l.883.688A3.55,3.55,0,0,1,43.888,63.156Zm-.18-7.578a1.928,1.928,0,0,0-1.469.637A3.1,3.1,0,0,0,41.505,58H45.74v-.109a2.753,2.753,0,0,0-.594-1.707A1.815,1.815,0,0,0,43.708,55.578Zm6.516-1.031.047,1.063A3.08,3.08,0,0,1,52.8,54.391q2.68,0,2.7,3.023V63H54.06V57.406a1.946,1.946,0,0,0-.418-1.352,1.675,1.675,0,0,0-1.277-.437,2.086,2.086,0,0,0-1.234.375,2.546,2.546,0,0,0-.828.984V63H48.857V54.547Zm10.852,7.43a2.082,2.082,0,0,0,1.352-.469,1.649,1.649,0,0,0,.641-1.172h1.367a2.621,2.621,0,0,1-.5,1.383,3.293,3.293,0,0,1-1.23,1.047,3.55,3.55,0,0,1-1.629.391A3.482,3.482,0,0,1,58.329,62a4.59,4.59,0,0,1-1.02-3.152v-.242a5.089,5.089,0,0,1,.453-2.2,3.451,3.451,0,0,1,1.3-1.492,3.7,3.7,0,0,1,2-.531,3.39,3.39,0,0,1,2.363.852,3.043,3.043,0,0,1,1,2.211H63.068a1.992,1.992,0,0,0-.621-1.348,1.932,1.932,0,0,0-1.379-.527,2.023,2.023,0,0,0-1.707.793,3.724,3.724,0,0,0-.605,2.293v.273a3.65,3.65,0,0,0,.6,2.25A2.033,2.033,0,0,0,61.075,61.977ZM67.63,63H66.185V54.547H67.63ZM66.068,52.3a.863.863,0,0,1,.215-.594.807.807,0,0,1,.637-.242.819.819,0,0,1,.641.242.854.854,0,0,1,.219.594.826.826,0,0,1-.219.586.834.834,0,0,1-.641.234.821.821,0,0,1-.637-.234A.834.834,0,0,1,66.068,52.3ZM75.161,63a3.036,3.036,0,0,1-.2-.891,3.225,3.225,0,0,1-2.406,1.047,2.984,2.984,0,0,1-2.051-.707,2.288,2.288,0,0,1-.8-1.793,2.39,2.39,0,0,1,1-2.051,4.733,4.733,0,0,1,2.824-.73h1.406v-.664A1.623,1.623,0,0,0,74.482,56a1.821,1.821,0,0,0-1.336-.449,2.107,2.107,0,0,0-1.3.391,1.151,1.151,0,0,0-.523.945H69.872a2,2,0,0,1,.449-1.223,3.066,3.066,0,0,1,1.219-.934,4.1,4.1,0,0,1,1.691-.344,3.342,3.342,0,0,1,2.289.73,2.635,2.635,0,0,1,.859,2.012v3.891a4.757,4.757,0,0,0,.3,1.852V63Zm-2.4-1.1a2.54,2.54,0,0,0,1.289-.352,2.127,2.127,0,0,0,.883-.914V58.9H73.8q-2.656,0-2.656,1.555a1.316,1.316,0,0,0,.453,1.063A1.742,1.742,0,0,0,72.763,61.9Zm10.8-1.141a1.064,1.064,0,0,0-.441-.91,4.249,4.249,0,0,0-1.539-.559,7.277,7.277,0,0,1-1.742-.562,2.479,2.479,0,0,1-.953-.781,1.869,1.869,0,0,1-.309-1.078,2.193,2.193,0,0,1,.879-1.758,3.432,3.432,0,0,1,2.246-.719,3.532,3.532,0,0,1,2.332.742,2.357,2.357,0,0,1,.895,1.9H83.482a1.3,1.3,0,0,0-.5-1.023,1.888,1.888,0,0,0-1.27-.43,1.976,1.976,0,0,0-1.234.344,1.082,1.082,0,0,0-.445.9.877.877,0,0,0,.414.789,5.1,5.1,0,0,0,1.5.508,7.8,7.8,0,0,1,1.754.578,2.558,2.558,0,0,1,1,.809,1.988,1.988,0,0,1,.324,1.152,2.163,2.163,0,0,1-.906,1.816,3.8,3.8,0,0,1-2.352.684,4.257,4.257,0,0,1-1.8-.359,2.922,2.922,0,0,1-1.223-1,2.42,2.42,0,0,1-.441-1.395H79.74a1.5,1.5,0,0,0,.582,1.152,2.258,2.258,0,0,0,1.434.426,2.331,2.331,0,0,0,1.316-.332A1.02,1.02,0,0,0,83.568,60.758ZM96.075,63a3.036,3.036,0,0,1-.2-.891,3.225,3.225,0,0,1-2.406,1.047,2.984,2.984,0,0,1-2.051-.707,2.288,2.288,0,0,1-.8-1.793,2.39,2.39,0,0,1,1-2.051,4.733,4.733,0,0,1,2.824-.73h1.406v-.664A1.623,1.623,0,0,0,95.4,56a1.821,1.821,0,0,0-1.336-.449,2.107,2.107,0,0,0-1.3.391,1.151,1.151,0,0,0-.523.945H90.786a2,2,0,0,1,.449-1.223,3.066,3.066,0,0,1,1.219-.934,4.1,4.1,0,0,1,1.691-.344,3.342,3.342,0,0,1,2.289.73,2.635,2.635,0,0,1,.859,2.012v3.891a4.757,4.757,0,0,0,.3,1.852V63Zm-2.4-1.1a2.54,2.54,0,0,0,1.289-.352,2.127,2.127,0,0,0,.883-.914V58.9H94.716q-2.656,0-2.656,1.555a1.316,1.316,0,0,0,.453,1.063A1.742,1.742,0,0,0,93.677,61.9Zm9.461-3.2a4.993,4.993,0,0,1,.488-2.234,3.643,3.643,0,0,1,1.359-1.531,3.7,3.7,0,0,1,1.988-.539,3.565,3.565,0,0,1,2.793,1.2,4.6,4.6,0,0,1,1.066,3.18v.1a5.036,5.036,0,0,1-.473,2.215,3.589,3.589,0,0,1-1.352,1.527,3.743,3.743,0,0,1-2.02.547,3.556,3.556,0,0,1-2.785-1.2,4.575,4.575,0,0,1-1.066-3.164Zm1.453.172a3.616,3.616,0,0,0,.652,2.258,2.211,2.211,0,0,0,3.5-.012,3.955,3.955,0,0,0,.648-2.418,3.61,3.61,0,0,0-.66-2.254,2.1,2.1,0,0,0-1.754-.863,2.075,2.075,0,0,0-1.727.852A3.925,3.925,0,0,0,104.591,58.867ZM114.607,52.5v2.047h1.578v1.117h-1.578v5.249a1.173,1.173,0,0,0,.211.763.888.888,0,0,0,.719.254,3.5,3.5,0,0,0,.688-.094V63a4.215,4.215,0,0,1-1.109.155,1.8,1.8,0,0,1-1.461-.586,2.517,2.517,0,0,1-.492-1.664V55.664h-1.539V54.547h1.539V52.5Zm7.352,3.344a4.331,4.331,0,0,0-.711-.055A1.9,1.9,0,0,0,119.318,57v6h-1.445V54.547h1.406l.023.977a2.251,2.251,0,0,1,2.016-1.133,1.477,1.477,0,0,1,.641.109Zm.789,2.852a4.993,4.993,0,0,1,.488-2.234,3.643,3.643,0,0,1,1.359-1.531,3.7,3.7,0,0,1,1.988-.539,3.565,3.565,0,0,1,2.793,1.2,4.6,4.6,0,0,1,1.066,3.18v.1a5.036,5.036,0,0,1-.473,2.215,3.589,3.589,0,0,1-1.352,1.527,3.743,3.743,0,0,1-2.02.547,3.556,3.556,0,0,1-2.785-1.2,4.575,4.575,0,0,1-1.066-3.164Zm1.453.172a3.616,3.616,0,0,0,.652,2.258,2.211,2.211,0,0,0,3.5-.012A3.954,3.954,0,0,0,129,58.7a3.61,3.61,0,0,0-.66-2.254,2.1,2.1,0,0,0-1.754-.863,2.075,2.075,0,0,0-1.727.852A3.925,3.925,0,0,0,124.2,58.867Zm12.977,1.891a1.064,1.064,0,0,0-.441-.91,4.249,4.249,0,0,0-1.539-.559,7.277,7.277,0,0,1-1.742-.562,2.479,2.479,0,0,1-.953-.781,1.869,1.869,0,0,1-.309-1.078,2.193,2.193,0,0,1,.879-1.758,3.432,3.432,0,0,1,2.246-.719,3.532,3.532,0,0,1,2.332.742,2.357,2.357,0,0,1,.895,1.9h-1.453a1.3,1.3,0,0,0-.5-1.023,1.888,1.888,0,0,0-1.27-.43,1.976,1.976,0,0,0-1.234.344,1.082,1.082,0,0,0-.445.9.877.877,0,0,0,.414.789,5.1,5.1,0,0,0,1.5.508,7.8,7.8,0,0,1,1.754.578,2.558,2.558,0,0,1,1,.809,1.988,1.988,0,0,1,.324,1.152,2.163,2.163,0,0,1-.906,1.816,3.8,3.8,0,0,1-2.352.684,4.257,4.257,0,0,1-1.8-.359,2.922,2.922,0,0,1-1.223-1A2.42,2.42,0,0,1,131.9,60.4h1.445a1.5,1.5,0,0,0,.582,1.152,2.258,2.258,0,0,0,1.434.426,2.331,2.331,0,0,0,1.316-.332A1.02,1.02,0,0,0,137.177,60.758Zm12.211,0a1.064,1.064,0,0,0-.441-.91,4.249,4.249,0,0,0-1.539-.559,7.277,7.277,0,0,1-1.742-.562,2.479,2.479,0,0,1-.953-.781,1.869,1.869,0,0,1-.309-1.078,2.193,2.193,0,0,1,.879-1.758,3.432,3.432,0,0,1,2.246-.719,3.532,3.532,0,0,1,2.332.742,2.357,2.357,0,0,1,.895,1.9H149.3a1.3,1.3,0,0,0-.5-1.023,1.888,1.888,0,0,0-1.27-.43,1.976,1.976,0,0,0-1.234.344,1.082,1.082,0,0,0-.445.9.877.877,0,0,0,.414.789,5.1,5.1,0,0,0,1.5.508,7.8,7.8,0,0,1,1.754.578,2.558,2.558,0,0,1,1,.809,1.988,1.988,0,0,1,.324,1.152,2.163,2.163,0,0,1-.906,1.816,3.8,3.8,0,0,1-2.352.684,4.257,4.257,0,0,1-1.8-.359,2.922,2.922,0,0,1-1.223-1,2.42,2.42,0,0,1-.441-1.395h1.445a1.5,1.5,0,0,0,.582,1.152,2.258,2.258,0,0,0,1.434.426,2.331,2.331,0,0,0,1.316-.332A1.02,1.02,0,0,0,149.388,60.758Zm4.9,2.242h-1.445V54.547h1.445Zm-1.562-10.7a.863.863,0,0,1,.215-.594.807.807,0,0,1,.637-.242.819.819,0,0,1,.641.242.854.854,0,0,1,.219.594.826.826,0,0,1-.219.586.834.834,0,0,1-.641.234.821.821,0,0,1-.637-.234A.834.834,0,0,1,152.724,52.3Zm5.836.2v2.047h1.578v1.117H158.56v5.249a1.173,1.173,0,0,0,.211.763.888.888,0,0,0,.719.254,3.5,3.5,0,0,0,.688-.094V63a4.215,4.215,0,0,1-1.109.155,1.8,1.8,0,0,1-1.461-.586,2.517,2.517,0,0,1-.492-1.664V55.664h-1.539V54.547h1.539V52.5ZM163.4,63H161.95V54.547H163.4Zm-1.562-10.7a.863.863,0,0,1,.215-.594.807.807,0,0,1,.637-.242.819.819,0,0,1,.641.242.854.854,0,0,1,.219.594.826.826,0,0,1-.219.586.834.834,0,0,1-.641.234.821.821,0,0,1-.637-.234A.834.834,0,0,1,161.833,52.3Zm3.492,6.391a4.993,4.993,0,0,1,.488-2.234,3.642,3.642,0,0,1,1.359-1.531,3.7,3.7,0,0,1,1.988-.539,3.565,3.565,0,0,1,2.793,1.2,4.6,4.6,0,0,1,1.066,3.18v.1a5.036,5.036,0,0,1-.473,2.215,3.589,3.589,0,0,1-1.352,1.527,3.743,3.743,0,0,1-2.02.547,3.556,3.556,0,0,1-2.785-1.2,4.575,4.575,0,0,1-1.066-3.164Zm1.453.172a3.616,3.616,0,0,0,.652,2.258,2.211,2.211,0,0,0,3.5-.012,3.954,3.954,0,0,0,.648-2.418,3.61,3.61,0,0,0-.66-2.254,2.1,2.1,0,0,0-1.754-.863,2.075,2.075,0,0,0-1.727.852A3.925,3.925,0,0,0,166.779,58.867Zm12.977,1.891a1.064,1.064,0,0,0-.441-.91,4.249,4.249,0,0,0-1.539-.559,7.277,7.277,0,0,1-1.742-.562,2.479,2.479,0,0,1-.953-.781,1.869,1.869,0,0,1-.309-1.078,2.193,2.193,0,0,1,.879-1.758,3.432,3.432,0,0,1,2.246-.719,3.532,3.532,0,0,1,2.332.742,2.357,2.357,0,0,1,.895,1.9h-1.453a1.3,1.3,0,0,0-.5-1.023,1.888,1.888,0,0,0-1.27-.43,1.976,1.976,0,0,0-1.234.344,1.082,1.082,0,0,0-.445.9.877.877,0,0,0,.414.789,5.1,5.1,0,0,0,1.5.508,7.8,7.8,0,0,1,1.754.578,2.558,2.558,0,0,1,1,.809,1.988,1.988,0,0,1,.324,1.152,2.163,2.163,0,0,1-.906,1.816,3.8,3.8,0,0,1-2.352.684,4.257,4.257,0,0,1-1.8-.359,2.922,2.922,0,0,1-1.223-1,2.42,2.42,0,0,1-.441-1.395h1.445a1.5,1.5,0,0,0,.582,1.152,2.258,2.258,0,0,0,1.434.426,2.331,2.331,0,0,0,1.316-.332A1.02,1.02,0,0,0,179.755,60.758ZM35.907,85.008l1.625-6.461h1.445L36.517,87H35.345L33.29,80.594,31.29,87H30.118l-2.453-8.453H29.1l1.664,6.328,1.969-6.328H33.9Zm8.047,2.148a3.693,3.693,0,0,1-2.8-1.129,4.19,4.19,0,0,1-1.078-3.02v-.266a5.073,5.073,0,0,1,.48-2.246A3.748,3.748,0,0,1,41.9,78.949a3.378,3.378,0,0,1,1.871-.559,3.166,3.166,0,0,1,2.563,1.086,4.7,4.7,0,0,1,.914,3.109v.6H41.525a3,3,0,0,0,.73,2.02,2.3,2.3,0,0,0,1.777.77,2.517,2.517,0,0,0,1.3-.312,3.259,3.259,0,0,0,.93-.828l.883.688A3.55,3.55,0,0,1,43.954,87.156Zm-.18-7.578a1.928,1.928,0,0,0-1.469.637A3.1,3.1,0,0,0,41.572,82h4.234v-.109a2.753,2.753,0,0,0-.594-1.707A1.815,1.815,0,0,0,43.775,79.578Zm12.3,3.289a5.026,5.026,0,0,1-.891,3.113A2.846,2.846,0,0,1,52.8,87.156a2.947,2.947,0,0,1-2.477-1.133l-.07.977H48.923V75h1.445v4.477a2.93,2.93,0,0,1,2.414-1.086A2.863,2.863,0,0,1,55.2,79.555a5.177,5.177,0,0,1,.879,3.188ZM54.634,82.7a3.906,3.906,0,0,0-.57-2.281,1.888,1.888,0,0,0-1.641-.8,2.122,2.122,0,0,0-2.055,1.328V84.6a2.181,2.181,0,0,0,2.07,1.328,1.878,1.878,0,0,0,1.617-.8A4.153,4.153,0,0,0,54.634,82.7Zm3.219,6.563-.82-.562a3.77,3.77,0,0,0,.766-2.109v-1.3h1.414v1.133A3.559,3.559,0,0,1,58.825,88,3.7,3.7,0,0,1,57.853,89.266ZM65.712,87V79.664H64.376V78.547h1.336V77.68a2.878,2.878,0,0,1,.727-2.1,2.745,2.745,0,0,1,2.055-.742,3.816,3.816,0,0,1,.992.132l-.078,1.165a4.151,4.151,0,0,0-.781-.07,1.41,1.41,0,0,0-1.086.411,1.669,1.669,0,0,0-.383,1.18v.893h1.8v1.117h-1.8V87Zm4.461-4.3a4.993,4.993,0,0,1,.488-2.234,3.643,3.643,0,0,1,1.359-1.531,3.7,3.7,0,0,1,1.988-.539,3.565,3.565,0,0,1,2.793,1.2,4.6,4.6,0,0,1,1.066,3.18v.1a5.036,5.036,0,0,1-.473,2.215,3.589,3.589,0,0,1-1.352,1.527,3.743,3.743,0,0,1-2.02.547,3.556,3.556,0,0,1-2.785-1.2A4.575,4.575,0,0,1,70.173,82.8Zm1.453.172a3.616,3.616,0,0,0,.652,2.258,2.211,2.211,0,0,0,3.5-.012,3.955,3.955,0,0,0,.648-2.418,3.61,3.61,0,0,0-.66-2.254,2.1,2.1,0,0,0-1.754-.863,2.075,2.075,0,0,0-1.727.852A3.925,3.925,0,0,0,71.626,82.867Zm12.141-3.023a4.331,4.331,0,0,0-.711-.055A1.9,1.9,0,0,0,81.126,81v6H79.681V78.547h1.406l.023.977a2.251,2.251,0,0,1,2.016-1.133,1.477,1.477,0,0,1,.641.109Zm.789,2.852a4.993,4.993,0,0,1,.488-2.234A3.643,3.643,0,0,1,86.4,78.93a3.7,3.7,0,0,1,1.988-.539,3.565,3.565,0,0,1,2.793,1.2,4.6,4.6,0,0,1,1.066,3.18v.1a5.036,5.036,0,0,1-.473,2.215,3.589,3.589,0,0,1-1.352,1.527,3.743,3.743,0,0,1-2.02.547,3.556,3.556,0,0,1-2.785-1.2A4.575,4.575,0,0,1,84.556,82.8Zm1.453.172a3.616,3.616,0,0,0,.652,2.258,2.211,2.211,0,0,0,3.5-.012,3.955,3.955,0,0,0,.648-2.418,3.61,3.61,0,0,0-.66-2.254,2.1,2.1,0,0,0-1.754-.863,2.075,2.075,0,0,0-1.727.852A3.925,3.925,0,0,0,86.009,82.867Zm12.977,1.891a1.064,1.064,0,0,0-.441-.91,4.249,4.249,0,0,0-1.539-.559,7.277,7.277,0,0,1-1.742-.562,2.478,2.478,0,0,1-.953-.781A1.869,1.869,0,0,1,94,80.867a2.193,2.193,0,0,1,.879-1.758,3.432,3.432,0,0,1,2.246-.719,3.532,3.532,0,0,1,2.332.742,2.357,2.357,0,0,1,.895,1.9H98.9a1.3,1.3,0,0,0-.5-1.023,1.888,1.888,0,0,0-1.27-.43,1.976,1.976,0,0,0-1.234.344,1.082,1.082,0,0,0-.445.9.877.877,0,0,0,.414.789,5.1,5.1,0,0,0,1.5.508,7.8,7.8,0,0,1,1.754.578,2.559,2.559,0,0,1,1,.809,1.988,1.988,0,0,1,.324,1.152,2.163,2.163,0,0,1-.906,1.816,3.8,3.8,0,0,1-2.352.684,4.257,4.257,0,0,1-1.8-.359,2.922,2.922,0,0,1-1.223-1,2.42,2.42,0,0,1-.441-1.395h1.445a1.5,1.5,0,0,0,.582,1.152,2.258,2.258,0,0,0,1.434.426,2.331,2.331,0,0,0,1.316-.332A1.02,1.02,0,0,0,98.986,84.758Zm6.906-2.062a4.993,4.993,0,0,1,.488-2.234,3.643,3.643,0,0,1,1.359-1.531,3.7,3.7,0,0,1,1.988-.539,3.565,3.565,0,0,1,2.793,1.2,4.6,4.6,0,0,1,1.066,3.18v.1a5.036,5.036,0,0,1-.473,2.215,3.589,3.589,0,0,1-1.352,1.527,3.743,3.743,0,0,1-2.02.547,3.556,3.556,0,0,1-2.785-1.2,4.575,4.575,0,0,1-1.066-3.164Zm1.453.172A3.616,3.616,0,0,0,108,85.125a2.211,2.211,0,0,0,3.5-.012,3.955,3.955,0,0,0,.648-2.418,3.61,3.61,0,0,0-.66-2.254,2.1,2.1,0,0,0-1.754-.863A2.075,2.075,0,0,0,108,80.43,3.925,3.925,0,0,0,107.345,82.867Zm16.938,1.891a1.064,1.064,0,0,0-.441-.91,4.249,4.249,0,0,0-1.539-.559,7.277,7.277,0,0,1-1.742-.562,2.478,2.478,0,0,1-.953-.781,1.869,1.869,0,0,1-.309-1.078,2.193,2.193,0,0,1,.879-1.758,3.432,3.432,0,0,1,2.246-.719,3.532,3.532,0,0,1,2.332.742,2.357,2.357,0,0,1,.895,1.9H124.2a1.3,1.3,0,0,0-.5-1.023,1.888,1.888,0,0,0-1.27-.43,1.976,1.976,0,0,0-1.234.344,1.082,1.082,0,0,0-.445.9.877.877,0,0,0,.414.789,5.1,5.1,0,0,0,1.5.508,7.8,7.8,0,0,1,1.754.578,2.559,2.559,0,0,1,1,.809,1.988,1.988,0,0,1,.324,1.152,2.163,2.163,0,0,1-.906,1.816,3.8,3.8,0,0,1-2.352.684,4.257,4.257,0,0,1-1.8-.359,2.922,2.922,0,0,1-1.223-1,2.42,2.42,0,0,1-.441-1.395h1.445a1.5,1.5,0,0,0,.582,1.152,2.258,2.258,0,0,0,1.434.426,2.331,2.331,0,0,0,1.316-.332A1.02,1.02,0,0,0,124.282,84.758Zm4.9,2.242h-1.445V78.547h1.445Zm-1.562-10.7a.863.863,0,0,1,.215-.594.807.807,0,0,1,.637-.242.819.819,0,0,1,.641.242.854.854,0,0,1,.219.594.826.826,0,0,1-.219.586.834.834,0,0,1-.641.234.821.821,0,0,1-.637-.234A.834.834,0,0,1,127.618,76.3Zm5.836.2v2.047h1.578v1.117h-1.578v5.249a1.173,1.173,0,0,0,.211.763.888.888,0,0,0,.719.254,3.5,3.5,0,0,0,.688-.094V87a4.215,4.215,0,0,1-1.109.155,1.8,1.8,0,0,1-1.461-.586,2.517,2.517,0,0,1-.492-1.664V79.664H130.47V78.547h1.539V76.5ZM138.29,87h-1.445V78.547h1.445Zm-1.562-10.7a.863.863,0,0,1,.215-.594.807.807,0,0,1,.637-.242.819.819,0,0,1,.641.242.854.854,0,0,1,.219.594.826.826,0,0,1-.219.586.834.834,0,0,1-.641.234.821.821,0,0,1-.637-.234A.834.834,0,0,1,136.728,76.3ZM140.22,82.7a4.993,4.993,0,0,1,.488-2.234,3.642,3.642,0,0,1,1.359-1.531,3.7,3.7,0,0,1,1.988-.539,3.565,3.565,0,0,1,2.793,1.2,4.6,4.6,0,0,1,1.066,3.18v.1a5.036,5.036,0,0,1-.473,2.215,3.589,3.589,0,0,1-1.352,1.527,3.743,3.743,0,0,1-2.02.547,3.556,3.556,0,0,1-2.785-1.2A4.575,4.575,0,0,1,140.22,82.8Zm1.453.172a3.616,3.616,0,0,0,.652,2.258,2.211,2.211,0,0,0,3.5-.012,3.954,3.954,0,0,0,.648-2.418,3.61,3.61,0,0,0-.66-2.254,2.1,2.1,0,0,0-1.754-.863,2.075,2.075,0,0,0-1.727.852A3.925,3.925,0,0,0,141.673,82.867Zm12.977,1.891a1.064,1.064,0,0,0-.441-.91,4.249,4.249,0,0,0-1.539-.559,7.277,7.277,0,0,1-1.742-.562,2.479,2.479,0,0,1-.953-.781,1.869,1.869,0,0,1-.309-1.078,2.193,2.193,0,0,1,.879-1.758,3.432,3.432,0,0,1,2.246-.719,3.532,3.532,0,0,1,2.332.742,2.357,2.357,0,0,1,.895,1.9h-1.453a1.3,1.3,0,0,0-.5-1.023,1.888,1.888,0,0,0-1.27-.43,1.976,1.976,0,0,0-1.234.344,1.082,1.082,0,0,0-.445.9.877.877,0,0,0,.414.789,5.1,5.1,0,0,0,1.5.508,7.8,7.8,0,0,1,1.754.578,2.558,2.558,0,0,1,1,.809,1.988,1.988,0,0,1,.324,1.152,2.163,2.163,0,0,1-.906,1.816,3.8,3.8,0,0,1-2.352.684,4.257,4.257,0,0,1-1.8-.359,2.922,2.922,0,0,1-1.223-1,2.42,2.42,0,0,1-.441-1.395h1.445a1.5,1.5,0,0,0,.582,1.152,2.258,2.258,0,0,0,1.434.426,2.331,2.331,0,0,0,1.316-.332A1.02,1.02,0,0,0,154.65,84.758Zm3.359,1.484a.905.905,0,0,1,.223-.625.848.848,0,0,1,.668-.25.874.874,0,0,1,.676.25.887.887,0,0,1,.23.625.839.839,0,0,1-.23.6.89.89,0,0,1-.676.242.8.8,0,0,1-.891-.844Z" transform="translate(-718.712 -1770.088)" fill="#12263f"/>
    <path id="Trazado_213453" data-name="Trazado 213453" d="M63.057,12.474h-1.67V17H58.3V4.2h5.036a5.621,5.621,0,0,1,3.56,1.01,3.421,3.421,0,0,1,1.283,2.853,4.155,4.155,0,0,1-.541,2.213A3.837,3.837,0,0,1,65.948,11.7l2.672,5.167V17h-3.3ZM61.387,10.1h1.951a1.751,1.751,0,0,0,1.323-.463A1.788,1.788,0,0,0,65.1,8.347a1.809,1.809,0,0,0-.448-1.3,1.735,1.735,0,0,0-1.318-.471H61.387Zm13.122,7.075a4.889,4.889,0,0,1-3.542-1.305,4.507,4.507,0,0,1-1.354-3.4v-.246a5.84,5.84,0,0,1,.541-2.575,3.955,3.955,0,0,1,1.578-1.727,4.763,4.763,0,0,1,2.461-.611,4.117,4.117,0,0,1,3.164,1.244,4.887,4.887,0,0,1,1.16,3.467v1.151H72.628a2.135,2.135,0,0,0,.694,1.257,2.066,2.066,0,0,0,1.389.457,2.662,2.662,0,0,0,2.2-.984l1.354,1.6a3.784,3.784,0,0,1-1.569,1.217A5.3,5.3,0,0,1,74.509,17.176ZM74.175,9.6q-1.3,0-1.547,1.723h2.988v-.229a1.467,1.467,0,0,0-.36-1.1A1.434,1.434,0,0,0,74.175,9.6ZM80.362,17V9.547h-1.38V7.49h1.38V6.734a3.286,3.286,0,0,1,.958-2.522,3.785,3.785,0,0,1,2.689-.9A5.89,5.89,0,0,1,85.4,3.5l.009,2.18a2.706,2.706,0,0,0-.729-.079q-1.345,0-1.345,1.16V7.49h1.854V9.547H83.333V17Zm10.257.176a4.889,4.889,0,0,1-3.542-1.305,4.507,4.507,0,0,1-1.354-3.4v-.246a5.84,5.84,0,0,1,.541-2.575,3.955,3.955,0,0,1,1.578-1.727A4.763,4.763,0,0,1,90.3,7.314a4.117,4.117,0,0,1,3.164,1.244,4.887,4.887,0,0,1,1.16,3.467v1.151H88.738a2.135,2.135,0,0,0,.694,1.257,2.066,2.066,0,0,0,1.389.457,2.662,2.662,0,0,0,2.2-.984l1.354,1.6A3.784,3.784,0,0,1,92.8,16.723,5.3,5.3,0,0,1,90.619,17.176ZM90.285,9.6q-1.3,0-1.547,1.723h2.988v-.229a1.467,1.467,0,0,0-.36-1.1A1.434,1.434,0,0,0,90.285,9.6Zm11.285.571-.976-.07a1.752,1.752,0,0,0-1.793.879V17H95.84V7.49h2.777l.1,1.222a2.294,2.294,0,0,1,2.083-1.4,2.888,2.888,0,0,1,.826.105Zm5.5,7a4.889,4.889,0,0,1-3.542-1.305,4.507,4.507,0,0,1-1.354-3.4v-.246a5.84,5.84,0,0,1,.541-2.575,3.955,3.955,0,0,1,1.578-1.727,4.763,4.763,0,0,1,2.461-.611,4.117,4.117,0,0,1,3.164,1.244,4.887,4.887,0,0,1,1.16,3.467v1.151h-5.889a2.135,2.135,0,0,0,.694,1.257,2.066,2.066,0,0,0,1.389.457,2.662,2.662,0,0,0,2.2-.984l1.354,1.6a3.784,3.784,0,0,1-1.569,1.217A5.3,5.3,0,0,1,107.072,17.176ZM106.738,9.6q-1.3,0-1.547,1.723h2.988v-.229a1.467,1.467,0,0,0-.36-1.1A1.434,1.434,0,0,0,106.738,9.6Zm8.253-2.109.1,1.116A3.225,3.225,0,0,1,117.8,7.314a2.713,2.713,0,0,1,2.219.888,4.226,4.226,0,0,1,.76,2.672V17h-2.971V11a1.6,1.6,0,0,0-.29-1.059,1.342,1.342,0,0,0-1.055-.338,1.413,1.413,0,0,0-1.292.686V17h-2.962V7.49Zm11.452,7.4a1.317,1.317,0,0,0,.967-.338,1.241,1.241,0,0,0,.334-.945h2.777a3.288,3.288,0,0,1-1.121,2.566,4.168,4.168,0,0,1-2.887,1,4.22,4.22,0,0,1-3.27-1.3,5.125,5.125,0,0,1-1.2-3.6v-.123a5.792,5.792,0,0,1,.532-2.544,3.872,3.872,0,0,1,1.534-1.7,4.573,4.573,0,0,1,2.373-.593,4.116,4.116,0,0,1,2.944,1.028,3.647,3.647,0,0,1,1.09,2.786h-2.777a1.626,1.626,0,0,0-.36-1.134,1.244,1.244,0,0,0-.967-.4q-1.151,0-1.345,1.468a10.357,10.357,0,0,0-.062,1.283,4.068,4.068,0,0,0,.343,1.986A1.187,1.187,0,0,0,126.443,14.891ZM134.9,17h-2.971V7.49H134.9ZM131.752,5.029a1.334,1.334,0,0,1,.457-1.043,1.934,1.934,0,0,1,2.373,0,1.334,1.334,0,0,1,.457,1.043,1.334,1.334,0,0,1-.457,1.043,1.934,1.934,0,0,1-2.373,0A1.334,1.334,0,0,1,131.752,5.029ZM142.079,17a3.344,3.344,0,0,1-.281-.853,2.754,2.754,0,0,1-2.285,1.028,3.374,3.374,0,0,1-2.285-.813,2.588,2.588,0,0,1-.94-2.043,2.66,2.66,0,0,1,1.143-2.338,5.821,5.821,0,0,1,3.322-.791h.914v-.5q0-1.316-1.134-1.316a.927.927,0,0,0-1.055,1.042h-2.962a2.655,2.655,0,0,1,1.173-2.239,4.931,4.931,0,0,1,2.993-.86,4.323,4.323,0,0,1,2.874.888,3.086,3.086,0,0,1,1.081,2.435v4.21a4.311,4.311,0,0,0,.4,2V17Zm-1.854-1.934a1.652,1.652,0,0,0,.918-.237,1.487,1.487,0,0,0,.523-.536V12.772H140.8q-1.547,0-1.547,1.389a.848.848,0,0,0,.272.655A.986.986,0,0,0,140.225,15.066Zm11.03-.738a.684.684,0,0,0-.4-.606,6.016,6.016,0,0,0-1.5-.475,6.853,6.853,0,0,1-1.828-.646,3.062,3.062,0,0,1-1.1-.971,2.319,2.319,0,0,1-.378-1.31,2.628,2.628,0,0,1,1.081-2.158,4.453,4.453,0,0,1,2.83-.848,4.934,4.934,0,0,1,3.023.853,2.666,2.666,0,0,1,1.143,2.241h-2.971q0-1.143-1.2-1.143a1.194,1.194,0,0,0-.782.259.8.8,0,0,0-.316.646.737.737,0,0,0,.387.642,3.654,3.654,0,0,0,1.235.4,10.671,10.671,0,0,1,1.49.378,2.706,2.706,0,0,1,2.145,2.646,2.491,2.491,0,0,1-1.156,2.118,5.068,5.068,0,0,1-2.993.817,5.172,5.172,0,0,1-2.18-.439,3.645,3.645,0,0,1-1.494-1.2,2.707,2.707,0,0,1-.536-1.591h2.769a1.145,1.145,0,0,0,.439.962,1.808,1.808,0,0,0,1.081.3,1.422,1.422,0,0,0,.91-.246A.787.787,0,0,0,151.255,14.328Z" transform="translate(-730.143 -1803.922)" fill="#12263f"/>
    <path id="Trazado_213455" data-name="Trazado 213455" d="M31.084-17.343q0,8.7-3.6,13.31T16.939.576q-6.856,0-10.486-4.523T2.737-16.911v-7.721q0-8.787,3.644-13.338t10.5-4.552q6.856,0,10.486,4.509t3.716,12.949Zm-8.326-8.489q0-5.22-1.426-7.6a4.819,4.819,0,0,0-4.451-2.379,4.734,4.734,0,0,0-4.336,2.264q-1.4,2.264-1.484,7.079v10.208q0,5.133,1.4,7.627a4.755,4.755,0,0,0,4.48,2.494A4.676,4.676,0,0,0,21.347-8.53q1.354-2.393,1.412-7.325Zm15.182,5.2,2.42-21.318H63.869V-35H47.188l-1.037,9.017A13.2,13.2,0,0,1,52.46-27.57q5.992,0,9.392,3.716t3.4,10.4a15.208,15.208,0,0,1-1.714,7.274A12.1,12.1,0,0,1,58.625-1.2,15.334,15.334,0,0,1,51.078.576,16.283,16.283,0,0,1,44.02-.965,12.519,12.519,0,0,1,38.877-5.3a11.817,11.817,0,0,1-2-6.367h8.239a6.154,6.154,0,0,0,1.829,4.076,5.8,5.8,0,0,0,4.105,1.455A5.118,5.118,0,0,0,55.4-8.167a9.409,9.409,0,0,0,1.527-5.747,7.78,7.78,0,0,0-1.757-5.474,6.449,6.449,0,0,0-4.984-1.9,7.207,7.207,0,0,0-4.811,1.556l-.807.749Z" transform="translate(-491.404 -1774.922)" fill="#12263f" opacity="0.273"/>
  </g>
</svg>
