<svg xmlns="http://www.w3.org/2000/svg" xmlns:xlink="http://www.w3.org/1999/xlink" width="360.524" height="291.597" viewBox="0 0 360.524 291.597">
  <defs>
    <filter id="Rectángulo_46669" x="19.122" y="20.189" width="255.091" height="271.408" filterUnits="userSpaceOnUse">
      <feOffset dy="3" input="SourceAlpha"/>
      <feGaussianBlur stdDeviation="3" result="blur"/>
      <feFlood flood-opacity="0.161"/>
      <feComposite operator="in" in2="blur"/>
      <feComposite in="SourceGraphic"/>
    </filter>
    <clipPath id="clip-path">
      <rect id="Rectángulo_52535" data-name="Rectángulo 52535" width="67.428" height="72.577" fill="#12263f"/>
    </clipPath>
  </defs>
  <g id="Grupo_172864" data-name="Grupo 172864" transform="translate(1158.5 1927.383)">
    <g id="Grupo_166659" data-name="Grupo 166659" transform="translate(-1158.5 -1926.208)">
      <path id="Trazado_210944" data-name="Trazado 210944" d="M170.8,4114.393h-1.927c-1.384,0-2.506-.83-2.506-1.854s1.122-1.854,2.506-1.854H170.8c1.384,0,2.506.83,2.506,1.854S172.179,4114.393,170.8,4114.393Zm-21.2,0h-1.927c-1.384,0-2.506-.83-2.506-1.854s1.122-1.854,2.506-1.854h1.927c1.384,0,2.506.83,2.506,1.854S150.978,4114.393,149.595,4114.393Zm-21.2,0h-1.927c-1.384,0-2.506-.83-2.506-1.854s1.122-1.854,2.506-1.854h1.927c1.384,0,2.506.83,2.506,1.854S129.778,4114.393,128.394,4114.393Zm-21.2,0h-1.927c-1.384,0-2.506-.83-2.506-1.854s1.122-1.854,2.506-1.854h1.927c1.384,0,2.506.83,2.506,1.854S108.577,4114.393,107.194,4114.393Zm-21.2,0H84.066c-1.384,0-2.506-.83-2.506-1.854s1.122-1.854,2.506-1.854h1.927c1.384,0,2.506.83,2.506,1.854S87.377,4114.393,85.993,4114.393Zm-21.2,0H62.865c-1.384,0-2.506-.83-2.506-1.854s1.122-1.854,2.506-1.854h1.927c1.384,0,2.506.83,2.506,1.854S66.176,4114.393,64.792,4114.393Zm-21.2,0H41.665c-1.384,0-2.506-.83-2.506-1.854s1.122-1.854,2.506-1.854h1.927c1.384,0,2.506.83,2.506,1.854S44.976,4114.393,43.592,4114.393Zm-21.2,0H20.464c-1.384,0-2.506-.83-2.506-1.854s1.122-1.854,2.506-1.854h1.927c1.384,0,2.506.83,2.506,1.854S23.775,4114.393,22.391,4114.393Zm-21.2,0H-.736c-1.384,0-2.506-.83-2.506-1.854s1.122-1.854,2.506-1.854H1.191c1.384,0,2.506.83,2.506,1.854S2.575,4114.393,1.191,4114.393Zm-21.2,0h-1.927c-1.384,0-2.506-.83-2.506-1.854s1.122-1.854,2.506-1.854h1.927c1.384,0,2.506.83,2.506,1.854S-18.626,4114.393-20.01,4114.393Zm-21.2-.046c-.058,0-.116,0-.175,0-.7-.036-1.406-.09-2.1-.164-1.37-.145-2.321-1.084-2.125-2.1a2.493,2.493,0,0,1,2.835-1.573c.571.061,1.154.106,1.733.136,1.381.07,2.423.956,2.328,1.977A2.317,2.317,0,0,1-41.205,4114.347Zm219.1-.674a2.518,2.518,0,0,1-2.41-1.352c-.375-.985.4-2.009,1.732-2.287.559-.116,1.117-.25,1.658-.4a2.816,2.816,0,0,1,3.21,1.11c.473.962-.2,2.025-1.5,2.375-.656.176-1.332.337-2.009.479A3.34,3.34,0,0,1,177.894,4113.672Zm-237.439-6.3a2.925,2.925,0,0,1-1.931-.671c-.448-.4-.88-.816-1.285-1.238a1.572,1.572,0,0,1,.589-2.585,3.109,3.109,0,0,1,3.494.436c.335.349.692.692,1.062,1.022a1.548,1.548,0,0,1-.332,2.61A3.075,3.075,0,0,1-59.545,4107.374Zm253.474-3.294a3.217,3.217,0,0,1-1.17-.216c-1.223-.479-1.69-1.6-1.042-2.505.271-.379.525-.769.757-1.161a2.9,2.9,0,0,1,3.3-.954c1.268.41,1.845,1.5,1.29,2.441-.281.475-.59.949-.919,1.408A2.729,2.729,0,0,1,193.929,4104.08Zm-259.475-11.346c-1.384,0-2.506-.83-2.506-1.854v-1.426c0-1.024,1.122-1.854,2.506-1.854s2.506.83,2.506,1.854v1.426C-63.041,4091.9-64.163,4092.734-65.546,4092.734Zm262.5-3.972c-1.384,0-2.506-.83-2.506-1.854v-1.426c0-1.024,1.122-1.854,2.506-1.854s2.506.83,2.506,1.854v1.426C199.46,4087.931,198.339,4088.761,196.955,4088.761Zm-262.5-11.713c-1.384,0-2.506-.83-2.506-1.854v-1.426c0-1.024,1.122-1.854,2.506-1.854s2.506.83,2.506,1.854v1.426C-63.041,4076.219-64.163,4077.049-65.546,4077.049Zm262.5-3.972c-1.384,0-2.506-.83-2.506-1.854V4069.8c0-1.024,1.122-1.854,2.506-1.854s2.506.83,2.506,1.854v1.426C199.46,4072.247,198.339,4073.076,196.955,4073.076Zm-262.5-11.713c-1.384,0-2.506-.829-2.506-1.854v-1.426c0-1.024,1.122-1.854,2.506-1.854s2.506.83,2.506,1.854v1.426C-63.041,4060.534-64.163,4061.364-65.546,4061.364Zm262.5-3.972c-1.384,0-2.506-.83-2.506-1.854v-1.426c0-1.024,1.122-1.854,2.506-1.854s2.506.83,2.506,1.854v1.426C199.46,4056.562,198.339,4057.391,196.955,4057.391Zm-262.5-11.712c-1.384,0-2.506-.83-2.506-1.854V4042.4c0-1.024,1.122-1.854,2.506-1.854s2.506.83,2.506,1.854v1.425C-63.041,4044.849-64.163,4045.679-65.546,4045.679Zm262.5-3.972c-1.384,0-2.506-.83-2.506-1.854v-1.426c0-1.024,1.122-1.854,2.506-1.854s2.506.83,2.506,1.854v1.426C199.46,4040.876,198.339,4041.707,196.955,4041.707Zm-262.5-11.713c-1.384,0-2.506-.83-2.506-1.854v-1.426c0-1.024,1.122-1.854,2.506-1.854s2.506.83,2.506,1.854v1.426C-63.041,4029.164-64.163,4029.994-65.546,4029.994Zm262.5-3.972c-1.384,0-2.506-.83-2.506-1.854v-1.426c0-1.024,1.122-1.854,2.506-1.854s2.506.83,2.506,1.854v1.426C199.46,4025.191,198.339,4026.021,196.955,4026.021Zm-262.5-11.713c-1.384,0-2.506-.83-2.506-1.854v-1.426c0-1.024,1.122-1.854,2.506-1.854s2.506.83,2.506,1.854v1.426C-63.041,4013.479-64.163,4014.309-65.546,4014.309Zm262.5-3.972c-1.384,0-2.506-.83-2.506-1.854v-1.426c0-1.024,1.122-1.854,2.506-1.854s2.506.83,2.506,1.854v1.426C199.46,4009.506,198.339,4010.336,196.955,4010.336Zm-262.5-11.713c-1.384,0-2.506-.83-2.506-1.854v-1.426c0-1.023,1.122-1.854,2.506-1.854s2.506.83,2.506,1.854v1.426C-63.041,3997.794-64.163,3998.624-65.546,3998.624Zm262.5-3.973c-1.384,0-2.506-.83-2.506-1.854v-1.426c0-1.024,1.122-1.854,2.506-1.854s2.506.83,2.506,1.854v1.426C199.46,3993.821,198.339,3994.651,196.955,3994.651Zm-262.5-11.712c-1.384,0-2.506-.83-2.506-1.854v-1.426c0-1.024,1.122-1.854,2.506-1.854s2.506.83,2.506,1.854v1.426C-63.041,3982.109-64.163,3982.938-65.546,3982.938Zm262.5-3.972c-1.384,0-2.506-.83-2.506-1.854v-1.426c0-1.024,1.122-1.854,2.506-1.854s2.506.83,2.506,1.854v1.426C199.46,3978.136,198.339,3978.966,196.955,3978.966Zm-262.5-11.713c-1.384,0-2.506-.83-2.506-1.854v-1.426c0-1.024,1.122-1.854,2.506-1.854s2.506.83,2.506,1.854v1.426C-63.041,3966.424-64.163,3967.253-65.546,3967.253Zm262.5-3.972c-1.384,0-2.506-.83-2.506-1.854V3960c0-1.024,1.122-1.854,2.506-1.854s2.506.83,2.506,1.854v1.426C199.46,3962.451,198.339,3963.281,196.955,3963.281Zm-262.5-11.713c-1.384,0-2.506-.83-2.506-1.854v-1.426c0-1.024,1.122-1.854,2.506-1.854s2.506.83,2.506,1.854v1.426C-63.041,3950.739-64.163,3951.569-65.546,3951.569Zm262.5-3.972c-1.384,0-2.506-.83-2.506-1.854v-1.426c0-1.024,1.122-1.854,2.506-1.854s2.506.83,2.506,1.854v1.426C199.46,3946.766,198.339,3947.6,196.955,3947.6Zm-262.5-11.713c-1.384,0-2.506-.83-2.506-1.854V3932.6c0-1.024,1.122-1.854,2.506-1.854s2.506.83,2.506,1.854v1.426C-63.041,3935.053-64.163,3935.883-65.546,3935.883Zm262.5-3.972c-1.384,0-2.506-.83-2.506-1.854v-1.426c0-1.024,1.122-1.854,2.506-1.854s2.506.83,2.506,1.854v1.426C199.46,3931.081,198.339,3931.911,196.955,3931.911Zm-262.5-11.713c-1.384,0-2.506-.83-2.506-1.854v-1.426c0-1.024,1.122-1.854,2.506-1.854s2.506.83,2.506,1.854v1.426C-63.041,3919.368-64.163,3920.2-65.546,3920.2Zm262.5-3.972c-1.384,0-2.506-.83-2.506-1.854v-1.426c0-1.024,1.122-1.854,2.506-1.854s2.506.83,2.506,1.854v1.426C199.46,3915.4,198.339,3916.226,196.955,3916.226Zm-262.5-11.713c-1.384,0-2.506-.83-2.506-1.854v-1.426c0-1.024,1.122-1.854,2.506-1.854s2.506.83,2.506,1.854v1.426C-63.041,3903.683-64.163,3904.513-65.546,3904.513Zm262.5-3.972c-1.384,0-2.506-.83-2.506-1.854v-1.426c0-1.024,1.122-1.854,2.506-1.854s2.506.83,2.506,1.854v1.426C199.46,3899.711,198.339,3900.541,196.955,3900.541Zm-262.5-11.713c-1.384,0-2.506-.83-2.506-1.854v-1.426c0-1.024,1.122-1.854,2.506-1.854s2.506.83,2.506,1.854v1.426C-63.041,3888-64.163,3888.828-65.546,3888.828Zm262.5-3.972c-1.384,0-2.506-.83-2.506-1.854v-.359c0-.321-.012-.646-.035-.966-.075-1.022.984-1.9,2.366-1.951s2.563.728,2.638,1.75c.028.386.043.779.043,1.167V3883C199.46,3884.026,198.339,3884.856,196.955,3884.856Zm-258.136-11.07a3.149,3.149,0,0,1-1.386-.311,1.586,1.586,0,0,1-.7-2.57c.389-.432.8-.858,1.233-1.268a3.132,3.132,0,0,1,3.516-.326,1.557,1.557,0,0,1,.441,2.6c-.355.338-.7.69-1.019,1.047A2.828,2.828,0,0,1-61.181,3873.786Zm250.358-3.059a3.005,3.005,0,0,1-1.761-.535c-.41-.3-.842-.593-1.284-.872a1.545,1.545,0,0,1-.281-2.613,3.15,3.15,0,0,1,3.532-.208c.535.337,1.058.693,1.555,1.056a1.538,1.538,0,0,1,.02,2.622A3,3,0,0,1,189.177,3870.727Zm-233.1-5.294a2.416,2.416,0,0,1-2.465-1.535c-.238-1.008.673-1.969,2.036-2.145.692-.09,1.4-.161,2.092-.212,1.373-.1,2.6.642,2.741,1.661s-.869,1.927-2.246,2.028c-.574.042-1.153.1-1.724.175A3.363,3.363,0,0,1-43.925,3865.434Zm213.911-.291h-1.927c-1.384,0-2.506-.83-2.506-1.854s1.122-1.854,2.506-1.854h1.927c1.384,0,2.506.83,2.506,1.854S171.369,3865.143,169.986,3865.143Zm-21.2,0h-1.927c-1.384,0-2.506-.83-2.506-1.854s1.122-1.854,2.506-1.854h1.927c1.384,0,2.506.83,2.506,1.854S150.169,3865.143,148.785,3865.143Zm-21.2,0h-1.927c-1.384,0-2.506-.83-2.506-1.854s1.122-1.854,2.506-1.854h1.927c1.384,0,2.506.83,2.506,1.854S128.969,3865.143,127.585,3865.143Zm-21.2,0h-1.927c-1.384,0-2.506-.83-2.506-1.854s1.122-1.854,2.506-1.854h1.927c1.384,0,2.506.83,2.506,1.854S107.768,3865.143,106.384,3865.143Zm-21.2,0H83.257c-1.384,0-2.506-.83-2.506-1.854s1.122-1.854,2.506-1.854h1.927c1.384,0,2.506.83,2.506,1.854S86.568,3865.143,85.184,3865.143Zm-21.2,0H62.056c-1.384,0-2.506-.83-2.506-1.854s1.122-1.854,2.506-1.854h1.927c1.384,0,2.506.83,2.506,1.854S65.367,3865.143,63.983,3865.143Zm-21.2,0H40.856c-1.384,0-2.506-.83-2.506-1.854s1.122-1.854,2.506-1.854h1.927c1.384,0,2.506.83,2.506,1.854S44.167,3865.143,42.783,3865.143Zm-21.2,0H19.655c-1.384,0-2.506-.83-2.506-1.854s1.122-1.854,2.506-1.854h1.927c1.384,0,2.506.83,2.506,1.854S22.966,3865.143,21.582,3865.143Zm-21.2,0H-1.546c-1.384,0-2.506-.83-2.506-1.854s1.122-1.854,2.506-1.854H.382c1.384,0,2.506.83,2.506,1.854S1.766,3865.143.382,3865.143Zm-21.2,0h-1.927c-1.384,0-2.506-.83-2.506-1.854s1.122-1.854,2.506-1.854h1.927c1.384,0,2.506.83,2.506,1.854S-19.435,3865.143-20.819,3865.143Z" transform="translate(68.052 -3861.436)" fill="#eeac3a"/>
    </g>
    <path id="Trazado_210945" data-name="Trazado 210945" d="M419.852,3858.387h-115.9c-5.565,0-10.077,3.331-10.077,7.439V4105.08c0,4.108,4.512,7.439,10.077,7.439H419.872a11.374,11.374,0,0,0,8.391-3.319,7.125,7.125,0,0,0,.528-.683l86.094-122.612-86.1-123.5a7.079,7.079,0,0,0-.527-.685A11.36,11.36,0,0,0,419.852,3858.387Z" transform="translate(-1312.862 -5785.77)" fill="#eeac3a"/>
    <g id="Grupo_166662" data-name="Grupo 166662" transform="translate(-1130.758 -1900.434)" opacity="0.2" style="mix-blend-mode: multiply;isolation: isolate">
      <g id="Grupo_166661" data-name="Grupo 166661" transform="translate(0 0)">
        <g id="Grupo_166660" data-name="Grupo 166660">
          <rect id="Rectángulo_46668" data-name="Rectángulo 46668" width="237.091" height="243.133" rx="20"/>
        </g>
      </g>
    </g>
    <g id="Grupo_166672" data-name="Grupo 166672" transform="translate(-1090.448 -5785.77)">
      <g id="Grupo_166664" data-name="Grupo 166664" transform="translate(-39.93 3884.576)">
        <g id="Grupo_166663" data-name="Grupo 166663" transform="translate(0)">
          <g transform="matrix(1, 0, 0, 1, -28.12, -26.19)" filter="url(#Rectángulo_46669)">
            <rect id="Rectángulo_46669-2" data-name="Rectángulo 46669" width="237.091" height="253.408" rx="20" transform="translate(28.12 26.19)" fill="#fff"/>
          </g>
        </g>
      </g>
      <g id="Grupo_166665" data-name="Grupo 166665" transform="translate(-39.929 3892.794)">
        <path id="Trazado_210946" data-name="Trazado 210946" d="M233.778,3966.04v208.412c0,10.157-9.523,18.389-21.273,18.389H26.175c-11.746,0-21.269-8.231-21.269-18.389V3966.04c0-10.157,9.523-18.389,21.269-18.389H212.5C224.255,3947.651,233.778,3955.883,233.778,3966.04Z" transform="translate(-4.906 -3947.651)" fill="#f7f7f7"/>
      </g>
    </g>
    <g id="Grupo_171264" data-name="Grupo 171264" transform="translate(-1052.706 -1882.489)">
      <g id="Grupo_171263" data-name="Grupo 171263" clip-path="url(#clip-path)">
        <path id="Trazado_212289" data-name="Trazado 212289" d="M0,25.788a1.053,1.053,0,0,0,.128-.239,5.807,5.807,0,0,1,5.9-4.692c3.375-.007,6.751,0,10.126,0h.851V16.713c0-.354-.011-.709,0-1.062a1.107,1.107,0,0,1,1.065-1.179,1.074,1.074,0,0,1,1.061,1.164c.017,1.558.006,3.117.009,4.675,0,.139.014.279.024.481H34.1V18.276c-.306,0-.582,0-.859,0a1.338,1.338,0,0,1-1.477-1.367q-.057-1.911,0-3.824a1.326,1.326,0,0,1,1.415-1.357c.3-.015.6,0,.929,0a8.093,8.093,0,0,1,2.1-5.422,8.2,8.2,0,0,1,6.91-2.565A1.36,1.36,0,0,1,44.453,5.2c.02,1.227.023,2.456,0,3.683a1.394,1.394,0,0,1-1.493,1.444c-.354.011-.71-.016-1.062.013-.711.06-1.081.5-1.094,1.381.272,0,.544-.009.815,0a1.315,1.315,0,0,1,1.449,1.451c.015,1.18.011,2.361,0,3.542-.009,1.09-.472,1.548-1.55,1.56-.231,0-.462,0-.78,0,0,1.538,0,3.016.007,4.494a.706.706,0,0,0,.161.379,6.088,6.088,0,0,1,1.175,4.127c-.026.531,0,1.064,0,1.8.4-.506.685-.836.929-1.2a2.758,2.758,0,0,1,2.531-1.248c2.5.036,5,.015,7.506.011a3.659,3.659,0,0,0,3.906-3.887q.006-8.394,0-16.788a3.645,3.645,0,0,0-3.808-3.842q-15.083-.01-30.165,0A3.663,3.663,0,0,0,19.153,5.9c-.029,1.44,0,2.88-.009,4.321,0,.848-.38,1.311-1.041,1.321s-1.1-.5-1.09-1.36a45.177,45.177,0,0,1,.129-5.3A5.466,5.466,0,0,1,21.5.142,2.1,2.1,0,0,0,21.813,0H54.25a6.342,6.342,0,0,1,3.775,2.426,5.284,5.284,0,0,1,1.043,3.028c.006,5.974.042,11.948-.017,17.921a5.639,5.639,0,0,1-5.527,5.379c-2.62.022-5.24.016-7.86,0a1.085,1.085,0,0,0-1.01.492A11.452,11.452,0,0,1,43.2,31.155c-1.469,1.36-1.116,3.059-1.083,4.808h.875q9.171,0,18.341,0a5.72,5.72,0,0,1,6.008,4.957,7.8,7.8,0,0,1,.055,1.764,1,1,0,0,1-1.106.952.976.976,0,0,1-.994-.989c-.048-.563-.03-1.136-.133-1.688a3.5,3.5,0,0,0-3.272-2.842c-6.491-.028-12.983-.013-19.474-.012a1.96,1.96,0,0,0-.3.05v3.277c.241.014.488.039.735.04,2.431,0,4.863-.006,7.294,0a4.923,4.923,0,0,1,5.215,5.247q.007,3.754,0,7.509a4.844,4.844,0,0,1-4.86,5.159c-2.876.086-5.76.076-8.636-.03A4.761,4.761,0,0,1,37.4,54.637c-.019-1.44,0-2.881-.005-4.321v-.643c-3.05,0-6.02,0-8.989,0a.879.879,0,0,0-.923.948c-.028,2.9-.082,5.811.022,8.712a3.585,3.585,0,0,0,3.79,3.271c2.5.023,5,.04,7.506-.009a3,3,0,0,1,2.7,1.339c1.57,2.151,3.2,4.258,4.86,6.455.9-1.192,1.767-2.329,2.628-3.469.782-1.036,1.573-2.065,2.337-3.114A2.731,2.731,0,0,1,53.744,62.6c2.455.034,4.91.013,7.365.01,2.69,0,4.174-1.478,4.176-4.149,0-3.471-.012-6.942.018-10.413a1.714,1.714,0,0,1,.414-1.117,1.057,1.057,0,0,1,1.011-.13,1.55,1.55,0,0,1,.654,1.039c.076,1.365.031,2.737.031,4.107,0,2.29.008,4.581,0,6.871A5.8,5.8,0,0,1,61.5,64.74c-2.478.011-4.957.016-7.435-.009a1.263,1.263,0,0,0-1.177.567c-1.508,2.054-3.059,4.077-4.6,6.11-1.174,1.554-2.667,1.56-3.841.008-1.509-1.994-3.027-3.982-4.5-6a1.52,1.52,0,0,0-1.408-.688c-2.407.036-4.815.021-7.223.013a5.765,5.765,0,0,1-5.97-5.915c-.018-1.791,0-3.582,0-5.587-.281.35-.451.551-.61.762-.655.866-1.289,1.748-1.963,2.6a2.1,2.1,0,0,1-3.45-.02c-.38-.481-.753-.97-1.106-1.471a1.081,1.081,0,0,1,.179-1.57,1.047,1.047,0,0,1,1.5.257c.2.232.372.488.559.731s.375.482.605.779c.735-.969,1.448-1.9,2.156-2.841.939-1.243,1.89-2.476,2.805-3.736A2.832,2.832,0,0,1,28.5,47.5c2.5.019,5,.015,7.506,0a3.64,3.64,0,0,0,3.947-3.975q0-8.288,0-16.576a3.625,3.625,0,0,0-3.86-3.928Q21.043,23,6,23.02a3.64,3.64,0,0,0-3.854,3.874q-.017,8.359,0,16.718a3.643,3.643,0,0,0,3.908,3.88c2.455,0,4.91.024,7.365-.009a2.962,2.962,0,0,1,2.768,1.371c.216.337.493.634.708.972a1.025,1.025,0,0,1-.2,1.448,1.061,1.061,0,0,1-1.511-.193.477.477,0,0,1-.087-.111c-.546-1.191-1.51-1.367-2.723-1.326-2.333.078-4.676.083-7.006-.044A5.611,5.611,0,0,1,.142,45.076a1.591,1.591,0,0,0-.142-.3V25.788M42.1,43.636a5.9,5.9,0,0,1-2.368,4.911.886.886,0,0,0-.2.621q-.023,2.586-.005,5.171a2.761,2.761,0,0,0,2.932,2.923q3.824.01,7.649,0a2.785,2.785,0,0,0,3.1-3.1q.015-2.727,0-5.455a27.928,27.928,0,0,0-.08-2.828,2.51,2.51,0,0,0-2.313-2.227c-2.876-.053-5.754-.018-8.716-.018M40.915,13.862c-.4,0-.732.021-1.059,0a1.174,1.174,0,0,1-1.2-.915c-.429-2.105.387-4.057,2.491-4.65a8.169,8.169,0,0,1,1.108-.158V5.961a5.5,5.5,0,0,0-5.7,3.976,12.462,12.462,0,0,0-.284,2.513,1.31,1.31,0,0,1-1.4,1.413c-.3.01-.593,0-.9,0v2.292c.238,0,.425,0,.611,0,1.317.01,1.681.371,1.683,1.673,0,.986,0,1.973,0,2.945l2.293.463c0-1.252-.016-2.453.005-3.652a1.294,1.294,0,0,1,1.455-1.429c.3,0,.59,0,.9,0Z" fill="#12263f"/>
        <path id="Trazado_212290" data-name="Trazado 212290" d="M55.21,193.165c-.1-.2-.211-.406-.3-.622a1.19,1.19,0,0,1,1.083-1.7,3.669,3.669,0,0,0,3.03-1.244,5.923,5.923,0,0,1,9.579,2.37c.074.2.143.4.233.644a7.734,7.734,0,0,0,4.393-2.89c.1-.131.189-.271.287-.4.836-1.132,2.011-1.044,2.6.225a9.987,9.987,0,0,1-.134,9.063c-.1.211-.227.412-.339.62-.009.017,0,.046.023.172.448-.1.893-.191,1.332-.3a1.39,1.39,0,0,1,1.594.442,1.367,1.367,0,0,1,.045,1.65c-2.224,3.744-5.517,5.581-9.853,5.175a9.815,9.815,0,0,1-8.476-6.371,4.754,4.754,0,0,0-.824-1.068c-.606-.713-1.276-1.377-1.816-2.136-.269-.378-.444-.724-.96-.8a2.805,2.805,0,0,1-.9-.391c-1.163-.655-1.324-1.311-.6-2.426M75.764,201.6c-.588,0-1.011.012-1.432,0-.7-.024-1.452.064-1.832-.75-.39-.837.229-1.3.664-1.849a7.723,7.723,0,0,0,1.36-7.486,4.19,4.19,0,0,0-.536.57,10.069,10.069,0,0,1-5.377,2.782c-1.147.217-1.616-.124-1.791-1.272a3.91,3.91,0,0,0-3.04-3.336,3.809,3.809,0,0,0-4,1.659,1.7,1.7,0,0,1-1.743,1.026v1.09a1.388,1.388,0,0,1,1.253,1.1,4.13,4.13,0,0,0,1.909,2.356,2.325,2.325,0,0,1,.9,1.1,7.944,7.944,0,0,0,8.31,5.675,7.734,7.734,0,0,0,5.353-2.66" transform="translate(-47 -161.332)" fill="#12263f"/>
        <path id="Trazado_212291" data-name="Trazado 212291" d="M302.443,327.274a3.991,3.991,0,1,1-3.992,4.008,4.008,4.008,0,0,1,3.992-4.008m.009,5.844a1.853,1.853,0,0,0,.047-3.706,1.853,1.853,0,1,0-.047,3.706" transform="translate(-256.09 -280.822)" fill="#12263f"/>
        <path id="Trazado_212292" data-name="Trazado 212292" d="M350.724,317.562a1.2,1.2,0,1,1-2.39-.015,1.157,1.157,0,0,1,1.164-1.156,1.172,1.172,0,0,1,1.226,1.171" transform="translate(-298.893 -271.484)" fill="#12263f"/>
        <path id="Trazado_212293" data-name="Trazado 212293" d="M100.13,221.381a1.188,1.188,0,0,1-1.23-1.174,1.236,1.236,0,0,1,1.207-1.218,1.213,1.213,0,0,1,1.181,1.16,1.161,1.161,0,0,1-1.159,1.231" transform="translate(-84.863 -187.906)" fill="#12263f"/>
      </g>
    </g>
    <path id="Trazado_213449" data-name="Trazado 213449" d="M7.984,9.93A7.053,7.053,0,0,1,5.176,8.566a2.6,2.6,0,0,1-.879-2A2.751,2.751,0,0,1,5.371,4.348a4.269,4.269,0,0,1,2.793-.879,4.66,4.66,0,0,1,2.09.453,3.436,3.436,0,0,1,1.422,1.25,3.2,3.2,0,0,1,.5,1.742H10.672a2.08,2.08,0,0,0-.656-1.627A2.669,2.669,0,0,0,8.164,4.7a2.732,2.732,0,0,0-1.73.489,1.632,1.632,0,0,0-.621,1.358A1.468,1.468,0,0,0,6.4,7.72,5.785,5.785,0,0,0,8.41,8.6a9.316,9.316,0,0,1,2.219.88A3.367,3.367,0,0,1,11.816,10.6a2.861,2.861,0,0,1,.387,1.508,2.658,2.658,0,0,1-1.078,2.215,4.6,4.6,0,0,1-2.883.832,5.347,5.347,0,0,1-2.187-.449,3.681,3.681,0,0,1-1.566-1.23A3,3,0,0,1,3.938,11.7H5.445a1.959,1.959,0,0,0,.762,1.629,3.207,3.207,0,0,0,2.035.6,2.948,2.948,0,0,0,1.82-.484,1.573,1.573,0,0,0,.633-1.32,1.545,1.545,0,0,0-.586-1.293A6.755,6.755,0,0,0,7.984,9.93Zm5.531.766A4.993,4.993,0,0,1,14,8.461,3.643,3.643,0,0,1,15.363,6.93a3.7,3.7,0,0,1,1.988-.539,3.565,3.565,0,0,1,2.793,1.2,4.6,4.6,0,0,1,1.066,3.18v.1a5.036,5.036,0,0,1-.473,2.215,3.589,3.589,0,0,1-1.352,1.527,3.743,3.743,0,0,1-2.02.547,3.556,3.556,0,0,1-2.785-1.2A4.575,4.575,0,0,1,13.516,10.8Zm1.453.172a3.616,3.616,0,0,0,.652,2.258,2.211,2.211,0,0,0,3.5-.012,3.955,3.955,0,0,0,.648-2.418,3.61,3.61,0,0,0-.66-2.254,2.1,2.1,0,0,0-1.754-.863,2.075,2.075,0,0,0-1.727.852A3.925,3.925,0,0,0,14.969,10.867Zm9.422-4.32.047,1.063a3.08,3.08,0,0,1,2.531-1.219q2.68,0,2.7,3.023V15H28.227V9.406a1.946,1.946,0,0,0-.418-1.352,1.675,1.675,0,0,0-1.277-.437,2.086,2.086,0,0,0-1.234.375,2.546,2.546,0,0,0-.828.984V15H23.023V6.547ZM39.2,13.977a2.082,2.082,0,0,0,1.352-.469,1.649,1.649,0,0,0,.641-1.172h1.367a2.621,2.621,0,0,1-.5,1.383,3.293,3.293,0,0,1-1.23,1.047,3.55,3.55,0,0,1-1.629.391A3.482,3.482,0,0,1,36.457,14a4.59,4.59,0,0,1-1.02-3.152v-.242a5.089,5.089,0,0,1,.453-2.2,3.451,3.451,0,0,1,1.3-1.492,3.7,3.7,0,0,1,2-.531,3.39,3.39,0,0,1,2.363.852,3.043,3.043,0,0,1,1,2.211H41.2a1.992,1.992,0,0,0-.621-1.348A1.932,1.932,0,0,0,39.2,7.578a2.023,2.023,0,0,0-1.707.793,3.724,3.724,0,0,0-.605,2.293v.273a3.65,3.65,0,0,0,.6,2.25A2.033,2.033,0,0,0,39.2,13.977ZM45.758,15H44.313V3h1.445Zm3.883,0H48.2V6.547h1.445ZM48.078,4.3a.863.863,0,0,1,.215-.594.807.807,0,0,1,.637-.242.819.819,0,0,1,.641.242.854.854,0,0,1,.219.594.826.826,0,0,1-.219.586.834.834,0,0,1-.641.234.821.821,0,0,1-.637-.234A.834.834,0,0,1,48.078,4.3Zm7.383,10.852a3.693,3.693,0,0,1-2.8-1.129,4.19,4.19,0,0,1-1.078-3.02v-.266a5.073,5.073,0,0,1,.48-2.246A3.748,3.748,0,0,1,53.41,6.949a3.378,3.378,0,0,1,1.871-.559,3.166,3.166,0,0,1,2.563,1.086,4.7,4.7,0,0,1,.914,3.109v.6H53.031a3,3,0,0,0,.73,2.02,2.3,2.3,0,0,0,1.777.77,2.517,2.517,0,0,0,1.3-.312,3.259,3.259,0,0,0,.93-.828l.883.688A3.55,3.55,0,0,1,55.461,15.156Zm-.18-7.578a1.928,1.928,0,0,0-1.469.637A3.1,3.1,0,0,0,53.078,10h4.234V9.891a2.753,2.753,0,0,0-.594-1.707A1.815,1.815,0,0,0,55.281,7.578ZM61.8,6.547l.047,1.063a3.08,3.08,0,0,1,2.531-1.219q2.68,0,2.7,3.023V15H65.633V9.406a1.946,1.946,0,0,0-.418-1.352,1.675,1.675,0,0,0-1.277-.437,2.086,2.086,0,0,0-1.234.375,2.546,2.546,0,0,0-.828.984V15H60.43V6.547ZM71.219,4.5V6.547H72.8V7.664H71.219v5.249a1.173,1.173,0,0,0,.211.763.888.888,0,0,0,.719.254,3.5,3.5,0,0,0,.688-.094V15a4.215,4.215,0,0,1-1.109.155,1.8,1.8,0,0,1-1.461-.586,2.517,2.517,0,0,1-.492-1.664V7.664H68.234V6.547h1.539V4.5Zm6.773,10.656a3.693,3.693,0,0,1-2.8-1.129,4.19,4.19,0,0,1-1.078-3.02v-.266A5.073,5.073,0,0,1,74.6,8.5a3.748,3.748,0,0,1,1.344-1.547,3.378,3.378,0,0,1,1.871-.559,3.166,3.166,0,0,1,2.563,1.086,4.7,4.7,0,0,1,.914,3.109v.6H75.563a3,3,0,0,0,.73,2.02,2.3,2.3,0,0,0,1.777.77,2.517,2.517,0,0,0,1.3-.312,3.259,3.259,0,0,0,.93-.828l.883.688A3.55,3.55,0,0,1,77.992,15.156Zm-.18-7.578a1.928,1.928,0,0,0-1.469.637A3.1,3.1,0,0,0,75.609,10h4.234V9.891a2.753,2.753,0,0,0-.594-1.707A1.815,1.815,0,0,0,77.813,7.578Zm10.07,5.18a1.064,1.064,0,0,0-.441-.91,4.249,4.249,0,0,0-1.539-.559,7.277,7.277,0,0,1-1.742-.562,2.479,2.479,0,0,1-.953-.781A1.869,1.869,0,0,1,82.9,8.867a2.193,2.193,0,0,1,.879-1.758,3.432,3.432,0,0,1,2.246-.719,3.532,3.532,0,0,1,2.332.742,2.357,2.357,0,0,1,.895,1.9H87.8a1.3,1.3,0,0,0-.5-1.023,1.888,1.888,0,0,0-1.27-.43,1.976,1.976,0,0,0-1.234.344,1.082,1.082,0,0,0-.445.9.877.877,0,0,0,.414.789,5.1,5.1,0,0,0,1.5.508,7.8,7.8,0,0,1,1.754.578,2.558,2.558,0,0,1,1,.809,1.988,1.988,0,0,1,.324,1.152,2.163,2.163,0,0,1-.906,1.816,3.8,3.8,0,0,1-2.352.684,4.257,4.257,0,0,1-1.8-.359,2.922,2.922,0,0,1-1.223-1,2.42,2.42,0,0,1-.441-1.395h1.445a1.5,1.5,0,0,0,.582,1.152,2.258,2.258,0,0,0,1.434.426,2.331,2.331,0,0,0,1.316-.332A1.02,1.02,0,0,0,87.883,12.758ZM94.82,10.7a4.961,4.961,0,0,1,.914-3.152,3.226,3.226,0,0,1,4.82-.152l.063-.852h1.328v11.7H100.5V14.219a3.033,3.033,0,0,1-2.328.938,2.915,2.915,0,0,1-2.441-1.191,5.072,5.072,0,0,1-.91-3.16Zm1.445.164a3.761,3.761,0,0,0,.613,2.281,1.951,1.951,0,0,0,1.652.828,2.164,2.164,0,0,0,1.969-1.141V8.7a2.171,2.171,0,0,0-1.953-1.117,1.965,1.965,0,0,0-1.664.832A4.094,4.094,0,0,0,96.266,10.867Zm13.219,3.3a3.07,3.07,0,0,1-2.477.992,2.628,2.628,0,0,1-2.059-.785,3.4,3.4,0,0,1-.715-2.324v-5.5h1.445v5.461q0,1.922,1.563,1.922a2.163,2.163,0,0,0,2.2-1.234V6.547h1.445V15h-1.375Zm7.109.992a3.693,3.693,0,0,1-2.8-1.129,4.19,4.19,0,0,1-1.078-3.02v-.266A5.073,5.073,0,0,1,113.2,8.5a3.748,3.748,0,0,1,1.344-1.547,3.378,3.378,0,0,1,1.871-.559,3.166,3.166,0,0,1,2.563,1.086,4.7,4.7,0,0,1,.914,3.109v.6h-5.727a3,3,0,0,0,.73,2.02,2.3,2.3,0,0,0,1.777.77,2.517,2.517,0,0,0,1.3-.312,3.259,3.259,0,0,0,.93-.828l.883.688A3.55,3.55,0,0,1,116.594,15.156Zm-.18-7.578a1.928,1.928,0,0,0-1.469.637A3.1,3.1,0,0,0,114.211,10h4.234V9.891a2.753,2.753,0,0,0-.594-1.707A1.815,1.815,0,0,0,116.414,7.578ZM130.742,15a3.036,3.036,0,0,1-.2-.891,3.225,3.225,0,0,1-2.406,1.047,2.984,2.984,0,0,1-2.051-.707,2.288,2.288,0,0,1-.8-1.793,2.39,2.39,0,0,1,1-2.051,4.733,4.733,0,0,1,2.824-.73h1.406V9.211A1.623,1.623,0,0,0,130.063,8a1.821,1.821,0,0,0-1.336-.449,2.108,2.108,0,0,0-1.3.391,1.151,1.151,0,0,0-.523.945h-1.453a2,2,0,0,1,.449-1.223,3.066,3.066,0,0,1,1.219-.934,4.1,4.1,0,0,1,1.691-.344,3.342,3.342,0,0,1,2.289.73,2.635,2.635,0,0,1,.859,2.012v3.891a4.757,4.757,0,0,0,.3,1.852V15Zm-2.4-1.1a2.54,2.54,0,0,0,1.289-.352,2.127,2.127,0,0,0,.883-.914V10.9h-1.133q-2.656,0-2.656,1.555a1.316,1.316,0,0,0,.453,1.063A1.742,1.742,0,0,0,128.344,13.9Zm9.273.078a2.082,2.082,0,0,0,1.352-.469,1.649,1.649,0,0,0,.641-1.172h1.367a2.621,2.621,0,0,1-.5,1.383,3.293,3.293,0,0,1-1.23,1.047,3.55,3.55,0,0,1-1.629.391A3.482,3.482,0,0,1,134.871,14a4.59,4.59,0,0,1-1.02-3.152v-.242a5.089,5.089,0,0,1,.453-2.2,3.451,3.451,0,0,1,1.3-1.492,3.7,3.7,0,0,1,2-.531,3.39,3.39,0,0,1,2.363.852,3.043,3.043,0,0,1,1,2.211h-1.367a1.992,1.992,0,0,0-.621-1.348,1.932,1.932,0,0,0-1.379-.527,2.023,2.023,0,0,0-1.707.793,3.724,3.724,0,0,0-.605,2.293v.273a3.65,3.65,0,0,0,.6,2.25A2.033,2.033,0,0,0,137.617,13.977Zm8.375,0a2.082,2.082,0,0,0,1.352-.469,1.649,1.649,0,0,0,.641-1.172h1.367a2.621,2.621,0,0,1-.5,1.383,3.293,3.293,0,0,1-1.23,1.047,3.55,3.55,0,0,1-1.629.391A3.482,3.482,0,0,1,143.246,14a4.59,4.59,0,0,1-1.02-3.152v-.242a5.089,5.089,0,0,1,.453-2.2,3.451,3.451,0,0,1,1.3-1.492,3.7,3.7,0,0,1,2-.531,3.39,3.39,0,0,1,2.363.852,3.043,3.043,0,0,1,1,2.211h-1.367a1.992,1.992,0,0,0-.621-1.348,1.932,1.932,0,0,0-1.379-.527,2.023,2.023,0,0,0-1.707.793,3.724,3.724,0,0,0-.605,2.293v.273a3.65,3.65,0,0,0,.6,2.25A2.033,2.033,0,0,0,145.992,13.977Zm8.492,1.18a3.693,3.693,0,0,1-2.8-1.129,4.19,4.19,0,0,1-1.078-3.02v-.266a5.073,5.073,0,0,1,.48-2.246,3.748,3.748,0,0,1,1.344-1.547,3.378,3.378,0,0,1,1.871-.559,3.166,3.166,0,0,1,2.563,1.086,4.7,4.7,0,0,1,.914,3.109v.6h-5.727a3,3,0,0,0,.73,2.02,2.3,2.3,0,0,0,1.777.77,2.517,2.517,0,0,0,1.3-.312,3.258,3.258,0,0,0,.93-.828l.883.688A3.55,3.55,0,0,1,154.484,15.156Zm-.18-7.578a1.928,1.928,0,0,0-1.469.637A3.1,3.1,0,0,0,152.1,10h4.234V9.891a2.753,2.753,0,0,0-.594-1.707A1.815,1.815,0,0,0,154.3,7.578Zm4.8,3.125a4.952,4.952,0,0,1,.922-3.129,3.137,3.137,0,0,1,4.766-.168V3h1.445V15h-1.328l-.07-.906a2.943,2.943,0,0,1-2.414,1.063,2.887,2.887,0,0,1-2.395-1.2,5.008,5.008,0,0,1-.926-3.141Zm1.445.164a3.749,3.749,0,0,0,.594,2.25,1.919,1.919,0,0,0,1.641.813,2.108,2.108,0,0,0,2.008-1.234V8.813a2.125,2.125,0,0,0-1.992-1.2,1.929,1.929,0,0,0-1.656.82A4.128,4.128,0,0,0,160.547,10.867Zm11.438,4.289a3.693,3.693,0,0,1-2.8-1.129,4.19,4.19,0,0,1-1.078-3.02v-.266a5.073,5.073,0,0,1,.48-2.246,3.748,3.748,0,0,1,1.344-1.547,3.378,3.378,0,0,1,1.871-.559,3.166,3.166,0,0,1,2.563,1.086,4.7,4.7,0,0,1,.914,3.109v.6h-5.727a3,3,0,0,0,.73,2.02,2.3,2.3,0,0,0,1.777.77,2.517,2.517,0,0,0,1.3-.312,3.258,3.258,0,0,0,.93-.828l.883.688A3.55,3.55,0,0,1,171.984,15.156Zm-.18-7.578a1.928,1.928,0,0,0-1.469.637A3.1,3.1,0,0,0,169.6,10h4.234V9.891a2.753,2.753,0,0,0-.594-1.707A1.815,1.815,0,0,0,171.8,7.578Zm6.516-1.031.047,1.063A3.08,3.08,0,0,1,180.9,6.391q2.68,0,2.7,3.023V15h-1.445V9.406a1.946,1.946,0,0,0-.418-1.352,1.675,1.675,0,0,0-1.277-.437,2.086,2.086,0,0,0-1.234.375,2.546,2.546,0,0,0-.828.984V15h-1.445V6.547ZM13.48,39a3.036,3.036,0,0,1-.2-.891,3.225,3.225,0,0,1-2.406,1.047,2.984,2.984,0,0,1-2.051-.707,2.287,2.287,0,0,1-.8-1.793,2.39,2.39,0,0,1,1-2.051,4.733,4.733,0,0,1,2.824-.73h1.406v-.664A1.623,1.623,0,0,0,12.8,32a1.821,1.821,0,0,0-1.336-.449,2.108,2.108,0,0,0-1.3.391,1.151,1.151,0,0,0-.523.945H8.191a2,2,0,0,1,.449-1.223,3.066,3.066,0,0,1,1.219-.934,4.1,4.1,0,0,1,1.691-.344,3.342,3.342,0,0,1,2.289.73,2.635,2.635,0,0,1,.859,2.012v3.891a4.757,4.757,0,0,0,.3,1.852V39Zm-2.4-1.1a2.54,2.54,0,0,0,1.289-.352,2.127,2.127,0,0,0,.883-.914V34.9H12.121q-2.656,0-2.656,1.555a1.316,1.316,0,0,0,.453,1.063A1.742,1.742,0,0,0,11.082,37.9ZM22.762,39h-1.5V27.625h1.5Zm3.883-8.453.047,1.063a3.08,3.08,0,0,1,2.531-1.219q2.68,0,2.7,3.023V39H30.48V33.406a1.946,1.946,0,0,0-.418-1.352,1.675,1.675,0,0,0-1.277-.437,2.086,2.086,0,0,0-1.234.375,2.546,2.546,0,0,0-.828.984V39H25.277V30.547ZM36.066,28.5v2.047h1.578v1.117H36.066v5.249a1.173,1.173,0,0,0,.211.763A.888.888,0,0,0,37,37.93a3.5,3.5,0,0,0,.688-.094V39a4.215,4.215,0,0,1-1.109.155,1.8,1.8,0,0,1-1.461-.586,2.517,2.517,0,0,1-.492-1.664V31.664H33.082V30.547h1.539V28.5ZM42.84,39.156a3.693,3.693,0,0,1-2.8-1.129,4.19,4.19,0,0,1-1.078-3.02v-.266a5.073,5.073,0,0,1,.48-2.246,3.748,3.748,0,0,1,1.344-1.547,3.378,3.378,0,0,1,1.871-.559,3.166,3.166,0,0,1,2.563,1.086,4.7,4.7,0,0,1,.914,3.109v.6H40.41a3,3,0,0,0,.73,2.02,2.3,2.3,0,0,0,1.777.77,2.517,2.517,0,0,0,1.3-.312,3.258,3.258,0,0,0,.93-.828l.883.688A3.55,3.55,0,0,1,42.84,39.156Zm-.18-7.578a1.928,1.928,0,0,0-1.469.637A3.1,3.1,0,0,0,40.457,34h4.234v-.109a2.753,2.753,0,0,0-.594-1.707A1.815,1.815,0,0,0,42.66,31.578Zm9.234.266a4.331,4.331,0,0,0-.711-.055A1.9,1.9,0,0,0,49.254,33v6H47.809V30.547h1.406l.023.977a2.251,2.251,0,0,1,2.016-1.133,1.477,1.477,0,0,1,.641.109Zm2.7-1.3.047,1.063a3.08,3.08,0,0,1,2.531-1.219q2.68,0,2.7,3.023V39H58.426V33.406a1.946,1.946,0,0,0-.418-1.352,1.675,1.675,0,0,0-1.277-.437,2.086,2.086,0,0,0-1.234.375,2.546,2.546,0,0,0-.828.984V39H53.223V30.547Zm10.969,8.609a3.693,3.693,0,0,1-2.8-1.129,4.19,4.19,0,0,1-1.078-3.02v-.266a5.073,5.073,0,0,1,.48-2.246,3.748,3.748,0,0,1,1.344-1.547,3.378,3.378,0,0,1,1.871-.559,3.166,3.166,0,0,1,2.563,1.086,4.7,4.7,0,0,1,.914,3.109v.6H63.129a3,3,0,0,0,.73,2.02,2.3,2.3,0,0,0,1.777.77,2.517,2.517,0,0,0,1.3-.312,3.259,3.259,0,0,0,.93-.828l.883.688A3.55,3.55,0,0,1,65.559,39.156Zm-.18-7.578a1.928,1.928,0,0,0-1.469.637A3.1,3.1,0,0,0,63.176,34H67.41v-.109a2.753,2.753,0,0,0-.594-1.707A1.815,1.815,0,0,0,65.379,31.578ZM72.488,28.5v2.047h1.578v1.117H72.488v5.249a1.173,1.173,0,0,0,.211.763.888.888,0,0,0,.719.254,3.5,3.5,0,0,0,.688-.094V39A4.215,4.215,0,0,1,73,39.156a1.8,1.8,0,0,1-1.461-.586,2.517,2.517,0,0,1-.492-1.664V31.664H69.5V30.547h1.539V28.5ZM84.934,39a3.036,3.036,0,0,1-.2-.891,3.225,3.225,0,0,1-2.406,1.047,2.984,2.984,0,0,1-2.051-.707,2.288,2.288,0,0,1-.8-1.793,2.39,2.39,0,0,1,1-2.051,4.733,4.733,0,0,1,2.824-.73h1.406v-.664A1.623,1.623,0,0,0,84.254,32a1.821,1.821,0,0,0-1.336-.449,2.108,2.108,0,0,0-1.3.391,1.151,1.151,0,0,0-.523.945H79.645a2,2,0,0,1,.449-1.223,3.066,3.066,0,0,1,1.219-.934A4.1,4.1,0,0,1,83,30.391a3.342,3.342,0,0,1,2.289.73,2.635,2.635,0,0,1,.859,2.012v3.891a4.757,4.757,0,0,0,.3,1.852V39Zm-2.4-1.1a2.54,2.54,0,0,0,1.289-.352,2.127,2.127,0,0,0,.883-.914V34.9H83.574q-2.656,0-2.656,1.555a1.316,1.316,0,0,0,.453,1.063A1.742,1.742,0,0,0,82.535,37.9Zm11.8-9.4v2.047h1.578v1.117H94.34v5.249a1.173,1.173,0,0,0,.211.763.888.888,0,0,0,.719.254,3.5,3.5,0,0,0,.688-.094V39a4.215,4.215,0,0,1-1.109.155,1.8,1.8,0,0,1-1.461-.586,2.517,2.517,0,0,1-.492-1.664V31.664H91.355V30.547h1.539V28.5Zm7.352,3.344a4.331,4.331,0,0,0-.711-.055A1.9,1.9,0,0,0,99.051,33v6H97.605V30.547h1.406l.023.977a2.251,2.251,0,0,1,2.016-1.133,1.477,1.477,0,0,1,.641.109ZM107.926,39a3.036,3.036,0,0,1-.2-.891,3.225,3.225,0,0,1-2.406,1.047,2.984,2.984,0,0,1-2.051-.707,2.288,2.288,0,0,1-.8-1.793,2.39,2.39,0,0,1,1-2.051,4.733,4.733,0,0,1,2.824-.73H107.7v-.664A1.623,1.623,0,0,0,107.246,32a1.821,1.821,0,0,0-1.336-.449,2.108,2.108,0,0,0-1.3.391,1.151,1.151,0,0,0-.523.945h-1.453a2,2,0,0,1,.449-1.223,3.066,3.066,0,0,1,1.219-.934A4.1,4.1,0,0,1,106,30.391a3.342,3.342,0,0,1,2.289.73,2.635,2.635,0,0,1,.859,2.012v3.891a4.757,4.757,0,0,0,.3,1.852V39Zm-2.4-1.1a2.54,2.54,0,0,0,1.289-.352,2.127,2.127,0,0,0,.883-.914V34.9h-1.133q-2.656,0-2.656,1.555a1.316,1.316,0,0,0,.453,1.063A1.742,1.742,0,0,0,105.527,37.9Zm8.555-.859,2.094-6.492h1.477L114.621,39h-1.1l-3.062-8.453h1.477Zm8.367,2.117a3.693,3.693,0,0,1-2.8-1.129,4.19,4.19,0,0,1-1.078-3.02v-.266a5.073,5.073,0,0,1,.48-2.246,3.748,3.748,0,0,1,1.344-1.547,3.378,3.378,0,0,1,1.871-.559,3.166,3.166,0,0,1,2.563,1.086,4.7,4.7,0,0,1,.914,3.109v.6H120.02a3,3,0,0,0,.73,2.02,2.3,2.3,0,0,0,1.777.77,2.517,2.517,0,0,0,1.3-.312,3.259,3.259,0,0,0,.93-.828l.883.688A3.55,3.55,0,0,1,122.449,39.156Zm-.18-7.578a1.928,1.928,0,0,0-1.469.637A3.1,3.1,0,0,0,120.066,34H124.3v-.109a2.753,2.753,0,0,0-.594-1.707A1.815,1.815,0,0,0,122.27,31.578Zm.7-4.562h1.75l-2.094,2.3-1.164,0Zm9.367,9.742a1.064,1.064,0,0,0-.441-.91,4.249,4.249,0,0,0-1.539-.559,7.277,7.277,0,0,1-1.742-.562,2.479,2.479,0,0,1-.953-.781,1.869,1.869,0,0,1-.309-1.078,2.193,2.193,0,0,1,.879-1.758,3.432,3.432,0,0,1,2.246-.719,3.532,3.532,0,0,1,2.332.742,2.357,2.357,0,0,1,.895,1.9h-1.453a1.3,1.3,0,0,0-.5-1.023,1.888,1.888,0,0,0-1.27-.43,1.976,1.976,0,0,0-1.234.344,1.082,1.082,0,0,0-.445.9.877.877,0,0,0,.414.789,5.1,5.1,0,0,0,1.5.508,7.8,7.8,0,0,1,1.754.578,2.558,2.558,0,0,1,1,.809,1.988,1.988,0,0,1,.324,1.152,2.163,2.163,0,0,1-.906,1.816,3.8,3.8,0,0,1-2.352.684,4.257,4.257,0,0,1-1.8-.359,2.923,2.923,0,0,1-1.223-1,2.42,2.42,0,0,1-.441-1.395h1.445a1.5,1.5,0,0,0,.582,1.152,2.258,2.258,0,0,0,1.434.426,2.331,2.331,0,0,0,1.316-.332A1.02,1.02,0,0,0,132.34,36.758Zm6.938-2.055a4.952,4.952,0,0,1,.922-3.129,3.137,3.137,0,0,1,4.766-.168V27h1.445V39h-1.328l-.07-.906a2.943,2.943,0,0,1-2.414,1.063,2.887,2.887,0,0,1-2.395-1.2,5.008,5.008,0,0,1-.926-3.141Zm1.445.164a3.749,3.749,0,0,0,.594,2.25,1.919,1.919,0,0,0,1.641.813,2.108,2.108,0,0,0,2.008-1.234V32.813a2.125,2.125,0,0,0-1.992-1.2,1.929,1.929,0,0,0-1.656.82A4.128,4.128,0,0,0,140.723,34.867Zm11.438,4.289a3.693,3.693,0,0,1-2.8-1.129,4.19,4.19,0,0,1-1.078-3.02v-.266a5.073,5.073,0,0,1,.48-2.246,3.748,3.748,0,0,1,1.344-1.547,3.378,3.378,0,0,1,1.871-.559,3.166,3.166,0,0,1,2.563,1.086,4.7,4.7,0,0,1,.914,3.109v.6H149.73a3,3,0,0,0,.73,2.02,2.3,2.3,0,0,0,1.777.77,2.517,2.517,0,0,0,1.3-.312,3.258,3.258,0,0,0,.93-.828l.883.688A3.55,3.55,0,0,1,152.16,39.156Zm-.18-7.578a1.928,1.928,0,0,0-1.469.637A3.1,3.1,0,0,0,149.777,34h4.234v-.109a2.753,2.753,0,0,0-.594-1.707A1.815,1.815,0,0,0,151.98,31.578ZM162.66,39h-1.445V27h1.445Zm7.531,0a3.036,3.036,0,0,1-.2-.891,3.225,3.225,0,0,1-2.406,1.047,2.984,2.984,0,0,1-2.051-.707,2.287,2.287,0,0,1-.8-1.793,2.39,2.39,0,0,1,1-2.051,4.733,4.733,0,0,1,2.824-.73h1.406v-.664A1.623,1.623,0,0,0,169.512,32a1.821,1.821,0,0,0-1.336-.449,2.107,2.107,0,0,0-1.3.391,1.151,1.151,0,0,0-.523.945H164.9a2,2,0,0,1,.449-1.223,3.066,3.066,0,0,1,1.219-.934,4.1,4.1,0,0,1,1.691-.344,3.342,3.342,0,0,1,2.289.73,2.635,2.635,0,0,1,.859,2.012v3.891a4.757,4.757,0,0,0,.3,1.852V39Zm-2.4-1.1a2.54,2.54,0,0,0,1.289-.352,2.127,2.127,0,0,0,.883-.914V34.9h-1.133q-2.656,0-2.656,1.555a1.316,1.316,0,0,0,.453,1.063A1.742,1.742,0,0,0,167.793,37.9Zm10.8-1.141a1.064,1.064,0,0,0-.441-.91,4.249,4.249,0,0,0-1.539-.559,7.277,7.277,0,0,1-1.742-.562,2.479,2.479,0,0,1-.953-.781,1.869,1.869,0,0,1-.309-1.078,2.193,2.193,0,0,1,.879-1.758,3.432,3.432,0,0,1,2.246-.719,3.532,3.532,0,0,1,2.332.742,2.357,2.357,0,0,1,.895,1.9h-1.453a1.3,1.3,0,0,0-.5-1.023,1.888,1.888,0,0,0-1.27-.43,1.976,1.976,0,0,0-1.234.344,1.082,1.082,0,0,0-.445.9.877.877,0,0,0,.414.789,5.1,5.1,0,0,0,1.5.508,7.8,7.8,0,0,1,1.754.578,2.558,2.558,0,0,1,1,.809,1.988,1.988,0,0,1,.324,1.152,2.163,2.163,0,0,1-.906,1.816,3.8,3.8,0,0,1-2.352.684,4.257,4.257,0,0,1-1.8-.359,2.922,2.922,0,0,1-1.223-1,2.42,2.42,0,0,1-.441-1.395h1.445a1.5,1.5,0,0,0,.582,1.152,2.258,2.258,0,0,0,1.434.426,2.331,2.331,0,0,0,1.316-.332A1.02,1.02,0,0,0,178.6,36.758ZM7.594,63a3.036,3.036,0,0,1-.2-.891,3.225,3.225,0,0,1-2.406,1.047,2.984,2.984,0,0,1-2.051-.707,2.287,2.287,0,0,1-.8-1.793,2.39,2.39,0,0,1,1-2.051,4.733,4.733,0,0,1,2.824-.73H7.367v-.664A1.623,1.623,0,0,0,6.914,56a1.821,1.821,0,0,0-1.336-.449,2.107,2.107,0,0,0-1.3.391,1.151,1.151,0,0,0-.523.945H2.3a2,2,0,0,1,.449-1.223,3.066,3.066,0,0,1,1.219-.934,4.1,4.1,0,0,1,1.691-.344,3.342,3.342,0,0,1,2.289.73,2.635,2.635,0,0,1,.859,2.012v3.891a4.757,4.757,0,0,0,.3,1.852V63ZM5.2,61.9a2.54,2.54,0,0,0,1.289-.352,2.127,2.127,0,0,0,.883-.914V58.9H6.234q-2.656,0-2.656,1.555a1.316,1.316,0,0,0,.453,1.063A1.742,1.742,0,0,0,5.2,61.9Zm9.273.078a2.082,2.082,0,0,0,1.352-.469,1.649,1.649,0,0,0,.641-1.172h1.367a2.621,2.621,0,0,1-.5,1.383,3.293,3.293,0,0,1-1.23,1.047,3.55,3.55,0,0,1-1.629.391A3.482,3.482,0,0,1,11.723,62a4.59,4.59,0,0,1-1.02-3.152v-.242a5.089,5.089,0,0,1,.453-2.2,3.451,3.451,0,0,1,1.3-1.492,3.7,3.7,0,0,1,2-.531,3.39,3.39,0,0,1,2.363.852,3.043,3.043,0,0,1,1,2.211H16.461a1.992,1.992,0,0,0-.621-1.348,1.932,1.932,0,0,0-1.379-.527,2.023,2.023,0,0,0-1.707.793,3.724,3.724,0,0,0-.605,2.293v.273a3.65,3.65,0,0,0,.6,2.25A2.033,2.033,0,0,0,14.469,61.977ZM21.414,52.5v2.047h1.578v1.117H21.414v5.249a1.173,1.173,0,0,0,.211.763.888.888,0,0,0,.719.254,3.5,3.5,0,0,0,.688-.094V63a4.215,4.215,0,0,1-1.109.155,1.8,1.8,0,0,1-1.461-.586,2.517,2.517,0,0,1-.492-1.664V55.664H18.43V54.547h1.539V52.5ZM26.25,63H24.8V54.547H26.25ZM24.688,52.3a.863.863,0,0,1,.215-.594.807.807,0,0,1,.637-.242.819.819,0,0,1,.641.242.854.854,0,0,1,.219.594.826.826,0,0,1-.219.586.834.834,0,0,1-.641.234.821.821,0,0,1-.637-.234A.834.834,0,0,1,24.688,52.3Zm6.664,8.734,2.094-6.492h1.477L31.891,63h-1.1l-3.062-8.453H29.2ZM37.883,63H36.438V54.547h1.445ZM36.32,52.3a.863.863,0,0,1,.215-.594.807.807,0,0,1,.637-.242.819.819,0,0,1,.641.242.854.854,0,0,1,.219.594.826.826,0,0,1-.219.586.834.834,0,0,1-.641.234.821.821,0,0,1-.637-.234A.834.834,0,0,1,36.32,52.3Zm3.523,6.4a4.952,4.952,0,0,1,.922-3.129,3.137,3.137,0,0,1,4.766-.168V51h1.445V63H45.648l-.07-.906a2.943,2.943,0,0,1-2.414,1.063,2.887,2.887,0,0,1-2.395-1.2,5.008,5.008,0,0,1-.926-3.141Zm1.445.164a3.749,3.749,0,0,0,.594,2.25,1.919,1.919,0,0,0,1.641.813A2.108,2.108,0,0,0,45.531,60.7V56.813a2.125,2.125,0,0,0-1.992-1.2,1.929,1.929,0,0,0-1.656.82A4.128,4.128,0,0,0,41.289,58.867ZM54.438,63a3.036,3.036,0,0,1-.2-.891,3.225,3.225,0,0,1-2.406,1.047,2.984,2.984,0,0,1-2.051-.707,2.287,2.287,0,0,1-.8-1.793,2.39,2.39,0,0,1,1-2.051,4.733,4.733,0,0,1,2.824-.73h1.406v-.664A1.623,1.623,0,0,0,53.758,56a1.821,1.821,0,0,0-1.336-.449,2.107,2.107,0,0,0-1.3.391,1.151,1.151,0,0,0-.523.945H49.148a2,2,0,0,1,.449-1.223,3.066,3.066,0,0,1,1.219-.934,4.1,4.1,0,0,1,1.691-.344,3.342,3.342,0,0,1,2.289.73,2.635,2.635,0,0,1,.859,2.012v3.891a4.757,4.757,0,0,0,.3,1.852V63Zm-2.4-1.1a2.54,2.54,0,0,0,1.289-.352,2.127,2.127,0,0,0,.883-.914V58.9H53.078q-2.656,0-2.656,1.555a1.316,1.316,0,0,0,.453,1.063A1.742,1.742,0,0,0,52.039,61.9Zm5.531-3.2a4.952,4.952,0,0,1,.922-3.129,3.137,3.137,0,0,1,4.766-.168V51H64.7V63H63.375l-.07-.906a2.943,2.943,0,0,1-2.414,1.063,2.887,2.887,0,0,1-2.395-1.2,5.008,5.008,0,0,1-.926-3.141Zm1.445.164a3.749,3.749,0,0,0,.594,2.25,1.919,1.919,0,0,0,1.641.813A2.108,2.108,0,0,0,63.258,60.7V56.813a2.125,2.125,0,0,0-1.992-1.2,1.929,1.929,0,0,0-1.656.82A4.128,4.128,0,0,0,59.016,58.867Zm11.438,4.289a3.693,3.693,0,0,1-2.8-1.129,4.19,4.19,0,0,1-1.078-3.02v-.266a5.073,5.073,0,0,1,.48-2.246A3.748,3.748,0,0,1,68.4,54.949a3.378,3.378,0,0,1,1.871-.559,3.166,3.166,0,0,1,2.563,1.086,4.7,4.7,0,0,1,.914,3.109v.6H68.023a3,3,0,0,0,.73,2.02,2.3,2.3,0,0,0,1.777.77,2.517,2.517,0,0,0,1.3-.312,3.259,3.259,0,0,0,.93-.828l.883.688A3.55,3.55,0,0,1,70.453,63.156Zm-.18-7.578a1.928,1.928,0,0,0-1.469.637A3.1,3.1,0,0,0,68.07,58H72.3v-.109a2.753,2.753,0,0,0-.594-1.707A1.815,1.815,0,0,0,70.273,55.578Zm10.07,5.18a1.064,1.064,0,0,0-.441-.91,4.249,4.249,0,0,0-1.539-.559,7.277,7.277,0,0,1-1.742-.562,2.479,2.479,0,0,1-.953-.781,1.869,1.869,0,0,1-.309-1.078,2.193,2.193,0,0,1,.879-1.758,3.432,3.432,0,0,1,2.246-.719,3.532,3.532,0,0,1,2.332.742,2.357,2.357,0,0,1,.895,1.9H80.258a1.3,1.3,0,0,0-.5-1.023,1.888,1.888,0,0,0-1.27-.43,1.976,1.976,0,0,0-1.234.344,1.082,1.082,0,0,0-.445.9.877.877,0,0,0,.414.789,5.1,5.1,0,0,0,1.5.508,7.8,7.8,0,0,1,1.754.578,2.558,2.558,0,0,1,1,.809,1.988,1.988,0,0,1,.324,1.152,2.163,2.163,0,0,1-.906,1.816,3.8,3.8,0,0,1-2.352.684,4.257,4.257,0,0,1-1.8-.359,2.922,2.922,0,0,1-1.223-1A2.42,2.42,0,0,1,75.07,60.4h1.445a1.5,1.5,0,0,0,.582,1.152,2.258,2.258,0,0,0,1.434.426,2.331,2.331,0,0,0,1.316-.332A1.02,1.02,0,0,0,80.344,60.758ZM87.281,58.7a4.952,4.952,0,0,1,.922-3.129,3.137,3.137,0,0,1,4.766-.168V51h1.445V63H93.086l-.07-.906A2.943,2.943,0,0,1,90.6,63.156a2.887,2.887,0,0,1-2.395-1.2,5.008,5.008,0,0,1-.926-3.141Zm1.445.164a3.749,3.749,0,0,0,.594,2.25,1.92,1.92,0,0,0,1.641.813A2.108,2.108,0,0,0,92.969,60.7V56.813a2.125,2.125,0,0,0-1.992-1.2,1.929,1.929,0,0,0-1.656.82A4.128,4.128,0,0,0,88.727,58.867Zm11.438,4.289a3.693,3.693,0,0,1-2.8-1.129,4.19,4.19,0,0,1-1.078-3.02v-.266a5.073,5.073,0,0,1,.48-2.246,3.748,3.748,0,0,1,1.344-1.547,3.378,3.378,0,0,1,1.871-.559,3.166,3.166,0,0,1,2.563,1.086,4.7,4.7,0,0,1,.914,3.109v.6H97.734a3,3,0,0,0,.73,2.02,2.3,2.3,0,0,0,1.777.77,2.517,2.517,0,0,0,1.3-.312,3.259,3.259,0,0,0,.93-.828l.883.688A3.55,3.55,0,0,1,100.164,63.156Zm-.18-7.578a1.928,1.928,0,0,0-1.469.637A3.1,3.1,0,0,0,97.781,58h4.234v-.109a2.753,2.753,0,0,0-.594-1.707A1.815,1.815,0,0,0,99.984,55.578ZM110.664,63h-1.445V51h1.445Zm7.531,0a3.036,3.036,0,0,1-.2-.891,3.225,3.225,0,0,1-2.406,1.047,2.984,2.984,0,0,1-2.051-.707,2.288,2.288,0,0,1-.8-1.793,2.39,2.39,0,0,1,1-2.051,4.733,4.733,0,0,1,2.824-.73h1.406v-.664A1.623,1.623,0,0,0,117.516,56a1.821,1.821,0,0,0-1.336-.449,2.107,2.107,0,0,0-1.3.391,1.151,1.151,0,0,0-.523.945h-1.453a2,2,0,0,1,.449-1.223,3.066,3.066,0,0,1,1.219-.934,4.1,4.1,0,0,1,1.691-.344,3.342,3.342,0,0,1,2.289.73,2.635,2.635,0,0,1,.859,2.012v3.891a4.757,4.757,0,0,0,.3,1.852V63Zm-2.4-1.1a2.54,2.54,0,0,0,1.289-.352,2.127,2.127,0,0,0,.883-.914V58.9h-1.133q-2.656,0-2.656,1.555a1.316,1.316,0,0,0,.453,1.063A1.742,1.742,0,0,0,115.8,61.9Zm13.352,1.258a3.693,3.693,0,0,1-2.8-1.129,4.19,4.19,0,0,1-1.078-3.02v-.266a5.073,5.073,0,0,1,.48-2.246,3.748,3.748,0,0,1,1.344-1.547,3.378,3.378,0,0,1,1.871-.559,3.166,3.166,0,0,1,2.563,1.086,4.7,4.7,0,0,1,.914,3.109v.6h-5.727a3,3,0,0,0,.73,2.02,2.3,2.3,0,0,0,1.777.77,2.517,2.517,0,0,0,1.3-.312,3.258,3.258,0,0,0,.93-.828l.883.688A3.55,3.55,0,0,1,129.148,63.156Zm-.18-7.578a1.928,1.928,0,0,0-1.469.637A3.1,3.1,0,0,0,126.766,58H131v-.109a2.753,2.753,0,0,0-.594-1.707A1.815,1.815,0,0,0,128.969,55.578Zm6.508-1.031.039.938a3.122,3.122,0,0,1,2.508-1.094,2.417,2.417,0,0,1,2.414,1.359,3.2,3.2,0,0,1,1.1-.984,3.242,3.242,0,0,1,1.6-.375q2.781,0,2.828,2.945V63h-1.445V57.422a1.941,1.941,0,0,0-.414-1.355,1.823,1.823,0,0,0-1.391-.449,1.917,1.917,0,0,0-1.336.48,1.949,1.949,0,0,0-.617,1.293V63H139.3V57.461a1.613,1.613,0,0,0-1.8-1.844,1.934,1.934,0,0,0-1.945,1.211V63h-1.445V54.547Zm19.8,4.32a5.062,5.062,0,0,1-.883,3.109,2.829,2.829,0,0,1-2.391,1.18,3.1,3.1,0,0,1-2.422-.977v4.07h-1.445v-11.7h1.32l.07.938a2.977,2.977,0,0,1,2.453-1.094,2.882,2.882,0,0,1,2.41,1.148,5.117,5.117,0,0,1,.887,3.2Zm-1.445-.164a3.735,3.735,0,0,0-.609-2.258,1.963,1.963,0,0,0-1.672-.828,2.125,2.125,0,0,0-1.969,1.164V60.82a2.129,2.129,0,0,0,1.984,1.156,1.954,1.954,0,0,0,1.652-.824A4.077,4.077,0,0,0,153.836,58.7Zm7.367-2.859a4.331,4.331,0,0,0-.711-.055A1.9,1.9,0,0,0,158.563,57v6h-1.445V54.547h1.406l.023.977a2.251,2.251,0,0,1,2.016-1.133,1.477,1.477,0,0,1,.641.109Zm4.688,7.313a3.693,3.693,0,0,1-2.8-1.129,4.19,4.19,0,0,1-1.078-3.02v-.266a5.073,5.073,0,0,1,.48-2.246,3.748,3.748,0,0,1,1.344-1.547,3.378,3.378,0,0,1,1.871-.559,3.166,3.166,0,0,1,2.563,1.086,4.7,4.7,0,0,1,.914,3.109v.6h-5.727a3,3,0,0,0,.73,2.02,2.3,2.3,0,0,0,1.777.77,2.517,2.517,0,0,0,1.3-.312,3.258,3.258,0,0,0,.93-.828l.883.688A3.55,3.55,0,0,1,165.891,63.156Zm-.18-7.578a1.928,1.928,0,0,0-1.469.637A3.1,3.1,0,0,0,163.508,58h4.234v-.109a2.753,2.753,0,0,0-.594-1.707A1.815,1.815,0,0,0,165.711,55.578Zm10.07,5.18a1.064,1.064,0,0,0-.441-.91,4.249,4.249,0,0,0-1.539-.559,7.277,7.277,0,0,1-1.742-.562,2.479,2.479,0,0,1-.953-.781,1.869,1.869,0,0,1-.309-1.078,2.193,2.193,0,0,1,.879-1.758,3.432,3.432,0,0,1,2.246-.719,3.532,3.532,0,0,1,2.332.742,2.357,2.357,0,0,1,.895,1.9H175.7a1.3,1.3,0,0,0-.5-1.023,1.888,1.888,0,0,0-1.27-.43,1.976,1.976,0,0,0-1.234.344,1.082,1.082,0,0,0-.445.9.877.877,0,0,0,.414.789,5.1,5.1,0,0,0,1.5.508,7.8,7.8,0,0,1,1.754.578,2.558,2.558,0,0,1,1,.809,1.988,1.988,0,0,1,.324,1.152,2.163,2.163,0,0,1-.906,1.816,3.8,3.8,0,0,1-2.352.684,4.257,4.257,0,0,1-1.8-.359,2.922,2.922,0,0,1-1.223-1,2.42,2.42,0,0,1-.441-1.395h1.445a1.5,1.5,0,0,0,.582,1.152,2.258,2.258,0,0,0,1.434.426,2.331,2.331,0,0,0,1.316-.332A1.02,1.02,0,0,0,175.781,60.758ZM184.328,63a3.036,3.036,0,0,1-.2-.891,3.225,3.225,0,0,1-2.406,1.047,2.984,2.984,0,0,1-2.051-.707,2.287,2.287,0,0,1-.8-1.793,2.39,2.39,0,0,1,1-2.051,4.733,4.733,0,0,1,2.824-.73H184.1v-.664A1.623,1.623,0,0,0,183.648,56a1.821,1.821,0,0,0-1.336-.449,2.107,2.107,0,0,0-1.3.391,1.151,1.151,0,0,0-.523.945h-1.453a2,2,0,0,1,.449-1.223,3.066,3.066,0,0,1,1.219-.934,4.1,4.1,0,0,1,1.691-.344,3.342,3.342,0,0,1,2.289.73,2.635,2.635,0,0,1,.859,2.012v3.891a4.757,4.757,0,0,0,.3,1.852V63Zm-2.4-1.1a2.54,2.54,0,0,0,1.289-.352,2.127,2.127,0,0,0,.883-.914V58.9h-1.133q-2.656,0-2.656,1.555a1.316,1.316,0,0,0,.453,1.063A1.742,1.742,0,0,0,181.93,61.9ZM22.266,87.156a3.693,3.693,0,0,1-2.8-1.129,4.19,4.19,0,0,1-1.078-3.02v-.266a5.073,5.073,0,0,1,.48-2.246,3.748,3.748,0,0,1,1.344-1.547,3.378,3.378,0,0,1,1.871-.559,3.166,3.166,0,0,1,2.563,1.086,4.7,4.7,0,0,1,.914,3.109v.6H19.836a3,3,0,0,0,.73,2.02,2.3,2.3,0,0,0,1.777.77,2.517,2.517,0,0,0,1.3-.312,3.259,3.259,0,0,0,.93-.828l.883.688A3.55,3.55,0,0,1,22.266,87.156Zm-.18-7.578a1.928,1.928,0,0,0-1.469.637A3.1,3.1,0,0,0,19.883,82h4.234v-.109a2.753,2.753,0,0,0-.594-1.707A1.815,1.815,0,0,0,22.086,79.578ZM28.6,78.547l.047,1.063a3.08,3.08,0,0,1,2.531-1.219q2.68,0,2.7,3.023V87H32.438V81.406a1.946,1.946,0,0,0-.418-1.352,1.675,1.675,0,0,0-1.277-.437,2.086,2.086,0,0,0-1.234.375,2.546,2.546,0,0,0-.828.984V87H27.234V78.547ZM41.594,87H40.148V75h1.445Zm7.531,0a3.036,3.036,0,0,1-.2-.891,3.225,3.225,0,0,1-2.406,1.047,2.984,2.984,0,0,1-2.051-.707,2.287,2.287,0,0,1-.8-1.793,2.39,2.39,0,0,1,1-2.051,4.733,4.733,0,0,1,2.824-.73H48.9v-.664A1.623,1.623,0,0,0,48.445,80a1.821,1.821,0,0,0-1.336-.449,2.108,2.108,0,0,0-1.3.391,1.151,1.151,0,0,0-.523.945H43.836a2,2,0,0,1,.449-1.223,3.066,3.066,0,0,1,1.219-.934,4.1,4.1,0,0,1,1.691-.344,3.342,3.342,0,0,1,2.289.73,2.635,2.635,0,0,1,.859,2.012v3.891a4.757,4.757,0,0,0,.3,1.852V87Zm-2.4-1.1a2.54,2.54,0,0,0,1.289-.352,2.127,2.127,0,0,0,.883-.914V82.9H47.766q-2.656,0-2.656,1.555a1.316,1.316,0,0,0,.453,1.063A1.742,1.742,0,0,0,46.727,85.9Zm10.8-1.141a1.064,1.064,0,0,0-.441-.91,4.249,4.249,0,0,0-1.539-.559,7.277,7.277,0,0,1-1.742-.562,2.479,2.479,0,0,1-.953-.781,1.869,1.869,0,0,1-.309-1.078,2.193,2.193,0,0,1,.879-1.758,3.432,3.432,0,0,1,2.246-.719A3.532,3.532,0,0,1,58,79.133a2.357,2.357,0,0,1,.895,1.9H57.445a1.3,1.3,0,0,0-.5-1.023,1.888,1.888,0,0,0-1.27-.43,1.976,1.976,0,0,0-1.234.344,1.082,1.082,0,0,0-.445.9.877.877,0,0,0,.414.789,5.1,5.1,0,0,0,1.5.508,7.8,7.8,0,0,1,1.754.578,2.558,2.558,0,0,1,1,.809,1.988,1.988,0,0,1,.324,1.152,2.163,2.163,0,0,1-.906,1.816,3.8,3.8,0,0,1-2.352.684,4.257,4.257,0,0,1-1.8-.359,2.922,2.922,0,0,1-1.223-1,2.42,2.42,0,0,1-.441-1.395H53.7a1.5,1.5,0,0,0,.582,1.152,2.258,2.258,0,0,0,1.434.426,2.331,2.331,0,0,0,1.316-.332A1.02,1.02,0,0,0,57.531,84.758Zm11.375-4.914a4.331,4.331,0,0,0-.711-.055A1.9,1.9,0,0,0,66.266,81v6H64.82V78.547h1.406l.023.977a2.251,2.251,0,0,1,2.016-1.133,1.477,1.477,0,0,1,.641.109Zm4.688,7.313a3.693,3.693,0,0,1-2.8-1.129,4.19,4.19,0,0,1-1.078-3.02v-.266A5.073,5.073,0,0,1,70.2,80.5a3.748,3.748,0,0,1,1.344-1.547,3.378,3.378,0,0,1,1.871-.559,3.166,3.166,0,0,1,2.563,1.086,4.7,4.7,0,0,1,.914,3.109v.6H71.164a3,3,0,0,0,.73,2.02,2.3,2.3,0,0,0,1.777.77,2.517,2.517,0,0,0,1.3-.312,3.259,3.259,0,0,0,.93-.828l.883.688A3.55,3.55,0,0,1,73.594,87.156Zm-.18-7.578a1.928,1.928,0,0,0-1.469.637A3.1,3.1,0,0,0,71.211,82h4.234v-.109a2.753,2.753,0,0,0-.594-1.707A1.815,1.815,0,0,0,73.414,79.578Zm4.8,3.125a4.952,4.952,0,0,1,.922-3.129,3.137,3.137,0,0,1,4.766-.168V75h1.445V87H84.016l-.07-.906a2.943,2.943,0,0,1-2.414,1.063,2.887,2.887,0,0,1-2.395-1.2,5.008,5.008,0,0,1-.926-3.141Zm1.445.164a3.749,3.749,0,0,0,.594,2.25,1.92,1.92,0,0,0,1.641.813A2.109,2.109,0,0,0,83.9,84.7V80.813a2.125,2.125,0,0,0-1.992-1.2,1.929,1.929,0,0,0-1.656.82A4.128,4.128,0,0,0,79.656,82.867Zm11.438,4.289a3.693,3.693,0,0,1-2.8-1.129,4.19,4.19,0,0,1-1.078-3.02v-.266A5.073,5.073,0,0,1,87.7,80.5a3.748,3.748,0,0,1,1.344-1.547,3.378,3.378,0,0,1,1.871-.559,3.166,3.166,0,0,1,2.563,1.086,4.7,4.7,0,0,1,.914,3.109v.6H88.664a3,3,0,0,0,.73,2.02,2.3,2.3,0,0,0,1.777.77,2.517,2.517,0,0,0,1.3-.312,3.259,3.259,0,0,0,.93-.828l.883.688A3.55,3.55,0,0,1,91.094,87.156Zm-.18-7.578a1.928,1.928,0,0,0-1.469.637A3.1,3.1,0,0,0,88.711,82h4.234v-.109a2.753,2.753,0,0,0-.594-1.707A1.815,1.815,0,0,0,90.914,79.578Zm10.07,5.18a1.064,1.064,0,0,0-.441-.91A4.249,4.249,0,0,0,99,83.289a7.277,7.277,0,0,1-1.742-.562,2.478,2.478,0,0,1-.953-.781A1.869,1.869,0,0,1,96,80.867a2.193,2.193,0,0,1,.879-1.758,3.432,3.432,0,0,1,2.246-.719,3.532,3.532,0,0,1,2.332.742,2.357,2.357,0,0,1,.895,1.9H100.9a1.3,1.3,0,0,0-.5-1.023,1.888,1.888,0,0,0-1.27-.43,1.976,1.976,0,0,0-1.234.344,1.082,1.082,0,0,0-.445.9.877.877,0,0,0,.414.789,5.1,5.1,0,0,0,1.5.508,7.8,7.8,0,0,1,1.754.578,2.559,2.559,0,0,1,1,.809,1.988,1.988,0,0,1,.324,1.152,2.163,2.163,0,0,1-.906,1.816,3.8,3.8,0,0,1-2.352.684,4.257,4.257,0,0,1-1.8-.359,2.922,2.922,0,0,1-1.223-1,2.42,2.42,0,0,1-.441-1.395h1.445a1.5,1.5,0,0,0,.582,1.152,2.258,2.258,0,0,0,1.434.426,2.331,2.331,0,0,0,1.316-.332A1.02,1.02,0,0,0,100.984,84.758Zm12.211,0a1.064,1.064,0,0,0-.441-.91,4.249,4.249,0,0,0-1.539-.559,7.277,7.277,0,0,1-1.742-.562,2.478,2.478,0,0,1-.953-.781,1.869,1.869,0,0,1-.309-1.078,2.193,2.193,0,0,1,.879-1.758,3.432,3.432,0,0,1,2.246-.719,3.532,3.532,0,0,1,2.332.742,2.357,2.357,0,0,1,.895,1.9h-1.453a1.3,1.3,0,0,0-.5-1.023,1.888,1.888,0,0,0-1.27-.43,1.976,1.976,0,0,0-1.234.344,1.082,1.082,0,0,0-.445.9.877.877,0,0,0,.414.789,5.1,5.1,0,0,0,1.5.508,7.8,7.8,0,0,1,1.754.578,2.559,2.559,0,0,1,1,.809,1.988,1.988,0,0,1,.324,1.152,2.163,2.163,0,0,1-.906,1.816,3.8,3.8,0,0,1-2.352.684,4.257,4.257,0,0,1-1.8-.359,2.922,2.922,0,0,1-1.223-1,2.42,2.42,0,0,1-.441-1.395h1.445a1.5,1.5,0,0,0,.582,1.152,2.258,2.258,0,0,0,1.434.426,2.331,2.331,0,0,0,1.316-.332A1.02,1.02,0,0,0,113.2,84.758Zm2.945-2.062a4.993,4.993,0,0,1,.488-2.234,3.643,3.643,0,0,1,1.359-1.531,3.7,3.7,0,0,1,1.988-.539,3.565,3.565,0,0,1,2.793,1.2,4.6,4.6,0,0,1,1.066,3.18v.1a5.036,5.036,0,0,1-.473,2.215,3.589,3.589,0,0,1-1.352,1.527,3.743,3.743,0,0,1-2.02.547,3.556,3.556,0,0,1-2.785-1.2,4.575,4.575,0,0,1-1.066-3.164Zm1.453.172a3.616,3.616,0,0,0,.652,2.258,2.211,2.211,0,0,0,3.5-.012,3.955,3.955,0,0,0,.648-2.418,3.61,3.61,0,0,0-.66-2.254,2.1,2.1,0,0,0-1.754-.863,2.075,2.075,0,0,0-1.727.852A3.925,3.925,0,0,0,117.594,82.867Zm11.445,3.109a2.082,2.082,0,0,0,1.352-.469,1.649,1.649,0,0,0,.641-1.172H132.4a2.621,2.621,0,0,1-.5,1.383,3.293,3.293,0,0,1-1.23,1.047,3.55,3.55,0,0,1-1.629.391A3.482,3.482,0,0,1,126.293,86a4.59,4.59,0,0,1-1.02-3.152v-.242a5.089,5.089,0,0,1,.453-2.2,3.451,3.451,0,0,1,1.3-1.492,3.7,3.7,0,0,1,2-.531,3.39,3.39,0,0,1,2.363.852,3.043,3.043,0,0,1,1,2.211h-1.367a1.992,1.992,0,0,0-.621-1.348,1.932,1.932,0,0,0-1.379-.527,2.023,2.023,0,0,0-1.707.793,3.724,3.724,0,0,0-.605,2.293v.273a3.65,3.65,0,0,0,.6,2.25A2.033,2.033,0,0,0,129.039,85.977ZM135.594,87h-1.445V78.547h1.445Zm-1.562-10.7a.863.863,0,0,1,.215-.594.807.807,0,0,1,.637-.242.819.819,0,0,1,.641.242.854.854,0,0,1,.219.594.826.826,0,0,1-.219.586.834.834,0,0,1-.641.234.821.821,0,0,1-.637-.234A.834.834,0,0,1,134.031,76.3ZM143.125,87a3.036,3.036,0,0,1-.2-.891,3.225,3.225,0,0,1-2.406,1.047,2.984,2.984,0,0,1-2.051-.707,2.287,2.287,0,0,1-.8-1.793,2.39,2.39,0,0,1,1-2.051,4.733,4.733,0,0,1,2.824-.73H142.9v-.664A1.623,1.623,0,0,0,142.445,80a1.821,1.821,0,0,0-1.336-.449,2.108,2.108,0,0,0-1.3.391,1.151,1.151,0,0,0-.523.945h-1.453a2,2,0,0,1,.449-1.223,3.066,3.066,0,0,1,1.219-.934,4.1,4.1,0,0,1,1.691-.344,3.342,3.342,0,0,1,2.289.73,2.635,2.635,0,0,1,.859,2.012v3.891a4.757,4.757,0,0,0,.3,1.852V87Zm-2.4-1.1a2.54,2.54,0,0,0,1.289-.352,2.127,2.127,0,0,0,.883-.914V82.9h-1.133q-2.656,0-2.656,1.555a1.316,1.316,0,0,0,.453,1.063A1.742,1.742,0,0,0,140.727,85.9ZM148.18,87h-1.445V75h1.445Zm5.82.156a3.693,3.693,0,0,1-2.8-1.129,4.19,4.19,0,0,1-1.078-3.02v-.266a5.073,5.073,0,0,1,.48-2.246,3.748,3.748,0,0,1,1.344-1.547,3.378,3.378,0,0,1,1.871-.559,3.166,3.166,0,0,1,2.563,1.086,4.7,4.7,0,0,1,.914,3.109v.6H151.57a3,3,0,0,0,.73,2.02,2.3,2.3,0,0,0,1.777.77,2.517,2.517,0,0,0,1.3-.312,3.258,3.258,0,0,0,.93-.828l.883.688A3.55,3.55,0,0,1,154,87.156Zm-.18-7.578a1.928,1.928,0,0,0-1.469.637A3.1,3.1,0,0,0,151.617,82h4.234v-.109a2.753,2.753,0,0,0-.594-1.707A1.815,1.815,0,0,0,153.82,79.578Zm10.07,5.18a1.064,1.064,0,0,0-.441-.91,4.249,4.249,0,0,0-1.539-.559,7.277,7.277,0,0,1-1.742-.562,2.479,2.479,0,0,1-.953-.781,1.869,1.869,0,0,1-.309-1.078,2.193,2.193,0,0,1,.879-1.758,3.432,3.432,0,0,1,2.246-.719,3.532,3.532,0,0,1,2.332.742,2.357,2.357,0,0,1,.895,1.9H163.8a1.3,1.3,0,0,0-.5-1.023,1.888,1.888,0,0,0-1.27-.43,1.976,1.976,0,0,0-1.234.344,1.082,1.082,0,0,0-.445.9.877.877,0,0,0,.414.789,5.1,5.1,0,0,0,1.5.508,7.8,7.8,0,0,1,1.754.578,2.558,2.558,0,0,1,1,.809,1.988,1.988,0,0,1,.324,1.152,2.163,2.163,0,0,1-.906,1.816,3.8,3.8,0,0,1-2.352.684,4.257,4.257,0,0,1-1.8-.359,2.922,2.922,0,0,1-1.223-1,2.42,2.42,0,0,1-.441-1.395h1.445a1.5,1.5,0,0,0,.582,1.152,2.258,2.258,0,0,0,1.434.426,2.331,2.331,0,0,0,1.316-.332A1.02,1.02,0,0,0,163.891,84.758Zm3.359,1.484a.905.905,0,0,1,.223-.625.848.848,0,0,1,.668-.25.874.874,0,0,1,.676.25.887.887,0,0,1,.23.625.839.839,0,0,1-.23.6.89.89,0,0,1-.676.242.8.8,0,0,1-.891-.844Z" transform="translate(-1109.595 -1770.088)" fill="#12263f"/>
    <path id="Trazado_213447" data-name="Trazado 213447" d="M50.563,12.474h-1.67V17H45.808V4.2h5.036a5.621,5.621,0,0,1,3.56,1.01,3.421,3.421,0,0,1,1.283,2.853,4.155,4.155,0,0,1-.541,2.213A3.837,3.837,0,0,1,53.455,11.7l2.672,5.167V17h-3.3ZM48.893,10.1h1.951a1.751,1.751,0,0,0,1.323-.463,1.788,1.788,0,0,0,.444-1.291,1.809,1.809,0,0,0-.448-1.3,1.735,1.735,0,0,0-1.318-.471H48.893Zm13.122,7.075a4.889,4.889,0,0,1-3.542-1.305,4.507,4.507,0,0,1-1.354-3.4v-.246a5.84,5.84,0,0,1,.541-2.575,3.955,3.955,0,0,1,1.578-1.727A4.763,4.763,0,0,1,61.7,7.314a4.117,4.117,0,0,1,3.164,1.244,4.887,4.887,0,0,1,1.16,3.467v1.151H60.134a2.135,2.135,0,0,0,.694,1.257,2.066,2.066,0,0,0,1.389.457,2.662,2.662,0,0,0,2.2-.984l1.354,1.6A3.784,3.784,0,0,1,64.2,16.723,5.3,5.3,0,0,1,62.015,17.176ZM61.681,9.6q-1.3,0-1.547,1.723h2.988v-.229a1.467,1.467,0,0,0-.36-1.1A1.434,1.434,0,0,0,61.681,9.6Zm5.159,2.575a5.809,5.809,0,0,1,.976-3.56,3.211,3.211,0,0,1,2.725-1.3,2.731,2.731,0,0,1,2.145,1V3.5h2.971V17H72.993l-.149-1.02a2.8,2.8,0,0,1-2.32,1.2,3.205,3.205,0,0,1-2.689-1.3A5.993,5.993,0,0,1,66.84,12.175Zm2.962.185q0,2.531,1.477,2.531a1.458,1.458,0,0,0,1.406-.826V10.443A1.419,1.419,0,0,0,71.3,9.6q-1.371,0-1.485,2.215ZM81.94,17.176A4.889,4.889,0,0,1,78.4,15.871a4.507,4.507,0,0,1-1.354-3.4v-.246a5.84,5.84,0,0,1,.541-2.575,3.955,3.955,0,0,1,1.578-1.727,4.763,4.763,0,0,1,2.461-.611,4.117,4.117,0,0,1,3.164,1.244,4.887,4.887,0,0,1,1.16,3.467v1.151H80.059a2.135,2.135,0,0,0,.694,1.257,2.066,2.066,0,0,0,1.389.457,2.662,2.662,0,0,0,2.2-.984l1.354,1.6a3.784,3.784,0,0,1-1.569,1.217A5.3,5.3,0,0,1,81.94,17.176ZM81.606,9.6q-1.3,0-1.547,1.723h2.988v-.229a1.467,1.467,0,0,0-.36-1.1A1.434,1.434,0,0,0,81.606,9.6Zm10.512,4.729a.684.684,0,0,0-.4-.606,6.016,6.016,0,0,0-1.5-.475,6.853,6.853,0,0,1-1.828-.646,3.062,3.062,0,0,1-1.1-.971,2.319,2.319,0,0,1-.378-1.31A2.628,2.628,0,0,1,88,8.163a4.453,4.453,0,0,1,2.83-.848,4.934,4.934,0,0,1,3.023.853,2.666,2.666,0,0,1,1.143,2.241H92.021q0-1.143-1.2-1.143a1.194,1.194,0,0,0-.782.259.8.8,0,0,0-.316.646.737.737,0,0,0,.387.642,3.654,3.654,0,0,0,1.235.4,10.671,10.671,0,0,1,1.49.378,2.706,2.706,0,0,1,2.145,2.646,2.491,2.491,0,0,1-1.156,2.118,5.068,5.068,0,0,1-2.993.817,5.172,5.172,0,0,1-2.18-.439,3.645,3.645,0,0,1-1.494-1.2,2.707,2.707,0,0,1-.536-1.591h2.769a1.145,1.145,0,0,0,.439.962,1.808,1.808,0,0,0,1.081.3,1.422,1.422,0,0,0,.91-.246A.787.787,0,0,0,92.118,14.328Zm13.7,0a.684.684,0,0,0-.4-.606,6.016,6.016,0,0,0-1.5-.475,6.853,6.853,0,0,1-1.828-.646,3.062,3.062,0,0,1-1.1-.971,2.319,2.319,0,0,1-.378-1.31A2.628,2.628,0,0,1,101.7,8.163a4.453,4.453,0,0,1,2.83-.848,4.934,4.934,0,0,1,3.023.853,2.666,2.666,0,0,1,1.143,2.241h-2.971q0-1.143-1.2-1.143a1.194,1.194,0,0,0-.782.259.8.8,0,0,0-.316.646.737.737,0,0,0,.387.642,3.654,3.654,0,0,0,1.235.4,10.671,10.671,0,0,1,1.49.378,2.706,2.706,0,0,1,2.145,2.646,2.491,2.491,0,0,1-1.156,2.118,5.068,5.068,0,0,1-2.993.817,5.172,5.172,0,0,1-2.18-.439,3.645,3.645,0,0,1-1.494-1.2,2.707,2.707,0,0,1-.536-1.591h2.769a1.145,1.145,0,0,0,.439.962,1.808,1.808,0,0,0,1.081.3,1.422,1.422,0,0,0,.91-.246A.787.787,0,0,0,105.82,14.328Zm3.867-2.171a5.613,5.613,0,0,1,.554-2.536,3.96,3.96,0,0,1,1.591-1.709,4.791,4.791,0,0,1,2.435-.6,4.373,4.373,0,0,1,3.366,1.323,5.076,5.076,0,0,1,1.23,3.6v.105a4.925,4.925,0,0,1-1.235,3.529,4.384,4.384,0,0,1-3.344,1.305,4.434,4.434,0,0,1-3.261-1.217,4.761,4.761,0,0,1-1.327-3.3Zm2.962.185a3.538,3.538,0,0,0,.413,1.934,1.376,1.376,0,0,0,1.222.615q1.582,0,1.617-2.435v-.3q0-2.558-1.635-2.558-1.485,0-1.608,2.206Zm11.54,2.549a1.317,1.317,0,0,0,.967-.338,1.241,1.241,0,0,0,.334-.945h2.777a3.288,3.288,0,0,1-1.121,2.566,4.168,4.168,0,0,1-2.887,1,4.22,4.22,0,0,1-3.27-1.3,5.125,5.125,0,0,1-1.2-3.6v-.123a5.792,5.792,0,0,1,.532-2.544,3.872,3.872,0,0,1,1.534-1.7,4.573,4.573,0,0,1,2.373-.593,4.116,4.116,0,0,1,2.944,1.028,3.647,3.647,0,0,1,1.09,2.786H125.49a1.626,1.626,0,0,0-.36-1.134,1.244,1.244,0,0,0-.967-.4q-1.151,0-1.345,1.468a10.357,10.357,0,0,0-.062,1.283,4.068,4.068,0,0,0,.343,1.986A1.187,1.187,0,0,0,124.189,14.891ZM132.644,17h-2.971V7.49h2.971ZM129.5,5.029a1.334,1.334,0,0,1,.457-1.043,1.934,1.934,0,0,1,2.373,0,1.334,1.334,0,0,1,.457,1.043,1.334,1.334,0,0,1-.457,1.043,1.934,1.934,0,0,1-2.373,0A1.334,1.334,0,0,1,129.5,5.029ZM139.825,17a3.344,3.344,0,0,1-.281-.853,2.754,2.754,0,0,1-2.285,1.028,3.374,3.374,0,0,1-2.285-.813,2.588,2.588,0,0,1-.94-2.043,2.66,2.66,0,0,1,1.143-2.338,5.821,5.821,0,0,1,3.322-.791h.914v-.5q0-1.316-1.134-1.316a.927.927,0,0,0-1.055,1.042h-2.962a2.655,2.655,0,0,1,1.173-2.239,4.931,4.931,0,0,1,2.993-.86A4.323,4.323,0,0,1,141.3,8.2a3.086,3.086,0,0,1,1.081,2.435v4.21a4.311,4.311,0,0,0,.4,2V17Zm-1.854-1.934a1.652,1.652,0,0,0,.918-.237,1.487,1.487,0,0,0,.523-.536V12.772h-.861q-1.547,0-1.547,1.389a.848.848,0,0,0,.272.655A.986.986,0,0,0,137.97,15.066ZM147.146,17h-2.971V3.5h2.971Zm6.425.176a4.889,4.889,0,0,1-3.542-1.305,4.507,4.507,0,0,1-1.354-3.4v-.246a5.84,5.84,0,0,1,.541-2.575,3.955,3.955,0,0,1,1.578-1.727,4.763,4.763,0,0,1,2.461-.611,4.117,4.117,0,0,1,3.164,1.244,4.887,4.887,0,0,1,1.16,3.467v1.151H151.69a2.135,2.135,0,0,0,.694,1.257,2.066,2.066,0,0,0,1.389.457,2.662,2.662,0,0,0,2.2-.984l1.354,1.6a3.784,3.784,0,0,1-1.569,1.217A5.3,5.3,0,0,1,153.571,17.176ZM153.237,9.6q-1.3,0-1.547,1.723h2.988v-.229a1.467,1.467,0,0,0-.36-1.1A1.434,1.434,0,0,0,153.237,9.6Zm10.512,4.729a.684.684,0,0,0-.4-.606,6.016,6.016,0,0,0-1.5-.475,6.853,6.853,0,0,1-1.828-.646,3.062,3.062,0,0,1-1.1-.971,2.319,2.319,0,0,1-.378-1.31,2.628,2.628,0,0,1,1.081-2.158,4.453,4.453,0,0,1,2.83-.848,4.934,4.934,0,0,1,3.023.853,2.666,2.666,0,0,1,1.143,2.241h-2.971q0-1.143-1.2-1.143a1.194,1.194,0,0,0-.782.259.8.8,0,0,0-.316.646.737.737,0,0,0,.387.642,3.654,3.654,0,0,0,1.235.4,10.671,10.671,0,0,1,1.49.378A2.706,2.706,0,0,1,166.6,14.24a2.491,2.491,0,0,1-1.156,2.118,5.068,5.068,0,0,1-2.993.817,5.172,5.172,0,0,1-2.18-.439,3.645,3.645,0,0,1-1.494-1.2,2.707,2.707,0,0,1-.536-1.591h2.769a1.145,1.145,0,0,0,.439.962,1.808,1.808,0,0,0,1.081.3,1.422,1.422,0,0,0,.91-.246A.787.787,0,0,0,163.749,14.328Z" transform="translate(-1121.238 -1803.922)" fill="#12263f"/>
    <path id="Trazado_213448" data-name="Trazado 213448" d="M31.084-17.343q0,8.7-3.6,13.31T16.939.576q-6.856,0-10.486-4.523T2.737-16.911v-7.721q0-8.787,3.644-13.338t10.5-4.552q6.856,0,10.486,4.509t3.716,12.949Zm-8.326-8.489q0-5.22-1.426-7.6a4.819,4.819,0,0,0-4.451-2.379,4.734,4.734,0,0,0-4.336,2.264q-1.4,2.264-1.484,7.079v10.208q0,5.133,1.4,7.627a4.755,4.755,0,0,0,4.48,2.494A4.676,4.676,0,0,0,21.347-8.53q1.354-2.393,1.412-7.325ZM61.333-15.787h4.753v6.712H61.333V0H53.008V-9.075h-17.2l-.375-5.243L52.921-41.945h8.412Zm-17.6,0h9.276V-30.595l-.547.951Z" transform="translate(-882.5 -1774.922)" fill="#12263f" opacity="0.273"/>
  </g>
</svg>
