<svg xmlns="http://www.w3.org/2000/svg" xmlns:xlink="http://www.w3.org/1999/xlink" width="360.524" height="291.597" viewBox="0 0 360.524 291.597">
  <defs>
    <filter id="Rectángulo_46669" x="19.122" y="20.189" width="255.091" height="271.408" filterUnits="userSpaceOnUse">
      <feOffset dy="3" input="SourceAlpha"/>
      <feGaussianBlur stdDeviation="3" result="blur"/>
      <feFlood flood-opacity="0.161"/>
      <feComposite operator="in" in2="blur"/>
      <feComposite in="SourceGraphic"/>
    </filter>
  </defs>
  <g id="Grupo_172862" data-name="Grupo 172862" transform="translate(549.312 2258.868)">
    <g id="Grupo_166659" data-name="Grupo 166659" transform="translate(-549.312 -2257.693)">
      <path id="Trazado_210944" data-name="Trazado 210944" d="M170.8,4114.393h-1.927c-1.384,0-2.506-.83-2.506-1.854s1.122-1.854,2.506-1.854H170.8c1.384,0,2.506.83,2.506,1.854S172.179,4114.393,170.8,4114.393Zm-21.2,0h-1.927c-1.384,0-2.506-.83-2.506-1.854s1.122-1.854,2.506-1.854h1.927c1.384,0,2.506.83,2.506,1.854S150.978,4114.393,149.595,4114.393Zm-21.2,0h-1.927c-1.384,0-2.506-.83-2.506-1.854s1.122-1.854,2.506-1.854h1.927c1.384,0,2.506.83,2.506,1.854S129.778,4114.393,128.394,4114.393Zm-21.2,0h-1.927c-1.384,0-2.506-.83-2.506-1.854s1.122-1.854,2.506-1.854h1.927c1.384,0,2.506.83,2.506,1.854S108.577,4114.393,107.194,4114.393Zm-21.2,0H84.066c-1.384,0-2.506-.83-2.506-1.854s1.122-1.854,2.506-1.854h1.927c1.384,0,2.506.83,2.506,1.854S87.377,4114.393,85.993,4114.393Zm-21.2,0H62.865c-1.384,0-2.506-.83-2.506-1.854s1.122-1.854,2.506-1.854h1.927c1.384,0,2.506.83,2.506,1.854S66.176,4114.393,64.792,4114.393Zm-21.2,0H41.665c-1.384,0-2.506-.83-2.506-1.854s1.122-1.854,2.506-1.854h1.927c1.384,0,2.506.83,2.506,1.854S44.976,4114.393,43.592,4114.393Zm-21.2,0H20.464c-1.384,0-2.506-.83-2.506-1.854s1.122-1.854,2.506-1.854h1.927c1.384,0,2.506.83,2.506,1.854S23.775,4114.393,22.391,4114.393Zm-21.2,0H-.736c-1.384,0-2.506-.83-2.506-1.854s1.122-1.854,2.506-1.854H1.191c1.384,0,2.506.83,2.506,1.854S2.575,4114.393,1.191,4114.393Zm-21.2,0h-1.927c-1.384,0-2.506-.83-2.506-1.854s1.122-1.854,2.506-1.854h1.927c1.384,0,2.506.83,2.506,1.854S-18.626,4114.393-20.01,4114.393Zm-21.2-.046c-.058,0-.116,0-.175,0-.7-.036-1.406-.09-2.1-.164-1.37-.145-2.321-1.084-2.125-2.1a2.493,2.493,0,0,1,2.835-1.573c.571.061,1.154.106,1.733.136,1.381.07,2.423.956,2.328,1.977A2.317,2.317,0,0,1-41.205,4114.347Zm219.1-.674a2.518,2.518,0,0,1-2.41-1.352c-.375-.985.4-2.009,1.732-2.287.559-.116,1.117-.25,1.658-.4a2.816,2.816,0,0,1,3.21,1.11c.473.962-.2,2.025-1.5,2.375-.656.176-1.332.337-2.009.479A3.34,3.34,0,0,1,177.894,4113.672Zm-237.439-6.3a2.925,2.925,0,0,1-1.931-.671c-.448-.4-.88-.816-1.285-1.238a1.572,1.572,0,0,1,.589-2.585,3.109,3.109,0,0,1,3.494.436c.335.349.692.692,1.062,1.022a1.548,1.548,0,0,1-.332,2.61A3.075,3.075,0,0,1-59.545,4107.374Zm253.474-3.294a3.217,3.217,0,0,1-1.17-.216c-1.223-.479-1.69-1.6-1.042-2.505.271-.379.525-.769.757-1.161a2.9,2.9,0,0,1,3.3-.954c1.268.41,1.845,1.5,1.29,2.441-.281.475-.59.949-.919,1.408A2.729,2.729,0,0,1,193.929,4104.08Zm-259.475-11.346c-1.384,0-2.506-.83-2.506-1.854v-1.426c0-1.024,1.122-1.854,2.506-1.854s2.506.83,2.506,1.854v1.426C-63.041,4091.9-64.163,4092.734-65.546,4092.734Zm262.5-3.972c-1.384,0-2.506-.83-2.506-1.854v-1.426c0-1.024,1.122-1.854,2.506-1.854s2.506.83,2.506,1.854v1.426C199.46,4087.931,198.339,4088.761,196.955,4088.761Zm-262.5-11.713c-1.384,0-2.506-.83-2.506-1.854v-1.426c0-1.024,1.122-1.854,2.506-1.854s2.506.83,2.506,1.854v1.426C-63.041,4076.219-64.163,4077.049-65.546,4077.049Zm262.5-3.972c-1.384,0-2.506-.83-2.506-1.854V4069.8c0-1.024,1.122-1.854,2.506-1.854s2.506.83,2.506,1.854v1.426C199.46,4072.247,198.339,4073.076,196.955,4073.076Zm-262.5-11.713c-1.384,0-2.506-.829-2.506-1.854v-1.426c0-1.024,1.122-1.854,2.506-1.854s2.506.83,2.506,1.854v1.426C-63.041,4060.534-64.163,4061.364-65.546,4061.364Zm262.5-3.972c-1.384,0-2.506-.83-2.506-1.854v-1.426c0-1.024,1.122-1.854,2.506-1.854s2.506.83,2.506,1.854v1.426C199.46,4056.562,198.339,4057.391,196.955,4057.391Zm-262.5-11.712c-1.384,0-2.506-.83-2.506-1.854V4042.4c0-1.024,1.122-1.854,2.506-1.854s2.506.83,2.506,1.854v1.425C-63.041,4044.849-64.163,4045.679-65.546,4045.679Zm262.5-3.972c-1.384,0-2.506-.83-2.506-1.854v-1.426c0-1.024,1.122-1.854,2.506-1.854s2.506.83,2.506,1.854v1.426C199.46,4040.876,198.339,4041.707,196.955,4041.707Zm-262.5-11.713c-1.384,0-2.506-.83-2.506-1.854v-1.426c0-1.024,1.122-1.854,2.506-1.854s2.506.83,2.506,1.854v1.426C-63.041,4029.164-64.163,4029.994-65.546,4029.994Zm262.5-3.972c-1.384,0-2.506-.83-2.506-1.854v-1.426c0-1.024,1.122-1.854,2.506-1.854s2.506.83,2.506,1.854v1.426C199.46,4025.191,198.339,4026.021,196.955,4026.021Zm-262.5-11.713c-1.384,0-2.506-.83-2.506-1.854v-1.426c0-1.024,1.122-1.854,2.506-1.854s2.506.83,2.506,1.854v1.426C-63.041,4013.479-64.163,4014.309-65.546,4014.309Zm262.5-3.972c-1.384,0-2.506-.83-2.506-1.854v-1.426c0-1.024,1.122-1.854,2.506-1.854s2.506.83,2.506,1.854v1.426C199.46,4009.506,198.339,4010.336,196.955,4010.336Zm-262.5-11.713c-1.384,0-2.506-.83-2.506-1.854v-1.426c0-1.023,1.122-1.854,2.506-1.854s2.506.83,2.506,1.854v1.426C-63.041,3997.794-64.163,3998.624-65.546,3998.624Zm262.5-3.973c-1.384,0-2.506-.83-2.506-1.854v-1.426c0-1.024,1.122-1.854,2.506-1.854s2.506.83,2.506,1.854v1.426C199.46,3993.821,198.339,3994.651,196.955,3994.651Zm-262.5-11.712c-1.384,0-2.506-.83-2.506-1.854v-1.426c0-1.024,1.122-1.854,2.506-1.854s2.506.83,2.506,1.854v1.426C-63.041,3982.109-64.163,3982.938-65.546,3982.938Zm262.5-3.972c-1.384,0-2.506-.83-2.506-1.854v-1.426c0-1.024,1.122-1.854,2.506-1.854s2.506.83,2.506,1.854v1.426C199.46,3978.136,198.339,3978.966,196.955,3978.966Zm-262.5-11.713c-1.384,0-2.506-.83-2.506-1.854v-1.426c0-1.024,1.122-1.854,2.506-1.854s2.506.83,2.506,1.854v1.426C-63.041,3966.424-64.163,3967.253-65.546,3967.253Zm262.5-3.972c-1.384,0-2.506-.83-2.506-1.854V3960c0-1.024,1.122-1.854,2.506-1.854s2.506.83,2.506,1.854v1.426C199.46,3962.451,198.339,3963.281,196.955,3963.281Zm-262.5-11.713c-1.384,0-2.506-.83-2.506-1.854v-1.426c0-1.024,1.122-1.854,2.506-1.854s2.506.83,2.506,1.854v1.426C-63.041,3950.739-64.163,3951.569-65.546,3951.569Zm262.5-3.972c-1.384,0-2.506-.83-2.506-1.854v-1.426c0-1.024,1.122-1.854,2.506-1.854s2.506.83,2.506,1.854v1.426C199.46,3946.766,198.339,3947.6,196.955,3947.6Zm-262.5-11.713c-1.384,0-2.506-.83-2.506-1.854V3932.6c0-1.024,1.122-1.854,2.506-1.854s2.506.83,2.506,1.854v1.426C-63.041,3935.053-64.163,3935.883-65.546,3935.883Zm262.5-3.972c-1.384,0-2.506-.83-2.506-1.854v-1.426c0-1.024,1.122-1.854,2.506-1.854s2.506.83,2.506,1.854v1.426C199.46,3931.081,198.339,3931.911,196.955,3931.911Zm-262.5-11.713c-1.384,0-2.506-.83-2.506-1.854v-1.426c0-1.024,1.122-1.854,2.506-1.854s2.506.83,2.506,1.854v1.426C-63.041,3919.368-64.163,3920.2-65.546,3920.2Zm262.5-3.972c-1.384,0-2.506-.83-2.506-1.854v-1.426c0-1.024,1.122-1.854,2.506-1.854s2.506.83,2.506,1.854v1.426C199.46,3915.4,198.339,3916.226,196.955,3916.226Zm-262.5-11.713c-1.384,0-2.506-.83-2.506-1.854v-1.426c0-1.024,1.122-1.854,2.506-1.854s2.506.83,2.506,1.854v1.426C-63.041,3903.683-64.163,3904.513-65.546,3904.513Zm262.5-3.972c-1.384,0-2.506-.83-2.506-1.854v-1.426c0-1.024,1.122-1.854,2.506-1.854s2.506.83,2.506,1.854v1.426C199.46,3899.711,198.339,3900.541,196.955,3900.541Zm-262.5-11.713c-1.384,0-2.506-.83-2.506-1.854v-1.426c0-1.024,1.122-1.854,2.506-1.854s2.506.83,2.506,1.854v1.426C-63.041,3888-64.163,3888.828-65.546,3888.828Zm262.5-3.972c-1.384,0-2.506-.83-2.506-1.854v-.359c0-.321-.012-.646-.035-.966-.075-1.022.984-1.9,2.366-1.951s2.563.728,2.638,1.75c.028.386.043.779.043,1.167V3883C199.46,3884.026,198.339,3884.856,196.955,3884.856Zm-258.136-11.07a3.149,3.149,0,0,1-1.386-.311,1.586,1.586,0,0,1-.7-2.57c.389-.432.8-.858,1.233-1.268a3.132,3.132,0,0,1,3.516-.326,1.557,1.557,0,0,1,.441,2.6c-.355.338-.7.69-1.019,1.047A2.828,2.828,0,0,1-61.181,3873.786Zm250.358-3.059a3.005,3.005,0,0,1-1.761-.535c-.41-.3-.842-.593-1.284-.872a1.545,1.545,0,0,1-.281-2.613,3.15,3.15,0,0,1,3.532-.208c.535.337,1.058.693,1.555,1.056a1.538,1.538,0,0,1,.02,2.622A3,3,0,0,1,189.177,3870.727Zm-233.1-5.294a2.416,2.416,0,0,1-2.465-1.535c-.238-1.008.673-1.969,2.036-2.145.692-.09,1.4-.161,2.092-.212,1.373-.1,2.6.642,2.741,1.661s-.869,1.927-2.246,2.028c-.574.042-1.153.1-1.724.175A3.363,3.363,0,0,1-43.925,3865.434Zm213.911-.291h-1.927c-1.384,0-2.506-.83-2.506-1.854s1.122-1.854,2.506-1.854h1.927c1.384,0,2.506.83,2.506,1.854S171.369,3865.143,169.986,3865.143Zm-21.2,0h-1.927c-1.384,0-2.506-.83-2.506-1.854s1.122-1.854,2.506-1.854h1.927c1.384,0,2.506.83,2.506,1.854S150.169,3865.143,148.785,3865.143Zm-21.2,0h-1.927c-1.384,0-2.506-.83-2.506-1.854s1.122-1.854,2.506-1.854h1.927c1.384,0,2.506.83,2.506,1.854S128.969,3865.143,127.585,3865.143Zm-21.2,0h-1.927c-1.384,0-2.506-.83-2.506-1.854s1.122-1.854,2.506-1.854h1.927c1.384,0,2.506.83,2.506,1.854S107.768,3865.143,106.384,3865.143Zm-21.2,0H83.257c-1.384,0-2.506-.83-2.506-1.854s1.122-1.854,2.506-1.854h1.927c1.384,0,2.506.83,2.506,1.854S86.568,3865.143,85.184,3865.143Zm-21.2,0H62.056c-1.384,0-2.506-.83-2.506-1.854s1.122-1.854,2.506-1.854h1.927c1.384,0,2.506.83,2.506,1.854S65.367,3865.143,63.983,3865.143Zm-21.2,0H40.856c-1.384,0-2.506-.83-2.506-1.854s1.122-1.854,2.506-1.854h1.927c1.384,0,2.506.83,2.506,1.854S44.167,3865.143,42.783,3865.143Zm-21.2,0H19.655c-1.384,0-2.506-.83-2.506-1.854s1.122-1.854,2.506-1.854h1.927c1.384,0,2.506.83,2.506,1.854S22.966,3865.143,21.582,3865.143Zm-21.2,0H-1.546c-1.384,0-2.506-.83-2.506-1.854s1.122-1.854,2.506-1.854H.382c1.384,0,2.506.83,2.506,1.854S1.766,3865.143.382,3865.143Zm-21.2,0h-1.927c-1.384,0-2.506-.83-2.506-1.854s1.122-1.854,2.506-1.854h1.927c1.384,0,2.506.83,2.506,1.854S-19.435,3865.143-20.819,3865.143Z" transform="translate(68.052 -3861.436)" fill="#7f4fc7"/>
    </g>
    <path id="Trazado_210945" data-name="Trazado 210945" d="M419.852,3858.387h-115.9c-5.565,0-10.077,3.331-10.077,7.439V4105.08c0,4.108,4.512,7.439,10.077,7.439H419.872a11.374,11.374,0,0,0,8.391-3.319,7.125,7.125,0,0,0,.528-.683l86.094-122.612-86.1-123.5a7.079,7.079,0,0,0-.527-.685A11.36,11.36,0,0,0,419.852,3858.387Z" transform="translate(-703.674 -6117.255)" fill="#7f4fc7"/>
    <g id="Grupo_166662" data-name="Grupo 166662" transform="translate(-521.57 -2231.919)" opacity="0.2" style="mix-blend-mode: multiply;isolation: isolate">
      <g id="Grupo_166661" data-name="Grupo 166661" transform="translate(0 0)">
        <g id="Grupo_166660" data-name="Grupo 166660">
          <rect id="Rectángulo_46668" data-name="Rectángulo 46668" width="237.091" height="243.133" rx="20"/>
        </g>
      </g>
    </g>
    <g id="Grupo_166672" data-name="Grupo 166672" transform="translate(-481.26 -6117.255)">
      <g id="Grupo_166664" data-name="Grupo 166664" transform="translate(-39.93 3884.576)">
        <g id="Grupo_166663" data-name="Grupo 166663" transform="translate(0)">
          <g transform="matrix(1, 0, 0, 1, -28.12, -26.19)" filter="url(#Rectángulo_46669)">
            <rect id="Rectángulo_46669-2" data-name="Rectángulo 46669" width="237.091" height="253.408" rx="20" transform="translate(28.12 26.19)" fill="#fff"/>
          </g>
        </g>
      </g>
      <g id="Grupo_166665" data-name="Grupo 166665" transform="translate(-39.929 3892.794)">
        <path id="Trazado_210946" data-name="Trazado 210946" d="M233.778,3966.04v208.412c0,10.157-9.523,18.389-21.273,18.389H26.175c-11.746,0-21.269-8.231-21.269-18.389V3966.04c0-10.157,9.523-18.389,21.269-18.389H212.5C224.255,3947.651,233.778,3955.883,233.778,3966.04Z" transform="translate(-4.906 -3947.651)" fill="#f7f7f7"/>
      </g>
    </g>
    <g id="SJGlTC.tif" transform="translate(-2550.871 3116.789)">
      <g id="Grupo_166684" data-name="Grupo 166684" transform="translate(2113 -5333.102)">
        <path id="Trazado_210956" data-name="Trazado 210956" d="M2125.81-5070.148a30.647,30.647,0,0,0,2.884-1.954,17.363,17.363,0,0,1,5.67-3.752,17.222,17.222,0,0,1,7.377-.642c1.922.2,3.528,1.114,5.262,1.766a10.618,10.618,0,0,0,2.98.65,38.738,38.738,0,0,0,4.856.006,6.565,6.565,0,0,0,2.39-.638c1.315-.631,2.535-1.456,3.834-2.123a6.377,6.377,0,0,1,6.792.393.848.848,0,0,0,1.018.125,5.068,5.068,0,0,1,6.142.866c.073.07.153.131.271.231a5.713,5.713,0,0,1,4.584-.651,5.734,5.734,0,0,1,3.248,2.337c.514.751.446,1.163-.291,1.68q-4.192,2.943-8.392,5.873c-3.495,2.439-7.087,4.751-10.461,7.348a14.346,14.346,0,0,1-10.6,2.983c-2.841-.288-5.655-.855-8.477-1.324-1.52-.252-3.032-.55-4.544-.846a6.216,6.216,0,0,0-5,1.416c-1.205.868-2.458,1.672-3.725,2.45a.751.751,0,0,0-.373,1.056c.57,1.729,1.1,3.473,1.634,5.215.341,1.117.013,1.564-1.122,1.577q-6.966.076-13.932.152c-1.071.011-1.32-.207-1.449-1.25-.529-4.283-1.031-8.57-1.583-12.851-.564-4.375-1.171-8.743-1.766-13.114-.157-1.149.129-1.489,1.311-1.49,2.983,0,5.966.019,8.948-.013a1.3,1.3,0,0,1,1.452,1.065C2125.054-5072.551,2125.393-5071.5,2125.81-5070.148Zm55.433-2.761a3.8,3.8,0,0,0-4.733-.849q-5.323,2.859-10.6,5.8a1.117,1.117,0,0,0-.422.708.947.947,0,0,1-1,.869c-1.174.017-2.347.014-3.521,0-2.49-.025-4.981-.077-7.471-.083-.69,0-1.379.139-2.071.18a.831.831,0,0,1-.973-.772.851.851,0,0,1,.724-1.015c.2-.048.405-.066.608-.095a49.4,49.4,0,0,1,9-.089c.889.039,1.781.005,2.67.005a4.628,4.628,0,0,0-3.741-3.895,31.92,31.92,0,0,0-6.064-.151c-2.793.16-5.561.284-8.118-1.062a12.875,12.875,0,0,0-7.054-1.451,11.586,11.586,0,0,0-6.912,2.672c-1.62,1.375-3.087,2.953-5.312,3.578l4.3,13.121c1.752-1.143,3.449-2.237,5.133-3.353a5.546,5.546,0,0,1,3.737-.909c.681.068,1.369.087,2.041.207,2.3.407,4.587.88,6.89,1.267,2.135.358,4.215,1.013,6.443.859a14.491,14.491,0,0,0,8.067-2.747c4.313-3.228,8.821-6.2,13.25-9.269C2177.8-5070.548,2179.489-5071.7,2181.243-5072.909Zm-66.345.1c1.115,8.408,2.213,16.687,3.3,24.9h12.7c-.192-.554-.352-.982-.49-1.417q-2.67-8.425-5.33-16.853c-.616-1.957-1.184-3.93-1.813-5.882-.092-.286-.4-.712-.612-.717C2120.121-5072.828,2117.581-5072.81,2114.9-5072.81Zm58.532-1.481a2.615,2.615,0,0,0-3.269-.6c-2.082,1.029-4.1,2.2-6.145,3.311l1.132,2.048Zm-13.286.172c.76.383,1.484.756,2.218,1.108a.547.547,0,0,0,.43.023c1.216-.675,2.42-1.37,3.7-2.1C2164.027-5076.528,2162.087-5075.338,2160.144-5074.119Z" transform="translate(-2113.001 5116.743)" fill="#12263f"/>
        <path id="Trazado_210957" data-name="Trazado 210957" d="M2196.8-5204.838c0,.547,0,1.082,0,1.616-.012,1.1-.236,1.324-1.306,1.334-.437,0-.874,0-1.311,0q-10.013.076-20.027.152c-1.388.01-1.533-.148-1.535-1.557,0-.456,0-.913,0-1.513-.8.074-1.5.192-2.2.195q-6.516.026-13.031,0a.964.964,0,0,1-1.085-1.032c-.05-1.994-.162-3.99-.135-5.983a6.967,6.967,0,0,1,5.648-6.62,1.914,1.914,0,0,1,2.046.649,3.991,3.991,0,0,0,5.892.052,2.531,2.531,0,0,1,3.03-.622c.505.182,1,.4,1.549.618a8.138,8.138,0,0,1,1.627-1.417,19.676,19.676,0,0,1,3.227-1.163,1.6,1.6,0,0,1,1.806.676c1.8,2.274,5.644,1.822,7.255-.064a1.949,1.949,0,0,1,2.235-.663,8.592,8.592,0,0,1,4.152,2.359c1.121-.28,2.145-.594,3.192-.762a1.625,1.625,0,0,1,1.147.41c2.3,2.024,4.6,1.967,6.743-.15a1.7,1.7,0,0,1,1.225-.4,6.981,6.981,0,0,1,5.788,5.161,15.327,15.327,0,0,1,.331,2.789c.054,1.36.014,2.724.014,4.086,0,1.427-.2,1.62-1.661,1.62-2.056,0-4.112-.019-6.168,0-2.666.033-5.331.1-8,.154A4.175,4.175,0,0,0,2196.8-5204.838Zm-1.9,1.138c0-3.325.1-6.487-.035-9.639a5.725,5.725,0,0,0-4.339-4.966,1.013,1.013,0,0,0-1.149.3c-2.378,2.468-7.186,2.556-9.564.055a1.165,1.165,0,0,0-.932-.237,5.884,5.884,0,0,0-4.547,5.679c-.046,2.39-.028,4.781-.005,7.171a13.035,13.035,0,0,0,.207,1.638Zm16.329-3.173c0-1.806-.032-3.45.008-5.092a5.187,5.187,0,0,0-3.538-4.742,1.155,1.155,0,0,0-1.3.282,6.032,6.032,0,0,1-7.786.3,1.908,1.908,0,0,0-2.79.129c1.629,2.9.689,6.114,1.039,9.121Zm-38.817.382c.322-3.184-.541-6.393.829-9.408-1.157-.769-1.545-.813-2.522.065-1.667,1.5-6.1,1.934-7.708-.107a1.187,1.187,0,0,0-1.51-.284,4.648,4.648,0,0,0-3.325,3.8,53.777,53.777,0,0,0-.048,5.932Z" transform="translate(-2149.563 5237.553)" fill="#12263f"/>
        <path id="Trazado_210958" data-name="Trazado 210958" d="M2295.263-5324.78a20.19,20.19,0,0,1,.309-3.49,6.32,6.32,0,0,1,3.432-4.049,6.876,6.876,0,0,1,5.232-.476,6.493,6.493,0,0,1,4.935,6.023,28.01,28.01,0,0,1,.018,3.923c-.16,2.668-1.707,4.418-3.858,5.837-3.141,2.073-9.314.158-9.937-5.456a20.957,20.957,0,0,1-.012-2.308Zm12.215.1-.094-.01c0-.411,0-.822,0-1.233a4.933,4.933,0,0,0-4.626-5.3,5.128,5.128,0,0,0-5.647,4.4,29.971,29.971,0,0,0,.108,3.989,5.1,5.1,0,0,0,4.726,4.756,4.97,4.97,0,0,0,5.184-3.708A20.194,20.194,0,0,0,2307.478-5324.676Z" transform="translate(-2267.36 5333.102)" fill="#12263f"/>
        <path id="Trazado_210959" data-name="Trazado 210959" d="M2428.617-5302.448a17.68,17.68,0,0,1-.387,3.039,6.035,6.035,0,0,1-6.948,4.35,5.957,5.957,0,0,1-5.123-5.944,28.105,28.105,0,0,1,.181-4.6,5.048,5.048,0,0,1,2.457-3.325,5.937,5.937,0,0,1,6.292-.374,5.955,5.955,0,0,1,3.405,5.225c.035.538.005,1.079.005,1.619Zm-1.872.015-.082-.009c0-.437.011-.874,0-1.31a4.38,4.38,0,0,0-3.957-4.375,4.409,4.409,0,0,0-4.812,3.877c-.056,1.063.071,2.137.1,3.206.066,2.15,1.657,4.148,3.607,4.277a4.337,4.337,0,0,0,4.845-3.161A12.115,12.115,0,0,0,2426.745-5302.433Z" transform="translate(-2369.736 5313.563)" fill="#12263f"/>
        <path id="Trazado_210960" data-name="Trazado 210960" d="M2197.475-5299.182a25.794,25.794,0,0,1-.646,3.527,6.059,6.059,0,0,1-6.2,3.954,6.142,6.142,0,0,1-5.624-5.441,17,17,0,0,1,.183-4.9,5.815,5.815,0,0,1,6.731-4.6,5.97,5.97,0,0,1,5.384,6.12c.006.438,0,.874,0,1.311Zm-10.676-.188c0,.68-.022,1.194,0,1.706a4.344,4.344,0,0,0,3.443,4.023,4.4,4.4,0,0,0,4.856-2.28,1.5,1.5,0,0,0,.208-.572c.058-1.459.181-2.923.112-4.377a4.17,4.17,0,0,0-2.556-3.744c-1.591-.75-3.037-.252-4.42.6a2.128,2.128,0,0,0-.364.378A5.1,5.1,0,0,0,2186.8-5299.37Z" transform="translate(-2173.908 5310.75)" fill="#12263f"/>
        <path id="Trazado_210961" data-name="Trazado 210961" d="M2169.034-4921.062a2.909,2.909,0,0,1-2.882-2.907,2.8,2.8,0,0,1,2.734-2.915,2.927,2.927,0,0,1,2.929,2.951A2.789,2.789,0,0,1,2169.034-4921.062Zm.931-2.886a1.1,1.1,0,0,0-1-1.078.943.943,0,0,0-.962,1.03,1.066,1.066,0,0,0,.98,1.078A.953.953,0,0,0,2169.966-4923.948Z" transform="translate(-2158.015 4989.074)" fill="#12263f"/>
      </g>
    </g>
    <path id="Trazado_213450" data-name="Trazado 213450" d="M22.29,9.93a7.053,7.053,0,0,1-2.809-1.363,2.6,2.6,0,0,1-.879-2,2.751,2.751,0,0,1,1.074-2.223,4.269,4.269,0,0,1,2.793-.879,4.66,4.66,0,0,1,2.09.453,3.436,3.436,0,0,1,1.422,1.25,3.2,3.2,0,0,1,.5,1.742H24.978a2.08,2.08,0,0,0-.656-1.627A2.669,2.669,0,0,0,22.47,4.7a2.732,2.732,0,0,0-1.73.489,1.632,1.632,0,0,0-.621,1.358,1.468,1.468,0,0,0,.59,1.178,5.785,5.785,0,0,0,2.008.88,9.316,9.316,0,0,1,2.219.88A3.367,3.367,0,0,1,26.122,10.6a2.861,2.861,0,0,1,.387,1.508,2.658,2.658,0,0,1-1.078,2.215,4.6,4.6,0,0,1-2.883.832,5.347,5.347,0,0,1-2.187-.449,3.681,3.681,0,0,1-1.566-1.23,3,3,0,0,1-.551-1.773h1.508a1.959,1.959,0,0,0,.762,1.629,3.207,3.207,0,0,0,2.035.6,2.948,2.948,0,0,0,1.82-.484A1.573,1.573,0,0,0,25,12.125a1.545,1.545,0,0,0-.586-1.293A6.755,6.755,0,0,0,22.29,9.93Zm5.531.766a4.993,4.993,0,0,1,.488-2.234A3.643,3.643,0,0,1,29.669,6.93a3.7,3.7,0,0,1,1.988-.539,3.565,3.565,0,0,1,2.793,1.2,4.6,4.6,0,0,1,1.066,3.18v.1a5.036,5.036,0,0,1-.473,2.215,3.589,3.589,0,0,1-1.352,1.527,3.743,3.743,0,0,1-2.02.547,3.556,3.556,0,0,1-2.785-1.2A4.575,4.575,0,0,1,27.822,10.8Zm1.453.172a3.616,3.616,0,0,0,.652,2.258,2.211,2.211,0,0,0,3.5-.012,3.955,3.955,0,0,0,.648-2.418,3.61,3.61,0,0,0-.66-2.254,2.1,2.1,0,0,0-1.754-.863,2.075,2.075,0,0,0-1.727.852A3.925,3.925,0,0,0,29.275,10.867ZM38.7,6.547l.047,1.063a3.08,3.08,0,0,1,2.531-1.219q2.68,0,2.7,3.023V15H42.532V9.406a1.946,1.946,0,0,0-.418-1.352,1.675,1.675,0,0,0-1.277-.437,2.086,2.086,0,0,0-1.234.375,2.546,2.546,0,0,0-.828.984V15H37.329V6.547ZM51.689,15H50.243V3h1.445Zm7.531,0a3.036,3.036,0,0,1-.2-.891,3.225,3.225,0,0,1-2.406,1.047,2.984,2.984,0,0,1-2.051-.707,2.287,2.287,0,0,1-.8-1.793,2.39,2.39,0,0,1,1-2.051,4.733,4.733,0,0,1,2.824-.73h1.406V9.211A1.623,1.623,0,0,0,58.54,8,1.821,1.821,0,0,0,57.2,7.555a2.107,2.107,0,0,0-1.3.391,1.151,1.151,0,0,0-.523.945H53.931a2,2,0,0,1,.449-1.223A3.066,3.066,0,0,1,55.6,6.734a4.1,4.1,0,0,1,1.691-.344,3.342,3.342,0,0,1,2.289.73,2.635,2.635,0,0,1,.859,2.012v3.891a4.757,4.757,0,0,0,.3,1.852V15Zm-2.4-1.1a2.54,2.54,0,0,0,1.289-.352,2.127,2.127,0,0,0,.883-.914V10.9H57.861q-2.656,0-2.656,1.555a1.316,1.316,0,0,0,.453,1.063A1.742,1.742,0,0,0,56.822,13.9Zm10.8-1.141a1.064,1.064,0,0,0-.441-.91,4.249,4.249,0,0,0-1.539-.559,7.277,7.277,0,0,1-1.742-.562,2.479,2.479,0,0,1-.953-.781,1.869,1.869,0,0,1-.309-1.078,2.193,2.193,0,0,1,.879-1.758,3.432,3.432,0,0,1,2.246-.719,3.532,3.532,0,0,1,2.332.742,2.357,2.357,0,0,1,.895,1.9H67.54a1.3,1.3,0,0,0-.5-1.023,1.888,1.888,0,0,0-1.27-.43,1.976,1.976,0,0,0-1.234.344,1.082,1.082,0,0,0-.445.9.877.877,0,0,0,.414.789,5.1,5.1,0,0,0,1.5.508,7.8,7.8,0,0,1,1.754.578,2.558,2.558,0,0,1,1,.809,1.988,1.988,0,0,1,.324,1.152,2.163,2.163,0,0,1-.906,1.816,3.8,3.8,0,0,1-2.352.684,4.257,4.257,0,0,1-1.8-.359,2.922,2.922,0,0,1-1.223-1,2.42,2.42,0,0,1-.441-1.395H63.8a1.5,1.5,0,0,0,.582,1.152,2.258,2.258,0,0,0,1.434.426,2.331,2.331,0,0,0,1.316-.332A1.02,1.02,0,0,0,67.626,12.758Zm10.078.281L79.8,6.547h1.477L78.243,15h-1.1L74.079,6.547h1.477ZM84.236,15H82.79V6.547h1.445ZM82.673,4.3a.863.863,0,0,1,.215-.594.807.807,0,0,1,.637-.242.819.819,0,0,1,.641.242.854.854,0,0,1,.219.594.826.826,0,0,1-.219.586.834.834,0,0,1-.641.234.821.821,0,0,1-.637-.234A.834.834,0,0,1,82.673,4.3Zm8.8,8.453a1.064,1.064,0,0,0-.441-.91,4.249,4.249,0,0,0-1.539-.559,7.277,7.277,0,0,1-1.742-.562,2.479,2.479,0,0,1-.953-.781,1.869,1.869,0,0,1-.309-1.078,2.193,2.193,0,0,1,.879-1.758,3.432,3.432,0,0,1,2.246-.719,3.532,3.532,0,0,1,2.332.742,2.357,2.357,0,0,1,.895,1.9H91.384a1.3,1.3,0,0,0-.5-1.023,1.888,1.888,0,0,0-1.27-.43,1.976,1.976,0,0,0-1.234.344,1.082,1.082,0,0,0-.445.9.877.877,0,0,0,.414.789,5.1,5.1,0,0,0,1.5.508,7.8,7.8,0,0,1,1.754.578,2.558,2.558,0,0,1,1,.809,1.988,1.988,0,0,1,.324,1.152,2.163,2.163,0,0,1-.906,1.816,3.8,3.8,0,0,1-2.352.684,4.257,4.257,0,0,1-1.8-.359,2.922,2.922,0,0,1-1.223-1A2.42,2.42,0,0,1,86.2,12.4h1.445a1.5,1.5,0,0,0,.582,1.152,2.258,2.258,0,0,0,1.434.426,2.331,2.331,0,0,0,1.316-.332A1.02,1.02,0,0,0,91.47,12.758ZM96.368,15H94.923V6.547h1.445ZM94.806,4.3a.863.863,0,0,1,.215-.594.807.807,0,0,1,.637-.242.819.819,0,0,1,.641.242.854.854,0,0,1,.219.594.826.826,0,0,1-.219.586.834.834,0,0,1-.641.234.821.821,0,0,1-.637-.234A.834.834,0,0,1,94.806,4.3Zm5.836.2V6.547h1.578V7.664h-1.578v5.249a1.173,1.173,0,0,0,.211.763.888.888,0,0,0,.719.254,3.5,3.5,0,0,0,.688-.094V15a4.215,4.215,0,0,1-1.109.155,1.8,1.8,0,0,1-1.461-.586,2.517,2.517,0,0,1-.492-1.664V7.664H97.657V6.547H99.2V4.5ZM109.126,15a3.036,3.036,0,0,1-.2-.891,3.225,3.225,0,0,1-2.406,1.047,2.984,2.984,0,0,1-2.051-.707,2.288,2.288,0,0,1-.8-1.793,2.39,2.39,0,0,1,1-2.051,4.733,4.733,0,0,1,2.824-.73H108.9V9.211A1.623,1.623,0,0,0,108.447,8a1.821,1.821,0,0,0-1.336-.449,2.108,2.108,0,0,0-1.3.391,1.151,1.151,0,0,0-.523.945h-1.453a2,2,0,0,1,.449-1.223,3.066,3.066,0,0,1,1.219-.934,4.1,4.1,0,0,1,1.691-.344,3.342,3.342,0,0,1,2.289.73,2.635,2.635,0,0,1,.859,2.012v3.891a4.757,4.757,0,0,0,.3,1.852V15Zm-2.4-1.1a2.54,2.54,0,0,0,1.289-.352,2.127,2.127,0,0,0,.883-.914V10.9h-1.133q-2.656,0-2.656,1.555a1.316,1.316,0,0,0,.453,1.063A1.742,1.742,0,0,0,106.728,13.9Zm10.8-1.141a1.064,1.064,0,0,0-.441-.91,4.249,4.249,0,0,0-1.539-.559,7.277,7.277,0,0,1-1.742-.562,2.479,2.479,0,0,1-.953-.781,1.869,1.869,0,0,1-.309-1.078,2.193,2.193,0,0,1,.879-1.758,3.432,3.432,0,0,1,2.246-.719,3.532,3.532,0,0,1,2.332.742,2.357,2.357,0,0,1,.895,1.9h-1.453a1.3,1.3,0,0,0-.5-1.023,1.888,1.888,0,0,0-1.27-.43,1.976,1.976,0,0,0-1.234.344,1.082,1.082,0,0,0-.445.9.877.877,0,0,0,.414.789,5.1,5.1,0,0,0,1.5.508,7.8,7.8,0,0,1,1.754.578,2.558,2.558,0,0,1,1,.809,1.988,1.988,0,0,1,.324,1.152,2.163,2.163,0,0,1-.906,1.816,3.8,3.8,0,0,1-2.352.684,4.257,4.257,0,0,1-1.8-.359,2.922,2.922,0,0,1-1.223-1,2.42,2.42,0,0,1-.441-1.395H113.7a1.5,1.5,0,0,0,.582,1.152,2.258,2.258,0,0,0,1.434.426,2.331,2.331,0,0,0,1.316-.332A1.02,1.02,0,0,0,117.532,12.758ZM124.47,10.7a4.961,4.961,0,0,1,.914-3.152A3.226,3.226,0,0,1,130.2,7.4l.063-.852h1.328v11.7H130.15V14.219a3.033,3.033,0,0,1-2.328.938,2.915,2.915,0,0,1-2.441-1.191,5.072,5.072,0,0,1-.91-3.16Zm1.445.164a3.761,3.761,0,0,0,.613,2.281,1.951,1.951,0,0,0,1.652.828,2.164,2.164,0,0,0,1.969-1.141V8.7A2.171,2.171,0,0,0,128.2,7.578a1.965,1.965,0,0,0-1.664.832A4.094,4.094,0,0,0,125.915,10.867Zm13.219,3.3a3.07,3.07,0,0,1-2.477.992,2.628,2.628,0,0,1-2.059-.785,3.4,3.4,0,0,1-.715-2.324v-5.5h1.445v5.461q0,1.922,1.563,1.922a2.163,2.163,0,0,0,2.2-1.234V6.547h1.445V15h-1.375Zm7.109.992a3.693,3.693,0,0,1-2.8-1.129,4.19,4.19,0,0,1-1.078-3.02v-.266a5.073,5.073,0,0,1,.48-2.246,3.748,3.748,0,0,1,1.344-1.547,3.378,3.378,0,0,1,1.871-.559,3.166,3.166,0,0,1,2.563,1.086,4.7,4.7,0,0,1,.914,3.109v.6h-5.727a3,3,0,0,0,.73,2.02,2.3,2.3,0,0,0,1.777.77,2.517,2.517,0,0,0,1.3-.312,3.258,3.258,0,0,0,.93-.828l.883.688A3.55,3.55,0,0,1,146.243,15.156Zm-.18-7.578a1.928,1.928,0,0,0-1.469.637A3.1,3.1,0,0,0,143.861,10h4.234V9.891a2.753,2.753,0,0,0-.594-1.707A1.815,1.815,0,0,0,146.064,7.578Zm14.031,5.18a1.064,1.064,0,0,0-.441-.91,4.249,4.249,0,0,0-1.539-.559,7.277,7.277,0,0,1-1.742-.562,2.479,2.479,0,0,1-.953-.781,1.869,1.869,0,0,1-.309-1.078,2.193,2.193,0,0,1,.879-1.758,3.432,3.432,0,0,1,2.246-.719,3.532,3.532,0,0,1,2.332.742,2.357,2.357,0,0,1,.895,1.9h-1.453a1.3,1.3,0,0,0-.5-1.023,1.888,1.888,0,0,0-1.27-.43A1.976,1.976,0,0,0,157,7.922a1.082,1.082,0,0,0-.445.9.877.877,0,0,0,.414.789,5.1,5.1,0,0,0,1.5.508,7.8,7.8,0,0,1,1.754.578,2.558,2.558,0,0,1,1,.809,1.988,1.988,0,0,1,.324,1.152,2.163,2.163,0,0,1-.906,1.816,3.8,3.8,0,0,1-2.352.684,4.257,4.257,0,0,1-1.8-.359,2.922,2.922,0,0,1-1.223-1,2.42,2.42,0,0,1-.441-1.395h1.445a1.5,1.5,0,0,0,.582,1.152,2.258,2.258,0,0,0,1.434.426,2.331,2.331,0,0,0,1.316-.332A1.02,1.02,0,0,0,160.095,12.758Zm6.836,2.4a3.693,3.693,0,0,1-2.8-1.129,4.19,4.19,0,0,1-1.078-3.02v-.266a5.073,5.073,0,0,1,.48-2.246,3.748,3.748,0,0,1,1.344-1.547,3.378,3.378,0,0,1,1.871-.559,3.166,3.166,0,0,1,2.563,1.086,4.7,4.7,0,0,1,.914,3.109v.6H164.5a3,3,0,0,0,.73,2.02,2.3,2.3,0,0,0,1.777.77,2.517,2.517,0,0,0,1.3-.312,3.258,3.258,0,0,0,.93-.828l.883.688A3.55,3.55,0,0,1,166.931,15.156Zm-.18-7.578a1.928,1.928,0,0,0-1.469.637A3.1,3.1,0,0,0,164.548,10h4.234V9.891a2.753,2.753,0,0,0-.594-1.707A1.815,1.815,0,0,0,166.751,7.578ZM7.193,34.7a4.968,4.968,0,0,1,.914-3.145,2.923,2.923,0,0,1,2.422-1.168,2.908,2.908,0,0,1,2.414,1.094l.07-.937h1.32V38.8a3.439,3.439,0,0,1-.973,2.586,3.589,3.589,0,0,1-2.613.945,4.348,4.348,0,0,1-1.789-.391,3.08,3.08,0,0,1-1.336-1.07L8.372,40a2.826,2.826,0,0,0,2.273,1.148,2.214,2.214,0,0,0,1.645-.594,2.269,2.269,0,0,0,.59-1.672v-.727a2.971,2.971,0,0,1-2.367,1,2.887,2.887,0,0,1-2.4-1.2A5.224,5.224,0,0,1,7.193,34.7Zm1.453.164a3.79,3.79,0,0,0,.586,2.246,1.9,1.9,0,0,0,1.641.816,2.117,2.117,0,0,0,2.008-1.242V32.828a2.142,2.142,0,0,0-1.992-1.211,1.921,1.921,0,0,0-1.648.82A4.128,4.128,0,0,0,8.646,34.867Zm11.375,4.289a3.693,3.693,0,0,1-2.8-1.129,4.19,4.19,0,0,1-1.078-3.02v-.266a5.073,5.073,0,0,1,.48-2.246,3.748,3.748,0,0,1,1.344-1.547,3.378,3.378,0,0,1,1.871-.559A3.166,3.166,0,0,1,22.4,31.477a4.7,4.7,0,0,1,.914,3.109v.6H17.591a3,3,0,0,0,.73,2.02,2.3,2.3,0,0,0,1.777.77,2.517,2.517,0,0,0,1.3-.312,3.259,3.259,0,0,0,.93-.828l.883.688A3.55,3.55,0,0,1,20.021,39.156Zm-.18-7.578a1.928,1.928,0,0,0-1.469.637A3.1,3.1,0,0,0,17.638,34h4.234v-.109a2.753,2.753,0,0,0-.594-1.707A1.815,1.815,0,0,0,19.841,31.578Zm6.516-1.031.047,1.063a3.08,3.08,0,0,1,2.531-1.219q2.68,0,2.7,3.023V39H30.193V33.406a1.946,1.946,0,0,0-.418-1.352,1.675,1.675,0,0,0-1.277-.437,2.086,2.086,0,0,0-1.234.375,2.546,2.546,0,0,0-.828.984V39H24.99V30.547Zm10.969,8.609a3.693,3.693,0,0,1-2.8-1.129,4.19,4.19,0,0,1-1.078-3.02v-.266a5.073,5.073,0,0,1,.48-2.246,3.748,3.748,0,0,1,1.344-1.547,3.378,3.378,0,0,1,1.871-.559,3.166,3.166,0,0,1,2.563,1.086,4.7,4.7,0,0,1,.914,3.109v.6H34.9a3,3,0,0,0,.73,2.02,2.3,2.3,0,0,0,1.777.77,2.517,2.517,0,0,0,1.3-.312,3.258,3.258,0,0,0,.93-.828l.883.688A3.55,3.55,0,0,1,37.325,39.156Zm-.18-7.578a1.928,1.928,0,0,0-1.469.637A3.1,3.1,0,0,0,34.943,34h4.234v-.109a2.753,2.753,0,0,0-.594-1.707A1.815,1.815,0,0,0,37.146,31.578Zm9.234.266a4.331,4.331,0,0,0-.711-.055A1.9,1.9,0,0,0,43.74,33v6H42.294V30.547H43.7l.023.977a2.251,2.251,0,0,1,2.016-1.133,1.477,1.477,0,0,1,.641.109ZM52.615,39a3.036,3.036,0,0,1-.2-.891,3.225,3.225,0,0,1-2.406,1.047,2.984,2.984,0,0,1-2.051-.707,2.287,2.287,0,0,1-.8-1.793,2.39,2.39,0,0,1,1-2.051,4.733,4.733,0,0,1,2.824-.73h1.406v-.664A1.623,1.623,0,0,0,51.935,32a1.821,1.821,0,0,0-1.336-.449,2.107,2.107,0,0,0-1.3.391,1.151,1.151,0,0,0-.523.945H47.325a2,2,0,0,1,.449-1.223,3.066,3.066,0,0,1,1.219-.934,4.1,4.1,0,0,1,1.691-.344,3.342,3.342,0,0,1,2.289.73,2.635,2.635,0,0,1,.859,2.012v3.891a4.757,4.757,0,0,0,.3,1.852V39Zm-2.4-1.1a2.54,2.54,0,0,0,1.289-.352,2.127,2.127,0,0,0,.883-.914V34.9H51.255q-2.656,0-2.656,1.555a1.316,1.316,0,0,0,.453,1.063A1.742,1.742,0,0,0,50.216,37.9Zm7.25-7.352.047,1.063a3.08,3.08,0,0,1,2.531-1.219q2.68,0,2.7,3.023V39H61.3V33.406a1.946,1.946,0,0,0-.418-1.352,1.675,1.675,0,0,0-1.277-.437,2.086,2.086,0,0,0-1.234.375,2.546,2.546,0,0,0-.828.984V39H56.1V30.547Zm18.563,4.32a5.062,5.062,0,0,1-.883,3.109,2.829,2.829,0,0,1-2.391,1.18,3.1,3.1,0,0,1-2.422-.977v4.07H68.888v-11.7h1.32l.07.938a2.977,2.977,0,0,1,2.453-1.094,2.882,2.882,0,0,1,2.41,1.148,5.117,5.117,0,0,1,.887,3.2ZM74.583,34.7a3.735,3.735,0,0,0-.609-2.258,1.963,1.963,0,0,0-1.672-.828,2.125,2.125,0,0,0-1.969,1.164V36.82a2.129,2.129,0,0,0,1.984,1.156,1.954,1.954,0,0,0,1.652-.824A4.077,4.077,0,0,0,74.583,34.7Zm2.9-.008a4.993,4.993,0,0,1,.488-2.234,3.643,3.643,0,0,1,1.359-1.531,3.7,3.7,0,0,1,1.988-.539,3.565,3.565,0,0,1,2.793,1.2,4.6,4.6,0,0,1,1.066,3.18v.1a5.036,5.036,0,0,1-.473,2.215,3.589,3.589,0,0,1-1.352,1.527,3.743,3.743,0,0,1-2.02.547,3.556,3.556,0,0,1-2.785-1.2A4.575,4.575,0,0,1,77.482,34.8Zm1.453.172a3.616,3.616,0,0,0,.652,2.258,2.211,2.211,0,0,0,3.5-.012,3.955,3.955,0,0,0,.648-2.418,3.61,3.61,0,0,0-.66-2.254,2.1,2.1,0,0,0-1.754-.863,2.075,2.075,0,0,0-1.727.852A3.925,3.925,0,0,0,78.935,34.867Zm12.141-3.023a4.331,4.331,0,0,0-.711-.055A1.9,1.9,0,0,0,88.435,33v6H86.99V30.547H88.4l.023.977a2.251,2.251,0,0,1,2.016-1.133,1.477,1.477,0,0,1,.641.109ZM97.935,39H96.49V27h1.445Zm7.531,0a3.036,3.036,0,0,1-.2-.891,3.225,3.225,0,0,1-2.406,1.047,2.984,2.984,0,0,1-2.051-.707,2.288,2.288,0,0,1-.8-1.793,2.39,2.39,0,0,1,1-2.051,4.733,4.733,0,0,1,2.824-.73h1.406v-.664A1.623,1.623,0,0,0,104.786,32a1.821,1.821,0,0,0-1.336-.449,2.108,2.108,0,0,0-1.3.391,1.151,1.151,0,0,0-.523.945h-1.453a2,2,0,0,1,.449-1.223,3.066,3.066,0,0,1,1.219-.934,4.1,4.1,0,0,1,1.691-.344,3.342,3.342,0,0,1,2.289.73,2.635,2.635,0,0,1,.859,2.012v3.891a4.757,4.757,0,0,0,.3,1.852V39Zm-2.4-1.1a2.54,2.54,0,0,0,1.289-.352,2.127,2.127,0,0,0,.883-.914V34.9h-1.133q-2.656,0-2.656,1.555a1.316,1.316,0,0,0,.453,1.063A1.742,1.742,0,0,0,103.068,37.9Zm17-3.031a5.026,5.026,0,0,1-.891,3.113,2.846,2.846,0,0,1-2.391,1.176,2.947,2.947,0,0,1-2.477-1.133l-.07.977h-1.328V27h1.445v4.477a2.93,2.93,0,0,1,2.414-1.086,2.863,2.863,0,0,1,2.418,1.164,5.177,5.177,0,0,1,.879,3.188Zm-1.445-.164a3.906,3.906,0,0,0-.57-2.281,1.888,1.888,0,0,0-1.641-.8,2.122,2.122,0,0,0-2.055,1.328V36.6a2.181,2.181,0,0,0,2.07,1.328,1.878,1.878,0,0,0,1.617-.8A4.153,4.153,0,0,0,118.622,34.7Zm8.484,3.461a3.07,3.07,0,0,1-2.477.992,2.628,2.628,0,0,1-2.059-.785,3.4,3.4,0,0,1-.715-2.324v-5.5H123.3v5.461q0,1.922,1.563,1.922a2.163,2.163,0,0,0,2.2-1.234V30.547h1.445V39h-1.375Zm-1.172-11.148h1.75l-2.094,2.3-1.164,0Zm9.7,9.742a1.064,1.064,0,0,0-.441-.91,4.249,4.249,0,0,0-1.539-.559,7.277,7.277,0,0,1-1.742-.562,2.479,2.479,0,0,1-.953-.781,1.869,1.869,0,0,1-.309-1.078,2.193,2.193,0,0,1,.879-1.758,3.432,3.432,0,0,1,2.246-.719,3.532,3.532,0,0,1,2.332.742,2.357,2.357,0,0,1,.895,1.9h-1.453a1.3,1.3,0,0,0-.5-1.023,1.888,1.888,0,0,0-1.27-.43,1.976,1.976,0,0,0-1.234.344,1.082,1.082,0,0,0-.445.9.877.877,0,0,0,.414.789,5.1,5.1,0,0,0,1.5.508,7.8,7.8,0,0,1,1.754.578,2.558,2.558,0,0,1,1,.809,1.988,1.988,0,0,1,.324,1.152,2.163,2.163,0,0,1-.906,1.816,3.8,3.8,0,0,1-2.352.684,4.257,4.257,0,0,1-1.8-.359,2.922,2.922,0,0,1-1.223-1,2.42,2.42,0,0,1-.441-1.395H131.8a1.5,1.5,0,0,0,.582,1.152,2.258,2.258,0,0,0,1.434.426,2.331,2.331,0,0,0,1.316-.332A1.02,1.02,0,0,0,135.63,36.758Zm2.977-2.055a4.961,4.961,0,0,1,.914-3.152,3.226,3.226,0,0,1,4.82-.152l.063-.852h1.328v11.7h-1.445V38.219a3.033,3.033,0,0,1-2.328.938,2.915,2.915,0,0,1-2.441-1.191,5.072,5.072,0,0,1-.91-3.16Zm1.445.164a3.761,3.761,0,0,0,.613,2.281,1.951,1.951,0,0,0,1.652.828,2.164,2.164,0,0,0,1.969-1.141V32.7a2.171,2.171,0,0,0-1.953-1.117,1.965,1.965,0,0,0-1.664.832A4.094,4.094,0,0,0,140.052,34.867Zm13.219,3.3a3.07,3.07,0,0,1-2.477.992,2.628,2.628,0,0,1-2.059-.785,3.4,3.4,0,0,1-.715-2.324v-5.5h1.445v5.461q0,1.922,1.563,1.922a2.163,2.163,0,0,0,2.2-1.234V30.547h1.445V39H153.3Zm7.109.992a3.693,3.693,0,0,1-2.8-1.129,4.19,4.19,0,0,1-1.078-3.02v-.266a5.073,5.073,0,0,1,.48-2.246,3.748,3.748,0,0,1,1.344-1.547,3.378,3.378,0,0,1,1.871-.559,3.166,3.166,0,0,1,2.563,1.086,4.7,4.7,0,0,1,.914,3.109v.6H157.95a3,3,0,0,0,.73,2.02,2.3,2.3,0,0,0,1.777.77,2.517,2.517,0,0,0,1.3-.312,3.258,3.258,0,0,0,.93-.828l.883.688A3.55,3.55,0,0,1,160.38,39.156Zm-.18-7.578a1.928,1.928,0,0,0-1.469.637A3.1,3.1,0,0,0,158,34h4.234v-.109a2.753,2.753,0,0,0-.594-1.707A1.815,1.815,0,0,0,160.2,31.578ZM165,34.7a4.952,4.952,0,0,1,.922-3.129,3.137,3.137,0,0,1,4.766-.168V27h1.445V39H170.8l-.07-.906a2.943,2.943,0,0,1-2.414,1.063,2.887,2.887,0,0,1-2.395-1.2A5.008,5.008,0,0,1,165,34.813Zm1.445.164a3.749,3.749,0,0,0,.594,2.25,1.919,1.919,0,0,0,1.641.813,2.108,2.108,0,0,0,2.008-1.234V32.813a2.125,2.125,0,0,0-1.992-1.2,1.929,1.929,0,0,0-1.656.82A4.128,4.128,0,0,0,166.443,34.867ZM179.591,39a3.036,3.036,0,0,1-.2-.891,3.225,3.225,0,0,1-2.406,1.047,2.984,2.984,0,0,1-2.051-.707,2.287,2.287,0,0,1-.8-1.793,2.39,2.39,0,0,1,1-2.051,4.733,4.733,0,0,1,2.824-.73h1.406v-.664A1.623,1.623,0,0,0,178.911,32a1.821,1.821,0,0,0-1.336-.449,2.107,2.107,0,0,0-1.3.391,1.151,1.151,0,0,0-.523.945H174.3a2,2,0,0,1,.449-1.223,3.066,3.066,0,0,1,1.219-.934,4.1,4.1,0,0,1,1.691-.344,3.342,3.342,0,0,1,2.289.73,2.635,2.635,0,0,1,.859,2.012v3.891a4.757,4.757,0,0,0,.3,1.852V39Zm-2.4-1.1a2.54,2.54,0,0,0,1.289-.352,2.127,2.127,0,0,0,.883-.914V34.9h-1.133q-2.656,0-2.656,1.555a1.316,1.316,0,0,0,.453,1.063A1.742,1.742,0,0,0,177.193,37.9ZM25.474,58.7a4.952,4.952,0,0,1,.922-3.129,3.137,3.137,0,0,1,4.766-.168V51h1.445V63H31.279l-.07-.906a2.943,2.943,0,0,1-2.414,1.063,2.887,2.887,0,0,1-2.395-1.2,5.008,5.008,0,0,1-.926-3.141Zm1.445.164a3.749,3.749,0,0,0,.594,2.25,1.92,1.92,0,0,0,1.641.813A2.108,2.108,0,0,0,31.161,60.7V56.813a2.125,2.125,0,0,0-1.992-1.2,1.929,1.929,0,0,0-1.656.82A4.128,4.128,0,0,0,26.919,58.867Zm11.438,4.289a3.693,3.693,0,0,1-2.8-1.129,4.19,4.19,0,0,1-1.078-3.02v-.266a5.073,5.073,0,0,1,.48-2.246,3.748,3.748,0,0,1,1.344-1.547,3.378,3.378,0,0,1,1.871-.559,3.166,3.166,0,0,1,2.563,1.086,4.7,4.7,0,0,1,.914,3.109v.6H35.927a3,3,0,0,0,.73,2.02,2.3,2.3,0,0,0,1.777.77,2.517,2.517,0,0,0,1.3-.312,3.258,3.258,0,0,0,.93-.828l.883.688A3.55,3.55,0,0,1,38.357,63.156Zm-.18-7.578a1.928,1.928,0,0,0-1.469.637A3.1,3.1,0,0,0,35.974,58h4.234v-.109a2.753,2.753,0,0,0-.594-1.707A1.815,1.815,0,0,0,38.177,55.578Zm14.328,6.586a3.07,3.07,0,0,1-2.477.992,2.628,2.628,0,0,1-2.059-.785,3.4,3.4,0,0,1-.715-2.324v-5.5H48.7v5.461q0,1.922,1.563,1.922a2.163,2.163,0,0,0,2.2-1.234V54.547h1.445V63H52.536Zm4.969-7.617.047,1.063a3.08,3.08,0,0,1,2.531-1.219q2.68,0,2.7,3.023V63H61.31V57.406a1.946,1.946,0,0,0-.418-1.352,1.675,1.675,0,0,0-1.277-.437,2.086,2.086,0,0,0-1.234.375,2.546,2.546,0,0,0-.828.984V63H56.107V54.547Zm16.641,7.617a3.07,3.07,0,0,1-2.477.992,2.628,2.628,0,0,1-2.059-.785,3.4,3.4,0,0,1-.715-2.324v-5.5H70.31v5.461q0,1.922,1.563,1.922a2.163,2.163,0,0,0,2.2-1.234V54.547h1.445V63H74.146Zm8.523-1.406a1.064,1.064,0,0,0-.441-.91,4.249,4.249,0,0,0-1.539-.559,7.277,7.277,0,0,1-1.742-.562,2.479,2.479,0,0,1-.953-.781,1.869,1.869,0,0,1-.309-1.078,2.193,2.193,0,0,1,.879-1.758,3.432,3.432,0,0,1,2.246-.719,3.532,3.532,0,0,1,2.332.742,2.357,2.357,0,0,1,.895,1.9H82.552a1.3,1.3,0,0,0-.5-1.023,1.888,1.888,0,0,0-1.27-.43,1.976,1.976,0,0,0-1.234.344,1.082,1.082,0,0,0-.445.9.877.877,0,0,0,.414.789,5.1,5.1,0,0,0,1.5.508,7.8,7.8,0,0,1,1.754.578,2.558,2.558,0,0,1,1,.809,1.988,1.988,0,0,1,.324,1.152,2.163,2.163,0,0,1-.906,1.816,3.8,3.8,0,0,1-2.352.684,4.257,4.257,0,0,1-1.8-.359,2.922,2.922,0,0,1-1.223-1,2.42,2.42,0,0,1-.441-1.395H78.81a1.5,1.5,0,0,0,.582,1.152,2.258,2.258,0,0,0,1.434.426,2.331,2.331,0,0,0,1.316-.332A1.02,1.02,0,0,0,82.638,60.758Zm8.547,1.406a3.07,3.07,0,0,1-2.477.992,2.628,2.628,0,0,1-2.059-.785,3.4,3.4,0,0,1-.715-2.324v-5.5H87.38v5.461q0,1.922,1.563,1.922a2.163,2.163,0,0,0,2.2-1.234V54.547h1.445V63H91.216Zm8.82.836a3.036,3.036,0,0,1-.2-.891A3.225,3.225,0,0,1,97.4,63.156a2.984,2.984,0,0,1-2.051-.707,2.288,2.288,0,0,1-.8-1.793,2.39,2.39,0,0,1,1-2.051,4.733,4.733,0,0,1,2.824-.73h1.406v-.664A1.623,1.623,0,0,0,99.325,56a1.821,1.821,0,0,0-1.336-.449,2.107,2.107,0,0,0-1.3.391,1.151,1.151,0,0,0-.523.945H94.716a2,2,0,0,1,.449-1.223,3.066,3.066,0,0,1,1.219-.934,4.1,4.1,0,0,1,1.691-.344,3.342,3.342,0,0,1,2.289.73,2.635,2.635,0,0,1,.859,2.012v3.891a4.757,4.757,0,0,0,.3,1.852V63Zm-2.4-1.1a2.54,2.54,0,0,0,1.289-.352,2.127,2.127,0,0,0,.883-.914V58.9H98.646q-2.656,0-2.656,1.555a1.316,1.316,0,0,0,.453,1.063A1.742,1.742,0,0,0,97.607,61.9Zm9.969-6.055a4.331,4.331,0,0,0-.711-.055A1.9,1.9,0,0,0,104.935,57v6H103.49V54.547H104.9l.023.977a2.251,2.251,0,0,1,2.016-1.133,1.477,1.477,0,0,1,.641.109Zm2.9,7.156h-1.445V54.547h1.445Zm-1.562-10.7a.863.863,0,0,1,.215-.594.807.807,0,0,1,.637-.242.819.819,0,0,1,.641.242.854.854,0,0,1,.219.594.826.826,0,0,1-.219.586.834.834,0,0,1-.641.234.821.821,0,0,1-.637-.234A.834.834,0,0,1,108.911,52.3ZM112.4,58.7a4.993,4.993,0,0,1,.488-2.234,3.643,3.643,0,0,1,1.359-1.531,3.7,3.7,0,0,1,1.988-.539,3.565,3.565,0,0,1,2.793,1.2,4.6,4.6,0,0,1,1.066,3.18v.1a5.036,5.036,0,0,1-.473,2.215,3.589,3.589,0,0,1-1.352,1.527,3.743,3.743,0,0,1-2.02.547,3.556,3.556,0,0,1-2.785-1.2A4.575,4.575,0,0,1,112.4,58.8Zm1.453.172a3.616,3.616,0,0,0,.652,2.258,2.211,2.211,0,0,0,3.5-.012,3.955,3.955,0,0,0,.648-2.418,3.61,3.61,0,0,0-.66-2.254,2.1,2.1,0,0,0-1.754-.863,2.075,2.075,0,0,0-1.727.852A3.925,3.925,0,0,0,113.857,58.867Zm15.523,4.289a3.693,3.693,0,0,1-2.8-1.129,4.19,4.19,0,0,1-1.078-3.02v-.266a5.073,5.073,0,0,1,.48-2.246,3.748,3.748,0,0,1,1.344-1.547,3.378,3.378,0,0,1,1.871-.559,3.166,3.166,0,0,1,2.563,1.086,4.7,4.7,0,0,1,.914,3.109v.6H126.95a3,3,0,0,0,.73,2.02,2.3,2.3,0,0,0,1.777.77,2.517,2.517,0,0,0,1.3-.312,3.258,3.258,0,0,0,.93-.828l.883.688A3.55,3.55,0,0,1,129.38,63.156Zm-.18-7.578a1.928,1.928,0,0,0-1.469.637A3.1,3.1,0,0,0,127,58h4.234v-.109a2.753,2.753,0,0,0-.594-1.707A1.815,1.815,0,0,0,129.2,55.578Zm6.516-1.031.047,1.063a3.08,3.08,0,0,1,2.531-1.219q2.68,0,2.7,3.023V63h-1.445V57.406a1.946,1.946,0,0,0-.418-1.352,1.675,1.675,0,0,0-1.277-.437,2.086,2.086,0,0,0-1.234.375,2.546,2.546,0,0,0-.828.984V63h-1.445V54.547Zm16.641,7.617a3.07,3.07,0,0,1-2.477.992,2.628,2.628,0,0,1-2.059-.785,3.4,3.4,0,0,1-.715-2.324v-5.5h1.445v5.461q0,1.922,1.563,1.922a2.163,2.163,0,0,0,2.2-1.234V54.547h1.445V63h-1.375Zm4.969-7.617.047,1.063a3.08,3.08,0,0,1,2.531-1.219q2.68,0,2.7,3.023V63h-1.445V57.406a1.946,1.946,0,0,0-.418-1.352,1.675,1.675,0,0,0-1.277-.437,2.086,2.086,0,0,0-1.234.375,2.546,2.546,0,0,0-.828.984V63h-1.445V54.547ZM67.493,82.867A5.026,5.026,0,0,1,66.6,85.98a2.846,2.846,0,0,1-2.391,1.176,2.947,2.947,0,0,1-2.477-1.133l-.07.977H60.337V75h1.445v4.477A2.93,2.93,0,0,1,64.2,78.391a2.863,2.863,0,0,1,2.418,1.164,5.177,5.177,0,0,1,.879,3.188ZM66.048,82.7a3.906,3.906,0,0,0-.57-2.281,1.888,1.888,0,0,0-1.641-.8,2.122,2.122,0,0,0-2.055,1.328V84.6a2.181,2.181,0,0,0,2.07,1.328,1.878,1.878,0,0,0,1.617-.8A4.153,4.153,0,0,0,66.048,82.7Zm8.484,3.461a3.07,3.07,0,0,1-2.477.992A2.628,2.628,0,0,1,70,86.371a3.4,3.4,0,0,1-.715-2.324v-5.5h1.445v5.461q0,1.922,1.563,1.922a2.163,2.163,0,0,0,2.2-1.234V78.547h1.445V87H74.564Zm8.523-1.406a1.064,1.064,0,0,0-.441-.91,4.249,4.249,0,0,0-1.539-.559,7.277,7.277,0,0,1-1.742-.562,2.478,2.478,0,0,1-.953-.781,1.869,1.869,0,0,1-.309-1.078,2.193,2.193,0,0,1,.879-1.758,3.432,3.432,0,0,1,2.246-.719,3.532,3.532,0,0,1,2.332.742,2.357,2.357,0,0,1,.895,1.9H82.97a1.3,1.3,0,0,0-.5-1.023,1.888,1.888,0,0,0-1.27-.43,1.976,1.976,0,0,0-1.234.344,1.082,1.082,0,0,0-.445.9.877.877,0,0,0,.414.789,5.1,5.1,0,0,0,1.5.508,7.8,7.8,0,0,1,1.754.578,2.559,2.559,0,0,1,1,.809,1.988,1.988,0,0,1,.324,1.152,2.163,2.163,0,0,1-.906,1.816,3.8,3.8,0,0,1-2.352.684,4.257,4.257,0,0,1-1.8-.359,2.922,2.922,0,0,1-1.223-1,2.42,2.42,0,0,1-.441-1.395h1.445a1.5,1.5,0,0,0,.582,1.152,2.258,2.258,0,0,0,1.434.426,2.331,2.331,0,0,0,1.316-.332A1.02,1.02,0,0,0,83.056,84.758Zm6.719,1.219a2.082,2.082,0,0,0,1.352-.469,1.649,1.649,0,0,0,.641-1.172h1.367a2.621,2.621,0,0,1-.5,1.383,3.293,3.293,0,0,1-1.23,1.047,3.55,3.55,0,0,1-1.629.391A3.482,3.482,0,0,1,87.029,86a4.59,4.59,0,0,1-1.02-3.152v-.242a5.089,5.089,0,0,1,.453-2.2,3.451,3.451,0,0,1,1.3-1.492,3.7,3.7,0,0,1,2-.531,3.39,3.39,0,0,1,2.363.852,3.043,3.043,0,0,1,1,2.211H91.767a1.992,1.992,0,0,0-.621-1.348,1.932,1.932,0,0,0-1.379-.527,2.023,2.023,0,0,0-1.707.793,3.724,3.724,0,0,0-.605,2.293v.273a3.65,3.65,0,0,0,.6,2.25A2.033,2.033,0,0,0,89.775,85.977ZM99.978,87a3.036,3.036,0,0,1-.2-.891,3.225,3.225,0,0,1-2.406,1.047,2.984,2.984,0,0,1-2.051-.707,2.287,2.287,0,0,1-.8-1.793,2.39,2.39,0,0,1,1-2.051,4.733,4.733,0,0,1,2.824-.73h1.406v-.664A1.623,1.623,0,0,0,99.3,80a1.821,1.821,0,0,0-1.336-.449,2.108,2.108,0,0,0-1.3.391,1.151,1.151,0,0,0-.523.945H94.689a2,2,0,0,1,.449-1.223,3.066,3.066,0,0,1,1.219-.934,4.1,4.1,0,0,1,1.691-.344,3.342,3.342,0,0,1,2.289.73,2.635,2.635,0,0,1,.859,2.012v3.891a4.757,4.757,0,0,0,.3,1.852V87Zm-2.4-1.1a2.54,2.54,0,0,0,1.289-.352,2.127,2.127,0,0,0,.883-.914V82.9H98.618q-2.656,0-2.656,1.555a1.316,1.316,0,0,0,.453,1.063A1.742,1.742,0,0,0,97.579,85.9Zm5.531-3.2a4.952,4.952,0,0,1,.922-3.129,3.137,3.137,0,0,1,4.766-.168V75h1.445V87h-1.328l-.07-.906a2.943,2.943,0,0,1-2.414,1.063,2.887,2.887,0,0,1-2.395-1.2,5.008,5.008,0,0,1-.926-3.141Zm1.445.164a3.749,3.749,0,0,0,.594,2.25,1.92,1.92,0,0,0,1.641.813A2.109,2.109,0,0,0,108.8,84.7V80.813a2.125,2.125,0,0,0-1.992-1.2,1.929,1.929,0,0,0-1.656.82A4.128,4.128,0,0,0,104.556,82.867ZM112.1,82.7a4.993,4.993,0,0,1,.488-2.234,3.643,3.643,0,0,1,1.359-1.531,3.7,3.7,0,0,1,1.988-.539,3.565,3.565,0,0,1,2.793,1.2,4.6,4.6,0,0,1,1.066,3.18v.1a5.036,5.036,0,0,1-.473,2.215,3.589,3.589,0,0,1-1.352,1.527,3.743,3.743,0,0,1-2.02.547,3.556,3.556,0,0,1-2.785-1.2A4.575,4.575,0,0,1,112.1,82.8Zm1.453.172a3.616,3.616,0,0,0,.652,2.258,2.211,2.211,0,0,0,3.5-.012,3.955,3.955,0,0,0,.648-2.418,3.61,3.61,0,0,0-.66-2.254,2.1,2.1,0,0,0-1.754-.863,2.075,2.075,0,0,0-1.727.852A3.925,3.925,0,0,0,113.556,82.867ZM125.7,79.844a4.331,4.331,0,0,0-.711-.055A1.9,1.9,0,0,0,123.056,81v6h-1.445V78.547h1.406l.023.977a2.251,2.251,0,0,1,2.016-1.133,1.477,1.477,0,0,1,.641.109Zm.4,6.4a.905.905,0,0,1,.223-.625.848.848,0,0,1,.668-.25.874.874,0,0,1,.676.25.887.887,0,0,1,.23.625.839.839,0,0,1-.23.6.89.89,0,0,1-.676.242.8.8,0,0,1-.891-.844Z" transform="translate(-500.619 -2101.572)" fill="#12263f"/>
    <path id="Trazado_213452" data-name="Trazado 213452" d="M19.806,17V4.2h4.6a6.509,6.509,0,0,1,3.757.905,3.012,3.012,0,0,1,1.288,2.628,3.045,3.045,0,0,1-.457,1.7,2.663,2.663,0,0,1-1.345,1.037,2.7,2.7,0,0,1,1.538.984,2.862,2.862,0,0,1,.536,1.758,3.388,3.388,0,0,1-1.191,2.826A5.667,5.667,0,0,1,25,17Zm3.085-5.44v3.067h2.021a1.923,1.923,0,0,0,1.283-.382,1.338,1.338,0,0,0,.448-1.077,1.419,1.419,0,0,0-1.591-1.608Zm0-2.021H24.5a2.285,2.285,0,0,0,1.441-.37A1.314,1.314,0,0,0,26.371,8.1a1.379,1.379,0,0,0-.466-1.168,2.493,2.493,0,0,0-1.5-.357H22.891Zm14.054,6.434a3.054,3.054,0,0,1-2.54,1.2,3,3,0,0,1-2.369-.91,3.826,3.826,0,0,1-.8-2.615V7.49h2.962v6.179a1.065,1.065,0,0,0,1.187,1.222,1.548,1.548,0,0,0,1.45-.729V7.49H39.81V17H37.032ZM35.89,3.5h3.129L36.575,6.26l-2.417,0ZM46.41,14.328a.684.684,0,0,0-.4-.606,6.016,6.016,0,0,0-1.5-.475,6.853,6.853,0,0,1-1.828-.646,3.062,3.062,0,0,1-1.1-.971,2.319,2.319,0,0,1-.378-1.31,2.628,2.628,0,0,1,1.081-2.158,4.453,4.453,0,0,1,2.83-.848,4.934,4.934,0,0,1,3.023.853,2.666,2.666,0,0,1,1.143,2.241H46.313q0-1.143-1.2-1.143a1.194,1.194,0,0,0-.782.259.8.8,0,0,0-.316.646.737.737,0,0,0,.387.642,3.654,3.654,0,0,0,1.235.4,10.671,10.671,0,0,1,1.49.378,2.706,2.706,0,0,1,2.145,2.646,2.491,2.491,0,0,1-1.156,2.118,5.068,5.068,0,0,1-2.993.817,5.172,5.172,0,0,1-2.18-.439,3.645,3.645,0,0,1-1.494-1.2,2.707,2.707,0,0,1-.536-1.591h2.769a1.145,1.145,0,0,0,.439.962,1.808,1.808,0,0,0,1.081.3,1.422,1.422,0,0,0,.91-.246A.787.787,0,0,0,46.41,14.328Zm3.867-2.18A5.709,5.709,0,0,1,51.262,8.6a3.233,3.233,0,0,1,2.716-1.283,2.761,2.761,0,0,1,2.338,1.2l.211-1.02h2.566V20.656H56.122V16.209a2.757,2.757,0,0,1-2.162.967,3.2,3.2,0,0,1-2.685-1.305A6.027,6.027,0,0,1,50.277,12.148Zm2.962.185q0,2.558,1.477,2.558a1.43,1.43,0,0,0,1.406-.773V10.355A1.4,1.4,0,0,0,54.733,9.6q-1.38,0-1.485,2.206Zm13.192,3.639a3.054,3.054,0,0,1-2.54,1.2,3,3,0,0,1-2.369-.91,3.826,3.826,0,0,1-.8-2.615V7.49h2.962v6.179a1.065,1.065,0,0,0,1.187,1.222,1.548,1.548,0,0,0,1.45-.729V7.49H69.3V17H66.52Zm9.088,1.2a4.889,4.889,0,0,1-3.542-1.305,4.507,4.507,0,0,1-1.354-3.4v-.246a5.84,5.84,0,0,1,.541-2.575,3.955,3.955,0,0,1,1.578-1.727A4.763,4.763,0,0,1,75.2,7.314a4.117,4.117,0,0,1,3.164,1.244,4.887,4.887,0,0,1,1.16,3.467v1.151H73.639a2.135,2.135,0,0,0,.694,1.257,2.066,2.066,0,0,0,1.389.457,2.662,2.662,0,0,0,2.2-.984l1.354,1.6A3.784,3.784,0,0,1,77.7,16.723,5.3,5.3,0,0,1,75.52,17.176ZM75.186,9.6q-1.3,0-1.547,1.723h2.988v-.229a1.467,1.467,0,0,0-.36-1.1A1.434,1.434,0,0,0,75.186,9.6Zm5.159,2.575a5.809,5.809,0,0,1,.976-3.56,3.211,3.211,0,0,1,2.725-1.3,2.731,2.731,0,0,1,2.145,1V3.5H89.16V17H86.5l-.149-1.02a2.8,2.8,0,0,1-2.32,1.2,3.205,3.205,0,0,1-2.689-1.3A5.993,5.993,0,0,1,80.345,12.175Zm2.962.185q0,2.531,1.477,2.531a1.458,1.458,0,0,0,1.406-.826V10.443A1.419,1.419,0,0,0,84.8,9.6q-1.371,0-1.485,2.215ZM96.2,17a3.344,3.344,0,0,1-.281-.853,2.754,2.754,0,0,1-2.285,1.028,3.374,3.374,0,0,1-2.285-.813,2.588,2.588,0,0,1-.94-2.043,2.66,2.66,0,0,1,1.143-2.338,5.821,5.821,0,0,1,3.322-.791h.914v-.5q0-1.316-1.134-1.316A.927.927,0,0,0,93.6,10.413H90.637A2.655,2.655,0,0,1,91.81,8.175a4.931,4.931,0,0,1,2.993-.86,4.323,4.323,0,0,1,2.874.888,3.086,3.086,0,0,1,1.081,2.435v4.21a4.311,4.311,0,0,0,.4,2V17Zm-1.854-1.934a1.652,1.652,0,0,0,.918-.237,1.487,1.487,0,0,0,.523-.536V12.772h-.861q-1.547,0-1.547,1.389a.848.848,0,0,0,.272.655A.986.986,0,0,0,94.346,15.066Zm11.03-.738a.684.684,0,0,0-.4-.606,6.016,6.016,0,0,0-1.5-.475,6.853,6.853,0,0,1-1.828-.646,3.062,3.062,0,0,1-1.1-.971,2.319,2.319,0,0,1-.378-1.31,2.628,2.628,0,0,1,1.081-2.158,4.453,4.453,0,0,1,2.83-.848,4.934,4.934,0,0,1,3.023.853,2.666,2.666,0,0,1,1.143,2.241h-2.971q0-1.143-1.2-1.143a1.194,1.194,0,0,0-.782.259.8.8,0,0,0-.316.646.737.737,0,0,0,.387.642,3.654,3.654,0,0,0,1.235.4,10.671,10.671,0,0,1,1.49.378,2.706,2.706,0,0,1,2.145,2.646,2.491,2.491,0,0,1-1.156,2.118,5.068,5.068,0,0,1-2.993.817,5.172,5.172,0,0,1-2.18-.439,3.645,3.645,0,0,1-1.494-1.2,2.707,2.707,0,0,1-.536-1.591h2.769a1.145,1.145,0,0,0,.439.962,1.808,1.808,0,0,0,1.081.3,1.422,1.422,0,0,0,.91-.246A.787.787,0,0,0,105.376,14.328Zm8.35-2.171a5.613,5.613,0,0,1,.554-2.536,3.96,3.96,0,0,1,1.591-1.709,4.791,4.791,0,0,1,2.435-.6,4.373,4.373,0,0,1,3.366,1.323,5.076,5.076,0,0,1,1.23,3.6v.105a4.925,4.925,0,0,1-1.235,3.529,4.384,4.384,0,0,1-3.344,1.305,4.434,4.434,0,0,1-3.261-1.217,4.761,4.761,0,0,1-1.327-3.3Zm2.962.185a3.538,3.538,0,0,0,.413,1.934,1.376,1.376,0,0,0,1.222.615q1.582,0,1.617-2.435v-.3q0-2.558-1.635-2.558-1.485,0-1.608,2.206Zm13.271-2.171-.976-.07a1.752,1.752,0,0,0-1.793.879V17h-2.962V7.49h2.777l.1,1.222a2.294,2.294,0,0,1,2.083-1.4,2.888,2.888,0,0,1,.826.105Zm.554,2a6.421,6.421,0,0,1,.475-2.549,3.821,3.821,0,0,1,1.362-1.709,3.591,3.591,0,0,1,2.065-.6,2.855,2.855,0,0,1,2.32,1l.105-.826h2.689V16.64a4.009,4.009,0,0,1-.584,2.184,3.75,3.75,0,0,1-1.692,1.424,6.219,6.219,0,0,1-2.566.5,5.365,5.365,0,0,1-2.026-.4,3.657,3.657,0,0,1-1.5-1.028l1.239-1.74a2.716,2.716,0,0,0,2.18.976,1.764,1.764,0,0,0,1.969-2.021v-.3a2.781,2.781,0,0,1-2.153.94,3.437,3.437,0,0,1-2.812-1.332,5.517,5.517,0,0,1-1.072-3.564Zm2.971.185a3.383,3.383,0,0,0,.439,1.85,1.387,1.387,0,0,0,1.23.681,1.573,1.573,0,0,0,1.4-.642v-4a1.534,1.534,0,0,0-1.38-.65,1.4,1.4,0,0,0-1.239.708A3.858,3.858,0,0,0,133.483,12.359ZM146.57,17a3.344,3.344,0,0,1-.281-.853A2.754,2.754,0,0,1,144,17.176a3.374,3.374,0,0,1-2.285-.813,2.588,2.588,0,0,1-.94-2.043,2.66,2.66,0,0,1,1.143-2.338,5.821,5.821,0,0,1,3.322-.791h.914v-.5q0-1.316-1.134-1.316a.927.927,0,0,0-1.055,1.042h-2.962a2.655,2.655,0,0,1,1.173-2.239,4.931,4.931,0,0,1,2.993-.86,4.323,4.323,0,0,1,2.874.888,3.086,3.086,0,0,1,1.081,2.435v4.21a4.311,4.311,0,0,0,.4,2V17Zm-1.854-1.934a1.652,1.652,0,0,0,.918-.237,1.487,1.487,0,0,0,.523-.536V12.772H145.3q-1.547,0-1.547,1.389a.848.848,0,0,0,.272.655A.986.986,0,0,0,144.716,15.066ZM145.454,3.5h3.129L146.14,6.26l-2.417,0Zm8.033,3.99.1,1.116A3.225,3.225,0,0,1,156.3,7.314a2.713,2.713,0,0,1,2.219.888,4.226,4.226,0,0,1,.76,2.672V17h-2.971V11a1.6,1.6,0,0,0-.29-1.059,1.342,1.342,0,0,0-1.055-.338,1.413,1.413,0,0,0-1.292.686V17H150.71V7.49ZM164.043,17h-2.971V7.49h2.971ZM160.9,5.029a1.334,1.334,0,0,1,.457-1.043,1.934,1.934,0,0,1,2.373,0,1.334,1.334,0,0,1,.457,1.043,1.334,1.334,0,0,1-.457,1.043,1.934,1.934,0,0,1-2.373,0A1.334,1.334,0,0,1,160.9,5.029Zm8.991,9.861a1.317,1.317,0,0,0,.967-.338,1.241,1.241,0,0,0,.334-.945h2.777a3.288,3.288,0,0,1-1.121,2.566,4.168,4.168,0,0,1-2.887,1,4.22,4.22,0,0,1-3.27-1.3,5.125,5.125,0,0,1-1.2-3.6v-.123a5.792,5.792,0,0,1,.532-2.544,3.872,3.872,0,0,1,1.534-1.7,4.573,4.573,0,0,1,2.373-.593,4.116,4.116,0,0,1,2.944,1.028,3.647,3.647,0,0,1,1.09,2.786h-2.777a1.626,1.626,0,0,0-.36-1.134,1.244,1.244,0,0,0-.967-.4q-1.151,0-1.345,1.468a10.357,10.357,0,0,0-.062,1.283,4.068,4.068,0,0,0,.343,1.986A1.187,1.187,0,0,0,169.888,14.891ZM180.575,17a3.344,3.344,0,0,1-.281-.853,2.754,2.754,0,0,1-2.285,1.028,3.374,3.374,0,0,1-2.285-.813,2.588,2.588,0,0,1-.94-2.043,2.66,2.66,0,0,1,1.143-2.338,5.821,5.821,0,0,1,3.322-.791h.914v-.5q0-1.316-1.134-1.316a.927.927,0,0,0-1.055,1.042h-2.962a2.655,2.655,0,0,1,1.173-2.239,4.931,4.931,0,0,1,2.993-.86,4.323,4.323,0,0,1,2.874.888,3.086,3.086,0,0,1,1.081,2.435v4.21a4.311,4.311,0,0,0,.4,2V17Zm-1.854-1.934a1.652,1.652,0,0,0,.918-.237,1.487,1.487,0,0,0,.523-.536V12.772H179.3q-1.547,0-1.547,1.389a.848.848,0,0,0,.272.655A.986.986,0,0,0,178.721,15.066Zm11.03-.738a.684.684,0,0,0-.4-.606,6.016,6.016,0,0,0-1.5-.475,6.853,6.853,0,0,1-1.828-.646,3.062,3.062,0,0,1-1.1-.971,2.319,2.319,0,0,1-.378-1.31,2.628,2.628,0,0,1,1.081-2.158,4.453,4.453,0,0,1,2.83-.848,4.934,4.934,0,0,1,3.023.853,2.666,2.666,0,0,1,1.143,2.241h-2.971q0-1.143-1.2-1.143a1.194,1.194,0,0,0-.782.259.8.8,0,0,0-.316.646.737.737,0,0,0,.387.642,3.654,3.654,0,0,0,1.235.4,10.671,10.671,0,0,1,1.49.378,2.706,2.706,0,0,1,2.145,2.646,2.491,2.491,0,0,1-1.156,2.118,5.068,5.068,0,0,1-2.993.817,5.172,5.172,0,0,1-2.18-.439,3.645,3.645,0,0,1-1.494-1.2,2.707,2.707,0,0,1-.536-1.591h2.769a1.145,1.145,0,0,0,.439.962,1.808,1.808,0,0,0,1.081.3,1.422,1.422,0,0,0,.91-.246A.787.787,0,0,0,189.751,14.328Z" transform="translate(-512.05 -2135.406)" fill="#12263f"/>
    <path id="Trazado_213456" data-name="Trazado 213456" d="M31.084-17.343q0,8.7-3.6,13.31T16.939.576q-6.856,0-10.486-4.523T2.737-16.911v-7.721q0-8.787,3.644-13.338t10.5-4.552q6.856,0,10.486,4.509t3.716,12.949Zm-8.326-8.489q0-5.22-1.426-7.6a4.819,4.819,0,0,0-4.451-2.379,4.734,4.734,0,0,0-4.336,2.264q-1.4,2.264-1.484,7.079v10.208q0,5.133,1.4,7.627a4.755,4.755,0,0,0,4.48,2.494A4.676,4.676,0,0,0,21.347-8.53q1.354-2.393,1.412-7.325ZM45.172-24.66h4.437a6.251,6.251,0,0,0,4.7-1.584,5.806,5.806,0,0,0,1.527-4.206A5.134,5.134,0,0,0,54.319-34.4a5.862,5.862,0,0,0-4.163-1.412,6.144,6.144,0,0,0-4,1.311,4.191,4.191,0,0,0-1.613,3.414H36.212a10.239,10.239,0,0,1,1.772-5.891,11.806,11.806,0,0,1,4.955-4.076,16.537,16.537,0,0,1,7.015-1.469q6.655,0,10.429,3.183a10.861,10.861,0,0,1,3.774,8.772,8.826,8.826,0,0,1-1.757,5.3,11.417,11.417,0,0,1-4.609,3.716,10.422,10.422,0,0,1,5.286,3.8,10.315,10.315,0,0,1,1.743,5.992,11.041,11.041,0,0,1-4.076,8.959Q56.667.576,49.954.576a15.541,15.541,0,0,1-10.27-3.313,10.82,10.82,0,0,1-3.99-8.758H44.02a4.824,4.824,0,0,0,1.772,3.86,6.529,6.529,0,0,0,4.365,1.5,6.56,6.56,0,0,0,4.653-1.57,5.42,5.42,0,0,0,1.685-4.163q0-6.28-6.914-6.28H45.172Z" transform="translate(-273.312 -2106.406)" fill="#12263f" opacity="0.273"/>
  </g>
</svg>
