<svg id="Grupo_171287" data-name="Grupo 171287" xmlns="http://www.w3.org/2000/svg" xmlns:xlink="http://www.w3.org/1999/xlink" width="112.881" height="112.797" viewBox="0 0 112.881 112.797">
  <defs>
    <clipPath id="clip-path">
      <rect id="Rectángulo_52604" data-name="Rectángulo 52604" width="112.881" height="112.797" fill="#12263f"/>
    </clipPath>
    <linearGradient id="linear-gradient" x1="0.5" x2="0.5" y2="1" gradientUnits="objectBoundingBox">
      <stop offset="0" stop-color="#f5f5f5"/>
      <stop offset="0.25" stop-color="#f5f5f5"/>
      <stop offset="1" stop-color="#a7b3cf"/>
    </linearGradient>
  </defs>
  <g id="Grupo_171286" data-name="Grupo 171286" clip-path="url(#clip-path)">
    <path id="Trazado_212373" data-name="Trazado 212373" d="M62.3,0H75.943c.411,1.256.775,2.529,1.259,3.755a1.633,1.633,0,0,0,.955.89,41.688,41.688,0,0,1,12.2,5.061,1.529,1.529,0,0,0,1.217.047c1.212-.521,2.379-1.145,3.484-1.69l9.664,9.634c-.546,1.106-1.168,2.271-1.69,3.48a1.531,1.531,0,0,0,.019,1.219,41.5,41.5,0,0,1,5.06,12.206,1.8,1.8,0,0,0,.991,1.01c1.181.485,2.415.841,3.668,1.261,0,3.239.01,6.419-.005,9.6-.006,1.317.375,2.92-.236,3.863-.536.827-2.2.96-3.393,1.312a1.442,1.442,0,0,0-1.114,1.223,39.386,39.386,0,0,1-4.881,11.909,1.8,1.8,0,0,0-.079,1.413c.5,1.21,1.133,2.363,1.6,3.314l-9.71,9.7c-1.023-.507-2.159-1.115-3.337-1.625a1.541,1.541,0,0,0-1.221,0,41.629,41.629,0,0,1-9.7,4.35c-.251.076-.623.286-.654.478a5.851,5.851,0,0,1-3.88,4.723,18.908,18.908,0,0,1,.216,1.982q.024,8.241,0,16.482a7.264,7.264,0,0,1-14.316,1.689c-.143-.571-.22-1.159-.337-1.786H44.762q-15,0-30.009,0a3.59,3.59,0,0,1-3.834-3.829A7.233,7.233,0,0,1,17.946,94.6c1.273-.019,2.546,0,3.8,0V91.009a2.383,2.383,0,0,0-.309-.054q-5.683-.006-11.367-.009c-5.388,0-8.345-2.187-9.923-7.332-.02-.064-.1-.112-.145-.167V36.607a1.038,1.038,0,0,0,.187-.272c1.338-4.792,4.541-7.226,9.522-7.227,7,0,14-.015,21,.019.832,0,1.3-.182,1.6-1.012a10.494,10.494,0,0,1,1.436-3.065,4.852,4.852,0,0,0,.107-6.665c-.487-.634-.21-1.036.281-1.516,2.083-2.038,4.127-4.116,6.192-6.171.884-.879,1.7-2.3,2.7-2.454,1.051-.159,2.289.908,3.444,1.44.069.031.137.1.2.094.414-.009.919.117,1.227-.073A40.757,40.757,0,0,1,60.1,4.665a1.5,1.5,0,0,0,.9-.811c.492-1.263.878-2.566,1.3-3.854M43.718,12.434c-1.183,1.207-2.3,2.341-3.409,3.478-.766.784-2.024,1.5-2.156,2.381-.139.933.753,2.048,1.276,3.04a1.266,1.266,0,0,1-.1,1.523,30.456,30.456,0,0,0-5.368,11.909c-.479,2.578-1.413,4.2-4.1,4.516-.7.081-.792.523-.776,1.13.036,1.363,0,2.728.013,4.092.007,1.059-.356,2.408.158,3.1.548.736,1.912.926,2.958,1.209a1.488,1.488,0,0,1,1.193,1.406,29.7,29.7,0,0,0,4.5,11.9c1.521,2.212,2.078,4.081.325,6.3a.985.985,0,0,0,.075.947c1.778,1.858,3.6,3.671,5.42,5.5a11.051,11.051,0,0,0,1.7-.844c1.441-1.061,2.638-.891,4.1.176a28.5,28.5,0,0,0,8.675,4.06c0-.9-.053-1.7.014-2.478A1.457,1.457,0,0,0,57.1,74.059a32.644,32.644,0,1,1,23.9.105c-.364.148-.883.487-.913.781-.11,1.064-.044,2.147-.044,3.615,2.719-1.3,5.179-2.429,7.593-3.65,1.041-.526,1.966-1.693,2.984-1.742,1.063-.051,2.162.92,3.273,1.378a1.09,1.09,0,0,0,.954-.088c1.85-1.785,3.657-3.615,5.486-5.442-.471-.951-.857-1.859-1.357-2.7a1.7,1.7,0,0,1,.11-2.12,29.576,29.576,0,0,0,5.158-11.51c.489-2.651,1.449-4.324,4.219-4.716.267-.038.635-.6.655-.929.076-1.322.046-2.651.027-3.976-.017-1.164.326-2.6-.228-3.412-.518-.758-2.032-.8-3.055-1.268a1.775,1.775,0,0,1-.943-1.047A36.241,36.241,0,0,0,98.867,22.8a1.169,1.169,0,0,1-.072-1.427c.54-.989,1.007-2.018,1.472-2.966l-5.889-5.893c-.917.45-1.921.887-2.865,1.427a1.309,1.309,0,0,1-1.624-.092A29.683,29.683,0,0,0,78.083,8.526c-2.665-.473-4.234-1.486-4.6-4.17-.087-.641-.484-.744-1.048-.731-1.326.03-2.652,0-3.978.013-1.131.012-2.547-.349-3.311.2S64.233,5.82,63.908,6.9a1.3,1.3,0,0,1-1.17,1.014,35.473,35.473,0,0,0-14.444,5.973A1.159,1.159,0,0,1,46.871,14c-.985-.554-2.024-1.014-3.153-1.569M33.388,69.865c.675-1.355,1.3-2.482,1.79-3.667a1.8,1.8,0,0,0-.076-1.415,39.273,39.273,0,0,1-4.885-11.9,1.424,1.424,0,0,0-1.105-1.236,27.329,27.329,0,0,1-3.008-1.006,1.084,1.084,0,0,1-.607-.753c-.037-4.316-.027-8.633-.027-12.99a13.265,13.265,0,0,1,2.5-.844c1.886-.245,2.446-1.457,2.564-3.1a1.94,1.94,0,0,0-.023-.215h-1.1q-9.832,0-19.664,0c-3.892,0-6.112,2.234-6.113,6.147q0,16.311,0,32.622v1.164H36.519l-3.131-2.806m6.628-26.238A29.106,29.106,0,1,0,69.2,14.549,29.23,29.23,0,0,0,40.016,43.627m2.93,35.741c-.679-.725-1.351-1.348-1.907-2.062a2.537,2.537,0,0,0-2.27-.931Q21.887,76.418,5,76.394H3.634c0,1.826-.013,3.49,0,5.153a5.512,5.512,0,0,0,5.811,5.764q25.864.016,51.727,0c.262,0,.525-.055,1.083-.117a6.024,6.024,0,0,1-4.046-4.622,1.161,1.161,0,0,0-.725-.666,41.979,41.979,0,0,1-9.5-4.243,1.806,1.806,0,0,0-1.413-.049c-1.184.486-2.313,1.106-3.623,1.752M61.8,98.222H18.953c-.3,0-.607-.013-.908.011a3.567,3.567,0,0,0-3.423,3.55H61.8Zm3.687-.748c0,2.65-.033,5.3.01,7.949a3.628,3.628,0,1,0,7.254.053c.043-5.375.029-10.75.007-16.125a1.882,1.882,0,0,0-2.073-2.037c-.946-.026-1.893-.012-2.839,0-1.683.014-2.352.666-2.359,2.329-.011,2.612,0,5.224,0,7.836M61.85,75.593c0,2.19-.04,4.228.016,6.262A1.788,1.788,0,0,0,63.8,83.664q5.331.046,10.661,0a1.756,1.756,0,0,0,1.9-1.716c.068-2.071.02-4.146.02-6.358a33.218,33.218,0,0,1-14.535,0M25.514,94.513H50.844V91.006H25.514Zm36.276-3.5H54.647v3.527h7.143Z" fill="#12263f"/>
    <path id="Trazado_212374" data-name="Trazado 212374" d="M141.951,24.4c1.129.555,2.167,1.015,3.153,1.569a1.159,1.159,0,0,0,1.423-.118,35.476,35.476,0,0,1,14.444-5.973,1.3,1.3,0,0,0,1.17-1.013c.325-1.079.48-2.525,1.241-3.066s2.18-.183,3.311-.195c1.326-.014,2.653.017,3.978-.013.564-.013.961.09,1.048.731.363,2.684,1.933,3.7,4.6,4.17a29.686,29.686,0,0,1,11.805,5.319,1.309,1.309,0,0,0,1.624.092c.944-.54,1.948-.977,2.865-1.427L198.5,30.37c-.465.947-.932,1.976-1.472,2.966a1.17,1.17,0,0,0,.072,1.427,36.244,36.244,0,0,1,6.048,14.543,1.774,1.774,0,0,0,.943,1.046c1.022.471,2.537.51,3.055,1.268.554.812.211,2.248.228,3.412.02,1.326.049,2.655-.027,3.977-.019.333-.388.891-.655.928-2.77.392-3.73,2.065-4.219,4.716a29.577,29.577,0,0,1-5.158,11.51,1.7,1.7,0,0,0-.11,2.12c.5.84.886,1.749,1.357,2.7-1.829,1.827-3.636,3.657-5.486,5.442a1.089,1.089,0,0,1-.954.088c-1.111-.458-2.21-1.43-3.273-1.378-1.018.049-1.943,1.216-2.984,1.742-2.415,1.22-4.875,2.351-7.594,3.65,0-1.468-.067-2.55.044-3.615.031-.293.549-.633.913-.781a32.785,32.785,0,1,0-23.9-.105,1.457,1.457,0,0,1,1.129,1.723c-.066.781-.014,1.573-.014,2.478a28.5,28.5,0,0,1-8.675-4.06c-1.466-1.067-2.662-1.237-4.1-.176a11.086,11.086,0,0,1-1.7.844c-1.818-1.833-3.642-3.646-5.42-5.5a.986.986,0,0,1-.075-.947c1.752-2.22,1.2-4.089-.325-6.3a29.692,29.692,0,0,1-4.5-11.9,1.488,1.488,0,0,0-1.193-1.406c-1.047-.283-2.411-.473-2.958-1.21-.514-.69-.151-2.039-.158-3.1-.009-1.364.023-2.729-.013-4.092-.016-.607.08-1.049.776-1.13,2.688-.313,3.622-1.938,4.1-4.516a30.455,30.455,0,0,1,5.368-11.909,1.266,1.266,0,0,0,.1-1.523c-.523-.993-1.415-2.108-1.276-3.04.132-.881,1.389-1.6,2.156-2.381,1.111-1.137,2.225-2.271,3.409-3.478" transform="translate(-98.233 -11.968)" fill="#d8dbf7"/>
    <path id="Trazado_212375" data-name="Trazado 212375" d="M55.246,338.22c1.31-.646,2.439-1.267,3.623-1.753a1.806,1.806,0,0,1,1.413.049,41.978,41.978,0,0,0,9.5,4.243,1.161,1.161,0,0,1,.725.666,6.024,6.024,0,0,0,4.046,4.622c-.558.062-.82.117-1.083.117q-25.864.006-51.727,0a5.512,5.512,0,0,1-5.811-5.764c-.015-1.663,0-3.327,0-5.153H17.3q16.882,0,33.765-.018a2.537,2.537,0,0,1,2.27.931c.556.714,1.228,1.337,1.907,2.062M19.629,342.44h3.489v-3.485H19.629Zm7.294.005H30.4v-3.5H26.923Zm7.258-.005H37.67v-3.485H34.181Z" transform="translate(-12.3 -258.852)" fill="#eeac3a"/>
    <path id="Trazado_212376" data-name="Trazado 212376" d="M111.353,431.1v3.562H64.18a3.567,3.567,0,0,1,3.423-3.55c.3-.024.605-.012.908-.012h42.842Z" transform="translate(-49.558 -332.881)" fill="#7f4fc7"/>
    <path id="Trazado_212377" data-name="Trazado 212377" d="M287.37,393.344c0-2.612-.009-5.224,0-7.836.007-1.663.676-2.315,2.359-2.329.946-.008,1.893-.022,2.839,0a1.881,1.881,0,0,1,2.073,2.036c.022,5.375.036,10.751-.007,16.125a3.628,3.628,0,1,1-7.254-.053c-.043-2.649-.01-5.3-.011-7.949" transform="translate(-221.889 -295.87)" fill="#ece5f7"/>
    <path id="Trazado_212378" data-name="Trazado 212378" d="M271.425,331.777a33.218,33.218,0,0,0,14.535,0c0,2.212.048,4.287-.02,6.358a1.756,1.756,0,0,1-1.9,1.716q-5.331.047-10.662,0a1.787,1.787,0,0,1-1.935-1.808c-.056-2.035-.016-4.072-.016-6.262" transform="translate(-209.575 -256.183)" fill="#ece5f7"/>
    <rect id="Rectángulo_52596" data-name="Rectángulo 52596" width="25.331" height="3.507" transform="translate(25.514 91.006)" fill="#ece5f7"/>
    <rect id="Rectángulo_52597" data-name="Rectángulo 52597" width="7.143" height="3.527" transform="translate(54.647 91.016)" fill="#12263f"/>
    <path id="Trazado_212379" data-name="Trazado 212379" d="M46.619,178.131H32.213V160.092H46.619ZM43.047,163.7H35.865v10.759h7.182Z" transform="translate(-24.874 -123.618)" fill="#12263f"/>
    <rect id="Rectángulo_52598" data-name="Rectángulo 52598" width="18.035" height="3.496" transform="translate(7.373 58.289)" fill="#12263f"/>
    <rect id="Rectángulo_52599" data-name="Rectángulo 52599" width="17.994" height="3.534" transform="translate(7.372 65.565)" fill="#12263f"/>
    <path id="Trazado_212380" data-name="Trazado 212380" d="M217.106,79.859a25.462,25.462,0,1,1-25.472,25.363,25.428,25.428,0,0,1,25.472-25.363m.038,47.292a21.831,21.831,0,1,0-21.878-21.783,21.938,21.938,0,0,0,21.878,21.783" transform="translate(-147.973 -61.664)" fill="#12263f"/>
    <rect id="Rectángulo_52600" data-name="Rectángulo 52600" width="3.489" height="3.485" transform="translate(7.329 80.102)" fill="#12263f"/>
    <rect id="Rectángulo_52601" data-name="Rectángulo 52601" width="3.476" height="3.496" transform="translate(14.623 80.097)" fill="#12263f"/>
    <rect id="Rectángulo_52602" data-name="Rectángulo 52602" width="3.489" height="3.485" transform="translate(21.881 80.102)" fill="#12263f"/>
    <rect id="Rectángulo_52603" data-name="Rectángulo 52603" width="7.182" height="10.759" transform="translate(10.991 40.086)" fill="url(#linear-gradient)"/>
    <path id="Trazado_212381" data-name="Trazado 212381" d="M346.206,160.77c0,1.249.013,2.5,0,3.749a5.449,5.449,0,0,1-10.9.012q-.033-3.749,0-7.5a5.449,5.449,0,0,1,10.894-.012c.02,1.249,0,2.5,0,3.749m-3.631.186c0-1.208.028-2.416-.008-3.622a1.821,1.821,0,1,0-3.625.037q-.044,3.452,0,6.9a1.821,1.821,0,1,0,3.626-.037c.033-1.093.007-2.188.006-3.283" transform="translate(-258.899 -117.15)" fill="#12263f"/>
    <path id="Trazado_212382" data-name="Trazado 212382" d="M223.313,164.485h3.572c.46,1.41.993,1.853,2.108,1.777.805-.054,1.511-.449,1.533-1.228a2.233,2.233,0,0,0-.806-1.659,31.109,31.109,0,0,0-3.312-1.724,5.2,5.2,0,0,1,2.419-9.938,5.148,5.148,0,0,1,5.327,4.021,9.819,9.819,0,0,1,.132,1.374h-3.481c-.557-1.443-1.212-2.025-2.306-1.706a2.136,2.136,0,0,0-1.367,1.238,2.035,2.035,0,0,0,.841,1.617c1.058.71,2.279,1.173,3.409,1.783a5.191,5.191,0,0,1-2.275,9.854c-2.883.035-4.875-1.336-5.561-3.859a13.874,13.874,0,0,1-.233-1.551" transform="translate(-172.435 -117.148)" fill="#12263f"/>
    <path id="Trazado_212383" data-name="Trazado 212383" d="M287.633,170.031V152.007h7.131v3.534h-3.482v3.613h3.495V162.8h-3.468v3.653h3.481v3.574Z" transform="translate(-222.101 -117.375)" fill="#12263f"/>
  </g>
</svg>
