<svg id="Grupo_171278" data-name="Grupo 171278" xmlns="http://www.w3.org/2000/svg" xmlns:xlink="http://www.w3.org/1999/xlink" width="88.333" height="132.492" viewBox="0 0 88.333 132.492">
  <defs>
    <clipPath id="clip-path">
      <rect id="Rectángulo_52579" data-name="Rectángulo 52579" width="88.333" height="132.492" fill="#12263f"/>
    </clipPath>
  </defs>
  <g id="Grupo_171277" data-name="Grupo 171277" clip-path="url(#clip-path)">
    <path id="Trazado_212318" data-name="Trazado 212318" d="M81.748,0c4.669,1.9,6.444,5.366,6.285,10.381-.246,7.747-.062,15.507-.072,23.262,0,.671-.1,1.342-.154,2.131H82.319c0-2.966,0-5.784,0-8.6.005-5.946.026-11.891.014-17.836-.007-3.021-.663-3.7-3.6-3.7q-32.184-.018-64.367-.005c-2.921,0-3.579.7-3.587,3.724-.018,6.888-.006,13.775-.006,20.9H5.16V14.771a43.9,43.9,0,0,0-.022-4.393C4.631,5.341,6.717,1.919,11.361,0Z" transform="translate(-2.433)" fill="#12263f"/>
    <path id="Trazado_212319" data-name="Trazado 212319" d="M75.21,130c-1.638,0-3.277-.027-4.915.006-2.155.043-3.184-1.089-3.26-3.135-.063-1.722.081-3.455-.052-5.169a2.258,2.258,0,0,0-1-1.715,2.734,2.734,0,0,0-2.208.406,46.766,46.766,0,0,0-3.517,3.424c-1.554,1.529-3.151,1.65-4.744.071q-3.582-3.551-7.133-7.132c-1.591-1.6-1.468-3.174.1-4.72a44.063,44.063,0,0,0,3.434-3.508,2.522,2.522,0,0,0,.438-2.145,2.605,2.605,0,0,0-1.88-1.178c-1.709-.163-3.444-.051-5.169-.043a2.776,2.776,0,0,1-3.094-3.027c-.075-3.534-.083-7.072.012-10.605a2.757,2.757,0,0,1,3.172-2.934,26.719,26.719,0,0,0,4.39-.045c.934-.135,2.288-.609,2.545-1.279s-.444-1.907-1.025-2.664c-.885-1.153-2.054-2.084-3.057-3.151a2.81,2.81,0,0,1,.028-4.336q3.622-3.693,7.31-7.32c1.5-1.471,3.064-1.395,4.558.023,1.125,1.068,2.124,2.285,3.331,3.245a3.049,3.049,0,0,0,2.353.746c.582-.212,1.073-1.344,1.157-2.119.174-1.62-.006-3.273.068-4.908.087-1.914,1.047-3.038,3.085-3.032q5.3.016,10.606.008a2.662,2.662,0,0,1,2.954,2.855c.091,1.807-.021,3.628.136,5.426a2.259,2.259,0,0,0,1.027,1.7,2.753,2.753,0,0,0,2.222-.388,40.392,40.392,0,0,0,3.509-3.431c1.558-1.583,3.136-1.642,4.722-.067q3.579,3.554,7.135,7.132c1.6,1.6,1.494,3.163-.075,4.716a42.515,42.515,0,0,0-3.426,3.516,2.542,2.542,0,0,0-.409,2.164,2.594,2.594,0,0,0,1.871,1.139,38.669,38.669,0,0,0,4.909.068c2-.046,3.169.886,3.212,2.869q.118,5.428-.006,10.861a2.644,2.644,0,0,1-2.988,2.82,49.782,49.782,0,0,0-5.168.077,1.938,1.938,0,0,0-1.389,3.342c1.085,1.329,2.407,2.463,3.6,3.708a2.789,2.789,0,0,1,.016,4.332c-2.476,2.524-4.965,5.036-7.506,7.493-1.432,1.385-2.947,1.211-4.342-.13-1.119-1.075-2.127-2.282-3.333-3.244a3.081,3.081,0,0,0-2.352-.779c-.6.216-1.123,1.334-1.226,2.115a39.781,39.781,0,0,0-.107,4.649c-.031,2.194-1.034,3.366-3.342,3.289-1.722-.058-3.449-.011-5.173-.011V130m27.64-35.779c-4.189-.026-7.73.732-10.043-4.727-2.391-5.643,1.668-7.264,3.653-9.941l-3.671-3.829c-2.882,2.3-4.513,6.135-10.2,3.722-5.516-2.34-4.062-6.256-4.642-9.93H72.6c-.024,4.02.978,7.649-4.53,10-5.706,2.432-7.234-1.675-9.65-3.461l-4.38,3.218c2.753,3.2,6.288,4.919,3.889,10.593-2.392,5.658-6.444,3.8-9.911,4.5v5.5c6.2-1.931,8.953,1.026,10.708,6.417,1.521,4.674-3.408,5.211-4.331,8.228l3.5,3.662c2.975-2.773,4.82-6.053,10.382-3.839,5.745,2.287,3.864,6.359,4.452,9.883h5.286c.343-3.967-.812-7.721,4.789-10,5.705-2.322,7.193,1.876,9.816,3.683l3.939-3.615c-2.466-2.849-5.983-4.594-3.683-10.216,2.307-5.641,6.182-4.149,9.965-4.659Z" transform="translate(-20.248 -30.629)" fill="#12263f"/>
    <path id="Trazado_212320" data-name="Trazado 212320" d="M82.52,186.119a13.235,13.235,0,0,1,1.6-.247c1.194-.033,2.39-.011,3.912-.011,0,5.261,0,10.321,0,15.382,0,4.138.034,8.277-.032,12.415a8.015,8.015,0,0,1-8.017,8.092q-33.366.063-66.733,0a8.14,8.14,0,0,1-8-7.325c-.07-.857-.038-1.723-.038-2.585,0-6.715,0-13.43,0-20.338h5.515c.036.771.107,1.593.109,2.416.009,6.207-.011,12.415.011,18.623.01,2.961.687,3.615,3.7,3.616q32.073.007,64.146-.01c3.1,0,3.707-.638,3.711-3.857.012-7.846,0-15.691.006-23.536,0-.844.07-1.687.112-2.636" transform="translate(-2.501 -89.288)" fill="#12263f"/>
    <rect id="Rectángulo_52567" data-name="Rectángulo 52567" width="60.722" height="5.232" transform="translate(13.755 105.059)" fill="#12263f"/>
    <rect id="Rectángulo_52568" data-name="Rectángulo 52568" width="60.643" height="5.246" transform="translate(13.848 22.197)" fill="#12263f"/>
    <rect id="Rectángulo_52569" data-name="Rectángulo 52569" width="32.928" height="5.327" transform="translate(22.132 11.078)" fill="#12263f"/>
    <rect id="Rectángulo_52570" data-name="Rectángulo 52570" width="27.382" height="5.275" transform="translate(0.034 91.264)" fill="#12263f"/>
    <rect id="Rectángulo_52571" data-name="Rectángulo 52571" width="27.418" height="5.333" transform="translate(0.065 35.88)" fill="#12263f"/>
    <rect id="Rectángulo_52572" data-name="Rectángulo 52572" width="16.447" height="5.278" transform="translate(0.071 63.606)" fill="#12263f"/>
    <rect id="Rectángulo_52573" data-name="Rectángulo 52573" width="10.837" height="5.308" transform="translate(11.084 49.856)" fill="#12263f"/>
    <rect id="Rectángulo_52574" data-name="Rectángulo 52574" width="10.755" height="5.26" transform="translate(11.1 77.344)" fill="#12263f"/>
    <rect id="Rectángulo_52575" data-name="Rectángulo 52575" width="5.267" height="5.328" transform="translate(60.836 11.023)" fill="#12263f"/>
    <rect id="Rectángulo_52576" data-name="Rectángulo 52576" width="5.357" height="5.249" transform="translate(0 49.876)" fill="#12263f"/>
    <rect id="Rectángulo_52577" data-name="Rectángulo 52577" width="5.217" height="5.342" transform="translate(0.042 77.317)" fill="#12263f"/>
    <rect id="Rectángulo_52578" data-name="Rectángulo 52578" width="5.249" height="5.377" transform="translate(41.458 116.035)" fill="#12263f"/>
    <path id="Trazado_212321" data-name="Trazado 212321" d="M108.283,99.548v5.181c-3.783.509-7.658-.983-9.965,4.658-2.3,5.622,1.218,7.367,3.683,10.217l-3.939,3.614c-2.624-1.807-4.111-6-9.816-3.683-5.6,2.279-4.446,6.032-4.789,10H78.171c-.588-3.524,1.293-7.6-4.452-9.882-5.562-2.213-7.407,1.066-10.382,3.839l-3.5-3.661c.922-3.018,5.853-3.554,4.331-8.229-1.755-5.391-4.51-8.348-10.708-6.417v-5.5c3.467-.7,7.518,1.16,9.91-4.5,2.4-5.674-1.136-7.4-3.889-10.592l4.38-3.218c2.417,1.786,3.945,5.893,9.651,3.461,5.508-2.347,4.505-5.975,4.53-10h5.341c.581,3.675-.873,7.59,4.642,9.93,5.688,2.413,7.319-1.426,10.2-3.722l3.671,3.829c-1.984,2.677-6.043,4.3-3.653,9.941,2.313,5.459,5.854,4.7,10.043,4.727M69.8,102.039a11,11,0,0,0,11.016,11.235,11.083,11.083,0,0,0,.322-22.163A11.074,11.074,0,0,0,69.8,102.039" transform="translate(-25.682 -35.957)" fill="#eeac3a"/>
    <path id="Trazado_212322" data-name="Trazado 212322" d="M84.914,117.078A11.074,11.074,0,0,1,96.251,106.15a11.083,11.083,0,0,1-.322,22.163,11,11,0,0,1-11.016-11.235m5.633.274a5.326,5.326,0,0,0,5.46,5.324,5.431,5.431,0,0,0,.035-10.861,5.316,5.316,0,0,0-5.5,5.537" transform="translate(-40.794 -50.995)" fill="#12263f"/>
    <path id="Trazado_212323" data-name="Trazado 212323" d="M95.755,122.593a5.316,5.316,0,0,1,5.5-5.537,5.431,5.431,0,0,1-.035,10.861,5.326,5.326,0,0,1-5.46-5.324" transform="translate(-46.003 -56.236)" fill="#43a99b"/>
  </g>
</svg>
