<svg id="Grupo_171367" data-name="Grupo 171367" xmlns="http://www.w3.org/2000/svg" xmlns:xlink="http://www.w3.org/1999/xlink" width="157.844" height="157.822" viewBox="0 0 157.844 157.822">
  <defs>
    <clipPath id="clip-path">
      <rect id="Rectángulo_52704" data-name="Rectángulo 52704" width="157.844" height="157.822" fill="#12263f"/>
    </clipPath>
    <linearGradient id="linear-gradient" x1="0.5" x2="0.5" y2="1" gradientUnits="objectBoundingBox">
      <stop offset="0" stop-color="#116eb9"/>
      <stop offset="1" stop-color="#1894f6"/>
    </linearGradient>
    <linearGradient id="linear-gradient-2" x1="0.5" x2="0.5" y2="1" gradientUnits="objectBoundingBox">
      <stop offset="0" stop-color="#2a9d8d"/>
      <stop offset="1" stop-color="#43a99b"/>
    </linearGradient>
  </defs>
  <g id="Grupo_171366" data-name="Grupo 171366" clip-path="url(#clip-path)">
    <path id="Trazado_212485" data-name="Trazado 212485" d="M318.561,43.064c-.525,2.446-.908,4.933-1.6,7.333A39.423,39.423,0,1,1,274.405.293,7.285,7.285,0,0,0,275.488,0h7.234a5.377,5.377,0,0,0,.917.283A39.36,39.36,0,0,1,317.656,31.2c.342,1.536.6,3.09.9,4.635ZM302.77,39.558a23.668,23.668,0,1,0-23.858,23.557A23.681,23.681,0,0,0,302.77,39.558m2.838,12.123,4.643,2.713,3.279-12.22h-5.358l-2.565,9.507M264.376,70.213a31.376,31.376,0,0,0,12.036,3.215v-4.9l-9.546-2.592-2.49,4.275m26.971-4.266-9.541,2.569v4.927a31.627,31.627,0,0,0,12.03-3.239l-2.489-4.258M293.8,8.753a27.669,27.669,0,0,0-11.963-3.185V10.38l9.5,2.58L293.8,8.753M252.6,51.685l-2.562-9.527H245.1a31.278,31.278,0,0,0,3.255,12.008l4.247-2.482M310.253,24.5l-4.643,2.71,2.56,9.526h5.362L310.253,24.5M250.022,36.735l2.593-9.524-4.662-2.71-3.278,12.234Zm26.361-26.363V5.022L264.154,8.307l2.714,4.652,9.515-2.587M254.678,56.591l-3.745,2.179a35.05,35.05,0,0,0,8.863,8.847l2.17-3.765-7.287-7.261m43.735,11.037a35,35,0,0,0,8.863-8.878l-3.765-2.168-7.262,7.276,2.163,3.771m8.877-47.485a34.883,34.883,0,0,0-8.875-8.862l-2.569,4.457c1.292,1.146,2.528,2.143,3.645,3.259,1.152,1.152,2.187,2.421,3.342,3.717l4.458-2.571M261.73,15.26l.618.484c-.4-.707-.79-1.417-1.193-2.121-.425-.742-.86-1.479-1.284-2.208a27.184,27.184,0,0,0-8.792,8.808l3.605,2.075,7.047-7.038" transform="translate(-160.717)" fill="#12263f"/>
    <path id="Trazado_212486" data-name="Trazado 212486" d="M318.522,348.816a4.152,4.152,0,0,1-3.812,1.673q-35.664-.063-71.328-.03c-3.01,0-3.77-.765-3.771-3.791q0-27.77,0-55.54c0-3.026.756-3.785,3.772-3.785q35.664,0,71.328-.03a4.13,4.13,0,0,1,3.81,1.673Zm-73.579-3.734h68.185V292.691H244.943Z" transform="translate(-160.678 -192.667)" fill="#12263f"/>
    <path id="Trazado_212487" data-name="Trazado 212487" d="M36.731,296.944q-16.514,0-33.027,0c-2.889,0-3.672-.8-3.674-3.721,0-4.709.029-9.419-.017-14.128a2.983,2.983,0,0,1,2.06-3.172c.1-.039.207-.074.305-.122,1.818-.865,4.3-1.287,5.262-2.725.917-1.373.275-3.8.276-5.77q.012-17.661.005-35.321c.006-14.175,10.274-24.465,24.446-24.444a110.633,110.633,0,0,1,13.119.329,23.339,23.339,0,0,1,20.281,23.04c.077,13.526.046,27.052-.017,40.577A2.292,2.292,0,0,0,67.5,274.11c1.495.507,2.9,1.266,4.355,1.9a2.822,2.822,0,0,1,1.827,2.83c-.018,5.038.012,10.076-.017,15.114-.012,2.054-1.046,2.979-3.254,2.981q-16.842.013-33.684,0M60.478,270.9c0-13.849.23-27.49-.084-41.118-.2-8.479-6.963-15.579-15.448-16.653a103.652,103.652,0,0,0-12.954-.33,18.348,18.348,0,0,0-18.806,18.8q-.022,18.815,0,37.631c0,.515.052,1.029.087,1.689L27.263,264.8a18.1,18.1,0,0,1,.433-2.5c.379-1.285.041-1.986-1.121-2.774A17.738,17.738,0,0,1,18.461,244.4c-.086-5.038-.024-10.078-.015-15.118,0-2.189.579-2.931,2.721-3.413,7.524-1.695,15.045-3.409,22.592-5a4.461,4.461,0,0,1,2.894.616c2.35,1.4,4.557,3.03,6.866,4.5a3.619,3.619,0,0,1,1.77,3.433c-.057,4.546-.081,9.093-.007,13.639.119,7.251-2.673,12.943-8.766,16.977a1.646,1.646,0,0,0-.633,1.269c.132,1.348.436,2.679.584,3.512l14.011,6.09m7.94,20.7c0-3.61.035-7.106-.046-10.6a1.821,1.821,0,0,0-1-1.2c-6.078-2.754-12.188-5.439-18.268-8.186a1.493,1.493,0,0,0-1.992.36c-2.594,2.673-5.237,5.3-7.882,7.921-1.756,1.742-3,1.727-4.77-.038-2.6-2.589-5.161-5.221-7.806-7.764a2.056,2.056,0,0,0-1.743-.5c-6.279,2.7-12.523,5.489-18.757,8.293a1.5,1.5,0,0,0-.818,1c-.06,3.544-.037,7.089-.037,10.709Zm-44.71-60.919c0,4.642-.049,9.231.012,13.819a13.159,13.159,0,0,0,12.02,12.949A12.853,12.853,0,0,0,49.678,246.7c.533-3.651.27-7.421.319-11.139.025-1.855.546-4.049-.255-5.474-.84-1.495-2.993-2.253-4.573-3.333-.045-.031-.084-.083-.133-.094a4.447,4.447,0,0,0-1.681-.336c-6.512,1.406-13.01,2.875-19.648,4.358M40.72,262.6H32.985c-.35,2.072-.733,4.16-1.033,6.26a1.839,1.839,0,0,0,.327,1.328c1.405,1.585,2.888,3.1,4.595,4.908,1.68-1.789,3.165-3.3,4.553-4.9a2.077,2.077,0,0,0,.314-1.489c-.29-2.046-.674-4.079-1.021-6.1" transform="translate(-0.009 -139.151)" fill="#12263f"/>
    <path id="Trazado_212488" data-name="Trazado 212488" d="M21.063,89.068c0,2,.011,3.908,0,5.813-.035,4.994-3.361,8.292-8.388,8.323-1.479.009-2.959.027-4.438-.006a2.655,2.655,0,0,1-2.945-2.958q-.049-4.683,0-9.367a1.668,1.668,0,0,0-1-1.787A7.588,7.588,0,0,1,.033,82.024q-.063-5.176,0-10.353a7.871,7.871,0,0,1,7.958-7.91c1.315-.023,2.631.025,3.944-.013,1.48-.043,2.844.04,3.655,1.6.126.243.867.322,1.278.241,6.443-1.26,12.883-2.538,19.308-3.885a2.356,2.356,0,0,0,1.358-1.159c1.783-3.486,5.257-5.3,8.8-4.5a7.853,7.853,0,0,1,6.291,7.947q.038,12.9,0,25.8a7.887,7.887,0,0,1-15.074,3.485,2.207,2.207,0,0,0-1.192-1.137c-5.028-1.061-10.073-2.038-15.291-3.073m15.7-22.076c-6.8,1.355-13.446,2.666-20.082,4.042a1.425,1.425,0,0,0-.843,1.054c-.067,3.175-.016,6.352-.055,9.528-.01.837.293,1.13,1.107,1.246,1.351.192,2.68.539,4.021.805,5.251,1.045,10.5,2.085,15.852,3.146Zm10.6,9.914c0-4.164.008-8.327,0-12.49-.006-2.073-.988-3.276-2.627-3.276s-2.624,1.2-2.626,3.274q-.012,12.491,0,24.98c0,2.072.987,3.277,2.624,3.278s2.624-1.208,2.629-3.276c.012-4.164,0-8.327,0-12.49M10.421,84.789V69.021c-.884,0-1.648-.033-2.408.007A2.564,2.564,0,0,0,5.3,71.7q-.079,5.243,0,10.488a2.537,2.537,0,0,0,2.614,2.6c.806.051,1.618.009,2.5.009M15.8,88.636c-1.32,2.031-3.431,1.207-5.161,1.488v7.82c.633,0,1.17,0,1.706,0,2.561-.011,3.441-.88,3.453-3.425.009-1.961,0-3.922,0-5.883" transform="translate(0 -37.458)" fill="#12263f"/>
    <path id="Trazado_212489" data-name="Trazado 212489" d="M171.376,141.507l2.916-4.363,15.757,10.5-2.892,4.381-15.781-10.514" transform="translate(-114.922 -91.966)" fill="#12263f"/>
    <path id="Trazado_212490" data-name="Trazado 212490" d="M174.257,72.062l-2.919-4.377,15.775-10.518,2.918,4.377L174.257,72.062" transform="translate(-114.896 -38.335)" fill="#12263f"/>
    <rect id="Rectángulo_52696" data-name="Rectángulo 52696" width="15.58" height="5.06" transform="translate(57.976 36.945)" fill="#12263f"/>
    <path id="Trazado_212491" data-name="Trazado 212491" d="M334.862,71.69a23.668,23.668,0,1,1-23.637-23.773A23.7,23.7,0,0,1,334.862,71.69M313.755,58.4V53.289h-5.2v4.985c-4.021.985-5.243,2.545-5.245,6.59,0,1.2-.008,2.409,0,3.614.027,3.567,2.164,5.7,5.736,5.73,1.565.012,3.129,0,4.651,0v5.327H303.42v5.281h5.217v5.055h5.2V84.891c4.018-1.012,5.245-2.579,5.247-6.6,0-1.2.008-2.409,0-3.614-.03-3.565-2.171-5.7-5.74-5.725-1.564-.011-3.129,0-4.645,0v-5.33h10.271V58.4Z" transform="translate(-192.81 -32.133)" fill="url(#linear-gradient)"/>
    <path id="Trazado_212492" data-name="Trazado 212492" d="M439.837,137.53l2.565-9.507h5.358l-3.279,12.22-4.644-2.713" transform="translate(-294.947 -85.85)" fill="#b1daf6"/>
    <path id="Trazado_212493" data-name="Trazado 212493" d="M314.672,204.442l2.489-4.275,9.546,2.591v4.9a31.374,31.374,0,0,1-12.035-3.215" transform="translate(-211.013 -134.228)" fill="#b1daf6"/>
    <path id="Trazado_212494" data-name="Trazado 212494" d="M377.123,200.193l2.489,4.258a31.633,31.633,0,0,1-12.03,3.239v-4.927l9.541-2.57" transform="translate(-246.494 -134.246)" fill="#b1daf6"/>
    <path id="Trazado_212495" data-name="Trazado 212495" d="M379.646,20.079l-2.466,4.208-9.5-2.58V16.894a27.669,27.669,0,0,1,11.963,3.185" transform="translate(-246.561 -11.327)" fill="#b1daf6"/>
    <path id="Trazado_212496" data-name="Trazado 212496" d="M263.647,137.5l-4.247,2.482a31.282,31.282,0,0,1-3.256-12.008h4.941l2.562,9.527" transform="translate(-171.765 -85.819)" fill="#b1daf6"/>
    <path id="Trazado_212497" data-name="Trazado 212497" d="M444.49,74.372l3.279,12.236h-5.362l-2.56-9.526,4.643-2.71" transform="translate(-294.953 -49.872)" fill="#b1daf6"/>
    <path id="Trazado_212498" data-name="Trazado 212498" d="M260.214,86.61h-5.347l3.278-12.234,4.662,2.71-2.593,9.524" transform="translate(-170.909 -49.875)" fill="#b1daf6"/>
    <path id="Trazado_212499" data-name="Trazado 212499" d="M326.227,20.595l-9.515,2.587L314,18.53l12.229-3.285Z" transform="translate(-210.561 -10.223)" fill="#b1daf6"/>
    <path id="Trazado_212500" data-name="Trazado 212500" d="M277.608,171.79l7.287,7.261-2.169,3.765a35.05,35.05,0,0,1-8.863-8.847l3.745-2.179" transform="translate(-183.647 -115.199)" fill="#b1daf6"/>
    <path id="Trazado_212501" data-name="Trazado 212501" d="M413.592,182.811l-2.163-3.771,7.262-7.275,3.765,2.168a35,35,0,0,1-8.864,8.878" transform="translate(-275.897 -115.182)" fill="#b1daf6"/>
    <path id="Trazado_212502" data-name="Trazado 212502" d="M421.645,43.109l-4.458,2.571c-1.156-1.3-2.191-2.564-3.342-3.716-1.116-1.116-2.352-2.113-3.645-3.259l2.57-4.457a34.879,34.879,0,0,1,8.875,8.862" transform="translate(-275.073 -22.965)" fill="#b1daf6"/>
    <path id="Trazado_212503" data-name="Trazado 212503" d="M284.958,38.5l-7.047,7.038-3.605-2.075a27.184,27.184,0,0,1,8.792-8.808c.425.729.859,1.466,1.284,2.208.4.7.8,1.414,1.193,2.121l-.618-.484" transform="translate(-183.945 -23.236)" fill="#b1daf6"/>
    <path id="Trazado_212504" data-name="Trazado 212504" d="M255.8,303.638h68.185v52.391H255.8Zm62.944,10.431v-5.26c-2.461,0-4.818-.116-7.155.055a5.188,5.188,0,0,0-2.88,1.187c-2.044,1.816-3.87,3.875-5.876,5.737a3.465,3.465,0,0,1-2.111.872c-5.148.073-10.3.064-15.448.023a3.358,3.358,0,0,0-3.142,1.681c-.9,1.437-2.006,2.761-2.779,4.259a3.243,3.243,0,0,1-3.8,1.966c-3.7-.628-6.512.708-8.835,3.63a57.026,57.026,0,0,1-4.823,4.846l3.722,3.954c.758-.82,1.53-1.525,2.149-2.346,2.825-3.742,6.322-5.81,11.2-4.851a2.755,2.755,0,0,0,2.876-1.508c1.1-1.7,2.316-3.329,3.343-5.071a2.455,2.455,0,0,1,2.518-1.312c3.394.081,6.823-.26,10.181.1,4.559.488,8.131-.767,10.77-4.546a7.63,7.63,0,0,1,8.159-3.429,11.98,11.98,0,0,0,1.934.014m-.019,5.353H313.7v31.4h5.026Zm-13.131,5.3h-5.067V350.81h5.067Zm-18.187,26.035h5.061V329.923h-5.061Zm-8.08-15.553h-5.083v15.565h5.083Zm-18.272,15.563h5.117v-10.3h-5.117Z" transform="translate(-171.534 -203.614)" fill="#d8dbf7"/>
    <path id="Trazado_212506" data-name="Trazado 212506" d="M79.158,421.657H16.033c0-3.621-.023-7.166.037-10.709a1.494,1.494,0,0,1,.818-1c6.235-2.8,12.478-5.591,18.757-8.294a2.055,2.055,0,0,1,1.743.5c2.646,2.542,5.2,5.175,7.806,7.764,1.774,1.765,3.015,1.78,4.771.038,2.645-2.623,5.288-5.248,7.882-7.921a1.493,1.493,0,0,1,1.993-.36c6.081,2.748,12.19,5.432,18.268,8.186a1.823,1.823,0,0,1,1.005,1.2c.08,3.493.046,6.988.046,10.6" transform="translate(-10.748 -269.203)" fill="url(#linear-gradient-2)"/>
    <path id="Trazado_212509" data-name="Trazado 212509" d="M68.907,89.654v19.821c-5.348-1.061-10.6-2.1-15.852-3.146-1.341-.267-2.67-.613-4.021-.805-.814-.116-1.117-.409-1.107-1.246.039-3.176-.012-6.353.055-9.528a1.423,1.423,0,0,1,.843-1.054c6.636-1.376,13.285-2.687,20.082-4.042" transform="translate(-32.139 -60.12)" fill="#ece5f7"/>
    <path id="Trazado_212510" data-name="Trazado 212510" d="M133.078,87.655c0,4.164.008,8.327,0,12.49-.006,2.068-.994,3.277-2.629,3.276s-2.622-1.206-2.624-3.278q-.012-12.49,0-24.98c0-2.075.985-3.274,2.627-3.274s2.621,1.2,2.627,3.276c.012,4.164,0,8.327,0,12.49" transform="translate(-85.71 -48.207)" fill="#eeac3a"/>
    <path id="Trazado_212511" data-name="Trazado 212511" d="M21.138,111.557c-.881,0-1.693.042-2.5-.009a2.538,2.538,0,0,1-2.614-2.6q-.089-5.243,0-10.488A2.564,2.564,0,0,1,18.73,95.8c.76-.039,1.524-.007,2.408-.007Z" transform="translate(-10.716 -64.226)" fill="#eeac3a"/>
    <path id="Trazado_212512" data-name="Trazado 212512" d="M37.467,155.36c0,1.961.007,3.922,0,5.883-.012,2.545-.892,3.414-3.453,3.425-.537,0-1.074,0-1.706,0v-7.82c1.73-.281,3.841.542,5.161-1.488" transform="translate(-21.664 -104.182)" fill="#b1daf6"/>
    <path id="Trazado_212513" data-name="Trazado 212513" d="M345.872,69.334h5.218v5.223H340.819v5.33c1.516,0,3.081-.009,4.645,0,3.569.024,5.709,2.16,5.74,5.725.01,1.2,0,2.409,0,3.614,0,4.02-1.229,5.587-5.247,6.6v4.982h-5.2V95.754h-5.217V90.473h10.274V85.146c-1.521,0-3.086.01-4.651,0-3.572-.026-5.708-2.162-5.736-5.73-.01-1.2,0-2.409,0-3.614,0-4.045,1.224-5.6,5.245-6.59V64.225h5.2Z" transform="translate(-224.927 -43.068)" fill="#12263f"/>
    <path id="Trazado_212514" data-name="Trazado 212514" d="M331.143,324.518a11.969,11.969,0,0,1-1.934-.015,7.63,7.63,0,0,0-8.159,3.429c-2.639,3.779-6.211,5.034-10.77,4.546-3.358-.359-6.787-.018-10.181-.1a2.455,2.455,0,0,0-2.518,1.312c-1.026,1.742-2.241,3.372-3.343,5.071a2.755,2.755,0,0,1-2.875,1.508c-4.878-.959-8.376,1.109-11.2,4.851-.62.82-1.391,1.526-2.149,2.345l-3.722-3.953a57.066,57.066,0,0,0,4.823-4.846c2.323-2.921,5.136-4.257,8.835-3.63a3.242,3.242,0,0,0,3.8-1.966c.773-1.5,1.877-2.823,2.779-4.26a3.357,3.357,0,0,1,3.141-1.681c5.149.041,10.3.05,15.448-.023a3.467,3.467,0,0,0,2.111-.872c2.006-1.862,3.832-3.921,5.876-5.736a5.183,5.183,0,0,1,2.88-1.187c2.336-.171,4.694-.055,7.155-.055Z" transform="translate(-183.934 -214.063)" fill="#12263f"/>
    <rect id="Rectángulo_52697" data-name="Rectángulo 52697" width="5.026" height="31.401" transform="translate(142.164 115.808)" fill="#12263f"/>
    <rect id="Rectángulo_52698" data-name="Rectángulo 52698" width="5.067" height="26.091" transform="translate(128.992 121.105)" fill="#12263f"/>
    <rect id="Rectángulo_52699" data-name="Rectángulo 52699" width="5.061" height="20.831" transform="translate(115.872 126.309)" fill="#12263f"/>
    <rect id="Rectángulo_52700" data-name="Rectángulo 52700" width="5.083" height="15.565" transform="translate(102.709 131.587)" fill="#12263f"/>
    <rect id="Rectángulo_52701" data-name="Rectángulo 52701" width="5.117" height="10.301" transform="translate(89.519 136.848)" fill="#12263f"/>
    <rect id="Rectángulo_52702" data-name="Rectángulo 52702" width="5.048" height="5.076" transform="translate(29.076 97.412)" fill="#12263f"/>
    <rect id="Rectángulo_52703" data-name="Rectángulo 52703" width="5.115" height="5.028" transform="translate(39.507 97.436)" fill="#12263f"/>
  </g>
</svg>
