<svg xmlns="http://www.w3.org/2000/svg" xmlns:xlink="http://www.w3.org/1999/xlink" width="331.824" height="287.379" viewBox="0 0 331.824 287.379">
  <defs>
    <linearGradient id="linear-gradient" x1="0.5" x2="0.5" y2="1" gradientUnits="objectBoundingBox">
      <stop offset="0" stop-color="#fff"/>
      <stop offset="1" stop-color="#d2e6ee"/>
    </linearGradient>
    <linearGradient id="linear-gradient-2" x1="0.167" y1="-0.077" x2="0.833" y2="1.077" gradientUnits="objectBoundingBox">
      <stop offset="0" stop-color="#b1b2f3"/>
      <stop offset="1" stop-color="#9d9ef0"/>
    </linearGradient>
    <linearGradient id="linear-gradient-5" x1="0.314" y1="-0.604" x2="0.686" y2="1.604" xlink:href="#linear-gradient-2"/>
    <linearGradient id="linear-gradient-7" x1="0.5" x2="0.5" y2="1" gradientUnits="objectBoundingBox">
      <stop offset="0" stop-color="#7e53c5"/>
      <stop offset="1" stop-color="#5b14d9"/>
    </linearGradient>
  </defs>
  <g id="Grupo_172822" data-name="Grupo 172822" transform="translate(5839.824 -2651.045)">
    <g id="Grupo_172819" data-name="Grupo 172819" transform="translate(-5839.824 2659.931)">
      <g id="Grupo_29020" data-name="Grupo 29020" transform="translate(135.899 10.046)">
        <path id="Trazado_68871" data-name="Trazado 68871" d="M543.705,126.019Z" transform="translate(-517.263 -118.745)" fill="#cbd9e4"/>
        <path id="Trazado_68872" data-name="Trazado 68872" d="M537.968,128.163l-1.639.32A12.439,12.439,0,0,0,535,124.834l1.459-.809a14.089,14.089,0,0,0-4.434-4.852l-.934,1.381a12.433,12.433,0,0,0-3.517-1.648l.461-1.6-.074-.021a14.054,14.054,0,0,0-6.5-.283l.315,1.639a12.46,12.46,0,0,0-3.653,1.319l-.8-1.462a14.1,14.1,0,0,0-4.864,4.421l1.378.936a12.449,12.449,0,0,0-1.656,3.514l-1.6-.465-.031.11a14.062,14.062,0,0,0-.291,6.457l1.64-.311a12.457,12.457,0,0,0,1.309,3.657l-1.463.8h0a14.1,14.1,0,0,0,4.407,4.877l.94-1.374a12.445,12.445,0,0,0,3.51,1.663l-.47,1.6h0l.147.043a14.065,14.065,0,0,0,6.57.268l-.325-1.638a12.459,12.459,0,0,0,3.646-1.339l.813,1.458a14.1,14.1,0,0,0,4.84-4.447l-1.384-.931a12.458,12.458,0,0,0,1.64-3.521l1.6.457.01-.037a14.033,14.033,0,0,0,.275-6.533Zm-13.839,11.089a8.405,8.405,0,1,1,8.07-6.11A8.381,8.381,0,0,1,524.129,139.252Z" transform="translate(-510.018 -116.752)" fill="#cbd9e4"/>
      </g>
      <g id="Grupo_29021" data-name="Grupo 29021" transform="translate(30.717 54.481)">
        <path id="Trazado_68873" data-name="Trazado 68873" d="M625.987,435.045a49.13,49.13,0,1,0-86.337,0Z" transform="translate(-409.926 -214.029)" fill="#fff"/>
        <ellipse id="Elipse_3363" data-name="Elipse 3363" cx="65.418" cy="65.418" rx="65.418" ry="65.418" transform="translate(0 41.773)" fill="#fff"/>
        <ellipse id="Elipse_3364" data-name="Elipse 3364" cx="49.129" cy="49.13" rx="49.129" ry="49.13" transform="translate(30.082)" fill="#fff"/>
        <circle id="Elipse_3365" data-name="Elipse 3365" cx="49.129" cy="49.129" r="49.129" transform="translate(82.026 97.61) rotate(-79.905)" fill="#fff"/>
        <circle id="Elipse_3366" data-name="Elipse 3366" cx="38.586" cy="38.586" r="38.586" transform="translate(119.131 87.007)" fill="#fff"/>
        <path id="Trazado_68874" data-name="Trazado 68874" d="M400.782,376.367A49.128,49.128,0,0,0,414.8,430.884H522.44a49.122,49.122,0,0,0-54.295-81.527A49.145,49.145,0,0,0,410.06,361a8.977,8.977,0,1,0-9.278,15.367Z" transform="translate(-380.376 -209.867)" fill="#fff"/>
      </g>
      <g id="Grupo_29048" data-name="Grupo 29048" transform="translate(83.038 43.19)">
        <g id="Grupo_29044" data-name="Grupo 29044">
          <g id="Grupo_29043" data-name="Grupo 29043">
            <g id="Grupo_29042" data-name="Grupo 29042">
              <path id="Rectángulo_26499" data-name="Rectángulo 26499" d="M8.851,0H112.807a8.85,8.85,0,0,1,8.85,8.85V222.077a8.851,8.851,0,0,1-8.851,8.851H8.85A8.85,8.85,0,0,1,0,222.078V8.851A8.851,8.851,0,0,1,8.851,0Z" transform="translate(0.785 0.785)" fill="#afafaf"/>
              <path id="Trazado_68906" data-name="Trazado 68906" d="M558.167,160.548a6.161,6.161,0,0,1,6.161,6.162V383.744a6.161,6.161,0,0,1-6.161,6.162H450.4a6.162,6.162,0,0,1-6.162-6.162V166.709a6.162,6.162,0,0,1,6.162-6.162H558.167m0-1.57H450.4a7.74,7.74,0,0,0-7.732,7.731V383.744a7.741,7.741,0,0,0,7.732,7.732H558.167a7.74,7.74,0,0,0,7.731-7.732V166.709a7.74,7.74,0,0,0-7.731-7.731Z" transform="translate(-442.672 -158.978)" fill="#b4b7c6"/>
            </g>
          </g>
        </g>
        <g id="Grupo_29045" data-name="Grupo 29045" transform="translate(1.57 13.403)">
          <path id="Trazado_68907" data-name="Trazado 68907" d="M564.76,183.173V374.625a7.12,7.12,0,0,1-7.12,7.121H451.792a7.12,7.12,0,0,1-7.12-7.121V183.173a7.12,7.12,0,0,1,7.12-7.12H557.64A7.12,7.12,0,0,1,564.76,183.173Z" transform="translate(-444.672 -176.053)" fill="url(#linear-gradient)"/>
        </g>
        <g id="Grupo_29046" data-name="Grupo 29046" transform="translate(52.898 6.287)">
          <path id="Trazado_68908" data-name="Trazado 68908" d="M526.12,169.737H511.439a1.374,1.374,0,0,1-1.374-1.374h0a1.374,1.374,0,0,1,1.374-1.374H526.12a1.374,1.374,0,0,1,1.374,1.374h0A1.374,1.374,0,0,1,526.12,169.737Z" transform="translate(-510.065 -166.988)" fill="#161c59"/>
        </g>
        <g id="Grupo_29047" data-name="Grupo 29047" transform="translate(47.23 6.287)">
          <path id="Trazado_68909" data-name="Trazado 68909" d="M505.592,168.362a1.374,1.374,0,1,1-1.374-1.374A1.374,1.374,0,0,1,505.592,168.362Z" transform="translate(-502.843 -166.988)" fill="#161c59"/>
        </g>
      </g>
      <path id="Rectángulo_26500" data-name="Rectángulo 26500" d="M2.949,0H93.122A2.949,2.949,0,0,1,96.07,2.949v5.4A2.948,2.948,0,0,1,93.122,11.3H2.948A2.948,2.948,0,0,1,0,8.349v-5.4A2.949,2.949,0,0,1,2.949,0Z" transform="translate(96.616 134.669)" fill="#e6e7e8" style="mix-blend-mode: multiply;isolation: isolate"/>
      <rect id="Rectángulo_26501" data-name="Rectángulo 26501" width="28.305" height="13.336" rx="2.106" transform="translate(96.123 67.283)" fill="#e6e7e8" style="mix-blend-mode: multiply;isolation: isolate"/>
      <rect id="Rectángulo_26502" data-name="Rectángulo 26502" width="28.305" height="13.336" rx="2.106" transform="translate(130.499 67.283)" fill="#e6e7e8" style="mix-blend-mode: multiply;isolation: isolate"/>
      <rect id="Rectángulo_26503" data-name="Rectángulo 26503" width="28.305" height="13.336" rx="2.106" transform="translate(164.874 67.283)" fill="#e6e7e8" style="mix-blend-mode: multiply;isolation: isolate"/>
      <rect id="Rectángulo_26504" data-name="Rectángulo 26504" width="42.332" height="42.332" rx="2.455" transform="translate(100.152 179.915)" stroke="#707070" stroke-miterlimit="10" stroke-width="8" opacity="0.4" fill="url(#linear-gradient-2)" style="mix-blend-mode: multiply;isolation: isolate"/>
      <rect id="Rectángulo_26505" data-name="Rectángulo 26505" width="42.332" height="42.332" rx="2.455" transform="translate(155.072 179.915)" stroke="#707070" stroke-miterlimit="10" stroke-width="8" opacity="0.4" fill="url(#linear-gradient-2)" style="mix-blend-mode: multiply;isolation: isolate"/>
      <rect id="Rectángulo_26506" data-name="Rectángulo 26506" width="42.332" height="42.332" rx="2.455" transform="translate(209.993 179.915)" stroke="#707070" stroke-miterlimit="10" stroke-width="8" opacity="0.4" fill="url(#linear-gradient-2)" style="mix-blend-mode: multiply;isolation: isolate"/>
      <rect id="Rectángulo_26507" data-name="Rectángulo 26507" width="42.332" height="42.332" rx="2.455" transform="translate(97.13 176.894)" fill="#fff"/>
      <rect id="Rectángulo_26508" data-name="Rectángulo 26508" width="42.332" height="42.332" rx="2.455" transform="translate(152.051 176.894)" fill="#fff"/>
      <rect id="Rectángulo_26509" data-name="Rectángulo 26509" width="42.332" height="20.341" rx="1.702" transform="translate(152.051 227.438)" fill="#e6e7e8" style="mix-blend-mode: multiply;isolation: isolate"/>
      <rect id="Rectángulo_26510" data-name="Rectángulo 26510" width="42.332" height="20.341" rx="1.702" transform="translate(96.703 227.438)" fill="#e6e7e8" style="mix-blend-mode: multiply;isolation: isolate"/>
      <rect id="Rectángulo_26511" data-name="Rectángulo 26511" width="42.332" height="42.332" rx="2.455" transform="translate(206.971 176.894)" fill="#fff"/>
      <g id="Grupo_29049" data-name="Grupo 29049" transform="translate(96.123 84.169)">
        <rect id="Rectángulo_26512" data-name="Rectángulo 26512" width="28.305" height="3.153" rx="1.576" fill="#707070"/>
        <rect id="Rectángulo_26513" data-name="Rectángulo 26513" width="28.305" height="3.153" rx="1.576" transform="translate(34.375)" fill="#707070"/>
        <rect id="Rectángulo_26514" data-name="Rectángulo 26514" width="28.305" height="3.153" rx="1.576" transform="translate(68.751)" fill="#707070"/>
      </g>
      <g id="Grupo_29050" data-name="Grupo 29050" transform="translate(96.123 90.837)" style="mix-blend-mode: multiply;isolation: isolate">
        <rect id="Rectángulo_26515" data-name="Rectángulo 26515" width="28.305" height="3.153" rx="1.576" fill="#e6e7e8"/>
        <rect id="Rectángulo_26516" data-name="Rectángulo 26516" width="28.305" height="3.153" rx="1.576" transform="translate(34.375)" fill="#e6e7e8"/>
        <rect id="Rectángulo_26517" data-name="Rectángulo 26517" width="28.305" height="3.153" rx="1.576" transform="translate(68.751)" fill="#e6e7e8"/>
      </g>
      <g id="Grupo_29053" data-name="Grupo 29053" transform="translate(233.541 182.81)">
        <path id="Trazado_68910" data-name="Trazado 68910" d="M669.424,413.962c-2.122-.178-2.274-12.058-1.947-17.1s1.528-8.954,4.118-8.737,3.122,4.275,2.6,9.3S671.547,414.141,669.424,413.962Z" transform="translate(-641.497 -347.879)" fill="#ffc8af"/>
        <path id="Trazado_68911" data-name="Trazado 68911" d="M679.808,441.779c-1.752.707-8.187-14.672-9.593-18.149s-2.618-7.257-.655-8.05,3.715,2.769,5.12,6.246S681.559,441.071,679.808,441.779Z" transform="translate(-641.753 -353.762)" fill="#ffc8af"/>
        <path id="Trazado_68912" data-name="Trazado 68912" d="M682.635,446.526c-1.148.789-3.523,1.3-3.739.9s.154-1.529.482-2.342l0-.008c.1-.241.192-.454.263-.612.084-.2.141-.315.141-.315s-3.8-15.033-3.1-15.224c.764-.207,5.855,14.712,5.855,14.712s.025.094.067.228l.058.192.388,1.294C683.1,445.5,683.477,445.957,682.635,446.526Z" transform="translate(-643.487 -356.655)" fill="#ffc8af"/>
        <path id="Trazado_68913" data-name="Trazado 68913" d="M683.246,450.673c-1.148.789-3.524,1.3-3.739.9s.154-1.529.482-2.342l0-.008c.1-.241.191-.454.263-.612.072.15.182.373.267.57.15.344.346.348,1.047-.112a13.6,13.6,0,0,1,1.707-.865s.454.951.578,1.279C683.914,449.633,684.088,450.1,683.246,450.673Z" transform="translate(-644.099 -360.802)" fill="#262b7f"/>
        <g id="Grupo_29052" data-name="Grupo 29052" transform="translate(27.222 15.455)">
          <path id="Trazado_68914" data-name="Trazado 68914" d="M680.619,374.717c-1.418.589-5.6-7.325-7.131-10.816s-2.107-6.514-.377-7.234,3.466,1.823,4.864,5.367S682.035,374.127,680.619,374.717Z" transform="translate(-669.732 -356.544)" fill="#ffc8af"/>
          <g id="Grupo_29051" data-name="Grupo 29051" transform="translate(0 15.732)">
            <path id="Trazado_68915" data-name="Trazado 68915" d="M672.706,393.643c-1.237-.567,2.6-9.827,3.773-12.4s2.611-5.2,4-4.562.334,3.436-.845,6.007S673.943,394.21,672.706,393.643Z" transform="translate(-669.82 -376.587)" fill="#ffc8af"/>
            <path id="Trazado_68916" data-name="Trazado 68916" d="M673,395.234c1.507.56.218,3.106-.253,3.958-.768,1.388-2.913,2.075-3.456,1.785s1.432-3.3,1.364-3.475-.968,1.545-1.45,1.219.715-2.36,1.5-2.983A2.053,2.053,0,0,1,673,395.234Z" transform="translate(-669.096 -380.563)" fill="#ffc8af"/>
          </g>
        </g>
        <path id="Trazado_68917" data-name="Trazado 68917" d="M667.688,445.495c.128.51.388,1.082.109,1.586a1.4,1.4,0,0,1-.992.586,11.231,11.231,0,0,1-1.651.235,6.035,6.035,0,0,1-.673.054c-.187,0-.371-.035-.556-.045-.364-.022-.73-.007-1.094-.039-.035,0-.281.005-.315-.043s.03-.115.06-.142c.157-.137.363-.2.525-.33.182-.147.348-.312.532-.456a5.08,5.08,0,0,1,1.19-.721c.083-.035-2.435-15.809-1.684-15.972C663.824,430.058,667.687,445.488,667.688,445.495Z" transform="translate(-640.457 -356.932)" fill="#ffc8af"/>
        <path id="Trazado_68918" data-name="Trazado 68918" d="M656.8,414.892c-2.082-.455-.681-12.252.3-17.21s2.684-8.678,5.225-8.124,2.537,4.646,1.366,9.562S658.876,415.346,656.8,414.892Z" transform="translate(-638.996 -348.178)" fill="#ffc8af"/>
        <path id="Trazado_68919" data-name="Trazado 68919" d="M665.337,443.115c-1.8.565-7.29-15.2-8.412-18.779s-2.031-7.443-.01-8.077,3.482,3.057,4.6,6.636S667.139,442.55,665.337,443.115Z" transform="translate(-638.996 -353.917)" fill="#ffc8af"/>
        <path id="Trazado_68920" data-name="Trazado 68920" d="M667.694,450.773l0,1.773a.323.323,0,0,1-.322.323l-5.706,0a.517.517,0,0,1-.312-.932,21.617,21.617,0,0,1,3.143-1.709c.233.206.585.841,1,.918A11.455,11.455,0,0,0,667.694,450.773Z" transform="translate(-640.163 -361.238)" fill="#262b7f"/>
        <path id="Trazado_68921" data-name="Trazado 68921" d="M638.049,365.213c.889-1.014,8.6,5.256,10.708,7.105s4.2,3.956,3.2,5.093-3.359-.659-5.467-2.507S637.159,366.228,638.049,365.213Z" transform="translate(-635.18 -342.93)" fill="#ffc8af"/>
        <path id="Trazado_68922" data-name="Trazado 68922" d="M672.363,385.639l-13.215-.549-.579-22.608.913-5.678,6.1-2.244,3.932.75A4.611,4.611,0,0,1,673.261,360l-1.433,16Z" transform="translate(-639.609 -340.662)" fill="#ffc8af"/>
        <path id="Trazado_68923" data-name="Trazado 68923" d="M668.1,351.011v4.543a6.745,6.745,0,0,1-3.206.574c-1.211,0-1.483-.574-1.483-.574v-1.68Z" transform="translate(-640.651 -339.899)" fill="#ffc8af"/>
        <path id="Trazado_68924" data-name="Trazado 68924" d="M667.5,344.859c-.01.165-.016.319-.027.467,0,.053.005.106.005.165.112,2.7-1.619,5.585-4.225,5.977,0,0-.021.005-.059.011-.021,0-.052,0-.09,0-.557.069-2.575.234-3.312-.579a6.865,6.865,0,0,1-1.635-3.9,15.3,15.3,0,0,1,.218-1.963c0-.377-.2-1.556-.207-2.068a4.522,4.522,0,0,1,4.479-4.8C666.963,338.175,667.621,341.96,667.5,344.859Z" transform="translate(-639.521 -337.138)" fill="#ffc8af"/>
        <path id="Trazado_68925" data-name="Trazado 68925" d="M663.414,356.6" transform="translate(-640.652 -341.102)" fill="#6ebaad"/>
        <path id="Trazado_68926" data-name="Trazado 68926" d="M658.651,356.777c-.918.852-1.632,2.342-1.805,5.392a11.252,11.252,0,0,0,.463,6.042c2.015,5.024.78,11.258.78,11.258l13.691.5s.289-9.18.757-12.108c1.412-8.836-.011-11.68-2.473-12.37C666.376,354.462,659.57,355.925,658.651,356.777Z" transform="translate(-639.192 -340.787)" fill="#4dd0e1"/>
        <path id="Trazado_68927" data-name="Trazado 68927" d="M654.716,376.048c-1.474-.381-.059-9.145.817-12.821s2.225-6.414,4.024-5.951,1.654,3.513.644,7.155S656.189,376.428,654.716,376.048Z" transform="translate(-638.643 -341.236)" fill="#ffc8af"/>
        <path id="Trazado_68928" data-name="Trazado 68928" d="M634.544,361.322c.354-.395,2.28,1.5,2.9,1.986.093.074.159.118.183.115s.023-.036.007-.085c-.1-.3-.859-1.361-.491-1.7.406-.367,1.921,1.071,2.434,1.991.029.05.067.106.089.153a2.038,2.038,0,0,1-.055,2.332c-.894,1.32-3.044-.52-3.754-1.174a4.989,4.989,0,0,1-1.261-2.112A1.909,1.909,0,0,1,634.544,361.322Z" transform="translate(-634.414 -342.105)" fill="#ffc8af"/>
        <path id="Trazado_68929" data-name="Trazado 68929" d="M657.127,341.2a4.007,4.007,0,0,0,.083.436c.3,1.206,1.241,1.907,1.146,3.223a5.5,5.5,0,0,0,.742,3.407c1.455,2.466-.556,1.919-.151,5.7.2,1.86,1.964,2.625,5.449,2.575s7.323-.1,7.222-2.727a4.823,4.823,0,0,0-.96-2.608c-.67-1.014-1.243-1.864-.878-3.114a7.248,7.248,0,0,0,.4-1.567c.08-1.319-.866-1.743-1.6-2.6-.788-.918-.327-2.47-.59-3.576-.859-3.6-4.586-4.018-7.613-3.044C658.525,337.9,656.841,339.071,657.127,341.2Z" transform="translate(-639.292 -336.854)" fill="#00223d"/>
        <path id="Trazado_68930" data-name="Trazado 68930" d="M674.141,382.215c-.114,2.873,2.052,6.641,2.388,9.5.672,5.733-3.294,16.471-3.294,17.165s3.711,10.008,5.15,15.688c0,0-.807,1.161-4.7,1.868,0,0-5.962-12.975-6.515-15.9s.126-27.783.126-27.783Z" transform="translate(-641.413 -346.61)" fill="#00223d"/>
        <path id="Trazado_68931" data-name="Trazado 68931" d="M665.4,382.816h-7.5a140.574,140.574,0,0,0-2.836,15.983c-1.111,9.188-.757,11.914-.555,13.379s5.267,15.3,5.267,15.3A8.83,8.83,0,0,0,665,426.263a100.105,100.105,0,0,0-3.169-11.51,36.215,36.215,0,0,1-1.624-4.443s4.215-8.987,5.267-15.4A37.926,37.926,0,0,0,665.4,382.816Z" transform="translate(-638.689 -346.74)" fill="#00223d"/>
      </g>
      <rect id="Rectángulo_26518" data-name="Rectángulo 26518" width="137.011" height="40.044" rx="1.881" transform="translate(45.604 102.896)" stroke="#707070" stroke-miterlimit="10" stroke-width="8" opacity="0.3" fill="url(#linear-gradient-5)" style="mix-blend-mode: multiply;isolation: isolate"/>
      <g id="Grupo_29065" data-name="Grupo 29065" transform="translate(39.238 97.861)">
        <g id="Grupo_29054" data-name="Grupo 29054" transform="translate(0 123.16)">
          <path id="Trazado_68932" data-name="Trazado 68932" d="M404.582,385.535v10.69h-3.777v8.455h3.777v.033h-7.677v8.455h7.677v.033H393.825v8.455h10.757v.033H389.926v8.455h14.657v.033H386.871v8.455h44.1v-53.1Z" transform="translate(-386.871 -385.535)" fill="#00223d"/>
        </g>
        <path id="Trazado_68933" data-name="Trazado 68933" d="M425.454,385.535v10.69h-3.777v8.455h3.777v.033h-7.677v8.455h7.677v.033H414.7v8.455h10.757v.033H410.8v8.455h14.657v.033H407.742v8.455h27.715v-53.1Z" transform="translate(-391.36 -262.376)" fill="#8998a5"/>
        <g id="Grupo_29064" data-name="Grupo 29064" transform="translate(7.373)">
          <path id="Trazado_68934" data-name="Trazado 68934" d="M428.392,343.651c2.243-.188,2.4-12.743,2.058-18.073s-1.615-9.463-4.353-9.233-3.3,4.517-2.75,9.831S426.149,343.84,428.392,343.651Z" transform="translate(-402.048 -247.492)" fill="#ffc8af"/>
          <path id="Trazado_68935" data-name="Trazado 68935" d="M416.092,373.048c1.851.747,8.653-15.505,10.137-19.18s2.768-7.669.692-8.508-3.926,2.927-5.41,6.6S414.241,372.3,416.092,373.048Z" transform="translate(-400.451 -253.709)" fill="#ffc8af"/>
          <path id="Trazado_68936" data-name="Trazado 68936" d="M414.562,378.064c1.214.834,3.725,1.373,3.952.948s-.162-1.615-.509-2.475l0-.008c-.1-.254-.2-.481-.278-.648-.089-.211-.149-.333-.149-.333s4.02-15.887,3.276-16.088c-.807-.218-6.187,15.548-6.187,15.548s-.027.1-.071.24l-.062.2-.409,1.367C414.068,376.985,413.672,377.464,414.562,378.064Z" transform="translate(-400.076 -256.767)" fill="#ffc8af"/>
          <path id="Trazado_68937" data-name="Trazado 68937" d="M414.527,382.446c1.214.834,3.724,1.373,3.952.948s-.162-1.615-.509-2.475l0-.008c-.1-.254-.2-.481-.278-.647-.076.159-.192.394-.283.6-.158.364-.366.367-1.106-.119a14.341,14.341,0,0,0-1.8-.914s-.479,1-.611,1.352C413.822,381.348,413.637,381.846,414.527,382.446Z" transform="translate(-400.041 -261.149)" fill="#00223d"/>
          <path id="Trazado_68938" data-name="Trazado 68938" d="M429.12,328.6s.093,11.47-.42,13.871-10.5,25.362-10.5,25.362a14.2,14.2,0,0,1-3.826-1.088s3.735-13.124,5.282-17.819,2.934-6.882,2.827-8.589-1.814-15.952-1.814-15.952l8.462-.357Z" transform="translate(-400.158 -249.146)" fill="#00223d"/>
          <g id="Grupo_29057" data-name="Grupo 29057" transform="translate(21.205 24.978)">
            <g id="Grupo_29055" data-name="Grupo 29055" transform="translate(16.046)">
              <path id="Trazado_68939" data-name="Trazado 68939" d="M459.453,265.068c-.889-1.13-9.452,5.1-11.8,6.95s-4.691,3.972-3.695,5.24,3.613-.51,5.961-2.358S460.342,266.2,459.453,265.068Z" transform="translate(-443.722 -261.414)" fill="#ffc8af"/>
              <path id="Trazado_68940" data-name="Trazado 68940" d="M460.851,265.743c.949,1.41,3.245-.546,4-1.242,1.236-1.133,1.41-3.508.977-3.994s-3.038,2.291-3.232,2.264,1.347-1.377.892-1.792-2.247,1.319-2.694,2.279A2.17,2.17,0,0,0,460.851,265.743Z" transform="translate(-447.316 -260.45)" fill="#ffc8af"/>
            </g>
            <g id="Grupo_29056" data-name="Grupo 29056" transform="translate(0 13.472)">
              <path id="Trazado_68941" data-name="Trazado 68941" d="M443.562,278.19c-.479-1.549-9.738.395-13.607,1.512s-6.717,2.688-6.133,4.58,3.822,1.585,7.648.328S444.04,279.74,443.562,278.19Z" transform="translate(-423.38 -277.614)" fill="#ffc8af"/>
              <path id="Trazado_68942" data-name="Trazado 68942" d="M423.642,284.975c-.932-1.683-.064-3.505,2.532-4.531A75.9,75.9,0,0,1,435.4,278c.068.147.13.293.188.435,1.537,3.593.845,4.733.845,4.733-4.443,1.786-9.651,3.2-11.4,2.6A5.092,5.092,0,0,1,423.642,284.975Z" transform="translate(-423.279 -277.697)" fill="#ffe3a1"/>
            </g>
          </g>
          <g id="Grupo_29060" data-name="Grupo 29060">
            <rect id="Rectángulo_26519" data-name="Rectángulo 26519" width="137.011" height="40.044" rx="1.47" fill="#727997"/>
            <g id="Grupo_29058" data-name="Grupo 29058" transform="translate(6.205 5.833)">
              <rect id="Rectángulo_26520" data-name="Rectángulo 26520" width="28.378" height="28.378" rx="0.634" fill="#eef0f2"/>
            </g>
            <g id="Grupo_29059" data-name="Grupo 29059" transform="translate(43.65 7.452)">
              <rect id="Rectángulo_26521" data-name="Rectángulo 26521" width="79.827" height="3.558" rx="1.779" fill="#eef0f2"/>
              <rect id="Rectángulo_26522" data-name="Rectángulo 26522" width="79.827" height="3.558" rx="1.779" transform="translate(0 10.791)" fill="#eef0f2"/>
              <rect id="Rectángulo_26523" data-name="Rectángulo 26523" width="61.804" height="3.558" rx="1.779" transform="translate(0 21.581)" fill="#eef0f2"/>
            </g>
          </g>
          <path id="Trazado_68944" data-name="Trazado 68944" d="M430.684,376.975c-.109.435-.494,1.341-.14,1.739.219.246.746.263,1.042.275a3.277,3.277,0,0,0,1.1-.093c.47-.134.747-.238.87-.733.279-1.129.393-2.3.557-3.452.249-1.74.5-3.481.727-5.224.236-1.768.462-3.539.633-5.315.064-.662.122-1.326.151-1.99a3.751,3.751,0,0,0-.031-1.171c-.017-.058-.029-.176-.1-.192C434.768,360.662,430.686,376.968,430.684,376.975Z" transform="translate(-403.606 -257.059)" fill="#ffc8af"/>
          <path id="Trazado_68945" data-name="Trazado 68945" d="M441.248,344.634c2.2-.48.718-12.948-.32-18.187s-2.837-9.172-5.521-8.586-2.681,4.91-1.444,10.105S439.048,345.114,441.248,344.634Z" transform="translate(-404.2 -247.808)" fill="#ffc8af"/>
          <path id="Trazado_68946" data-name="Trazado 68946" d="M431.841,374.46c1.9.6,7.7-16.063,8.889-19.845s2.146-7.866.011-8.535-3.68,3.231-4.866,7.012S429.936,373.862,431.841,374.46Z" transform="translate(-403.82 -253.873)" fill="#ffc8af"/>
          <path id="Trazado_68947" data-name="Trazado 68947" d="M430.245,382.554l0,1.874a.342.342,0,0,0,.342.341l6.03,0a.547.547,0,0,0,.33-.985,22.9,22.9,0,0,0-3.322-1.8c-.246.217-.618.889-1.051.97A12.1,12.1,0,0,1,430.245,382.554Z" transform="translate(-403.573 -261.61)" fill="#00223d"/>
          <path id="Trazado_68948" data-name="Trazado 68948" d="M423.068,313.719h14.855l.612-23.892-1.106-6.741-7.2-2.212-4.155.793a4.874,4.874,0,0,0-3.958,4.958l1.514,16.91Z" transform="translate(-401.824 -239.865)" fill="#ffc8af"/>
          <path id="Trazado_68949" data-name="Trazado 68949" d="M430.47,276.8v4.8a7.132,7.132,0,0,0,3.388.606c1.28,0,1.568-.606,1.568-.606V279.83Z" transform="translate(-403.621 -238.99)" fill="#ffc8af"/>
          <path id="Trazado_68950" data-name="Trazado 68950" d="M429.754,270.3c.011.174.016.337.027.494,0,.056-.005.112-.005.174-.118,2.85,1.711,5.9,4.465,6.317,0,0,.023.006.062.011.023,0,.056.005.1.005.59.073,2.721.247,3.5-.611a7.256,7.256,0,0,0,1.728-4.126,16.2,16.2,0,0,0-.23-2.075c0-.4.214-1.645.217-2.186a4.778,4.778,0,0,0-4.734-5.067C430.321,263.239,429.625,267.239,429.754,270.3Z" transform="translate(-403.464 -236.072)" fill="#ffc8af"/>
          <path id="Trazado_68951" data-name="Trazado 68951" d="M436.781,283.034" transform="translate(-404.978 -240.33)" fill="#6ebaad"/>
          <g id="Grupo_29062" data-name="Grupo 29062" transform="translate(48.019 38.241)">
            <path id="Trazado_68952" data-name="Trazado 68952" d="M473.152,281.082c-.87-1.129-9.422,4.968-11.769,6.777s-4.691,3.892-3.714,5.158,3.587-.47,5.934-2.279S474.023,282.212,473.152,281.082Z" transform="translate(-457.441 -278.121)" fill="#ffc8af"/>
            <g id="Grupo_29061" data-name="Grupo 29061" transform="translate(12.798)">
              <path id="Trazado_68953" data-name="Trazado 68953" d="M476.562,279.159a.52.52,0,0,1-.2.108c-.026-.005-.021-.04,0-.09.126-.312,1-1.378.631-1.755-.4-.413-2.1,1-2.7,1.937-.034.052-.078.108-.1.156a2.152,2.152,0,0,0-.1,2.463c.854,1.452,3.245-.345,4.038-.988a4.259,4.259,0,0,0,1.363-1.9C478.526,279.159,477.655,279.1,476.562,279.159Z" transform="translate(-473.746 -277.348)" fill="#ffc8af"/>
            </g>
          </g>
          <path id="Trazado_68954" data-name="Trazado 68954" d="M440.078,326.1c2.171,6.346,2.545,15.256,2.3,19.177s-8.049,24.326-8.049,24.326a5.862,5.862,0,0,1-3.921-.889s5.727-24.078,5.407-26-4.636-17.455-4.636-17.455Z" transform="translate(-403.609 -249.413)" fill="#00223d"/>
          <path id="Trazado_68955" data-name="Trazado 68955" d="M433.574,281.732a15.15,15.15,0,0,1,3.932,1.331,17.392,17.392,0,0,1,1.4,5.8c.052.9.047,3.485.015,6.731-.089,8.33-.362,21.041-.362,21.041H421.57s1.249-18.656.754-21.75c-1.491-9.338.012-12.343,2.614-13.073C428.835,280.721,431.034,281.521,433.574,281.732Z" transform="translate(-401.707 -239.947)" fill="#2194e5"/>
          <path id="Trazado_68956" data-name="Trazado 68956" d="M438.288,269.814s-.053,1.867-.32,2-.321-.509-.374-1c-.06-.556-.107-1.507-.96-1.4s-.576,1.994-.39,2.634-.958,3.208-1.7,3.288-3.7.32-4.1-.293a12.591,12.591,0,0,1-1.387-5.229c-.08-2.321-.534-5.5,1.627-6.188,0,0,.315-1.67,3.443-1.269s3.33.816,4.586.842a4.39,4.39,0,0,0,1.479-.32s.576,2.661-1.131,3.141c0,0,.4,1.793-.215,2.087S438.32,269.2,438.288,269.814Z" transform="translate(-403.297 -235.869)" fill="#00223d"/>
          <g id="Grupo_29063" data-name="Grupo 29063" transform="translate(31.755 42.696)">
            <path id="Trazado_68957" data-name="Trazado 68957" d="M455.243,293.635c.725-1.436-7.224-6.421-10.754-8.286s-6.646-2.7-7.531-.951,1.639,3.763,5.234,5.5S454.518,295.07,455.243,293.635Z" transform="translate(-436.733 -283.112)" fill="#ffc8af"/>
            <path id="Trazado_68958" data-name="Trazado 68958" d="M437.526,283.433c-1.495,1.212-.853,3.4,1.444,4.985a75.9,75.9,0,0,0,8.432,4.462c.1-.128.192-.256.281-.382,2.308-3.154,1.891-4.42,1.891-4.42C445.649,285.336,439.523,281.814,437.526,283.433Z" transform="translate(-436.72 -283.024)" fill="#2194e5"/>
          </g>
          <path id="Trazado_68959" data-name="Trazado 68959" d="M468.044,288.022c-.374-.418-2.408,1.582-3.063,2.1,1.106-.173,2.136-.345,3.01-.5C468.216,288.894,468.252,288.254,468.044,288.022Z" transform="translate(-411.044 -241.391)" fill="#ffc8af"/>
        </g>
      </g>
      <path id="Trazado_68960" data-name="Trazado 68960" d="M374.437,223.03a18.783,18.783,0,1,0-10.164,16.684c3.065.994,8.72,2.805,8.72,2.805l-2.379-8.135A18.694,18.694,0,0,0,374.437,223.03Z" transform="translate(-336.881 -125.525)" fill="#cbd9e4"/>
      <g id="Grupo_29066" data-name="Grupo 29066" transform="translate(42.533 54.088)">
        <path id="Trazado_68961" data-name="Trazado 68961" d="M401.613,172.979a6.149,6.149,0,1,0,4.819,4.818A6.153,6.153,0,0,0,401.613,172.979Zm2.189,12.173a6.989,6.989,0,0,1-6.809,0,9.33,9.33,0,0,0-5.924,8.69v.2a14.33,14.33,0,0,0,18.664,0v-.2A9.337,9.337,0,0,0,403.8,185.152Z" transform="translate(-391.069 -172.862)" fill="#cbd9e4"/>
      </g>
      <g id="Grupo_29067" data-name="Grupo 29067" transform="translate(165.219 192.811)">
        <path id="Trazado_68962" data-name="Trazado 68962" d="M547.372,356.993v-1.622l4.5-2.1v1.3l-3.517,1.611,3.517,1.611v1.3Z" transform="translate(-547.372 -350.385)" fill="#00223d"/>
        <path id="Trazado_68963" data-name="Trazado 68963" d="M558.209,349.6h1.512l-4.219,10.5H554Z" transform="translate(-548.798 -349.596)" fill="#00223d"/>
        <path id="Trazado_68964" data-name="Trazado 68964" d="M562.012,359.1v-1.3l3.506-1.611-3.506-1.611v-1.3l4.5,2.1v1.622Z" transform="translate(-550.521 -350.385)" fill="#00223d"/>
      </g>
      <path id="Rectángulo_26524" data-name="Rectángulo 26524" d="M2.949,0H93.122A2.949,2.949,0,0,1,96.07,2.949v5.4A2.949,2.949,0,0,1,93.122,11.3H2.948A2.948,2.948,0,0,1,0,8.349v-5.4A2.949,2.949,0,0,1,2.949,0Z" transform="translate(96.616 151.426)" fill="#12263f"/>
      <path id="Trazado_68965" data-name="Trazado 68965" d="M490.092,355.34a4.448,4.448,0,0,0-.555-1.9l.549-.306a5.078,5.078,0,0,0-1.062-1.325l-.419.472a4.433,4.433,0,0,0-1.731-.953l.172-.6-.008,0a5.079,5.079,0,0,0-1.384-.192c-.1,0-.2,0-.3.009l.038.629a4.441,4.441,0,0,0-1.9.553l-.306-.55a5.1,5.1,0,0,0-1.326,1.061l.471.42a4.431,4.431,0,0,0-.953,1.731l-.6-.173,0,.012a5.075,5.075,0,0,0-.193,1.383c0,.1,0,.2.008.293l.629-.036a4.432,4.432,0,0,0,.553,1.9l-.551.306a5.1,5.1,0,0,0,1.06,1.326l.42-.47a4.419,4.419,0,0,0,1.73.954l-.173.6.016,0a5.086,5.086,0,0,0,1.384.193c.1,0,.2,0,.305-.009l-.039-.629a4.438,4.438,0,0,0,1.9-.557l.307.549a5.064,5.064,0,0,0,1.323-1.064l-.471-.418a4.421,4.421,0,0,0,.951-1.732l.6.171v0a5.085,5.085,0,0,0,.193-1.383q0-.152-.009-.3Zm-5.537,4.159h0l.031-.11Zm3.688-3.162a2.682,2.682,0,1,1,.1-.733A2.689,2.689,0,0,1,488.242,356.338Z" transform="translate(-367.788 -156.986)" fill="#00223d"/>
      <path id="Trazado_68966" data-name="Trazado 68966" d="M627.346,354.685v-2.545h-1.413v2.545h-2.545V356.1h2.545v2.545h1.413V356.1h2.545v-1.412Z" transform="translate(-398.502 -157.332)" fill="#00223d"/>
      <g id="Grupo_29070" data-name="Grupo 29070" transform="translate(173.528 10.269)">
        <g id="Grupo_29069" data-name="Grupo 29069" transform="translate(0)">
          <rect id="Rectángulo_26525" data-name="Rectángulo 26525" width="99.525" height="63.231" rx="2.658" fill="url(#linear-gradient)"/>
          <g id="Grupo_29068" data-name="Grupo 29068" transform="translate(8.985 7.304)">
            <rect id="Rectángulo_26526" data-name="Rectángulo 26526" width="16.737" height="1.014" rx="0.443" transform="translate(50.488)" fill="#00223d"/>
            <rect id="Rectángulo_26527" data-name="Rectángulo 26527" width="47.827" height="1.014" rx="0.443" fill="#00223d"/>
            <rect id="Rectángulo_26528" data-name="Rectángulo 26528" width="16.68" height="1.014" rx="0.443" transform="translate(64.875 5.29)" fill="#00223d"/>
            <rect id="Rectángulo_26529" data-name="Rectángulo 26529" width="14.721" height="1.014" rx="0.443" transform="translate(0 5.29)" fill="#00223d"/>
            <rect id="Rectángulo_26530" data-name="Rectángulo 26530" width="44.97" height="1.014" rx="0.443" transform="translate(17.509 5.29)" fill="#00223d"/>
            <rect id="Rectángulo_26531" data-name="Rectángulo 26531" width="28.291" height="1.014" rx="0.443" transform="translate(47.274 10.58)" fill="#00223d"/>
            <rect id="Rectángulo_26532" data-name="Rectángulo 26532" width="44.464" height="1.014" rx="0.443" transform="translate(0 10.58)" fill="#00223d"/>
            <rect id="Rectángulo_26533" data-name="Rectángulo 26533" width="21.095" height="1.014" rx="0.443" transform="translate(0 15.87)" fill="#00223d"/>
            <rect id="Rectángulo_26534" data-name="Rectángulo 26534" width="57.937" height="1.014" rx="0.443" transform="translate(23.618 15.87)" fill="#00223d"/>
            <rect id="Rectángulo_26535" data-name="Rectángulo 26535" width="68.838" height="1.014" rx="0.443" transform="translate(0 21.16)" fill="#00223d"/>
            <rect id="Rectángulo_26536" data-name="Rectángulo 26536" width="11.842" height="1.014" rx="0.443" transform="translate(0 26.45)" fill="#00223d"/>
            <rect id="Rectángulo_26537" data-name="Rectángulo 26537" width="45.247" height="1.014" rx="0.443" transform="translate(14.975 26.45)" fill="#00223d"/>
            <rect id="Rectángulo_26538" data-name="Rectángulo 26538" width="13.639" height="1.014" rx="0.443" transform="translate(63.539 26.45)" fill="#00223d"/>
            <rect id="Rectángulo_26539" data-name="Rectángulo 26539" width="46.629" height="1.014" rx="0.443" transform="translate(0 31.74)" fill="#00223d"/>
            <rect id="Rectángulo_26540" data-name="Rectángulo 26540" width="31.839" height="1.014" rx="0.443" transform="translate(49.716 31.74)" fill="#00223d"/>
            <rect id="Rectángulo_26541" data-name="Rectángulo 26541" width="7.487" height="1.014" rx="0.443" transform="translate(70.681 37.03)" fill="#00223d"/>
            <rect id="Rectángulo_26542" data-name="Rectángulo 26542" width="20.078" height="1.014" rx="0.443" transform="translate(0 37.03)" fill="#00223d"/>
            <rect id="Rectángulo_26543" data-name="Rectángulo 26543" width="44.613" height="1.014" rx="0.443" transform="translate(22.981 37.03)" fill="#00223d"/>
            <rect id="Rectángulo_26544" data-name="Rectángulo 26544" width="36.861" height="1.014" rx="0.443" transform="translate(44.694 42.32)" fill="#00223d"/>
            <rect id="Rectángulo_26545" data-name="Rectángulo 26545" width="41.929" height="1.014" rx="0.443" transform="translate(0 42.32)" fill="#00223d"/>
            <rect id="Rectángulo_26546" data-name="Rectángulo 26546" width="49.21" height="1.014" rx="0.443" transform="translate(8.985 47.61)" fill="#00223d"/>
            <rect id="Rectángulo_26547" data-name="Rectángulo 26547" width="5.76" height="1.014" rx="0.443" transform="translate(0 47.61)" fill="#00223d"/>
          </g>
        </g>
      </g>
      <rect id="Rectángulo_26548" data-name="Rectángulo 26548" width="326.087" height="4.375" rx="2.188" transform="translate(5.736 274.118)" fill="#12263f"/>
      <rect id="Rectángulo_26549" data-name="Rectángulo 26549" width="104.936" height="22.479" rx="3.608" transform="translate(18.969 15.368)" fill="url(#linear-gradient-7)"/>
      <g id="Grupo_29071" data-name="Grupo 29071" transform="translate(44.43 21.232)">
        <rect id="Rectángulo_26550" data-name="Rectángulo 26550" width="70.584" height="1.522" rx="0.761" fill="#e6eef3"/>
        <rect id="Rectángulo_26551" data-name="Rectángulo 26551" width="70.584" height="1.522" rx="0.761" transform="translate(0 4.615)" fill="#e6eef3"/>
        <rect id="Rectángulo_26552" data-name="Rectángulo 26552" width="54.648" height="1.522" rx="0.761" transform="translate(0 9.229)" fill="#e6eef3"/>
      </g>
      <circle id="Elipse_3367" data-name="Elipse 3367" cx="8.09" cy="8.09" r="8.09" transform="translate(20.124 26.608) rotate(-45)" fill="#e6eef3"/>
      <g id="Grupo_29072" data-name="Grupo 29072" transform="translate(27.852 21.706)">
        <path id="Trazado_68967" data-name="Trazado 68967" d="M376.56,131.653a2.446,2.446,0,1,0,1.918,1.917A2.448,2.448,0,0,0,376.56,131.653Zm.871,4.844a2.784,2.784,0,0,1-2.709,0,3.711,3.711,0,0,0-2.357,3.457v.081a5.7,5.7,0,0,0,7.426,0v-.081A3.714,3.714,0,0,0,377.431,136.5Z" transform="translate(-372.365 -131.607)" fill="#cbd9e4"/>
      </g>
      <g id="Grupo_29077" data-name="Grupo 29077" transform="translate(1.479 159.214)">
        <rect id="Rectángulo_26553" data-name="Rectángulo 26553" width="52.916" height="32.999" rx="2.294" fill="#cbd9e4"/>
        <g id="Grupo_29075" data-name="Grupo 29075" transform="translate(4.597 7.154)">
          <g id="Grupo_29073" data-name="Grupo 29073">
            <rect id="Rectángulo_26554" data-name="Rectángulo 26554" width="3.206" height="18.692" fill="#f6c343"/>
            <rect id="Rectángulo_26555" data-name="Rectángulo 26555" width="3.206" height="18.692" transform="translate(6.869)" fill="#f6c343"/>
            <rect id="Rectángulo_26556" data-name="Rectángulo 26556" width="3.206" height="18.692" transform="translate(13.737)" fill="#f6c343"/>
            <rect id="Rectángulo_26557" data-name="Rectángulo 26557" width="3.206" height="18.692" transform="translate(20.606)" fill="#f6c343"/>
            <rect id="Rectángulo_26558" data-name="Rectángulo 26558" width="3.206" height="18.692" transform="translate(27.475)" fill="#f6c343"/>
          </g>
          <g id="Grupo_29074" data-name="Grupo 29074">
            <rect id="Rectángulo_26559" data-name="Rectángulo 26559" width="3.206" height="4.668" fill="#f1f1f1"/>
            <rect id="Rectángulo_26560" data-name="Rectángulo 26560" width="3.206" height="10.893" transform="translate(6.869)" fill="#f1f1f1"/>
            <rect id="Rectángulo_26561" data-name="Rectángulo 26561" width="3.206" height="7.948" transform="translate(13.737)" fill="#f1f1f1"/>
            <rect id="Rectángulo_26562" data-name="Rectángulo 26562" width="3.206" height="13.485" transform="translate(20.606)" fill="#f1f1f1"/>
            <rect id="Rectángulo_26563" data-name="Rectángulo 26563" width="3.206" height="15.896" transform="translate(27.475)" fill="#f1f1f1"/>
          </g>
        </g>
        <g id="Grupo_29076" data-name="Grupo 29076" transform="translate(38.736 7.154)" style="mix-blend-mode: multiply;isolation: isolate">
          <rect id="Rectángulo_26564" data-name="Rectángulo 26564" width="9.718" height="1.559" fill="#dce8ef"/>
          <rect id="Rectángulo_26565" data-name="Rectángulo 26565" width="9.718" height="1.559" transform="translate(0 3.426)" fill="#dce8ef"/>
          <rect id="Rectángulo_26566" data-name="Rectángulo 26566" width="9.718" height="1.559" transform="translate(0 6.853)" fill="#dce8ef"/>
          <rect id="Rectángulo_26567" data-name="Rectángulo 26567" width="9.718" height="1.559" transform="translate(0 10.28)" fill="#dce8ef"/>
          <rect id="Rectángulo_26568" data-name="Rectángulo 26568" width="9.718" height="1.559" transform="translate(0 13.706)" fill="#dce8ef"/>
          <rect id="Rectángulo_26569" data-name="Rectángulo 26569" width="9.718" height="1.559" transform="translate(0 17.133)" fill="#dce8ef"/>
        </g>
      </g>
      <g id="Grupo_29082" data-name="Grupo 29082" transform="translate(212.672 82.474)">
        <rect id="Rectángulo_26570" data-name="Rectángulo 26570" width="52.916" height="32.999" rx="2.294" transform="translate(0)" fill="url(#linear-gradient)"/>
        <g id="Grupo_29078" data-name="Grupo 29078" transform="translate(5.988 3.139)" style="mix-blend-mode: multiply;isolation: isolate">
          <line id="Línea_260" data-name="Línea 260" y2="26.721" transform="translate(40.94)" fill="none" stroke="#dce8ef" stroke-miterlimit="10" stroke-width="0.5"/>
          <line id="Línea_261" data-name="Línea 261" y2="26.721" transform="translate(34.116)" fill="none" stroke="#dce8ef" stroke-miterlimit="10" stroke-width="0.5"/>
          <line id="Línea_262" data-name="Línea 262" y2="26.721" transform="translate(27.293)" fill="none" stroke="#dce8ef" stroke-miterlimit="10" stroke-width="0.5"/>
          <line id="Línea_263" data-name="Línea 263" y2="26.721" transform="translate(20.47)" fill="none" stroke="#dce8ef" stroke-miterlimit="10" stroke-width="0.5"/>
          <line id="Línea_264" data-name="Línea 264" y2="26.721" transform="translate(13.647)" fill="none" stroke="#dce8ef" stroke-miterlimit="10" stroke-width="0.5"/>
          <line id="Línea_265" data-name="Línea 265" y2="26.721" fill="none" stroke="#dce8ef" stroke-miterlimit="10" stroke-width="0.5"/>
          <line id="Línea_266" data-name="Línea 266" y2="26.721" transform="translate(6.823)" fill="none" stroke="#dce8ef" stroke-miterlimit="10" stroke-width="0.5"/>
        </g>
        <g id="Grupo_29081" data-name="Grupo 29081" transform="translate(4.628 3.567)">
          <g id="Grupo_29080" data-name="Grupo 29080">
            <path id="Trazado_68968" data-name="Trazado 68968" d="M615.456,234.843l6.823-6.608,6.823-1.715,6.823-6.755,6.823,2.72,6.823-3.445L656.4,215.3" transform="translate(-614.096 -213.943)" fill="none" stroke="#f6c343" stroke-linecap="round" stroke-miterlimit="10" stroke-width="1"/>
            <g id="Grupo_29079" data-name="Grupo 29079">
              <rect id="Rectángulo_26571" data-name="Rectángulo 26571" width="2.72" height="2.72" transform="translate(0 19.54)" fill="#002b45"/>
              <rect id="Rectángulo_26572" data-name="Rectángulo 26572" width="2.72" height="2.72" transform="translate(6.823 12.932)" fill="#00223d"/>
              <rect id="Rectángulo_26573" data-name="Rectángulo 26573" width="2.72" height="2.72" transform="translate(13.647 11.218)" fill="#00223d"/>
              <rect id="Rectángulo_26574" data-name="Rectángulo 26574" width="2.72" height="2.72" transform="translate(20.47 4.463)" fill="#00223d"/>
              <rect id="Rectángulo_26575" data-name="Rectángulo 26575" width="2.72" height="2.72" transform="translate(27.293 7.183)" fill="#00223d"/>
              <rect id="Rectángulo_26576" data-name="Rectángulo 26576" width="2.72" height="2.72" transform="translate(34.116 3.738)" fill="#00223d"/>
              <rect id="Rectángulo_26577" data-name="Rectángulo 26577" width="2.72" height="2.72" transform="translate(40.94)" fill="#00223d"/>
            </g>
          </g>
        </g>
      </g>
      <path id="Trazado_68969" data-name="Trazado 68969" d="M370.047,225.942h.292a.8.8,0,0,0,0-1.6h-.291l1.2-2.316h-3.106a10.786,10.786,0,1,0,0,6.231h3.107Zm-12.226,8.388a9.188,9.188,0,1,1,8.644-12.3h-.042l-1.2,2.316h-.342a7.1,7.1,0,1,0,0,1.6h.341l1.206,2.317h.041A9.2,9.2,0,0,1,357.821,234.33Zm2.746-9.986a2.861,2.861,0,1,0,0,1.6h2.7a5.5,5.5,0,1,1,0-1.6Z" transform="translate(-339.065 -127.698)" fill="#12263f"/>
      <path id="Trazado_68970" data-name="Trazado 68970" d="M638.11,306.688h7.475V303.9H638.11Zm9.823-10.606c.056-.665.09-1.336.09-2.015a23.852,23.852,0,0,0-5.2-14.9,1.255,1.255,0,0,0-1.959,0,23.851,23.851,0,0,0-5.2,14.9c0,.679.035,1.35.09,2.015-3.726,2.509-6.183,8.718-3.458,13.511a.5.5,0,0,0,.922-.119c.419-1.8,1.549-5.124,4.293-6.411h8.653c2.745,1.287,3.875,4.608,4.294,6.411a.5.5,0,0,0,.922.119C654.116,304.8,651.659,298.591,647.933,296.082Zm-6.085-6.054a2.2,2.2,0,1,1,2.2-2.2A2.2,2.2,0,0,1,641.848,290.028Z" transform="translate(-400.17 -141.537)" fill="#c5e5fe"/>
      <g id="Grupo_29083" data-name="Grupo 29083" transform="translate(21.347 44.03)">
        <path id="Trazado_68971" data-name="Trazado 68971" d="M365.728,163.348a1.651,1.651,0,1,0-1.167-.484,1.665,1.665,0,0,0,1.167.484" transform="translate(-364.077 -160.047)" fill="#cbd9e4"/>
        <path id="Trazado_68972" data-name="Trazado 68972" d="M391.819,163.348h.008a1.651,1.651,0,1,0,0-3.3h-.008a1.651,1.651,0,0,0,0,3.3Zm-11.479,0h.008a1.651,1.651,0,1,0,0-3.3h-.008a1.651,1.651,0,0,0,0,3.3Z" transform="translate(-367.22 -160.047)" fill="#cbd9e4"/>
        <path id="Trazado_68973" data-name="Trazado 68973" d="M409.6,163.348a1.649,1.649,0,1,0-1.167-.484,1.662,1.662,0,0,0,1.167.484" transform="translate(-373.513 -160.047)" fill="#cbd9e4"/>
      </g>
      <g id="Grupo_29084" data-name="Grupo 29084" transform="translate(222.95 0)">
        <path id="Trazado_68974" data-name="Trazado 68974" d="M622.572,107.254a1.651,1.651,0,1,0-1.167-.484,1.659,1.659,0,0,0,1.167.484" transform="translate(-620.921 -103.953)" fill="#cbd9e4"/>
        <path id="Trazado_68975" data-name="Trazado 68975" d="M648.664,107.254h.009a1.65,1.65,0,1,0,0-3.3h-.009a1.65,1.65,0,1,0,0,3.3Zm-11.479,0h.009a1.65,1.65,0,1,0,0-3.3h-.009a1.65,1.65,0,0,0,0,3.3Z" transform="translate(-624.064 -103.953)" fill="#cbd9e4"/>
        <path id="Trazado_68976" data-name="Trazado 68976" d="M666.444,107.254a1.651,1.651,0,1,0-1.167-.484,1.662,1.662,0,0,0,1.167.484" transform="translate(-630.357 -103.953)" fill="#cbd9e4"/>
      </g>
      <g id="Grupo_29085" data-name="Grupo 29085" transform="translate(22.156 248.96)">
        <path id="Trazado_68977" data-name="Trazado 68977" d="M372.375,428.4h-7.267V421.13h7.267Zm-6.029-1.238h4.791v-4.791h-4.791Z" transform="translate(-365.108 -421.13)" fill="#dfe1f7"/>
      </g>
      <g id="Grupo_29086" data-name="Grupo 29086" transform="translate(263.02 151.475)">
        <path id="Trazado_68978" data-name="Trazado 68978" d="M679.238,304.2h-7.267v-7.267h7.267Zm-6.029-1.239H678v-4.79h-4.79Z" transform="translate(-671.971 -296.933)" fill="#cbd9e4"/>
      </g>
      <g id="Grupo_29087" data-name="Grupo 29087" transform="translate(263.02 163.438)">
        <path id="Trazado_68979" data-name="Trazado 68979" d="M679.238,319.441h-7.267v-7.267h7.267Zm-6.029-1.238H678v-4.79h-4.79Z" transform="translate(-671.971 -312.174)" fill="#cbd9e4"/>
      </g>
      <path id="Trazado_68980" data-name="Trazado 68980" d="M383.4,373.871v-4.328h-2.4v4.328h-4.329v2.4h4.329V380.6h2.4v-4.329h4.328v-2.4Z" transform="translate(-345.438 -161.075)" fill="#002b45"/>
      <path id="Trazado_68981" data-name="Trazado 68981" d="M638.676,435.927a1.423,1.423,0,1,0,1.005.417A1.432,1.432,0,0,0,638.676,435.927Zm7.339,0h-.007a1.423,1.423,0,0,0,0,2.845h.007a1.423,1.423,0,0,0,0-2.845Zm-7.339-7.266a1.423,1.423,0,1,0,1.005.417A1.436,1.436,0,0,0,638.676,428.661Zm7.331,2.845h.007a1.423,1.423,0,0,0,0-2.845h-.007a1.423,1.423,0,0,0,0,2.845Z" transform="translate(-401.484 -173.79)" fill="#f9fbfc"/>
      <path id="Trazado_68982" data-name="Trazado 68982" d="M349.539,292.556a1.651,1.651,0,1,0,1.167.483A1.664,1.664,0,0,0,349.539,292.556Zm8.515,0h-.008a1.651,1.651,0,1,0,0,3.3h.008a1.651,1.651,0,0,0,0-3.3Zm-8.515-8.43a1.65,1.65,0,1,0,1.167.483A1.663,1.663,0,0,0,349.539,284.126Zm8.507,3.3h.008a1.65,1.65,0,1,0,0-3.3h-.008a1.65,1.65,0,1,0,0,3.3Z" transform="translate(-339.248 -142.704)" fill="#cbd9e4"/>
      <path id="Trazado_68983" data-name="Trazado 68983" d="M658.13,266.3h-6.82v1.1h6.82Zm-4.426,6.879.779.779,4.822-4.823-.779-.779Zm9.786-6.879v1.1h6.82v-1.1Zm-9.786-5.777,4.822,4.822.779-.779-4.822-4.822Zm14.213,0-.779-.779-4.822,4.822.779.779Zm-5.6,8.612,4.822,4.823.779-.779-4.822-4.823Zm-2.056-4.965h1.1v-6.819h-1.1Zm0,12.18h1.1v-6.819h-1.1Z" transform="translate(-404.507 -136.946)" fill="#cbd9e4"/>
      <path id="Trazado_68984" data-name="Trazado 68984" d="M378.17,179.931H353.92a3.656,3.656,0,0,0-3.656,3.656v13.56" transform="translate(-339.759 -120.294)" fill="none" stroke="#cbd9e4" stroke-miterlimit="10" stroke-width="2"/>
      <path id="Trazado_68985" data-name="Trazado 68985" d="M660,290.711h19.509A2.593,2.593,0,0,1,682.1,293.3V327.55a2.593,2.593,0,0,1-2.593,2.593h-7.262" transform="translate(-406.376 -144.12)" fill="none" stroke="#cbd9e4" stroke-miterlimit="10" stroke-width="2"/>
      <path id="Trazado_68986" data-name="Trazado 68986" d="M366.185,371.63h-13.6a3.51,3.51,0,0,1-3.51-3.51V353.538" transform="translate(-339.503 -157.633)" fill="none" stroke="#cbd9e4" stroke-miterlimit="10" stroke-width="2"/>
      <path id="Trazado_68987" data-name="Trazado 68987" d="M413.173,116.422V109.48a3.424,3.424,0,0,1,3.425-3.424H567.742" transform="translate(-353.29 -104.405)" fill="none" stroke="#cbd9e4" stroke-miterlimit="10" stroke-width="2"/>
      <line id="Línea_267" data-name="Línea 267" y2="33.32" transform="translate(36.757 222.906)" fill="none" stroke="#dfe1f7" stroke-miterlimit="10" stroke-width="2"/>
    </g>
    <g id="Grupo_172820" data-name="Grupo 172820" transform="translate(-5701.486 2651.045)">
      <path id="Trazado_97103" data-name="Trazado 97103" d="M2030.832,806.805s-.62,4.338.929,6.507,4.751,5.268,3.925,6.094-10.019-3.822-9.813-4.854,1.653-5.268,1.343-7.747Z" transform="translate(-1994.495 -730.259)" fill="#fb9391"/>
      <path id="Trazado_97104" data-name="Trazado 97104" d="M2026.43,841.575c-.253.956-.483,1.731-.557,2.1-.207,1.033,8.986,5.681,9.813,4.855.613-.613-.99-2.476-2.492-4.282C2032.35,844.777,2030.209,845.343,2026.43,841.575Z" transform="translate(-1994.495 -759.38)" fill="#060633"/>
      <path id="Trazado_97105" data-name="Trazado 97105" d="M1974.969,811.124s-.62,4.338.929,6.507,4.751,5.268,3.926,6.094-10.02-3.822-9.813-4.855,1.652-5.268,1.343-7.747Z" transform="translate(-1947.707 -733.876)" fill="#fb9391"/>
      <path id="Trazado_97106" data-name="Trazado 97106" d="M1865.919,337.255a7.528,7.528,0,0,1,2.571,7.165c-.428,2.13-1.8,4.144-1.456,6.29a18.589,18.589,0,0,0,.727,2.329,7.331,7.331,0,0,1,.011,4.141,4.229,4.229,0,0,1-1.555,2.368,5.447,5.447,0,0,1-1.837.7,12.7,12.7,0,0,1-4.237.423,5.574,5.574,0,0,1-3.741-1.844c-.609-.742-1.033-1.738-1.931-2.076a3.36,3.36,0,0,0-.968-.16,13.754,13.754,0,0,0-3.806.1c-1.326.286-2.574.965-3.931,1.014a4.3,4.3,0,0,1-2.115-8.134c1.368-.7,3.185-.731,4.083-1.977.754-1.046.516-2.527,1.092-3.679,1-2,3.837-2.132,5.557-3.569,1.666-1.391,2.428-3.466,4.552-4.356A7.359,7.359,0,0,1,1865.919,337.255Z" transform="translate(-1839.922 -335.572)" fill="#00223d"/>
      <path id="Trazado_97107" data-name="Trazado 97107" d="M1863.027,592.335s-2.175,10.567,1.289,12.056,15.107,4.109,15.8,6.24,0,19.514,0,19.514l5.54.164s1.732-19.632,1.57-21.537c-.373-4.381-1.584-5.475-1.584-5.475a8.334,8.334,0,0,1,3.269,5.406c.309,1.68.314,19.832.314,19.832l5.537.163s3.794-24.237-.441-27.569-15.838-8.16-15.838-8.16Z" transform="translate(-1857.54 -550.627)" fill="#167377"/>
      <path id="Trazado_97108" data-name="Trazado 97108" d="M1973.764,503.71l2.548,10.279-3.994.964a35.39,35.39,0,0,1-3.512-8.693C1967.91,502.076,1973.764,503.71,1973.764,503.71Z" transform="translate(-1946.622 -476.135)" fill="#fb9391"/>
      <path id="Trazado_97109" data-name="Trazado 97109" d="M1853.4,434.883s4.442,1.033,6.4,3.615,3.2,8.16,3.2,8.16L1858.775,448s-.207,3.1-2.169,3.925a19.425,19.425,0,0,0,0,8.986s-10.432,3.1-16.837,0l-.517-14.048-3.925-1.653s2.066-8.986,6.921-10.329A18.3,18.3,0,0,1,1853.4,434.883Z" transform="translate(-1834.904 -418.032)" fill="#fff"/>
      <path id="Trazado_97110" data-name="Trazado 97110" d="M1834.082,505.331l5.415,2.136s-1.289,4.418-.874,6.662c.659,3.574,5.6,7.192,8.031,7.037l-.11,2.144s-12.057-.763-13.4-7.528S1834.082,505.331,1834.082,505.331Z" transform="translate(-1832.721 -477.756)" fill="#fb9391"/>
      <path id="Trazado_97111" data-name="Trazado 97111" d="M1972.645,501.93h0a.071.071,0,0,1-.07-.073,7.521,7.521,0,0,0-1.279-3.418.072.072,0,0,1,.119-.081,7.509,7.509,0,0,1,1.3,3.5A.072.072,0,0,1,1972.645,501.93Z" transform="translate(-1948.774 -471.889)" fill="#485f73"/>
      <path id="Trazado_97112" data-name="Trazado 97112" d="M1894.752,522.305a5.907,5.907,0,0,1-3.883-1.592.072.072,0,1,1,.093-.109c3.479,2.976,6.439.777,6.469.754a.072.072,0,0,1,.087.114A4.953,4.953,0,0,1,1894.752,522.305Z" transform="translate(-1881.402 -490.534)" fill="#485f73"/>
      <path id="Trazado_97113" data-name="Trazado 97113" d="M1874.781,492.875a.072.072,0,0,1-.024,0l-.718-.258a.072.072,0,1,1,.048-.135l.647.233,1.584-5.144a.071.071,0,0,1,.09-.047.071.071,0,0,1,.048.089l-1.606,5.216a.071.071,0,0,1-.069.051Z" transform="translate(-1867.288 -462.834)" fill="#485f73"/>
      <path id="Trazado_97114" data-name="Trazado 97114" d="M1988.558,401.609s.667-.481.9-.094c.605.989-.655,1.523-1.3,1.5Z" transform="translate(-1962.915 -390.677)" fill="#ea6868"/>
      <path id="Trazado_97115" data-name="Trazado 97115" d="M1935.86,341.173a5.591,5.591,0,0,0-7.2,5.683,24.151,24.151,0,0,0,.416,5.135,5.563,5.563,0,0,1-.486,4.046l-.272.494a1.132,1.132,0,0,0,.254,1.4,4.056,4.056,0,0,0,2.969,1.184,1.1,1.1,0,0,0,.938-.709l.949-2.518h0c3.441.849,5.293-5.393,5.97-7.19h-.006c.028-.066.056-.133.081-.2A5.592,5.592,0,0,0,1935.86,341.173Z" transform="translate(-1912.674 -340.064)" fill="#fb9391"/>
      <path id="Trazado_97116" data-name="Trazado 97116" d="M1931.127,343.879a23.79,23.79,0,0,0-2.548,1.445,6.043,6.043,0,0,0-2.286,2.041,7.208,7.208,0,0,1-.881-3.269,5.266,5.266,0,0,1,.042-1.578,5.849,5.849,0,0,1,1.022-1.982,6.1,6.1,0,0,1,1.983-2.072,4.648,4.648,0,0,1,1.848-.462,7.867,7.867,0,0,1,4.333.85,5.665,5.665,0,0,1,2.777,3.359c.516,1.851-.087,3.81-.686,5.636a5.656,5.656,0,0,0-.411-2.4,4.787,4.787,0,0,0-.659-1.45,23.518,23.518,0,0,1-1.73-2.034A6.619,6.619,0,0,1,1931.127,343.879Z" transform="translate(-1910.323 -337.587)" fill="#00223d"/>
      <path id="Trazado_97117" data-name="Trazado 97117" d="M1926.462,384.847a.828.828,0,0,0-.268-.523,1.4,1.4,0,0,0-1.487-.408c-.885.4-.235,2.591,1.363,2.227C1926.07,386.143,1926.573,385.915,1926.462,384.847Z" transform="translate(-1909.432 -375.987)" fill="#fb9391"/>
      <path id="Trazado_97118" data-name="Trazado 97118" d="M1981.774,400.535a.488.488,0,1,0-.653.223A.488.488,0,0,0,1981.774,400.535Z" transform="translate(-1956.786 -389.394)" fill="#050521"/>
      <path id="Trazado_97119" data-name="Trazado 97119" d="M1954.371,391.789a.488.488,0,1,0-.653.223A.488.488,0,0,0,1954.371,391.789Z" transform="translate(-1933.834 -382.068)" fill="#050521"/>
      <path id="Trazado_97120" data-name="Trazado 97120" d="M1958.194,415.348s-.3-.415-.562-.424a.726.726,0,0,0-.479.237.564.564,0,0,0-.34-.427,7.026,7.026,0,0,0-1.169-.129s.362,1.468,1.294,1.525a1.224,1.224,0,0,0,1.231-.744Z" transform="translate(-1935.677 -401.767)" fill="#dd4e4e"/>
      <path id="Trazado_97121" data-name="Trazado 97121" d="M1956.029,414.21a2.887,2.887,0,0,1-1.8-1.151.068.068,0,0,1,.017-.1.069.069,0,0,1,.1.017c.048.069,1.192,1.681,2.68.882a.069.069,0,0,1,.065.121A1.827,1.827,0,0,1,1956.029,414.21Z" transform="translate(-1934.48 -400.382)" fill="#050521"/>
      <path id="Trazado_97122" data-name="Trazado 97122" d="M1950.79,386.767a.2.2,0,0,1,.025-.381,2.436,2.436,0,0,1,1.618.181.2.2,0,0,1,.093.272.208.208,0,0,1-.271.093,2.028,2.028,0,0,0-1.327-.155A.2.2,0,0,1,1950.79,386.767Z" transform="translate(-1931.509 -378.079)" fill="#0b0755"/>
      <path id="Trazado_97123" data-name="Trazado 97123" d="M1980.573,394.721a.2.2,0,0,1,.093-.37,2.409,2.409,0,0,1,1.559.468.2.2,0,0,1-.241.326,2.019,2.019,0,0,0-1.278-.391A.2.2,0,0,1,1980.573,394.721Z" transform="translate(-1956.481 -384.799)" fill="#0b0755"/>
      <path id="Trazado_97124" data-name="Trazado 97124" d="M1964.823,397.475a1.2,1.2,0,0,1-.479-.111.072.072,0,1,1,.057-.132c.636.277.907-.1.966-.206a2.738,2.738,0,0,1,.136-1.777.072.072,0,0,1,.131.06,2.616,2.616,0,0,0-.122,1.7.072.072,0,0,1,0,.053A.775.775,0,0,1,1964.823,397.475Z" transform="translate(-1942.927 -385.521)" fill="#ea6868"/>
      <path id="Trazado_97125" data-name="Trazado 97125" d="M1917.818,602.428a2.635,2.635,0,0,0,1.181.363c.662.029,2.62-.15,2.937-.1a15.428,15.428,0,0,0,2.195.582c.3-.073-1.5-1.164-1.5-1.164s1.673.714,1.887.455-1.513-1.18-1.513-1.18,1.7.518,1.814.23-1.526-.806-1.526-.806,1.555.23,1.641,0-2.159-1.065-3.109-1.008-3.892.488-3.892.488Z" transform="translate(-1903.995 -556.874)" fill="#fb9391"/>
      <path id="Trazado_97126" data-name="Trazado 97126" d="M1970.568,845.9c-.253.956-.484,1.731-.557,2.1-.207,1.033,8.987,5.681,9.813,4.854.613-.613-.99-2.476-2.492-4.282C1976.488,849.1,1974.347,849.662,1970.568,845.9Z" transform="translate(-1947.707 -762.999)" fill="#060633"/>
      <g id="Grupo_46678" data-name="Grupo 46678" transform="translate(9.513 34.931)">
        <path id="Trazado_97127" data-name="Trazado 97127" d="M1969.431,552.218l-18.212-1.605-6.885,12.821,18.212,1.6Z" transform="translate(-1935.717 -550.612)" fill="#060633"/>
        <rect id="Rectángulo_28398" data-name="Rectángulo 28398" width="12.24" height="0.809" transform="translate(0.071 11.256) rotate(5.037)" fill="#060633"/>
      </g>
      <g id="Grupo_46679" data-name="Grupo 46679" transform="translate(16.553 7.738)">
        <path id="Trazado_97128" data-name="Trazado 97128" d="M1946.256,386.32a1.645,1.645,0,1,1,2.333-1.067h0a1.646,1.646,0,0,1-2.333,1.067Zm1.43-2.85a1.544,1.544,0,0,0-2.187,1,1.543,1.543,0,1,0,2.993.755h0A1.546,1.546,0,0,0,1947.686,383.47Z" transform="translate(-1943.607 -383.206)" fill="#060633"/>
        <path id="Trazado_97129" data-name="Trazado 97129" d="M1974.631,394.81a1.645,1.645,0,1,1,2.334-1.068h0a1.644,1.644,0,0,1-2,1.192A1.67,1.67,0,0,1,1974.631,394.81Zm1.433-2.849a1.574,1.574,0,0,0-.316-.117,1.544,1.544,0,1,0,1.119,1.874h0a1.545,1.545,0,0,0-.8-1.757Z" transform="translate(-1967.373 -390.316)" fill="#060633"/>
        <path id="Trazado_97130" data-name="Trazado 97130" d="M1934.621,385.377l.036-.094,1.867.7-.036.094Z" transform="translate(-1934.621 -384.945)" fill="#060633"/>
        <path id="Trazado_97131" data-name="Trazado 97131" d="M1964.54,396.4l-.026-.1a1.449,1.449,0,0,1,1.627.467l-.085.055A1.327,1.327,0,0,0,1964.54,396.4Z" transform="translate(-1959.658 -394.113)" fill="#060633"/>
      </g>
      <path id="Trazado_97132" data-name="Trazado 97132" d="M2023.707,591.445a.594.594,0,1,1,.4.8A.633.633,0,0,1,2023.707,591.445Z" transform="translate(-1992.662 -549.45)" fill="#fff"/>
    </g>
    <g id="Grupo_172821" data-name="Grupo 172821" transform="translate(-5656.984 2770.212)">
      <path id="Trazado_97141" data-name="Trazado 97141" d="M1669.39,893.412c0-10.961-9.622-19.847-21.492-19.847s-21.492,8.886-21.492,19.847a19.009,19.009,0,0,0,5.949,13.707,17.109,17.109,0,0,1,5.259,12.293h0a6.8,6.8,0,0,0,6.8,6.8h6.96a6.8,6.8,0,0,0,6.8-6.8h0a17.111,17.111,0,0,1,5.259-12.293A19.009,19.009,0,0,0,1669.39,893.412Z" transform="translate(-1626.406 -873.565)" fill="#f6c343"/>
      <path id="Trazado_97142" data-name="Trazado 97142" d="M1780.6,1013.278a.254.254,0,0,1-.253-.239c-.118-2.212,3.235-36.778,3.378-38.248a.253.253,0,0,1,.5.049c-.035.36-3.493,36-3.376,38.172a.253.253,0,0,1-.239.266Z" transform="translate(-1755.34 -958.156)" fill="#060633"/>
      <path id="Trazado_97143" data-name="Trazado 97143" d="M1715.607,1013.278h-.014a.254.254,0,0,1-.24-.266c.117-2.174-3.341-37.812-3.376-38.172a.253.253,0,0,1,.5-.049c.143,1.47,3.5,36.036,3.378,38.248A.253.253,0,0,1,1715.607,1013.278Z" transform="translate(-1698.076 -958.156)" fill="#060633"/>
      <path id="Trazado_97144" data-name="Trazado 97144" d="M1721.526,989.646a3.132,3.132,0,0,1-1.9-.669,2.114,2.114,0,0,1-1.425.425,2.5,2.5,0,0,1-1.852-1.317,20.215,20.215,0,0,1-1.145-3.649.126.126,0,1,1,.247-.053,20.25,20.25,0,0,0,1.116,3.575,2.249,2.249,0,0,0,1.656,1.192,1.85,1.85,0,0,0,1.2-.341l0,0a4.857,4.857,0,0,1-1.4-2.883,3.807,3.807,0,0,1,.4-2.627,1.532,1.532,0,0,1,.693-.638,1.481,1.481,0,0,1,1.764.824,3.731,3.731,0,0,1,.217,1.985,6.228,6.228,0,0,1-.644,2.588,2.965,2.965,0,0,1-.627.76,2.66,2.66,0,0,0,2.573.4,2.4,2.4,0,0,0,.888-.668,1.878,1.878,0,0,1-.734-.788,3.07,3.07,0,0,1-.243-1.178,10.768,10.768,0,0,1,.379-3.466.127.127,0,0,1,.083-.087.947.947,0,0,1,1,.386,2.315,2.315,0,0,1,.36.975,6.965,6.965,0,0,1,.074,2.829,3.61,3.61,0,0,1-.539,1.244,2.1,2.1,0,0,0,1.424.077,2.444,2.444,0,0,0,.729-.372,3.773,3.773,0,0,1-.376-.77,7.689,7.689,0,0,1,.153-5.558.125.125,0,0,1,.075-.07,1.253,1.253,0,0,1,1.4.578,3.051,3.051,0,0,1,.387,1.456,7.009,7.009,0,0,1-.276,2.9,3.65,3.65,0,0,1-1.009,1.508,1.287,1.287,0,0,0,.879.527,1.32,1.32,0,0,0,.754-.194,1.841,1.841,0,0,0,.859-1.82.126.126,0,1,1,.25-.04,2.074,2.074,0,0,1-.98,2.079,1.541,1.541,0,0,1-.9.228,1.522,1.522,0,0,1-1.058-.619,2.7,2.7,0,0,1-.8.41,2.352,2.352,0,0,1-1.653-.114,2.673,2.673,0,0,1-1.017.78A2.5,2.5,0,0,1,1721.526,989.646Zm-1.982-6.816a.84.84,0,0,0-.323.063,1.292,1.292,0,0,0-.575.538,3.616,3.616,0,0,0-.365,2.455,4.607,4.607,0,0,0,1.317,2.733l.038.034a2.714,2.714,0,0,0,.605-.724,6.006,6.006,0,0,0,.611-2.483,3.533,3.533,0,0,0-.192-1.853A1.348,1.348,0,0,0,1719.545,982.829Zm3.376.429a10.533,10.533,0,0,0-.351,3.315,2.86,2.86,0,0,0,.219,1.082,1.64,1.64,0,0,0,.661.7,3.341,3.341,0,0,0,.52-1.187,6.725,6.725,0,0,0-.076-2.724,2.112,2.112,0,0,0-.313-.872A.737.737,0,0,0,1722.92,983.258Zm2.9-1.261a7.44,7.44,0,0,0-.124,5.319,3.446,3.446,0,0,0,.338.693,3.408,3.408,0,0,0,.918-1.388,6.768,6.768,0,0,0,.262-2.794,2.84,2.84,0,0,0-.346-1.338A1.033,1.033,0,0,0,1725.818,982Z" transform="translate(-1700.78 -964.151)" fill="#060633"/>
      <path id="Rectángulo_28443" data-name="Rectángulo 28443" d="M0,0H17.276a0,0,0,0,1,0,0V0A4.936,4.936,0,0,1,12.34,4.936h-7.4A4.936,4.936,0,0,1,0,0V0A0,0,0,0,1,0,0Z" transform="translate(12.854 58.615)" fill="url(#linear-gradient)"/>
      <path id="Trazado_97145" data-name="Trazado 97145" d="M1708.344,1224.6a35.41,35.41,0,0,1-9.9-1.543,1.645,1.645,0,1,1,1.021-3.128c.152.048,9.542,3.027,15.412.092a1.645,1.645,0,1,1,1.471,2.943A18,18,0,0,1,1708.344,1224.6Z" transform="translate(-1685.789 -1163.594)" fill="#00223d"/>
      <path id="Trazado_97146" data-name="Trazado 97146" d="M1708.344,1208.136a35.413,35.413,0,0,1-9.9-1.544,1.645,1.645,0,1,1,1.021-3.128c.152.049,9.542,3.028,15.412.092a1.645,1.645,0,1,1,1.471,2.943A18,18,0,0,1,1708.344,1208.136Z" transform="translate(-1685.789 -1149.807)" fill="url(#linear-gradient)"/>
      <path id="Trazado_97147" data-name="Trazado 97147" d="M1708.344,1191.678a35.4,35.4,0,0,1-9.9-1.544,1.645,1.645,0,0,1,1.021-3.128c.152.049,9.542,3.028,15.412.093a1.645,1.645,0,1,1,1.471,2.943A18,18,0,0,1,1708.344,1191.678Z" transform="translate(-1685.789 -1136.022)" fill="#00223d"/>
    </g>
  </g>
</svg>
