<svg xmlns="http://www.w3.org/2000/svg" xmlns:xlink="http://www.w3.org/1999/xlink" width="330.408" height="260.619" viewBox="0 0 330.408 260.619">
  <defs>
    <linearGradient id="linear-gradient" x1="-9.821" y1="37.787" x2="-10.121" y2="42.527" gradientUnits="objectBoundingBox">
      <stop offset="0" stop-color="#fff"/>
      <stop offset="1" stop-color="#d3d3d3"/>
    </linearGradient>
    <linearGradient id="linear-gradient-2" x1="-15.559" y1="26.047" x2="-16.001" y2="29.266" xlink:href="#linear-gradient"/>
    <linearGradient id="linear-gradient-3" x1="0.5" y1="0" x2="0.5" y2="1" xlink:href="#linear-gradient"/>
    <linearGradient id="linear-gradient-16" y1="0.5" x2="1" y2="0.5" gradientUnits="objectBoundingBox">
      <stop offset="0" stop-color="#ff928e"/>
      <stop offset="1" stop-color="#feb3b1"/>
    </linearGradient>
    <linearGradient id="linear-gradient-18" x1="-0.326" y1="-0.124" x2="1.85" y2="1.295" xlink:href="#linear-gradient-16"/>
    <linearGradient id="linear-gradient-19" x1="-0.947" y1="-1.256" x2="0.878" y2="1.192" xlink:href="#linear-gradient-16"/>
    <linearGradient id="linear-gradient-20" x1="0.307" y1="-0.628" x2="0.574" y2="0.921" xlink:href="#linear-gradient-16"/>
    <linearGradient id="linear-gradient-21" x1="-0.056" y1="-1.268" x2="0.49" y2="0.682" xlink:href="#linear-gradient-16"/>
    <linearGradient id="linear-gradient-22" x1="0.008" y1="-0.063" x2="0.866" y2="0.877" xlink:href="#linear-gradient-16"/>
    <linearGradient id="linear-gradient-23" x1="2.695" y1="-7.847" x2="3.743" y2="-7.847" gradientUnits="objectBoundingBox">
      <stop offset="0" stop-color="#020039"/>
      <stop offset="1" stop-color="#090056"/>
    </linearGradient>
    <linearGradient id="linear-gradient-24" x1="0.203" y1="-0.879" x2="1.071" y2="2.854" xlink:href="#linear-gradient-16"/>
    <linearGradient id="linear-gradient-25" x1="24.395" y1="0.5" x2="25.395" y2="0.5" xlink:href="#linear-gradient-16"/>
    <linearGradient id="linear-gradient-26" x1="19.747" y1="0.5" x2="20.747" y2="0.5" xlink:href="#linear-gradient-16"/>
    <linearGradient id="linear-gradient-27" x1="0.196" y1="-0.419" x2="0.467" y2="0.28" xlink:href="#linear-gradient-16"/>
    <linearGradient id="linear-gradient-28" x1="0.291" y1="0.086" x2="1.1" y2="1.572" xlink:href="#linear-gradient-16"/>
    <linearGradient id="linear-gradient-29" x1="1.523" y1="1.716" x2="-0.353" y2="-0.451" xlink:href="#linear-gradient-16"/>
    <linearGradient id="linear-gradient-30" x1="2.433" y1="0.5" x2="3.433" y2="0.5" xlink:href="#linear-gradient-16"/>
    <linearGradient id="linear-gradient-31" x1="11.544" y1="0.5" x2="12.544" y2="0.5" xlink:href="#linear-gradient-16"/>
    <linearGradient id="linear-gradient-32" x1="0.401" y1="0.177" x2="0.592" y2="0.993" xlink:href="#linear-gradient-16"/>
    <linearGradient id="linear-gradient-33" x1="-0.006" y1="-0.626" x2="0.554" y2="0.648" xlink:href="#linear-gradient-16"/>
    <linearGradient id="linear-gradient-34" x1="-358.804" y1="-135.006" x2="-359.748" y2="-139.653" xlink:href="#linear-gradient-16"/>
    <linearGradient id="linear-gradient-35" x1="0" y1="0.5" x2="1" y2="0.5" xlink:href="#linear-gradient"/>
  </defs>
  <g id="Grupo_54463" data-name="Grupo 54463" transform="translate(-224.149 -110.105)">
    <g id="Grupo_54423" data-name="Grupo 54423" transform="translate(252.173 110.105)">
      <g id="Grupo_54421" data-name="Grupo 54421" transform="translate(0 19.155)">
        <circle id="Elipse_4092" data-name="Elipse 4092" cx="54.394" cy="54.394" r="54.394" fill="#aee6e6"/>
        <g id="Grupo_54418" data-name="Grupo 54418" transform="translate(5.646 5.646)">
          <circle id="Elipse_4093" data-name="Elipse 4093" cx="46.423" cy="46.423" r="46.423" transform="translate(2.325 2.325)" fill="#aee6e6"/>
          <path id="Trazado_116689" data-name="Trazado 116689" d="M495.322,342.9a48.748,48.748,0,1,1,48.748-48.748A48.8,48.8,0,0,1,495.322,342.9Zm0-92.846a44.1,44.1,0,1,0,44.1,44.1A44.148,44.148,0,0,0,495.322,250.053Z" transform="translate(-446.574 -245.403)" fill="#fff"/>
        </g>
        <g id="Grupo_54419" data-name="Grupo 54419" transform="translate(14.369 14.369)">
          <circle id="Elipse_4094" data-name="Elipse 4094" cx="28.302" cy="28.302" r="28.302" transform="translate(0 40.025) rotate(-45)" fill="#aee6e6"/>
          <path id="Trazado_116690" data-name="Trazado 116690" d="M576.062,405.514a30.627,30.627,0,1,1,30.627-30.627A30.661,30.661,0,0,1,576.062,405.514Zm0-56.6a25.976,25.976,0,1,0,25.976,25.976A26.006,26.006,0,0,0,576.062,348.911Z" transform="translate(-536.037 -334.863)" fill="#fff"/>
        </g>
        <g id="Grupo_54420" data-name="Grupo 54420" transform="translate(41.104 41.104)">
          <circle id="Elipse_4095" data-name="Elipse 4095" cx="10.965" cy="10.965" r="10.965" transform="matrix(0.23, -0.973, 0.973, 0.23, 0.099, 21.442)" fill="#aee6e6"/>
          <path id="Trazado_116691" data-name="Trazado 116691" d="M653.3,465.421a13.29,13.29,0,1,1,13.29-13.29A13.305,13.305,0,0,1,653.3,465.421Zm0-21.93a8.64,8.64,0,1,0,8.64,8.64A8.65,8.65,0,0,0,653.3,443.491Z" transform="translate(-640.013 -438.841)" fill="#fff"/>
        </g>
      </g>
      <g id="Grupo_54422" data-name="Grupo 54422" transform="translate(54.168 0)">
        <rect id="Rectángulo_29389" data-name="Rectángulo 29389" width="2.073" height="78.507" transform="translate(12.12 64.416) rotate(-135.001)" fill="#3c4973"/>
        <path id="Trazado_116692" data-name="Trazado 116692" d="M722.977,433.7c.841-.841,4.806,3.124,3.965,3.965L712.236,449.23a.584.584,0,0,1-.82-.82Z" transform="translate(-711.285 -374.293)" fill="#00223d"/>
        <path id="Trazado_116693" data-name="Trazado 116693" d="M1010.755,158.845l7.468.742-10.252,10.253A15.85,15.85,0,0,1,995.2,174.4h0Z" transform="translate(-943.154 -149.911)" fill="url(#linear-gradient)"/>
        <path id="Trazado_116694" data-name="Trazado 116694" d="M1002.41,117.573l-.742-7.468-10.252,10.252a15.849,15.849,0,0,0-4.565,12.775h0Z" transform="translate(-936.275 -110.105)" fill="url(#linear-gradient-2)"/>
      </g>
    </g>
    <g id="Grupo_54434" data-name="Grupo 54434" transform="translate(251.038 152.228)">
      <path id="Trazado_116727" data-name="Trazado 116727" d="M1455.364,529.106l57.064-109.323h-11.692a2.554,2.554,0,0,1-1.974-4.173l60.819-74.126a4.289,4.289,0,0,1,7.6,2.973l-4.275,72.486a7.242,7.242,0,0,1-8.054,6.77l-8.151-.933L1490.08,545.4a9.016,9.016,0,0,1-8.185,5.236h-19.623Z" transform="translate(-1263.669 -339.905)" fill="#167377"/>
      <path id="Trazado_116728" data-name="Trazado 116728" d="M1197.978,884.98l40.286,89.491a14.775,14.775,0,0,0,13.472,8.709H1272.5a7.583,7.583,0,0,0,6.631-3.9l.739-1.331h0a5.938,5.938,0,0,1-5.289-3.239l-53.677-105.171Z" transform="translate(-1053.463 -772.451)" fill="#167377"/>
      <path id="Trazado_116729" data-name="Trazado 116729" d="M869.485,833.842h0a8.811,8.811,0,0,0-12.795,2.033l-59.232,88.991a25.587,25.587,0,0,1-21.3,11.41h-8.334l-6.783-19.54s55.065-84.433,69.258-97.2c0,0,14.134-12.738,28.07-3.107a23.258,23.258,0,0,1,8.184,10.313Z" transform="translate(-696.617 -726.136)" fill="#167377"/>
      <path id="Trazado_116730" data-name="Trazado 116730" d="M409.586,1029.215s9.915-12.393,29.128-14.321c0,0,9.125,3.109,27.305,35.685s30.247,47.431,44.408,39.318l-1.172,1.946a21.355,21.355,0,0,1-18.293,10.337H483.13a26.791,26.791,0,0,1-21.753-11.145C447.228,1071.365,418.278,1032.269,409.586,1029.215Z" transform="translate(-409.586 -891.166)" fill="#167377"/>
      <path id="Trazado_116731" data-name="Trazado 116731" d="M2025.1,468.736a.634.634,0,0,1-.631-.706l.4-3.539a.634.634,0,0,1,1.26.143l-.4,3.539A.633.633,0,0,1,2025.1,468.736Z" transform="translate(-1728.455 -441.195)" fill="#fff" opacity="0.3"/>
      <path id="Trazado_116732" data-name="Trazado 116732" d="M1748.134,434.8a.634.634,0,0,1-.5-1.021l50.221-65.256a2.175,2.175,0,0,1,3.885,1.572l-.886,7.822a.634.634,0,1,1-1.26-.143l.886-7.822a.907.907,0,0,0-1.62-.655l-50.222,65.256A.633.633,0,0,1,1748.134,434.8Z" transform="translate(-1502.256 -362.584)" fill="#fff" opacity="0.3"/>
      <path id="Trazado_116733" data-name="Trazado 116733" d="M1126.581,922.036a.635.635,0,0,1-.525-.989l25.973-38.5a4.647,4.647,0,0,1,8.053.611.634.634,0,1,1-1.146.542,3.379,3.379,0,0,0-5.855-.444l-25.973,38.5A.633.633,0,0,1,1126.581,922.036Z" transform="translate(-994.636 -781.406)" fill="#fff" opacity="0.3"/>
      <path id="Trazado_116734" data-name="Trazado 116734" d="M1089.759,1145.031a.634.634,0,0,1-.525-.989l1.666-2.469a.634.634,0,0,1,1.051.71l-1.665,2.468A.634.634,0,0,1,1089.759,1145.031Z" transform="translate(-964.564 -994.397)" fill="#fff" opacity="0.3"/>
    </g>
    <g id="Grupo_54435" data-name="Grupo 54435" transform="translate(416.768 132.959)">
      <path id="Trazado_116735" data-name="Trazado 116735" d="M1314.078,239.015a1.588,1.588,0,0,1,1.329-.525l51.979,4.77v-7.337a1.1,1.1,0,0,1,1.5-1.066l34.513,13.25a1.142,1.142,0,0,1-.006,2.131l-34.522,13.25a1.077,1.077,0,0,1-1.023-.125,1.112,1.112,0,0,1-.462-.941v-4.636l-46.051,2.14a3.274,3.274,0,0,1-3.328-2.469l-4.243-17.083A1.52,1.52,0,0,1,1314.078,239.015Z" transform="translate(-1313.717 -234.782)" fill="#7d6eb2"/>
      <path id="Trazado_116736" data-name="Trazado 116736" d="M1647.31,263.055a.63.63,0,0,1-.221-.04l-27.042-10.074a.591.591,0,0,0-.5.095.607.607,0,0,0-.247.454V258.7a.634.634,0,1,1-1.268,0V253.49a1.875,1.875,0,0,1,.793-1.5,1.837,1.837,0,0,1,1.663-.24l27.041,10.073a.634.634,0,0,1-.221,1.229Z" transform="translate(-1562.252 -248.559)" fill="#fff" opacity="0.5"/>
      <path id="Trazado_116737" data-name="Trazado 116737" d="M1582.861,289.146a.671.671,0,0,1-.1-.008l-2.789-.456a.634.634,0,0,1,.2-1.252l2.789.456a.634.634,0,0,1-.1,1.26Z" transform="translate(-1530.729 -277.772)" fill="#fff" opacity="0.5"/>
    </g>
    <g id="Grupo_54436" data-name="Grupo 54436" transform="translate(367.89 169.738)">
      <path id="Trazado_116738" data-name="Trazado 116738" d="M1144.392,440a1.707,1.707,0,0,0-1.431-.567l-56.177,5.156v-7.931a1.192,1.192,0,0,0-1.629-1.152l-37.3,14.321a1.234,1.234,0,0,0,.006,2.3l37.313,14.321a1.172,1.172,0,0,0,1.11-.135,1.206,1.206,0,0,0,.5-1.017v-5.01l49.77,2.313a3.537,3.537,0,0,0,3.595-2.669l4.585-18.465A1.643,1.643,0,0,0,1144.392,440Z" transform="translate(-1047.062 -435.428)" fill="#12263f"/>
      <path id="Trazado_116739" data-name="Trazado 116739" d="M1075.269,466.2a.634.634,0,0,1-.221-1.229l29.276-10.895a1.786,1.786,0,0,1,1.678.251,1.89,1.89,0,0,1,.763,1.572v5.654a.634.634,0,1,1-1.268,0V455.9a.653.653,0,0,0-.218-.53.513.513,0,0,0-.511-.105l-29.278,10.9A.631.631,0,0,1,1075.269,466.2Z" transform="translate(-1069.58 -450.569)" fill="#fff" opacity="0.5"/>
      <path id="Trazado_116740" data-name="Trazado 116740" d="M1269.945,494.365a.634.634,0,0,1-.1-1.26l3.015-.493a.634.634,0,0,1,.2,1.252l-3.015.493A.631.631,0,0,1,1269.945,494.365Z" transform="translate(-1228.572 -482.123)" fill="#fff" opacity="0.5"/>
    </g>
    <g id="Grupo_54440" data-name="Grupo 54440" transform="translate(408.708 231.613)">
      <path id="Trazado_116741" data-name="Trazado 116741" d="M1271.878,773.412l97.976-.428a1.68,1.68,0,0,1,1.694,1.689l-.209,34.294a1.678,1.678,0,0,1-1.727,1.669c-8.639-.258-97.19-1.394-98.883-1.323-1.673.07-.764-27.013-.515-34.28A1.679,1.679,0,0,1,1271.878,773.412Z" transform="translate(-1269.744 -772.984)" fill="#00223d"/>
      <path id="Trazado_116742" data-name="Trazado 116742" d="M1375.331,815.041h-.013c-5.524-.165-58.473-.826-83.919-1.143-7.406-.093-12.662-.158-14.066-.178l-.175,0-.03-.172c-.6-3.394-.592-14.732.029-32.79a.4.4,0,0,1,.4-.39l97.977-.429a.4.4,0,0,1,.29.119.4.4,0,0,1,.117.288l-.209,34.294A.4.4,0,0,1,1375.331,815.041Zm-97.816-1.741c1.63.022,6.764.086,13.889.175,25.447.318,78.4.978,83.927,1.143h.007l.182-34.277-97.959.447C1276.97,798.5,1276.948,809.734,1277.515,813.3Z" transform="translate(-1275.412 -778.663)" fill="#56f"/>
      <path id="Trazado_116743" data-name="Trazado 116743" d="M1304.257,816.156h0c0,.927.309,1.679.691,1.679h37.53c.381,0,.691-.752.691-1.679h0c0-.927-.31-1.679-.691-1.679h-37.53C1304.566,814.477,1304.257,815.229,1304.257,816.156Z" transform="translate(-1297.931 -806.871)" fill="url(#linear-gradient-3)"/>
      <path id="Trazado_116744" data-name="Trazado 116744" d="M1304.257,847.385h0c0,.927.309,1.679.691,1.679h37.53c.381,0,.691-.752.691-1.679h0c0-.927-.31-1.679-.691-1.679h-37.53C1304.566,845.706,1304.257,846.458,1304.257,847.385Z" transform="translate(-1297.931 -832.376)" fill="url(#linear-gradient-3)"/>
      <path id="Trazado_116745" data-name="Trazado 116745" d="M1304.257,878.615h0c0,.927.309,1.679.691,1.679h37.53c.381,0,.691-.752.691-1.679h0c0-.928-.31-1.679-.691-1.679h-37.53C1304.566,876.936,1304.257,877.688,1304.257,878.615Z" transform="translate(-1297.931 -857.881)" fill="url(#linear-gradient-3)"/>
      <path id="Trazado_116746" data-name="Trazado 116746" d="M1304.257,909.844h0c0,.927.309,1.679.691,1.679h37.53c.381,0,.691-.752.691-1.679h0c0-.927-.31-1.679-.691-1.679h-37.53C1304.566,908.165,1304.257,908.917,1304.257,909.844Z" transform="translate(-1297.931 -883.386)" fill="url(#linear-gradient-3)"/>
      <g id="Grupo_54439" data-name="Grupo 54439" transform="translate(46.217 1.314)">
        <circle id="Elipse_4096" data-name="Elipse 4096" cx="6.528" cy="6.528" r="6.528" transform="translate(0 12.687) rotate(-67.5)" fill="url(#linear-gradient-3)"/>
        <circle id="Elipse_4097" data-name="Elipse 4097" cx="6.528" cy="6.528" r="6.528" transform="translate(15.6 7.955) rotate(-37.534)" fill="url(#linear-gradient-3)"/>
        <circle id="Elipse_4098" data-name="Elipse 4098" cx="6.528" cy="6.528" r="6.528" transform="translate(33.402 4.094) rotate(-10.162)" fill="url(#linear-gradient-3)"/>
        <g id="Grupo_54437" data-name="Grupo 54437" transform="translate(3.274 4.112)">
          <path id="Trazado_116747" data-name="Trazado 116747" d="M1548.875,806.248a4.193,4.193,0,1,1-3.879-2.6q.106,0,.212.005V802.59c-.07,0-.141,0-.212,0a5.253,5.253,0,1,0,4.854,3.238Z" transform="translate(-1539.741 -802.586)" fill="#00223d"/>
          <path id="Trazado_116748" data-name="Trazado 116748" d="M1635.357,811.389a4.193,4.193,0,1,1-2.234-7.741c.071,0,.141,0,.212.005V802.59c-.07,0-.141,0-.212,0a5.256,5.256,0,1,0,2.761,9.728Z" transform="translate(-1611.713 -802.586)" fill="#00223d"/>
          <path id="Trazado_116749" data-name="Trazado 116749" d="M1725.664,810.2a4.193,4.193,0,1,1-3.468-6.551q.107,0,.212.005V802.59c-.07,0-.141,0-.212,0a5.256,5.256,0,1,0,4.329,8.236Z" transform="translate(-1684.459 -802.586)" fill="#00223d"/>
        </g>
        <g id="Grupo_54438" data-name="Grupo 54438" transform="translate(2.001 18.448)">
          <path id="Trazado_116750" data-name="Trazado 116750" d="M1544.645,880.793h-10.639a1.209,1.209,0,0,0,0,2.418h10.639a1.209,1.209,0,1,0,0-2.418Z" transform="translate(-1532.797 -880.793)" fill="url(#linear-gradient-3)"/>
          <path id="Trazado_116751" data-name="Trazado 116751" d="M1633.158,880.793H1622.52a1.209,1.209,0,1,0,0,2.418h10.638a1.209,1.209,0,1,0,0-2.418Z" transform="translate(-1605.086 -880.793)" fill="url(#linear-gradient-3)"/>
          <path id="Trazado_116752" data-name="Trazado 116752" d="M1711.034,883.211h10.638a1.209,1.209,0,0,0,0-2.418h-10.638a1.209,1.209,0,1,0,0,2.418Z" transform="translate(-1677.375 -880.793)" fill="url(#linear-gradient-3)"/>
          <rect id="Rectángulo_29390" data-name="Rectángulo 29390" width="13.057" height="9.538" rx="2" transform="translate(0 3.762)" fill="url(#linear-gradient-3)"/>
          <rect id="Rectángulo_29391" data-name="Rectángulo 29391" width="13.057" height="9.538" rx="2" transform="translate(16.225 3.762)" fill="url(#linear-gradient-3)"/>
          <rect id="Rectángulo_29392" data-name="Rectángulo 29392" width="13.057" height="9.538" rx="2" transform="translate(32.45 3.762)" fill="url(#linear-gradient-3)"/>
        </g>
      </g>
    </g>
    <g id="Grupo_54441" data-name="Grupo 54441" transform="translate(339.311 185.081)">
      <path id="Trazado_116753" data-name="Trazado 116753" d="M1581.633,519.137q1.258.229,2.505.519a.423.423,0,0,1-.193.823q-1.223-.287-2.463-.51a.423.423,0,0,1,.151-.832Z" transform="translate(-1454.659 -519.13)" fill="#fff"/>
      <path id="Trazado_116754" data-name="Trazado 116754" d="M1621.331,529.944a19.752,19.752,0,0,1,4.493,2.41.422.422,0,0,1-.5.68h0a18.909,18.909,0,0,0-4.3-2.3.423.423,0,0,1,.309-.787Z" transform="translate(-1487.015 -527.938)" fill="#fff"/>
      <path id="Trazado_116755" data-name="Trazado 116755" d="M1662.889,563.694a7.565,7.565,0,0,1,.611,2.563,8.6,8.6,0,0,1-.26,2.607.422.422,0,0,1-.819-.206,7.739,7.739,0,0,0,.236-2.351,6.713,6.713,0,0,0-.543-2.278.422.422,0,1,1,.775-.335Z" transform="translate(-1520.766 -555.318)" fill="#fff"/>
      <path id="Trazado_116756" data-name="Trazado 116756" d="M1637.038,615.072a22.283,22.283,0,0,1-3.53,3.665.422.422,0,1,1-.542-.647h0a21.468,21.468,0,0,0,3.395-3.524.422.422,0,0,1,.677.505Z" transform="translate(-1496.867 -596.934)" fill="#fff"/>
      <path id="Trazado_116757" data-name="Trazado 116757" d="M1591.116,650.41a34.914,34.914,0,0,1-4.543,2.225.422.422,0,0,1-.316-.782,34.114,34.114,0,0,0,4.433-2.172.422.422,0,0,1,.426.728Z" transform="translate(-1458.627 -625.704)" fill="#fff"/>
      <path id="Trazado_116758" data-name="Trazado 116758" d="M1539.5,671.708q-2.391.777-4.823,1.41a.422.422,0,0,1-.214-.816q2.409-.631,4.777-1.4a.421.421,0,0,1,.26.8Z" transform="translate(-1416.285 -643.068)" fill="#fff"/>
      <path id="Trazado_116759" data-name="Trazado 116759" d="M1486.2,685.617q-2.457.516-4.932.928a.421.421,0,1,1-.14-.831q2.459-.413,4.9-.922a.421.421,0,0,1,.173.825Z" transform="translate(-1372.696 -654.419)" fill="#fff"/>
      <path id="Trazado_116760" data-name="Trazado 116760" d="M1432.132,694.735l-4.975.606a.421.421,0,1,1-.1-.836h.01l4.954-.6h.01a.421.421,0,0,1,.1.836Z" transform="translate(-1328.52 -661.861)" fill="#fff"/>
      <path id="Trazado_116761" data-name="Trazado 116761" d="M1377.819,700.785l-4.986.439a.421.421,0,0,1-.074-.838h0l4.979-.439h0a.421.421,0,1,1,.074.838Z" transform="translate(-1284.165 -666.801)" fill="#fff"/>
      <path id="Trazado_116762" data-name="Trazado 116762" d="M1323.427,705.432c-1.664.127-3.312.31-4.969.463h-.014a.42.42,0,1,1-.078-.837c1.663-.154,3.33-.338,4.991-.466h.005a.421.421,0,0,1,.064.839Z" transform="translate(-1239.746 -670.596)" fill="#fff"/>
      <path id="Trazado_116763" data-name="Trazado 116763" d="M1269.471,711.446q-2.466.365-4.915.828a.42.42,0,0,1-.157-.826q2.466-.468,4.949-.833a.42.42,0,1,1,.123.831Z" transform="translate(-1195.703 -675.511)" fill="#fff"/>
      <path id="Trazado_116764" data-name="Trazado 116764" d="M1216.319,721.633q-2.425.571-4.821,1.254a.42.42,0,1,1-.231-.808q2.414-.69,4.859-1.264a.42.42,0,0,1,.192.818Z" transform="translate(-1152.341 -683.836)" fill="#fff"/>
      <path id="Trazado_116765" data-name="Trazado 116765" d="M1164.6,736.65q-2.356.805-4.665,1.737a.42.42,0,0,1-.315-.778q2.33-.942,4.708-1.753a.42.42,0,0,1,.272.794Z" transform="translate(-1110.197 -696.111)" fill="#fff"/>
      <path id="Trazado_116766" data-name="Trazado 116766" d="M1115.137,757.1q-2.249,1.065-4.429,2.266a.419.419,0,0,1-.405-.735q2.2-1.214,4.475-2.29a.42.42,0,0,1,.359.759Z" transform="translate(-1069.955 -712.828)" fill="#fff"/>
      <path id="Trazado_116767" data-name="Trazado 116767" d="M1068.917,783.441q-2.1,1.339-4.1,2.817a.419.419,0,0,1-.5-.675q2.024-1.494,4.145-2.849a.419.419,0,1,1,.452.707Z" transform="translate(-1032.44 -734.361)" fill="#fff"/>
      <path id="Trazado_116768" data-name="Trazado 116768" d="M1027,815.808q-1.894,1.611-3.673,3.35a.419.419,0,1,1-.586-.6q1.8-1.758,3.716-3.389a.419.419,0,0,1,.543.639Z" transform="translate(-998.518 -760.823)" fill="#fff"/>
      <path id="Trazado_116769" data-name="Trazado 116769" d="M990.273,853.889q-1.653,1.857-3.178,3.824a.419.419,0,0,1-.662-.513q1.541-1.987,3.214-3.868a.419.419,0,1,1,.626.557Z" transform="translate(-968.897 -791.957)" fill="#fff"/>
      <path id="Trazado_116770" data-name="Trazado 116770" d="M959.249,896.931q-1.391,2.062-2.65,4.209a.418.418,0,0,1-.722-.424q1.272-2.168,2.678-4.254a.419.419,0,0,1,.694.468Z" transform="translate(-943.966 -827.145)" fill="#fff"/>
      <path id="Trazado_116771" data-name="Trazado 116771" d="M933.985,943.912q-1.129,2.218-2.131,4.5a.418.418,0,0,1-.765-.337q1.012-2.3,2.151-4.541a.418.418,0,1,1,.746.38Z" transform="translate(-923.74 -865.551)" fill="#fff"/>
      <path id="Trazado_116772" data-name="Trazado 116772" d="M913.441,993.769l-.907,2.335-.913,2.336a.418.418,0,0,1-.778-.3l0-.012.908-2.323.9-2.327,0-.007a.418.418,0,1,1,.779.3Z" transform="translate(-907.21 -906.301)" fill="#fff"/>
      <path id="Trazado_116773" data-name="Trazado 116773" d="M895.862,1044.393a16.8,16.8,0,0,0-.751,2.321,20.388,20.388,0,0,0-.4,2.415.417.417,0,1,1-.83-.094,21.252,21.252,0,0,1,.42-2.515,17.664,17.664,0,0,1,.786-2.433.418.418,0,1,1,.777.306Z" transform="translate(-893.377 -947.644)" fill="#fff"/>
      <path id="Trazado_116774" data-name="Trazado 116774" d="M892.118,1097.9l-.13,2.531a.417.417,0,1,1-.833-.041l.13-2.536a.417.417,0,0,1,.833.043h0Z" transform="translate(-891.154 -991.449)" fill="#fff"/>
    </g>
    <g id="Grupo_54448" data-name="Grupo 54448" transform="translate(224.149 219.808)">
      <g id="Grupo_54442" data-name="Grupo 54442" transform="translate(37.416 87.184)">
        <rect id="Rectángulo_29393" data-name="Rectángulo 29393" width="4.033" height="43.611" transform="translate(26.356 53.996) rotate(180)" fill="#167377"/>
        <path id="Rectángulo_29394" data-name="Rectángulo 29394" d="M0,0H35.32a0,0,0,0,1,0,0V0A2.625,2.625,0,0,1,32.7,2.625H2.435A2.435,2.435,0,0,1,0,.19V0A0,0,0,0,1,0,0Z" transform="translate(41.999 54.836) rotate(180)" fill="#167377"/>
        <path id="Rectángulo_29395" data-name="Rectángulo 29395" d="M6.693,0H40.5A6.693,6.693,0,0,1,47.2,6.693v0A6.693,6.693,0,0,1,40.5,13.385H6.693A6.693,6.693,0,0,1,0,6.693v0A6.693,6.693,0,0,1,6.693,0Z" fill="#167377"/>
      </g>
      <g id="Grupo_54444" data-name="Grupo 54444" transform="translate(29.514)">
        <path id="Trazado_116775" data-name="Trazado 116775" d="M699.065,1427.658s11.515,8.3,9.516,13.877c0,0-12.6-5.436-14.122-9.719s.258-6.173.258-6.173Z" transform="translate(-644.363 -1294.204)" fill="#7d6eb2"/>
        <path id="Trazado_116776" data-name="Trazado 116776" d="M704.015,1398.686l-1.883,5.444a1.892,1.892,0,0,0,.735,2.221,4.94,4.94,0,0,0,1.558.6,2.2,2.2,0,0,0,2.438-1.106l2.252-4.241Z" transform="translate(-651.043 -1272.188)" fill="url(#linear-gradient-16)"/>
        <path id="Trazado_116777" data-name="Trazado 116777" d="M590.5,1131.394s23.652,4.1,33.8,13.472-9.312,39.271-9.312,39.271-3.188-.02-7.052-3.331c0,0,11.538-22.486,1.594-29.043a64.045,64.045,0,0,0-24.061-9.032l4.8-10.613Z" transform="translate(-555.851 -1053.892)" fill="#00223d"/>
        <path id="Trazado_116778" data-name="Trazado 116778" d="M699.018,1466.837c-2.533-1.172-9.7-6.191-10.912-6.412s-3.305,1.2-3.305,1.2a3.268,3.268,0,0,0,.035,2.517c1.683,2.037,5.42,5.919,10.444,7.365a8.752,8.752,0,0,0,7.89-1.089A10.684,10.684,0,0,0,699.018,1466.837Z" transform="translate(-636.801 -1322.591)" fill="#7d6eb2"/>
        <path id="Trazado_116779" data-name="Trazado 116779" d="M696.4,1488.166c-5.024-1.447-8.761-5.329-10.444-7.365a10.177,10.177,0,0,0,3.035,4.106c4.5,4.048,13.107,5.507,14.938,5.226,1.468-.225,1.329-1.58.36-3.056A8.754,8.754,0,0,1,696.4,1488.166Z" transform="translate(-637.923 -1339.251)" fill="#00223d"/>
        <path id="Trazado_116780" data-name="Trazado 116780" d="M674.048,1438.671c.028.7,1.455,3.091,2.288,4.434a2.176,2.176,0,0,0,1.841,1.03,5.6,5.6,0,0,0,1.521-.183,1.409,1.409,0,0,0,.947-1.754l-1.629-5.562Z" transform="translate(-628.196 -1303.181)" fill="url(#linear-gradient-16)"/>
        <path id="Trazado_116781" data-name="Trazado 116781" d="M478.314,1092.662s-5.253,14.045,0,18.317,17.784,9.08,20.583,17.588,7.55,25.041,13.907,30.9c0,0,4.467-.433,6.138-2.212,0,0-3.621-24.683-6.008-31.016-2.068-5.485-5.115-13.4-10.954-17.826-1.672-1.266-1.38-3.273-.605-5.221l1.411-3.549Z" transform="translate(-466.434 -1022.26)" fill="#00223d"/>
        <path id="Trazado_116782" data-name="Trazado 116782" d="M701.719,969.786c-8.807.531-6.063-13.54-5.9-14.1l-13.367,9.442s.708,7.525,11.822,11.472a13.812,13.812,0,0,0,7.654.554A12.164,12.164,0,0,1,701.719,969.786Z" transform="translate(-635.056 -910.392)" fill="url(#linear-gradient-18)"/>
        <path id="Trazado_116783" data-name="Trazado 116783" d="M802.5,1004.981c-3.282-2.283-7,0-7,0-4.388,2.87-7.635,4.091-10.03,4.235a12.159,12.159,0,0,0,.2,7.369c4.916-1.057,8.433-4.615,9.961-6.44a1.587,1.587,0,0,1,2.2-.24c.684.539,1.347,1.278,1.227,2.056-.237,1.534,1.542,2.021,1.676,1.465a22.915,22.915,0,0,0-.609-3.854s3.56,3.579,4.949,4.955,3.136,0,3.136,0S805.781,1007.264,802.5,1004.981Z" transform="translate(-718.806 -949.822)" fill="url(#linear-gradient-19)"/>
        <path id="Trazado_116784" data-name="Trazado 116784" d="M499.675,834.458s12.813-5.13,36.659,14.557c0,0,1.992,4.123-.181,7.792s-22.877,21.55-25.722,31.466c0,0-12.335,4.008-25.09-5.5C485.34,882.776,486.466,855.18,499.675,834.458Z" transform="translate(-474.079 -810.893)" fill="#7d6eb2"/>
        <path id="Trazado_116785" data-name="Trazado 116785" d="M671.755,803.527l-7.031,9.23a2.511,2.511,0,0,0-.331,2.7c.876,1.786,2.953,4.386,7.56,4.026a3.871,3.871,0,0,0,3.183-2.171l4.411-9.117Z" transform="translate(-620.106 -786.124)" fill="url(#linear-gradient-20)"/>
        <path id="Trazado_116786" data-name="Trazado 116786" d="M439.581,869.891c-1.487-6.058,13.579-19.564,13.579-19.564L449.5,837.141s-32.534,21.658-24.243,39.075a12.683,12.683,0,0,0,4.6,5.415C432.475,874.58,436.65,871.346,439.581,869.891Z" transform="translate(-423.906 -813.576)" fill="#7d6eb2"/>
        <path id="Trazado_116787" data-name="Trazado 116787" d="M507.33,920.658a.356.356,0,0,1-.345-.271c-1.521-6.193,13.066-19.356,13.688-19.913a.356.356,0,0,1,.476.53c-.149.133-14.892,13.431-13.471,19.213a.357.357,0,0,1-.346.441Z" transform="translate(-491.665 -865.226)" fill="#00223d"/>
        <path id="Trazado_116788" data-name="Trazado 116788" d="M488.911,1011.692s-17.864,6.935-22.224,1.719a2.926,2.926,0,0,1-.6-1.2c-2.931,1.455-7.106,4.689-9.726,11.741,9.4,6,25.454-3.34,29.8-6.094a3.242,3.242,0,0,1,2.4-.44,22.149,22.149,0,0,0,6.128.617c2.283-.351,5.561,7.7,9.261,5.217C503.951,1023.254,500.782,1009.258,488.911,1011.692Z" transform="translate(-450.415 -955.899)" fill="url(#linear-gradient-21)"/>
        <g id="Grupo_54443" data-name="Grupo 54443" transform="translate(46.596)">
          <path id="Trazado_116789" data-name="Trazado 116789" d="M723.6,742.524c.063.246-1.478,16.961-1.478,16.961L712.6,758.4l-.892-16.06S722.539,738.409,723.6,742.524Z" transform="translate(-705.547 -734.77)" fill="url(#linear-gradient-22)"/>
          <path id="Trazado_116790" data-name="Trazado 116790" d="M686.749,719.486l-.192,8.491a1.169,1.169,0,0,0,.036.321c.166.646.9,2.826,3.083,1.939,1.982-.8,3.8-1.508,5.142-1.254a1.185,1.185,0,0,1,.961,1.274,51.234,51.234,0,0,1-1.3,7.853,1.183,1.183,0,0,1-1.352.852,38.241,38.241,0,0,1-8.561-2.453,1.187,1.187,0,0,1-.691-1c-.143-2.123-.6-8.572-1.006-10.35-.381-1.668-2.566-2.453-3.507-2.717a1.165,1.165,0,0,1-.716-.577c-.532-1-1.373-3.356,1.568-4.682a1.188,1.188,0,0,0,.58-1.609,3.081,3.081,0,0,1,1.252-4.421,4.346,4.346,0,0,1,5.292.677,1.187,1.187,0,0,0,1.523.012.939.939,0,0,1,1.066-.08,1.169,1.169,0,0,0,1.59-.679,3.543,3.543,0,0,1,3.868-2.488c4.243.256,5.221,4.82,4.42,7.645s-5.387,2.286-7.779,1.169c-1.82-.849-3.913.48-4.812,1.166A1.176,1.176,0,0,0,686.749,719.486Z" transform="translate(-678.109 -708.585)" fill="url(#linear-gradient-23)"/>
          <path id="Trazado_116791" data-name="Trazado 116791" d="M684.318,787.644s1.186-4.983-.7-5.964-4.427-.086-3.472,3.325C681.333,789.248,684.318,787.644,684.318,787.644Z" transform="translate(-679.602 -767.976)" fill="url(#linear-gradient-24)"/>
        </g>
      </g>
      <g id="Grupo_54445" data-name="Grupo 54445" transform="translate(75.569 35.44)">
        <path id="Trazado_116792" data-name="Trazado 116792" d="M676.745,1072.448l.086,0,37.48-.041a1.678,1.678,0,1,0,0-3.355l-37.48.041a1.678,1.678,0,0,0-.082,3.354Z" transform="translate(-675.152 -1038.418)" fill="#00223d"/>
        <path id="Trazado_116793" data-name="Trazado 116793" d="M845.258,901.925H814.045a5.949,5.949,0,0,0-5.381,3.411l-14.43,30.6h38.79a3.616,3.616,0,0,0,3.362-2.287l11.19-28.314A2.493,2.493,0,0,0,845.258,901.925Z" transform="translate(-772.406 -901.925)" fill="#00223d"/>
      </g>
      <g id="Grupo_54447" data-name="Grupo 54447" transform="translate(0 69.113)">
        <g id="Grupo_54446" data-name="Grupo 54446" transform="translate(2.327 3.352)">
          <path id="Trazado_116794" data-name="Trazado 116794" d="M890.793,1181.309a1.612,1.612,0,0,0,.622-.125,1.507,1.507,0,0,0,.824-2l-33.032-74.341a1.6,1.6,0,0,0-2.069-.8,1.506,1.506,0,0,0-.824,2l33.032,74.341A1.578,1.578,0,0,0,890.793,1181.309Z" transform="translate(-749.76 -1103.918)" fill="#167377"/>
          <path id="Trazado_116795" data-name="Trazado 116795" d="M834.965,1181.308a1.578,1.578,0,0,0,1.447-.923l33.032-74.341a1.507,1.507,0,0,0-.824-2,1.6,1.6,0,0,0-2.069.8l-33.032,74.34a1.506,1.506,0,0,0,.824,2A1.61,1.61,0,0,0,834.965,1181.308Z" transform="translate(-731.143 -1103.916)" fill="#167377"/>
          <path id="Trazado_116796" data-name="Trazado 116796" d="M332.988,1181.309a1.611,1.611,0,0,0,.622-.125,1.507,1.507,0,0,0,.825-2L301.4,1104.84a1.6,1.6,0,0,0-2.069-.8,1.506,1.506,0,0,0-.824,2l33.032,74.341A1.578,1.578,0,0,0,332.988,1181.309Z" transform="translate(-294.202 -1103.918)" fill="#167377"/>
          <path id="Trazado_116797" data-name="Trazado 116797" d="M277.161,1181.308a1.578,1.578,0,0,0,1.448-.923l33.032-74.341a1.506,1.506,0,0,0-.824-2,1.6,1.6,0,0,0-2.069.8l-33.032,74.34a1.506,1.506,0,0,0,.824,2A1.611,1.611,0,0,0,277.161,1181.308Z" transform="translate(-275.586 -1103.916)" fill="#167377"/>
        </g>
        <path id="Trazado_116798" data-name="Trazado 116798" d="M262.919,1087.607a1.812,1.812,0,0,1,.313-1.375,1.43,1.43,0,0,1,1.146-.605H414.649a1.675,1.675,0,0,1,1.441.883,2.114,2.114,0,0,1,.112,1.835l-1.628,3.946a2.279,2.279,0,0,1-2.07,1.482H265.409a1.79,1.79,0,0,1-1.7-1.566Z" transform="translate(-262.892 -1085.627)" fill="#167377"/>
      </g>
    </g>
    <g id="Grupo_54453" data-name="Grupo 54453" transform="translate(444.925 254.213)">
      <path id="Trazado_116799" data-name="Trazado 116799" d="M1597.88,1473.515s.39,2.207.581,4.393a1.506,1.506,0,0,1-1.44,1.632c-2.911.121-9.136.357-11.37.257a.49.49,0,0,1-.431-.671h0a1.1,1.1,0,0,1,.561-.591l10.284-4.726Z" transform="translate(-1563.581 -1367.705)" fill="#fff"/>
      <path id="Trazado_116800" data-name="Trazado 116800" d="M1641.283,1464.621l-.313,2.641s-1.8.838-3.031-.106l.746-2.943Z" transform="translate(-1606.664 -1360.109)" fill="url(#linear-gradient-25)"/>
      <path id="Trazado_116801" data-name="Trazado 116801" d="M1642.012,1195.583c.136.69.726,34.414-2.878,49.527a.513.513,0,0,0,.3.6,8.916,8.916,0,0,0,2.936.6.884.884,0,0,0,.876-.634c1.03-3.506,5.968-21.074,6.613-37.857.719-18.753,0-.639,0-.639l-.422-11.591Z" transform="translate(-1607.628 -1140.719)" fill="#3c4973"/>
      <path id="Trazado_116802" data-name="Trazado 116802" d="M1700.595,1479.8a15.873,15.873,0,0,1,1.222,4.076.918.918,0,0,1-.808,1.1c-.961.094-2.44.216-3.626.208a.916.916,0,0,1-.907-1.022,7.723,7.723,0,0,1,1.8-4.237Z" transform="translate(-1654.466 -1372.837)" fill="#fff"/>
      <path id="Trazado_116803" data-name="Trazado 116803" d="M1709.083,1460.576l-.732,3.994a2.583,2.583,0,0,1-2.156.148l.35-4.3Z" transform="translate(-1662.409 -1357.012)" fill="url(#linear-gradient-26)"/>
      <path id="Trazado_116804" data-name="Trazado 116804" d="M1667.841,1192.919c2.949,17.793-.639,43.977-1.849,49.1a.8.8,0,0,1-.646.607,5.37,5.37,0,0,1-2.306-.092.734.734,0,0,1-.527-.675c-.162-4.143.13-29.579-2.617-39.631a2.285,2.285,0,0,0-.881-1.26l-5.332-3.79-.409-6.127Z" transform="translate(-1619.189 -1137.02)" fill="#3c4973"/>
      <g id="Grupo_54449" data-name="Grupo 54449" transform="translate(3.767 7.802)">
        <path id="Trazado_116805" data-name="Trazado 116805" d="M1573.424,1010.872a83.055,83.055,0,0,1,18.584,2.32c2.634,15.367.46,33.093.46,33.093-6.84,1.794-14.556-1.1-14.556-1.1-1.137-6.423-6.441-24.5-6.441-24.5a29.1,29.1,0,0,1-10.8-3.428,18.958,18.958,0,0,0,3.744-7.832A29.64,29.64,0,0,0,1573.424,1010.872Z" transform="translate(-1547.326 -996.489)" fill="#fff"/>
        <path id="Trazado_116806" data-name="Trazado 116806" d="M1487.873,940.209a4.678,4.678,0,0,1,1.706-1.369c1.3,5.492,8.379,10.762,15.383,12.939a18.953,18.953,0,0,1-3.745,7.832C1489.593,953.075,1487.873,940.209,1487.873,940.209Z" transform="translate(-1487.873 -938.84)" fill="url(#linear-gradient-27)"/>
      </g>
      <g id="Grupo_54450" data-name="Grupo 54450" transform="translate(0 0)">
        <path id="Trazado_116807" data-name="Trazado 116807" d="M1471.3,905.715c-.091.289.961.728,1.58-.453.022-.566.366-2.99.028-3.451a45.129,45.129,0,0,0-5.293-5.534.831.831,0,0,0-.1,1.154l1.694,1.765a8.187,8.187,0,0,0-.989,1.955,2.375,2.375,0,0,0,.237,1.747c.3.536.7,1.232,1.087,1.777A2.344,2.344,0,0,0,1471.3,905.715Z" transform="translate(-1467.323 -896.278)" fill="url(#linear-gradient-28)"/>
        <path id="Trazado_116808" data-name="Trazado 116808" d="M1480.113,918.449l1.543,1.309.485,1.3-1.377,1.527a17.724,17.724,0,0,0-.807-3.145C1479.615,918.883,1479.793,918.613,1480.113,918.449Z" transform="translate(-1477.49 -914.385)" fill="url(#linear-gradient-29)"/>
      </g>
      <path id="Trazado_116809" data-name="Trazado 116809" d="M1713.149,1038.519l3.389-8.555s8.253,5.607,9.61,12.717a19.526,19.526,0,0,0-7.174,1.923C1718.363,1041.247,1713.149,1038.519,1713.149,1038.519Z" transform="translate(-1668.088 -1005.459)" fill="#fff"/>
      <path id="Trazado_116810" data-name="Trazado 116810" d="M1668.341,1103.229s9.266,5.237,12.392.765a3.516,3.516,0,0,0,.644-2.731,19.533,19.533,0,0,1,7.174-1.923,9.811,9.811,0,0,1-1.066,6.727c-5.477,10.018-20.371-.553-20.371-.553Z" transform="translate(-1630.493 -1062.119)" fill="url(#linear-gradient-30)"/>
      <g id="Grupo_54451" data-name="Grupo 54451" transform="translate(15.814 26.893)">
        <path id="Trazado_116811" data-name="Trazado 116811" d="M1576.744,1071.475l-5.057-17.66a.514.514,0,0,0-.435-.371c-.916-.107-3.571-.407-6.637-.667a75.328,75.328,0,0,0-10.542-.35.517.517,0,0,0-.423.744c1.457,2.948,7.45,14.939,10.452,18.867a.519.519,0,0,0,.417.2l11.733-.109A.516.516,0,0,0,1576.744,1071.475Z" transform="translate(-1553.596 -1050.632)" fill="#00223d"/>
        <path id="Trazado_116812" data-name="Trazado 116812" d="M1593.146,1043.6l-3.666-.611a.263.263,0,0,0-.293.342l.363,1.1a.263.263,0,0,0,.215.178l3.528.471a.263.263,0,0,0,.291-.321l-.224-.96A.264.264,0,0,0,1593.146,1043.6Z" transform="translate(-1582.651 -1042.989)" fill="#00223d"/>
        <path id="Trazado_116813" data-name="Trazado 116813" d="M1588.272,1051.6l-.3-1.573a.363.363,0,0,0-.32-.293l-7.4-.752a.364.364,0,0,0-.391.447l.471,1.96a.364.364,0,0,0,.335.279l7.237.364A.364.364,0,0,0,1588.272,1051.6Z" transform="translate(-1575.033 -1047.884)" fill="#aee6e6"/>
        <path id="Trazado_116814" data-name="Trazado 116814" d="M1645.369,1106.592s.7-2.9.42-3.924-.835-2.349-2.67-2.056a26.874,26.874,0,0,0-4,1.067,1.051,1.051,0,0,0,1.5.907l-.865.669s.123,1.071,1.3.5l-.8.887a.938.938,0,0,0,1.373.316C1642.5,1104.393,1642.911,1106.941,1645.369,1106.592Z" transform="translate(-1623.443 -1090.016)" fill="url(#linear-gradient-31)"/>
      </g>
      <path id="Trazado_116815" data-name="Trazado 116815" d="M1653.58,978.175l2.811,8.13a.293.293,0,0,1-.134.353,6.609,6.609,0,0,1-6.854-.461,1.38,1.38,0,0,1-.635-.985l-.91-7.037Z" transform="translate(-1614.765 -963.163)" fill="url(#linear-gradient-32)"/>
      <g id="Grupo_54452" data-name="Grupo 54452" transform="translate(29.971 3.258)">
        <path id="Trazado_116816" data-name="Trazado 116816" d="M1633.556,937.1s-3.087,5.811-2.691,8.159,4.221,2.179,7.563.272l2.334-6.275Z" transform="translate(-1630.83 -932.878)" fill="url(#linear-gradient-33)"/>
        <path id="Trazado_116817" data-name="Trazado 116817" d="M1643.386,923.626a.239.239,0,0,1-.1-.35,6.265,6.265,0,0,0,.859-1.824s.554-.356-1.413-.826-4.9-1.2-5.518-2.876c-.6-1.633.978-5.739,3.5-2.467a.239.239,0,0,0,.379,0,2.47,2.47,0,0,1,3.008-.977,2.266,2.266,0,0,1,1.551,2.188.238.238,0,0,0,.282.244,2.763,2.763,0,0,1,3.225,1.5c.658,1.447.23,2.266-.159,2.666a.239.239,0,0,0,.1.4,1.438,1.438,0,0,1,1.014,1.64c-.084,1.519-1.782,1.385-2.266,1.316a.239.239,0,0,0-.212.075c-.415.459-2.283,2.407-4.3,2.642a.242.242,0,0,1-.254-.319l.875-2.543a.241.241,0,0,0-.13-.3Z" transform="translate(-1635.936 -914.052)" fill="#3c4973"/>
        <path id="Trazado_116818" data-name="Trazado 116818" d="M1666.522,964.929s2.2-1.508,2.359-.238-1.979,1.839-3.039,1.366Z" transform="translate(-1659.424 -954.993)" fill="url(#linear-gradient-34)"/>
      </g>
    </g>
    <g id="Grupo_54462" data-name="Grupo 54462" transform="translate(371.253 301.296)">
      <g id="Grupo_54457" data-name="Grupo 54457" transform="translate(0 9.246)">
        <g id="Grupo_54454" data-name="Grupo 54454">
          <path id="Trazado_116819" data-name="Trazado 116819" d="M1083.309,1415.721a.377.377,0,0,1-.323-.181c-.265-.434-.52-.882-.759-1.33a.378.378,0,1,1,.667-.355c.232.436.48.87.737,1.292a.378.378,0,0,1-.126.519A.373.373,0,0,1,1083.309,1415.721Z" transform="translate(-1079.108 -1375.146)" fill="#00223d"/>
          <path id="Trazado_116820" data-name="Trazado 116820" d="M1066.951,1238.232a.378.378,0,0,1-.361-.267,26.963,26.963,0,0,1-.683-2.732l-.056-.3a.378.378,0,1,1,.743-.135l.054.286a26.265,26.265,0,0,0,.665,2.655.378.378,0,0,1-.25.472A.384.384,0,0,1,1066.951,1238.232Zm-1.163-7.953h0a.377.377,0,0,1-.375-.381,26.544,26.544,0,0,1,.209-3.111.378.378,0,0,1,.75.1,25.723,25.723,0,0,0-.2,3.022A.377.377,0,0,1,1065.788,1230.279Zm1.307-7.93a.378.378,0,0,1-.359-.5,26.7,26.7,0,0,1,1.147-2.9.378.378,0,0,1,.685.319,25.905,25.905,0,0,0-1.114,2.815A.378.378,0,0,1,1067.1,1222.349Zm3.653-7.158a.377.377,0,0,1-.306-.6,26.923,26.923,0,0,1,1.967-2.415.378.378,0,0,1,.557.51,26,26,0,0,0-1.911,2.347A.378.378,0,0,1,1070.748,1215.191Zm5.643-5.719a.378.378,0,0,1-.225-.681,26.623,26.623,0,0,1,2.606-1.7.378.378,0,0,1,.375.655,25.858,25.858,0,0,0-2.531,1.655A.377.377,0,0,1,1076.391,1209.473Zm7.112-3.731a.378.378,0,0,1-.121-.735,26.82,26.82,0,0,1,3-.83.378.378,0,0,1,.159.739,25.994,25.994,0,0,0-2.918.807A.379.379,0,0,1,1083.5,1205.742Zm10.983-1.293-.036,0a26.119,26.119,0,0,0-3.026-.11.37.37,0,0,1-.386-.369.377.377,0,0,1,.369-.386,26.185,26.185,0,0,1,3.114.113.377.377,0,0,1-.036.753Z" transform="translate(-1065.411 -1203.575)" fill="#00223d"/>
          <path id="Trazado_116821" data-name="Trazado 116821" d="M1250.574,1210.656a.379.379,0,0,1-.128-.023c-.464-.167-.939-.323-1.413-.464a.378.378,0,0,1,.214-.724c.489.145.978.306,1.455.478a.378.378,0,0,1-.128.733Z" transform="translate(-1215.153 -1208.357)" fill="#00223d"/>
        </g>
        <g id="Grupo_54455" data-name="Grupo 54455" transform="translate(16.202 14.499)">
          <path id="Trazado_116822" data-name="Trazado 116822" d="M1337.157,1284.8a.377.377,0,0,1-.348-.229c-.194-.453-.4-.908-.624-1.351a.377.377,0,1,1,.676-.336c.228.456.444.924.643,1.39a.378.378,0,0,1-.2.5A.369.369,0,0,1,1337.157,1284.8Z" transform="translate(-1302.722 -1282.676)" fill="url(#linear-gradient-35)"/>
          <path id="Trazado_116823" data-name="Trazado 116823" d="M1190.967,1348.225h-.011a26.492,26.492,0,0,1-3.054-.267.378.378,0,0,1,.11-.747,25.775,25.775,0,0,0,2.967.26.377.377,0,0,1-.011.755Zm4.9-.318a.378.378,0,0,1-.059-.751q.446-.071.893-.158c.678-.132,1.356-.293,2.017-.478a.378.378,0,0,1,.2.728c-.68.189-1.377.354-2.075.491q-.46.09-.919.163A.432.432,0,0,1,1195.862,1347.907Zm7.533-2.4a.377.377,0,0,1-.168-.716,25.679,25.679,0,0,0,2.586-1.475.378.378,0,0,1,.412.633,26.371,26.371,0,0,1-2.663,1.518A.373.373,0,0,1,1203.4,1345.507Zm6.466-4.544a.378.378,0,0,1-.261-.65,26.068,26.068,0,0,0,2.026-2.181.378.378,0,0,1,.582.482,26.773,26.773,0,0,1-2.086,2.244A.376.376,0,0,1,1209.861,1340.964Zm4.817-6.267a.382.382,0,0,1-.182-.047.378.378,0,0,1-.148-.514,26.035,26.035,0,0,0,1.288-2.686.377.377,0,1,1,.7.287,26.708,26.708,0,0,1-1.325,2.764A.379.379,0,0,1,1214.678,1334.7Zm2.738-7.418a.382.382,0,0,1-.076-.008.377.377,0,0,1-.294-.445,25.687,25.687,0,0,0,.426-2.948.378.378,0,0,1,.753.064,26.331,26.331,0,0,1-.438,3.036A.377.377,0,0,1,1217.416,1327.278Zm.386-7.9a.378.378,0,0,1-.375-.339c-.08-.773-.2-1.554-.346-2.319q-.061-.313-.129-.621a.378.378,0,0,1,.738-.163q.07.318.132.639c.154.788.274,1.591.356,2.387a.378.378,0,0,1-.337.415Z" transform="translate(-1181.387 -1309.6)" fill="url(#linear-gradient-35)"/>
          <path id="Trazado_116824" data-name="Trazado 116824" d="M1155.59,1479.819a.37.37,0,0,1-.124-.021c-.478-.167-.96-.349-1.431-.544a.378.378,0,1,1,.288-.7c.458.189.926.367,1.391.529a.378.378,0,0,1-.124.734Z" transform="translate(-1153.802 -1442.627)" fill="url(#linear-gradient-35)"/>
        </g>
        <g id="Grupo_54456" data-name="Grupo 54456" transform="translate(6.273 6.107)">
          <path id="Trazado_116825" data-name="Trazado 116825" d="M1109.974,1274.834a.315.315,0,0,0,.365,0l3.126-2.2a16.66,16.66,0,0,0,5.253,1.242l1.809,3.367a.314.314,0,0,0,.327.161l4.529-.735a.314.314,0,0,0,.259-.257l.651-3.767a16.664,16.664,0,0,0,4.591-2.84l3.662,1.1a.314.314,0,0,0,.345-.117l2.683-3.722a.314.314,0,0,0,0-.365l-2.2-3.126a16.667,16.667,0,0,0,1.242-5.253l3.367-1.809a.313.313,0,0,0,.161-.327l-.735-4.529a.314.314,0,0,0-.257-.259l-3.767-.651a16.66,16.66,0,0,0-2.84-4.591l1.1-3.663a.314.314,0,0,0-.117-.345l-3.723-2.682a.314.314,0,0,0-.365,0l-3.126,2.2a16.649,16.649,0,0,0-5.254-1.242l-1.809-3.368a.314.314,0,0,0-.327-.161l-4.529.735a.315.315,0,0,0-.259.257l-.651,3.767a16.671,16.671,0,0,0-4.591,2.84l-3.662-1.1a.315.315,0,0,0-.346.117l-2.682,3.722a.314.314,0,0,0,0,.365l2.2,3.126a16.669,16.669,0,0,0-1.242,5.254l-3.368,1.809a.314.314,0,0,0-.161.327l.735,4.529a.314.314,0,0,0,.256.259l3.767.651a16.665,16.665,0,0,0,2.839,4.591l-1.1,3.663a.313.313,0,0,0,.117.345Z" transform="translate(-1099.635 -1236.893)" fill="#00223d"/>
          <path id="Trazado_116826" data-name="Trazado 116826" d="M1189.458,1331.372a4.65,4.65,0,1,1,1.841-.384h0A4.643,4.643,0,0,1,1189.458,1331.372Zm-.006-8.151a3.508,3.508,0,1,0,1.4,6.727h0a3.508,3.508,0,0,0-1.4-6.727Z" transform="translate(-1169.2 -1306.472)" fill="url(#linear-gradient-3)"/>
          <path id="Trazado_116827" data-name="Trazado 116827" d="M1158.54,1306.722l-.2,0-.259-.008h-.018l-.114-.005.058-1.132a10.568,10.568,0,0,0,2.234-.123,10.43,10.43,0,0,0,6.517-3.8q.166-.208.322-.424a10.427,10.427,0,0,0,1.985-6.12,10.652,10.652,0,0,0-.138-1.7,10.506,10.506,0,0,0-20.876,1.661,10.679,10.679,0,0,0,.138,1.7,10.487,10.487,0,0,0,2.333,5.085l-.865.731a11.623,11.623,0,0,1-2.586-5.635,11.8,11.8,0,0,1-.153-1.889,11.639,11.639,0,0,1,23.127-1.841,11.772,11.772,0,0,1,.153,1.889,11.644,11.644,0,0,1-9.775,11.463h0l-.208.031A11.728,11.728,0,0,1,1158.54,1306.722Z" transform="translate(-1138.249 -1274.91)" fill="url(#linear-gradient-3)"/>
        </g>
      </g>
      <g id="Grupo_54461" data-name="Grupo 54461" transform="translate(42.918 0)">
        <g id="Grupo_54458" data-name="Grupo 54458">
          <path id="Trazado_116828" data-name="Trazado 116828" d="M1308.521,1270.72a.377.377,0,0,1-.323-.181,15.2,15.2,0,0,1-.737-1.362.378.378,0,1,1,.682-.325,14.59,14.59,0,0,0,.7,1.294.377.377,0,0,1-.322.574Z" transform="translate(-1305.98 -1247.465)" fill="#00223d"/>
          <path id="Trazado_116829" data-name="Trazado 116829" d="M1300.075,1170.785a.378.378,0,0,1-.373-.323,15.3,15.3,0,0,1-.156-2.176q0-.324.014-.646a.381.381,0,0,1,.393-.361.377.377,0,0,1,.361.393q-.013.306-.013.614a14.471,14.471,0,0,0,.149,2.068.379.379,0,0,1-.374.432Zm.728-7.134a.37.37,0,0,1-.128-.023.377.377,0,0,1-.227-.483,15.337,15.337,0,0,1,1.2-2.556.378.378,0,1,1,.651.384,14.526,14.526,0,0,0-1.144,2.43A.378.378,0,0,1,1300.8,1163.651Zm3.994-5.956a.378.378,0,0,1-.254-.658,15.19,15.19,0,0,1,2.26-1.694.378.378,0,0,1,.394.644,14.451,14.451,0,0,0-2.147,1.61A.377.377,0,0,1,1304.8,1157.7Zm6.321-3.381a.378.378,0,0,1-.092-.744q.4-.1.8-.179a15.341,15.341,0,0,1,1.988-.255.378.378,0,0,1,.047.754,14.684,14.684,0,0,0-1.89.242q-.386.077-.764.171A.389.389,0,0,1,1311.118,1154.314Z" transform="translate(-1299.546 -1153.135)" fill="#00223d"/>
          <path id="Trazado_116830" data-name="Trazado 116830" d="M1401.648,1156.545a.38.38,0,0,1-.128-.023,14.506,14.506,0,0,0-1.407-.427.378.378,0,0,1,.182-.733,15.311,15.311,0,0,1,1.481.45.378.378,0,0,1-.128.733Z" transform="translate(-1381.444 -1154.945)" fill="#00223d"/>
        </g>
        <g id="Grupo_54459" data-name="Grupo 54459" transform="translate(9.167 8.174)">
          <path id="Trazado_116831" data-name="Trazado 116831" d="M1453.7,1199.87a.377.377,0,0,1-.353-.245,14.3,14.3,0,0,0-.588-1.348.378.378,0,0,1,.676-.337,15.1,15.1,0,0,1,.618,1.42.378.378,0,0,1-.354.51Z" transform="translate(-1433.807 -1197.73)" fill="#00223d"/>
          <path id="Trazado_116832" data-name="Trazado 116832" d="M1381.484,1245.226a.378.378,0,0,1,0-.755,14.571,14.571,0,0,0,2.627-.268.378.378,0,1,1,.144.741,15.331,15.331,0,0,1-2.763.282Zm6.835-1.739a.378.378,0,0,1-.178-.711,14.437,14.437,0,0,0,2.206-1.45.377.377,0,1,1,.47.59,15.089,15.089,0,0,1-2.322,1.526A.372.372,0,0,1,1388.32,1243.488Zm5.251-4.7a.378.378,0,0,1-.311-.591,14.511,14.511,0,0,0,1.288-2.3.378.378,0,1,1,.69.307,15.342,15.342,0,0,1-1.355,2.425A.377.377,0,0,1,1393.571,1238.783Zm2.492-6.6-.046,0a.378.378,0,0,1-.33-.421,14.373,14.373,0,0,0,.1-1.714c0-.309-.01-.62-.03-.925a.378.378,0,1,1,.754-.049c.021.322.031.649.031.974a15.127,15.127,0,0,1-.108,1.8A.377.377,0,0,1,1396.063,1232.186Z" transform="translate(-1375.323 -1223.041)" fill="#00223d"/>
          <path id="Trazado_116833" data-name="Trazado 116833" d="M1351.355,1309.794a.367.367,0,0,1-.108-.016,15.117,15.117,0,0,1-1.459-.517.378.378,0,1,1,.289-.7,14.363,14.363,0,0,0,1.386.492.378.378,0,0,1-.108.74Z" transform="translate(-1349.554 -1288.224)" fill="#00223d"/>
        </g>
        <g id="Grupo_54460" data-name="Grupo 54460" transform="translate(3.713 3.591)">
          <path id="Trazado_116834" data-name="Trazado 116834" d="M1325.654,1194.189a.178.178,0,0,0,.206,0l1.769-1.247a9.422,9.422,0,0,0,2.972.7l1.023,1.905a.178.178,0,0,0,.185.091l2.562-.416a.179.179,0,0,0,.147-.146l.368-2.131a9.425,9.425,0,0,0,2.6-1.607l2.072.624a.177.177,0,0,0,.2-.066l1.518-2.106a.179.179,0,0,0,0-.206l-1.247-1.768a9.429,9.429,0,0,0,.7-2.972l1.905-1.024a.178.178,0,0,0,.091-.185l-.416-2.562a.178.178,0,0,0-.145-.147l-2.131-.368a9.42,9.42,0,0,0-1.607-2.6l.624-2.072a.178.178,0,0,0-.066-.2l-2.106-1.518a.177.177,0,0,0-.206,0l-1.769,1.247a9.431,9.431,0,0,0-2.972-.7l-1.023-1.905a.178.178,0,0,0-.185-.091l-2.562.416a.178.178,0,0,0-.147.146l-.368,2.131a9.433,9.433,0,0,0-2.6,1.607l-2.072-.624a.177.177,0,0,0-.2.066l-1.518,2.106a.178.178,0,0,0,0,.207l1.247,1.768a9.428,9.428,0,0,0-.7,2.972l-1.905,1.024a.177.177,0,0,0-.091.185l.416,2.562a.177.177,0,0,0,.145.147l2.131.368a9.427,9.427,0,0,0,1.607,2.6l-.624,2.072a.177.177,0,0,0,.066.2Z" transform="translate(-1319.805 -1172.723)" fill="#00223d"/>
          <path id="Trazado_116835" data-name="Trazado 116835" d="M1369.536,1225.323a2.871,2.871,0,1,1,1.136-.236h0A2.853,2.853,0,0,1,1369.536,1225.323Zm.911-.756h0Zm-.916-3.855a1.739,1.739,0,1,0,.69,3.335h0a1.739,1.739,0,0,0-.69-3.335Z" transform="translate(-1358.072 -1210.992)" fill="url(#linear-gradient-3)"/>
          <path id="Trazado_116836" data-name="Trazado 116836" d="M1352.038,1211.385c-.116,0-.232,0-.348-.009l.059-1.132a5.782,5.782,0,0,0,1.211-.067h0a5.705,5.705,0,0,0,4.76-6.147q-.018-.194-.05-.39a5.7,5.7,0,0,0-11.321.911,5.8,5.8,0,0,0,.074.915,5.683,5.683,0,0,0,1.265,2.757l-.865.731a6.831,6.831,0,1,1,6.318,2.34l-.017,0c-.225.037-.451.061-.678.075l-.095,0h-.011C1352.24,1211.383,1352.139,1211.385,1352.038,1211.385Z" transform="translate(-1340.559 -1193.141)" fill="url(#linear-gradient-3)"/>
        </g>
      </g>
    </g>
  </g>
</svg>
