<?xml version="1.0" encoding="utf-8"?>
<!-- Generator: Adobe Illustrator 26.2.1, SVG Export Plug-In . SVG Version: 6.00 Build 0)  -->
<svg version="1.1" id="Layer_1" xmlns="http://www.w3.org/2000/svg" xmlns:xlink="http://www.w3.org/1999/xlink" x="0px" y="0px"
	 viewBox="0 0 1328 949.4" style="enable-background:new 0 0 1328 949.4;" xml:space="preserve">
<style type="text/css">
	.st0{opacity:0.15;fill:url(#Rectángulo_44012_00000173163297965845990250000009902772543705979275_);enable-background:new    ;}
	.st1{opacity:0.15;fill:url(#Rectángulo_44432_00000013159208397477808470000016083067081945269418_);enable-background:new    ;}
	.st2{opacity:0.711;}
	.st3{fill:#FDFDFD;}
	.st4{opacity:0.23;}
	.st5{fill:none;stroke:#8F9294;stroke-width:2;stroke-miterlimit:10;}
	.st6{fill:none;stroke:#D8D9DA;stroke-width:0.78;stroke-miterlimit:10;}
	.st7{opacity:0.394;}
	.st8{fill:none;stroke:#8F9294;stroke-width:0.388;stroke-miterlimit:10;}
	.st9{opacity:0.367;}
	.st10{clip-path:url(#SVGID_00000031187740690676551780000015876580950134995851_);}
	.st11{fill:none;stroke:#606060;stroke-width:0.655;stroke-miterlimit:10;}
</style>
<g id="Grupo_172842" transform="translate(-135.991 -1043.759)">
	<g id="Grupo_149857" transform="translate(135.991 1076.917)">
		
			<linearGradient id="Rectángulo_44012_00000172403420536754894090000015289049542904367258_" gradientUnits="userSpaceOnUse" x1="-294.2779" y1="982.7502" x2="-294.2779" y2="981.7502" gradientTransform="matrix(1327.991 0 0 -696.716 391462.3438 684917.3125)">
			<stop  offset="0" style="stop-color:#039BE5"/>
			<stop  offset="1" style="stop-color:#FFFFFF"/>
		</linearGradient>
		
			<rect id="Rectángulo_44012" y="219.5" style="opacity:0.15;fill:url(#Rectángulo_44012_00000172403420536754894090000015289049542904367258_);enable-background:new    ;" width="1328" height="696.7"/>
		
			<linearGradient id="Rectángulo_44432_00000066475162960665969010000017528953048472489919_" gradientUnits="userSpaceOnUse" x1="-294.7221" y1="983.1337" x2="-294.7221" y2="982.1337" gradientTransform="matrix(-1327.991 0 0 219.398 -390724.3438 -215478.1719)">
			<stop  offset="0" style="stop-color:#039BE5"/>
			<stop  offset="1" style="stop-color:#FFFFFF"/>
		</linearGradient>
		
			<rect id="Rectángulo_44432" y="0" style="opacity:0.15;fill:url(#Rectángulo_44432_00000066475162960665969010000017528953048472489919_);enable-background:new    ;" width="1328" height="219.4"/>
	</g>
	<g id="Grupo_149858" transform="translate(136.731 917.911)" class="st2">
		<path id="Trazado_174289" class="st3" d="M794.3,385.8c-62.9,0-113.9,51-113.9,113.9s51,113.9,113.9,113.9s113.9-51,113.9-113.9
			c0,0,0,0,0,0C908.1,436.8,857.2,385.8,794.3,385.8z M794.3,590.8c-50.3,0-91.1-40.8-91.1-91.1s40.8-91.1,91.1-91.1
			c50.3,0,91.1,40.8,91.1,91.1C885.4,550,844.6,590.8,794.3,590.8C794.3,590.8,794.3,590.8,794.3,590.8L794.3,590.8z"/>
		<g id="Grupo_124665" transform="translate(10 251.642)" class="st4">
			<path id="Trazado_174290" class="st5" d="M196.5,25.5l-171,171c-5.8,5.8-15.3,5.8-21.1,0c0,0,0,0,0,0l0,0
				c-5.8-5.8-5.8-15.3,0-21.1l171-171c5.8-5.8,15.3-5.8,21.1,0l0,0C202.3,10.2,202.3,19.7,196.5,25.5
				C196.5,25.5,196.5,25.5,196.5,25.5z"/>
			<path id="Trazado_174291" class="st5" d="M186.1,98.7L55.6,229.2c-4.5,4.5-11.7,4.5-16.1,0c0,0,0,0,0,0l0,0
				c-4.5-4.5-4.5-11.7,0-16.1c0,0,0,0,0,0L169.9,82.6c4.5-4.5,11.7-4.5,16.1,0c0,0,0,0,0,0l0,0C190.5,87.1,190.5,94.3,186.1,98.7
				C186.1,98.7,186.1,98.7,186.1,98.7z"/>
		</g>
		<g id="Grupo_124669" transform="translate(1151.729 414.086)">
			<g id="Grupo_124668">
				<line id="Línea_1655" class="st6" x1="10.9" y1="0" x2="0" y2="10.9"/>
				<line id="Línea_1656" class="st6" x1="16.3" y1="0" x2="5.3" y2="10.9"/>
				<line id="Línea_1657" class="st6" x1="21.6" y1="0" x2="10.7" y2="10.9"/>
				<line id="Línea_1658" class="st6" x1="26.9" y1="0" x2="16" y2="10.9"/>
				<line id="Línea_1659" class="st6" x1="32.3" y1="0" x2="21.3" y2="10.9"/>
				<line id="Línea_1660" class="st6" x1="37.6" y1="0" x2="26.7" y2="10.9"/>
				<line id="Línea_1661" class="st6" x1="42.9" y1="0" x2="32" y2="10.9"/>
				<line id="Línea_1662" class="st6" x1="48.3" y1="0" x2="37.3" y2="10.9"/>
				<line id="Línea_1663" class="st6" x1="53.6" y1="0" x2="42.7" y2="10.9"/>
				<line id="Línea_1664" class="st6" x1="59" y1="0" x2="48" y2="10.9"/>
				<line id="Línea_1665" class="st6" x1="64.3" y1="0" x2="53.3" y2="10.9"/>
				<line id="Línea_1666" class="st6" x1="69.6" y1="0" x2="58.7" y2="10.9"/>
				<line id="Línea_1667" class="st6" x1="75" y1="0" x2="64" y2="10.9"/>
			</g>
		</g>
		<g id="Grupo_149859" transform="translate(215.347 232.48)" class="st7">
			<g id="Grupo_124677">
				<g id="Grupo_124673">
					<line id="Línea_1668" class="st8" x1="4.4" y1="0" x2="4.4" y2="8.8"/>
					<line id="Línea_1669" class="st8" x1="0" y1="4.4" x2="8.8" y2="4.4"/>
				</g>
				<g id="Grupo_124674" transform="translate(24.072)">
					<line id="Línea_1670" class="st8" x1="4.4" y1="0" x2="4.4" y2="8.8"/>
					<line id="Línea_1671" class="st8" x1="0" y1="4.4" x2="8.8" y2="4.4"/>
				</g>
				<g id="Grupo_124675" transform="translate(48.144)">
					<line id="Línea_1672" class="st8" x1="4.4" y1="0" x2="4.4" y2="8.8"/>
					<line id="Línea_1673" class="st8" x1="0" y1="4.4" x2="8.8" y2="4.4"/>
				</g>
				<g id="Grupo_124676" transform="translate(72.215)">
					<line id="Línea_1674" class="st8" x1="4.4" y1="0" x2="4.4" y2="8.8"/>
					<line id="Línea_1675" class="st8" x1="0" y1="4.4" x2="8.8" y2="4.4"/>
				</g>
			</g>
			<g id="Grupo_124682" transform="translate(0 18.33)">
				<g id="Grupo_124678">
					<line id="Línea_1676" class="st8" x1="4.4" y1="0" x2="4.4" y2="8.8"/>
					<line id="Línea_1677" class="st8" x1="0" y1="4.4" x2="8.8" y2="4.4"/>
				</g>
				<g id="Grupo_124679" transform="translate(24.072)">
					<line id="Línea_1678" class="st8" x1="4.4" y1="0" x2="4.4" y2="8.8"/>
					<line id="Línea_1679" class="st8" x1="0" y1="4.4" x2="8.8" y2="4.4"/>
				</g>
				<g id="Grupo_124680" transform="translate(48.144)">
					<line id="Línea_1680" class="st8" x1="4.4" y1="0" x2="4.4" y2="8.8"/>
					<line id="Línea_1681" class="st8" x1="0" y1="4.4" x2="8.8" y2="4.4"/>
				</g>
				<g id="Grupo_124681" transform="translate(72.215)">
					<line id="Línea_1682" class="st8" x1="4.4" y1="0" x2="4.4" y2="8.8"/>
					<line id="Línea_1683" class="st8" x1="0" y1="4.4" x2="8.8" y2="4.4"/>
				</g>
			</g>
			<g id="Grupo_124687" transform="translate(0 36.66)">
				<g id="Grupo_124683">
					<line id="Línea_1684" class="st8" x1="4.4" y1="0" x2="4.4" y2="8.8"/>
					<line id="Línea_1685" class="st8" x1="0" y1="4.4" x2="8.8" y2="4.4"/>
				</g>
				<g id="Grupo_124684" transform="translate(24.072)">
					<line id="Línea_1686" class="st8" x1="4.4" y1="0" x2="4.4" y2="8.8"/>
					<line id="Línea_1687" class="st8" x1="0" y1="4.4" x2="8.8" y2="4.4"/>
				</g>
				<g id="Grupo_124685" transform="translate(48.144)">
					<line id="Línea_1688" class="st8" x1="4.4" y1="0" x2="4.4" y2="8.8"/>
					<line id="Línea_1689" class="st8" x1="0" y1="4.4" x2="8.8" y2="4.4"/>
				</g>
				<g id="Grupo_124686" transform="translate(72.215)">
					<line id="Línea_1690" class="st8" x1="4.4" y1="0" x2="4.4" y2="8.8"/>
					<line id="Línea_1691" class="st8" x1="0" y1="4.4" x2="8.8" y2="4.4"/>
				</g>
			</g>
			<g id="Grupo_124692" transform="translate(0 54.99)">
				<g id="Grupo_124688">
					<line id="Línea_1692" class="st8" x1="4.4" y1="0" x2="4.4" y2="8.8"/>
					<line id="Línea_1693" class="st8" x1="0" y1="4.4" x2="8.8" y2="4.4"/>
				</g>
				<g id="Grupo_124689" transform="translate(24.072)">
					<line id="Línea_1694" class="st8" x1="4.4" y1="0" x2="4.4" y2="8.8"/>
					<line id="Línea_1695" class="st8" x1="0" y1="4.4" x2="8.8" y2="4.4"/>
				</g>
				<g id="Grupo_124690" transform="translate(48.144)">
					<line id="Línea_1696" class="st8" x1="4.4" y1="0" x2="4.4" y2="8.8"/>
					<line id="Línea_1697" class="st8" x1="0" y1="4.4" x2="8.8" y2="4.4"/>
				</g>
				<g id="Grupo_124691" transform="translate(72.215)">
					<line id="Línea_1698" class="st8" x1="4.4" y1="0" x2="4.4" y2="8.8"/>
					<line id="Línea_1699" class="st8" x1="0" y1="4.4" x2="8.8" y2="4.4"/>
				</g>
			</g>
		</g>
		<path id="Trazado_174309" class="st3" d="M1265,275.5c-11.5,0-20.8,9.3-20.8,20.8c0,11.5,9.3,20.8,20.8,20.8
			c11.5,0,20.8-9.3,20.8-20.8C1285.8,284.8,1276.5,275.5,1265,275.5C1265,275.5,1265,275.5,1265,275.5z M1265,306
			c-5.4,0-9.7-4.4-9.7-9.7s4.4-9.7,9.7-9.7c5.4,0,9.7,4.4,9.7,9.7S1270.4,306,1265,306L1265,306z"/>
		<g id="Grupo_124746" transform="translate(854.972 204.026)" class="st9">
			<g>
				<defs>
					<circle id="SVGID_1_" cx="44.4" cy="44.4" r="44.4"/>
				</defs>
				<clipPath id="SVGID_00000178884578055233441600000008697814890124619962_">
					<use xlink:href="#SVGID_1_"  style="overflow:visible;"/>
				</clipPath>
				
					<g id="Grupo_124745" transform="translate(0)" style="clip-path:url(#SVGID_00000178884578055233441600000008697814890124619962_);">
					<path id="Trazado_174310" class="st11" d="M33-2.1C20.7,11,7.5,23.1-4.8,36.2"/>
					<path id="Trazado_174311" class="st11" d="M38.6-2.1C24.9,12.5,9.6,26.8-4.8,41.3"/>
					<path id="Trazado_174312" class="st11" d="M43.8-2.1C27.6,14.1,11.2,30.5-4.9,46.6"/>
					<path id="Trazado_174313" class="st11" d="M49-2C31.3,15.7,13.3,33.6-4.9,51.8"/>
					<path id="Trazado_174314" class="st11" d="M55.3-2c-19.8,19.3-39.8,38.9-60.1,59"/>
					<path id="Trazado_174315" class="st11" d="M59.4-2C38.6,19.4,18.1,39.5-3,61.1c-0.5,0.5-1.6,0.5-1.9,1.3"/>
					<path id="Trazado_174316" class="st11" d="M65.2-2.1C52.4,11.5,38.7,23.6,24.9,37.3C14.9,47.9,4.9,56.9-4.7,67.4"/>
					<path id="Trazado_174317" class="st11" d="M68.7-1C44.5,23.6,19.1,47.4-4.8,72.7"/>
					<path id="Trazado_174318" class="st11" d="M68.7,4.2c-24.2,24.2-49,49-73.4,73.5"/>
					<path id="Trazado_174319" class="st11" d="M71.3,7C46,32.6,20.2,57.4-4.7,83"/>
					<path id="Trazado_174320" class="st11" d="M76.6,7C49.2,34.2,22.8,62.1-4.9,88.5"/>
					<path id="Trazado_174321" class="st11" d="M81.4,7.2L-2,90.7"/>
					<path id="Trazado_174322" class="st11" d="M86.6,7.2C58.7,34.7,31.3,62.7,3.1,90.7"/>
					<path id="Trazado_174323" class="st11" d="M89.3,9.6C62.4,36.3,36,63.7,8.3,90.8"/>
					<path id="Trazado_174324" class="st11" d="M89.5,14.6C64,40,39.7,66.4,13.5,90.8"/>
					<path id="Trazado_174325" class="st11" d="M89.3,20.3c-23.7,23.4-47,47.2-70.5,70.5"/>
					<path id="Trazado_174326" class="st11" d="M89.5,25.1C67.7,46.8,46,69,24,90.7"/>
					<path id="Trazado_174327" class="st11" d="M89.4,30.4C69.3,50.5,49.2,70.6,29.2,90.8"/>
					<path id="Trazado_174328" class="st11" d="M89.5,35.6c-18.1,18.6-36.6,37.1-55,55"/>
					<path id="Trazado_174329" class="st11" d="M89.4,41C72.9,57.4,56.1,74.3,39.7,90.7"/>
					<path id="Trazado_174330" class="st11" d="M89.3,46.4C74.5,61.1,59.7,75.9,44.9,90.7"/>
					<path id="Trazado_174331" class="st11" d="M89.4,51.3C79.2,61.5,69,71.7,58.8,81.9c-2.9,2.9-5.8,5.9-8.7,8.8"/>
					<path id="Trazado_174332" class="st11" d="M89.4,57.1c-11.2,11.4-22.8,23-34.1,33.7"/>
				</g>
			</g>
		</g>
		<ellipse id="Elipse_4980" class="st11" cx="1135.4" cy="243.9" rx="4.3" ry="4.3"/>
		<g id="Grupo_124749" transform="translate(1172.136 209.217)">
			<g id="Grupo_124668-2" transform="translate(0 0)">
				<line id="Línea_1655-2" class="st6" x1="8.6" y1="0" x2="0" y2="8.6"/>
				<line id="Línea_1656-2" class="st6" x1="12.8" y1="0" x2="4.2" y2="8.6"/>
				<line id="Línea_1657-2" class="st6" x1="17" y1="0" x2="8.4" y2="8.6"/>
				<line id="Línea_1658-2" class="st6" x1="21.2" y1="0" x2="12.6" y2="8.6"/>
				<line id="Línea_1659-2" class="st6" x1="25.4" y1="0" x2="16.8" y2="8.6"/>
				<line id="Línea_1660-2" class="st6" x1="29.6" y1="0" x2="21" y2="8.6"/>
				<line id="Línea_1661-2" class="st6" x1="33.8" y1="0" x2="25.2" y2="8.6"/>
				<line id="Línea_1662-2" class="st6" x1="38" y1="0" x2="29.4" y2="8.6"/>
				<line id="Línea_1663-2" class="st6" x1="42.2" y1="0" x2="33.6" y2="8.6"/>
				<line id="Línea_1664-2" class="st6" x1="46.4" y1="0" x2="37.8" y2="8.6"/>
				<line id="Línea_1665-2" class="st6" x1="50.6" y1="0" x2="42" y2="8.6"/>
				<line id="Línea_1666-2" class="st6" x1="54.8" y1="0" x2="46.2" y2="8.6"/>
				<line id="Línea_1667-2" class="st6" x1="59" y1="0" x2="50.4" y2="8.6"/>
			</g>
		</g>
	</g>
</g>
</svg>
