<svg xmlns="http://www.w3.org/2000/svg" xmlns:xlink="http://www.w3.org/1999/xlink" width="76" height="76" viewBox="0 0 76 76">
  <defs>
    <clipPath id="clip-path">
      <rect id="Rectángulo_52671" data-name="Rectángulo 52671" width="56.588" height="56.584" fill="#12263f"/>
    </clipPath>
  </defs>
  <g id="Grupo_172830" data-name="Grupo 172830" transform="translate(5590 -3520)">
    <g id="Grupo_172825" data-name="Grupo 172825" transform="translate(5.294 7.084)">
      <g id="Grupo_172820" data-name="Grupo 172820" transform="translate(-5585.294 3522.916)">
        <g id="Grupo_171307" data-name="Grupo 171307" clip-path="url(#clip-path)">
          <path id="Trazado_212435" data-name="Trazado 212435" d="M295.949,23.928a1.481,1.481,0,0,1-1.367.6c-2.888-.024-5.776-.01-8.664-.012-.975,0-1.268-.286-1.291-1.249a12.283,12.283,0,0,0-11.974-11.951c-.925-.021-1.224-.323-1.224-1.255q0-4.421,0-8.841c0-.917.325-1.229,1.249-1.221A23.606,23.606,0,0,1,295.6,19.61c.133.808.232,1.621.348,2.432ZM273.338,9.368c7.689,1.19,12.067,5.592,13.238,13.225h7.437c-.455-11.906-10.6-20.526-20.675-20.622Z" transform="translate(-239.361 0)" fill="#12263f"/>
          <rect id="Rectángulo_52661" data-name="Rectángulo 52661" width="7.545" height="1.849" transform="translate(3.773 54.736)" fill="#12263f"/>
          <rect id="Rectángulo_52662" data-name="Rectángulo 52662" width="7.545" height="1.849" transform="translate(44.327 54.736)" fill="#12263f"/>
          <rect id="Rectángulo_52663" data-name="Rectángulo 52663" width="1.886" height="1.846" transform="translate(0 54.738)" fill="#12263f"/>
          <rect id="Rectángulo_52664" data-name="Rectángulo 52664" width="1.886" height="1.846" transform="translate(53.759 54.738)" fill="#12263f"/>
          <path id="Trazado_212436" data-name="Trazado 212436" d="M12.038,46.631c-.863-.645-1.7-1.29-2.563-1.9a1.153,1.153,0,0,0-.618-.1q-3.949-.009-7.9,0H.288V42.745H.831c2.849,0,5.7-.014,8.546.017a2.144,2.144,0,0,1,1.125.379c1.015.7,1.987,1.467,2.99,2.218a23.831,23.831,0,0,1,5.672-3.49,23.428,23.428,0,0,1,9.091-1.949c.914-.011,1.234.311,1.235,1.236q0,4.391,0,8.783c0,1-.282,1.275-1.3,1.3A12.261,12.261,0,1,0,40.585,65.7a20.519,20.519,0,0,0,.219-2.1c.055-.7.373-1.044,1.077-1.046q4.568-.011,9.136,0c.782,0,1.124.363,1.1,1.188a23.283,23.283,0,0,1-7.375,16.85c-1.013.973-2.159,1.808-3.274,2.73.761.57,1.551,1.181,2.367,1.757a1.143,1.143,0,0,0,.616.1q5.364.009,10.727,0h.678v1.886h-.585c-3.753,0-7.505.013-11.258-.018a2.368,2.368,0,0,1-1.231-.41c-.958-.65-1.854-1.39-2.8-2.057a.843.843,0,0,0-.71-.085,23.4,23.4,0,0,1-22.114-.374c-.069-.036-.143-.064-.258-.115-.863.864-1.72,1.756-2.619,2.6a1.521,1.521,0,0,1-.911.435c-4.341.028-8.683.019-13.072.019V85.186H.911c3.871,0,7.741,0,11.612.008a1.148,1.148,0,0,0,.926-.378c.579-.613,1.194-1.191,1.819-1.809-5.974-4.326-9.516-10.061-10.176-17.4s1.8-13.616,6.946-18.974M29.52,85.146A21.659,21.659,0,0,0,50.177,64.471H42.67A14.245,14.245,0,0,1,29.52,77.623ZM6.894,62.521h7.447c1.184-7.667,5.578-12.052,13.231-13.236V41.868A21.651,21.651,0,0,0,6.894,62.521m0,1.946A21.654,21.654,0,0,0,27.572,85.119V77.7q-11.5-1.775-13.233-13.232Z" transform="translate(-0.254 -35.204)" fill="#12263f"/>
          <path id="Trazado_212437" data-name="Trazado 212437" d="M171.4,145.088c0-.593,0-1.1,0-1.611.005-.891.32-1.213,1.2-1.217.839,0,1.679,0,2.575,0,0-.9,0-1.735,0-2.575,0-.878.326-1.194,1.217-1.2.823,0,1.646,0,2.554,0,0-.589-.006-1.15,0-1.711.01-.771.347-1.111,1.119-1.116q1.709-.012,3.418,0c.77.005,1.117.348,1.117,1.119q.007,7.367,0,14.735c0,.769-.349,1.118-1.119,1.119q-7.367.006-14.735,0c-.771,0-1.115-.348-1.118-1.117q-.011-2.652,0-5.3c0-.772.345-1.111,1.116-1.119.861-.008,1.722,0,2.654,0m11.279-7.5h-1.82v13.129h1.82ZM177.1,150.7h1.817V140.4H177.1Zm-3.771,0h1.815v-6.528h-1.815Zm-1.973-3.694h-1.805v3.72h1.805Z" transform="translate(-147.823 -119.627)" fill="#12263f"/>
          <rect id="Rectángulo_52665" data-name="Rectángulo 52665" width="4.662" height="1.793" transform="translate(3.812 2.875)" fill="#12263f"/>
          <rect id="Rectángulo_52666" data-name="Rectángulo 52666" width="1.815" height="1.813" transform="translate(0.041 2.852)" fill="#12263f"/>
          <rect id="Rectángulo_52667" data-name="Rectángulo 52667" width="1.83" height="1.82" transform="translate(21.725 33.977)" fill="#12263f"/>
          <rect id="Rectángulo_52668" data-name="Rectángulo 52668" width="1.81" height="1.82" transform="translate(25.508 33.987)" fill="#12263f"/>
          <rect id="Rectángulo_52669" data-name="Rectángulo 52669" width="1.792" height="1.834" transform="translate(29.282 33.989)" fill="#12263f"/>
          <rect id="Rectángulo_52670" data-name="Rectángulo 52670" width="1.82" height="1.83" transform="translate(33.038 33.972)" fill="#12263f"/>
        </g>
      </g>
    </g>
    <rect id="Rectángulo_53194" data-name="Rectángulo 53194" width="76" height="76" transform="translate(-5590 3520)" fill="none"/>
  </g>
</svg>
