<svg xmlns="http://www.w3.org/2000/svg" xmlns:xlink="http://www.w3.org/1999/xlink" width="116" height="116" viewBox="0 0 116 116">
  <defs>
    <filter id="Elipse_6170" x="0" y="0" width="116" height="116" filterUnits="userSpaceOnUse">
      <feOffset dy="3" input="SourceAlpha"/>
      <feGaussianBlur stdDeviation="3" result="blur"/>
      <feFlood flood-opacity="0.161"/>
      <feComposite operator="in" in2="blur"/>
      <feComposite in="SourceGraphic"/>
    </filter>
  </defs>
  <g id="Grupo_172820" data-name="Grupo 172820" transform="translate(10536.996 8082.682)">
    <g transform="matrix(1, 0, 0, 1, -10537, -8082.68)" filter="url(#Elipse_6170)">
      <circle id="Elipse_6170-2" data-name="Elipse 6170" cx="49" cy="49" r="49" transform="translate(9 6)" fill="#fff"/>
    </g>
    <g id="RuyExm.tif" transform="translate(-13430.797 -2860.483)">
      <g id="Grupo_166685" data-name="Grupo 166685" transform="translate(2916 -5199)">
        <path id="Trazado_210962" data-name="Trazado 210962" d="M2988.958-5082.062a10.86,10.86,0,0,1-.6-2.421c-.064-3.877-.075-7.758,0-11.635a2.283,2.283,0,0,0-1.366-2.513c-1.793-.759-2.31-2.123-2.129-3.994a28.877,28.877,0,0,0,.014-4.614c-.224-3.475,1.009-6.006,4.436-7.173-1.428-4.157-.976-6.549,1.532-8.295a5.7,5.7,0,0,1,7.017.334c2.181,1.842,2.551,4.429,1.036,7.86.4.2.81.4,1.216.608a5.622,5.622,0,0,1,3.256,5.182c.046,2.215-.093,4.438.047,6.646a2.938,2.938,0,0,1-1.827,3.238c-1.375.612-1.716,1.636-1.678,3.089.1,3.753.068,7.511,0,11.266a10.938,10.938,0,0,1-.6,2.421Zm8.614-2.512v-2.075c0-3.566-.052-7.134.044-10.7.02-.748.4-1.894.943-2.148,2.358-1.1,2.849-2.9,2.565-5.246-.147-1.212.009-2.458-.037-3.686-.087-2.359-1.33-3.666-3.664-3.746-2.15-.073-4.3-.064-6.455,0-2.459.066-3.727,1.356-3.785,3.809-.047,1.967-.083,3.939.031,5.9a2.362,2.362,0,0,0,.915,1.757c2.234,1.064,2.769,2.745,2.617,5.089-.2,3.061-.048,6.145-.048,9.22v1.827Zm-3.525-36.833a3.364,3.364,0,0,0-3.329,3.606,3.36,3.36,0,0,0,3.5,3.246,3.363,3.363,0,0,0,3.328-3.6A3.358,3.358,0,0,0,2994.047-5121.407Z" transform="translate(-2959.377 5151.578)" fill="#178dea"/>
        <path id="Trazado_210963" data-name="Trazado 210963" d="M3068.43-5187.167c-.165.517-.338,1.031-.493,1.552a10.391,10.391,0,0,1-11.159,7.406,10.269,10.269,0,0,1-9.184-9.51,10.416,10.416,0,0,1,7.623-10.845c.465-.13.921-.29,1.381-.436h2.588c2.075,1.093,4.518,1.811,6.117,3.386,1.505,1.483,2.12,3.869,3.127,5.858Zm-3.851,3.14a7.971,7.971,0,0,0-1.719-10.883,8.1,8.1,0,0,0-10.885.949c-2.607,2.837-2.849,7.287-.921,9.4l2.944-2.51c-1.058-2.719-.758-4.7,1.031-6.164a4.547,4.547,0,0,1,5.342-.321c2.62,1.782,2.6,4.2,1.438,6.635Zm-6.625,3.744c1.132-.311,2.308-.609,3.468-.959,1.268-.382,1.183-1.179.608-2.122-1.416-2.322-6.579-2.407-8.1-.137-.739,1.1-.695,1.938.722,2.345C3055.7-5180.856,3056.76-5180.6,3057.954-5180.283Zm.179-7.118a2.2,2.2,0,0,0,2.1-2.254,2.275,2.275,0,0,0-2.372-2.3,2.212,2.212,0,0,0-2.217,2.268A2.265,2.265,0,0,0,3058.133-5187.4Z" transform="translate(-2998.914 5199)" fill="#178dea"/>
        <path id="Trazado_210964" data-name="Trazado 210964" d="M2916-5130.313c.168-.514.348-1.024.5-1.542a10.454,10.454,0,0,1,11.749-7.318,10.383,10.383,0,0,1,8.61,10.081,10.388,10.388,0,0,1-8.83,10.448,10.405,10.405,0,0,1-11.4-7.032c-.191-.566-.418-1.12-.629-1.68Zm6.628,2.945c-1.179-2.862-.86-4.853,1.013-6.336a4.524,4.524,0,0,1,5.647-.042c1.864,1.414,2.188,3.42,1.19,6.1l2.745,3.077a7.985,7.985,0,0,0-1.6-10.6,8.069,8.069,0,0,0-10.635.338,7.8,7.8,0,0,0-1.1,10.33Zm-.719,5.082a8.4,8.4,0,0,0,7.855.752c1.521-.558,1.444-1.442.632-2.508-1.49-1.958-3.641-1.535-5.61-1.335C2923.177-5125.213,2922.206-5124.089,2921.91-5122.286Zm4.544-10.109a2.313,2.313,0,0,0-2.264,2.243,2.364,2.364,0,0,0,2.318,2.386,2.345,2.345,0,0,0,2.269-2.429A2.292,2.292,0,0,0,2926.454-5132.395Z" transform="translate(-2916 5161.374)" fill="#178dea"/>
        <path id="Trazado_210965" data-name="Trazado 210965" d="M2945.628-5199a3.243,3.243,0,0,1,.653.868c.715,2.331,2.044,3.689,4.7,3.676,1.175-.005,1.438.988.731,2.006a2.185,2.185,0,0,1-.5.533,3.8,3.8,0,0,0-1.5,4.618,5.117,5.117,0,0,1-.3,2.012,5.151,5.151,0,0,1-2-.4,3.389,3.389,0,0,0-4.473.031c-.486.353-1.316.229-1.99.323a5.905,5.905,0,0,1-.233-2.042,3.857,3.857,0,0,0-1.407-4.51c-.489-.372-.632-1.2-.934-1.814a6.029,6.029,0,0,1,1.871-.867,3.444,3.444,0,0,0,3.473-2.615,7.611,7.611,0,0,1,1.174-1.815Zm2.274,6.681-2.657-1.91-2.736,1.878,1.12,3.327h3.205Z" transform="translate(-2930.098 5199)" fill="#178dea"/>
        <path id="Trazado_210966" data-name="Trazado 210966" d="M2991.88-5199c2.615.624,5.24,1.215,7.842,1.891a22.9,22.9,0,0,1,2.689,1.073l-.853,2.085a29.942,29.942,0,0,0-23.347-.5l-1.071-2.291L2986.7-5199Z" transform="translate(-2954.533 5199)" fill="#178dea"/>
        <path id="Trazado_210967" data-name="Trazado 210967" d="M2991.9-5173.848c1.722,0,3.443.028,5.164-.009,1.248-.027,1.8.529,1.784,1.767q-.038,2.86,0,5.717c.018,1.212-.455,1.956-1.735,1.749-1.66-.27-2.332.52-2.508,2.025a2.8,2.8,0,0,1-.283,1.061c-.314.545-.672,1.392-1.1,1.453-.467.065-1.093-.57-1.551-1a7.108,7.108,0,0,1-1.114-1.463c-.888-1.448-1.942-2.44-3.856-2.082-1.239.233-1.767-.476-1.734-1.729.05-1.9.046-3.812,0-5.716-.029-1.264.543-1.793,1.771-1.775C2988.457-5173.831,2990.178-5173.848,2991.9-5173.848Zm-4.536,2.451v4.625c2.7-.947,3.76,1.1,5.381,3.244-.2-3.306,1.568-3.651,3.651-3.37v-4.5Z" transform="translate(-2959.463 5183.154)" fill="#178dea"/>
        <path id="Trazado_210968" data-name="Trazado 210968" d="M3027.763-5158.487l.836-2.038c6.094,2.707,10.105,7.085,11.62,13.457,1.876,7.9-.514,14.537-6.595,20.027a10.774,10.774,0,0,1-.815-.771,10.447,10.447,0,0,1-.623-.884C3042.3-5137.486,3039.93-5152.917,3027.763-5158.487Z" transform="translate(-2986.437 5174.751)" fill="#178dea"/>
        <path id="Trazado_210969" data-name="Trazado 210969" d="M3069.832-5081.368c.492-.421.842-.769,1.238-1.052a3.427,3.427,0,0,1,4.524.4,3.3,3.3,0,0,1,.267,4.386,61.062,61.062,0,0,1-5.207,5.2,2.114,2.114,0,0,1-1.973-.266c-1.573-1.365-3.025-2.877-4.459-4.394a3.4,3.4,0,0,1-.157-4.946,3.535,3.535,0,0,1,4.97-.012C3069.268-5081.857,3069.494-5081.655,3069.832-5081.368Zm-.063,7c1.271-1.4,2.238-2.432,3.164-3.5.633-.729,2.009-1.428.882-2.538-1.156-1.141-1.868.282-2.5.959-1.129,1.21-2.062,1.108-3.049-.1-.233-.283-.477-.654-.791-.755a8.081,8.081,0,0,0-1.633-.2c.006.6-.232,1.386.06,1.76C3067.026-5077.288,3068.319-5075.975,3069.769-5074.366Z" transform="translate(-3008.689 5125.948)" fill="#178dea"/>
        <path id="Trazado_210970" data-name="Trazado 210970" d="M2935.191-5077.058c.417-.273.612-.422.826-.534.323-.171.66-.317,1.165-.556a29.652,29.652,0,0,0,17.633,14.387l-.575,2.218A31.639,31.639,0,0,1,2935.191-5077.058Z" transform="translate(-2928.095 5122.835)" fill="#178dea"/>
        <path id="Trazado_210971" data-name="Trazado 210971" d="M3086.671-5119.157l-2.152-.676a30.309,30.309,0,0,0,.305-16.589l2.165-.685A31.6,31.6,0,0,1,3086.671-5119.157Z" transform="translate(-3022.207 5159.992)" fill="#178dea"/>
        <path id="Trazado_210972" data-name="Trazado 210972" d="M3031.5-5049.171l12-6.75,1.357,1.134a31.044,31.044,0,0,1-12.761,7.255c-.167-.394-.32-.707-.434-1.033A5.189,5.189,0,0,1,3031.5-5049.171Z" transform="translate(-2988.791 5108.827)" fill="#178dea"/>
        <path id="Trazado_210973" data-name="Trazado 210973" d="M2968.245-5153.145l1.507,1.772-4.2,4.921-1.99-1.143Z" transform="translate(-2945.976 5170.101)" fill="#178dea"/>
        <path id="Trazado_210974" data-name="Trazado 210974" d="M2963.4-5086.29l2.057-1.11,4.186,4.846-1.441,1.809Z" transform="translate(-2945.871 5128.666)" fill="#178dea"/>
        <path id="Trazado_210975" data-name="Trazado 210975" d="M2931.916-5154.794l2.39-4.6,1.963,1.2-2.208,4.23Z" transform="translate(-2926.031 5174.037)" fill="#178dea"/>
      </g>
    </g>
  </g>
</svg>
