<svg xmlns="http://www.w3.org/2000/svg" xmlns:xlink="http://www.w3.org/1999/xlink" width="116" height="116" viewBox="0 0 116 116">
  <defs>
    <filter id="Elipse_6172" x="0" y="0" width="116" height="116" filterUnits="userSpaceOnUse">
      <feOffset dy="3" input="SourceAlpha"/>
      <feGaussianBlur stdDeviation="3" result="blur"/>
      <feFlood flood-opacity="0.161"/>
      <feComposite operator="in" in2="blur"/>
      <feComposite in="SourceGraphic"/>
    </filter>
    <clipPath id="clip-path">
      <rect id="Rectángulo_52491" data-name="Rectángulo 52491" width="59.361" height="66.337" fill="#178dea"/>
    </clipPath>
  </defs>
  <g id="Grupo_172825" data-name="Grupo 172825" transform="translate(10612 7895)">
    <g transform="matrix(1, 0, 0, 1, -10612, -7895)" filter="url(#Elipse_6172)">
      <circle id="Elipse_6172-2" data-name="Elipse 6172" cx="49" cy="49" r="49" transform="translate(9 6)" fill="#fff"/>
    </g>
    <g id="Grupo_172823" data-name="Grupo 172823" transform="translate(-10584.109 -7873.182)">
      <g id="Grupo_171254" data-name="Grupo 171254" clip-path="url(#clip-path)">
        <path id="Trazado_212244" data-name="Trazado 212244" d="M0,3.107c.088-.215.178-.43.263-.646A3.833,3.833,0,0,1,3.819,0Q26.164,0,48.509,0a3.825,3.825,0,0,1,3.819,3.841q.012,12.859,0,25.719a1.3,1.3,0,1,1-2.583,0q0-12.568,0-25.136c0-1.445-.4-1.843-1.852-1.843H4.434c-1.448,0-1.846.4-1.846,1.848q0,28.731,0,57.462c0,1.45.4,1.85,1.845,1.85q14.249,0,28.5,0c1.039,0,1.741.676,1.48,1.535-.122.4-.564.7-.86,1.053H3.109c-.424-.192-.865-.352-1.267-.583A4.347,4.347,0,0,1,0,63.227V3.107" transform="translate(0 0)" fill="#178dea"/>
        <path id="Trazado_212245" data-name="Trazado 212245" d="M251.429,320.4c-1.02-.252-2.064-.433-3.056-.768a13.7,13.7,0,0,1-6.577-21.117c.1-.139.2-.277.3-.417a.935.935,0,0,0,.028-.188c-.533,0-1.053,0-1.572,0-.345,0-.692.011-1.036-.01a1.3,1.3,0,0,1-.351-2.56c.1-.036.2-.066.507-.163-.421-.36-.788-.625-1.094-.947a1.3,1.3,0,1,1,1.825-1.849,10.142,10.142,0,0,1,.805.948,5.486,5.486,0,0,1,1.028-1.192,1.223,1.223,0,0,1,1.824,1.049c.058.9.013,1.8.013,2.812.223-.128.35-.185.459-.266a13.739,13.739,0,1,1,10.17,24.543,2.776,2.776,0,0,0-.429.125Zm-7.24-20.648a11.08,11.08,0,1,0,1.72-1.74c.475.426.972.809,1.39,1.264.355.387.6.424,1.069.128a8.55,8.55,0,1,1-2.99,11.4,8.351,8.351,0,0,1,.258-8.735c.139-.233.377-.416.069-.718-.522-.513-1.008-1.062-1.516-1.6m3.736,3.7a5.913,5.913,0,1,0,9.334-.761c-1.984-2.162-5.485-2.641-7.6-.94a11.4,11.4,0,0,1,1.019.909.9.9,0,0,0,1.108.285,3.821,3.821,0,0,1,4.376,1.675,3.894,3.894,0,0,1-4.878,5.615,3.66,3.66,0,0,1-2.242-4.093,1.959,1.959,0,0,0-.824-2.264,2.223,2.223,0,0,1-.294-.426m3.677,3.368c.228.8.744,1.209,1.375,1.132a1.349,1.349,0,0,0,1.167-1.266,1.247,1.247,0,0,0-1.158-1.235,1.5,1.5,0,0,1-1.383,1.368" transform="translate(-207.256 -254.063)" fill="#178dea"/>
        <path id="Trazado_212246" data-name="Trazado 212246" d="M83.539,79.227h4.636V78.5q0-7.191,0-14.381a1.289,1.289,0,0,1,1.165-1.445,1.264,1.264,0,0,1,1.414,1.257c.022.69.006,1.382.006,2.073q0,7.093,0,14.187c0,1.242-.416,1.651-1.678,1.651H53.592c-1.292,0-1.687-.4-1.687-1.706q0-9.425,0-18.851a2.853,2.853,0,0,1,.078-.829,1.286,1.286,0,0,1,2.5.491c.007,3.131,0,6.262,0,9.393v.935c.243-.226.4-.369.557-.521q4.9-4.9,9.8-9.8c1.009-1.009,1.56-1.016,2.557-.021q3.53,3.523,7.055,7.051c.151.151.309.3.505.481.183-.17.356-.321.518-.483Q81.9,61.572,88.309,55.162a2.866,2.866,0,0,1,.814-.618,1.26,1.26,0,0,1,1.49.467,1.23,1.23,0,0,1-.1,1.607c-.416.467-.874.9-1.316,1.339-1.77,1.772-3.547,3.537-5.3,5.323a1.238,1.238,0,0,0-.373.755c-.022,4.966-.016,9.932-.014,14.9,0,.083.017.166.03.295m-17.187,0a.835.835,0,0,0,.051-.171q.006-7.545,0-15.09a2.655,2.655,0,0,0-.2-.648c-1.422,1.419-2.762,2.729-4.061,4.077a1.5,1.5,0,0,0-.381.942c-.027,3.411-.017,6.822-.017,10.233v.656ZM69.04,66.283v12.93h4.626c0-2.715,0-5.385-.01-8.055a.8.8,0,0,0-.234-.491C72,69.228,70.561,67.8,69.04,66.283m11.85-.014c-1.5,1.5-2.894,2.873-4.258,4.284a1.42,1.42,0,0,0-.363.886c-.029,2.395-.016,4.79-.016,7.185v.6H80.89ZM59.121,70.4c-1.552,1.551-3.026,3.022-4.495,4.5a.449.449,0,0,0-.128.28c-.008,1.349-.006,2.7-.006,4.03h4.628Z" transform="translate(-45.166 -47.384)" fill="#178dea"/>
        <path id="Trazado_212247" data-name="Trazado 212247" d="M59.143,293.422c1.9,0,3.793,0,5.69,0a1.3,1.3,0,1,1,.011,2.583q-5.755.006-11.509,0a1.3,1.3,0,1,1-.011-2.582c1.94-.006,3.88,0,5.819,0" transform="translate(-45.175 -255.329)" fill="#178dea"/>
        <path id="Trazado_212248" data-name="Trazado 212248" d="M59.074,343.92c-1.9,0-3.793,0-5.69,0-.9,0-1.457-.488-1.468-1.271-.011-.813.548-1.312,1.49-1.313q5.69,0,11.38,0c.947,0,1.507.493,1.5,1.3s-.565,1.28-1.523,1.282q-2.845,0-5.69,0" transform="translate(-45.176 -297.02)" fill="#178dea"/>
        <path id="Trazado_212249" data-name="Trazado 212249" d="M59.084,391.825c-1.9,0-3.793,0-5.69,0-.936,0-1.5-.509-1.48-1.324.015-.782.567-1.26,1.477-1.261q5.722,0,11.445,0a1.3,1.3,0,1,1,0,2.583c-1.918.005-3.836,0-5.755,0" transform="translate(-45.174 -338.706)" fill="#178dea"/>
        <path id="Trazado_212250" data-name="Trazado 212250" d="M59.133,437.147q2.813,0,5.625,0c.962,0,1.52.471,1.529,1.275s-.552,1.309-1.495,1.31q-5.69,0-11.38,0c-.944,0-1.5-.5-1.5-1.308s.565-1.275,1.526-1.277q2.845,0,5.69,0" transform="translate(-45.177 -380.396)" fill="#178dea"/>
        <path id="Trazado_212251" data-name="Trazado 212251" d="M54.5,55.22a1.292,1.292,0,1,1-1.289-1.31A1.276,1.276,0,0,1,54.5,55.22" transform="translate(-45.173 -46.911)" fill="#178dea"/>
        <path id="Trazado_212252" data-name="Trazado 212252" d="M383.194,254.8a1.291,1.291,0,1,1,1.3,1.3,1.274,1.274,0,0,1-1.3-1.3" transform="translate(-333.447 -220.606)" fill="#178dea"/>
      </g>
    </g>
  </g>
</svg>
