<svg xmlns="http://www.w3.org/2000/svg" xmlns:xlink="http://www.w3.org/1999/xlink" width="116" height="116" viewBox="0 0 116 116">
  <defs>
    <filter id="Elipse_6171" x="0" y="0" width="116" height="116" filterUnits="userSpaceOnUse">
      <feOffset dy="3" input="SourceAlpha"/>
      <feGaussianBlur stdDeviation="3" result="blur"/>
      <feFlood flood-opacity="0.161"/>
      <feComposite operator="in" in2="blur"/>
      <feComposite in="SourceGraphic"/>
    </filter>
  </defs>
  <g id="Grupo_172821" data-name="Grupo 172821" transform="translate(10991 8116)">
    <g transform="matrix(1, 0, 0, 1, -10991, -8116)" filter="url(#Elipse_6171)">
      <circle id="Elipse_6171-2" data-name="Elipse 6171" cx="49" cy="49" r="49" transform="translate(9 6)" fill="#fff"/>
    </g>
    <path id="Trazado_210977" data-name="Trazado 210977" d="M3308.679-5437.8c4.235.968,6.454,3.5,6.874,7.614,3.849-2.408,7.088-9.37,3.756-16.035a13.071,13.071,0,0,0-19.061-4.821l-1.434-2.017a15.411,15.411,0,0,1,16.342-.99,15.657,15.657,0,0,1,8.078,15.035,15.621,15.621,0,0,1-4.511,9.626,15.56,15.56,0,0,1-9.7,4.526c0,1.087-.011,2.131.011,3.175a.8.8,0,0,0,.254.472c1.5,1.512,3.015,3.015,4.592,4.588a15.541,15.541,0,0,1,13.461-5.523,14.93,14.93,0,0,1,8.425,3.489l-1.619,1.961a12.93,12.93,0,0,0-12.21-2.308,12.449,12.449,0,0,0-7.513,6.266c-3.494,6.587-.452,13.61,3.621,16.288.416-4.117,2.631-6.652,6.9-7.633a6.8,6.8,0,0,1-4.6-3.1,6.288,6.288,0,0,1-.651-5.294,6.494,6.494,0,0,1,6.863-4.53,6.529,6.529,0,0,1,5.779,5.864c.3,3.3-1.722,5.964-5.477,7.053,4.164.958,6.428,3.484,6.84,7.625,4.413-2.807,7.8-11.195,2.209-18.443l1.942-1.643a14.192,14.192,0,0,1,2.737,4.83,15.586,15.586,0,0,1-15.647,20.6,15.565,15.565,0,0,1-12.937-22.528,1,1,0,0,0-.243-1.418c-1.343-1.289-2.64-2.626-4.052-4.041-.839.851-1.645,1.672-2.455,2.49-.57.576-1.123,1.172-1.727,1.71a.758.758,0,0,0-.169,1.1,15.26,15.26,0,0,1,1.593,9.5,3.848,3.848,0,0,1-.132.457l-2.458-.435a13.023,13.023,0,0,0-3.7-11.589,12.7,12.7,0,0,0-7.99-3.7,12.982,12.982,0,0,0-13.51,9.162c-1.868,6.077,1.207,11.814,4.572,13.969.416-4.116,2.633-6.649,6.917-7.633a6.76,6.76,0,0,1-4.581-3.031,6.281,6.281,0,0,1-.733-5.21,6.487,6.487,0,0,1,6.757-4.688,6.527,6.527,0,0,1,5.926,5.805c.359,3.284-1.631,5.94-5.452,7.133,4.154.951,6.412,3.481,6.83,7.713a13.11,13.11,0,0,0,3.965-4.874l2.276,1.044a15.373,15.373,0,0,1-14.916,9.083,15.607,15.607,0,0,1-14.33-12.146,15.566,15.566,0,0,1,7.592-16.966,15.666,15.666,0,0,1,19.575,3.606c.263-.257.526-.51.783-.767,1.223-1.222,2.46-2.431,3.654-3.68a1.652,1.652,0,0,0,.4-.972c.054-.913.019-1.832.019-2.748-7.3-1.156-12.182-5.088-13.88-12.342-1.22-5.211.27-9.854,3.849-13.938.37.35.67.648.987.927.3.265.618.51.919.755-6.365,7.313-3.027,16.23,1.567,19.209a8.126,8.126,0,0,1,6.917-7.621,6.805,6.805,0,0,1-4.631-3.164,6.32,6.32,0,0,1-.569-5.381,6.513,6.513,0,0,1,6.817-4.379,6.527,6.527,0,0,1,5.79,5.942C3314.442-5441.486,3312.431-5438.87,3308.679-5437.8Zm-1.17,10.549c1.4-.245,2.579-.385,3.725-.665,1.747-.427,1.762-.469,1.669-2.255a4.972,4.972,0,0,0-2.947-4.5,4.919,4.919,0,0,0-5.345.538,5.463,5.463,0,0,0-2.085,5c.02.478.131.768.606.876C3304.647-5427.9,3306.162-5427.556,3307.509-5427.248Zm-18.149,33.709a34.828,34.828,0,0,0,3.633-.651c2.239-.653,1.8-.246,1.731-2.424a4.8,4.8,0,0,0-2.918-4.339,4.915,4.915,0,0,0-5.215.44,5.412,5.412,0,0,0-2.222,5.015c.019.541.13.865.68.987C3286.542-5394.182,3288.03-5393.839,3289.36-5393.538Zm36.412.044.052-.159c.67-.066,1.344-.11,2.01-.205a12.722,12.722,0,0,0,1.5-.318c1.8-.484,1.823-.491,1.721-2.3a4.974,4.974,0,0,0-2.968-4.484,4.924,4.924,0,0,0-5.279.512c-1.844,1.332-2.267,3.259-2.09,5.384.015.182.31.438.518.491C3322.743-5394.191,3324.259-5393.849,3325.772-5393.494Zm-18.062-46.885a3.9,3.9,0,0,0,3.9-3.825,3.9,3.9,0,0,0-3.867-3.945,3.9,3.9,0,0,0-3.9,3.824A3.9,3.9,0,0,0,3307.71-5440.379Zm-18.144,33.714a3.9,3.9,0,0,0,3.9-3.835,3.9,3.9,0,0,0-3.877-3.936,3.9,3.9,0,0,0-3.895,3.834A3.9,3.9,0,0,0,3289.566-5406.665Zm36.355,0a3.9,3.9,0,0,0,3.847-3.883,3.9,3.9,0,0,0-3.925-3.888,3.9,3.9,0,0,0-3.847,3.882A3.9,3.9,0,0,0,3325.92-5406.665Z" transform="translate(-14241.018 -2637.078)" fill="#178dea"/>
  </g>
</svg>
