<svg xmlns="http://www.w3.org/2000/svg" width="112" height="112" viewBox="0 0 112 112">
  <g id="Grupo_172828" data-name="Grupo 172828" transform="translate(5222.554 -1273.564)">
    <circle id="Elipse_6111" data-name="Elipse 6111" cx="56" cy="56" r="56" transform="translate(-5222.554 1273.564)" fill="#12263f"/>
    <g id="SnLQDX.tif" transform="translate(-3598.953 5250.569)">
      <g id="Grupo_155565" data-name="Grupo 155565" transform="translate(-1603.63 -3954.45)">
        <path id="Trazado_197608" data-name="Trazado 197608" d="M-1551.478-3891.851h-23.49c-.5-.308-.912-.67-.729-1.344.195-.717.755-.8,1.376-.78.186.006.373,0,.559,0h21.38v-10.963h-31.162v10.966c1.322,0,2.6-.012,3.871,0,.7.009,1.251.466,1.12,1.037-.091.4-.49.722-.751,1.079h-5.173a2.284,2.284,0,0,1-1.258-2.395c.067-1.2.015-2.409.015-3.7h-.817c-1.978,0-3.956.009-5.934-.006a6.711,6.711,0,0,1-1.522-.137,4.25,4.25,0,0,1-3.258-4.244c-.022-.828,0-1.656,0-2.522-.759,0-1.409-.014-2.059,0a1.2,1.2,0,0,1-1.248-.57,1.174,1.174,0,0,1,.242-1.347c.915-1.261,1.837-2.516,2.719-3.8a2.063,2.063,0,0,0,.329-1.017c.045-.882,0-1.768.022-2.651.012-.438-.1-.611-.579-.735a7.365,7.365,0,0,1-5.657-5.722,2.8,2.8,0,0,0-.147-.372v-2.236a2.858,2.858,0,0,0,.139-.384,7.144,7.144,0,0,1,3.492-4.905,23.981,23.981,0,0,1,2.746-1.169v-.738q0-6.6,0-13.2a4.3,4.3,0,0,1,4.641-4.672c2.027-.014,4.053,0,6.08,0h.813c0-1.339,0-2.592,0-3.846,0-1.627.6-2.234,2.222-2.234h30.961c1.742,0,2.307.558,2.308,2.278,0,1.248,0,2.495,0,3.766h3.414c1.389-4.031,4.49-6.293,7.98-5.85a7.521,7.521,0,0,1,6.774,6.7,7.562,7.562,0,0,1-6.313,8.132v12.635c.707,0,1.358.013,2.009,0a1.194,1.194,0,0,1,1.247.572,1.177,1.177,0,0,1-.248,1.348c-.9,1.244-1.814,2.479-2.677,3.75a2.185,2.185,0,0,0-.371,1.142c-.026,4.052-.016,8.1-.016,12.155v.706c.278.07.5.129.725.183a7.5,7.5,0,0,1,5.632,8.077,7.475,7.475,0,0,1-7.312,6.585,7.467,7.467,0,0,1-7.185-5.1c-.073-.209-.258-.534-.4-.54-1.064-.046-2.131-.025-3.255-.025,0,1.285-.054,2.5.016,3.7A2.223,2.223,0,0,1-1551.478-3891.851Zm1.251-54.343c0,1.728.007,3.4,0,5.074a1.723,1.723,0,0,1-1.856,1.883c-1.048.011-2.1,0-3.145,0-.855,0-1.365-.4-1.367-1.058s.486-1.04,1.365-1.044c.947,0,1.893,0,2.847,0v-10.954h-31.152v10.954h22.478c.233,0,.466,0,.7.01a.992.992,0,0,1,.987.984,1.033,1.033,0,0,1-.956,1.094c-.509.041-1.024.015-1.537.016h-4.96v6.471h.895q6.745,0,13.49,0c1.622,0,2.216.6,2.216,2.239q0,7.51,0,15.021c0,1.8-.527,2.328-2.326,2.329q-6.744,0-13.489,0c-.267,0-.535.023-.8.036v6.061h.79q6.919,0,13.839,0a1.754,1.754,0,0,1,1.99,1.961c0,.908,0,1.816,0,2.724v2.258h3.267a7.631,7.631,0,0,1,6.364-6.987,2.216,2.216,0,0,0,.036-.282c0-4.285.007-8.57-.009-12.854a1.421,1.421,0,0,0-.273-.751c-.935-1.334-1.923-2.632-2.821-3.99a1.422,1.422,0,0,1-.14-1.206,1.534,1.534,0,0,1,1.072-.559,17.344,17.344,0,0,1,2.139-.025v-12.645a7.619,7.619,0,0,1-6.353-6.763Zm-35.49,46.1c0-1.7,0-3.308,0-4.913,0-1.436.649-2.072,2.1-2.073q6.851,0,13.7,0h.811v-6.1H-1570q-6.781,0-13.562,0c-1.555,0-2.158-.613-2.159-2.159q0-7.582,0-15.163c0-1.661.606-2.264,2.274-2.265h14.37v-6.471h-.851q-6.921,0-13.841,0a1.76,1.76,0,0,1-1.951-1.941c-.006-.489,0-.978,0-1.467v-3.59c-2.37,0-4.65,0-6.929,0a2.187,2.187,0,0,0-2.473,2.492q0,6.708,0,13.416v.7c.474.128.908.213,1.32.362a7.346,7.346,0,0,1,4.614,4.542,1.052,1.052,0,0,1-.561,1.394,1.067,1.067,0,0,1-1.39-.6c-.1-.208-.177-.43-.279-.638a5.321,5.321,0,0,0-6.627-2.64,5.341,5.341,0,0,0-3.307,6.322,5.351,5.351,0,0,0,4.632,3.969,5.328,5.328,0,0,0,5.194-2.724c.461-.79.969-1.018,1.564-.7.622.33.73.95.281,1.743a7.216,7.216,0,0,1-4.883,3.639c-.5.111-.574.314-.564.74.022.907-.017,1.817.02,2.724a1.758,1.758,0,0,0,.289.887c.929,1.338,1.923,2.633,2.819,3.992a1.437,1.437,0,0,1,.107,1.208,1.426,1.426,0,0,1-1.017.534,19.266,19.266,0,0,1-2.191.024c0,1.045-.054,2.021.016,2.988a2,2,0,0,0,1.82,1.757C-1590.778-3900.062-1588.29-3900.09-1585.717-3900.09Zm2.172-30.481v15.21h31.172v-15.21Zm38.752-16.267a5.322,5.322,0,0,0,5.3,5.34,5.39,5.39,0,0,0,5.348-5.327,5.34,5.34,0,0,0-5.336-5.317A5.27,5.27,0,0,0-1544.793-3946.839Zm0,47.094a5.34,5.34,0,0,0,5.271,5.378,5.4,5.4,0,0,0,5.378-5.3,5.335,5.335,0,0,0-5.3-5.345A5.263,5.263,0,0,0-1544.792-3899.745Zm5.307-23.037,1.352-1.875h-2.7Zm-58.049,15.788h2.681l-1.339-1.863Z" transform="translate(1603.63 3954.45)" fill="#fff"/>
        <path id="Trazado_197609" data-name="Trazado 197609" d="M-1434.362-3586.178c0,.769.008,1.537,0,2.306a1.5,1.5,0,0,1-1.577,1.655q-2.446.05-4.893,0a1.439,1.439,0,0,1-1.535-1.547q-.046-2.479,0-4.96a1.451,1.451,0,0,1,1.565-1.516q2.411-.032,4.823,0a1.5,1.5,0,0,1,1.613,1.621C-1434.352-3587.809-1434.362-3586.994-1434.362-3586.178Zm-5.842-1.91v3.672h3.689v-3.672Z" transform="translate(1464.973 3641.265)" fill="#fff"/>
        <path id="Trazado_197610" data-name="Trazado 197610" d="M-1362.244-3580.924h-6.43a4.255,4.255,0,0,1-.558-.011,1.025,1.025,0,0,1-1.026-1.029,1.046,1.046,0,0,1,1.029-1.1,4.524,4.524,0,0,1,.558-.014h12.86c.117,0,.233,0,.349,0,.776.038,1.281.487,1.257,1.116a1.12,1.12,0,0,1-1.259,1.032C-1357.724-3580.916-1359.984-3580.924-1362.244-3580.924Z" transform="translate(1402.943 3635.091)" fill="#fff"/>
        <path id="Trazado_197611" data-name="Trazado 197611" d="M-1362.309-3555.192c-2.213,0-4.426,0-6.638,0-.888,0-1.342-.372-1.334-1.059s.486-1.05,1.361-1.05q6.673,0,13.347,0c1.075,0,1.717.847,1.163,1.586a1.6,1.6,0,0,1-1.12.5C-1357.79-3555.168-1360.05-3555.192-1362.309-3555.192Z" transform="translate(1402.963 3612.926)" fill="#fff"/>
        <path id="Trazado_197612" data-name="Trazado 197612" d="M-1427.308-3922.561h11.178a5.188,5.188,0,0,1,.558.008,1.039,1.039,0,0,1,.976,1.076.986.986,0,0,1-.962,1.006c-.231.02-.466.014-.7.014h-22.5c-.94-.009-1.4-.369-1.387-1.076.016-.676.48-1.027,1.374-1.028Q-1433.037-3922.563-1427.308-3922.561Z" transform="translate(1463.037 3927.031)" fill="#fff"/>
        <path id="Trazado_197613" data-name="Trazado 197613" d="M-1394.1-3892.438q-3.105,0-6.211,0a.973.973,0,0,1-1.08-.695,1.369,1.369,0,0,1,.191-1.015,1.268,1.268,0,0,1,.9-.393c4.14-.025,8.281-.021,12.422-.013a1.059,1.059,0,0,1,1.2,1.069c0,.644-.431,1.038-1.21,1.042C-1389.959-3892.429-1392.029-3892.438-1394.1-3892.438Z" transform="translate(1429.738 3902.948)" fill="#fff"/>
        <path id="Trazado_197614" data-name="Trazado 197614" d="M-1572.19-3750.183a4.219,4.219,0,0,1-4.208,4.222,4.234,4.234,0,0,1-4.217-4.217,4.224,4.224,0,0,1,4.214-4.219A4.206,4.206,0,0,1-1572.19-3750.183Zm-4.225-2.076a2.1,2.1,0,0,0-2.093,2.077,2.165,2.165,0,0,0,2.091,2.106,2.108,2.108,0,0,0,2.1-2.139A2.053,2.053,0,0,0-1576.416-3752.259Z" transform="translate(1583.838 3782.415)" fill="#fff"/>
        <path id="Trazado_197615" data-name="Trazado 197615" d="M-1427.361-3765.219q5.554,0,11.108,0c.233,0,.466,0,.7.018a.989.989,0,0,1,.982.988,1.062,1.062,0,0,1-.954,1.1,2.846,2.846,0,0,1-.419.011q-11.388,0-22.776,0a2.133,2.133,0,0,1-.748-.107.955.955,0,0,1-.629-1.116.931.931,0,0,1,.862-.863,5.729,5.729,0,0,1,.767-.031Q-1432.915-3765.22-1427.361-3765.219Z" transform="translate(1463.014 3791.721)" fill="#fff"/>
        <path id="Trazado_197616" data-name="Trazado 197616" d="M-1427.347-3735h-11.248a2.91,2.91,0,0,1-.627-.018.991.991,0,0,1-.87-1.088.948.948,0,0,1,.9-.978,5.44,5.44,0,0,1,.7-.02h22.357c1.084,0,1.576.32,1.589,1.029.014.727-.511,1.075-1.621,1.075Z" transform="translate(1462.997 3767.545)" fill="#fff"/>
        <path id="Trazado_197617" data-name="Trazado 197617" d="M-1396.406-3706.943q-3.21,0-6.42,0c-.88,0-1.329-.372-1.313-1.07.016-.664.459-1.019,1.3-1.019q6.42,0,12.84,0c.858,0,1.343.4,1.323,1.076-.019.651-.481,1.012-1.31,1.014Q-1393.2-3706.94-1396.406-3706.943Z" transform="translate(1432.078 3743.406)" fill="#fff"/>
        <path id="Trazado_197618" data-name="Trazado 197618" d="M-1175.652-3925.953a4.227,4.227,0,0,1,4.105-4.331,4.262,4.262,0,0,1,4.315,4.059,4.253,4.253,0,0,1-4.113,4.4A4.232,4.232,0,0,1-1175.652-3925.953Zm2.123-.11a2.085,2.085,0,0,0,2.059,2.1,2.13,2.13,0,0,0,2.135-2.117,2.1,2.1,0,0,0-2.118-2.049A2.055,2.055,0,0,0-1173.53-3926.063Z" transform="translate(1235.593 3933.671)" fill="#fff"/>
        <path id="Trazado_197619" data-name="Trazado 197619" d="M-1175.661-3589.393a4.189,4.189,0,0,1,4.2-4.215,4.206,4.206,0,0,1,4.224,4.2,4.222,4.222,0,0,1-4.207,4.222A4.206,4.206,0,0,1-1175.661-3589.393Zm4.238-2.091a2.059,2.059,0,0,0-2.113,2.034,2.115,2.115,0,0,0,2.089,2.156,2.174,2.174,0,0,0,2.1-2.1A2.114,2.114,0,0,0-1171.423-3591.483Z" transform="translate(1235.599 3644.145)" fill="#fff"/>
      </g>
    </g>
  </g>
</svg>
