<svg xmlns="http://www.w3.org/2000/svg" width="112" height="112" viewBox="0 0 112 112">
  <g id="Grupo_172831" data-name="Grupo 172831" transform="translate(6154.554 -1273.564)">
    <circle id="Elipse_6112" data-name="Elipse 6112" cx="56" cy="56" r="56" transform="translate(-6154.554 1273.564)" fill="#12263f"/>
    <g id="XVCVLu.tif" transform="translate(-4536.068 2026.02)">
      <g id="Grupo_155562" data-name="Grupo 155562" transform="translate(-1595.63 -729.189)">
        <path id="Trazado_197582" data-name="Trazado 197582" d="M-1525.718-658.147h-25.214v-11.476h2.233a4.353,4.353,0,0,0-.844-3.642c-1.459,1.3-3.214,1.417-5.04,1.378-2.339-.051-4.679-.012-7.019-.012h-.736v2.3c.368,0,.678,0,.988,0a4.57,4.57,0,0,1,4.614,3.705,2.4,2.4,0,0,1-2.521,3.164h-1.361q-11.675,0-23.35,0a2.282,2.282,0,0,1-2.487-2.554,4.584,4.584,0,0,1,4.281-4.309c.468-.015.937,0,1.392,0v-2.3H-1589c-3.724,0-5.354-1.159-6.578-4.676-.007-.02-.035-.032-.052-.048v-24.922a.662.662,0,0,0,.118-.172,5.7,5.7,0,0,1,6-4.552c4.438,0,8.875.006,13.312-.014a1.2,1.2,0,0,0,.853-.322,10.919,10.919,0,0,1,4.516-3.517.706.706,0,0,0,.4-.476c.025-2,.032-4.007,0-6.01a1.049,1.049,0,0,0-1.029-1.095c-1.181-.057-2.366-.017-3.557-.017-.051.207-.1.342-.117.481a10.371,10.371,0,0,1-9.335,8.659,10.382,10.382,0,0,1-10.827-7.63c-.122-.456-.222-.919-.332-1.378v-2.578a4.1,4.1,0,0,0,.143-.471,10.3,10.3,0,0,1,10.379-8.549,10.285,10.285,0,0,1,9.955,8.614c.077.462.269.574.7.561.93-.029,1.861-.012,2.792-.008a3.4,3.4,0,0,1,3.532,3.5c.007,1.67,0,3.341,0,5.011,0,.207.024.415.036.614h2.26c0-.786-.005-1.523,0-2.26a3.358,3.358,0,0,1,2.546-3.306,4.5,4.5,0,0,1,1.129-.119c2.189-.011,4.379-.005,6.639-.005,0-.538.03-1.011-.009-1.479-.037-.449.131-.626.568-.715.7-.143,1.384-.351,2.067-.556a.809.809,0,0,0,.494-1.229c-.357-.647-.716-1.293-1.106-1.92a.543.543,0,0,1,.1-.8q1.918-1.878,3.8-3.8a.544.544,0,0,1,.8-.089c.607.376,1.234.722,1.858,1.07a.819.819,0,0,0,1.3-.546c.2-.709.364-1.431.6-2.128a.714.714,0,0,1,.519-.4q2.756-.044,5.513,0a.713.713,0,0,1,.515.4c.237.7.4,1.419.6,2.128a.818.818,0,0,0,1.3.538c.625-.348,1.251-.694,1.86-1.067a.546.546,0,0,1,.8.091q1.876,1.921,3.8,3.8a.543.543,0,0,1,.1.8c-.377.607-.721,1.234-1.07,1.858a.818.818,0,0,0,.535,1.306c.709.2,1.432.364,2.129.6a.713.713,0,0,1,.4.513q.044,2.756,0,5.512a.784.784,0,0,1-.464.533c-.672.235-1.372.39-2.058.587a.819.819,0,0,0-.548,1.3c.359.645.754,1.273,1.08,1.934a.722.722,0,0,1-.064.655q-1.916,1.981-3.9,3.9a.721.721,0,0,1-.653.083c-.642-.31-1.237-.721-1.882-1.023a1.493,1.493,0,0,0-.892-.053c-.77.169-.983.67-.936,1.459.08,1.342.022,2.692.022,4.095a3.6,3.6,0,0,1,3.452.675,3.442,3.442,0,0,1,3.245-.719,3.673,3.673,0,0,1,2.382,2.336,3.611,3.611,0,0,1,4.715,3.749c-.134,4.769-.024,9.545-.056,14.317a10.509,10.509,0,0,1-.35,2.462,9.488,9.488,0,0,1-2.344,3.886,3.444,3.444,0,0,0-.685,2.916h2.251Zm-21.545-25.229c-.043-.17-.076-.28-.1-.392-.473-2.333-.934-4.668-1.418-7a5.043,5.043,0,0,0-4.445-4.037c-.339-.02-.846.068-.99.29-.129.2.052.706.236.987a10.6,10.6,0,0,1,2,4.069c.24,1.554.363,3.126.617,4.676a18.419,18.419,0,0,0,.879,4.015c.93,2.265,2.057,4.454,3.2,6.622a6.7,6.7,0,0,1,.931,4.017,2.313,2.313,0,0,0,.038.472h16.008a5.078,5.078,0,0,0,0-.687,4,4,0,0,1,1.188-3.56,13.15,13.15,0,0,0,1.161-1.541,5.632,5.632,0,0,0,1.086-3.345q.023-7.3.005-14.6c0-.878-.479-1.436-1.173-1.416-.669.019-1.108.56-1.119,1.4-.009.66,0,1.32,0,1.976h-2.287v-.765c0-1.169.007-2.339,0-3.508-.007-.836-.456-1.377-1.125-1.393-.694-.016-1.157.541-1.168,1.421-.007.573,0,1.146,0,1.718v2.544h-2.289c0-1.509.016-2.983-.007-4.456a1.171,1.171,0,0,0-1.141-1.227,1.175,1.175,0,0,0-1.139,1.229c-.025,1.049-.008,2.1-.008,3.15v1.3h-2.287V-709c0-.167,0-.334,0-.5-.025-.823-.495-1.366-1.167-1.352a1.214,1.214,0,0,0-1.128,1.319c-.007.191,0,.382,0,.573,0,6.634-.05,13.269.031,19.9a9.853,9.853,0,0,1-1.433,5.288.785.785,0,0,1-.51.373C-1545.63-683.353-1546.438-683.376-1547.263-683.376Zm-7.105,4.581c0-2.7-.106-5.326.033-7.941a8.2,8.2,0,0,0-1.689-5.714c-1.3-1.708-.681-3.6,1.266-4.532.149-.072.361-.223.368-.347.036-.679.017-1.361.017-2.069-.676,0-1.249.027-1.818-.009-.441-.028-.558.168-.624.564a10.424,10.424,0,0,1-9.529,8.621,10.41,10.41,0,0,1-10.669-7.939c-.093-.407-.185-.815-.271-1.19h-11.424V-678.8Zm-22.385-25.187h-.733q-6.015,0-12.031,0a3.5,3.5,0,0,0-3.823,3.827q0,11.061,0,22.122a3.514,3.514,0,0,0,3.878,3.846q6.946,0,13.892,0,10.992,0,21.984,0a3.52,3.52,0,0,0,2.664-1,.82.82,0,0,0,.164-.717c-.367-.867-.806-1.7-1.26-2.637a2.444,2.444,0,0,1-2.43,2.052q-17.115,0-34.229,0a2.241,2.241,0,0,1-2.366-2.387q-.006-10.2,0-20.4a2.26,2.26,0,0,1,2.418-2.407q5.263-.007,10.527,0h.8Zm23.542-10.059a9.376,9.376,0,0,0,1.143.318c.946.139,1.627.512,1.782,1.571a2.914,2.914,0,0,0,.47,1.035.881.881,0,0,1-.04,1.049c-.352.557-.655,1.145-.93,1.633l1.92,2.029a33.651,33.651,0,0,1,3.667-.665c0-.481-.036-.961.009-1.433a1.441,1.441,0,0,0-.7-1.462,6.78,6.78,0,0,1-2.076-8.442,6.813,6.813,0,0,1,7.89-3.693,6.581,6.581,0,0,1,5.087,5.58,6.63,6.63,0,0,1-2.79,6.7c-.222.169-.5.424-.524.662-.07.7-.025,1.416-.025,2.2a2.783,2.783,0,0,0,.576-.256,1.234,1.234,0,0,1,1.675.054,12.539,12.539,0,0,0,1.338.76l2.035-1.979a10.993,10.993,0,0,0-.671-1.168,1.569,1.569,0,0,1-.1-2.063,3.414,3.414,0,0,0,.446-1.122.934.934,0,0,1,.786-.78c.646-.136,1.276-.344,1.919-.523V-716.8c-.077-.035-.137-.069-.2-.09a2.1,2.1,0,0,0-.41-.124c-1.271-.152-2.241-.637-2.45-2.065-.039-.27-.289-.505-.348-.777a1.417,1.417,0,0,1,.026-.839c.291-.621.664-1.2,1.08-1.936a18.568,18.568,0,0,1-1.472-1.351c-.406-.456-.756-.55-1.249-.165a2.228,2.228,0,0,1-3.008.24c-.253-.192-.638-.2-.924-.363a1.079,1.079,0,0,1-.478-.516c-.238-.688-.417-1.4-.622-2.113h-2.777a6.587,6.587,0,0,0-.236.864,2.148,2.148,0,0,1-1.907,2.166,2.094,2.094,0,0,0-.771.366.88.88,0,0,1-1.05-.015c-.563-.346-1.209-.928-1.739-.85s-.947.872-1.467,1.284a.763.763,0,0,0-.134,1.248,2.23,2.23,0,0,1,.213,3.009,2,2,0,0,0-.27.733.865.865,0,0,1-.748.728c-.663.139-1.31.356-1.947.535Zm25.171,46.777h-20.545v6.791h20.545Zm-50.659-47.241c2.013-2.493,2.021-7.164-1.063-10.125a7.959,7.959,0,0,0-11.158.052c-3.054,2.973-3,7.624-1.011,10.07l3.058-2.589c-1.5-2.358-1.353-4.636.44-6.295a4.582,4.582,0,0,1,5.907-.271,4.456,4.456,0,0,1,1.69,2.654,4.529,4.529,0,0,1-.924,3.9Zm18.334,18.327c2.03-2.453,2.062-7.311-1.259-10.307a7.979,7.979,0,0,0-11.485.807c-2.666,3.114-2.208,7.639-.461,9.475l3.028-2.559c-1.5-2.448-1.34-4.69.489-6.337a4.59,4.59,0,0,1,5.911-.2c1.984,1.538,2.216,3.749.747,6.541Zm4.813-18.108c-2.32,0-4.606-.021-6.891.013-.682.01-1.075.521-1.095,1.265-.019.716.026,1.434-.016,2.147a.736.736,0,0,0,.567.832,10.4,10.4,0,0,1,4.264,3.274,1.374,1.374,0,0,0,.922.465c1.9.043,3.8.021,5.845.021-.5-.465-.956-.912-1.438-1.329a.528.528,0,0,1-.106-.8,17.677,17.677,0,0,0,1.053-1.866c.119-.256.164-.765.02-.88a4.478,4.478,0,0,0-1.3-.609c-.557-.2-1.337-.186-1.642-.568s-.122-1.128-.155-1.715C-1555.521-714.082-1555.531-714.129-1555.552-714.286Zm16.553,2.439a4.486,4.486,0,0,0,1.51-5.209,4.634,4.634,0,0,0-4.533-2.956,4.64,4.64,0,0,0-4.175,3.446,4.33,4.33,0,0,0,1.713,4.686A3.546,3.546,0,0,1-1539-711.846Zm-19.991,46.807a2.293,2.293,0,0,0-2.545-2.274q-8.232-.006-16.465,0c-1.265,0-2.53-.017-3.794.006a2.186,2.186,0,0,0-2.295,2.27Zm10.446-38.815a6.217,6.217,0,0,1,1.058,3.745c-.042,1.669.009,3.34-.018,5.009a4.39,4.39,0,0,0,.5,2.394,5.391,5.391,0,0,1,.5,1.553c.324,1.482.613,2.972.915,4.459h.182a7.916,7.916,0,0,0,.2-1.239q.021-7.979.008-15.957c0-.523-1.087-1.217-1.559-.978C-1547.351-704.569-1547.913-704.216-1548.544-703.854Zm-29.865,34.2h13.668v-2.207h-13.668Zm-11.822-42.962c3.063,2.531,7.61,2.084,9.8-.053a5.537,5.537,0,0,0-5.008-2.75A5.523,5.523,0,0,0-1590.231-712.615Zm28.168,18.333a5.543,5.543,0,0,0-5.081-2.8,5.48,5.48,0,0,0-4.738,2.787A7.826,7.826,0,0,0-1562.062-694.282Zm12.279-1.8c0-1.369,0-2.7,0-4.033a6.372,6.372,0,0,0-.019-.715,3.289,3.289,0,0,0-2.912-3.068,43.859,43.859,0,0,0-4.466-.032c.135.631.232,1.243.411,1.831a.714.714,0,0,0,.517.393c.641.049,1.288.008,1.932.022a2.245,2.245,0,0,1,2.236,2.229c.015.692-.02,1.385.019,2.075a.712.712,0,0,0,.328.517C-1551.138-696.581-1550.511-696.363-1549.784-696.079Zm-33.241-23.96a2.349,2.349,0,0,0-2.308-2.272,2.354,2.354,0,0,0-2.272,2.307,2.351,2.351,0,0,0,2.307,2.274A2.353,2.353,0,0,0-1583.025-720.039Zm18.337,18.315a2.349,2.349,0,0,0-2.326-2.254,2.359,2.359,0,0,0-2.254,2.325,2.35,2.35,0,0,0,2.325,2.256A2.353,2.353,0,0,0-1564.688-701.724Z" transform="translate(1595.63 729.189)" fill="#fff"/>
        <path id="Trazado_197583" data-name="Trazado 197583" d="M-1522.258-500.75h2.278v9.1h2.306v-4.479h2.3v4.492h2.281v-2.213h2.278v2.2h2.306v-4.479h2.3v4.511h2.251v2.263h-27.4v-15.954h2.2v13.659h2.306V-503h2.3v11.367h2.281Z" transform="translate(1540.572 537.438)" fill="#fff"/>
      </g>
    </g>
  </g>
</svg>
