<svg id="Grupo_171274" data-name="Grupo 171274" xmlns="http://www.w3.org/2000/svg" xmlns:xlink="http://www.w3.org/1999/xlink" width="124.06" height="124.06" viewBox="0 0 124.06 124.06">
  <defs>
    <clipPath id="clip-path">
      <rect id="Rectángulo_52564" data-name="Rectángulo 52564" width="124.06" height="124.059" fill="#12263f"/>
    </clipPath>
    <linearGradient id="linear-gradient" x1="0.5" x2="0.5" y2="1" gradientUnits="objectBoundingBox">
      <stop offset="0" stop-color="#278d7e"/>
      <stop offset="1" stop-color="#4fc1b1"/>
    </linearGradient>
    <linearGradient id="linear-gradient-2" x1="0.5" x2="0.5" y2="1" gradientUnits="objectBoundingBox">
      <stop offset="0" stop-color="#7e53c5"/>
      <stop offset="1" stop-color="#080383"/>
    </linearGradient>
  </defs>
  <g id="Grupo_171273" data-name="Grupo 171273" clip-path="url(#clip-path)">
    <path id="Trazado_212301" data-name="Trazado 212301" d="M126.007,0a2.982,2.982,0,0,1,1.31,2.857c-.063,3.66-.02,7.322-.024,10.983,0,2.054-.64,2.7-2.69,2.7H36.351V41.276H32.242v-6.13c-1.069,0-2,.046-2.932-.013-.946-.059-1.319.283-1.283,1.255.059,1.588.016,3.18.016,4.865H23.956c0-2.141-.137-4.291.039-6.415a4.459,4.459,0,0,1,4.394-3.812c1.2-.027,2.405,0,3.8,0V29.6c0-8.916.019-17.832-.022-26.748A3,3,0,0,1,33.476,0h77.282V4.166H36.394V12.32h86.669V4.077h-8.171V0Z" transform="translate(-17.713)" fill="#12263f"/>
    <path id="Trazado_212302" data-name="Trazado 212302" d="M150.624,0V4.077h8.171V12.32H72.125V4.166h74.363V0ZM76.217,10.251h4V6.314h-4Zm8.331-.015h3.975V6.27H84.548Zm8.211.015h4V6.314h-4ZM154.7,6.3h-3.966v3.962H154.7Z" transform="translate(-53.444)" fill="url(#linear-gradient)"/>
    <path id="Trazado_212303" data-name="Trazado 212303" d="M360.584,107.44a3.023,3.023,0,0,1-2.856,1.31c-9.172-.041-18.345-.021-27.518-.023-2.064,0-2.7-.634-2.7-2.678,0-2.713-.04-5.427.022-8.139a1.365,1.365,0,0,0-1.071-1.587c-1.872-.627-3.717-1.34-5.554-2.066-2.03-.8-2.286-2.636-.558-3.956,2.087-1.594,4.18-3.18,6.309-4.715a1.856,1.856,0,0,0,.87-1.7c-.006-4.035.077-4.1,4.109-4.1,8.7,0,17.4.019,26.1-.022a3.013,3.013,0,0,1,2.855,1.31Zm-4.176-23.431H331.534c.563,2.254-.372,3.69-2.184,4.8-1.272.777-2.408,1.777-3.712,2.757l3.733,1.418c2.085.793,2.259,1.048,2.259,3.312q0,4.108,0,8.225h24.777Z" transform="translate(-236.524 -59.107)" fill="#12263f"/>
    <path id="Trazado_212304" data-name="Trazado 212304" d="M67.37,257.462H40.551v-4.126h89.117c1.8,0,1.8,0,1.8-1.743,0-2.109,0-4.219,0-6.433H28.09c0,2.474-.031,5,.052,7.513.008.233.735.622,1.136.632,2.312.061,4.627.03,7,.03v4.04c-2.917,0-5.838.174-8.727-.06a4.222,4.222,0,0,1-3.587-4.16c-.037-6.761-.014-13.523-.014-20.391h4.092v8.094H131.4V207.937h4.2v1.4q0,21.449,0,42.9c0,3.436-1.8,5.226-5.259,5.227q-18.219,0-36.439,0H92.058a36.221,36.221,0,0,0,.471,5.517A5.117,5.117,0,0,0,96.7,266.77c.836.194,1.7.278,2.527.5a7.1,7.1,0,0,1,5.357,6.905c.04,3.732-.188,3.965-3.878,3.965H57.8c-2.243,0-2.836-.588-2.839-2.8-.008-5.031,1.968-7.436,6.873-8.366,3.924-.743,5.53-2.677,5.533-6.663,0-.9,0-1.793,0-2.844m4.126,0c0,1.379-.014,2.579,0,3.779a9.477,9.477,0,0,1-2.1,6.094,10.391,10.391,0,0,1-7.21,3.814c-1.909.258-2.738,1.079-2.942,2.769h41.1c-.427-1.818-1.171-2.549-3-2.766-6.564-.777-9.732-5.935-9.315-10.811.079-.925.011-1.862.011-2.878H71.5Z" transform="translate(-17.744 -154.08)" fill="#12263f"/>
    <path id="Trazado_212305" data-name="Trazado 212305" d="M151.691,118.514A22.74,22.74,0,1,1,174.482,141.3a22.687,22.687,0,0,1-22.791-22.784m24.868-12.275c6.585,1.914,10.263,6.323,10.272,12.254.01,6.045-3.637,10.466-10.271,12.386v5.991c8.133.332,16.514-8.9,16.465-18.246-.061-11.692-9.734-18.177-16.466-18.382Zm-2.184,4.048a8.272,8.272,0,1,0,8.324,8.153,8.365,8.365,0,0,0-8.324-8.153m-18.285,10.4C156.634,129,164.2,136.391,172.3,136.9v-6.043a12.714,12.714,0,0,1-10.164-10.171Zm6.042-4.243A12.711,12.711,0,0,1,172.3,106.267V100.23c-9.051.55-16.157,9.278-16.1,16.21Z" transform="translate(-112.402 -71.003)" fill="#12263f"/>
    <path id="Trazado_212306" data-name="Trazado 212306" d="M146.908,232.63v-24.8h4.04c.02.415.057.829.057,1.242q.005,12.47,0,24.94c0,2.051-.641,2.691-2.695,2.692q-44.388,0-88.776,0c-3.435,0-3.818-.421-3.568-4.079Z" transform="translate(-41.426 -154.004)" fill="#12263f"/>
    <path id="Trazado_212307" data-name="Trazado 212307" d="M16.57,175.65q6.974,0,13.949,0c1.874,0,2.55.684,2.554,2.568.006,2.8.031,5.6-.017,8.395A1.222,1.222,0,0,0,34.023,188c1.906.658,3.793,1.377,5.668,2.12,2.019.8,2.267,2.638.536,3.965-2.083,1.6-4.176,3.182-6.306,4.715a1.849,1.849,0,0,0-.864,1.7c.007,4.014-.086,4.085-4.125,4.085q-13.109,0-26.219,0c-2.067,0-2.711-.633-2.711-2.67Q0,190.1,0,178.281c0-1.975.652-2.629,2.619-2.63q6.975-.006,13.949,0m12.339,24.768a5.642,5.642,0,0,0,.033-.887,3.344,3.344,0,0,1,1.758-3.548c1.44-.922,2.753-2.041,4.255-3.175-1.462-.553-2.756-1.094-4.085-1.53a2.512,2.512,0,0,1-1.944-2.777c.075-2.868.022-5.74.022-8.651H4.209v20.567Z" transform="translate(0 -130.155)" fill="#12263f"/>
    <path id="Trazado_212308" data-name="Trazado 212308" d="M114.055,84.509l-3.094,3.055c-.926-.99-1.81-2.031-2.8-2.953a2.548,2.548,0,0,0-1.549-.641c-3.479-.056-6.96-.029-10.514-.029V79.91a9.4,9.4,0,0,1,.943-.091c3.662-.007,7.324-.052,10.984.036a3.732,3.732,0,0,1,2.152.873c1.336,1.141,2.533,2.446,3.883,3.781" transform="translate(-71.204 -59.133)" fill="#12263f"/>
    <path id="Trazado_212309" data-name="Trazado 212309" d="M313.359,260.779l3.179-3.02c.88.929,1.772,1.965,2.773,2.882a2.564,2.564,0,0,0,1.552.636c3.478.055,6.957.029,10.506.029v4.032c-.306.03-.632.089-.959.09-3.661.006-7.324.052-10.983-.036a3.778,3.778,0,0,1-2.148-.882c-1.347-1.129-2.56-2.417-3.92-3.73" transform="translate(-232.197 -190.998)" fill="#12263f"/>
    <rect id="Rectángulo_52555" data-name="Rectángulo 52555" width="10.165" height="3.971" transform="translate(24.918 29.042)" fill="#12263f"/>
    <rect id="Rectángulo_52556" data-name="Rectángulo 52556" width="10.118" height="4.015" transform="translate(89.016 62.123)" fill="#12263f"/>
    <rect id="Rectángulo_52557" data-name="Rectángulo 52557" width="4.005" height="3.937" transform="translate(22.772 6.314)" fill="#12263f"/>
    <rect id="Rectángulo_52558" data-name="Rectángulo 52558" width="3.975" height="3.966" transform="translate(31.104 6.27)" fill="#12263f"/>
    <rect id="Rectángulo_52559" data-name="Rectángulo 52559" width="4.005" height="3.937" transform="translate(39.314 6.314)" fill="#12263f"/>
    <rect id="Rectángulo_52560" data-name="Rectángulo 52560" width="3.966" height="3.962" transform="translate(97.289 6.301)" fill="#12263f"/>
    <path id="Trazado_212310" data-name="Trazado 212310" d="M374.835,96.147v20.508H350.058q0-4.123,0-8.225c0-2.263-.174-2.518-2.259-3.311-1.2-.455-2.393-.909-3.733-1.418,1.3-.98,2.439-1.979,3.712-2.756,1.812-1.108,2.747-2.543,2.184-4.8ZM364.2,105.413c-.851-.942-1.526-1.782-2.3-2.52a1.953,1.953,0,0,0-2.9-.076c-2.1,2.035-4.125,4.139-6.23,6.264l3.055,2.939,4.626-4.888c.893.967,1.615,1.817,2.409,2.594a2.1,2.1,0,0,0,3.512-.238c1.235-1.6,2.432-3.233,3.644-4.853.789-1.054,1.574-2.11,2.4-3.216l-3.328-2.485-4.893,6.479" transform="translate(-254.951 -71.244)" fill="url(#linear-gradient-2)"/>
    <path id="Trazado_212311" data-name="Trazado 212311" d="M172.5,399.15h16.552c0,1.016.068,1.954-.011,2.878-.417,4.876,2.751,10.034,9.315,10.811,1.832.217,2.576.947,3,2.766h-41.1c.2-1.69,1.033-2.51,2.942-2.769a10.391,10.391,0,0,0,7.21-3.814,9.478,9.478,0,0,0,2.1-6.094c-.017-1.2,0-2.4,0-3.779" transform="translate(-118.752 -295.768)" fill="#d2e1f1"/>
    <path id="Trazado_212312" data-name="Trazado 212312" d="M247.7,118.89v-6c6.732.2,16.4,6.69,16.466,18.382.049,9.345-8.332,18.578-16.465,18.246v-5.991c6.634-1.921,10.282-6.341,10.272-12.386-.01-5.932-3.688-10.341-10.272-12.254" transform="translate(-183.547 -83.654)" fill="#d8dbf7"/>
    <path id="Trazado_212313" data-name="Trazado 212313" d="M215.763,151.672a8.272,8.272,0,1,1-8.217,8.258,8.369,8.369,0,0,1,8.217-8.258" transform="translate(-153.791 -112.388)" fill="#12263f"/>
    <path id="Trazado_212314" data-name="Trazado 212314" d="M168.674,191.81h6.044a12.715,12.715,0,0,0,10.165,10.171v6.043c-8.094-.505-15.664-7.9-16.209-16.213" transform="translate(-124.987 -142.13)" fill="#d8dbf7"/>
    <path id="Trazado_212315" data-name="Trazado 212315" d="M175.032,129.052H169.1c-.058-6.932,7.047-15.66,16.1-16.21v6.037a12.711,12.711,0,0,0-10.167,10.173" transform="translate(-125.303 -83.615)" fill="#d8dbf7"/>
    <path id="Trazado_212316" data-name="Trazado 212316" d="M40.952,212.439h-24.7V191.872h24.74c0,2.91.053,5.782-.022,8.651a2.513,2.513,0,0,0,1.944,2.777c1.329.436,2.623.977,4.084,1.53-1.5,1.134-2.815,2.253-4.255,3.175a3.344,3.344,0,0,0-1.758,3.548,5.641,5.641,0,0,1-.033.887M30.579,196.023H26.605v12.258h3.973Zm6.178,4.159H32.788v8.1h3.969Zm-16.37,8.072h3.959v-6.046H20.386Z" transform="translate(-12.043 -142.176)" fill="#eeac3a"/>
    <path id="Trazado_212317" data-name="Trazado 212317" d="M389.107,113.385,394,106.906l3.328,2.485c-.825,1.106-1.611,2.162-2.4,3.216-1.212,1.62-2.409,3.251-3.644,4.853a2.1,2.1,0,0,1-3.512.238c-.794-.777-1.516-1.627-2.409-2.594l-4.626,4.888-3.055-2.939c2.1-2.125,4.134-4.229,6.23-6.264a1.953,1.953,0,0,1,2.9.076c.773.737,1.448,1.578,2.3,2.52" transform="translate(-279.861 -79.217)" fill="#12263f"/>
    <rect id="Rectángulo_52561" data-name="Rectángulo 52561" width="3.973" height="12.258" transform="translate(14.563 53.847)" fill="#12263f"/>
    <rect id="Rectángulo_52562" data-name="Rectángulo 52562" width="3.969" height="8.098" transform="translate(20.746 58.006)" fill="#12263f"/>
    <rect id="Rectángulo_52563" data-name="Rectángulo 52563" width="3.959" height="6.046" transform="translate(8.344 60.031)" fill="#12263f"/>
  </g>
</svg>
