<svg id="Grupo_171289" data-name="Grupo 171289" xmlns="http://www.w3.org/2000/svg" xmlns:xlink="http://www.w3.org/1999/xlink" width="119.75" height="120.041" viewBox="0 0 119.75 120.041">
  <defs>
    <clipPath id="clip-path">
      <rect id="Rectángulo_52614" data-name="Rectángulo 52614" width="119.75" height="120.04" fill="none"/>
    </clipPath>
  </defs>
  <g id="Grupo_171288" data-name="Grupo 171288" clip-path="url(#clip-path)">
    <path id="Trazado_212384" data-name="Trazado 212384" d="M115.883,100.253H119.7c.018.389.044.7.045,1.008,0,2.859.012,5.717,0,8.576a10.117,10.117,0,0,1-10.186,10.181c-8.683.027-17.365.017-26.047.018q-19.235,0-38.47,0-17.472,0-34.943,0A9.688,9.688,0,0,1,0,110.025c-.009-2.752,0-5.5.008-8.255,0-1.456.078-1.519,1.556-1.515.747,0,1.495-.015,2.242-.028.047,0,.093-.044.049-.022,0-3.56,0-7.073,0-10.586q0-25.967,0-51.934a10.364,10.364,0,0,1,4.922-9.326,9.239,9.239,0,0,1,5.032-1.369c1.576-.01,3.152,0,4.729.005H19.3c0-4.58-.027-9.052.008-13.524s-.133-8.936.1-13.469h1.065q39.553.01,79.105,0c.717,0,.892.2.89.9q-.033,12.623-.013,25.246v.874c1.181,0,2.3-.02,3.414.005a25.9,25.9,0,0,1,4.073.18,9.57,9.57,0,0,1,7.927,9.593q.022,31.216.014,62.433v1.021M96.549,61.692c.016-.3.039-.534.039-.77q.007-20.4.028-40.8c0-.771-.3-.849-.938-.849q-35.706.025-71.412.021h-.853V61.675H84.658c-.335-.9-.707-1.7-.929-2.538a1.729,1.729,0,0,0-1.705-1.463,5.625,5.625,0,0,1-4.547-6.662.845.845,0,0,0-.26-.717q-4.82-3.436-9.683-6.81a.8.8,0,0,0-.7-.047,5.56,5.56,0,0,1-6.495-.309.817.817,0,0,0-.712-.045q-3.58,1.948-7.122,3.964a.772.772,0,0,0-.318.612,5.762,5.762,0,0,1-6.971,6.151,5.677,5.677,0,0,1-3.69-8.387.822.822,0,0,0-.038-1.058c-2.017-2.852-4.033-5.706-6-8.591-.606-.888-1.149-1.681-2.381-1.037a.627.627,0,0,1-.317.01,5.853,5.853,0,0,1-5.427-6.866,5.722,5.722,0,1,1,10.6,3.881,1.065,1.065,0,0,0-.083.9Q41.2,37.51,44.613,42.3a.874.874,0,0,0,.708.327,5.547,5.547,0,0,1,4.6,1.063.813.813,0,0,0,.7.084q3.578-1.956,7.118-3.979a.914.914,0,0,0,.383-.6,20.962,20.962,0,0,1,.2-2.105,5.6,5.6,0,0,1,5.622-4.235A5.67,5.67,0,0,1,69.421,39.4a1.213,1.213,0,0,0,.233.985q4.849,3.471,9.765,6.847a.8.8,0,0,0,.7-.027,5.579,5.579,0,0,1,5.264-.352,5.8,5.8,0,0,1,3.322,6.2,6.746,6.746,0,0,1-1.978,3.467L88.7,61.729c2.5,0,4.933,0,7.363,0,.132,0,.264-.019.488-.037M94.442,77.038a14.731,14.731,0,0,0,1.483.348c2.641.333,5.006,3.662,4.341,6.762-.613,2.855-3.906,5.13-6.753,4.4a5.646,5.646,0,0,1-4.3-3.834,5.337,5.337,0,0,1,1.239-5.619,1.124,1.124,0,0,0,.233-1.39c-.8-2.053-1.559-4.125-2.333-6.19-.743-1.98-1.486-3.959-2.245-5.979H19.464V38.661H15.71V92.513h88.521V38.657h-3.81V65.582H90.144l4.3,11.456M4.1,104.2c0,1.856-.009,3.616,0,5.376a5.824,5.824,0,0,0,6.2,6.142q12.021.008,24.043-.007,24.726,0,49.452.015,12.985,0,25.969.007a5.714,5.714,0,0,0,5.916-4.506,17.218,17.218,0,0,0,.172-3.586c.023-1.139,0-2.278,0-3.441Zm96.378-69.441c1.247,0,2.394-.045,3.536.018a5.148,5.148,0,0,1,1.843.406,3.931,3.931,0,0,1,2.291,3.889q.012,26.449.005,52.9c0,2.828-1.637,4.461-4.468,4.461q-43.761,0-87.522,0c-2.782,0-4.361-1.573-4.361-4.364q0-26.489,0-52.978c0-2.743,1.571-4.334,4.292-4.337h3.372V30.894h-.894q-2.525,0-5.049,0a5.646,5.646,0,0,0-5.574,5.531q0,31.458,0,62.916v.91H112v-.838q0-31.458,0-62.917a5.656,5.656,0,0,0-4.107-5.4,5.553,5.553,0,0,0-1.412-.2c-1.993-.022-3.986-.009-6.014-.009ZM96.548,3.954H23.411V15.38H96.548ZM84.944,52.1A1.811,1.811,0,0,0,82.952,50.2a1.79,1.79,0,0,0-1.741,1.886,1.841,1.841,0,0,0,1.73,1.9,1.863,1.863,0,0,0,2-1.9M44.566,48.178a1.889,1.889,0,0,0,3.776.121,1.854,1.854,0,0,0-1.87-1.937,1.89,1.89,0,0,0-1.907,1.816m21.123-9.6a1.8,1.8,0,0,0-1.925-1.865,1.825,1.825,0,0,0-1.841,1.89,1.86,1.86,0,0,0,1.865,1.886,1.831,1.831,0,0,0,1.9-1.91M32.964,30.809a1.851,1.851,0,0,0,1.9-1.735,1.889,1.889,0,0,0-3.768-.282,1.842,1.842,0,0,0,1.869,2.016m61.685,54a1.814,1.814,0,0,0,1.871-1.844,1.87,1.87,0,0,0-1.893-1.929,1.845,1.845,0,0,0-1.853,1.873,1.764,1.764,0,0,0,1.875,1.9" transform="translate(0 0)" fill="#1a1818"/>
    <path id="Trazado_212385" data-name="Trazado 212385" d="M25.526,649.957H137.287c0,1.163.018,2.3,0,3.441a17.22,17.22,0,0,1-.172,3.586,5.713,5.713,0,0,1-5.916,4.506q-12.985,0-25.969-.007-24.726-.008-49.452-.015-12.021,0-24.043.007a5.824,5.824,0,0,1-6.2-6.142c-.01-1.76,0-3.52,0-5.376m46.24,7.631H90.941v-3.746H71.766Zm-7.676-.01H67.83v-3.759H64.091Zm34.583-3.75H94.927v3.759h3.747Z" transform="translate(-21.431 -545.755)" fill="#43a99b"/>
    <path id="Trazado_212386" data-name="Trazado 212386" d="M219.162,36.086H146.025V24.66h73.137Zm-65.543-7.61h-3.752v3.8h3.752Zm3.932,3.78h3.782v-3.8H157.55Zm7.718-.021h3.77V28.463h-3.77Z" transform="translate(-122.614 -20.706)" fill="#d2c1eb"/>
    <path id="Trazado_212387" data-name="Trazado 212387" d="M510.281,315.031a1.863,1.863,0,0,1-2,1.9,1.842,1.842,0,0,1-1.73-1.9,1.79,1.79,0,0,1,1.741-1.886,1.811,1.811,0,0,1,1.992,1.894" transform="translate(-425.337 -262.934)" fill="#deeffb"/>
    <path id="Trazado_212388" data-name="Trazado 212388" d="M277.981,290.993a1.89,1.89,0,0,1,1.907-1.816,1.854,1.854,0,0,1,1.87,1.937,1.889,1.889,0,0,1-3.776-.121" transform="translate(-233.414 -242.816)" fill="#deeffb"/>
    <path id="Trazado_212389" data-name="Trazado 212389" d="M390.006,230.876a1.83,1.83,0,0,1-1.9,1.91,1.86,1.86,0,0,1-1.865-1.886,1.825,1.825,0,0,1,1.841-1.89,1.8,1.8,0,0,1,1.925,1.865" transform="translate(-324.317 -192.296)" fill="#deeffb"/>
    <path id="Trazado_212390" data-name="Trazado 212390" d="M195.8,172.644a1.842,1.842,0,0,1-1.869-2.016,1.889,1.889,0,0,1,3.768.282,1.851,1.851,0,0,1-1.9,1.734" transform="translate(-162.841 -141.836)" fill="#deeffb"/>
    <path id="Trazado_212391" data-name="Trazado 212391" d="M580.551,509.233a1.764,1.764,0,0,1-1.875-1.9,1.845,1.845,0,0,1,1.853-1.873,1.87,1.87,0,0,1,1.893,1.929,1.814,1.814,0,0,1-1.871,1.844" transform="translate(-485.902 -424.424)" fill="#deeffb"/>
    <rect id="Rectángulo_52605" data-name="Rectángulo 52605" width="19.177" height="3.696" transform="translate(73.472 23.257)" fill="#1a1818"/>
    <path id="Trazado_212392" data-name="Trazado 212392" d="M477.208,193.149v3.722c-.26.021-.489.056-.717.056-5.9,0-11.809-.008-17.714.021-.692,0-.865-.219-.832-.866.049-.955.013-1.913.013-2.933Z" transform="translate(-384.523 -162.183)" fill="#1a1818"/>
    <path id="Trazado_212393" data-name="Trazado 212393" d="M169.614,289.2h3.827v7.639h3.821v3.876c-2-.191-4.075.506-5.961-.742a3.518,3.518,0,0,1-1.659-2.871c-.09-2.61-.028-5.225-.028-7.9" transform="translate(-142.404 -242.833)" fill="#1a1818"/>
    <rect id="Rectángulo_52606" data-name="Rectángulo 52606" width="3.74" height="3.769" transform="translate(27.26 38.654)" fill="#1a1818"/>
    <path id="Trazado_212394" data-name="Trazado 212394" d="M152.725,452.652H122.051V433.478h30.674Zm-26.839-3.882h22.987V437.315H125.886Z" transform="translate(-102.484 -363.982)" fill="#1a1818"/>
    <path id="Trazado_212395" data-name="Trazado 212395" d="M341.944,448.762h3.87v-15.3h3.87v15.3h3.852V437.288h3.852v11.468h3.866v-7.621h3.84v7.652h3.834v3.818H338.189V433.443h3.754Z" transform="translate(-283.97 -363.952)" fill="#1a1818"/>
    <rect id="Rectángulo_52607" data-name="Rectángulo 52607" width="19.175" height="3.746" transform="translate(50.335 108.087)" fill="#1a1818"/>
    <rect id="Rectángulo_52608" data-name="Rectángulo 52608" width="3.739" height="3.758" transform="translate(42.66 108.064)" fill="#1a1818"/>
    <rect id="Rectángulo_52609" data-name="Rectángulo 52609" width="3.747" height="3.759" transform="translate(73.496 108.072)" fill="#1a1818"/>
    <rect id="Rectángulo_52610" data-name="Rectángulo 52610" width="3.752" height="3.796" transform="translate(27.253 7.769)" fill="#1a1818"/>
    <rect id="Rectángulo_52611" data-name="Rectángulo 52611" width="3.782" height="3.797" transform="translate(34.936 7.752)" fill="#1a1818"/>
    <rect id="Rectángulo_52612" data-name="Rectángulo 52612" width="3.77" height="3.771" transform="translate(42.655 7.757)" fill="#1a1818"/>
    <rect id="Rectángulo_52613" data-name="Rectángulo 52613" width="22.987" height="11.456" transform="translate(23.402 73.332)" fill="#eeac3a"/>
  </g>
</svg>
