<svg xmlns="http://www.w3.org/2000/svg" xmlns:xlink="http://www.w3.org/1999/xlink" width="120.292" height="145.82" viewBox="0 0 120.292 145.82">
  <defs>
    <clipPath id="clip-path">
      <rect id="Rectángulo_52648" data-name="Rectángulo 52648" width="120.292" height="120.296" fill="#12263f"/>
    </clipPath>
    <linearGradient id="linear-gradient" x1="0.5" x2="0.5" y2="1" gradientUnits="objectBoundingBox">
      <stop offset="0" stop-color="#f5f5f5"/>
      <stop offset="0.25" stop-color="#f5f5f5"/>
      <stop offset="1" stop-color="#a7b3cf"/>
    </linearGradient>
    <clipPath id="clip-path-2">
      <rect id="Rectángulo_52657" data-name="Rectángulo 52657" width="48.505" height="48.534" fill="none"/>
    </clipPath>
  </defs>
  <g id="Grupo_172840" data-name="Grupo 172840" transform="translate(2316.988 -2031.148)">
    <g id="Grupo_171293" data-name="Grupo 171293" transform="translate(-2316.988 2056.673)">
      <g id="Grupo_171292" data-name="Grupo 171292" clip-path="url(#clip-path)">
        <path id="Trazado_212408" data-name="Trazado 212408" d="M113.946,74.1c-3.345,0-6.514-.007-9.684,0-1.653.006-2.327.7-2.345,2.37-.005.5,0,1,0,1.5V84.15H97.987v3.873H170V84.077h-3.934V82.7q0-21.051,0-42.1c0-1.93-.632-2.58-2.513-2.582q-5.513-.008-11.027,0c-1.829,0-2.482.656-2.489,2.478s0,3.642,0,5.54h-9.043c-2.51,0-2.986.476-2.986,2.986,0,2.322,0,4.644,0,7.039h-9.048c-2.506,0-2.981.477-2.982,2.99,0,2.321,0,4.643,0,6.918a2.6,2.6,0,0,1-.407.1c-3.091.007-6.182,0-9.272.018-1.655.007-2.339.7-2.348,2.365-.01,1.831,0,3.662,0,5.652M91.953,61.915c.132.059.2.119.277.119,2.338.012,4.676.041,7.014.011a1.29,1.29,0,0,1,1.356.786,6,6,0,0,0,11.272-3.612,1.362,1.362,0,0,1,.656-1.52q4.363-3.153,8.663-6.392a1.306,1.306,0,0,1,1.735-.114,5.991,5.991,0,0,0,8.868-6.6,1.276,1.276,0,0,1,.612-1.547q3.75-2.717,7.456-5.5a1.262,1.262,0,0,1,1.538-.162,5.859,5.859,0,0,0,7.914-2.6,1.387,1.387,0,0,1,1.47-.81c3.006.027,6.012.011,9.019.011h2.187v-4H160.7c-3.341,0-6.681.025-10.021-.03a1.7,1.7,0,0,1-1.234-.676,6.114,6.114,0,0,0-7.344-3.017,6,6,0,0,0-4.025,6.7,1.18,1.18,0,0,1-.568,1.324c-2.668,1.936-5.3,3.918-7.991,5.825a1.887,1.887,0,0,1-1.437.233,6.066,6.066,0,0,0-8.148,5.948,2.037,2.037,0,0,1-.7,1.4c-3.021,2.3-6.1,4.519-9.138,6.8a1.364,1.364,0,0,1-1.65.111,5.882,5.882,0,0,0-7.692,2.417,1.731,1.731,0,0,1-1.829,1.056c-2.319-.063-4.641-.021-6.968-.021Zm74.189-28h3.844V30.046h-3.844ZM87.775,58.122H83.946v3.889h3.829ZM81.864,23.978a2,2,0,1,0,1.995,1.968,1.954,1.954,0,0,0-1.995-1.968M89.873,26a2,2,0,1,0-1.989,1.975A1.959,1.959,0,0,0,89.873,26M95.888,26a2,2,0,1,0-1.994,1.97A1.959,1.959,0,0,0,95.888,26" transform="translate(-59.808 -17.955)" fill="#12263f"/>
        <path id="Trazado_212409" data-name="Trazado 212409" d="M0,233.672A17.86,17.86,0,0,1,2.825,227.2a13.908,13.908,0,0,1,6.358-4.691c.689-.247.946-.585.848-1.263a.453.453,0,0,1,0-.125,12.209,12.209,0,0,0-2.411-9.005,18.644,18.644,0,0,1-3.468-7.146c-1.28-6.632,4.067-13.328,10.838-13.39,5.053-.046,10.108-.023,15.161-.006A5.991,5.991,0,0,1,33.023,202.8a1.563,1.563,0,0,0-.969,1.63c.048,3.466-.017,6.934.032,10.4a6.329,6.329,0,0,1-3.822,6.322,1.5,1.5,0,0,0-.3.216c-.022.018-.014.072-.03.172,1,.153,2.02.247,3.008.472a15.6,15.6,0,0,1,8.805,5.379q6.293,7.637,12.531,15.319a2.346,2.346,0,0,0,2.1,1.012c2.671-.073,5.355-.164,8.017.006a33.944,33.944,0,0,0,12.287-1.792,2.392,2.392,0,0,0,1.233-1.2c2.064-4.37,4.107-8.751,6.065-13.169a2.91,2.91,0,0,1,3.083-1.944c9.522.058,19.046.027,28.568.03,2.431,0,3.22,1.248,2.19,3.486-3.608,7.836-7.249,15.657-10.807,23.515a12.363,12.363,0,0,0-.741,3.34c-.158,1.107-.007,2.274-.272,3.345a5.756,5.756,0,0,1-5.693,4.391q-19.046.018-38.092,0a5.726,5.726,0,0,1-5.319-3.133,1.468,1.468,0,0,0-1.555-.889c-1.753.05-3.509-.017-5.262.023a10.144,10.144,0,0,1-8.089-3.549c-1.226-1.355-2.444-2.717-3.859-4.291v11.764H32.083v-1.269c0-4.594-.02-9.189.018-13.783a2.813,2.813,0,0,0-.8-2.113c-2.263-2.444-4.468-4.943-6.743-7.476l3-2.7c2.571,2.852,5.083,5.633,7.59,8.419,2.57,2.856,5.159,5.7,7.695,8.581a6.767,6.767,0,0,0,5.4,2.416c4.587-.024,9.173-.007,13.836-.007V247.7c-3.078,0-6.117-.054-9.151.025a3.377,3.377,0,0,1-2.968-1.447c-4.354-5.393-8.762-10.741-13.158-16.1a12,12,0,0,0-9.626-4.526c-4.176-.033-8.353-.015-12.53-.006-6.324.014-10.629,4.3-10.638,10.6q-.018,12.969,0,25.937v1.56H0Zm111.125-4.014c-8.454,0-16.677-.012-24.9.038a1.628,1.628,0,0,0-1.1.871c-1.632,3.421-3.2,6.872-4.79,10.315-.343.745-.67,1.5-1.035,2.313,1.88,1.129,3.631,2.253,5.45,3.255,2.083,1.146,3.766,2.5,3.455,5.27,4.147,0,8.149.021,12.15-.039.336-.005.8-.494.975-.866,1.778-3.767,3.506-7.556,5.252-11.338,1.48-3.206,2.964-6.411,4.54-9.819M18.049,213.549c0-1.883-.038-3.711.022-5.535a3.658,3.658,0,0,1,.479-1.749c1.169-1.875,2.436-3.687,3.646-5.536a2.356,2.356,0,0,1,2.2-1.147c1.794.04,3.59.033,5.384,0a2.094,2.094,0,0,0,2.284-1.99,2.067,2.067,0,0,0-2.259-2.011c-4.842-.02-9.686-.09-14.525.022A7.265,7.265,0,0,0,8.376,205a27.951,27.951,0,0,0,2.686,5.056c.679,1.19,1.191,2.821,2.239,3.361,1.161.6,2.846.18,4.3.2a4.01,4.01,0,0,0,.445-.069m66.343,37.72a5.02,5.02,0,0,0-.64-.669c-2.457-1.485-4.917-2.967-7.39-4.424a1.427,1.427,0,0,0-.932-.193c-3.057.678-6.1,1.394-9.189,2.107v7.9a14.27,14.27,0,0,0,2.241-1.052q3.05-2.177,6-4.491a3.082,3.082,0,0,1,2.792-.593c2.25.5,4.521.906,7.117,1.415M28.065,203.595c-.9,0-1.653-.04-2.393.02a1.229,1.229,0,0,0-.8.435c-1.763,2.382-3.23,4.747-2.938,8.038.181,2.034.627,3.554,2.209,4.781a2.312,2.312,0,0,0,2.4.592,2.146,2.146,0,0,0,1.5-2.093c.039-3.87.016-7.741.016-11.774m72.18,52.213H82.2c0,.668-.032,1.251.006,1.83a2,2,0,0,0,2.06,2.08q6.953.06,13.906,0a2,2,0,0,0,2.063-2.08c.039-.578.007-1.162.007-1.83m-86.16-34.269h9.442c-1.217-1.079-2.469-2.2-3.738-3.3-.269-.234-.591-.563-.9-.574-1.6-.058-3.2-.027-4.806-.027Zm54.617,38.1h9.622c-.072-1.362-.138-2.627-.206-3.921a12.408,12.408,0,0,1-1.625-.011,4.977,4.977,0,0,0-4.1,1.342c-1.186,1-2.54,1.792-3.7,2.59" transform="translate(0 -143.45)" fill="#12263f"/>
        <path id="Trazado_212410" data-name="Trazado 212410" d="M157.261,0c2.232.8,3.98,2.091,4.567,4.532a6.939,6.939,0,0,1,.182,1.605q.013,32.949,0,65.9a5.921,5.921,0,0,1-6.156,6.149q-38.461.009-76.923,0H77.891v-4h76.966c2.608,0,3.16-.549,3.16-3.146q0-31.947,0-63.894c0-2.6-.55-3.141-3.162-3.141H62.9c-2.589,0-3.131.549-3.131,3.17q0,17.665,0,35.329v1.534h-4V42.594c0-11.735.077-23.47-.045-35.2-.038-3.7,1.272-6.179,4.8-7.39Z" transform="translate(-41.726)" fill="#12263f"/>
        <path id="Trazado_212411" data-name="Trazado 212411" d="M167.984,115.934c0-1.99-.008-3.821,0-5.652.009-1.666.693-2.358,2.348-2.365,3.091-.013,6.182-.011,9.272-.018a2.6,2.6,0,0,0,.407-.1c0-2.275,0-4.6,0-6.918,0-2.513.476-2.99,2.982-2.99h9.048c0-2.4,0-4.717,0-7.039,0-2.509.477-2.985,2.986-2.986h9.043c0-1.9,0-3.719,0-5.54s.659-2.475,2.488-2.478q5.514-.008,11.027,0c1.881,0,2.512.652,2.513,2.582q0,21.051,0,42.1v1.382h3.934v3.946H152.025v-3.873h3.929V119.81c0-.5,0-1,0-1.5.018-1.67.692-2.364,2.345-2.37,3.17-.01,6.339,0,9.684,0m40.179,9.922h7.872V83.9h-7.872Zm-12.03,0H204V91.922h-7.872Zm-12.029,0h7.872v-23.91H184.1ZM179.956,112h-7.873v13.889h7.873Zm-12.039,8.009h-7.874V125.9h7.874Z" transform="translate(-113.846 -59.791)" fill="#12263f"/>
        <path id="Trazado_212412" data-name="Trazado 212412" d="M128,67.779V63.923c2.328,0,4.649-.042,6.968.021a1.731,1.731,0,0,0,1.829-1.056,5.882,5.882,0,0,1,7.692-2.417,1.365,1.365,0,0,0,1.65-.111c3.035-2.283,6.117-4.5,9.138-6.8a2.038,2.038,0,0,0,.7-1.4,6.066,6.066,0,0,1,8.148-5.948,1.887,1.887,0,0,0,1.437-.233c2.688-1.907,5.323-3.889,7.991-5.825a1.18,1.18,0,0,0,.568-1.324,6,6,0,0,1,4.025-6.7,6.113,6.113,0,0,1,7.343,3.017,1.7,1.7,0,0,0,1.235.676c3.34.055,6.68.03,10.021.031h1.288v4h-2.187c-3.006,0-6.013.015-9.019-.011a1.387,1.387,0,0,0-1.47.81,5.859,5.859,0,0,1-7.914,2.6,1.262,1.262,0,0,0-1.538.162q-3.709,2.773-7.456,5.5a1.276,1.276,0,0,0-.612,1.547,5.991,5.991,0,0,1-8.868,6.6,1.305,1.305,0,0,0-1.735.114q-4.3,3.242-8.663,6.392a1.362,1.362,0,0,0-.656,1.52A6,6,0,0,1,136.643,68.7a1.29,1.29,0,0,0-1.356-.786c-2.337.029-4.676,0-7.014-.011-.073,0-.145-.061-.277-.119M180.054,39.85a2,2,0,1,0-1.991-2,2.092,2.092,0,0,0,1.991,2M162,53.884a2,2,0,1,0-1.982-2.007A2.092,2.092,0,0,0,162,53.884m-20,14.035a2,2,0,1,0-2.036-1.954,2.093,2.093,0,0,0,2.036,1.954" transform="translate(-95.851 -23.82)" fill="#12263f"/>
        <rect id="Rectángulo_52641" data-name="Rectángulo 52641" width="3.844" height="3.866" transform="translate(106.333 12.091)" fill="#12263f"/>
        <rect id="Rectángulo_52642" data-name="Rectángulo 52642" width="3.829" height="3.889" transform="translate(24.138 40.167)" fill="#12263f"/>
        <path id="Trazado_212413" data-name="Trazado 212413" d="M81.864,23.98a2,2,0,1,1-2,1.962,1.958,1.958,0,0,1,2-1.962" transform="translate(-59.808 -17.958)" fill="#12263f"/>
        <path id="Trazado_212414" data-name="Trazado 212414" d="M107.8,26a2,2,0,1,1-1.943-2.019A1.961,1.961,0,0,1,107.8,26" transform="translate(-77.739 -17.956)" fill="#12263f"/>
        <path id="Trazado_212415" data-name="Trazado 212415" d="M131.754,26a2,2,0,1,1-1.938-2.024A1.962,1.962,0,0,1,131.754,26" transform="translate(-95.674 -17.955)" fill="#12263f"/>
        <path id="Trazado_212416" data-name="Trazado 212416" d="M347.6,343.264c-1.576,3.408-3.06,6.613-4.54,9.819-1.745,3.782-3.474,7.572-5.252,11.338-.176.372-.639.861-.975.866-4,.06-8,.039-12.15.039.311-2.766-1.373-4.124-3.455-5.27-1.819-1-3.57-2.125-5.45-3.254.365-.816.692-1.568,1.035-2.313,1.586-3.444,3.157-6.894,4.79-10.315a1.628,1.628,0,0,1,1.1-.871c8.224-.05,16.447-.038,24.9-.038" transform="translate(-236.473 -257.057)" fill="url(#linear-gradient)"/>
        <path id="Trazado_212419" data-name="Trazado 212419" d="M345.328,447.4c0,.668.033,1.252-.007,1.83a2,2,0,0,1-2.063,2.08q-6.953.06-13.906,0a2,2,0,0,1-2.06-2.08c-.038-.579-.007-1.162-.007-1.83Z" transform="translate(-245.082 -335.038)" fill="#43a99b"/>
        <path id="Trazado_212420" data-name="Trazado 212420" d="M273.562,450.785c1.156-.8,2.51-1.593,3.7-2.589a4.977,4.977,0,0,1,4.1-1.342,12.408,12.408,0,0,0,1.625.011c.068,1.294.134,2.559.206,3.921Z" transform="translate(-204.86 -334.593)" fill="#43a99b"/>
        <rect id="Rectángulo_52643" data-name="Rectángulo 52643" width="7.872" height="41.954" transform="translate(94.317 24.111)" fill="url(#linear-gradient)"/>
        <rect id="Rectángulo_52644" data-name="Rectángulo 52644" width="7.872" height="33.935" transform="translate(82.287 32.13)" fill="#ece5f7"/>
        <rect id="Rectángulo_52645" data-name="Rectángulo 52645" width="7.872" height="23.91" transform="translate(70.257 42.155)" fill="#eeac3a"/>
        <rect id="Rectángulo_52646" data-name="Rectángulo 52646" width="7.873" height="13.889" transform="translate(58.237 52.212)" fill="#0b67d1"/>
        <rect id="Rectángulo_52647" data-name="Rectángulo 52647" width="7.874" height="5.892" transform="translate(46.197 60.22)" fill="#f8f5fd"/>
        <path id="Trazado_212421" data-name="Trazado 212421" d="M329.35,51.93a2,2,0,1,1,2-1.992,2.089,2.089,0,0,1-2,1.992" transform="translate(-245.147 -35.9)" fill="#7f4fc7"/>
        <path id="Trazado_212422" data-name="Trazado 212422" d="M257.492,107.813a2,2,0,1,1,2.007-1.984,2.086,2.086,0,0,1-2.007,1.984" transform="translate(-191.341 -77.748)" fill="#7f4fc7"/>
        <path id="Trazado_212423" data-name="Trazado 212423" d="M177.709,163.695a2,2,0,1,1,1.953-2.037,2.088,2.088,0,0,1-1.953,2.037" transform="translate(-131.554 -119.596)" fill="#7f4fc7"/>
      </g>
    </g>
    <g id="Grupo_171295" data-name="Grupo 171295" transform="translate(-2263.662 2031.148)">
      <g id="Grupo_171294" data-name="Grupo 171294" clip-path="url(#clip-path-2)">
        <path id="Trazado_212424" data-name="Trazado 212424" d="M12.608,48.534H11.28c-.34-.118-.69-.211-1.017-.357a4.093,4.093,0,0,1-1.175-6.706c2.889-2.916,5.8-5.809,8.7-8.711.064-.063.137-.117.218-.186l.663.623,1.906-1.876h-.5q-9.734,0-19.467,0c-.2,0-.407-.025-.611-.038V0H48.505V31.321h-.538c-1.39,0-2.78.008-4.17-.006a.679.679,0,0,0-.66.338,12.471,12.471,0,0,1-2.924,3.14,13.057,13.057,0,0,1-9.824,2.669,13.213,13.213,0,0,1-5.273-1.872L23.05,37.645l.915.76a3.373,3.373,0,0,0-.521.337c-2.585,2.575-5.176,5.145-7.739,7.742a6.332,6.332,0,0,1-3.1,2.05M46.922,7.881H1.613V29.71H19.868C17.608,23.322,18.8,17.822,24.19,13.6a12.67,12.67,0,0,1,14.785-.685c6.239,4.093,7.7,9.88,5.376,16.8h2.572Zm0-6.261H1.616v4.6h45.31ZM43.815,24.271A11.722,11.722,0,1,0,32.067,36.01a11.741,11.741,0,0,0,11.748-11.74M15.644,37.187a.133.133,0,0,0-.062.026c-1.853,1.852-3.723,3.688-5.548,5.568a2.291,2.291,0,0,0-.486,2.468,2.518,2.518,0,0,0,4.2.941c1.8-1.768,3.576-3.567,5.361-5.353a.647.647,0,0,0,.076-.1l-3.539-3.548m4.682,2.244,1.122-1.079-3.481-3.5-1.084,1.123,3.442,3.454m1.579-3.042,1.713-1.707-1.937-1.914-1.692,1.7,1.915,1.921" fill="#1a1818"/>
        <path id="Trazado_212425" data-name="Trazado 212425" d="M62.325,21.653H17.015v-4.6h45.31Zm-43.78-1.508c.475,0,.9.012,1.319-.01.086,0,.233-.129.237-.2.022-.449.011-.9.011-1.339H18.545Zm3.145-.035h1.523V18.575H21.69Zm3.137-.006h1.525V18.585H24.828Z" transform="translate(-15.399 -15.43)" fill="#43a99b"/>
        <path id="Trazado_212426" data-name="Trazado 212426" d="M237.921,143.6a11.722,11.722,0,1,1-11.739-11.747A11.743,11.743,0,0,1,237.921,143.6m-11.7,10.178a10.182,10.182,0,1,0-10.207-10.116,10.184,10.184,0,0,0,10.207,10.116" transform="translate(-194.106 -119.333)" fill="#fff"/>
        <path id="Trazado_212427" data-name="Trazado 212427" d="M105.093,391.527l3.539,3.548a.652.652,0,0,1-.076.1c-1.785,1.786-3.558,3.585-5.361,5.353a2.518,2.518,0,0,1-4.2-.941,2.291,2.291,0,0,1,.486-2.468c1.825-1.88,3.695-3.716,5.548-5.568a.133.133,0,0,1,.062-.026m-3.127,7.435a.778.778,0,1,0-1.555.018.774.774,0,0,0,.79.761.76.76,0,0,0,.765-.779" transform="translate(-89.449 -354.34)" fill="#eeac3a"/>
        <path id="Trazado_212428" data-name="Trazado 212428" d="M181.205,371.541l-3.442-3.454,1.084-1.123,3.481,3.5-1.122,1.079" transform="translate(-160.879 -332.11)" fill="#deeffb"/>
        <path id="Trazado_212429" data-name="Trazado 212429" d="M212.38,348.624l-1.915-1.921,1.692-1.7,1.937,1.914-1.713,1.707" transform="translate(-190.475 -312.235)" fill="#eeac3a"/>
        <path id="Trazado_212430" data-name="Trazado 212430" d="M33.161,111.608V99.139h1.554v10.889H36.25V105.4h1.606v4.641H39.4v-6.2h1.575v6.2h1.542v-7.768h1.589v7.765h1.533V100.7h1.606v9.374h1.526v1.535Z" transform="translate(-30.011 -89.723)" fill="#1a1818"/>
        <path id="Trazado_212431" data-name="Trazado 212431" d="M33.126,34.86V33.308h1.567c0,.439.011.889-.011,1.339,0,.075-.151.2-.237.2-.422.021-.845.01-1.319.01" transform="translate(-29.98 -30.144)" fill="#1a1818"/>
        <rect id="Rectángulo_52649" data-name="Rectángulo 52649" width="1.523" height="1.535" transform="translate(6.292 3.145)" fill="#1a1818"/>
        <rect id="Rectángulo_52650" data-name="Rectángulo 52650" width="1.525" height="1.518" transform="translate(9.429 3.156)" fill="#1a1818"/>
        <path id="Trazado_212432" data-name="Trazado 212432" d="M240.852,168.662a10.182,10.182,0,1,1,10.161-10.248,10.21,10.21,0,0,1-10.161,10.248m8.571-10.164a8.592,8.592,0,1,0-8.584,8.593,8.61,8.61,0,0,0,8.584-8.593" transform="translate(-208.739 -134.213)" fill="#1a1818"/>
        <path id="Trazado_212433" data-name="Trazado 212433" d="M116.963,462.223a.76.76,0,0,1-.765.779.774.774,0,0,1-.79-.761.778.778,0,1,1,1.555-.018" transform="translate(-104.446 -417.6)" fill="#1a1818"/>
        <path id="Trazado_212434" data-name="Trazado 212434" d="M264.611,173.466a8.592,8.592,0,1,1-8.6-8.629,8.612,8.612,0,0,1,8.6,8.629m-14.044-2.388h10.913v-1.514H250.567Zm0,6.248h10.918v-1.5H250.567Zm10.92-4.626h-1.521v1.508h1.521Zm-9.4,0h-1.511v1.506h1.511Zm3.146,0H253.7v1.5h1.525Zm3.119,0h-1.509v1.505h1.509Z" transform="translate(-223.927 -149.181)" fill="#deeffb"/>
        <rect id="Rectángulo_52651" data-name="Rectángulo 52651" width="10.913" height="1.514" transform="translate(26.64 20.383)" fill="#1a1818"/>
        <rect id="Rectángulo_52652" data-name="Rectángulo 52652" width="10.918" height="1.5" transform="translate(26.64 26.645)" fill="#1a1818"/>
        <rect id="Rectángulo_52653" data-name="Rectángulo 52653" width="1.521" height="1.508" transform="translate(36.039 23.519)" fill="#1a1818"/>
        <rect id="Rectángulo_52654" data-name="Rectángulo 52654" width="1.511" height="1.506" transform="translate(26.644 23.52)" fill="#1a1818"/>
        <rect id="Rectángulo_52655" data-name="Rectángulo 52655" width="1.525" height="1.495" transform="translate(29.776 23.519)" fill="#1a1818"/>
        <rect id="Rectángulo_52656" data-name="Rectángulo 52656" width="1.509" height="1.505" transform="translate(32.911 23.523)" fill="#1a1818"/>
      </g>
    </g>
  </g>
</svg>
