<svg id="Grupo_171365" data-name="Grupo 171365" xmlns="http://www.w3.org/2000/svg" xmlns:xlink="http://www.w3.org/1999/xlink" width="184.494" height="178.875" viewBox="0 0 184.494 178.875">
  <defs>
    <clipPath id="clip-path">
      <rect id="Rectángulo_52695" data-name="Rectángulo 52695" width="184.494" height="178.875" fill="#12263f"/>
    </clipPath>
    <linearGradient id="linear-gradient" x1="0.5" x2="0.5" y2="1" gradientUnits="objectBoundingBox">
      <stop offset="0" stop-color="#f5f5f5"/>
      <stop offset="0.25" stop-color="#f5f5f5"/>
      <stop offset="1" stop-color="#a7b3cf"/>
    </linearGradient>
  </defs>
  <g id="Grupo_171364" data-name="Grupo 171364" clip-path="url(#clip-path)">
    <path id="Trazado_212472" data-name="Trazado 212472" d="M12.2,208.8c0-5.709,0-11.094,0-16.479q-.023-39.753-.045-79.505A14.436,14.436,0,0,1,27.037,98.424c9.837.142,19.676.05,29.514.055.3,0,.6-.052,1.123-.1,0-3.756,0-7.431,0-11.106,0-.689-.033-1.381.014-2.067a2.763,2.763,0,0,1,2.986-2.92q7.519-.076,15.039,0c2.07.021,3,1.066,3.017,3.231.03,3.633.012,7.266.014,10.9,0,.611,0,1.221,0,1.953h26.985c0-4.008,0-7.934,0-11.86,0-3.576.67-4.24,4.288-4.244,4.387,0,8.773-.015,13.16.009,2.665.014,3.6.967,3.616,3.633.017,4.119,0,8.239,0,12.585.918,0,1.651,0,2.383,0,9.587-.023,19.174-.064,28.761-.064a14.4,14.4,0,0,1,14.385,14.529q-.046,46.989-.05,93.978c0,.549.05,1.1.087,1.865,2.767,0,5.441-.008,8.115,0,3.063.011,3.936.874,3.951,3.876.01,2.13.16,4.273-.037,6.384a4.761,4.761,0,0,1-1.352,2.854c-2.73,2.487-5.58,4.849-8.487,7.129a5.021,5.021,0,0,1-2.864,1.046q-78.865.055-157.728.054a6.838,6.838,0,0,1-5.047-1.87c-2.353-2.156-4.847-4.164-7.347-6.151A3.62,3.62,0,0,1,0,218.925c.078-2.253.017-4.51.046-6.765.029-2.3,1.008-3.313,3.33-3.35,2.865-.046,5.732-.011,8.818-.011m18.055-93.241a6.077,6.077,0,0,0-.113.794q-.01,26.783-.034,53.566c0,1.182.522,1.432,1.528,1.613,6.343,1.145,12.669,2.384,19.017,3.494a2.507,2.507,0,0,0,1.974-.743c3.429-4.051,8.376-4.676,12.744-1.594a2.3,2.3,0,0,0,1.924.219q7.414-3.417,14.732-7.04a2.29,2.29,0,0,0,1.087-1.6c.318-4.858,3.4-8.436,7.809-8.916,4.786-.521,8.621,2.346,9.926,7.279a2.532,2.532,0,0,0,1.476,1.489c4.542,1.4,9.129,2.65,13.68,4.022a1.877,1.877,0,0,0,2.244-.62,8.56,8.56,0,0,1,10.635-1.759,2.188,2.188,0,0,0,2.673-.2q10.7-7.314,21.481-14.509a2.716,2.716,0,0,0,1.332-2.611c-.044-10.4-.024-20.8-.03-31.2,0-.543-.061-1.086-.1-1.7h-27.5a35.086,35.086,0,0,1-10.308,22.949,33.343,33.343,0,0,1-23.186,10.078,32.845,32.845,0,0,1-20.8-6.353c-9.07-6.561-13.76-15.626-14.758-26.657Zm96.627-5.738h2.21l26.7,0c3.464,0,4.191.717,4.191,4.149q0,42.294,0,84.588c0,3.7-.625,4.314-4.407,4.314H87.9q-29.8,0-59.6,0c-2.984,0-3.809-.826-3.81-3.778q0-42.671,0-85.341c0-3.164.788-3.926,4.036-3.928q13.538-.007,27.075,0h1.912v-5.637c-10.812,0-21.465-.079-32.115.089a8.715,8.715,0,0,0-4.532,1.95c-2.68,1.973-3.044,4.982-3.042,8.1q.028,46.337.016,92.674c0,.542.07,1.084.115,1.747h2.188c13.976,0,27.957.211,41.926-.11,4.913-.113,8.89.854,12.239,4.5A4.482,4.482,0,0,0,77.3,214.2c8.586.083,17.18-.169,25.755.141,4.241.153,7.719-.7,10.5-3.948,1.2-1.406,2.746-1.687,4.547-1.681,15.48.055,30.96.034,46.441.03.66,0,1.319-.054,2.092-.089v-2.06q0-31.581,0-63.161c-.006-10.338.025-20.677-.109-31.014a8.086,8.086,0,0,0-8.421-8.231c-9.965-.048-19.93-.043-29.895-.053-.418,0-.837.066-1.327.107Zm27.376,47.314c-.46.244-.685.338-.883.471-6.332,4.274-12.645,8.576-19.008,12.8-.926.615-.916,1.237-.822,2.183a8.951,8.951,0,0,1-7.414,9.77,8.853,8.853,0,0,1-10.12-7.14,1.892,1.892,0,0,0-1.587-1.719c-4.577-1.285-9.154-2.573-13.7-3.948a1.843,1.843,0,0,0-2.228.657,8.608,8.608,0,0,1-11.728,1.07,1.922,1.922,0,0,0-2.327-.269q-7.255,3.533-14.578,6.929a1.923,1.923,0,0,0-1.281,1.976A8.826,8.826,0,0,1,51.3,182.265a2.18,2.18,0,0,0-2.047-1.741c-3.145-.539-6.273-1.169-9.411-1.749-3.17-.586-6.343-1.155-9.583-1.744v20.077h124ZM5.888,214.529c-.649,2.364-.158,4.108,1.886,5.433a24.962,24.962,0,0,1,3.759,3.111,5.1,5.1,0,0,0,3.889,1.407c49.5-.034,99.006-.109,148.508.091,5.241.021,9.36-1.051,13.079-4.773a5,5,0,0,0,1.573-5.269H167.831c-15.038,0-30.08.137-45.115-.094-3.862-.06-6.952.751-9.507,3.6a6.189,6.189,0,0,1-5.069,1.886c-9.461-.08-18.93-.243-28.383.057-4.429.141-8.119-.682-11.057-4.092A4.446,4.446,0,0,0,65,214.5q-24.156.063-48.312.027H5.888M111.405,98.612c0,4.718,0,9.28,0,13.843.006,10.042-7.05,18.446-16.454,19.591-10.119,1.232-19.123-4.739-21.207-14.576-.8-3.8-.5-7.839-.632-11.771-.078-2.353-.014-4.71-.014-7.09H63.622c0,6.342-.606,12.655.13,18.806,1.389,11.6,7.933,19.832,18.931,23.812,10.833,3.919,20.8,1.6,29.232-6.239,6.284-5.839,9.186-13.292,9.22-21.855.019-4.806,0-9.611,0-14.52Zm-6.086,16.934H79.161c.533,5.953,6.486,11.02,12.96,11.108s12.512-4.948,13.2-11.108m.359-11.25H78.851v5.365h26.828ZM73.008,88.02H63.441v4.7h9.567Zm47.973.021h-9.462V92.8h9.462ZM92.1,167.4a3.226,3.226,0,0,0-.06-6.451,3.226,3.226,0,1,0,.06,6.451m32.642,2.943a3.224,3.224,0,0,0-.138,6.445,3.224,3.224,0,1,0,.138-6.445m-61.768,9.44a3.247,3.247,0,0,0-3.036-3.387,3.284,3.284,0,0,0-3.422,3.212,3.2,3.2,0,0,0,3.152,3.255,3.151,3.151,0,0,0,3.306-3.08" transform="translate(0.001 -51.266)" fill="#12263f"/>
    <path id="Trazado_212473" data-name="Trazado 212473" d="M167.012,16.312c-1.329,0-2.33.069-3.318-.014-2.241-.188-3.436-1.925-2.58-3.959,1.5-3.573,3.119-7.1,4.771-10.61A2.726,2.726,0,0,1,169.66.3a2.818,2.818,0,0,1,1.3,3.836c-.865,2.074-1.835,4.1-2.944,6.559,1.213,0,2.169-.034,3.122.007,2.566.109,3.782,1.889,2.773,4.209-1.3,2.982-2.681,5.928-4.1,8.855a2.807,2.807,0,0,1-3.9,1.515,2.868,2.868,0,0,1-1.2-3.866c.331-.81.732-1.591,1.094-2.388s.707-1.583,1.212-2.715" transform="translate(-100.253 -0.002)"/>
    <path id="Trazado_212474" data-name="Trazado 212474" d="M234.229,55.442c1.33,0,2.308-.055,3.278.011,2.438.166,3.6,1.959,2.626,4.175-1.3,2.975-2.685,5.916-4.093,8.843-.832,1.73-2.347,2.308-3.844,1.6s-1.981-2.225-1.228-4c.658-1.547,1.393-3.061,2.288-5.012-1.214,0-2.167.041-3.115-.008-2.56-.132-3.726-1.909-2.713-4.244,1.467-3.381,2.993-6.737,4.547-10.078.817-1.758,2.3-2.366,3.807-1.69,1.592.713,2.094,2.23,1.284,4.105-.859,1.992-1.779,3.957-2.837,6.3" transform="translate(-141.534 -27.906)"/>
    <path id="Trazado_212475" data-name="Trazado 212475" d="M299.39,16.313c-1.384,0-2.382.072-3.366-.015-2.207-.193-3.392-1.959-2.533-3.995,1.506-3.568,3.126-7.092,4.787-10.591a2.685,2.685,0,0,1,3.765-1.4A2.76,2.76,0,0,1,303.3,4.138c-.864,2.071-1.813,4.106-2.907,6.564,1.261,0,2.281-.049,3.294.01,2.444.142,3.575,1.917,2.584,4.18-1.3,2.977-2.682,5.921-4.1,8.848a2.8,2.8,0,1,1-5.092-2.309c.67-1.6,1.425-3.171,2.308-5.118" transform="translate(-182.764 0)"/>
    <path id="Trazado_212476" data-name="Trazado 212476" d="M80.072,170.655H107.5c1,11.03,5.689,20.1,14.758,26.657a32.843,32.843,0,0,0,20.8,6.353,33.339,33.339,0,0,0,23.186-10.078,35.084,35.084,0,0,0,10.308-22.949h27.5c.037.614.1,1.157.1,1.7.006,10.4-.014,20.8.03,31.2a2.716,2.716,0,0,1-1.332,2.611q-10.786,7.187-21.481,14.51a2.189,2.189,0,0,1-2.674.2,8.561,8.561,0,0,0-10.635,1.759,1.877,1.877,0,0,1-2.244.62c-4.551-1.372-9.138-2.623-13.68-4.022a2.533,2.533,0,0,1-1.476-1.489c-1.3-4.933-5.139-7.8-9.925-7.279-4.412.48-7.491,4.058-7.809,8.916a2.291,2.291,0,0,1-1.087,1.6q-7.317,3.62-14.732,7.04a2.3,2.3,0,0,1-1.924-.218c-4.368-3.082-9.315-2.457-12.744,1.594a2.507,2.507,0,0,1-1.975.743c-6.349-1.11-12.674-2.349-19.017-3.494-1.006-.182-1.53-.431-1.528-1.613q.054-26.783.034-53.566a6.133,6.133,0,0,1,.113-.794" transform="translate(-49.819 -106.362)" fill="url(#linear-gradient)"/>
    <path id="Trazado_212477" data-name="Trazado 212477" d="M204.329,281.059v39.973h-124V300.954c3.241.589,6.414,1.158,9.584,1.744,3.138.58,6.266,1.21,9.411,1.75a2.18,2.18,0,0,1,2.047,1.741,8.826,8.826,0,0,0,17.274-2.348,1.924,1.924,0,0,1,1.281-1.976q7.316-3.407,14.578-6.928a1.922,1.922,0,0,1,2.327.268,8.607,8.607,0,0,0,11.727-1.069,1.844,1.844,0,0,1,2.228-.657c4.551,1.375,9.127,2.663,13.7,3.949a1.892,1.892,0,0,1,1.587,1.719,8.853,8.853,0,0,0,10.12,7.14,8.95,8.95,0,0,0,7.414-9.77c-.094-.946-.1-1.569.822-2.184,6.363-4.227,12.676-8.529,19.008-12.8.2-.133.422-.227.883-.471" transform="translate(-50.073 -175.19)" fill="url(#linear-gradient)"/>
    <path id="Trazado_212478" data-name="Trazado 212478" d="M15.19,433.268H25.985q24.156,0,48.312-.027a4.446,4.446,0,0,1,3.7,1.38c2.939,3.41,6.628,4.233,11.057,4.092,9.453-.3,18.922-.136,28.383-.057a6.189,6.189,0,0,0,5.069-1.886c2.555-2.846,5.645-3.656,9.507-3.6,15.035.231,30.077.095,45.115.095h10.751a5,5,0,0,1-1.573,5.269c-3.718,3.722-7.838,4.794-13.078,4.773-49.5-.2-99.006-.125-148.509-.091a5.094,5.094,0,0,1-3.889-1.407,24.943,24.943,0,0,0-3.759-3.111c-2.044-1.324-2.534-3.069-1.886-5.433M41.761,441c1.753,0,3.509.051,5.26-.015a2.8,2.8,0,1,0,.007-5.59c-3.443-.069-6.888-.065-10.332-.007a2.8,2.8,0,1,0-.006,5.6c1.689.059,3.381.013,5.072.009" transform="translate(-9.301 -270.005)" fill="#43a99b"/>
    <path id="Trazado_212479" data-name="Trazado 212479" d="M216.3,125.687h9.734c0,4.909.016,9.715,0,14.52-.034,8.563-2.936,16.016-9.22,21.855-8.433,7.835-18.4,10.158-29.232,6.239-11-3.979-17.542-12.21-18.931-23.812-.736-6.152-.13-12.464-.13-18.806h9.475c0,2.38-.063,4.738.014,7.091.13,3.932-.172,7.972.632,11.771,2.083,9.838,11.088,15.808,21.207,14.576,9.4-1.145,16.461-9.548,16.454-19.591,0-4.563,0-9.126,0-13.843" transform="translate(-104.894 -78.341)" fill="#eeac3a"/>
    <path id="Trazado_212480" data-name="Trazado 212480" d="M236.316,170.65c-.686,6.161-6.73,11.2-13.2,11.108s-12.427-5.155-12.96-11.108Z" transform="translate(-130.996 -106.37)" fill="#fff"/>
    <rect id="Rectángulo_52693" data-name="Rectángulo 52693" width="9.566" height="4.704" transform="translate(63.442 36.754)" fill="#7f4fc7"/>
    <rect id="Rectángulo_52694" data-name="Rectángulo 52694" width="9.462" height="4.762" transform="translate(111.52 36.775)" fill="#7f4fc7"/>
    <path id="Trazado_212481" data-name="Trazado 212481" d="M239.044,297.64a3.226,3.226,0,1,1-.06-6.451,3.226,3.226,0,0,1,.06,6.451" transform="translate(-146.949 -181.504)" fill="#135989"/>
    <path id="Trazado_212482" data-name="Trazado 212482" d="M325.808,316.128a3.224,3.224,0,1,1-.138,6.445,3.224,3.224,0,0,1,.138-6.445" transform="translate(-201.07 -197.049)" fill="#135989"/>
    <path id="Trazado_212483" data-name="Trazado 212483" d="M156.48,335.578a3.151,3.151,0,0,1-3.306,3.08,3.2,3.2,0,0,1-3.152-3.255,3.284,3.284,0,0,1,3.422-3.212,3.247,3.247,0,0,1,3.036,3.387" transform="translate(-93.511 -207.059)" fill="#135989"/>
    <path id="Trazado_212484" data-name="Trazado 212484" d="M73.006,444.589c-1.691,0-3.383.048-5.072-.011a2.8,2.8,0,1,1,.006-5.6c3.443-.058,6.889-.063,10.332.007a2.795,2.795,0,1,1-.007,5.59c-1.751.066-3.506.015-5.26.017" transform="translate(-40.546 -273.596)"/>
  </g>
</svg>
