<svg xmlns="http://www.w3.org/2000/svg" xmlns:xlink="http://www.w3.org/1999/xlink" width="93" height="93" viewBox="0 0 93 93">
  <defs>
    <clipPath id="clip-path">
      <rect id="Rectángulo_52582" data-name="Rectángulo 52582" width="93" height="93" fill="#12263f"/>
    </clipPath>
  </defs>
  <g id="Grupo_171280" data-name="Grupo 171280" transform="translate(0 0.395)">
    <g id="Grupo_171279" data-name="Grupo 171279" transform="translate(0 -0.395)" clip-path="url(#clip-path)">
      <path id="Trazado_212324" data-name="Trazado 212324" d="M0,84.949v-46.6c3.614-2.9,7.2-5.847,10.856-8.695a4.37,4.37,0,0,0,1.959-3.911c-.128-7.661-.1-15.326,0-22.987.012-.925.785-1.839,1.2-2.758H37.114C37.5.79,38.4,1.939,38.158,2.294a3.463,3.463,0,0,1-2.451,1.3c-5.15.116-10.3.058-15.457.058H16.229V6.156q0,15.974.007,31.947c.008,4.319.085,8.638.132,12.956,2.988,3.031,6,6.042,8.956,9.1,1.943,2.006,3.817,4.079,5.8,6.206,4.458-4.686,9.5-6.937,15.315-7.053L40.611,53.3c-.158.138-.366.312-.566.494-4.218,3.831-9.991,3.777-13.86-.129-3.779-3.816-3.67-9.739.273-13.852,1.093-1.14,2.3-2.174,3.333-3.368,1.367-1.588,3-3.108,3.834-4.965C37.445,22.925,41.018,14.26,44.7,5.641c1.021-2.393,2.086-2.6,3.953-.762,2.351,2.312,4.627,4.7,7.032,6.956a2.466,2.466,0,0,0,2.031.463c3.148-.948,6.045-.666,8.378,1.746A7.407,7.407,0,0,1,67.7,22.408c-.167.431-.253,1.187-.01,1.438,2.832,2.926,5.733,5.784,8.874,8.918,0-2.245-.01-4.086,0-5.927.009-1.153.448-2.272,1.709-2,.692.148,1.233,1.25,1.729,2,.556.84.778,2.016,1.5,2.612,3.7,3.045,7.507,5.951,11.277,8.905v46.6a10.191,10.191,0,0,1-7.835,7.835H7.835A10.154,10.154,0,0,1,0,84.949M11.434,89H81.256c-.361-.4-.518-.6-.7-.772-7.723-7.017-15.359-14.134-23.2-21.015-6.885-6.04-15.753-5.723-22.518.48-1.164,1.067-2.344,2.117-3.509,3.182-3.219,2.945-6.434,5.894-10.082,9.238,3.248,0,5.956-.019,8.664.009,1.154.012,2.3.208,2.312,1.719.013,1.563-1.042,1.88-2.364,1.873-3.708-.021-7.417-.026-11.125.011a3.264,3.264,0,0,0-1.913.414C15.045,85.6,13.389,87.209,11.434,89M64.3,68.672q2.6,2.362,5.181,4.712c5.189,4.707,10.409,9.379,15.544,14.143,1.127,1.046,2.053.954,2.626-.212a11.167,11.167,0,0,0,1.426-4.539c.113-12.434.065-24.868.058-37.3,0-.5-.083-1.008-.126-1.485L64.3,68.672M6.619,88.514,28.347,68.808l-24.6-24.6c.05-.089-.064.019-.064.127q0,19.892.023,39.783c.005,1.939,1.1,3.3,2.913,4.393M48.505,46.447c2.029,1.915,3.843,3.573,5.594,5.294,1.722,1.692,1.722,2.345-.059,4.062-1.261,1.216-2.633,2.318-3.65,3.2l11.572,6.7c4.445-4.464,9.154-9.171,13.824-13.917a2.566,2.566,0,0,0,.734-1.582c.054-5.264.033-10.529.033-15.765L48.505,46.447m15.43-10.469L44.212,16.311c-.041.033-.2.1-.246.207C41.593,22.035,39.2,27.543,36.917,33.1a2.24,2.24,0,0,0,.518,1.9c2.5,2.632,5.083,5.2,7.7,7.713a2.048,2.048,0,0,0,1.715.518c5.662-2.338,11.285-4.772,17.081-7.252M34.388,37.2c-2.055,2-4.142,3.793-5.949,5.838a5.859,5.859,0,0,0,.16,8.025c2.192,2.37,5.482,2.975,7.947.905,2.27-1.906,4.065-4.377,6.029-6.555L34.388,37.2m12.8-28.273c-1.586,3.485-1.585,3.484,1.04,6.111C54,20.815,59.858,26.516,65.5,32.418c1.619,1.692,2.978,2.092,4.876.854.271-.177.56-.329.738-.433L47.191,8.927M12.665,32.708,4.9,38.965l7.764,7.752Zm67.488.276V46.89l7.824-7.814-7.824-6.091M50.8,54.06l-5.356-5.684L43.694,50.2l5.317,5.549L50.8,54.06m9.347-38.67,4.474,4.49c.406-2.854-1.464-4.778-4.474-4.49" transform="translate(0 0.423)" fill="#12263f"/>
      <path id="Trazado_212325" data-name="Trazado 212325" d="M177.44,0c1.665,1.377,1.754,2.177.322,3.635-2.116,2.154-4.271,4.27-6.392,6.419-.873.885-1.852,1.35-2.856.376s-.612-1.97.3-2.85q3.91-3.781,7.8-7.58Z" transform="translate(-98.676 0.423)" fill="#12263f"/>
      <path id="Trazado_212326" data-name="Trazado 212326" d="M153.609,0c1.193,1.066,1.842,5.18.9,6.345a2.135,2.135,0,0,1-1.536.737c-.495-.028-1.321-.523-1.379-.907-.315-2.106-.912-4.306.779-6.176Z" transform="translate(-88.866 0.423)" fill="#12263f"/>
      <path id="Trazado_212327" data-name="Trazado 212327" d="M27.727,178.562c1.955-1.788,3.611-3.394,5.381-4.86a3.264,3.264,0,0,1,1.913-.414c3.708-.037,7.416-.032,11.125-.011,1.322.007,2.377-.31,2.364-1.873-.012-1.511-1.158-1.707-2.312-1.719-2.708-.028-5.416-.009-8.664-.009,3.648-3.343,6.863-6.292,10.082-9.238,1.165-1.066,2.345-2.115,3.508-3.182,6.765-6.2,15.634-6.52,22.518-.48,7.843,6.881,15.479,14,23.2,21.015.187.17.343.374.7.772Zm29.023-7.177c-1.174-.8-1.929-1.68-2.42-1.552a2.618,2.618,0,0,0-1.632,1.742c-.073.467.994,1.565,1.546,1.562.667,0,1.329-.874,2.506-1.752" transform="translate(-16.293 -89.142)" fill="#deeffb"/>
      <path id="Trazado_212328" data-name="Trazado 212328" d="M155.914,131.355l24.711-24.683c.042.477.125.981.125,1.485.007,12.434.055,24.869-.058,37.3A11.171,11.171,0,0,1,179.266,150c-.574,1.166-1.5,1.258-2.627.212-5.134-4.765-10.355-9.436-15.543-14.143q-2.591-2.35-5.182-4.712" transform="translate(-91.619 -62.26)" fill="#deeffb"/>
      <path id="Trazado_212329" data-name="Trazado 212329" d="M11.86,151.464c-1.811-1.09-2.908-2.454-2.913-4.393q-.054-19.892-.023-39.783c0-.108.115-.217.064-.127l24.6,24.6L11.86,151.464" transform="translate(-5.242 -62.528)" fill="#deeffb"/>
      <path id="Trazado_212330" data-name="Trazado 212330" d="M116.449,59.221c-5.8,2.48-11.418,4.913-17.081,7.252a2.047,2.047,0,0,1-1.715-.518c-2.622-2.516-5.2-5.081-7.7-7.713a2.241,2.241,0,0,1-.518-1.9c2.284-5.553,4.677-11.061,7.05-16.577.047-.111.2-.174.246-.207l19.723,19.666" transform="translate(-52.514 -22.821)" fill="#eeac3a"/>
      <path id="Trazado_212331" data-name="Trazado 212331" d="M72.757,90.21l8.186,8.213c-1.964,2.178-3.759,4.648-6.029,6.554-2.465,2.07-5.755,1.465-7.947-.905a5.859,5.859,0,0,1-.16-8.025C68.615,94,70.7,92.206,72.757,90.21" transform="translate(-38.369 -52.587)" fill="#ece5f7"/>
      <path id="Trazado_212332" data-name="Trazado 212332" d="M112.892,21.647l23.925,23.912c-.179.1-.467.256-.738.433-1.9,1.239-3.257.839-4.876-.854-5.644-5.9-11.5-11.6-17.271-17.38-2.625-2.627-2.626-2.626-1.04-6.111" transform="translate(-65.701 -12.298)" fill="#ece5f7"/>
      <path id="Trazado_212333" data-name="Trazado 212333" d="M113.064,122.994l-1.79,1.694-5.317-5.549,1.751-1.829,5.356,5.684" transform="translate(-62.263 -68.512)" fill="#12263f"/>
      <path id="Trazado_212334" data-name="Trazado 212334" d="M145.858,37.278c3.01-.288,4.88,1.636,4.474,4.49l-4.474-4.49" transform="translate(-85.71 -21.466)" fill="#eeac3a"/>
      <path id="Trazado_212335" data-name="Trazado 212335" d="M55.036,52.784a21.412,21.412,0,0,1-4.08-.074,2.816,2.816,0,0,1-1.87-1.613c-.332-1.224.661-1.872,1.815-1.895,2.8-.057,5.6-.129,8.389.067.673.047,1.275,1.111,1.909,1.707-.689.6-1.3,1.555-2.085,1.729a19.046,19.046,0,0,1-4.078.078" transform="translate(-28.806 -28.454)" fill="#12263f"/>
      <path id="Trazado_212336" data-name="Trazado 212336" d="M54.492,28.2a16.008,16.008,0,0,1-3.674-.074c-.707-.169-1.237-1.082-1.846-1.661.567-.555,1.1-1.545,1.708-1.59a48.826,48.826,0,0,1,7.372.012,2.265,2.265,0,0,1,1.518,1.652c-.013.565-.943,1.425-1.609,1.586a15.232,15.232,0,0,1-3.47.074" transform="translate(-28.777 -14.117)" fill="#12263f"/>
      <path id="Trazado_212337" data-name="Trazado 212337" d="M180.552,33.981c1.461.116,3.468-.457,3.524,1.766.06,2.381-2.014,1.921-3.509,1.917-1.425,0-3.418.481-3.48-1.743-.067-2.422,2.031-1.8,3.465-1.94" transform="translate(-104.06 -19.545)" fill="#12263f"/>
      <path id="Trazado_212338" data-name="Trazado 212338" d="M84.87,22.993c.755,1.2,1.546,1.9,1.47,2.484-.08.616-.991,1.124-1.539,1.679-.573-.6-1.483-1.14-1.609-1.823-.094-.512.821-1.209,1.678-2.339" transform="translate(-48.882 -13.089)" fill="#12263f"/>
      <path id="Trazado_212339" data-name="Trazado 212339" d="M92.328,196.183c-1.177.878-1.839,1.748-2.506,1.752-.552,0-1.619-1.094-1.546-1.562a2.618,2.618,0,0,1,1.632-1.742c.491-.128,1.246.755,2.42,1.552" transform="translate(-51.871 -113.94)" fill="#12263f"/>
    </g>
  </g>
</svg>
