<svg id="Grupo_171369" data-name="Grupo 171369" xmlns="http://www.w3.org/2000/svg" xmlns:xlink="http://www.w3.org/1999/xlink" width="172.719" height="172.721" viewBox="0 0 172.719 172.721">
  <defs>
    <clipPath id="clip-path">
      <rect id="Rectángulo_52716" data-name="Rectángulo 52716" width="172.719" height="172.721" fill="none"/>
    </clipPath>
    <linearGradient id="linear-gradient" x1="0.5" x2="0.5" y2="1" gradientUnits="objectBoundingBox">
      <stop offset="0" stop-color="#f5f5f5"/>
      <stop offset="0.25" stop-color="#f5f5f5"/>
      <stop offset="1" stop-color="#a7b3cf"/>
    </linearGradient>
  </defs>
  <g id="Grupo_171368" data-name="Grupo 171368" clip-path="url(#clip-path)">
    <path id="Trazado_212515" data-name="Trazado 212515" d="M40.047,0H76.959c3.321,1.213,5.771,3.281,6.511,7.089a30.893,30.893,0,0,1,11.078-5.86C96.323.739,98.142.4,99.941,0h6.268a6.714,6.714,0,0,0,.985.3,30.569,30.569,0,0,1,25.628,23.13c.357,1.441.584,2.914.883,4.431,2.784,0,5.451-.056,8.114.028a1.844,1.844,0,0,0,1.972-1.262c1.371-2.876,2.874-5.69,4.217-8.579a2.082,2.082,0,0,1,2.257-1.359c6.556.059,13.112.027,19.668.033.485,0,.971.06,1.663.105-1.181,2.36-2.27,4.523-3.348,6.693-1.159,2.335-3.218,4.678-3.209,7.011.009,2.4,2.023,4.8,3.188,7.192,1.084,2.22,2.207,4.422,3.422,6.851-7.6,0-14.9.02-22.2-.049-.44,0-1.035-.626-1.284-1.1-1.527-2.927-2.949-5.91-4.477-8.837-.249-.478-.841-1.084-1.293-1.1-2.885-.1-5.775-.051-8.787-.051a31.253,31.253,0,0,1-9.295,19.3l9.959,12.439c.476-.273.823-.478,1.175-.673a25.035,25.035,0,0,1,36.408,15.375c.332,1.223.578,2.469.864,3.7v5.572c-.122.5-.277,1-.363,1.5-2.343,13.841-16.161,23.242-29.784,20.257a25.093,25.093,0,0,1-19.133-31.077,26.154,26.154,0,0,1,6.45-11.207l-9.81-12.245c-2.613.674-3.152,2.168-3.139,4.536.11,19.843.063,39.687.063,59.531v2.131h2.111q19.67,0,39.339.007a13.863,13.863,0,0,1,13.949,11.05,5.412,5.412,0,0,0,.317.782v4.179c-.069.091-.174.171-.2.273-2.158,7.926-6.909,11.565-15.11,11.566H117c0,2.728.008,5.215,0,7.7-.031,8.6-5.971,14.574-14.547,14.578q-43.953.018-87.9,0c-8.576,0-14.542-5.984-14.544-14.577Q-.007,89.117.007,20.1C.009,11.526,5.992,5.593,14.6,5.574c5.976-.013,11.953.012,17.929-.027.55,0,1.419-.191,1.594-.555A10.037,10.037,0,0,1,40.047,0m60.174,150.431c-4.482,0-8.773.02-13.063-.017a7.132,7.132,0,0,1-2.367-.395q-9.21-3.4-18.385-6.9a9.5,9.5,0,0,1-2.584-1.389c-4.211-3.407-3.039-9.667,2.242-11.721,5.993-2.33,12.028-4.551,18.071-6.748a11.133,11.133,0,0,1,3.53-.656c4.158-.078,8.318-.03,12.549-.03V61.7L86.472,57.039l-3.84,5.038A36.226,36.226,0,1,1,26.112,73,35.134,35.134,0,0,1,44.835,55.653C56.4,51,67.517,52.341,78.192,58.7l4.18-5.482a31.168,31.168,0,0,1-9.883-25.363h-2q-14.19,0-28.38,0a8.067,8.067,0,0,1-7.642-4.534,1.768,1.768,0,0,0-1.9-1.047c-4.817.029-9.634.01-14.451.019-.44,0-.881.078-1.313.119V155.895h83.419ZM33.366,11.143c-6.273,0-12.36,0-18.447,0-6.016,0-9.344,3.344-9.344,9.387q0,68.584,0,137.167c0,6.143,3.31,9.446,9.462,9.447q31.768,0,63.535,0c8.123,0,16.246.022,24.37-.011,4.147-.017,7.653-2.592,8.2-6.613.442-3.274.09-6.655.09-10.09H105.86c0,1.961.022,3.642,0,5.322a5.54,5.54,0,0,1-5.806,5.811q-41.516.025-83.031,0a5.536,5.536,0,0,1-5.866-5.922q-.015-66.495,0-132.989c0-3.645,2.336-5.922,6.026-5.936,4.816-.018,9.632,0,14.448-.008.561,0,1.121-.05,1.74-.08ZM127.818,27.8c-.583-10.13-10.139-22.365-25.1-22.223a25.066,25.066,0,0,0,.39,50.129c14.858-.057,24.194-12.315,24.7-22.187H116.773c-2.363,8.717-9.74,11.677-15.322,10.956a13.926,13.926,0,0,1-1.832-27.324,13.572,13.572,0,0,1,9.331.887,14.252,14.252,0,0,1,7.834,9.761Zm-49.8,75.275c2.265,0,4.345-.061,6.418.026a1.619,1.619,0,0,0,1.925-1.28c.926-3.63,2.375-7.225,2.65-10.906a30.584,30.584,0,1,0-58.481,10.6c.261.577.765,1.45,1.2,1.477,2.4.144,4.812.069,7.341.069V86.312H50.235V69.743H66.912V75.31h11.1ZM58.583,5.572c-5.454,0-10.907-.016-16.361.008-2.166.01-3.193,1.045-3.211,3.213-.028,3.481-.036,6.962.005,10.443a2.753,2.753,0,0,0,3.032,3.035q15.229.033,30.457-.044a2.029,2.029,0,0,0,1.4-1.042c.878-1.757,1.374-3.746,2.454-5.35a10.373,10.373,0,0,0,1.67-6.708c-.137-2.6-.987-3.549-3.608-3.553q-7.919-.015-15.838,0M167.141,86.4A19.494,19.494,0,1,0,147.6,105.853,19.553,19.553,0,0,0,167.141,86.4M35.066,108.722c13.394,16.034,36.905,13.243,46.644,0Zm76.291,13.772V60.214l-5.406,1.022v61.257Zm-22.133,11.1h55.493v-5.357H89.224Zm55.557,5.814H89.288v5.362h55.494Zm5.779-11.244v16.675c3.023,0,5.924.114,8.814-.027a8.33,8.33,0,0,0,0-16.622c-2.89-.137-5.791-.026-8.814-.026M110.768,27.831a8.152,8.152,0,0,0-9.423-5.35,8.378,8.378,0,0,0-6.6,8.964,8.54,8.54,0,0,0,8.014,7.569c2.9.163,7.426-2.167,7.842-5.66H100.424V27.831Zm-54.934,75.1H61.2V75.3H55.835Zm27.7,26.468c-5.13,1.925-10.057,3.742-14.95,5.649-.655.255-1.133.962-1.693,1.46a7.011,7.011,0,0,0,1.71,1.45c4.525,1.771,9.085,3.454,13.638,5.154a12.9,12.9,0,0,0,1.295.333ZM72.308,80.93H66.953V103h5.355ZM44.683,102.946h5.323V91.965H44.683Zm104.7-75.089c3.377,0,6.446.017,9.513-.021a1.546,1.546,0,0,0,1.168-.475c.876-1.6,1.642-3.26,2.532-5.074-3.348,0-6.417-.032-9.483.035a1.826,1.826,0,0,0-1.314.778c-.83,1.444-1.523,2.967-2.415,4.757M162.622,39c-.909-1.828-1.652-3.386-2.466-4.905a1.292,1.292,0,0,0-.894-.631c-3.208-.046-6.417-.028-9.872-.028.906,1.822,1.629,3.392,2.474,4.892a1.656,1.656,0,0,0,1.23.643c3.067.054,6.136.029,9.528.029" transform="translate(0)"/>
    <path id="Trazado_212516" data-name="Trazado 212516" d="M131.574,191.99v5.464H48.156V63.97c.432-.041.873-.118,1.313-.119,4.817-.009,9.634.009,14.451-.019a1.769,1.769,0,0,1,1.9,1.047,8.067,8.067,0,0,0,7.642,4.534q14.189.014,28.38,0h2a31.17,31.17,0,0,0,9.883,25.363l-4.18,5.482c-10.675-6.361-21.8-7.7-33.357-3.049A35.135,35.135,0,0,0,57.466,114.56a36.2,36.2,0,1,0,56.52-10.924l3.84-5.038,13.744,4.662v60.871c-4.23,0-8.391-.047-12.549.03a11.133,11.133,0,0,0-3.53.656c-6.043,2.2-12.079,4.418-18.071,6.748-5.281,2.054-6.454,8.314-2.242,11.721a9.5,9.5,0,0,0,2.584,1.389q9.174,3.5,18.385,6.9a7.13,7.13,0,0,0,2.367.395c4.29.037,8.58.017,13.062.017M64.857,80.477H98.11V75.1H64.857Zm.01,11.109H98.076V86.218H64.868ZM53.715,180.764H86.968V175.39H53.715ZM53.72,191.9H86.962v-5.364H53.72ZM59.132,75.086H53.754v5.346h5.377Zm.007,11.171H53.783v5.351h5.356Z" transform="translate(-31.353 -41.559)" fill="#f8f5fd"/>
    <path id="Trazado_212517" data-name="Trazado 212517" d="M273.376,38.2H262.341a14.251,14.251,0,0,0-7.834-9.761,13.57,13.57,0,0,0-9.331-.887,13.926,13.926,0,0,0,1.833,27.324c5.582.721,12.959-2.239,15.322-10.956h11.033c-.5,9.871-9.838,22.13-24.7,22.187a25.066,25.066,0,0,1-.39-50.129c14.96-.142,24.516,12.093,25.1,22.223" transform="translate(-145.557 -10.401)" fill="#1a76b7"/>
    <path id="Trazado_212518" data-name="Trazado 212518" d="M130.019,212.214V184.452h-11.1v-5.567H102.238v16.568H91.071V212.2c-2.529,0-4.941.075-7.341-.069-.433-.026-.938-.9-1.2-1.476a30.588,30.588,0,1,1,58.481-10.6c-.275,3.681-1.724,7.275-2.65,10.906a1.619,1.619,0,0,1-1.925,1.28c-2.074-.087-4.153-.026-6.418-.026" transform="translate(-52.003 -109.141)" fill="#fff"/>
    <path id="Trazado_212519" data-name="Trazado 212519" d="M131.334,15.96q7.919,0,15.838,0c2.62,0,3.47.955,3.608,3.553a10.375,10.375,0,0,1-1.67,6.708c-1.08,1.6-1.576,3.594-2.454,5.35a2.03,2.03,0,0,1-1.4,1.042q-15.228.1-30.458.044a2.753,2.753,0,0,1-3.032-3.035c-.041-3.48-.033-6.962-.005-10.443.018-2.168,1.045-3.2,3.211-3.214,5.453-.024,10.907-.008,16.36-.008" transform="translate(-72.751 -10.388)" fill="url(#linear-gradient)"/>
    <path id="Trazado_212520" data-name="Trazado 212520" d="M100.5,311.593h46.643c-9.738,13.243-33.249,16.034-46.643,0" transform="translate(-65.433 -202.871)" fill="#fff"/>
    <rect id="Rectángulo_52705" data-name="Rectángulo 52705" width="55.493" height="5.357" transform="translate(89.225 128.236)" fill="#eeac3a"/>
    <rect id="Rectángulo_52706" data-name="Rectángulo 52706" width="55.494" height="5.362" transform="translate(89.288 139.408)" fill="#eeac3a"/>
    <path id="Trazado_212521" data-name="Trazado 212521" d="M431.5,367.235c3.023,0,5.924-.111,8.814.026a8.33,8.33,0,0,1,0,16.623c-2.89.14-5.791.027-8.814.027Z" transform="translate(-280.941 -239.071)" fill="url(#linear-gradient)"/>
    <path id="Trazado_212522" data-name="Trazado 212522" d="M287.5,69.41H277.153v5.524h10.182c-.416,3.492-4.946,5.822-7.842,5.66a8.539,8.539,0,0,1-8.014-7.569,8.378,8.378,0,0,1,6.6-8.965,8.152,8.152,0,0,1,9.423,5.35" transform="translate(-176.729 -41.578)" fill="#43a99b"/>
    <rect id="Rectángulo_52707" data-name="Rectángulo 52707" width="5.367" height="27.637" transform="translate(55.835 75.298)" fill="#1a76b7"/>
    <path id="Trazado_212523" data-name="Trazado 212523" d="M208.348,370.865v14.046a12.815,12.815,0,0,1-1.295-.333c-4.553-1.7-9.113-3.382-13.638-5.154a7,7,0,0,1-1.71-1.45c.56-.5,1.038-1.2,1.693-1.46,4.893-1.907,9.821-3.724,14.951-5.649" transform="translate(-124.815 -241.462)" fill="#b0c0d2"/>
    <rect id="Rectángulo_52708" data-name="Rectángulo 52708" width="5.355" height="22.066" transform="translate(66.954 80.93)" fill="#eeac3a"/>
    <rect id="Rectángulo_52709" data-name="Rectángulo 52709" width="5.323" height="10.982" transform="translate(44.684 91.964)" fill="#653f9f"/>
    <path id="Trazado_212524" data-name="Trazado 212524" d="M428.13,69.429c.893-1.791,1.586-3.313,2.415-4.757a1.826,1.826,0,0,1,1.314-.777c3.066-.068,6.135-.036,9.483-.036-.89,1.814-1.656,3.474-2.532,5.074a1.545,1.545,0,0,1-1.168.475c-3.067.039-6.136.021-9.513.021" transform="translate(-278.746 -41.572)" fill="url(#linear-gradient)"/>
    <path id="Trazado_212525" data-name="Trazado 212525" d="M441.382,101.383c-3.392,0-6.461.025-9.528-.029a1.656,1.656,0,0,1-1.23-.643c-.845-1.5-1.568-3.07-2.474-4.892,3.455,0,6.664-.018,9.872.028a1.292,1.292,0,0,1,.894.631c.814,1.52,1.557,3.077,2.466,4.905" transform="translate(-278.759 -62.383)" fill="url(#linear-gradient)"/>
    <rect id="Rectángulo_52710" data-name="Rectángulo 52710" width="33.253" height="5.374" transform="translate(33.504 33.543)"/>
    <rect id="Rectángulo_52711" data-name="Rectángulo 52711" width="33.208" height="5.367" transform="translate(33.514 44.659)"/>
    <rect id="Rectángulo_52712" data-name="Rectángulo 52712" width="33.253" height="5.374" transform="translate(22.361 133.83)"/>
    <rect id="Rectángulo_52713" data-name="Rectángulo 52713" width="33.242" height="5.364" transform="translate(22.367 144.978)"/>
    <rect id="Rectángulo_52714" data-name="Rectángulo 52714" width="5.377" height="5.346" transform="translate(22.401 33.527)"/>
    <rect id="Rectángulo_52715" data-name="Rectángulo 52715" width="5.356" height="5.351" transform="translate(22.429 44.697)"/>
    <path id="Trazado_212526" data-name="Trazado 212526" d="M383.213,221.522c0-2.205-.037-4.411.007-6.616a7.206,7.206,0,0,1,10.31-6.608c4.627,2.137,9.16,4.483,13.686,6.828a7.248,7.248,0,0,1,.016,12.764c-4.523,2.351-9.058,4.693-13.684,6.832a7.212,7.212,0,0,1-10.328-6.586c-.047-2.2-.008-4.41-.008-6.616m5.571-.181c0,2.147-.042,4.295.013,6.44.045,1.768,1.229,2.5,2.825,1.721,4.216-2.062,8.421-4.148,12.593-6.3,1.776-.915,1.752-2.478-.045-3.4q-6.262-3.216-12.594-6.294c-1.622-.792-2.737-.076-2.78,1.739-.049,2.03-.011,4.062-.011,6.093" transform="translate(-249.492 -135.157)"/>
    <path id="Trazado_212527" data-name="Trazado 212527" d="M399.178,231.792c0-2.031-.038-4.063.011-6.093.044-1.815,1.158-2.532,2.781-1.739q6.326,3.089,12.594,6.294c1.8.923,1.821,2.486.045,3.4-4.172,2.149-8.377,4.236-12.593,6.3-1.6.781-2.78.047-2.825-1.721-.055-2.146-.013-4.293-.013-6.44" transform="translate(-259.886 -145.607)" fill="#eeac3a"/>
  </g>
</svg>
