<svg xmlns="http://www.w3.org/2000/svg" xmlns:xlink="http://www.w3.org/1999/xlink" width="116" height="116" viewBox="0 0 116 116">
  <defs>
    <filter id="Elipse_6171" x="0" y="0" width="116" height="116" filterUnits="userSpaceOnUse">
      <feOffset dy="3" input="SourceAlpha"/>
      <feGaussianBlur stdDeviation="3" result="blur"/>
      <feFlood flood-opacity="0.161"/>
      <feComposite operator="in" in2="blur"/>
      <feComposite in="SourceGraphic"/>
    </filter>
    <clipPath id="clip-path">
      <rect id="Rectángulo_52996" data-name="Rectángulo 52996" width="60.745" height="60.78" fill="#178dea"/>
    </clipPath>
  </defs>
  <g id="Grupo_172829" data-name="Grupo 172829" transform="translate(11681 7665)">
    <g transform="matrix(1, 0, 0, 1, -11681, -7665)" filter="url(#Elipse_6171)">
      <circle id="Elipse_6171-2" data-name="Elipse 6171" cx="49" cy="49" r="49" transform="translate(9 6)" fill="#fff"/>
    </g>
    <g id="Grupo_172827" data-name="Grupo 172827" transform="translate(-11653 -7640)">
      <g id="Grupo_172375" data-name="Grupo 172375" clip-path="url(#clip-path)">
        <path id="Trazado_212867" data-name="Trazado 212867" d="M108.209,19.245a12.013,12.013,0,0,1-.91,2.034,4.533,4.533,0,0,1-3.955,2H90.877c0,1.158,0,2.278,0,3.4a2.914,2.914,0,0,1-1.185,2.466,3.1,3.1,0,0,1-1.955.552c-7.534-.009-15.067,0-22.6-.015A1.421,1.421,0,0,0,64,30.138c-1.237,1.279-2.512,2.522-3.766,3.785a1.271,1.271,0,0,1-2.317-.94c.008-1.067,0-2.135,0-3.3-.408,0-.794,0-1.179,0a2.811,2.811,0,0,1-2.865-2.848q-.015-9.374,0-18.749A2.807,2.807,0,0,1,56.8,5.246q9.55-.009,19.1,0h.535a16.439,16.439,0,0,1,.82-2.718A4.373,4.373,0,0,1,81.337.034c2.728-.041,5.457-.012,8.186-.012,4.508,0,9.017.052,13.524-.02a4.915,4.915,0,0,1,5.07,3.837,1.132,1.132,0,0,0,.092.216Zm-15.84,1.664q5.339,0,10.677,0a2.469,2.469,0,0,0,2.792-2.761q0-6.5,0-12.993a2.456,2.456,0,0,0-2.731-2.762q-10.677,0-21.354,0A2.456,2.456,0,0,0,79.02,5.152q0,6.5,0,12.993a2.469,2.469,0,0,0,2.791,2.762q5.279,0,10.558,0M76.651,7.612H57.192c-.859,0-.952.093-.952.949q0,6.021,0,12.042c0,1.977.009,3.955-.006,5.932,0,.551.208.806.77.786s1.146-.005,1.72,0c1.2,0,1.593.387,1.6,1.592,0,.455,0,.91,0,1.539.895-.9,1.661-1.641,2.39-2.417A2.174,2.174,0,0,1,64.44,27.3q11.476.032,22.952.013c.178,0,.389.059.526-.016.213-.117.528-.32.535-.5.048-1.158.025-2.319.025-3.526h-.71c-2.056,0-4.112,0-6.168,0a4.745,4.745,0,0,1-4.947-4.97q-.007-3.559,0-7.119V7.612" transform="translate(-47.464 -0.001)" fill="#178dea"/>
        <path id="Trazado_212868" data-name="Trazado 212868" d="M8.421,287.246a1.606,1.606,0,0,1-.84-1.62c.034-2,.012-3.994.012-5.991v-.6a23.971,23.971,0,0,1-2.556-.352,6.788,6.788,0,0,1-5.029-7.071,6.705,6.705,0,0,1,5.664-6.185,20.126,20.126,0,0,1,4.078-.11,14.981,14.981,0,0,0,7.038-1.359c5.537-2.342,11.153-4.5,16.713-6.786a1.327,1.327,0,0,1,1.992,1.336c-.07,2.608-.013,5.22-.03,7.829,0,.392.087.588.486.717a5.323,5.323,0,0,1-.04,10.137c-.129.043-.256.094-.437.162v1.641c0,2.234-.021,4.469.012,6.7a1.517,1.517,0,0,1-.84,1.548h-.712a2.673,2.673,0,0,0-.256-.136q-7.067-2.846-14.135-5.689l-4.717-1.9v.65c0,1.8-.025,3.594.012,5.39A1.685,1.685,0,0,1,14,287.246Zm24.66-27.3c-.8.324-1.555.665-2.334.927a.747.747,0,0,0-.58.86c.02,3.836.012,7.672.009,11.509a5.018,5.018,0,0,1-.052.827,1.138,1.138,0,0,1-1.064.947,1.124,1.124,0,0,1-1.177-.8,3.256,3.256,0,0,1-.1-.876q-.01-5.28,0-10.56v-.661c-.151.041-.228.054-.3.082-4.1,1.651-8.189,3.311-12.292,4.945-.384.153-.365.394-.365.693,0,2.848.01,5.7-.008,8.543a.7.7,0,0,0,.515.779q8.6,3.43,17.183,6.893c.178.071.362.127.57.2ZM12.393,276.471v-8.8c-1.829,0-3.608,0-5.386,0a7.5,7.5,0,0,0-.824.088,4.439,4.439,0,0,0-3.808,4.326,4.318,4.318,0,0,0,3.81,4.358c2.046.123,4.1.026,6.209.026m.005,2.5H10.008v5.885H12.4Zm23.111-9.5v5.278a2.872,2.872,0,0,0,1.745-2.676,2.841,2.841,0,0,0-1.745-2.6" transform="translate(0 -226.466)" fill="#178dea"/>
        <path id="Trazado_212870" data-name="Trazado 212870" d="M366.7,376.671c-1.086,0-2.172.017-3.258-.007a1.194,1.194,0,0,1-1.21-.938,1.143,1.143,0,0,1,.661-1.317,2.07,2.07,0,0,1,.749-.12q3.11-.013,6.22,0c.886,0,1.407.449,1.416,1.165.01.743-.535,1.212-1.439,1.219-1.047.008-2.093,0-3.14,0Z" transform="translate(-319.147 -329.788)" fill="#178dea"/>
        <path id="Trazado_212871" data-name="Trazado 212871" d="M350.61,432.924c-.227.286-.421.732-.755.9a1.274,1.274,0,0,1-1.136-.042,36.1,36.1,0,0,1-2.768-2.738,1.152,1.152,0,0,1,1.645-1.565c.926.853,1.8,1.761,2.676,2.668a2.908,2.908,0,0,1,.338.781" transform="translate(-304.633 -378.199)" fill="#178dea"/>
        <path id="Trazado_212872" data-name="Trazado 212872" d="M346.588,302.983a4.793,4.793,0,0,1-.889-.714.913.913,0,0,1,.034-1.206c.844-.909,1.717-1.8,2.628-2.638a1.122,1.122,0,0,1,1.508.132,1.085,1.085,0,0,1,.087,1.508c-.827.9-1.711,1.745-2.594,2.589a2.84,2.84,0,0,1-.774.328" transform="translate(-304.418 -262.743)" fill="#178dea"/>
        <path id="Trazado_212873" data-name="Trazado 212873" d="M335.045,54.487c0-1.462-.008-2.924,0-4.386.01-1.336.889-1.836,2.053-1.167q3.8,2.184,7.583,4.382c1.163.675,1.173,1.7.02,2.368q-3.813,2.212-7.636,4.408c-1.129.648-2.008.144-2.019-1.159-.012-1.482,0-2.964,0-4.446m6.914.018-4.491-2.591V57.1l4.491-2.591" transform="translate(-295.213 -42.856)" fill="#178dea"/>
        <path id="Trazado_212874" data-name="Trazado 212874" d="M111.425,104.993q2.842,0,5.684,0c.873,0,1.408.442,1.427,1.158.019.733-.539,1.208-1.435,1.209q-5.684,0-11.369,0c-.871,0-1.41-.444-1.428-1.158-.019-.73.542-1.207,1.436-1.209q2.842-.005,5.684,0" transform="translate(-91.905 -92.511)" fill="#178dea"/>
        <path id="Trazado_212875" data-name="Trazado 212875" d="M109.22,160.892c1.164,0,2.327,0,3.491,0,.851,0,1.386.483,1.372,1.206a1.2,1.2,0,0,1-1.36,1.159q-3.52.008-7.041,0a1.2,1.2,0,1,1-.012-2.366c1.183-.007,2.367,0,3.55,0" transform="translate(-91.905 -141.764)" fill="#178dea"/>
        <path id="Trazado_212876" data-name="Trazado 212876" d="M206.49,162.087a1.183,1.183,0,1,1-1.193-1.156,1.2,1.2,0,0,1,1.193,1.156" transform="translate(-179.858 -141.8)" fill="#178dea"/>
        <path id="Trazado_212877" data-name="Trazado 212877" d="M236.135,430.543a1.192,1.192,0,0,1-1.172,1.218,1.244,1.244,0,0,1-1.192-1.16,1.205,1.205,0,0,1,1.192-1.2,1.16,1.16,0,0,1,1.172,1.145" transform="translate(-205.981 -378.353)" fill="#178dea"/>
      </g>
    </g>
  </g>
</svg>
