<svg xmlns="http://www.w3.org/2000/svg" xmlns:xlink="http://www.w3.org/1999/xlink" width="116" height="116" viewBox="0 0 116 116">
  <defs>
    <filter id="Elipse_6174" x="0" y="0" width="116" height="116" filterUnits="userSpaceOnUse">
      <feOffset dy="3" input="SourceAlpha"/>
      <feGaussianBlur stdDeviation="3" result="blur"/>
      <feFlood flood-opacity="0.161"/>
      <feComposite operator="in" in2="blur"/>
      <feComposite in="SourceGraphic"/>
    </filter>
    <clipPath id="clip-path">
      <rect id="Rectángulo_53000" data-name="Rectángulo 53000" width="60.726" height="60.649" fill="#178dea"/>
    </clipPath>
  </defs>
  <g id="Grupo_172830" data-name="Grupo 172830" transform="translate(11681 7491)">
    <g transform="matrix(1, 0, 0, 1, -11681, -7491)" filter="url(#Elipse_6174)">
      <circle id="Elipse_6174-2" data-name="Elipse 6174" cx="49" cy="49" r="49" transform="translate(9 6)" fill="#fff"/>
    </g>
    <g id="Grupo_172828" data-name="Grupo 172828" transform="translate(-11653 -7466)">
      <g id="Grupo_172377" data-name="Grupo 172377" clip-path="url(#clip-path)">
        <path id="Trazado_212878" data-name="Trazado 212878" d="M15.25,35.391c-2.323,0-4.431-.051-6.533.044-.409.019-.906.536-1.166.947a3.961,3.961,0,0,1-4.285,1.923A4.053,4.053,0,0,1,.034,34.884,4.206,4.206,0,0,1,2.094,30.9a3.943,3.943,0,0,1,5.44,1.593,1.434,1.434,0,0,0,1.522.914c1.869-.057,3.74-.02,5.61-.028a3.122,3.122,0,0,0,.495-.095V25.088c-2.194-.489-4.449-1.033-6.728-1.447-.295-.054-.787.512-1.06.884a4,4,0,0,1-5.59,1.034,4,4,0,0,1,4.453-6.641,3.02,3.02,0,0,1,1.24,1.332c.382,1.162,1.231,1.417,2.247,1.615,1.776.347,3.539.755,5.42,1.162.184-2.382.446-4.495-1.752-6.346-2.85-2.4-5.325-5.245-8-7.86a2.722,2.722,0,0,0-1.443-.733A4.221,4.221,0,0,1,.034,4.523,4.157,4.157,0,0,1,2.491.359a4.031,4.031,0,0,1,4.85,1.367A3.99,3.99,0,0,1,7,6.747c-.114.143-.222.29-.254.332l8.944,8.948c1.347-2.648,3.8-3.076,6.568-2.755l.2-.415A59.888,59.888,0,0,0,16.148,7.99c-1.881-1.108-3.038-2.235-2.912-4.283A4.1,4.1,0,0,1,16.568.061,4.1,4.1,0,0,1,20.76,2.2c.91,1.727.581,3.4-.975,4.934-.133.131-.27.258-.484.461a71.712,71.712,0,0,0,6.121,5.221c.92.635,2.448.391,3.926.575,0-1.84.033-3.45-.035-5.056-.01-.241-.46-.512-.756-.685A4.052,4.052,0,0,1,26.52,2.891a4,4,0,0,1,7.707.073A4.149,4.149,0,0,1,32.24,7.635a2.065,2.065,0,0,0-.835,1.356,34.689,34.689,0,0,0-.032,3.593,5.03,5.03,0,0,0,.063.516c1.893.245,3.664.413,5.215-1.243,1.434-1.531,3.132-2.815,4.764-4.253C39.876,6.265,39,4.718,39.75,2.653A4.147,4.147,0,0,1,43.8.014,4.242,4.242,0,0,1,47.455,3.2,3.779,3.779,0,0,1,45.39,7.533c-2.891,1.126-4.612,3.647-7.052,5.561,2.768-.068,5.359.15,6.62,2.854L53.9,7.012c-.017-.023-.205-.282-.4-.539a3.9,3.9,0,0,1,.03-4.9A3.923,3.923,0,0,1,58.3.384a4.148,4.148,0,0,1,2.4,4.063,4.322,4.322,0,0,1-3.557,3.639,4.169,4.169,0,0,0-2.051,1c-2.8,2.695-5.478,5.509-8.284,8.194a3.562,3.562,0,0,0-1.35,3.243,20.744,20.744,0,0,1,.018,2.546c2.34-.519,4.531-.976,6.7-1.519.318-.079.605-.532.783-.876a3.978,3.978,0,0,1,4.482-2.311,4.022,4.022,0,0,1,3.268,3.7,4.178,4.178,0,0,1-2.717,4,4.072,4.072,0,0,1-4.764-1.712c-.249-.345-.815-.758-1.151-.695-2.191.413-4.36.948-6.536,1.443v8.285c2.253,0,4.446.043,6.633-.043.355-.014.776-.548,1.016-.935a4.013,4.013,0,0,1,5.618-1.383,3.968,3.968,0,0,1,1.161,5.647A4.054,4.054,0,0,1,54.378,37.7c-.311-.214-.731-.469-.814-.781-.48-1.813-1.883-1.545-3.2-1.527-1.486.02-2.972.015-4.458.027a1.248,1.248,0,0,0-.31.1,1.859,1.859,0,0,0,.758,2.33c3.593,2.517,4.779,5.9,4.326,10.257A107.856,107.856,0,0,0,50.6,59.168v1.472H48.628v-3c0-4.124-.085-8.25.041-12.37A4.379,4.379,0,0,0,46.99,41.3a7.521,7.521,0,0,1-1.083-1.332l-.428.187c0,1.594.047,3.191-.027,4.782-.023.5-.257,1.256-.6,1.4a1.771,1.771,0,0,1-1.433-.528c-2.512-2.437-4.965-4.935-7.447-7.4-1.163-1.158-2.1-1.292-2.982-.465-.931.875-.81,1.879.371,3.091a2.4,2.4,0,0,0,.3.307,8.638,8.638,0,0,1,3.831,8.873c-.1.737.9,1.622,1.4,2.434.476.772.964,1.537,1.446,2.305a12.756,12.756,0,0,1-2.6.594c-3.4.07-6.795.028-10.373.028V60.65H25.39V55.57c-1.728,0-3.337.007-4.947,0a4.875,4.875,0,0,1-5.191-5.213q-.013-6.617,0-13.235v-1.73M35.3,47.568a3.946,3.946,0,0,0-3.939-4.157,13.055,13.055,0,0,1-3.555-.279,10.067,10.067,0,1,1,11.7-5.465c-.165.37-.294,1.026-.1,1.245,1.222,1.37,2.542,2.653,4.022,4.161V21.385H17.319V47.5c.476.025.852.061,1.229.061,5.553,0,11.106,0,16.753,0m2.265-10.574a8.074,8.074,0,1,0-14.6-.339c1.482,3.268,4.825,5.24,7.87,4.644-.752-2.5-.39-4.064,1.191-5.144,1.738-1.187,3.164-.987,5.536.839M17.324,19.2H43.4c.273-2.712-.82-4-3.4-4.011q-9.636-.027-19.273,0c-2.582.007-3.675,1.3-3.4,4.011M35.013,49.628H17.305c-.214,2.785.9,4.033,3.606,4.046,4.975.025,9.949.01,14.923,0a2.428,2.428,0,0,0,.6-.087l-1.42-3.961M2.024,34.452a2.164,2.164,0,0,0,2.01,2.03A2.128,2.128,0,0,0,6.07,34.36a2.074,2.074,0,0,0-1.987-2.015,2.114,2.114,0,0,0-2.059,2.107m54.689-2.106a2.068,2.068,0,0,0-2.053,1.983,2.026,2.026,0,1,0,4.046.084,2.118,2.118,0,0,0-1.993-2.068M30.418,2.019A2.147,2.147,0,0,0,28.286,4.07a2.127,2.127,0,0,0,2.023,1.994,2.1,2.1,0,0,0,2.124-2.028,2.132,2.132,0,0,0-2.014-2.017M2.028,22.077a2.046,2.046,0,0,0,1.81,2.2,2.009,2.009,0,0,0,2.226-1.754A2.144,2.144,0,0,0,4.211,20.2a2.169,2.169,0,0,0-2.183,1.88m54.68,2.235a2.083,2.083,0,0,0,2-2.049,2.164,2.164,0,0,0-2.146-2.072,2.133,2.133,0,0,0-1.9,2.149,2.03,2.03,0,0,0,2.049,1.973M56.646,6.064A2.037,2.037,0,0,0,58.706,4.11a2.11,2.11,0,0,0-1.947-2.092,2.014,2.014,0,0,0-2.1,2.054,1.935,1.935,0,0,0,1.985,1.992M6.068,4.044A2.033,2.033,0,0,0,4.082,2.018,2.107,2.107,0,0,0,2.023,4,2.03,2.03,0,0,0,4.112,6.064a1.936,1.936,0,0,0,1.956-2.02m13.207.062A2.147,2.147,0,0,0,17.3,2.019a2.021,2.021,0,0,0-2.095,1.918,1.951,1.951,0,0,0,2,2.128,2.089,2.089,0,0,0,2.071-1.959M43.5,2.018a2.134,2.134,0,0,0-2.05,2.007,2.081,2.081,0,0,0,2.135,2.039,1.945,1.945,0,0,0,1.935-2.051,2.023,2.023,0,0,0-2.019-2" transform="translate(0 0)" fill="#178dea"/>
        <rect id="Rectángulo_52997" data-name="Rectángulo 52997" width="1.774" height="1.876" transform="translate(19.386 39.53)" fill="#178dea"/>
        <rect id="Rectángulo_52998" data-name="Rectángulo 52998" width="1.749" height="1.845" transform="translate(19.399 43.596)" fill="#178dea"/>
        <rect id="Rectángulo_52999" data-name="Rectángulo 52999" width="1.856" height="1.787" transform="translate(23.416 43.575)" fill="#178dea"/>
        <path id="Trazado_212879" data-name="Trazado 212879" d="M94.689,99.329l1.791,1.458c-2.315,2.272-4.425,4.413-6.643,6.435a1.837,1.837,0,0,1-1.707-.113,31.519,31.519,0,0,1-2.89-2.594l1.522-1.593,1.967,2.516,5.96-6.109" transform="translate(-60.715 -70.749)" fill="#178dea"/>
      </g>
    </g>
  </g>
</svg>
